<?xml version="1.0" standalone="no"?>
<!DOCTYPE svg PUBLIC "-//W3C//DTD SVG 1.1//EN" "http://www.w3.org/Graphics/SVG/1.1/DTD/svg11.dtd">
<svg width="46.22222in" height="69.333336in" viewBox="0 0 3328 4992" xmlns="http://www.w3.org/2000/svg" version="1.1">
<path id="csg562-036-01" fill="none" stroke="black" stroke-width="1" d="M 2165.00 837.00 L 2145.00 857.00 L 2125.00 856.00 L 2065.00 856.00 L 2045.00 855.00 L 1985.00 855.00 L 1965.00 854.00 L 1905.00 854.00 L 1885.00 853.00 L 1864.30 853.00 L 1632.00 876.00 L 1573.50 849.00 L 1525.00 849.00 L 1505.00 848.00 L 1445.00 848.00 L 1430.41 847.27 L 1197.00 861.00 L 909.00 864.00 L 905.63 955.00 L 945.00 955.00 L 965.00 956.00 L 1025.00 956.00 L 1045.00 957.00 L 1105.00 957.00 L 1125.00 958.00 L 1165.00 958.00 L 1185.00 959.00 L 1245.00 959.00 L 1265.00 960.00 L 1325.00 960.00 L 1345.00 961.00 L 1405.00 961.00 L 1425.00 962.00 L 1465.00 962.00 L 1485.00 963.00 L 1545.00 963.00 L 1565.00 964.00 L 1625.00 964.00 L 1645.00 965.00 L 1685.00 965.00 L 1705.00 966.00 L 1765.00 966.00 L 1785.00 967.00 L 1845.00 967.00 L 1865.00 968.00 L 1925.00 968.00 L 1945.00 969.00 L 1985.00 969.00 L 2005.00 970.00 L 2065.00 970.00 L 2085.00 971.00 L 2145.00 971.00 L 2165.00 972.00 L 2225.00 972.00 L 2245.00 973.00 L 2285.00 973.00 L 2305.00 974.00 L 2365.00 974.00 L 2385.00 975.00 L 2445.00 975.00 L 2465.00 976.00 L 2505.00 976.00 L 2525.00 977.00 L 2585.00 977.00 L 2605.00 978.00 L 2665.00 978.00 L 2685.00 979.00 L 2745.00 979.00 L 2765.00 980.00 L 2805.00 980.00 L 2825.00 981.00 L 2885.00 981.00 L 2905.00 982.00 L 2941.81 982.00 L 2997.00 921.00 L 2867.00 866.00 L 2845.00 866.00 L 2825.00 865.00 L 2765.00 865.00 L 2745.00 864.00 L 2685.00 864.00 L 2665.00 863.00 L 2647.00 863.00 L 2259.00 879.00 L 2223.91 857.95 L 2205.00 857.00 L 2185.00 837.00 Z" />
<path id="csg562-036-02" fill="none" stroke="black" stroke-width="1" d="M 905.63 955.00 L 901.04 1078.98 L 905.00 1077.00 L 1025.00 1077.00 L 1045.00 1078.00 L 1165.00 1078.00 L 1185.00 1079.00 L 1305.00 1079.00 L 1325.00 1080.00 L 1445.00 1080.00 L 1465.00 1081.00 L 1585.00 1081.00 L 1605.00 1082.00 L 1725.00 1082.00 L 1745.00 1083.00 L 1885.00 1083.00 L 1905.00 1084.00 L 2025.00 1084.00 L 2045.00 1065.00 L 2065.00 1065.00 L 2085.00 1085.00 L 2165.00 1085.00 L 2185.00 1086.00 L 2305.00 1086.00 L 2325.00 1087.00 L 2445.00 1087.00 L 2465.00 1088.00 L 2585.00 1088.00 L 2605.00 1089.00 L 2725.00 1089.00 L 2745.00 1090.00 L 2885.00 1090.00 L 2905.00 1091.00 L 2995.56 1091.00 L 2940.00 984.00 L 2941.81 982.00 L 2905.00 982.00 L 2885.00 981.00 L 2825.00 981.00 L 2805.00 980.00 L 2765.00 980.00 L 2745.00 979.00 L 2685.00 979.00 L 2665.00 978.00 L 2605.00 978.00 L 2585.00 977.00 L 2525.00 977.00 L 2505.00 976.00 L 2465.00 976.00 L 2445.00 975.00 L 2385.00 975.00 L 2365.00 974.00 L 2305.00 974.00 L 2285.00 973.00 L 2245.00 973.00 L 2225.00 972.00 L 2165.00 972.00 L 2145.00 971.00 L 2085.00 971.00 L 2065.00 970.00 L 2005.00 970.00 L 1985.00 969.00 L 1945.00 969.00 L 1925.00 968.00 L 1865.00 968.00 L 1845.00 967.00 L 1785.00 967.00 L 1765.00 966.00 L 1705.00 966.00 L 1685.00 965.00 L 1645.00 965.00 L 1625.00 964.00 L 1565.00 964.00 L 1545.00 963.00 L 1485.00 963.00 L 1465.00 962.00 L 1425.00 962.00 L 1405.00 961.00 L 1345.00 961.00 L 1325.00 960.00 L 1265.00 960.00 L 1245.00 959.00 L 1185.00 959.00 L 1165.00 958.00 L 1125.00 958.00 L 1105.00 957.00 L 1045.00 957.00 L 1025.00 956.00 L 965.00 956.00 L 945.00 955.00 Z" />
<path id="csg562-036-03" fill="none" stroke="black" stroke-width="1" d="M 2045.00 1065.00 L 2025.00 1084.00 L 1905.00 1084.00 L 1885.00 1083.00 L 1745.00 1083.00 L 1725.00 1082.00 L 1605.00 1082.00 L 1585.00 1081.00 L 1465.00 1081.00 L 1445.00 1080.00 L 1325.00 1080.00 L 1305.00 1079.00 L 1185.00 1079.00 L 1165.00 1078.00 L 1045.00 1078.00 L 1025.00 1077.00 L 905.00 1077.00 L 901.04 1078.98 L 897.38 1177.81 L 905.00 1174.00 L 1065.00 1174.00 L 1085.00 1175.00 L 1245.00 1175.00 L 1265.00 1176.00 L 1445.00 1176.00 L 1465.00 1177.00 L 1625.00 1177.00 L 1645.00 1178.00 L 1805.00 1178.00 L 1825.00 1179.00 L 2005.00 1179.00 L 2025.00 1180.00 L 2185.00 1180.00 L 2205.00 1181.00 L 2365.00 1181.00 L 2385.00 1182.00 L 2565.00 1182.00 L 2585.00 1183.00 L 2745.00 1183.00 L 2765.00 1184.00 L 2925.00 1184.00 L 2945.00 1185.00 L 3031.83 1185.00 L 3021.00 1140.00 L 2995.56 1091.00 L 2905.00 1091.00 L 2885.00 1090.00 L 2745.00 1090.00 L 2725.00 1089.00 L 2605.00 1089.00 L 2585.00 1088.00 L 2465.00 1088.00 L 2445.00 1087.00 L 2325.00 1087.00 L 2305.00 1086.00 L 2185.00 1086.00 L 2165.00 1085.00 L 2085.00 1085.00 L 2065.00 1065.00 Z" />
<path id="csg562-036-04" fill="none" stroke="black" stroke-width="1" d="M 905.00 1174.00 L 897.38 1177.81 L 893.04 1294.98 L 905.00 1289.00 L 1245.00 1289.00 L 1265.00 1290.00 L 1605.00 1290.00 L 1625.00 1291.00 L 1965.00 1291.00 L 1985.00 1292.00 L 2325.00 1292.00 L 2345.00 1293.00 L 2425.00 1293.00 L 2445.00 1313.00 L 2465.00 1293.00 L 2685.00 1293.00 L 2705.00 1294.00 L 3045.00 1294.00 L 3058.23 1294.66 L 3031.83 1185.00 L 2945.00 1185.00 L 2925.00 1184.00 L 2765.00 1184.00 L 2745.00 1183.00 L 2585.00 1183.00 L 2565.00 1182.00 L 2385.00 1182.00 L 2365.00 1181.00 L 2205.00 1181.00 L 2185.00 1180.00 L 2025.00 1180.00 L 2005.00 1179.00 L 1825.00 1179.00 L 1805.00 1178.00 L 1645.00 1178.00 L 1625.00 1177.00 L 1465.00 1177.00 L 1445.00 1176.00 L 1265.00 1176.00 L 1245.00 1175.00 L 1085.00 1175.00 L 1065.00 1174.00 Z" />
<path id="csg562-036-05" fill="none" stroke="black" stroke-width="1" d="M 905.00 1289.00 L 893.04 1294.98 L 888.31 1422.73 L 888.31 1422.73 L 905.00 1381.00 L 925.00 1381.00 L 945.00 1421.00 L 965.00 1401.00 L 985.00 1421.00 L 1045.00 1421.00 L 1065.00 1422.00 L 1225.00 1422.00 L 1245.00 1423.00 L 1405.00 1423.00 L 1425.00 1424.00 L 1585.00 1424.00 L 1605.00 1425.00 L 1665.00 1425.00 L 1685.00 1445.00 L 1725.00 1445.00 L 1745.00 1425.00 L 1765.00 1425.00 L 1785.00 1426.00 L 1945.00 1426.00 L 1965.00 1427.00 L 2125.00 1427.00 L 2145.00 1428.00 L 2285.00 1428.00 L 2305.00 1429.00 L 2345.00 1429.00 L 2365.00 1409.00 L 2385.00 1429.00 L 2405.00 1409.00 L 2425.00 1409.00 L 2445.00 1429.00 L 2465.00 1429.00 L 2485.00 1430.00 L 2645.00 1430.00 L 2665.00 1431.00 L 2825.00 1431.00 L 2845.00 1432.00 L 3005.00 1432.00 L 3025.00 1433.00 L 3038.87 1433.00 L 3060.00 1302.00 L 3058.23 1294.66 L 3045.00 1294.00 L 2705.00 1294.00 L 2685.00 1293.00 L 2465.00 1293.00 L 2445.00 1313.00 L 2425.00 1293.00 L 2345.00 1293.00 L 2325.00 1292.00 L 1985.00 1292.00 L 1965.00 1291.00 L 1625.00 1291.00 L 1605.00 1290.00 L 1265.00 1290.00 L 1245.00 1289.00 Z" />
<path id="csg562-036-06" fill="none" stroke="black" stroke-width="1" d="M 905.00 1381.00 L 888.31 1422.73 L 885.00 1512.00 L 885.31 1536.85 L 905.00 1527.00 L 1105.00 1527.00 L 1125.00 1528.00 L 1345.00 1528.00 L 1365.00 1529.00 L 1565.00 1529.00 L 1585.00 1530.00 L 1805.00 1530.00 L 1825.00 1531.00 L 1885.00 1531.00 L 1905.00 1503.00 L 1925.00 1499.00 L 1945.00 1501.00 L 1965.00 1501.00 L 1985.00 1531.00 L 2045.00 1531.00 L 2065.00 1532.00 L 2265.00 1532.00 L 2285.00 1533.00 L 2505.00 1533.00 L 2525.00 1534.00 L 2745.00 1534.00 L 2765.00 1535.00 L 2965.00 1535.00 L 2985.00 1536.00 L 3022.26 1536.00 L 3038.87 1433.00 L 3025.00 1433.00 L 3005.00 1432.00 L 2845.00 1432.00 L 2825.00 1431.00 L 2665.00 1431.00 L 2645.00 1430.00 L 2485.00 1430.00 L 2465.00 1429.00 L 2445.00 1429.00 L 2425.00 1409.00 L 2405.00 1409.00 L 2385.00 1429.00 L 2365.00 1409.00 L 2345.00 1429.00 L 2305.00 1429.00 L 2285.00 1428.00 L 2145.00 1428.00 L 2125.00 1427.00 L 1965.00 1427.00 L 1945.00 1426.00 L 1785.00 1426.00 L 1765.00 1425.00 L 1745.00 1425.00 L 1725.00 1445.00 L 1685.00 1445.00 L 1665.00 1425.00 L 1605.00 1425.00 L 1585.00 1424.00 L 1425.00 1424.00 L 1405.00 1423.00 L 1245.00 1423.00 L 1225.00 1422.00 L 1065.00 1422.00 L 1045.00 1421.00 L 985.00 1421.00 L 965.00 1401.00 L 945.00 1421.00 L 925.00 1381.00 Z" />
<path id="csg562-036-07" fill="none" stroke="black" stroke-width="1" d="M 1925.00 1499.00 L 1905.00 1503.00 L 1885.00 1531.00 L 1825.00 1531.00 L 1805.00 1530.00 L 1585.00 1530.00 L 1565.00 1529.00 L 1365.00 1529.00 L 1345.00 1528.00 L 1125.00 1528.00 L 1105.00 1527.00 L 905.00 1527.00 L 885.31 1536.85 L 886.71 1650.15 L 905.00 1641.00 L 1425.00 1641.00 L 1445.00 1642.00 L 1965.00 1642.00 L 1985.00 1643.00 L 2425.00 1643.00 L 2445.00 1623.00 L 2465.00 1643.00 L 2525.00 1643.00 L 2545.00 1644.00 L 2982.24 1644.00 L 3015.00 1581.00 L 3022.26 1536.00 L 2985.00 1536.00 L 2965.00 1535.00 L 2765.00 1535.00 L 2745.00 1534.00 L 2525.00 1534.00 L 2505.00 1533.00 L 2285.00 1533.00 L 2265.00 1532.00 L 2065.00 1532.00 L 2045.00 1531.00 L 1985.00 1531.00 L 1965.00 1501.00 L 1945.00 1501.00 L 1925.00 1499.00 Z" />
<path id="csg562-036-08" fill="none" stroke="black" stroke-width="1" d="M 2445.00 1623.00 L 2425.00 1643.00 L 1985.00 1643.00 L 1965.00 1642.00 L 1445.00 1642.00 L 1425.00 1641.00 L 905.00 1641.00 L 886.71 1650.15 L 888.01 1755.50 L 905.00 1747.00 L 1005.00 1747.00 L 1025.00 1748.00 L 1145.00 1748.00 L 1165.00 1749.00 L 1285.00 1749.00 L 1305.00 1750.00 L 1425.00 1750.00 L 1445.00 1751.00 L 1565.00 1751.00 L 1585.00 1752.00 L 1705.00 1752.00 L 1725.00 1753.00 L 1845.00 1753.00 L 1865.00 1754.00 L 1985.00 1754.00 L 2005.00 1755.00 L 2105.00 1755.00 L 2125.00 1756.00 L 2245.00 1756.00 L 2265.00 1757.00 L 2385.00 1757.00 L 2405.00 1758.00 L 2525.00 1758.00 L 2545.00 1759.00 L 2665.00 1759.00 L 2685.00 1760.00 L 2805.00 1760.00 L 2825.00 1761.00 L 2945.00 1761.00 L 2965.00 1762.00 L 3042.25 1762.00 L 2976.00 1656.00 L 2982.24 1644.00 L 2545.00 1644.00 L 2525.00 1643.00 L 2465.00 1643.00 L 2445.00 1623.00 Z" />
<path id="csg562-036-09" fill="none" stroke="black" stroke-width="1" d="M 905.00 1747.00 L 888.01 1755.50 L 889.32 1861.84 L 905.00 1854.00 L 1005.00 1854.00 L 1025.00 1855.00 L 1145.00 1855.00 L 1165.00 1856.00 L 1285.00 1856.00 L 1305.00 1857.00 L 1425.00 1857.00 L 1445.00 1858.00 L 1565.00 1858.00 L 1585.00 1859.00 L 1665.00 1859.00 L 1685.00 1839.00 L 1705.00 1859.00 L 1725.00 1860.00 L 1805.00 1860.00 L 1825.00 1880.00 L 1845.00 1860.00 L 1865.00 1861.00 L 1985.00 1861.00 L 2005.00 1862.00 L 2125.00 1862.00 L 2145.00 1883.00 L 2165.00 1863.00 L 2225.00 1863.00 L 2245.00 1883.00 L 2265.00 1863.00 L 2285.00 1864.00 L 2405.00 1864.00 L 2425.00 1865.00 L 2545.00 1865.00 L 2565.00 1866.00 L 2685.00 1866.00 L 2705.00 1867.00 L 2825.00 1867.00 L 2845.00 1868.00 L 2965.00 1868.00 L 2985.00 1869.00 L 3045.00 1869.00 L 3065.00 1849.00 L 3085.00 1849.00 L 3105.00 1869.00 L 3109.60 1869.77 L 3042.25 1762.00 L 2965.00 1762.00 L 2945.00 1761.00 L 2825.00 1761.00 L 2805.00 1760.00 L 2685.00 1760.00 L 2665.00 1759.00 L 2545.00 1759.00 L 2525.00 1758.00 L 2405.00 1758.00 L 2385.00 1757.00 L 2265.00 1757.00 L 2245.00 1756.00 L 2125.00 1756.00 L 2105.00 1755.00 L 2005.00 1755.00 L 1985.00 1754.00 L 1865.00 1754.00 L 1845.00 1753.00 L 1725.00 1753.00 L 1705.00 1752.00 L 1585.00 1752.00 L 1565.00 1751.00 L 1445.00 1751.00 L 1425.00 1750.00 L 1305.00 1750.00 L 1285.00 1749.00 L 1165.00 1749.00 L 1145.00 1748.00 L 1025.00 1748.00 L 1005.00 1747.00 Z" />
<path id="csg562-036-10" fill="none" stroke="black" stroke-width="1" d="M 1685.00 1839.00 L 1665.00 1859.00 L 1585.00 1859.00 L 1565.00 1858.00 L 1445.00 1858.00 L 1425.00 1857.00 L 1305.00 1857.00 L 1285.00 1856.00 L 1165.00 1856.00 L 1145.00 1855.00 L 1025.00 1855.00 L 1005.00 1854.00 L 905.00 1854.00 L 889.32 1861.84 L 890.64 1969.18 L 905.00 1962.00 L 1045.00 1962.00 L 1065.00 1963.00 L 1205.00 1963.00 L 1225.00 1964.00 L 1385.00 1964.00 L 1405.00 1965.00 L 1545.00 1965.00 L 1565.00 1966.00 L 1725.00 1966.00 L 1745.00 1967.00 L 1885.00 1967.00 L 1905.00 1968.00 L 2065.00 1968.00 L 2085.00 1969.00 L 2225.00 1969.00 L 2245.00 1970.00 L 2405.00 1970.00 L 2425.00 1971.00 L 2565.00 1971.00 L 2585.00 1972.00 L 2745.00 1972.00 L 2765.00 1973.00 L 2905.00 1973.00 L 2925.00 1974.00 L 2988.60 1974.00 L 3111.00 1872.00 L 3109.60 1869.77 L 3105.00 1869.00 L 3085.00 1849.00 L 3065.00 1849.00 L 3045.00 1869.00 L 2985.00 1869.00 L 2965.00 1868.00 L 2845.00 1868.00 L 2825.00 1867.00 L 2705.00 1867.00 L 2685.00 1866.00 L 2565.00 1866.00 L 2545.00 1865.00 L 2425.00 1865.00 L 2405.00 1864.00 L 2285.00 1864.00 L 2265.00 1863.00 L 2245.00 1883.00 L 2225.00 1863.00 L 2165.00 1863.00 L 2145.00 1883.00 L 2125.00 1862.00 L 2005.00 1862.00 L 1985.00 1861.00 L 1865.00 1861.00 L 1845.00 1860.00 L 1825.00 1880.00 L 1805.00 1860.00 L 1725.00 1860.00 L 1705.00 1859.00 L 1685.00 1839.00 Z" />
<path id="csg562-036-11" fill="none" stroke="black" stroke-width="1" d="M 905.00 1962.00 L 890.64 1969.18 L 891.00 1998.00 L 900.52 2085.24 L 905.00 2083.00 L 985.00 2083.00 L 1005.00 2084.00 L 1025.00 2084.00 L 1045.00 2104.00 L 1065.00 2084.00 L 1085.00 2084.00 L 1105.00 2085.00 L 1185.00 2085.00 L 1205.00 2086.00 L 1285.00 2086.00 L 1305.00 2087.00 L 1385.00 2087.00 L 1405.00 2088.00 L 1485.00 2088.00 L 1505.00 2089.00 L 1585.00 2089.00 L 1605.00 2090.00 L 1685.00 2090.00 L 1705.00 2091.00 L 1785.00 2091.00 L 1805.00 2092.00 L 1905.00 2092.00 L 1925.00 2093.00 L 2005.00 2093.00 L 2025.00 2094.00 L 2105.00 2094.00 L 2125.00 2095.00 L 2205.00 2095.00 L 2225.00 2096.00 L 2305.00 2096.00 L 2325.00 2097.00 L 2405.00 2097.00 L 2425.00 2098.00 L 2505.00 2098.00 L 2525.00 2099.00 L 2605.00 2099.00 L 2625.00 2100.00 L 2705.00 2100.00 L 2725.00 2101.00 L 2805.00 2101.00 L 2825.00 2102.00 L 2925.00 2102.00 L 2945.00 2103.00 L 2983.97 2103.00 L 2985.00 1977.00 L 2988.60 1974.00 L 2925.00 1974.00 L 2905.00 1973.00 L 2765.00 1973.00 L 2745.00 1972.00 L 2585.00 1972.00 L 2565.00 1971.00 L 2425.00 1971.00 L 2405.00 1970.00 L 2245.00 1970.00 L 2225.00 1969.00 L 2085.00 1969.00 L 2065.00 1968.00 L 1905.00 1968.00 L 1885.00 1967.00 L 1745.00 1967.00 L 1725.00 1966.00 L 1565.00 1966.00 L 1545.00 1965.00 L 1405.00 1965.00 L 1385.00 1964.00 L 1225.00 1964.00 L 1205.00 1963.00 L 1065.00 1963.00 L 1045.00 1962.00 Z" />
<path id="csg562-036-12" fill="none" stroke="black" stroke-width="1" d="M 905.00 2083.00 L 900.52 2085.24 L 909.00 2163.00 L 908.72 2194.00 L 965.00 2194.00 L 985.00 2195.00 L 1065.00 2195.00 L 1085.00 2196.00 L 1145.00 2196.00 L 1165.00 2197.00 L 1245.00 2197.00 L 1265.00 2198.00 L 1325.00 2198.00 L 1345.00 2199.00 L 1425.00 2199.00 L 1445.00 2200.00 L 1505.00 2200.00 L 1525.00 2201.00 L 1605.00 2201.00 L 1625.00 2202.00 L 1685.00 2202.00 L 1705.00 2203.00 L 1785.00 2203.00 L 1805.00 2204.00 L 1885.00 2204.00 L 1905.00 2205.00 L 1965.00 2205.00 L 1985.00 2206.00 L 2065.00 2206.00 L 2085.00 2207.00 L 2145.00 2207.00 L 2165.00 2208.00 L 2245.00 2208.00 L 2265.00 2209.00 L 2325.00 2209.00 L 2345.00 2210.00 L 2425.00 2210.00 L 2445.00 2211.00 L 2505.00 2211.00 L 2525.00 2212.00 L 2605.00 2212.00 L 2625.00 2213.00 L 2705.00 2213.00 L 2725.00 2214.00 L 2785.00 2214.00 L 2805.00 2215.00 L 2885.00 2215.00 L 2905.00 2216.00 L 2965.00 2216.00 L 2983.03 2216.90 L 2983.97 2103.00 L 2945.00 2103.00 L 2925.00 2102.00 L 2825.00 2102.00 L 2805.00 2101.00 L 2725.00 2101.00 L 2705.00 2100.00 L 2625.00 2100.00 L 2605.00 2099.00 L 2525.00 2099.00 L 2505.00 2098.00 L 2425.00 2098.00 L 2405.00 2097.00 L 2325.00 2097.00 L 2305.00 2096.00 L 2225.00 2096.00 L 2205.00 2095.00 L 2125.00 2095.00 L 2105.00 2094.00 L 2025.00 2094.00 L 2005.00 2093.00 L 1925.00 2093.00 L 1905.00 2092.00 L 1805.00 2092.00 L 1785.00 2091.00 L 1705.00 2091.00 L 1685.00 2090.00 L 1605.00 2090.00 L 1585.00 2089.00 L 1505.00 2089.00 L 1485.00 2088.00 L 1405.00 2088.00 L 1385.00 2087.00 L 1305.00 2087.00 L 1285.00 2086.00 L 1205.00 2086.00 L 1185.00 2085.00 L 1105.00 2085.00 L 1085.00 2084.00 L 1065.00 2084.00 L 1045.00 2104.00 L 1025.00 2084.00 L 1005.00 2084.00 L 985.00 2083.00 Z" />
<path id="csg562-036-13" fill="none" stroke="black" stroke-width="1" d="M 908.72 2194.00 L 907.69 2310.00 L 1045.00 2310.00 L 1065.00 2311.00 L 1225.00 2311.00 L 1245.00 2312.00 L 1405.00 2312.00 L 1425.00 2313.00 L 1585.00 2313.00 L 1605.00 2314.00 L 1765.00 2314.00 L 1785.00 2315.00 L 1925.00 2315.00 L 1945.00 2316.00 L 2105.00 2316.00 L 2125.00 2317.00 L 2285.00 2317.00 L 2305.00 2318.00 L 2465.00 2318.00 L 2485.00 2319.00 L 2645.00 2319.00 L 2665.00 2320.00 L 2805.00 2320.00 L 2825.00 2321.00 L 2982.18 2321.00 L 2983.03 2216.90 L 2965.00 2216.00 L 2905.00 2216.00 L 2885.00 2215.00 L 2805.00 2215.00 L 2785.00 2214.00 L 2725.00 2214.00 L 2705.00 2213.00 L 2625.00 2213.00 L 2605.00 2212.00 L 2525.00 2212.00 L 2505.00 2211.00 L 2445.00 2211.00 L 2425.00 2210.00 L 2345.00 2210.00 L 2325.00 2209.00 L 2265.00 2209.00 L 2245.00 2208.00 L 2165.00 2208.00 L 2145.00 2207.00 L 2085.00 2207.00 L 2065.00 2206.00 L 1985.00 2206.00 L 1965.00 2205.00 L 1905.00 2205.00 L 1885.00 2204.00 L 1805.00 2204.00 L 1785.00 2203.00 L 1705.00 2203.00 L 1685.00 2202.00 L 1625.00 2202.00 L 1605.00 2201.00 L 1525.00 2201.00 L 1505.00 2200.00 L 1445.00 2200.00 L 1425.00 2199.00 L 1345.00 2199.00 L 1325.00 2198.00 L 1265.00 2198.00 L 1245.00 2197.00 L 1165.00 2197.00 L 1145.00 2196.00 L 1085.00 2196.00 L 1065.00 2195.00 L 985.00 2195.00 L 965.00 2194.00 Z" />
<path id="csg562-036-14" fill="none" stroke="black" stroke-width="1" d="M 907.69 2310.00 L 906.65 2426.00 L 1105.00 2426.00 L 1125.00 2427.00 L 1325.00 2427.00 L 1345.00 2428.00 L 1545.00 2428.00 L 1565.00 2429.00 L 1765.00 2429.00 L 1785.00 2430.00 L 1985.00 2430.00 L 2005.00 2431.00 L 2205.00 2431.00 L 2225.00 2432.00 L 2425.00 2432.00 L 2445.00 2433.00 L 2645.00 2433.00 L 2665.00 2434.00 L 2865.00 2434.00 L 2885.00 2435.00 L 2989.97 2435.00 L 2982.00 2343.00 L 2982.18 2321.00 L 2825.00 2321.00 L 2805.00 2320.00 L 2665.00 2320.00 L 2645.00 2319.00 L 2485.00 2319.00 L 2465.00 2318.00 L 2305.00 2318.00 L 2285.00 2317.00 L 2125.00 2317.00 L 2105.00 2316.00 L 1945.00 2316.00 L 1925.00 2315.00 L 1785.00 2315.00 L 1765.00 2314.00 L 1605.00 2314.00 L 1585.00 2313.00 L 1425.00 2313.00 L 1405.00 2312.00 L 1245.00 2312.00 L 1225.00 2311.00 L 1065.00 2311.00 L 1045.00 2310.00 Z" />
<path id="csg562-036-15" fill="none" stroke="black" stroke-width="1" d="M 906.65 2426.00 L 905.71 2531.00 L 1025.00 2531.00 L 1045.00 2532.00 L 1165.00 2532.00 L 1185.00 2533.00 L 1305.00 2533.00 L 1325.00 2534.00 L 1445.00 2534.00 L 1465.00 2535.00 L 1585.00 2535.00 L 1605.00 2536.00 L 1725.00 2536.00 L 1745.00 2537.00 L 1865.00 2537.00 L 1885.00 2538.00 L 2025.00 2538.00 L 2045.00 2539.00 L 2165.00 2539.00 L 2185.00 2540.00 L 2305.00 2540.00 L 2325.00 2541.00 L 2445.00 2541.00 L 2465.00 2542.00 L 2585.00 2542.00 L 2605.00 2543.00 L 2725.00 2543.00 L 2745.00 2544.00 L 2865.00 2544.00 L 2885.00 2545.00 L 2999.50 2545.00 L 2989.97 2435.00 L 2885.00 2435.00 L 2865.00 2434.00 L 2665.00 2434.00 L 2645.00 2433.00 L 2445.00 2433.00 L 2425.00 2432.00 L 2225.00 2432.00 L 2205.00 2431.00 L 2005.00 2431.00 L 1985.00 2430.00 L 1785.00 2430.00 L 1765.00 2429.00 L 1565.00 2429.00 L 1545.00 2428.00 L 1345.00 2428.00 L 1325.00 2427.00 L 1125.00 2427.00 L 1105.00 2426.00 Z" />
<path id="csg562-036-16" fill="none" stroke="black" stroke-width="1" d="M 905.71 2531.00 L 904.75 2639.13 L 905.00 2639.00 L 985.00 2639.00 L 1005.00 2640.00 L 1065.00 2640.00 L 1085.00 2620.00 L 1105.00 2621.00 L 1125.00 2641.00 L 1205.00 2641.00 L 1225.00 2642.00 L 1305.00 2642.00 L 1325.00 2643.00 L 1405.00 2643.00 L 1425.00 2644.00 L 1525.00 2644.00 L 1545.00 2645.00 L 1625.00 2645.00 L 1645.00 2646.00 L 1725.00 2646.00 L 1745.00 2647.00 L 1845.00 2647.00 L 1865.00 2648.00 L 1945.00 2648.00 L 1965.00 2649.00 L 2045.00 2649.00 L 2065.00 2650.00 L 2165.00 2650.00 L 2185.00 2651.00 L 2265.00 2651.00 L 2285.00 2652.00 L 2365.00 2652.00 L 2385.00 2653.00 L 2485.00 2653.00 L 2505.00 2654.00 L 2545.00 2654.00 L 2565.00 2674.00 L 2585.00 2654.00 L 2605.00 2655.00 L 2685.00 2655.00 L 2705.00 2656.00 L 2805.00 2656.00 L 2825.00 2657.00 L 2905.00 2657.00 L 2925.00 2658.00 L 3005.00 2658.00 L 3009.30 2658.22 L 2999.50 2545.00 L 2885.00 2545.00 L 2865.00 2544.00 L 2745.00 2544.00 L 2725.00 2543.00 L 2605.00 2543.00 L 2585.00 2542.00 L 2465.00 2542.00 L 2445.00 2541.00 L 2325.00 2541.00 L 2305.00 2540.00 L 2185.00 2540.00 L 2165.00 2539.00 L 2045.00 2539.00 L 2025.00 2538.00 L 1885.00 2538.00 L 1865.00 2537.00 L 1745.00 2537.00 L 1725.00 2536.00 L 1605.00 2536.00 L 1585.00 2535.00 L 1465.00 2535.00 L 1445.00 2534.00 L 1325.00 2534.00 L 1305.00 2533.00 L 1185.00 2533.00 L 1165.00 2532.00 L 1045.00 2532.00 L 1025.00 2531.00 Z" />
<path id="csg562-036-17" fill="none" stroke="black" stroke-width="1" d="M 1085.00 2620.00 L 1065.00 2640.00 L 1005.00 2640.00 L 985.00 2639.00 L 905.00 2639.00 L 904.75 2639.13 L 903.72 2754.64 L 905.00 2754.00 L 985.00 2754.00 L 1005.00 2755.00 L 1085.00 2755.00 L 1105.00 2756.00 L 1185.00 2756.00 L 1205.00 2757.00 L 1285.00 2757.00 L 1305.00 2758.00 L 1405.00 2758.00 L 1425.00 2759.00 L 1445.51 2759.00 L 1446.00 2757.00 L 1644.00 2742.00 L 1905.00 2745.00 L 2829.00 2748.00 L 2887.33 2773.00 L 2896.82 2773.00 L 3015.00 2724.00 L 3009.30 2658.22 L 3005.00 2658.00 L 2925.00 2658.00 L 2905.00 2657.00 L 2825.00 2657.00 L 2805.00 2656.00 L 2705.00 2656.00 L 2685.00 2655.00 L 2605.00 2655.00 L 2585.00 2654.00 L 2565.00 2674.00 L 2545.00 2654.00 L 2505.00 2654.00 L 2485.00 2653.00 L 2385.00 2653.00 L 2365.00 2652.00 L 2285.00 2652.00 L 2265.00 2651.00 L 2185.00 2651.00 L 2165.00 2650.00 L 2065.00 2650.00 L 2045.00 2649.00 L 1965.00 2649.00 L 1945.00 2648.00 L 1865.00 2648.00 L 1845.00 2647.00 L 1745.00 2647.00 L 1725.00 2646.00 L 1645.00 2646.00 L 1625.00 2645.00 L 1545.00 2645.00 L 1525.00 2644.00 L 1425.00 2644.00 L 1405.00 2643.00 L 1325.00 2643.00 L 1305.00 2642.00 L 1225.00 2642.00 L 1205.00 2641.00 L 1125.00 2641.00 L 1105.00 2621.00 L 1085.00 2620.00 Z" />
<path id="csg562-036-18" fill="none" stroke="black" stroke-width="1" d="M 905.00 2754.00 L 903.72 2754.64 L 903.00 2835.00 L 1044.00 2841.00 L 1082.18 2853.00 L 1105.00 2853.00 L 1125.00 2854.00 L 1225.00 2854.00 L 1245.00 2855.00 L 1345.00 2855.00 L 1365.00 2856.00 L 1421.92 2856.00 L 1445.51 2759.00 L 1425.00 2759.00 L 1405.00 2758.00 L 1305.00 2758.00 L 1285.00 2757.00 L 1205.00 2757.00 L 1185.00 2756.00 L 1105.00 2756.00 L 1085.00 2755.00 L 1005.00 2755.00 L 985.00 2754.00 Z" />
<path id="csg562-036-19" fill="none" stroke="black" stroke-width="1" d="M 1082.18 2853.00 L 1149.00 2874.00 L 1129.66 2979.00 L 1145.00 2979.00 L 1165.00 2980.00 L 1225.00 2980.00 L 1245.00 2981.00 L 1325.00 2981.00 L 1345.00 2982.00 L 1405.00 2982.00 L 1425.00 2983.00 L 1505.00 2983.00 L 1525.00 2984.00 L 1585.00 2984.00 L 1605.00 2985.00 L 1665.00 2985.00 L 1685.00 2986.00 L 1765.00 2986.00 L 1785.00 2987.00 L 1845.00 2987.00 L 1865.00 2988.00 L 1945.00 2988.00 L 1965.00 2989.00 L 2025.00 2989.00 L 2045.00 2990.00 L 2125.00 2990.00 L 2145.00 2991.00 L 2205.00 2991.00 L 2225.00 2992.00 L 2285.00 2992.00 L 2305.00 2993.00 L 2385.00 2993.00 L 2405.00 2994.00 L 2465.00 2994.00 L 2485.00 2995.00 L 2565.00 2995.00 L 2585.00 2996.00 L 2645.00 2996.00 L 2665.00 2997.00 L 2745.00 2997.00 L 2765.00 2998.00 L 2825.00 2998.00 L 2845.00 2999.00 L 2905.00 2999.00 L 2925.00 3000.00 L 2948.52 3000.00 L 2865.00 2895.00 L 1419.00 2868.00 L 1421.92 2856.00 L 1365.00 2856.00 L 1345.00 2855.00 L 1245.00 2855.00 L 1225.00 2854.00 L 1125.00 2854.00 L 1105.00 2853.00 Z" />
<path id="csg562-036-20" fill="none" stroke="black" stroke-width="1" d="M 1129.66 2979.00 L 1110.68 3082.00 L 1165.00 3082.00 L 1185.00 3083.00 L 1245.00 3083.00 L 1265.00 3084.00 L 1345.00 3084.00 L 1365.00 3085.00 L 1445.00 3085.00 L 1465.00 3086.00 L 1525.00 3086.00 L 1545.00 3087.00 L 1625.00 3087.00 L 1645.00 3088.00 L 1725.00 3088.00 L 1745.00 3089.00 L 1805.00 3089.00 L 1825.00 3090.00 L 1905.00 3090.00 L 1925.00 3091.00 L 2005.00 3091.00 L 2025.00 3092.00 L 2085.00 3092.00 L 2105.00 3093.00 L 2185.00 3093.00 L 2205.00 3094.00 L 2285.00 3094.00 L 2305.00 3095.00 L 2365.00 3095.00 L 2385.00 3096.00 L 2465.00 3096.00 L 2485.00 3097.00 L 2565.00 3097.00 L 2585.00 3098.00 L 2645.00 3098.00 L 2665.00 3099.00 L 2745.00 3099.00 L 2765.00 3100.00 L 2845.00 3100.00 L 2865.00 3101.00 L 2925.00 3101.00 L 2945.00 3102.00 L 2985.52 3102.00 L 2970.00 3027.00 L 2948.52 3000.00 L 2925.00 3000.00 L 2905.00 2999.00 L 2845.00 2999.00 L 2825.00 2998.00 L 2765.00 2998.00 L 2745.00 2997.00 L 2665.00 2997.00 L 2645.00 2996.00 L 2585.00 2996.00 L 2565.00 2995.00 L 2485.00 2995.00 L 2465.00 2994.00 L 2405.00 2994.00 L 2385.00 2993.00 L 2305.00 2993.00 L 2285.00 2992.00 L 2225.00 2992.00 L 2205.00 2991.00 L 2145.00 2991.00 L 2125.00 2990.00 L 2045.00 2990.00 L 2025.00 2989.00 L 1965.00 2989.00 L 1945.00 2988.00 L 1865.00 2988.00 L 1845.00 2987.00 L 1785.00 2987.00 L 1765.00 2986.00 L 1685.00 2986.00 L 1665.00 2985.00 L 1605.00 2985.00 L 1585.00 2984.00 L 1525.00 2984.00 L 1505.00 2983.00 L 1425.00 2983.00 L 1405.00 2982.00 L 1345.00 2982.00 L 1325.00 2981.00 L 1245.00 2981.00 L 1225.00 2980.00 L 1165.00 2980.00 L 1145.00 2979.00 Z" />
<path id="csg562-036-21" fill="none" stroke="black" stroke-width="1" d="M 1110.68 3082.00 L 1107.00 3102.00 L 984.00 3093.00 L 903.00 3129.00 L 905.05 3193.00 L 1025.00 3193.00 L 1045.00 3194.00 L 1125.00 3194.00 L 1145.00 3174.00 L 1165.00 3194.00 L 1185.00 3194.00 L 1205.00 3195.00 L 1345.00 3195.00 L 1365.00 3196.00 L 1505.00 3196.00 L 1525.00 3197.00 L 1665.00 3197.00 L 1685.00 3198.00 L 1825.00 3198.00 L 1845.00 3199.00 L 1985.00 3199.00 L 2005.00 3200.00 L 2145.00 3200.00 L 2165.00 3201.00 L 2185.00 3221.00 L 2205.00 3201.00 L 2305.00 3201.00 L 2325.00 3202.00 L 2405.00 3202.00 L 2425.00 3199.00 L 2485.00 3199.00 L 2505.00 3203.00 L 2625.00 3203.00 L 2645.00 3204.00 L 2785.00 3204.00 L 2805.00 3205.00 L 2945.00 3205.00 L 2965.00 3206.00 L 3005.39 3206.00 L 3006.00 3201.00 L 2985.52 3102.00 L 2945.00 3102.00 L 2925.00 3101.00 L 2865.00 3101.00 L 2845.00 3100.00 L 2765.00 3100.00 L 2745.00 3099.00 L 2665.00 3099.00 L 2645.00 3098.00 L 2585.00 3098.00 L 2565.00 3097.00 L 2485.00 3097.00 L 2465.00 3096.00 L 2385.00 3096.00 L 2365.00 3095.00 L 2305.00 3095.00 L 2285.00 3094.00 L 2205.00 3094.00 L 2185.00 3093.00 L 2105.00 3093.00 L 2085.00 3092.00 L 2025.00 3092.00 L 2005.00 3091.00 L 1925.00 3091.00 L 1905.00 3090.00 L 1825.00 3090.00 L 1805.00 3089.00 L 1745.00 3089.00 L 1725.00 3088.00 L 1645.00 3088.00 L 1625.00 3087.00 L 1545.00 3087.00 L 1525.00 3086.00 L 1465.00 3086.00 L 1445.00 3085.00 L 1365.00 3085.00 L 1345.00 3084.00 L 1265.00 3084.00 L 1245.00 3083.00 L 1185.00 3083.00 L 1165.00 3082.00 Z" />
<path id="csg562-036-22" fill="none" stroke="black" stroke-width="1" d="M 1145.00 3174.00 L 1125.00 3194.00 L 1045.00 3194.00 L 1025.00 3193.00 L 905.05 3193.00 L 908.54 3302.00 L 1125.00 3302.00 L 1145.00 3303.00 L 1385.00 3303.00 L 1405.00 3304.00 L 1645.00 3304.00 L 1665.00 3305.00 L 1885.00 3305.00 L 1905.00 3306.00 L 2145.00 3306.00 L 2165.00 3307.00 L 2405.00 3307.00 L 2425.00 3308.00 L 2645.00 3308.00 L 2665.00 3309.00 L 2905.00 3309.00 L 2925.00 3310.00 L 2992.63 3310.00 L 3005.39 3206.00 L 2965.00 3206.00 L 2945.00 3205.00 L 2805.00 3205.00 L 2785.00 3204.00 L 2645.00 3204.00 L 2625.00 3203.00 L 2505.00 3203.00 L 2485.00 3199.00 L 2425.00 3199.00 L 2405.00 3202.00 L 2325.00 3202.00 L 2305.00 3201.00 L 2205.00 3201.00 L 2185.00 3221.00 L 2165.00 3201.00 L 2145.00 3200.00 L 2005.00 3200.00 L 1985.00 3199.00 L 1845.00 3199.00 L 1825.00 3198.00 L 1685.00 3198.00 L 1665.00 3197.00 L 1525.00 3197.00 L 1505.00 3196.00 L 1365.00 3196.00 L 1345.00 3195.00 L 1205.00 3195.00 L 1185.00 3194.00 L 1165.00 3194.00 L 1145.00 3174.00 Z" />
<path id="csg562-036-23" fill="none" stroke="black" stroke-width="1" d="M 908.54 3302.00 L 912.15 3415.00 L 1125.00 3415.00 L 1145.00 3416.00 L 1365.00 3416.00 L 1385.00 3417.00 L 1625.00 3417.00 L 1645.00 3418.00 L 1865.00 3418.00 L 1885.00 3419.00 L 2125.00 3419.00 L 2145.00 3420.00 L 2245.00 3420.00 L 2265.00 3440.00 L 2285.00 3440.00 L 2305.00 3420.00 L 2365.00 3420.00 L 2385.00 3421.00 L 2565.00 3421.00 L 2585.00 3441.00 L 2605.00 3421.00 L 2625.00 3421.00 L 2645.00 3422.00 L 2865.00 3422.00 L 2885.00 3423.00 L 2978.77 3423.00 L 2992.63 3310.00 L 2925.00 3310.00 L 2905.00 3309.00 L 2665.00 3309.00 L 2645.00 3308.00 L 2425.00 3308.00 L 2405.00 3307.00 L 2165.00 3307.00 L 2145.00 3306.00 L 1905.00 3306.00 L 1885.00 3305.00 L 1665.00 3305.00 L 1645.00 3304.00 L 1405.00 3304.00 L 1385.00 3303.00 L 1145.00 3303.00 L 1125.00 3302.00 Z" />
<path id="csg562-036-24" fill="none" stroke="black" stroke-width="1" d="M 912.15 3415.00 L 915.00 3504.00 L 1143.35 3524.57 L 1145.00 3523.00 L 1265.00 3523.00 L 1285.00 3524.00 L 1305.00 3524.00 L 1309.18 3527.76 L 1344.87 3524.11 L 1345.00 3524.00 L 1346.00 3524.00 L 1395.00 3519.00 L 1512.00 3525.00 L 1545.00 3525.00 L 1547.12 3526.80 L 1580.85 3528.53 L 1585.00 3525.00 L 1645.00 3525.00 L 1665.00 3526.00 L 1845.00 3526.00 L 1865.00 3527.00 L 2045.00 3527.00 L 2065.00 3528.00 L 2245.00 3528.00 L 2265.00 3529.00 L 2425.00 3529.00 L 2445.00 3530.00 L 2625.00 3530.00 L 2645.00 3531.00 L 2647.50 3531.00 L 2967.00 3519.00 L 2978.77 3423.00 L 2885.00 3423.00 L 2865.00 3422.00 L 2645.00 3422.00 L 2625.00 3421.00 L 2605.00 3421.00 L 2585.00 3441.00 L 2565.00 3421.00 L 2385.00 3421.00 L 2365.00 3420.00 L 2305.00 3420.00 L 2285.00 3440.00 L 2265.00 3440.00 L 2245.00 3420.00 L 2145.00 3420.00 L 2125.00 3419.00 L 1885.00 3419.00 L 1865.00 3418.00 L 1645.00 3418.00 L 1625.00 3417.00 L 1385.00 3417.00 L 1365.00 3416.00 L 1145.00 3416.00 L 1125.00 3415.00 Z" />
</svg>
