<?xml version="1.0" standalone="no"?>
<!DOCTYPE svg PUBLIC "-//W3C//DTD SVG 1.1//EN" "http://www.w3.org/Graphics/SVG/1.1/DTD/svg11.dtd">
<svg width="46.22222in" height="69.333336in" viewBox="0 0 3328 4992" xmlns="http://www.w3.org/2000/svg" version="1.1">
<path id="csg562-026-01" fill="none" stroke="black" stroke-width="1" d="M 1059.00 828.00 L 843.00 858.00 L 830.21 945.00 L 1550.00 945.00 L 1570.00 946.00 L 2190.00 946.00 L 2210.00 966.00 L 2230.00 946.00 L 2290.00 946.00 L 2310.00 947.00 L 2910.04 947.00 L 2907.00 870.00 L 2772.00 837.00 L 2478.00 855.00 L 2208.00 861.00 L 2139.00 831.00 L 1680.00 864.00 L 1308.00 852.00 L 1059.00 828.00 Z" />
<path id="csg562-026-02" fill="none" stroke="black" stroke-width="1" d="M 830.21 945.00 L 813.00 1062.00 L 813.10 1065.45 L 830.00 1057.00 L 1190.00 1057.00 L 1210.00 1058.00 L 1590.00 1058.00 L 1610.00 1059.00 L 1970.00 1059.00 L 1990.00 1060.00 L 2370.00 1060.00 L 2390.00 1061.00 L 2750.00 1061.00 L 2770.00 1062.00 L 2914.58 1062.00 L 2910.04 947.00 L 2310.00 947.00 L 2290.00 946.00 L 2230.00 946.00 L 2210.00 966.00 L 2190.00 946.00 L 1570.00 946.00 L 1550.00 945.00 Z" />
<path id="csg562-026-03" fill="none" stroke="black" stroke-width="1" d="M 830.00 1057.00 L 813.10 1065.45 L 816.33 1177.84 L 830.00 1171.00 L 1350.00 1171.00 L 1370.00 1172.00 L 1890.00 1172.00 L 1910.00 1173.00 L 2430.00 1173.00 L 2450.00 1174.00 L 2857.16 1174.00 L 2916.00 1098.00 L 2914.58 1062.00 L 2770.00 1062.00 L 2750.00 1061.00 L 2390.00 1061.00 L 2370.00 1060.00 L 1990.00 1060.00 L 1970.00 1059.00 L 1610.00 1059.00 L 1590.00 1058.00 L 1210.00 1058.00 L 1190.00 1057.00 Z" />
<path id="csg562-026-04" fill="none" stroke="black" stroke-width="1" d="M 830.00 1171.00 L 816.33 1177.84 L 819.47 1287.27 L 830.00 1282.00 L 2881.56 1282.00 L 2844.00 1191.00 L 2857.16 1174.00 L 2450.00 1174.00 L 2430.00 1173.00 L 1910.00 1173.00 L 1890.00 1172.00 L 1370.00 1172.00 L 1350.00 1171.00 Z" />
<path id="csg562-026-05" fill="none" stroke="black" stroke-width="1" d="M 830.00 1282.00 L 819.47 1287.27 L 822.81 1403.60 L 830.00 1400.00 L 1070.00 1400.00 L 1090.00 1420.00 L 1110.00 1420.00 L 1130.00 1400.00 L 2846.00 1400.00 L 2922.00 1380.00 L 2881.56 1282.00 Z" />
<path id="csg562-026-06" fill="none" stroke="black" stroke-width="1" d="M 830.00 1400.00 L 822.81 1403.60 L 825.98 1514.01 L 830.00 1512.00 L 850.00 1532.00 L 870.00 1512.00 L 2906.60 1512.00 L 2808.00 1410.00 L 2846.00 1400.00 L 1130.00 1400.00 L 1110.00 1420.00 L 1090.00 1420.00 L 1070.00 1400.00 Z" />
<path id="csg562-026-07" fill="none" stroke="black" stroke-width="1" d="M 830.00 1512.00 L 825.98 1514.01 L 829.09 1622.46 L 830.00 1622.00 L 1330.00 1622.00 L 1350.00 1623.00 L 1850.00 1623.00 L 1870.00 1624.00 L 2030.00 1624.00 L 2050.00 1604.00 L 2070.00 1604.00 L 2090.00 1624.00 L 2390.00 1624.00 L 2410.00 1625.00 L 2902.00 1625.00 L 2982.00 1590.00 L 2906.60 1512.00 L 870.00 1512.00 L 850.00 1532.00 L 830.00 1512.00 Z" />
<path id="csg562-026-08" fill="none" stroke="black" stroke-width="1" d="M 2050.00 1604.00 L 2030.00 1624.00 L 1870.00 1624.00 L 1850.00 1623.00 L 1350.00 1623.00 L 1330.00 1622.00 L 830.00 1622.00 L 829.09 1622.46 L 831.00 1689.00 L 827.71 1726.15 L 830.00 1725.00 L 1390.00 1725.00 L 1410.00 1726.00 L 1990.00 1726.00 L 2010.00 1727.00 L 2570.00 1727.00 L 2590.00 1728.00 L 2960.48 1728.00 L 2886.00 1632.00 L 2902.00 1625.00 L 2410.00 1625.00 L 2390.00 1624.00 L 2090.00 1624.00 L 2070.00 1604.00 Z" />
<path id="csg562-026-09" fill="none" stroke="black" stroke-width="1" d="M 830.00 1725.00 L 827.71 1726.15 L 816.15 1856.62 L 830.00 1849.00 L 2170.00 1849.00 L 2190.00 1848.00 L 2953.33 1848.00 L 3021.00 1806.00 L 2960.48 1728.00 L 2590.00 1728.00 L 2570.00 1727.00 L 2010.00 1727.00 L 1990.00 1726.00 L 1410.00 1726.00 L 1390.00 1725.00 Z" />
<path id="csg562-026-10" fill="none" stroke="black" stroke-width="1" d="M 2190.00 1848.00 L 2170.00 1849.00 L 830.00 1849.00 L 816.15 1856.62 L 810.00 1926.00 L 813.46 1959.27 L 830.00 1951.00 L 2710.00 1951.00 L 2730.00 1952.00 L 2750.00 1952.00 L 2770.00 1972.00 L 2790.00 1952.00 L 2915.96 1952.00 L 2934.00 1860.00 L 2953.33 1848.00 Z" />
<path id="csg562-026-11" fill="none" stroke="black" stroke-width="1" d="M 830.00 1951.00 L 813.46 1959.27 L 824.35 2064.11 L 830.00 2061.00 L 1330.00 2061.00 L 1350.00 2060.00 L 1870.00 2060.00 L 1890.00 2079.00 L 1910.00 2059.00 L 2410.00 2059.00 L 2430.00 2058.00 L 2837.82 2058.00 L 2904.00 2013.00 L 2915.96 1952.00 L 2790.00 1952.00 L 2770.00 1972.00 L 2750.00 1952.00 L 2730.00 1952.00 L 2710.00 1951.00 Z" />
<path id="csg562-026-12" fill="none" stroke="black" stroke-width="1" d="M 2430.00 2058.00 L 2410.00 2059.00 L 1910.00 2059.00 L 1890.00 2079.00 L 1870.00 2060.00 L 1350.00 2060.00 L 1330.00 2061.00 L 830.00 2061.00 L 824.35 2064.11 L 834.00 2157.00 L 915.00 2163.00 L 914.10 2169.00 L 2350.00 2169.00 L 2370.00 2189.00 L 2390.00 2169.00 L 2670.00 2169.00 L 2690.00 2168.00 L 2790.00 2168.00 L 2810.00 2188.00 L 2830.00 2168.00 L 2863.67 2168.00 L 2829.00 2064.00 L 2837.82 2058.00 Z" />
<path id="csg562-026-13" fill="none" stroke="black" stroke-width="1" d="M 2690.00 2168.00 L 2670.00 2169.00 L 2390.00 2169.00 L 2370.00 2189.00 L 2350.00 2169.00 L 914.10 2169.00 L 897.00 2283.00 L 891.60 2285.00 L 1210.00 2285.00 L 1230.00 2265.00 L 1250.00 2285.00 L 1510.00 2285.00 L 1530.00 2305.00 L 1550.00 2285.00 L 1890.00 2285.00 L 1910.00 2305.00 L 1930.00 2285.00 L 2190.00 2285.00 L 2210.00 2284.00 L 2843.67 2284.00 L 2895.00 2262.00 L 2863.67 2168.00 L 2830.00 2168.00 L 2810.00 2188.00 L 2790.00 2168.00 Z" />
<path id="csg562-026-14" fill="none" stroke="black" stroke-width="1" d="M 1230.00 2265.00 L 1210.00 2285.00 L 891.60 2285.00 L 816.00 2313.00 L 818.09 2408.96 L 830.00 2403.00 L 2170.00 2403.00 L 2190.00 2404.00 L 2855.84 2404.00 L 2832.00 2289.00 L 2843.67 2284.00 L 2210.00 2284.00 L 2190.00 2285.00 L 1930.00 2285.00 L 1910.00 2305.00 L 1890.00 2285.00 L 1550.00 2285.00 L 1530.00 2305.00 L 1510.00 2285.00 L 1250.00 2285.00 L 1230.00 2265.00 Z" />
<path id="csg562-026-15" fill="none" stroke="black" stroke-width="1" d="M 830.00 2403.00 L 818.09 2408.96 L 820.38 2514.29 L 830.00 2509.00 L 1950.00 2509.00 L 1970.00 2529.00 L 1990.00 2509.00 L 2030.00 2509.00 L 2050.00 2508.00 L 2330.00 2508.00 L 2350.00 2528.00 L 2370.00 2528.00 L 2390.00 2508.00 L 2877.40 2508.00 L 2855.84 2404.00 L 2190.00 2404.00 L 2170.00 2403.00 Z" />
<path id="csg562-026-16" fill="none" stroke="black" stroke-width="1" d="M 2050.00 2508.00 L 2030.00 2509.00 L 1990.00 2509.00 L 1970.00 2529.00 L 1950.00 2509.00 L 830.00 2509.00 L 820.38 2514.29 L 822.60 2616.70 L 830.00 2613.00 L 1210.00 2613.00 L 1230.00 2633.00 L 1250.00 2613.00 L 1790.00 2613.00 L 1810.00 2633.00 L 1830.00 2633.00 L 1850.00 2613.00 L 2130.00 2613.00 L 2150.00 2614.00 L 2530.00 2614.00 L 2550.00 2634.00 L 2590.00 2634.00 L 2610.00 2614.00 L 2889.64 2614.00 L 2883.00 2535.00 L 2877.40 2508.00 L 2390.00 2508.00 L 2370.00 2528.00 L 2350.00 2528.00 L 2330.00 2508.00 Z" />
<path id="csg562-026-17" fill="none" stroke="black" stroke-width="1" d="M 830.00 2613.00 L 822.60 2616.70 L 825.00 2727.00 L 825.22 2730.63 L 830.00 2728.00 L 850.00 2728.00 L 870.00 2748.00 L 890.00 2728.00 L 1570.00 2728.00 L 1590.00 2727.00 L 1910.00 2727.00 L 1930.00 2747.00 L 1950.00 2727.00 L 2350.00 2727.00 L 2370.00 2726.00 L 2430.00 2726.00 L 2450.00 2746.00 L 2470.00 2726.00 L 2899.07 2726.00 L 2889.64 2614.00 L 2610.00 2614.00 L 2590.00 2634.00 L 2550.00 2634.00 L 2530.00 2614.00 L 2150.00 2614.00 L 2130.00 2613.00 L 1850.00 2613.00 L 1830.00 2633.00 L 1810.00 2633.00 L 1790.00 2613.00 L 1250.00 2613.00 L 1230.00 2633.00 L 1210.00 2613.00 Z" />
<path id="csg562-026-18" fill="none" stroke="black" stroke-width="1" d="M 2370.00 2726.00 L 2350.00 2727.00 L 1950.00 2727.00 L 1930.00 2747.00 L 1910.00 2727.00 L 1590.00 2727.00 L 1570.00 2728.00 L 890.00 2728.00 L 870.00 2748.00 L 850.00 2728.00 L 830.00 2728.00 L 825.22 2730.63 L 832.48 2850.48 L 850.00 2868.00 L 870.00 2848.00 L 1050.00 2848.00 L 1070.00 2847.00 L 1310.00 2847.00 L 1330.00 2846.00 L 1570.00 2846.00 L 1590.00 2845.00 L 1830.00 2845.00 L 1850.00 2844.00 L 2090.00 2844.00 L 2110.00 2843.00 L 2350.00 2843.00 L 2370.00 2842.00 L 2610.00 2842.00 L 2630.00 2841.00 L 2870.00 2841.00 L 2890.00 2840.00 L 2908.65 2840.00 L 2899.07 2726.00 L 2470.00 2726.00 L 2450.00 2746.00 L 2430.00 2726.00 Z" />
<path id="csg562-026-19" fill="none" stroke="black" stroke-width="1" d="M 2890.00 2840.00 L 2870.00 2841.00 L 2630.00 2841.00 L 2610.00 2842.00 L 2370.00 2842.00 L 2350.00 2843.00 L 2110.00 2843.00 L 2090.00 2844.00 L 1850.00 2844.00 L 1830.00 2845.00 L 1590.00 2845.00 L 1570.00 2846.00 L 1330.00 2846.00 L 1310.00 2847.00 L 1070.00 2847.00 L 1050.00 2848.00 L 870.00 2848.00 L 850.00 2868.00 L 832.48 2850.48 L 839.06 2959.06 L 850.00 2970.00 L 870.00 2970.00 L 890.00 2950.00 L 1050.00 2950.00 L 1070.00 2949.00 L 1130.00 2949.00 L 1150.00 2929.00 L 1170.00 2929.00 L 1190.00 2949.00 L 1310.00 2949.00 L 1330.00 2948.00 L 1490.00 2948.00 L 1510.00 2968.00 L 1530.00 2968.00 L 1550.00 2948.00 L 1570.00 2948.00 L 1590.00 2947.00 L 1830.00 2947.00 L 1850.00 2946.00 L 1970.00 2946.00 L 1990.00 2966.00 L 2010.00 2966.00 L 2030.00 2946.00 L 2090.00 2946.00 L 2110.00 2945.00 L 2350.00 2945.00 L 2370.00 2944.00 L 2610.00 2944.00 L 2630.00 2943.00 L 2690.00 2943.00 L 2710.00 2963.00 L 2750.00 2963.00 L 2770.00 2943.00 L 2810.00 2943.00 L 2830.00 2963.00 L 2850.00 2963.00 L 2870.00 2943.00 L 2890.00 2942.00 L 2963.12 2942.00 L 2910.00 2856.00 L 2908.65 2840.00 Z" />
<path id="csg562-026-20" fill="none" stroke="black" stroke-width="1" d="M 1150.00 2929.00 L 1130.00 2949.00 L 1070.00 2949.00 L 1050.00 2950.00 L 890.00 2950.00 L 870.00 2970.00 L 850.00 2970.00 L 839.06 2959.06 L 843.00 3024.00 L 838.17 3066.00 L 1330.00 3066.00 L 1350.00 3065.00 L 1850.00 3065.00 L 1870.00 3064.00 L 2370.00 3064.00 L 2390.00 3063.00 L 2890.00 3063.00 L 2910.00 3062.00 L 3035.80 3062.00 L 3036.00 3060.00 L 2963.12 2942.00 L 2890.00 2942.00 L 2870.00 2943.00 L 2850.00 2963.00 L 2830.00 2963.00 L 2810.00 2943.00 L 2770.00 2943.00 L 2750.00 2963.00 L 2710.00 2963.00 L 2690.00 2943.00 L 2630.00 2943.00 L 2610.00 2944.00 L 2370.00 2944.00 L 2350.00 2945.00 L 2110.00 2945.00 L 2090.00 2946.00 L 2030.00 2946.00 L 2010.00 2966.00 L 1990.00 2966.00 L 1970.00 2946.00 L 1850.00 2946.00 L 1830.00 2947.00 L 1590.00 2947.00 L 1570.00 2948.00 L 1550.00 2948.00 L 1530.00 2968.00 L 1510.00 2968.00 L 1490.00 2948.00 L 1330.00 2948.00 L 1310.00 2949.00 L 1190.00 2949.00 L 1170.00 2929.00 Z" />
<path id="csg562-026-21" fill="none" stroke="black" stroke-width="1" d="M 2910.00 3062.00 L 2890.00 3063.00 L 2390.00 3063.00 L 2370.00 3064.00 L 1870.00 3064.00 L 1850.00 3065.00 L 1350.00 3065.00 L 1330.00 3066.00 L 838.17 3066.00 L 825.35 3177.56 L 830.00 3175.00 L 870.00 3175.00 L 890.00 3155.00 L 910.00 3175.00 L 1330.00 3175.00 L 1350.00 3174.00 L 1850.00 3174.00 L 1870.00 3173.00 L 2370.00 3173.00 L 2390.00 3172.00 L 2670.00 3172.00 L 2690.00 3192.00 L 2710.00 3192.00 L 2730.00 3172.00 L 2910.00 3172.00 L 2930.00 3171.00 L 2937.75 3171.00 L 3027.00 3150.00 L 3035.80 3062.00 Z" />
<path id="csg562-026-22" fill="none" stroke="black" stroke-width="1" d="M 890.00 3155.00 L 870.00 3175.00 L 830.00 3175.00 L 825.35 3177.56 L 813.00 3285.00 L 912.00 3261.00 L 909.26 3282.00 L 1570.00 3282.00 L 1590.00 3281.00 L 2330.00 3281.00 L 2350.00 3280.00 L 2906.18 3280.00 L 2925.00 3174.00 L 2937.75 3171.00 L 2930.00 3171.00 L 2910.00 3172.00 L 2730.00 3172.00 L 2710.00 3192.00 L 2690.00 3192.00 L 2670.00 3172.00 L 2390.00 3172.00 L 2370.00 3173.00 L 1870.00 3173.00 L 1850.00 3174.00 L 1350.00 3174.00 L 1330.00 3175.00 L 910.00 3175.00 L 890.00 3155.00 Z" />
<path id="csg562-026-23" fill="none" stroke="black" stroke-width="1" d="M 2350.00 3280.00 L 2330.00 3281.00 L 1590.00 3281.00 L 1570.00 3282.00 L 909.26 3282.00 L 895.83 3385.00 L 1570.00 3385.00 L 1590.00 3384.00 L 1970.00 3384.00 L 1990.00 3424.00 L 2010.00 3364.00 L 2030.00 3364.00 L 2050.00 3384.00 L 2350.00 3384.00 L 2370.00 3383.00 L 2887.89 3383.00 L 2906.18 3280.00 Z" />
<path id="csg562-026-24" fill="none" stroke="black" stroke-width="1" d="M 2010.00 3364.00 L 1990.00 3424.00 L 1970.00 3384.00 L 1590.00 3384.00 L 1570.00 3385.00 L 895.83 3385.00 L 894.00 3399.00 L 831.00 3426.00 L 822.00 3489.00 L 839.14 3494.00 L 1296.67 3494.00 L 1347.00 3492.00 L 1428.60 3494.00 L 1570.00 3494.00 L 1590.00 3493.00 L 1930.00 3493.00 L 1947.14 3506.71 L 1952.69 3506.85 L 1970.00 3493.00 L 2350.00 3493.00 L 2370.00 3492.00 L 2868.53 3492.00 L 2887.89 3383.00 L 2370.00 3383.00 L 2350.00 3384.00 L 2050.00 3384.00 L 2030.00 3364.00 Z" />
</svg>
