<?xml version="1.0" standalone="no"?>
<!DOCTYPE svg PUBLIC "-//W3C//DTD SVG 1.1//EN" "http://www.w3.org/Graphics/SVG/1.1/DTD/svg11.dtd">
<svg width="46.22222in" height="69.333336in" viewBox="0 0 3328 4992" xmlns="http://www.w3.org/2000/svg" version="1.1">
<path id="csg562-007-01" fill="none" stroke="black" stroke-width="1" d="M 565.87 745.00 L 362.32 830.00 L 364.00 830.00 L 384.00 870.00 L 704.00 870.00 L 724.00 871.00 L 1084.00 871.00 L 1104.00 872.00 L 1484.00 872.00 L 1504.00 873.00 L 1864.00 873.00 L 1884.00 874.00 L 2244.00 874.00 L 2264.00 875.00 L 2488.82 875.00 L 2502.00 795.00 L 2130.00 780.00 L 2013.00 756.00 L 1599.00 780.00 L 1533.00 750.00 L 1080.00 771.00 L 1011.00 753.00 L 750.00 792.00 L 630.15 745.00 Z" />
<path id="csg562-007-02" fill="none" stroke="black" stroke-width="1" d="M 362.32 830.00 L 340.33 839.18 L 327.47 871.31 L 343.91 991.05 L 344.00 991.00 L 644.00 991.00 L 664.00 992.00 L 964.00 992.00 L 984.00 993.00 L 1284.00 993.00 L 1304.00 994.00 L 1604.00 994.00 L 1624.00 995.00 L 1924.00 995.00 L 1944.00 996.00 L 2244.00 996.00 L 2264.00 997.00 L 2468.73 997.00 L 2488.82 875.00 L 2264.00 875.00 L 2244.00 874.00 L 1884.00 874.00 L 1864.00 873.00 L 1504.00 873.00 L 1484.00 872.00 L 1104.00 872.00 L 1084.00 871.00 L 724.00 871.00 L 704.00 870.00 L 384.00 870.00 L 364.00 830.00 Z" />
<path id="csg562-007-03" fill="none" stroke="black" stroke-width="1" d="M 344.00 991.00 L 343.91 991.05 L 345.00 999.00 L 356.19 1104.00 L 1664.00 1104.00 L 1684.00 1124.00 L 1704.00 1124.00 L 1724.00 1104.00 L 2438.11 1104.00 L 2460.00 1050.00 L 2468.73 997.00 L 2264.00 997.00 L 2244.00 996.00 L 1944.00 996.00 L 1924.00 995.00 L 1624.00 995.00 L 1604.00 994.00 L 1304.00 994.00 L 1284.00 993.00 L 984.00 993.00 L 964.00 992.00 L 664.00 992.00 L 644.00 991.00 Z" />
<path id="csg562-007-04" fill="none" stroke="black" stroke-width="1" d="M 356.19 1104.00 L 370.15 1235.00 L 524.00 1235.00 L 544.00 1234.00 L 724.00 1234.00 L 744.00 1233.00 L 924.00 1233.00 L 944.00 1232.00 L 1144.00 1232.00 L 1164.00 1231.00 L 1344.00 1231.00 L 1364.00 1230.00 L 1544.00 1230.00 L 1564.00 1229.00 L 1764.00 1229.00 L 1784.00 1228.00 L 1964.00 1228.00 L 1984.00 1227.00 L 2164.00 1227.00 L 2184.00 1226.00 L 2384.00 1226.00 L 2404.00 1225.00 L 2455.37 1225.00 L 2415.00 1161.00 L 2438.11 1104.00 L 1724.00 1104.00 L 1704.00 1124.00 L 1684.00 1124.00 L 1664.00 1104.00 Z" />
<path id="csg562-007-05" fill="none" stroke="black" stroke-width="1" d="M 2404.00 1225.00 L 2384.00 1226.00 L 2184.00 1226.00 L 2164.00 1227.00 L 1984.00 1227.00 L 1964.00 1228.00 L 1784.00 1228.00 L 1764.00 1229.00 L 1564.00 1229.00 L 1544.00 1230.00 L 1364.00 1230.00 L 1344.00 1231.00 L 1164.00 1231.00 L 1144.00 1232.00 L 944.00 1232.00 L 924.00 1233.00 L 744.00 1233.00 L 724.00 1234.00 L 544.00 1234.00 L 524.00 1235.00 L 370.15 1235.00 L 381.23 1339.00 L 384.00 1339.00 L 404.00 1359.00 L 424.00 1359.00 L 444.00 1339.00 L 584.00 1339.00 L 604.00 1338.00 L 844.00 1338.00 L 864.00 1337.00 L 1104.00 1337.00 L 1124.00 1336.00 L 1364.00 1336.00 L 1384.00 1335.00 L 1624.00 1335.00 L 1644.00 1334.00 L 1884.00 1334.00 L 1904.00 1333.00 L 2144.00 1333.00 L 2164.00 1332.00 L 2404.00 1332.00 L 2424.00 1331.00 L 2522.23 1331.00 L 2455.37 1225.00 Z" />
<path id="csg562-007-06" fill="none" stroke="black" stroke-width="1" d="M 2424.00 1331.00 L 2404.00 1332.00 L 2164.00 1332.00 L 2144.00 1333.00 L 1904.00 1333.00 L 1884.00 1334.00 L 1644.00 1334.00 L 1624.00 1335.00 L 1384.00 1335.00 L 1364.00 1336.00 L 1124.00 1336.00 L 1104.00 1337.00 L 864.00 1337.00 L 844.00 1338.00 L 604.00 1338.00 L 584.00 1339.00 L 444.00 1339.00 L 424.00 1359.00 L 404.00 1359.00 L 384.00 1339.00 L 381.23 1339.00 L 384.00 1365.00 L 381.72 1444.00 L 624.00 1444.00 L 644.00 1424.00 L 704.00 1424.00 L 724.00 1444.00 L 1084.00 1444.00 L 1104.00 1464.00 L 1124.00 1464.00 L 1144.00 1444.00 L 1204.00 1444.00 L 1224.00 1445.00 L 2084.00 1445.00 L 2104.00 1446.00 L 2384.00 1446.00 L 2404.00 1466.00 L 2424.00 1466.00 L 2444.00 1446.00 L 2531.72 1446.00 L 2538.00 1356.00 L 2522.23 1331.00 Z" />
<path id="csg562-007-07" fill="none" stroke="black" stroke-width="1" d="M 644.00 1424.00 L 624.00 1444.00 L 381.72 1444.00 L 378.46 1557.00 L 1384.00 1557.00 L 1404.00 1558.00 L 1444.00 1558.00 L 1464.00 1578.00 L 1484.00 1578.00 L 1504.00 1558.00 L 2464.00 1558.00 L 2484.00 1559.00 L 2523.84 1559.00 L 2531.72 1446.00 L 2444.00 1446.00 L 2424.00 1466.00 L 2404.00 1466.00 L 2384.00 1446.00 L 2104.00 1446.00 L 2084.00 1445.00 L 1224.00 1445.00 L 1204.00 1444.00 L 1144.00 1444.00 L 1124.00 1464.00 L 1104.00 1464.00 L 1084.00 1444.00 L 724.00 1444.00 L 704.00 1424.00 Z" />
<path id="csg562-007-08" fill="none" stroke="black" stroke-width="1" d="M 378.46 1557.00 L 375.40 1663.00 L 1484.00 1663.00 L 1504.00 1683.00 L 1524.00 1643.00 L 1544.00 1643.00 L 1564.00 1663.00 L 1584.00 1643.00 L 1604.00 1663.00 L 1624.00 1663.00 L 1644.00 1664.00 L 2488.52 1664.00 L 2520.00 1614.00 L 2523.84 1559.00 L 2484.00 1559.00 L 2464.00 1558.00 L 1504.00 1558.00 L 1484.00 1578.00 L 1464.00 1578.00 L 1444.00 1558.00 L 1404.00 1558.00 L 1384.00 1557.00 Z" />
<path id="csg562-007-09" fill="none" stroke="black" stroke-width="1" d="M 1524.00 1643.00 L 1504.00 1683.00 L 1484.00 1663.00 L 375.40 1663.00 L 375.00 1677.00 L 383.66 1778.00 L 524.00 1778.00 L 544.00 1798.00 L 564.00 1778.00 L 604.00 1778.00 L 624.00 1779.00 L 904.00 1779.00 L 924.00 1780.00 L 1204.00 1780.00 L 1224.00 1781.00 L 1444.00 1781.00 L 1464.00 1801.00 L 1484.00 1801.00 L 1504.00 1782.00 L 1784.00 1782.00 L 1804.00 1783.00 L 2084.00 1783.00 L 2104.00 1784.00 L 2364.00 1784.00 L 2384.00 1785.00 L 2491.22 1785.00 L 2469.00 1695.00 L 2488.52 1664.00 L 1644.00 1664.00 L 1624.00 1663.00 L 1604.00 1663.00 L 1584.00 1643.00 L 1564.00 1663.00 L 1544.00 1643.00 Z" />
<path id="csg562-007-10" fill="none" stroke="black" stroke-width="1" d="M 383.66 1778.00 L 393.00 1887.00 L 394.34 1898.00 L 784.00 1898.00 L 804.00 1899.00 L 1244.00 1899.00 L 1264.00 1900.00 L 1724.00 1900.00 L 1744.00 1901.00 L 2184.00 1901.00 L 2204.00 1902.00 L 2520.11 1902.00 L 2491.22 1785.00 L 2384.00 1785.00 L 2364.00 1784.00 L 2104.00 1784.00 L 2084.00 1783.00 L 1804.00 1783.00 L 1784.00 1782.00 L 1504.00 1782.00 L 1484.00 1801.00 L 1464.00 1801.00 L 1444.00 1781.00 L 1224.00 1781.00 L 1204.00 1780.00 L 924.00 1780.00 L 904.00 1779.00 L 624.00 1779.00 L 604.00 1778.00 L 564.00 1778.00 L 544.00 1798.00 L 524.00 1778.00 Z" />
<path id="csg562-007-11" fill="none" stroke="black" stroke-width="1" d="M 394.34 1898.00 L 408.00 2010.00 L 534.00 2001.00 L 535.29 2012.44 L 544.00 2012.00 L 664.00 2012.00 L 684.00 2032.00 L 704.00 2012.00 L 744.00 2012.00 L 764.00 2011.00 L 964.00 2011.00 L 984.00 2010.00 L 1184.00 2010.00 L 1204.00 2009.00 L 1404.00 2009.00 L 1424.00 2008.00 L 1624.00 2008.00 L 1644.00 2007.00 L 1824.00 2007.00 L 1844.00 2006.00 L 2044.00 2006.00 L 2064.00 2005.00 L 2264.00 2005.00 L 2284.00 2004.00 L 2444.00 2004.00 L 2464.00 2024.00 L 2484.00 2004.00 L 2504.00 2003.00 L 2515.57 2003.00 L 2529.00 1938.00 L 2520.11 1902.00 L 2204.00 1902.00 L 2184.00 1901.00 L 1744.00 1901.00 L 1724.00 1900.00 L 1264.00 1900.00 L 1244.00 1899.00 L 804.00 1899.00 L 784.00 1898.00 Z" />
<path id="csg562-007-12" fill="none" stroke="black" stroke-width="1" d="M 2504.00 2003.00 L 2484.00 2004.00 L 2464.00 2024.00 L 2444.00 2004.00 L 2284.00 2004.00 L 2264.00 2005.00 L 2064.00 2005.00 L 2044.00 2006.00 L 1844.00 2006.00 L 1824.00 2007.00 L 1644.00 2007.00 L 1624.00 2008.00 L 1424.00 2008.00 L 1404.00 2009.00 L 1204.00 2009.00 L 1184.00 2010.00 L 984.00 2010.00 L 964.00 2011.00 L 764.00 2011.00 L 744.00 2012.00 L 704.00 2012.00 L 684.00 2032.00 L 664.00 2012.00 L 544.00 2012.00 L 535.29 2012.44 L 546.98 2116.00 L 964.00 2116.00 L 984.00 2136.00 L 1024.00 2136.00 L 1044.00 2116.00 L 1564.00 2116.00 L 1584.00 2115.00 L 2204.00 2115.00 L 2224.00 2135.00 L 2244.00 2135.00 L 2264.00 2115.00 L 2492.43 2115.00 L 2515.57 2003.00 Z" />
<path id="csg562-007-13" fill="none" stroke="black" stroke-width="1" d="M 1584.00 2115.00 L 1564.00 2116.00 L 1044.00 2116.00 L 1024.00 2136.00 L 984.00 2136.00 L 964.00 2116.00 L 546.98 2116.00 L 555.00 2187.00 L 564.03 2219.00 L 624.00 2219.00 L 644.00 2220.00 L 784.00 2220.00 L 804.00 2221.00 L 924.00 2221.00 L 944.00 2222.00 L 1084.00 2222.00 L 1104.00 2223.00 L 1244.00 2223.00 L 1264.00 2224.00 L 1404.00 2224.00 L 1424.00 2225.00 L 1544.00 2225.00 L 1564.00 2226.00 L 1704.00 2226.00 L 1724.00 2227.00 L 1864.00 2227.00 L 1884.00 2228.00 L 1924.00 2228.00 L 1944.00 2248.00 L 1964.00 2228.00 L 2024.00 2228.00 L 2044.00 2229.00 L 2164.00 2229.00 L 2184.00 2230.00 L 2324.00 2230.00 L 2344.00 2231.00 L 2468.46 2231.00 L 2492.43 2115.00 L 2264.00 2115.00 L 2244.00 2135.00 L 2224.00 2135.00 L 2204.00 2115.00 Z" />
<path id="csg562-007-14" fill="none" stroke="black" stroke-width="1" d="M 564.03 2219.00 L 588.00 2304.00 L 615.69 2324.00 L 664.00 2324.00 L 684.00 2325.00 L 824.00 2325.00 L 844.00 2326.00 L 1004.00 2326.00 L 1024.00 2327.00 L 1184.00 2327.00 L 1204.00 2328.00 L 1344.00 2328.00 L 1364.00 2329.00 L 1524.00 2329.00 L 1544.00 2330.00 L 1684.00 2330.00 L 1704.00 2331.00 L 1864.00 2331.00 L 1884.00 2332.00 L 2044.00 2332.00 L 2064.00 2333.00 L 2204.00 2333.00 L 2224.00 2334.00 L 2384.00 2334.00 L 2404.00 2335.00 L 2458.90 2335.00 L 2454.00 2301.00 L 2468.46 2231.00 L 2344.00 2231.00 L 2324.00 2230.00 L 2184.00 2230.00 L 2164.00 2229.00 L 2044.00 2229.00 L 2024.00 2228.00 L 1964.00 2228.00 L 1944.00 2248.00 L 1924.00 2228.00 L 1884.00 2228.00 L 1864.00 2227.00 L 1724.00 2227.00 L 1704.00 2226.00 L 1564.00 2226.00 L 1544.00 2225.00 L 1424.00 2225.00 L 1404.00 2224.00 L 1264.00 2224.00 L 1244.00 2223.00 L 1104.00 2223.00 L 1084.00 2222.00 L 944.00 2222.00 L 924.00 2221.00 L 804.00 2221.00 L 784.00 2220.00 L 644.00 2220.00 L 624.00 2219.00 Z" />
<path id="csg562-007-15" fill="none" stroke="black" stroke-width="1" d="M 615.69 2324.00 L 642.00 2343.00 L 438.00 2337.00 L 396.00 2406.00 L 396.37 2448.00 L 724.00 2448.00 L 744.00 2449.00 L 1144.00 2449.00 L 1164.00 2450.00 L 1564.00 2450.00 L 1584.00 2471.00 L 1604.00 2471.00 L 1624.00 2451.00 L 1964.00 2451.00 L 1984.00 2452.00 L 2384.00 2452.00 L 2404.00 2453.00 L 2475.91 2453.00 L 2458.90 2335.00 L 2404.00 2335.00 L 2384.00 2334.00 L 2224.00 2334.00 L 2204.00 2333.00 L 2064.00 2333.00 L 2044.00 2332.00 L 1884.00 2332.00 L 1864.00 2331.00 L 1704.00 2331.00 L 1684.00 2330.00 L 1544.00 2330.00 L 1524.00 2329.00 L 1364.00 2329.00 L 1344.00 2328.00 L 1204.00 2328.00 L 1184.00 2327.00 L 1024.00 2327.00 L 1004.00 2326.00 L 844.00 2326.00 L 824.00 2325.00 L 684.00 2325.00 L 664.00 2324.00 Z" />
<path id="csg562-007-16" fill="none" stroke="black" stroke-width="1" d="M 396.37 2448.00 L 397.32 2555.00 L 884.00 2555.00 L 904.00 2554.00 L 944.00 2554.00 L 964.00 2574.00 L 1004.00 2574.00 L 1024.00 2554.00 L 1444.00 2554.00 L 1464.00 2553.00 L 2004.00 2553.00 L 2024.00 2552.00 L 2124.00 2552.00 L 2144.00 2572.00 L 2164.00 2572.00 L 2184.00 2552.00 L 2384.00 2552.00 L 2404.00 2572.00 L 2444.00 2572.00 L 2464.00 2552.00 L 2490.18 2552.00 L 2475.91 2453.00 L 2404.00 2453.00 L 2384.00 2452.00 L 1984.00 2452.00 L 1964.00 2451.00 L 1624.00 2451.00 L 1604.00 2471.00 L 1584.00 2471.00 L 1564.00 2450.00 L 1164.00 2450.00 L 1144.00 2449.00 L 744.00 2449.00 L 724.00 2448.00 Z" />
<path id="csg562-007-17" fill="none" stroke="black" stroke-width="1" d="M 2024.00 2552.00 L 2004.00 2553.00 L 1464.00 2553.00 L 1444.00 2554.00 L 1024.00 2554.00 L 1004.00 2574.00 L 964.00 2574.00 L 944.00 2554.00 L 904.00 2554.00 L 884.00 2555.00 L 397.32 2555.00 L 398.41 2678.41 L 404.00 2684.00 L 424.00 2684.00 L 444.00 2664.00 L 704.00 2664.00 L 724.00 2665.00 L 1084.00 2665.00 L 1104.00 2666.00 L 1484.00 2666.00 L 1504.00 2667.00 L 1864.00 2667.00 L 1884.00 2668.00 L 2244.00 2668.00 L 2264.00 2669.00 L 2495.49 2669.00 L 2502.00 2634.00 L 2490.18 2552.00 L 2464.00 2552.00 L 2444.00 2572.00 L 2404.00 2572.00 L 2384.00 2552.00 L 2184.00 2552.00 L 2164.00 2572.00 L 2144.00 2572.00 L 2124.00 2552.00 Z" />
<path id="csg562-007-18" fill="none" stroke="black" stroke-width="1" d="M 444.00 2664.00 L 424.00 2684.00 L 404.00 2684.00 L 398.41 2678.41 L 399.00 2745.00 L 392.51 2769.00 L 1184.00 2769.00 L 1204.00 2789.00 L 1224.00 2789.00 L 1244.00 2769.00 L 1604.00 2769.00 L 1624.00 2768.00 L 1784.00 2768.00 L 1804.00 2788.00 L 1824.00 2788.00 L 1844.00 2768.00 L 2477.07 2768.00 L 2495.49 2669.00 L 2264.00 2669.00 L 2244.00 2668.00 L 1884.00 2668.00 L 1864.00 2667.00 L 1504.00 2667.00 L 1484.00 2666.00 L 1104.00 2666.00 L 1084.00 2665.00 L 724.00 2665.00 L 704.00 2664.00 Z" />
<path id="csg562-007-19" fill="none" stroke="black" stroke-width="1" d="M 1624.00 2768.00 L 1604.00 2769.00 L 1244.00 2769.00 L 1224.00 2789.00 L 1204.00 2789.00 L 1184.00 2769.00 L 392.51 2769.00 L 369.00 2856.00 L 370.63 2884.00 L 664.00 2884.00 L 684.00 2883.00 L 704.00 2883.00 L 724.00 2903.00 L 744.00 2883.00 L 1004.00 2883.00 L 1024.00 2882.00 L 1344.00 2882.00 L 1364.00 2881.00 L 1684.00 2881.00 L 1704.00 2880.00 L 2024.00 2880.00 L 2044.00 2879.00 L 2364.00 2879.00 L 2384.00 2878.00 L 2456.60 2878.00 L 2477.07 2768.00 L 1844.00 2768.00 L 1824.00 2788.00 L 1804.00 2788.00 L 1784.00 2768.00 Z" />
<path id="csg562-007-20" fill="none" stroke="black" stroke-width="1" d="M 2384.00 2878.00 L 2364.00 2879.00 L 2044.00 2879.00 L 2024.00 2880.00 L 1704.00 2880.00 L 1684.00 2881.00 L 1364.00 2881.00 L 1344.00 2882.00 L 1024.00 2882.00 L 1004.00 2883.00 L 744.00 2883.00 L 724.00 2903.00 L 704.00 2883.00 L 684.00 2883.00 L 664.00 2884.00 L 370.63 2884.00 L 376.92 2992.00 L 1444.00 2992.00 L 1464.00 2993.00 L 2474.01 2993.00 L 2454.00 2892.00 L 2456.60 2878.00 Z" />
<path id="csg562-007-21" fill="none" stroke="black" stroke-width="1" d="M 376.92 2992.00 L 383.74 3109.00 L 644.00 3109.00 L 664.00 3110.00 L 964.00 3110.00 L 984.00 3111.00 L 1304.00 3111.00 L 1324.00 3112.00 L 1624.00 3112.00 L 1644.00 3113.00 L 1944.00 3113.00 L 1964.00 3114.00 L 2284.00 3114.00 L 2304.00 3115.00 L 2498.18 3115.00 L 2474.01 2993.00 L 1464.00 2993.00 L 1444.00 2992.00 Z" />
<path id="csg562-007-22" fill="none" stroke="black" stroke-width="1" d="M 383.74 3109.00 L 387.00 3165.00 L 393.75 3219.00 L 684.00 3219.00 L 704.00 3218.00 L 1064.00 3218.00 L 1084.00 3217.00 L 1404.00 3217.00 L 1424.00 3237.00 L 1444.00 3216.00 L 1804.00 3216.00 L 1824.00 3215.00 L 2124.00 3215.00 L 2144.00 3235.00 L 2164.00 3215.00 L 2184.00 3215.00 L 2204.00 3214.00 L 2344.00 3214.00 L 2364.00 3234.00 L 2404.00 3234.00 L 2424.00 3214.00 L 2517.16 3214.00 L 2517.00 3210.00 L 2498.18 3115.00 L 2304.00 3115.00 L 2284.00 3114.00 L 1964.00 3114.00 L 1944.00 3113.00 L 1644.00 3113.00 L 1624.00 3112.00 L 1324.00 3112.00 L 1304.00 3111.00 L 984.00 3111.00 L 964.00 3110.00 L 664.00 3110.00 L 644.00 3109.00 Z" />
<path id="csg562-007-23" fill="none" stroke="black" stroke-width="1" d="M 2204.00 3214.00 L 2184.00 3215.00 L 2164.00 3215.00 L 2144.00 3235.00 L 2124.00 3215.00 L 1824.00 3215.00 L 1804.00 3216.00 L 1444.00 3216.00 L 1424.00 3237.00 L 1404.00 3217.00 L 1084.00 3217.00 L 1064.00 3218.00 L 704.00 3218.00 L 684.00 3219.00 L 393.75 3219.00 L 407.00 3325.00 L 484.00 3325.00 L 504.00 3326.00 L 664.00 3326.00 L 684.00 3327.00 L 824.00 3327.00 L 844.00 3328.00 L 1004.00 3328.00 L 1024.00 3329.00 L 1184.00 3329.00 L 1204.00 3330.00 L 1344.00 3330.00 L 1364.00 3331.00 L 1524.00 3331.00 L 1544.00 3332.00 L 1684.00 3332.00 L 1704.00 3333.00 L 1864.00 3333.00 L 1884.00 3334.00 L 2044.00 3334.00 L 2064.00 3335.00 L 2204.00 3335.00 L 2224.00 3336.00 L 2384.00 3336.00 L 2404.00 3337.00 L 2522.08 3337.00 L 2517.16 3214.00 L 2424.00 3214.00 L 2404.00 3234.00 L 2364.00 3234.00 L 2344.00 3214.00 Z" />
<path id="csg562-007-24" fill="none" stroke="black" stroke-width="1" d="M 407.00 3325.00 L 420.00 3429.00 L 465.00 3438.00 L 564.00 3438.00 L 584.00 3439.00 L 721.20 3439.00 L 906.00 3432.00 L 1047.71 3440.00 L 1084.00 3440.00 L 1104.00 3441.00 L 1344.00 3441.00 L 1364.00 3442.00 L 1558.50 3442.00 L 1737.00 3435.00 L 1835.67 3443.00 L 1864.00 3443.00 L 1884.00 3444.00 L 2124.00 3444.00 L 2144.00 3445.00 L 2211.00 3445.00 L 2526.00 3435.00 L 2522.08 3337.00 L 2404.00 3337.00 L 2384.00 3336.00 L 2224.00 3336.00 L 2204.00 3335.00 L 2064.00 3335.00 L 2044.00 3334.00 L 1884.00 3334.00 L 1864.00 3333.00 L 1704.00 3333.00 L 1684.00 3332.00 L 1544.00 3332.00 L 1524.00 3331.00 L 1364.00 3331.00 L 1344.00 3330.00 L 1204.00 3330.00 L 1184.00 3329.00 L 1024.00 3329.00 L 1004.00 3328.00 L 844.00 3328.00 L 824.00 3327.00 L 684.00 3327.00 L 664.00 3326.00 L 504.00 3326.00 L 484.00 3325.00 Z" />
</svg>
