<?xml version="1.0" standalone="no"?>
<!DOCTYPE svg PUBLIC "-//W3C//DTD SVG 1.1//EN" "http://www.w3.org/Graphics/SVG/1.1/DTD/svg11.dtd">
<svg width="46.22222in" height="69.333336in" viewBox="0 0 3328 4992" xmlns="http://www.w3.org/2000/svg" version="1.1">
<path id="csg562-062-01" fill="none" stroke="black" stroke-width="1" d="M 1472.67 817.00 L 936.00 831.00 L 933.00 897.00 L 1389.00 918.00 L 1424.61 920.58 L 1433.00 921.00 L 1493.00 921.00 L 1513.00 922.00 L 1553.00 922.00 L 1573.00 923.00 L 1613.00 923.00 L 1633.00 924.00 L 1673.00 924.00 L 1693.00 925.00 L 1733.00 925.00 L 1753.00 926.00 L 1793.00 926.00 L 1813.00 927.00 L 1853.00 927.00 L 1873.00 928.00 L 1913.00 928.00 L 1933.00 929.00 L 1973.00 929.00 L 1986.05 929.65 L 2001.00 831.00 L 1834.33 823.00 L 1813.00 823.00 L 1793.00 822.00 L 1753.00 822.00 L 1733.00 821.00 L 1693.00 821.00 L 1673.00 820.00 L 1633.00 820.00 L 1613.00 819.00 L 1573.00 819.00 L 1553.00 818.00 L 1513.00 818.00 L 1493.00 817.00 Z" />
<path id="csg562-062-02" fill="none" stroke="black" stroke-width="1" d="M 1666.00 1024.00 L 1646.00 1028.00 L 1626.00 1042.00 L 1606.00 1054.00 L 1164.54 1054.00 L 1137.00 1056.00 L 1060.44 1143.00 L 2086.00 1143.00 L 2106.00 1163.00 L 2126.00 1163.00 L 2146.00 1143.00 L 2166.00 1142.00 L 2546.00 1142.00 L 2566.00 1162.00 L 2586.00 1162.00 L 2606.00 1142.00 L 2706.00 1142.00 L 2726.00 1162.00 L 2746.00 1162.00 L 2766.00 1142.00 L 3042.00 1142.00 L 3042.00 1062.00 L 2654.60 1036.00 L 2426.00 1036.00 L 2406.00 1035.00 L 1726.00 1035.00 L 1706.00 1024.00 Z" />
<path id="csg562-062-03" fill="none" stroke="black" stroke-width="1" d="M 2166.00 1142.00 L 2146.00 1143.00 L 2126.00 1163.00 L 2106.00 1163.00 L 2086.00 1143.00 L 1060.44 1143.00 L 1005.00 1206.00 L 942.41 1261.00 L 1726.00 1261.00 L 1746.00 1281.00 L 1766.00 1261.00 L 2266.00 1261.00 L 2286.00 1281.00 L 2306.00 1261.00 L 2626.00 1261.00 L 2646.00 1281.00 L 2666.00 1261.00 L 3060.36 1261.00 L 3042.00 1152.00 L 3042.00 1142.00 L 2766.00 1142.00 L 2746.00 1162.00 L 2726.00 1162.00 L 2706.00 1142.00 L 2606.00 1142.00 L 2586.00 1162.00 L 2566.00 1162.00 L 2546.00 1142.00 Z" />
<path id="csg562-062-04" fill="none" stroke="black" stroke-width="1" d="M 942.41 1261.00 L 906.00 1293.00 L 893.13 1376.00 L 1106.00 1376.00 L 1126.00 1356.00 L 1166.00 1356.00 L 1186.00 1376.00 L 1966.00 1376.00 L 1986.00 1396.00 L 2006.00 1396.00 L 2026.00 1376.00 L 2286.00 1376.00 L 2306.00 1396.00 L 2326.00 1396.00 L 2346.00 1376.00 L 2646.00 1376.00 L 2666.00 1377.00 L 3079.89 1377.00 L 3060.36 1261.00 L 2666.00 1261.00 L 2646.00 1281.00 L 2626.00 1261.00 L 2306.00 1261.00 L 2286.00 1281.00 L 2266.00 1261.00 L 1766.00 1261.00 L 1746.00 1281.00 L 1726.00 1261.00 Z" />
<path id="csg562-062-05" fill="none" stroke="black" stroke-width="1" d="M 1126.00 1356.00 L 1106.00 1376.00 L 893.13 1376.00 L 874.37 1497.00 L 1246.00 1497.00 L 1266.00 1498.00 L 1486.00 1498.00 L 1506.00 1518.00 L 1526.00 1498.00 L 1646.00 1498.00 L 1666.00 1499.00 L 2046.00 1499.00 L 2066.00 1500.00 L 2446.00 1500.00 L 2466.00 1501.00 L 2846.00 1501.00 L 2866.00 1502.00 L 3052.58 1502.00 L 3090.00 1437.00 L 3079.89 1377.00 L 2666.00 1377.00 L 2646.00 1376.00 L 2346.00 1376.00 L 2326.00 1396.00 L 2306.00 1396.00 L 2286.00 1376.00 L 2026.00 1376.00 L 2006.00 1396.00 L 1986.00 1396.00 L 1966.00 1376.00 L 1186.00 1376.00 L 1166.00 1356.00 Z" />
<path id="csg562-062-06" fill="none" stroke="black" stroke-width="1" d="M 874.37 1497.00 L 857.76 1604.12 L 866.00 1600.00 L 886.00 1600.00 L 906.00 1580.00 L 926.00 1600.00 L 1766.00 1600.00 L 1786.00 1601.00 L 2086.00 1601.00 L 2106.00 1621.00 L 2126.00 1601.00 L 2186.00 1601.00 L 2206.00 1581.00 L 2226.00 1601.00 L 2426.00 1601.00 L 2446.00 1621.00 L 2466.00 1601.00 L 2686.00 1601.00 L 2706.00 1602.00 L 2995.00 1602.00 L 3052.58 1502.00 L 2866.00 1502.00 L 2846.00 1501.00 L 2466.00 1501.00 L 2446.00 1500.00 L 2066.00 1500.00 L 2046.00 1499.00 L 1666.00 1499.00 L 1646.00 1498.00 L 1526.00 1498.00 L 1506.00 1518.00 L 1486.00 1498.00 L 1266.00 1498.00 L 1246.00 1497.00 Z" />
<path id="csg562-062-07" fill="none" stroke="black" stroke-width="1" d="M 906.00 1580.00 L 886.00 1600.00 L 866.00 1600.00 L 857.76 1604.12 L 846.00 1680.00 L 859.43 1720.29 L 866.00 1717.00 L 1346.00 1717.00 L 1366.00 1718.00 L 1866.00 1718.00 L 1886.00 1719.00 L 1906.00 1739.00 L 1926.00 1739.00 L 1946.00 1719.00 L 2386.00 1719.00 L 2406.00 1720.00 L 2906.00 1720.00 L 2926.00 1721.00 L 2994.02 1721.00 L 2976.00 1635.00 L 2995.00 1602.00 L 2706.00 1602.00 L 2686.00 1601.00 L 2466.00 1601.00 L 2446.00 1621.00 L 2426.00 1601.00 L 2226.00 1601.00 L 2206.00 1581.00 L 2186.00 1601.00 L 2126.00 1601.00 L 2106.00 1621.00 L 2086.00 1601.00 L 1786.00 1601.00 L 1766.00 1600.00 L 926.00 1600.00 L 906.00 1580.00 Z" />
<path id="csg562-062-08" fill="none" stroke="black" stroke-width="1" d="M 866.00 1717.00 L 859.43 1720.29 L 894.00 1824.00 L 946.00 1824.00 L 966.00 1844.00 L 986.00 1824.00 L 1046.00 1824.00 L 1066.00 1825.00 L 1246.00 1825.00 L 1266.00 1826.00 L 1426.00 1826.00 L 1446.00 1846.00 L 1466.00 1847.00 L 1486.00 1827.00 L 1646.00 1827.00 L 1666.00 1828.00 L 1866.00 1828.00 L 1886.00 1809.00 L 1906.00 1809.00 L 1926.00 1829.00 L 2066.00 1829.00 L 2086.00 1830.00 L 2126.00 1830.00 L 2146.00 1850.00 L 2166.00 1850.00 L 2186.00 1830.00 L 2266.00 1830.00 L 2286.00 1831.00 L 2466.00 1831.00 L 2486.00 1852.00 L 2506.00 1852.00 L 2526.00 1832.00 L 2686.00 1832.00 L 2706.00 1833.00 L 2826.00 1833.00 L 2846.00 1853.00 L 2866.00 1833.00 L 2886.00 1833.00 L 2906.00 1834.00 L 3017.70 1834.00 L 2994.02 1721.00 L 2926.00 1721.00 L 2906.00 1720.00 L 2406.00 1720.00 L 2386.00 1719.00 L 1946.00 1719.00 L 1926.00 1739.00 L 1906.00 1739.00 L 1886.00 1719.00 L 1866.00 1718.00 L 1366.00 1718.00 L 1346.00 1717.00 Z" />
<path id="csg562-062-09" fill="none" stroke="black" stroke-width="1" d="M 1886.00 1809.00 L 1866.00 1828.00 L 1666.00 1828.00 L 1646.00 1827.00 L 1486.00 1827.00 L 1466.00 1847.00 L 1446.00 1846.00 L 1426.00 1826.00 L 1266.00 1826.00 L 1246.00 1825.00 L 1066.00 1825.00 L 1046.00 1824.00 L 986.00 1824.00 L 966.00 1844.00 L 946.00 1824.00 L 894.00 1824.00 L 924.00 1914.00 L 922.45 1937.00 L 946.00 1937.00 L 966.00 1938.00 L 1066.00 1938.00 L 1086.00 1939.00 L 1186.00 1939.00 L 1206.00 1940.00 L 1306.00 1940.00 L 1326.00 1941.00 L 1406.00 1941.00 L 1426.00 1942.00 L 1526.00 1942.00 L 1546.00 1943.00 L 1646.00 1943.00 L 1666.00 1944.00 L 1766.00 1944.00 L 1786.00 1945.00 L 1886.00 1945.00 L 1906.00 1946.00 L 1986.00 1946.00 L 2006.00 1947.00 L 2106.00 1947.00 L 2126.00 1948.00 L 2226.00 1948.00 L 2246.00 1949.00 L 2346.00 1949.00 L 2366.00 1950.00 L 2446.00 1950.00 L 2466.00 1951.00 L 2566.00 1951.00 L 2586.00 1952.00 L 2686.00 1952.00 L 2706.00 1953.00 L 2806.00 1953.00 L 2826.00 1954.00 L 2846.00 1954.00 L 2866.00 1934.00 L 2886.00 1934.00 L 2906.00 1954.00 L 2926.00 1954.00 L 2946.00 1955.00 L 3026.00 1955.00 L 3039.88 1955.69 L 3042.00 1950.00 L 3017.70 1834.00 L 2906.00 1834.00 L 2886.00 1833.00 L 2866.00 1833.00 L 2846.00 1853.00 L 2826.00 1833.00 L 2706.00 1833.00 L 2686.00 1832.00 L 2526.00 1832.00 L 2506.00 1852.00 L 2486.00 1852.00 L 2466.00 1831.00 L 2286.00 1831.00 L 2266.00 1830.00 L 2186.00 1830.00 L 2166.00 1850.00 L 2146.00 1850.00 L 2126.00 1830.00 L 2086.00 1830.00 L 2066.00 1829.00 L 1926.00 1829.00 L 1906.00 1809.00 Z" />
<path id="csg562-062-10" fill="none" stroke="black" stroke-width="1" d="M 2866.00 1934.00 L 2846.00 1954.00 L 2826.00 1954.00 L 2806.00 1953.00 L 2706.00 1953.00 L 2686.00 1952.00 L 2586.00 1952.00 L 2566.00 1951.00 L 2466.00 1951.00 L 2446.00 1950.00 L 2366.00 1950.00 L 2346.00 1949.00 L 2246.00 1949.00 L 2226.00 1948.00 L 2126.00 1948.00 L 2106.00 1947.00 L 2006.00 1947.00 L 1986.00 1946.00 L 1906.00 1946.00 L 1886.00 1945.00 L 1786.00 1945.00 L 1766.00 1944.00 L 1666.00 1944.00 L 1646.00 1943.00 L 1546.00 1943.00 L 1526.00 1942.00 L 1426.00 1942.00 L 1406.00 1941.00 L 1326.00 1941.00 L 1306.00 1940.00 L 1206.00 1940.00 L 1186.00 1939.00 L 1086.00 1939.00 L 1066.00 1938.00 L 966.00 1938.00 L 946.00 1937.00 L 922.45 1937.00 L 915.57 2039.00 L 966.00 2039.00 L 986.00 2040.00 L 1086.00 2040.00 L 1106.00 2041.00 L 1206.00 2041.00 L 1226.00 2042.00 L 1326.00 2042.00 L 1346.00 2043.00 L 1446.00 2043.00 L 1466.00 2044.00 L 1566.00 2044.00 L 1586.00 2045.00 L 1686.00 2045.00 L 1706.00 2046.00 L 1806.00 2046.00 L 1826.00 2047.00 L 1926.00 2047.00 L 1946.00 2048.00 L 1986.00 2048.00 L 2006.00 2068.00 L 2026.00 2048.00 L 2046.00 2048.00 L 2066.00 2049.00 L 2166.00 2049.00 L 2186.00 2050.00 L 2286.00 2050.00 L 2306.00 2051.00 L 2406.00 2051.00 L 2426.00 2052.00 L 2526.00 2052.00 L 2546.00 2053.00 L 2666.00 2053.00 L 2686.00 2054.00 L 2786.00 2054.00 L 2806.00 2055.00 L 2906.00 2055.00 L 2926.00 2056.00 L 3002.59 2056.00 L 3039.88 1955.69 L 3026.00 1955.00 L 2946.00 1955.00 L 2926.00 1954.00 L 2906.00 1954.00 L 2886.00 1934.00 Z" />
<path id="csg562-062-11" fill="none" stroke="black" stroke-width="1" d="M 915.57 2039.00 L 907.75 2155.00 L 1086.00 2155.00 L 1106.00 2156.00 L 1346.00 2156.00 L 1366.00 2157.00 L 1606.00 2157.00 L 1626.00 2158.00 L 1846.00 2158.00 L 1866.00 2159.00 L 2026.00 2159.00 L 2046.00 2139.00 L 2106.00 2139.00 L 2126.00 2140.00 L 2146.00 2180.00 L 2166.00 2160.00 L 2366.00 2160.00 L 2386.00 2161.00 L 2606.00 2161.00 L 2626.00 2162.00 L 2866.00 2162.00 L 2886.00 2163.00 L 2962.81 2163.00 L 3002.59 2056.00 L 2926.00 2056.00 L 2906.00 2055.00 L 2806.00 2055.00 L 2786.00 2054.00 L 2686.00 2054.00 L 2666.00 2053.00 L 2546.00 2053.00 L 2526.00 2052.00 L 2426.00 2052.00 L 2406.00 2051.00 L 2306.00 2051.00 L 2286.00 2050.00 L 2186.00 2050.00 L 2166.00 2049.00 L 2066.00 2049.00 L 2046.00 2048.00 L 2026.00 2048.00 L 2006.00 2068.00 L 1986.00 2048.00 L 1946.00 2048.00 L 1926.00 2047.00 L 1826.00 2047.00 L 1806.00 2046.00 L 1706.00 2046.00 L 1686.00 2045.00 L 1586.00 2045.00 L 1566.00 2044.00 L 1466.00 2044.00 L 1446.00 2043.00 L 1346.00 2043.00 L 1326.00 2042.00 L 1226.00 2042.00 L 1206.00 2041.00 L 1106.00 2041.00 L 1086.00 2040.00 L 986.00 2040.00 L 966.00 2039.00 Z" />
<path id="csg562-062-12" fill="none" stroke="black" stroke-width="1" d="M 2046.00 2139.00 L 2026.00 2159.00 L 1866.00 2159.00 L 1846.00 2158.00 L 1626.00 2158.00 L 1606.00 2157.00 L 1366.00 2157.00 L 1346.00 2156.00 L 1106.00 2156.00 L 1086.00 2155.00 L 907.75 2155.00 L 900.34 2265.00 L 1046.00 2265.00 L 1066.00 2266.00 L 1246.00 2266.00 L 1266.00 2267.00 L 1446.00 2267.00 L 1466.00 2268.00 L 1646.00 2268.00 L 1666.00 2269.00 L 1846.00 2269.00 L 1866.00 2270.00 L 2046.00 2270.00 L 2066.00 2271.00 L 2246.00 2271.00 L 2266.00 2272.00 L 2446.00 2272.00 L 2466.00 2273.00 L 2646.00 2273.00 L 2666.00 2274.00 L 2846.00 2274.00 L 2866.00 2275.00 L 2987.21 2275.00 L 2955.00 2184.00 L 2962.81 2163.00 L 2886.00 2163.00 L 2866.00 2162.00 L 2626.00 2162.00 L 2606.00 2161.00 L 2386.00 2161.00 L 2366.00 2160.00 L 2166.00 2160.00 L 2146.00 2180.00 L 2126.00 2140.00 L 2106.00 2139.00 Z" />
<path id="csg562-062-13" fill="none" stroke="black" stroke-width="1" d="M 900.34 2265.00 L 892.85 2376.00 L 986.00 2376.00 L 1006.00 2377.00 L 1126.00 2377.00 L 1146.00 2378.00 L 1266.00 2378.00 L 1286.00 2379.00 L 1406.00 2379.00 L 1426.00 2380.00 L 1546.00 2380.00 L 1566.00 2381.00 L 1686.00 2381.00 L 1706.00 2382.00 L 1826.00 2382.00 L 1846.00 2383.00 L 1966.00 2383.00 L 1986.00 2384.00 L 2086.00 2384.00 L 2106.00 2404.00 L 2126.00 2385.00 L 2146.00 2405.00 L 2206.00 2405.00 L 2226.00 2385.00 L 2246.00 2385.00 L 2266.00 2386.00 L 2386.00 2386.00 L 2406.00 2387.00 L 2526.00 2387.00 L 2546.00 2388.00 L 2586.00 2388.00 L 2606.00 2368.00 L 2626.00 2368.00 L 2646.00 2388.00 L 2666.00 2388.00 L 2686.00 2389.00 L 2806.00 2389.00 L 2826.00 2390.00 L 2946.00 2390.00 L 2966.00 2391.00 L 3028.27 2391.00 L 2987.21 2275.00 L 2866.00 2275.00 L 2846.00 2274.00 L 2666.00 2274.00 L 2646.00 2273.00 L 2466.00 2273.00 L 2446.00 2272.00 L 2266.00 2272.00 L 2246.00 2271.00 L 2066.00 2271.00 L 2046.00 2270.00 L 1866.00 2270.00 L 1846.00 2269.00 L 1666.00 2269.00 L 1646.00 2268.00 L 1466.00 2268.00 L 1446.00 2267.00 L 1266.00 2267.00 L 1246.00 2266.00 L 1066.00 2266.00 L 1046.00 2265.00 Z" />
<path id="csg562-062-14" fill="none" stroke="black" stroke-width="1" d="M 2606.00 2368.00 L 2586.00 2388.00 L 2546.00 2388.00 L 2526.00 2387.00 L 2406.00 2387.00 L 2386.00 2386.00 L 2266.00 2386.00 L 2246.00 2385.00 L 2226.00 2385.00 L 2206.00 2405.00 L 2146.00 2405.00 L 2126.00 2385.00 L 2106.00 2404.00 L 2086.00 2384.00 L 1986.00 2384.00 L 1966.00 2383.00 L 1846.00 2383.00 L 1826.00 2382.00 L 1706.00 2382.00 L 1686.00 2381.00 L 1566.00 2381.00 L 1546.00 2380.00 L 1426.00 2380.00 L 1406.00 2379.00 L 1286.00 2379.00 L 1266.00 2378.00 L 1146.00 2378.00 L 1126.00 2377.00 L 1006.00 2377.00 L 986.00 2376.00 L 892.85 2376.00 L 888.00 2448.00 L 889.58 2488.00 L 986.00 2488.00 L 1006.00 2489.00 L 1146.00 2489.00 L 1166.00 2490.00 L 1306.00 2490.00 L 1326.00 2491.00 L 1466.00 2491.00 L 1486.00 2492.00 L 1626.00 2492.00 L 1646.00 2493.00 L 1786.00 2493.00 L 1806.00 2494.00 L 1926.00 2494.00 L 1946.00 2514.00 L 1966.00 2515.00 L 1986.00 2515.00 L 2006.00 2495.00 L 2086.00 2495.00 L 2106.00 2496.00 L 2246.00 2496.00 L 2266.00 2497.00 L 2406.00 2497.00 L 2426.00 2498.00 L 2566.00 2498.00 L 2586.00 2499.00 L 2726.00 2499.00 L 2746.00 2500.00 L 2886.00 2500.00 L 2906.00 2501.00 L 3046.00 2501.00 L 3066.00 2502.00 L 3067.57 2502.00 L 3028.27 2391.00 L 2966.00 2391.00 L 2946.00 2390.00 L 2826.00 2390.00 L 2806.00 2389.00 L 2686.00 2389.00 L 2666.00 2388.00 L 2646.00 2388.00 L 2626.00 2368.00 Z" />
<path id="csg562-062-15" fill="none" stroke="black" stroke-width="1" d="M 889.58 2488.00 L 893.94 2598.00 L 986.00 2598.00 L 1006.00 2599.00 L 1126.00 2599.00 L 1146.00 2600.00 L 1266.00 2600.00 L 1286.00 2601.00 L 1406.00 2601.00 L 1426.00 2602.00 L 1546.00 2602.00 L 1566.00 2603.00 L 1686.00 2603.00 L 1706.00 2604.00 L 1826.00 2604.00 L 1846.00 2605.00 L 1966.00 2605.00 L 1986.00 2606.00 L 2106.00 2606.00 L 2126.00 2607.00 L 2246.00 2607.00 L 2266.00 2608.00 L 2386.00 2608.00 L 2406.00 2609.00 L 2426.00 2609.00 L 2446.00 2629.00 L 2466.00 2629.00 L 2486.00 2609.00 L 2506.00 2609.00 L 2526.00 2629.00 L 2546.00 2630.00 L 2566.00 2610.00 L 2666.00 2610.00 L 2686.00 2611.00 L 2706.00 2631.00 L 2726.00 2631.00 L 2746.00 2611.00 L 2806.00 2611.00 L 2826.00 2612.00 L 2946.00 2612.00 L 2966.00 2613.00 L 3079.05 2613.00 L 3075.00 2523.00 L 3067.57 2502.00 L 3066.00 2502.00 L 3046.00 2501.00 L 2906.00 2501.00 L 2886.00 2500.00 L 2746.00 2500.00 L 2726.00 2499.00 L 2586.00 2499.00 L 2566.00 2498.00 L 2426.00 2498.00 L 2406.00 2497.00 L 2266.00 2497.00 L 2246.00 2496.00 L 2106.00 2496.00 L 2086.00 2495.00 L 2006.00 2495.00 L 1986.00 2515.00 L 1966.00 2515.00 L 1946.00 2514.00 L 1926.00 2494.00 L 1806.00 2494.00 L 1786.00 2493.00 L 1646.00 2493.00 L 1626.00 2492.00 L 1486.00 2492.00 L 1466.00 2491.00 L 1326.00 2491.00 L 1306.00 2490.00 L 1166.00 2490.00 L 1146.00 2489.00 L 1006.00 2489.00 L 986.00 2488.00 Z" />
<path id="csg562-062-16" fill="none" stroke="black" stroke-width="1" d="M 893.94 2598.00 L 898.18 2705.00 L 946.00 2705.00 L 966.00 2706.00 L 1066.00 2706.00 L 1086.00 2707.00 L 1186.00 2707.00 L 1206.00 2708.00 L 1306.00 2708.00 L 1326.00 2709.00 L 1426.00 2709.00 L 1446.00 2710.00 L 1526.00 2710.00 L 1546.00 2711.00 L 1646.00 2711.00 L 1666.00 2712.00 L 1766.00 2712.00 L 1786.00 2713.00 L 1886.00 2713.00 L 1906.00 2714.00 L 2006.00 2714.00 L 2026.00 2735.00 L 2046.00 2715.00 L 2106.00 2715.00 L 2126.00 2716.00 L 2146.00 2696.00 L 2186.00 2696.00 L 2206.00 2716.00 L 2226.00 2716.00 L 2246.00 2717.00 L 2346.00 2717.00 L 2366.00 2718.00 L 2466.00 2718.00 L 2486.00 2719.00 L 2586.00 2719.00 L 2606.00 2720.00 L 2706.00 2720.00 L 2726.00 2721.00 L 2806.00 2721.00 L 2826.00 2722.00 L 2926.00 2722.00 L 2946.00 2723.00 L 3046.00 2723.00 L 3066.00 2724.00 L 3084.05 2724.00 L 3079.05 2613.00 L 2966.00 2613.00 L 2946.00 2612.00 L 2826.00 2612.00 L 2806.00 2611.00 L 2746.00 2611.00 L 2726.00 2631.00 L 2706.00 2631.00 L 2686.00 2611.00 L 2666.00 2610.00 L 2566.00 2610.00 L 2546.00 2630.00 L 2526.00 2629.00 L 2506.00 2609.00 L 2486.00 2609.00 L 2466.00 2629.00 L 2446.00 2629.00 L 2426.00 2609.00 L 2406.00 2609.00 L 2386.00 2608.00 L 2266.00 2608.00 L 2246.00 2607.00 L 2126.00 2607.00 L 2106.00 2606.00 L 1986.00 2606.00 L 1966.00 2605.00 L 1846.00 2605.00 L 1826.00 2604.00 L 1706.00 2604.00 L 1686.00 2603.00 L 1566.00 2603.00 L 1546.00 2602.00 L 1426.00 2602.00 L 1406.00 2601.00 L 1286.00 2601.00 L 1266.00 2600.00 L 1146.00 2600.00 L 1126.00 2599.00 L 1006.00 2599.00 L 986.00 2598.00 Z" />
<path id="csg562-062-17" fill="none" stroke="black" stroke-width="1" d="M 2146.00 2696.00 L 2126.00 2716.00 L 2106.00 2715.00 L 2046.00 2715.00 L 2026.00 2735.00 L 2006.00 2714.00 L 1906.00 2714.00 L 1886.00 2713.00 L 1786.00 2713.00 L 1766.00 2712.00 L 1666.00 2712.00 L 1646.00 2711.00 L 1546.00 2711.00 L 1526.00 2710.00 L 1446.00 2710.00 L 1426.00 2709.00 L 1326.00 2709.00 L 1306.00 2708.00 L 1206.00 2708.00 L 1186.00 2707.00 L 1086.00 2707.00 L 1066.00 2706.00 L 966.00 2706.00 L 946.00 2705.00 L 898.18 2705.00 L 902.65 2818.00 L 926.00 2818.00 L 946.00 2838.00 L 966.00 2838.00 L 986.00 2819.00 L 1086.00 2819.00 L 1106.00 2820.00 L 1206.00 2820.00 L 1226.00 2821.00 L 1346.00 2821.00 L 1366.00 2822.00 L 1466.00 2822.00 L 1486.00 2823.00 L 1586.00 2823.00 L 1606.00 2824.00 L 1726.00 2824.00 L 1746.00 2825.00 L 1846.00 2825.00 L 1866.00 2826.00 L 1966.00 2826.00 L 1986.00 2827.00 L 2086.00 2827.00 L 2106.00 2828.00 L 2226.00 2828.00 L 2246.00 2829.00 L 2346.00 2829.00 L 2366.00 2830.00 L 2466.00 2830.00 L 2486.00 2831.00 L 2606.00 2831.00 L 2626.00 2832.00 L 2726.00 2832.00 L 2746.00 2833.00 L 2846.00 2833.00 L 2866.00 2834.00 L 2986.00 2834.00 L 3006.00 2835.00 L 3089.05 2835.00 L 3084.05 2724.00 L 3066.00 2724.00 L 3046.00 2723.00 L 2946.00 2723.00 L 2926.00 2722.00 L 2826.00 2722.00 L 2806.00 2721.00 L 2726.00 2721.00 L 2706.00 2720.00 L 2606.00 2720.00 L 2586.00 2719.00 L 2486.00 2719.00 L 2466.00 2718.00 L 2366.00 2718.00 L 2346.00 2717.00 L 2246.00 2717.00 L 2226.00 2716.00 L 2206.00 2716.00 L 2186.00 2696.00 Z" />
<path id="csg562-062-18" fill="none" stroke="black" stroke-width="1" d="M 902.65 2818.00 L 907.13 2931.00 L 946.00 2931.00 L 966.00 2932.00 L 1066.00 2932.00 L 1086.00 2933.00 L 1166.00 2933.00 L 1186.00 2934.00 L 1226.00 2934.00 L 1246.00 2974.00 L 1266.00 2894.00 L 1286.00 2914.00 L 1306.00 2895.00 L 1326.00 2935.00 L 1406.00 2935.00 L 1426.00 2936.00 L 1506.00 2936.00 L 1526.00 2937.00 L 1626.00 2937.00 L 1646.00 2938.00 L 1726.00 2938.00 L 1746.00 2939.00 L 1846.00 2939.00 L 1866.00 2940.00 L 1966.00 2940.00 L 1986.00 2941.00 L 2066.00 2941.00 L 2086.00 2942.00 L 2186.00 2942.00 L 2206.00 2943.00 L 2286.00 2943.00 L 2306.00 2944.00 L 2406.00 2944.00 L 2426.00 2945.00 L 2526.00 2945.00 L 2546.00 2946.00 L 2626.00 2946.00 L 2646.00 2947.00 L 2746.00 2947.00 L 2766.00 2948.00 L 2866.00 2948.00 L 2886.00 2949.00 L 2966.00 2949.00 L 2986.00 2950.00 L 3084.63 2950.00 L 3090.00 2856.00 L 3089.05 2835.00 L 3006.00 2835.00 L 2986.00 2834.00 L 2866.00 2834.00 L 2846.00 2833.00 L 2746.00 2833.00 L 2726.00 2832.00 L 2626.00 2832.00 L 2606.00 2831.00 L 2486.00 2831.00 L 2466.00 2830.00 L 2366.00 2830.00 L 2346.00 2829.00 L 2246.00 2829.00 L 2226.00 2828.00 L 2106.00 2828.00 L 2086.00 2827.00 L 1986.00 2827.00 L 1966.00 2826.00 L 1866.00 2826.00 L 1846.00 2825.00 L 1746.00 2825.00 L 1726.00 2824.00 L 1606.00 2824.00 L 1586.00 2823.00 L 1486.00 2823.00 L 1466.00 2822.00 L 1366.00 2822.00 L 1346.00 2821.00 L 1226.00 2821.00 L 1206.00 2820.00 L 1106.00 2820.00 L 1086.00 2819.00 L 986.00 2819.00 L 966.00 2838.00 L 946.00 2838.00 L 926.00 2818.00 Z" />
<path id="csg562-062-19" fill="none" stroke="black" stroke-width="1" d="M 1266.00 2894.00 L 1246.00 2974.00 L 1226.00 2934.00 L 1186.00 2934.00 L 1166.00 2933.00 L 1086.00 2933.00 L 1066.00 2932.00 L 966.00 2932.00 L 946.00 2931.00 L 907.13 2931.00 L 911.45 3040.00 L 966.00 3040.00 L 986.00 3041.00 L 1106.00 3041.00 L 1126.00 3042.00 L 1226.00 3042.00 L 1246.00 3043.00 L 1366.00 3043.00 L 1386.00 3044.00 L 1486.00 3044.00 L 1506.00 3045.00 L 1606.00 3045.00 L 1626.00 3065.00 L 1646.00 3066.00 L 1666.00 3046.00 L 1726.00 3046.00 L 1746.00 3066.00 L 1766.00 3067.00 L 1786.00 3047.00 L 1886.00 3047.00 L 1906.00 3048.00 L 1986.00 3048.00 L 2006.00 3068.00 L 2026.00 3068.00 L 2046.00 3049.00 L 2146.00 3049.00 L 2166.00 3050.00 L 2286.00 3050.00 L 2306.00 3051.00 L 2406.00 3051.00 L 2426.00 3052.00 L 2546.00 3052.00 L 2566.00 3053.00 L 2666.00 3053.00 L 2686.00 3054.00 L 2746.00 3054.00 L 2766.00 3034.00 L 2806.00 3034.00 L 2826.00 3055.00 L 2926.00 3055.00 L 2946.00 3056.00 L 3066.00 3056.00 L 3078.54 3056.63 L 3084.63 2950.00 L 2986.00 2950.00 L 2966.00 2949.00 L 2886.00 2949.00 L 2866.00 2948.00 L 2766.00 2948.00 L 2746.00 2947.00 L 2646.00 2947.00 L 2626.00 2946.00 L 2546.00 2946.00 L 2526.00 2945.00 L 2426.00 2945.00 L 2406.00 2944.00 L 2306.00 2944.00 L 2286.00 2943.00 L 2206.00 2943.00 L 2186.00 2942.00 L 2086.00 2942.00 L 2066.00 2941.00 L 1986.00 2941.00 L 1966.00 2940.00 L 1866.00 2940.00 L 1846.00 2939.00 L 1746.00 2939.00 L 1726.00 2938.00 L 1646.00 2938.00 L 1626.00 2937.00 L 1526.00 2937.00 L 1506.00 2936.00 L 1426.00 2936.00 L 1406.00 2935.00 L 1326.00 2935.00 L 1306.00 2895.00 L 1286.00 2914.00 L 1266.00 2894.00 Z" />
<path id="csg562-062-20" fill="none" stroke="black" stroke-width="1" d="M 2766.00 3034.00 L 2746.00 3054.00 L 2686.00 3054.00 L 2666.00 3053.00 L 2566.00 3053.00 L 2546.00 3052.00 L 2426.00 3052.00 L 2406.00 3051.00 L 2306.00 3051.00 L 2286.00 3050.00 L 2166.00 3050.00 L 2146.00 3049.00 L 2046.00 3049.00 L 2026.00 3068.00 L 2006.00 3068.00 L 1986.00 3048.00 L 1906.00 3048.00 L 1886.00 3047.00 L 1786.00 3047.00 L 1766.00 3067.00 L 1746.00 3066.00 L 1726.00 3046.00 L 1666.00 3046.00 L 1646.00 3066.00 L 1626.00 3065.00 L 1606.00 3045.00 L 1506.00 3045.00 L 1486.00 3044.00 L 1386.00 3044.00 L 1366.00 3043.00 L 1246.00 3043.00 L 1226.00 3042.00 L 1126.00 3042.00 L 1106.00 3041.00 L 986.00 3041.00 L 966.00 3040.00 L 911.45 3040.00 L 912.00 3054.00 L 914.56 3150.00 L 966.00 3150.00 L 986.00 3151.00 L 1106.00 3151.00 L 1126.00 3152.00 L 1226.00 3152.00 L 1246.00 3153.00 L 1366.00 3153.00 L 1386.00 3154.00 L 1486.00 3154.00 L 1506.00 3155.00 L 1626.00 3155.00 L 1646.00 3156.00 L 1746.00 3156.00 L 1766.00 3157.00 L 1886.00 3157.00 L 1906.00 3158.00 L 2026.00 3158.00 L 2046.00 3159.00 L 2146.00 3159.00 L 2166.00 3160.00 L 2286.00 3160.00 L 2306.00 3161.00 L 2406.00 3161.00 L 2426.00 3162.00 L 2546.00 3162.00 L 2566.00 3163.00 L 2666.00 3163.00 L 2686.00 3164.00 L 2806.00 3164.00 L 2826.00 3165.00 L 2946.00 3165.00 L 2966.00 3166.00 L 3066.00 3166.00 L 3072.27 3166.31 L 3078.54 3056.63 L 3066.00 3056.00 L 2946.00 3056.00 L 2926.00 3055.00 L 2826.00 3055.00 L 2806.00 3034.00 Z" />
<path id="csg562-062-21" fill="none" stroke="black" stroke-width="1" d="M 914.56 3150.00 L 917.55 3262.00 L 1006.00 3262.00 L 1026.00 3263.00 L 1186.00 3263.00 L 1206.00 3264.00 L 1346.00 3264.00 L 1366.00 3265.00 L 1526.00 3265.00 L 1546.00 3266.00 L 1686.00 3266.00 L 1706.00 3267.00 L 1866.00 3267.00 L 1886.00 3268.00 L 2026.00 3268.00 L 2046.00 3269.00 L 2206.00 3269.00 L 2226.00 3270.00 L 2366.00 3270.00 L 2386.00 3271.00 L 2546.00 3271.00 L 2566.00 3272.00 L 2726.00 3272.00 L 2746.00 3273.00 L 2886.00 3273.00 L 2906.00 3274.00 L 3034.37 3274.00 L 3072.00 3171.00 L 3072.27 3166.31 L 3066.00 3166.00 L 2966.00 3166.00 L 2946.00 3165.00 L 2826.00 3165.00 L 2806.00 3164.00 L 2686.00 3164.00 L 2666.00 3163.00 L 2566.00 3163.00 L 2546.00 3162.00 L 2426.00 3162.00 L 2406.00 3161.00 L 2306.00 3161.00 L 2286.00 3160.00 L 2166.00 3160.00 L 2146.00 3159.00 L 2046.00 3159.00 L 2026.00 3158.00 L 1906.00 3158.00 L 1886.00 3157.00 L 1766.00 3157.00 L 1746.00 3156.00 L 1646.00 3156.00 L 1626.00 3155.00 L 1506.00 3155.00 L 1486.00 3154.00 L 1386.00 3154.00 L 1366.00 3153.00 L 1246.00 3153.00 L 1226.00 3152.00 L 1126.00 3152.00 L 1106.00 3151.00 L 986.00 3151.00 L 966.00 3150.00 Z" />
<path id="csg562-062-22" fill="none" stroke="black" stroke-width="1" d="M 917.55 3262.00 L 920.93 3389.00 L 1326.00 3389.00 L 1346.00 3390.00 L 1806.00 3390.00 L 1826.00 3391.00 L 1946.00 3391.00 L 1966.00 3371.00 L 2046.00 3371.00 L 2066.00 3391.00 L 2286.00 3391.00 L 2306.00 3392.00 L 2786.00 3392.00 L 2806.00 3393.00 L 2990.88 3393.00 L 3034.37 3274.00 L 2906.00 3274.00 L 2886.00 3273.00 L 2746.00 3273.00 L 2726.00 3272.00 L 2566.00 3272.00 L 2546.00 3271.00 L 2386.00 3271.00 L 2366.00 3270.00 L 2226.00 3270.00 L 2206.00 3269.00 L 2046.00 3269.00 L 2026.00 3268.00 L 1886.00 3268.00 L 1866.00 3267.00 L 1706.00 3267.00 L 1686.00 3266.00 L 1546.00 3266.00 L 1526.00 3265.00 L 1366.00 3265.00 L 1346.00 3264.00 L 1206.00 3264.00 L 1186.00 3263.00 L 1026.00 3263.00 L 1006.00 3262.00 Z" />
<path id="csg562-062-23" fill="none" stroke="black" stroke-width="1" d="M 1966.00 3371.00 L 1946.00 3391.00 L 1826.00 3391.00 L 1806.00 3390.00 L 1346.00 3390.00 L 1326.00 3389.00 L 920.93 3389.00 L 923.92 3501.00 L 966.00 3501.00 L 986.00 3502.00 L 1106.00 3502.00 L 1126.00 3503.00 L 1226.00 3503.00 L 1246.00 3504.00 L 1366.00 3504.00 L 1386.00 3505.00 L 1486.00 3505.00 L 1506.00 3506.00 L 1626.00 3506.00 L 1646.00 3507.00 L 1746.00 3507.00 L 1766.00 3508.00 L 1886.00 3508.00 L 1906.00 3509.00 L 2006.00 3509.00 L 2026.00 3510.00 L 2146.00 3510.00 L 2166.00 3511.00 L 2286.00 3511.00 L 2300.81 3511.74 L 2958.00 3483.00 L 2990.88 3393.00 L 2806.00 3393.00 L 2786.00 3392.00 L 2306.00 3392.00 L 2286.00 3391.00 L 2066.00 3391.00 L 2046.00 3371.00 Z" />
</svg>
