<?xml version="1.0" standalone="no"?>
<!DOCTYPE svg PUBLIC "-//W3C//DTD SVG 1.1//EN" "http://www.w3.org/Graphics/SVG/1.1/DTD/svg11.dtd">
<svg width="46.22222in" height="69.333336in" viewBox="0 0 3328 4992" xmlns="http://www.w3.org/2000/svg" version="1.1">
<path id="csg562-065-01" fill="none" stroke="black" stroke-width="1" d="M 1982.00 787.00 L 1962.00 807.00 L 1942.00 807.00 L 1922.00 808.00 L 1680.06 808.00 L 1365.00 834.00 L 714.00 813.00 L 429.00 837.00 L 425.37 933.00 L 602.00 933.00 L 622.00 953.00 L 642.00 973.00 L 662.00 972.00 L 682.00 932.00 L 882.00 932.00 L 902.00 931.00 L 1142.00 931.00 L 1162.00 930.00 L 1382.00 930.00 L 1402.00 929.00 L 1642.00 929.00 L 1662.00 928.00 L 1882.00 928.00 L 1902.00 927.00 L 2142.00 927.00 L 2162.00 926.00 L 2382.00 926.00 L 2402.00 925.00 L 2530.01 925.00 L 2511.00 825.00 L 2284.71 807.00 L 2002.00 807.00 L 1982.00 787.00 Z" />
<path id="csg562-065-02" fill="none" stroke="black" stroke-width="1" d="M 2402.00 925.00 L 2382.00 926.00 L 2162.00 926.00 L 2142.00 927.00 L 1902.00 927.00 L 1882.00 928.00 L 1662.00 928.00 L 1642.00 929.00 L 1402.00 929.00 L 1382.00 930.00 L 1162.00 930.00 L 1142.00 931.00 L 902.00 931.00 L 882.00 932.00 L 682.00 932.00 L 662.00 972.00 L 642.00 973.00 L 622.00 953.00 L 602.00 933.00 L 425.37 933.00 L 421.00 1048.55 L 422.00 1048.00 L 522.00 1048.00 L 542.00 1047.00 L 662.00 1047.00 L 682.00 1046.00 L 802.00 1046.00 L 822.00 1045.00 L 942.00 1045.00 L 962.00 1044.00 L 1082.00 1044.00 L 1102.00 1043.00 L 1222.00 1043.00 L 1242.00 1042.00 L 1362.00 1042.00 L 1382.00 1061.00 L 1402.00 1061.00 L 1422.00 1041.00 L 1442.00 1061.00 L 1482.00 1061.00 L 1502.00 1041.00 L 1522.00 1040.00 L 1622.00 1040.00 L 1642.00 1039.00 L 1762.00 1039.00 L 1782.00 1038.00 L 1902.00 1038.00 L 1922.00 1037.00 L 2042.00 1037.00 L 2062.00 1036.00 L 2182.00 1036.00 L 2202.00 1035.00 L 2322.00 1035.00 L 2342.00 1034.00 L 2462.00 1034.00 L 2482.00 1033.00 L 2550.54 1033.00 L 2530.01 925.00 Z" />
<path id="csg562-065-03" fill="none" stroke="black" stroke-width="1" d="M 2482.00 1033.00 L 2462.00 1034.00 L 2342.00 1034.00 L 2322.00 1035.00 L 2202.00 1035.00 L 2182.00 1036.00 L 2062.00 1036.00 L 2042.00 1037.00 L 1922.00 1037.00 L 1902.00 1038.00 L 1782.00 1038.00 L 1762.00 1039.00 L 1642.00 1039.00 L 1622.00 1040.00 L 1522.00 1040.00 L 1502.00 1041.00 L 1482.00 1061.00 L 1442.00 1061.00 L 1422.00 1041.00 L 1402.00 1061.00 L 1382.00 1061.00 L 1362.00 1042.00 L 1242.00 1042.00 L 1222.00 1043.00 L 1102.00 1043.00 L 1082.00 1044.00 L 962.00 1044.00 L 942.00 1045.00 L 822.00 1045.00 L 802.00 1046.00 L 682.00 1046.00 L 662.00 1047.00 L 542.00 1047.00 L 522.00 1048.00 L 422.00 1048.00 L 421.00 1048.55 L 416.79 1159.86 L 422.00 1157.00 L 502.00 1157.00 L 522.00 1156.00 L 602.00 1156.00 L 622.00 1155.00 L 722.00 1155.00 L 742.00 1154.00 L 822.00 1154.00 L 842.00 1153.00 L 942.00 1153.00 L 962.00 1152.00 L 1042.00 1152.00 L 1062.00 1151.00 L 1162.00 1151.00 L 1182.00 1150.00 L 1262.00 1150.00 L 1282.00 1169.00 L 1302.00 1189.00 L 1322.00 1149.00 L 1362.00 1149.00 L 1382.00 1148.00 L 1482.00 1148.00 L 1502.00 1147.00 L 1582.00 1147.00 L 1602.00 1146.00 L 1702.00 1146.00 L 1722.00 1145.00 L 1802.00 1145.00 L 1822.00 1144.00 L 1842.00 1164.00 L 1902.00 1164.00 L 1922.00 1144.00 L 1942.00 1143.00 L 2022.00 1143.00 L 2042.00 1142.00 L 2062.00 1162.00 L 2102.00 1162.00 L 2122.00 1142.00 L 2142.00 1142.00 L 2162.00 1141.00 L 2242.00 1141.00 L 2262.00 1140.00 L 2322.00 1140.00 L 2342.00 1160.00 L 2362.00 1159.00 L 2382.00 1139.00 L 2462.00 1139.00 L 2482.00 1158.00 L 2542.00 1158.00 L 2562.00 1138.00 L 2570.41 1137.53 L 2550.54 1033.00 Z" />
<path id="csg562-065-04" fill="none" stroke="black" stroke-width="1" d="M 2570.41 1137.53 L 2562.00 1138.00 L 2542.00 1158.00 L 2482.00 1158.00 L 2462.00 1139.00 L 2382.00 1139.00 L 2362.00 1159.00 L 2342.00 1160.00 L 2322.00 1140.00 L 2262.00 1140.00 L 2242.00 1141.00 L 2162.00 1141.00 L 2142.00 1142.00 L 2122.00 1142.00 L 2102.00 1162.00 L 2062.00 1162.00 L 2042.00 1142.00 L 2022.00 1143.00 L 1942.00 1143.00 L 1922.00 1144.00 L 1902.00 1164.00 L 1842.00 1164.00 L 1822.00 1144.00 L 1802.00 1145.00 L 1722.00 1145.00 L 1702.00 1146.00 L 1602.00 1146.00 L 1582.00 1147.00 L 1502.00 1147.00 L 1482.00 1148.00 L 1382.00 1148.00 L 1362.00 1149.00 L 1322.00 1149.00 L 1302.00 1189.00 L 1282.00 1169.00 L 1262.00 1150.00 L 1182.00 1150.00 L 1162.00 1151.00 L 1062.00 1151.00 L 1042.00 1152.00 L 962.00 1152.00 L 942.00 1153.00 L 842.00 1153.00 L 822.00 1154.00 L 742.00 1154.00 L 722.00 1155.00 L 622.00 1155.00 L 602.00 1156.00 L 522.00 1156.00 L 502.00 1157.00 L 422.00 1157.00 L 416.79 1159.86 L 412.23 1280.37 L 422.00 1275.00 L 562.00 1275.00 L 582.00 1274.00 L 742.00 1274.00 L 762.00 1273.00 L 902.00 1273.00 L 922.00 1272.00 L 1082.00 1272.00 L 1102.00 1271.00 L 1242.00 1271.00 L 1262.00 1270.00 L 1422.00 1270.00 L 1442.00 1269.00 L 1582.00 1269.00 L 1602.00 1244.00 L 1622.00 1246.00 L 1642.00 1248.00 L 1662.00 1268.00 L 1762.00 1268.00 L 1782.00 1267.00 L 1922.00 1267.00 L 1942.00 1266.00 L 2102.00 1266.00 L 2122.00 1265.00 L 2262.00 1265.00 L 2282.00 1264.00 L 2442.00 1264.00 L 2462.00 1263.00 L 2574.16 1263.00 L 2580.00 1188.00 L 2570.41 1137.53 Z" />
<path id="csg562-065-05" fill="none" stroke="black" stroke-width="1" d="M 1602.00 1244.00 L 1582.00 1269.00 L 1442.00 1269.00 L 1422.00 1270.00 L 1262.00 1270.00 L 1242.00 1271.00 L 1102.00 1271.00 L 1082.00 1272.00 L 922.00 1272.00 L 902.00 1273.00 L 762.00 1273.00 L 742.00 1274.00 L 582.00 1274.00 L 562.00 1275.00 L 422.00 1275.00 L 412.23 1280.37 L 408.06 1390.67 L 422.00 1383.00 L 522.00 1383.00 L 542.00 1382.00 L 642.00 1382.00 L 662.00 1381.00 L 782.00 1381.00 L 802.00 1380.00 L 902.00 1380.00 L 922.00 1399.00 L 942.00 1379.00 L 1022.00 1379.00 L 1042.00 1378.00 L 1162.00 1378.00 L 1182.00 1377.00 L 1282.00 1377.00 L 1302.00 1376.00 L 1402.00 1376.00 L 1422.00 1375.00 L 1542.00 1375.00 L 1562.00 1394.00 L 1582.00 1374.00 L 1662.00 1374.00 L 1682.00 1373.00 L 1782.00 1373.00 L 1802.00 1372.00 L 1922.00 1372.00 L 1942.00 1371.00 L 2022.00 1371.00 L 2042.00 1391.00 L 2062.00 1390.00 L 2082.00 1370.00 L 2122.00 1370.00 L 2142.00 1390.00 L 2162.00 1390.00 L 2182.00 1389.00 L 2202.00 1369.00 L 2302.00 1369.00 L 2322.00 1368.00 L 2422.00 1368.00 L 2442.00 1367.00 L 2542.00 1367.00 L 2562.00 1366.00 L 2566.13 1366.00 L 2574.16 1263.00 L 2462.00 1263.00 L 2442.00 1264.00 L 2282.00 1264.00 L 2262.00 1265.00 L 2122.00 1265.00 L 2102.00 1266.00 L 1942.00 1266.00 L 1922.00 1267.00 L 1782.00 1267.00 L 1762.00 1268.00 L 1662.00 1268.00 L 1642.00 1248.00 L 1622.00 1246.00 L 1602.00 1244.00 Z" />
<path id="csg562-065-06" fill="none" stroke="black" stroke-width="1" d="M 2562.00 1366.00 L 2542.00 1367.00 L 2442.00 1367.00 L 2422.00 1368.00 L 2322.00 1368.00 L 2302.00 1369.00 L 2202.00 1369.00 L 2182.00 1389.00 L 2162.00 1390.00 L 2142.00 1390.00 L 2122.00 1370.00 L 2082.00 1370.00 L 2062.00 1390.00 L 2042.00 1391.00 L 2022.00 1371.00 L 1942.00 1371.00 L 1922.00 1372.00 L 1802.00 1372.00 L 1782.00 1373.00 L 1682.00 1373.00 L 1662.00 1374.00 L 1582.00 1374.00 L 1562.00 1394.00 L 1542.00 1375.00 L 1422.00 1375.00 L 1402.00 1376.00 L 1302.00 1376.00 L 1282.00 1377.00 L 1182.00 1377.00 L 1162.00 1378.00 L 1042.00 1378.00 L 1022.00 1379.00 L 942.00 1379.00 L 922.00 1399.00 L 902.00 1380.00 L 802.00 1380.00 L 782.00 1381.00 L 662.00 1381.00 L 642.00 1382.00 L 542.00 1382.00 L 522.00 1383.00 L 422.00 1383.00 L 408.06 1390.67 L 403.82 1503.00 L 422.00 1493.00 L 522.00 1493.00 L 542.00 1492.00 L 562.00 1472.00 L 582.00 1492.00 L 662.00 1492.00 L 682.00 1491.00 L 782.00 1491.00 L 802.00 1490.00 L 922.00 1490.00 L 942.00 1489.00 L 1042.00 1489.00 L 1062.00 1488.00 L 1162.00 1488.00 L 1182.00 1508.00 L 1202.00 1507.00 L 1222.00 1507.00 L 1242.00 1487.00 L 1302.00 1487.00 L 1322.00 1486.00 L 1442.00 1486.00 L 1462.00 1485.00 L 1582.00 1485.00 L 1602.00 1484.00 L 1702.00 1484.00 L 1722.00 1483.00 L 1842.00 1483.00 L 1862.00 1482.00 L 1962.00 1482.00 L 1982.00 1481.00 L 2002.00 1501.00 L 2022.00 1501.00 L 2042.00 1481.00 L 2102.00 1481.00 L 2122.00 1480.00 L 2222.00 1480.00 L 2242.00 1479.00 L 2362.00 1479.00 L 2382.00 1478.00 L 2482.00 1478.00 L 2502.00 1477.00 L 2563.61 1477.00 L 2562.00 1419.00 L 2566.13 1366.00 Z" />
<path id="csg562-065-07" fill="none" stroke="black" stroke-width="1" d="M 562.00 1472.00 L 542.00 1492.00 L 522.00 1493.00 L 422.00 1493.00 L 403.82 1503.00 L 402.00 1551.00 L 403.47 1622.19 L 422.00 1612.00 L 482.00 1612.00 L 502.00 1611.00 L 582.00 1611.00 L 602.00 1610.00 L 662.00 1610.00 L 682.00 1609.00 L 762.00 1609.00 L 782.00 1608.00 L 862.00 1608.00 L 882.00 1607.00 L 942.00 1607.00 L 962.00 1626.00 L 982.00 1626.00 L 1002.00 1606.00 L 1042.00 1606.00 L 1062.00 1605.00 L 1122.00 1605.00 L 1142.00 1604.00 L 1222.00 1604.00 L 1242.00 1603.00 L 1282.00 1603.00 L 1302.00 1623.00 L 1322.00 1623.00 L 1342.00 1602.00 L 1402.00 1602.00 L 1422.00 1601.00 L 1502.00 1601.00 L 1522.00 1600.00 L 1582.00 1600.00 L 1602.00 1599.00 L 1682.00 1599.00 L 1702.00 1598.00 L 1782.00 1598.00 L 1802.00 1597.00 L 1862.00 1597.00 L 1882.00 1596.00 L 1902.00 1616.00 L 1922.00 1596.00 L 1962.00 1596.00 L 1982.00 1595.00 L 2042.00 1595.00 L 2062.00 1594.00 L 2142.00 1594.00 L 2162.00 1593.00 L 2182.00 1613.00 L 2202.00 1613.00 L 2222.00 1593.00 L 2242.00 1593.00 L 2262.00 1592.00 L 2322.00 1592.00 L 2342.00 1591.00 L 2422.00 1591.00 L 2442.00 1590.00 L 2502.00 1590.00 L 2522.00 1589.00 L 2566.72 1589.00 L 2563.61 1477.00 L 2502.00 1477.00 L 2482.00 1478.00 L 2382.00 1478.00 L 2362.00 1479.00 L 2242.00 1479.00 L 2222.00 1480.00 L 2122.00 1480.00 L 2102.00 1481.00 L 2042.00 1481.00 L 2022.00 1501.00 L 2002.00 1501.00 L 1982.00 1481.00 L 1962.00 1482.00 L 1862.00 1482.00 L 1842.00 1483.00 L 1722.00 1483.00 L 1702.00 1484.00 L 1602.00 1484.00 L 1582.00 1485.00 L 1462.00 1485.00 L 1442.00 1486.00 L 1322.00 1486.00 L 1302.00 1487.00 L 1242.00 1487.00 L 1222.00 1507.00 L 1202.00 1507.00 L 1182.00 1508.00 L 1162.00 1488.00 L 1062.00 1488.00 L 1042.00 1489.00 L 942.00 1489.00 L 922.00 1490.00 L 802.00 1490.00 L 782.00 1491.00 L 682.00 1491.00 L 662.00 1492.00 L 582.00 1492.00 L 562.00 1472.00 Z" />
<path id="csg562-065-08" fill="none" stroke="black" stroke-width="1" d="M 2522.00 1589.00 L 2502.00 1590.00 L 2442.00 1590.00 L 2422.00 1591.00 L 2342.00 1591.00 L 2322.00 1592.00 L 2262.00 1592.00 L 2242.00 1593.00 L 2222.00 1593.00 L 2202.00 1613.00 L 2182.00 1613.00 L 2162.00 1593.00 L 2142.00 1594.00 L 2062.00 1594.00 L 2042.00 1595.00 L 1982.00 1595.00 L 1962.00 1596.00 L 1922.00 1596.00 L 1902.00 1616.00 L 1882.00 1596.00 L 1862.00 1597.00 L 1802.00 1597.00 L 1782.00 1598.00 L 1702.00 1598.00 L 1682.00 1599.00 L 1602.00 1599.00 L 1582.00 1600.00 L 1522.00 1600.00 L 1502.00 1601.00 L 1422.00 1601.00 L 1402.00 1602.00 L 1342.00 1602.00 L 1322.00 1623.00 L 1302.00 1623.00 L 1282.00 1603.00 L 1242.00 1603.00 L 1222.00 1604.00 L 1142.00 1604.00 L 1122.00 1605.00 L 1062.00 1605.00 L 1042.00 1606.00 L 1002.00 1606.00 L 982.00 1626.00 L 962.00 1626.00 L 942.00 1607.00 L 882.00 1607.00 L 862.00 1608.00 L 782.00 1608.00 L 762.00 1609.00 L 682.00 1609.00 L 662.00 1610.00 L 602.00 1610.00 L 582.00 1611.00 L 502.00 1611.00 L 482.00 1612.00 L 422.00 1612.00 L 403.47 1622.19 L 405.81 1735.90 L 422.00 1727.00 L 502.00 1727.00 L 522.00 1726.00 L 542.00 1746.00 L 562.00 1746.00 L 582.00 1726.00 L 602.00 1746.00 L 622.00 1745.00 L 642.00 1745.00 L 662.00 1725.00 L 722.00 1725.00 L 742.00 1724.00 L 822.00 1724.00 L 842.00 1723.00 L 922.00 1723.00 L 942.00 1722.00 L 1042.00 1722.00 L 1062.00 1721.00 L 1142.00 1721.00 L 1162.00 1720.00 L 1262.00 1720.00 L 1282.00 1719.00 L 1362.00 1719.00 L 1382.00 1718.00 L 1462.00 1718.00 L 1482.00 1717.00 L 1522.00 1717.00 L 1542.00 1737.00 L 1562.00 1757.00 L 1582.00 1717.00 L 1602.00 1716.00 L 1682.00 1716.00 L 1702.00 1715.00 L 1802.00 1715.00 L 1822.00 1714.00 L 1902.00 1714.00 L 1922.00 1713.00 L 2002.00 1713.00 L 2022.00 1712.00 L 2122.00 1712.00 L 2142.00 1711.00 L 2222.00 1711.00 L 2242.00 1710.00 L 2302.00 1710.00 L 2322.00 1730.00 L 2342.00 1709.00 L 2442.00 1709.00 L 2462.00 1708.00 L 2542.00 1708.00 L 2562.00 1707.00 L 2570.00 1707.00 L 2566.72 1589.00 Z" />
<path id="csg562-065-09" fill="none" stroke="black" stroke-width="1" d="M 2562.00 1707.00 L 2542.00 1708.00 L 2462.00 1708.00 L 2442.00 1709.00 L 2342.00 1709.00 L 2322.00 1730.00 L 2302.00 1710.00 L 2242.00 1710.00 L 2222.00 1711.00 L 2142.00 1711.00 L 2122.00 1712.00 L 2022.00 1712.00 L 2002.00 1713.00 L 1922.00 1713.00 L 1902.00 1714.00 L 1822.00 1714.00 L 1802.00 1715.00 L 1702.00 1715.00 L 1682.00 1716.00 L 1602.00 1716.00 L 1582.00 1717.00 L 1562.00 1757.00 L 1542.00 1737.00 L 1522.00 1717.00 L 1482.00 1717.00 L 1462.00 1718.00 L 1382.00 1718.00 L 1362.00 1719.00 L 1282.00 1719.00 L 1262.00 1720.00 L 1162.00 1720.00 L 1142.00 1721.00 L 1062.00 1721.00 L 1042.00 1722.00 L 942.00 1722.00 L 922.00 1723.00 L 842.00 1723.00 L 822.00 1724.00 L 742.00 1724.00 L 722.00 1725.00 L 662.00 1725.00 L 642.00 1745.00 L 622.00 1745.00 L 602.00 1746.00 L 582.00 1726.00 L 562.00 1746.00 L 542.00 1746.00 L 522.00 1726.00 L 502.00 1727.00 L 422.00 1727.00 L 405.81 1735.90 L 407.99 1841.70 L 422.00 1834.00 L 642.00 1834.00 L 662.00 1833.00 L 902.00 1833.00 L 922.00 1832.00 L 1162.00 1832.00 L 1182.00 1831.00 L 1422.00 1831.00 L 1442.00 1830.00 L 1682.00 1830.00 L 1702.00 1829.00 L 1942.00 1829.00 L 1962.00 1828.00 L 2122.00 1828.00 L 2142.00 1848.00 L 2162.00 1828.00 L 2182.00 1828.00 L 2202.00 1827.00 L 2442.00 1827.00 L 2462.00 1826.00 L 2555.23 1826.00 L 2571.00 1743.00 L 2570.00 1707.00 Z" />
<path id="csg562-065-10" fill="none" stroke="black" stroke-width="1" d="M 2462.00 1826.00 L 2442.00 1827.00 L 2202.00 1827.00 L 2182.00 1828.00 L 2162.00 1828.00 L 2142.00 1848.00 L 2122.00 1828.00 L 1962.00 1828.00 L 1942.00 1829.00 L 1702.00 1829.00 L 1682.00 1830.00 L 1442.00 1830.00 L 1422.00 1831.00 L 1182.00 1831.00 L 1162.00 1832.00 L 922.00 1832.00 L 902.00 1833.00 L 662.00 1833.00 L 642.00 1834.00 L 422.00 1834.00 L 407.99 1841.70 L 410.30 1953.44 L 422.00 1947.00 L 482.00 1947.00 L 502.00 1967.00 L 522.00 1947.00 L 582.00 1947.00 L 602.00 1946.00 L 762.00 1946.00 L 782.00 1945.00 L 942.00 1945.00 L 962.00 1944.00 L 1142.00 1944.00 L 1162.00 1943.00 L 1322.00 1943.00 L 1342.00 1942.00 L 1502.00 1942.00 L 1522.00 1941.00 L 1702.00 1941.00 L 1722.00 1940.00 L 1862.00 1940.00 L 1882.00 1960.00 L 1902.00 1959.00 L 1922.00 1939.00 L 2062.00 1939.00 L 2082.00 1938.00 L 2242.00 1938.00 L 2262.00 1937.00 L 2442.00 1937.00 L 2462.00 1936.00 L 2534.33 1936.00 L 2555.23 1826.00 Z" />
<path id="csg562-065-11" fill="none" stroke="black" stroke-width="1" d="M 2462.00 1936.00 L 2442.00 1937.00 L 2262.00 1937.00 L 2242.00 1938.00 L 2082.00 1938.00 L 2062.00 1939.00 L 1922.00 1939.00 L 1902.00 1959.00 L 1882.00 1960.00 L 1862.00 1940.00 L 1722.00 1940.00 L 1702.00 1941.00 L 1522.00 1941.00 L 1502.00 1942.00 L 1342.00 1942.00 L 1322.00 1943.00 L 1162.00 1943.00 L 1142.00 1944.00 L 962.00 1944.00 L 942.00 1945.00 L 782.00 1945.00 L 762.00 1946.00 L 602.00 1946.00 L 582.00 1947.00 L 522.00 1947.00 L 502.00 1967.00 L 482.00 1947.00 L 422.00 1947.00 L 410.30 1953.44 L 412.56 2063.19 L 422.00 2058.00 L 502.00 2058.00 L 522.00 2057.00 L 602.00 2057.00 L 622.00 2056.00 L 642.00 2056.00 L 662.00 2076.00 L 682.00 2056.00 L 702.00 2056.00 L 722.00 2055.00 L 822.00 2055.00 L 842.00 2054.00 L 922.00 2054.00 L 942.00 2053.00 L 962.00 2053.00 L 982.00 2073.00 L 1002.00 2053.00 L 1022.00 2053.00 L 1042.00 2052.00 L 1122.00 2052.00 L 1142.00 2051.00 L 1222.00 2051.00 L 1242.00 2071.00 L 1262.00 2050.00 L 1342.00 2050.00 L 1362.00 2049.00 L 1382.00 2069.00 L 1422.00 2069.00 L 1442.00 2049.00 L 1462.00 2048.00 L 1542.00 2048.00 L 1562.00 2047.00 L 1662.00 2047.00 L 1682.00 2046.00 L 1742.00 2046.00 L 1762.00 2066.00 L 1782.00 2065.00 L 1802.00 2045.00 L 1862.00 2045.00 L 1882.00 2044.00 L 1962.00 2044.00 L 1982.00 2043.00 L 2082.00 2043.00 L 2102.00 2042.00 L 2182.00 2042.00 L 2202.00 2041.00 L 2282.00 2041.00 L 2302.00 2040.00 L 2382.00 2040.00 L 2402.00 2039.00 L 2502.00 2039.00 L 2514.88 2038.36 L 2534.33 1936.00 Z" />
<path id="csg562-065-12" fill="none" stroke="black" stroke-width="1" d="M 2514.88 2038.36 L 2502.00 2039.00 L 2402.00 2039.00 L 2382.00 2040.00 L 2302.00 2040.00 L 2282.00 2041.00 L 2202.00 2041.00 L 2182.00 2042.00 L 2102.00 2042.00 L 2082.00 2043.00 L 1982.00 2043.00 L 1962.00 2044.00 L 1882.00 2044.00 L 1862.00 2045.00 L 1802.00 2045.00 L 1782.00 2065.00 L 1762.00 2066.00 L 1742.00 2046.00 L 1682.00 2046.00 L 1662.00 2047.00 L 1562.00 2047.00 L 1542.00 2048.00 L 1462.00 2048.00 L 1442.00 2049.00 L 1422.00 2069.00 L 1382.00 2069.00 L 1362.00 2049.00 L 1342.00 2050.00 L 1262.00 2050.00 L 1242.00 2071.00 L 1222.00 2051.00 L 1142.00 2051.00 L 1122.00 2052.00 L 1042.00 2052.00 L 1022.00 2053.00 L 1002.00 2053.00 L 982.00 2073.00 L 962.00 2053.00 L 942.00 2053.00 L 922.00 2054.00 L 842.00 2054.00 L 822.00 2055.00 L 722.00 2055.00 L 702.00 2056.00 L 682.00 2056.00 L 662.00 2076.00 L 642.00 2056.00 L 622.00 2056.00 L 602.00 2057.00 L 522.00 2057.00 L 502.00 2058.00 L 422.00 2058.00 L 412.56 2063.19 L 414.99 2180.86 L 422.00 2177.00 L 482.00 2177.00 L 502.00 2176.00 L 562.00 2176.00 L 582.00 2175.00 L 642.00 2175.00 L 662.00 2174.00 L 722.00 2174.00 L 742.00 2173.00 L 822.00 2173.00 L 842.00 2172.00 L 902.00 2172.00 L 922.00 2171.00 L 962.00 2171.00 L 982.00 2191.00 L 1002.00 2190.00 L 1022.00 2170.00 L 1062.00 2170.00 L 1082.00 2169.00 L 1102.00 2189.00 L 1122.00 2189.00 L 1142.00 2169.00 L 1162.00 2169.00 L 1182.00 2168.00 L 1242.00 2168.00 L 1262.00 2167.00 L 1322.00 2167.00 L 1342.00 2166.00 L 1402.00 2166.00 L 1422.00 2165.00 L 1502.00 2165.00 L 1522.00 2164.00 L 1582.00 2164.00 L 1602.00 2163.00 L 1662.00 2163.00 L 1682.00 2162.00 L 1742.00 2162.00 L 1762.00 2161.00 L 1822.00 2161.00 L 1842.00 2160.00 L 1922.00 2160.00 L 1942.00 2159.00 L 2002.00 2159.00 L 2022.00 2158.00 L 2042.00 2158.00 L 2062.00 2138.00 L 2082.00 2138.00 L 2102.00 2137.00 L 2122.00 2137.00 L 2142.00 2157.00 L 2162.00 2157.00 L 2182.00 2156.00 L 2262.00 2156.00 L 2282.00 2155.00 L 2342.00 2155.00 L 2362.00 2154.00 L 2422.00 2154.00 L 2442.00 2153.00 L 2502.00 2153.00 L 2522.00 2152.00 L 2527.73 2152.00 L 2514.00 2043.00 L 2514.88 2038.36 Z" />
<path id="csg562-065-13" fill="none" stroke="black" stroke-width="1" d="M 2102.00 2137.00 L 2082.00 2138.00 L 2062.00 2138.00 L 2042.00 2158.00 L 2022.00 2158.00 L 2002.00 2159.00 L 1942.00 2159.00 L 1922.00 2160.00 L 1842.00 2160.00 L 1822.00 2161.00 L 1762.00 2161.00 L 1742.00 2162.00 L 1682.00 2162.00 L 1662.00 2163.00 L 1602.00 2163.00 L 1582.00 2164.00 L 1522.00 2164.00 L 1502.00 2165.00 L 1422.00 2165.00 L 1402.00 2166.00 L 1342.00 2166.00 L 1322.00 2167.00 L 1262.00 2167.00 L 1242.00 2168.00 L 1182.00 2168.00 L 1162.00 2169.00 L 1142.00 2169.00 L 1122.00 2189.00 L 1102.00 2189.00 L 1082.00 2169.00 L 1062.00 2170.00 L 1022.00 2170.00 L 1002.00 2190.00 L 982.00 2191.00 L 962.00 2171.00 L 922.00 2171.00 L 902.00 2172.00 L 842.00 2172.00 L 822.00 2173.00 L 742.00 2173.00 L 722.00 2174.00 L 662.00 2174.00 L 642.00 2175.00 L 582.00 2175.00 L 562.00 2176.00 L 502.00 2176.00 L 482.00 2177.00 L 422.00 2177.00 L 414.99 2180.86 L 417.11 2283.69 L 422.00 2281.00 L 502.00 2281.00 L 522.00 2280.00 L 622.00 2280.00 L 642.00 2279.00 L 662.00 2279.00 L 682.00 2299.00 L 702.00 2279.00 L 742.00 2279.00 L 762.00 2278.00 L 842.00 2278.00 L 862.00 2277.00 L 962.00 2277.00 L 982.00 2276.00 L 1082.00 2276.00 L 1102.00 2275.00 L 1182.00 2275.00 L 1202.00 2274.00 L 1242.00 2274.00 L 1262.00 2294.00 L 1282.00 2294.00 L 1302.00 2274.00 L 1322.00 2273.00 L 1422.00 2273.00 L 1442.00 2272.00 L 1462.00 2272.00 L 1482.00 2292.00 L 1502.00 2272.00 L 1522.00 2272.00 L 1542.00 2271.00 L 1562.00 2271.00 L 1582.00 2291.00 L 1602.00 2271.00 L 1642.00 2271.00 L 1662.00 2270.00 L 1762.00 2270.00 L 1782.00 2269.00 L 1862.00 2269.00 L 1882.00 2268.00 L 1982.00 2268.00 L 2002.00 2267.00 L 2022.00 2267.00 L 2042.00 2287.00 L 2062.00 2267.00 L 2102.00 2267.00 L 2122.00 2266.00 L 2202.00 2266.00 L 2222.00 2265.00 L 2242.00 2265.00 L 2262.00 2285.00 L 2282.00 2305.00 L 2302.00 2305.00 L 2322.00 2285.00 L 2342.00 2264.00 L 2422.00 2264.00 L 2442.00 2284.00 L 2462.00 2303.00 L 2482.00 2263.00 L 2541.72 2263.00 L 2527.73 2152.00 L 2522.00 2152.00 L 2502.00 2153.00 L 2442.00 2153.00 L 2422.00 2154.00 L 2362.00 2154.00 L 2342.00 2155.00 L 2282.00 2155.00 L 2262.00 2156.00 L 2182.00 2156.00 L 2162.00 2157.00 L 2142.00 2157.00 L 2122.00 2137.00 Z" />
<path id="csg562-065-14" fill="none" stroke="black" stroke-width="1" d="M 2482.00 2263.00 L 2462.00 2303.00 L 2442.00 2284.00 L 2422.00 2264.00 L 2342.00 2264.00 L 2322.00 2285.00 L 2302.00 2305.00 L 2282.00 2305.00 L 2262.00 2285.00 L 2242.00 2265.00 L 2222.00 2265.00 L 2202.00 2266.00 L 2122.00 2266.00 L 2102.00 2267.00 L 2062.00 2267.00 L 2042.00 2287.00 L 2022.00 2267.00 L 2002.00 2267.00 L 1982.00 2268.00 L 1882.00 2268.00 L 1862.00 2269.00 L 1782.00 2269.00 L 1762.00 2270.00 L 1662.00 2270.00 L 1642.00 2271.00 L 1602.00 2271.00 L 1582.00 2291.00 L 1562.00 2271.00 L 1542.00 2271.00 L 1522.00 2272.00 L 1502.00 2272.00 L 1482.00 2292.00 L 1462.00 2272.00 L 1442.00 2272.00 L 1422.00 2273.00 L 1322.00 2273.00 L 1302.00 2274.00 L 1282.00 2294.00 L 1262.00 2294.00 L 1242.00 2274.00 L 1202.00 2274.00 L 1182.00 2275.00 L 1102.00 2275.00 L 1082.00 2276.00 L 982.00 2276.00 L 962.00 2277.00 L 862.00 2277.00 L 842.00 2278.00 L 762.00 2278.00 L 742.00 2279.00 L 702.00 2279.00 L 682.00 2299.00 L 662.00 2279.00 L 642.00 2279.00 L 622.00 2280.00 L 522.00 2280.00 L 502.00 2281.00 L 422.00 2281.00 L 417.11 2283.69 L 419.33 2391.47 L 422.00 2390.00 L 542.00 2390.00 L 562.00 2389.00 L 702.00 2389.00 L 722.00 2388.00 L 862.00 2388.00 L 882.00 2387.00 L 1022.00 2387.00 L 1042.00 2386.00 L 1182.00 2386.00 L 1202.00 2385.00 L 1342.00 2385.00 L 1362.00 2364.00 L 1382.00 2384.00 L 1502.00 2384.00 L 1522.00 2383.00 L 1662.00 2383.00 L 1682.00 2382.00 L 1802.00 2382.00 L 1822.00 2381.00 L 1962.00 2381.00 L 1982.00 2380.00 L 2122.00 2380.00 L 2142.00 2379.00 L 2262.00 2379.00 L 2282.00 2399.00 L 2302.00 2378.00 L 2442.00 2378.00 L 2462.00 2377.00 L 2556.08 2377.00 L 2541.72 2263.00 Z" />
<path id="csg562-065-15" fill="none" stroke="black" stroke-width="1" d="M 1362.00 2364.00 L 1342.00 2385.00 L 1202.00 2385.00 L 1182.00 2386.00 L 1042.00 2386.00 L 1022.00 2387.00 L 882.00 2387.00 L 862.00 2388.00 L 722.00 2388.00 L 702.00 2389.00 L 562.00 2389.00 L 542.00 2390.00 L 422.00 2390.00 L 419.33 2391.47 L 420.00 2424.00 L 426.18 2507.00 L 502.00 2507.00 L 522.00 2506.00 L 602.00 2506.00 L 622.00 2505.00 L 702.00 2505.00 L 722.00 2504.00 L 802.00 2504.00 L 822.00 2503.00 L 902.00 2503.00 L 922.00 2522.00 L 982.00 2522.00 L 1002.00 2502.00 L 1022.00 2501.00 L 1102.00 2501.00 L 1122.00 2500.00 L 1202.00 2500.00 L 1222.00 2499.00 L 1302.00 2499.00 L 1322.00 2498.00 L 1402.00 2498.00 L 1422.00 2497.00 L 1502.00 2497.00 L 1522.00 2496.00 L 1602.00 2496.00 L 1622.00 2495.00 L 1702.00 2495.00 L 1722.00 2494.00 L 1762.00 2494.00 L 1782.00 2514.00 L 1802.00 2514.00 L 1822.00 2493.00 L 1902.00 2493.00 L 1922.00 2492.00 L 2002.00 2492.00 L 2022.00 2491.00 L 2102.00 2491.00 L 2122.00 2490.00 L 2202.00 2490.00 L 2222.00 2489.00 L 2302.00 2489.00 L 2322.00 2488.00 L 2402.00 2488.00 L 2422.00 2487.00 L 2502.00 2487.00 L 2522.00 2486.00 L 2544.43 2486.00 L 2562.00 2424.00 L 2556.08 2377.00 L 2462.00 2377.00 L 2442.00 2378.00 L 2302.00 2378.00 L 2282.00 2399.00 L 2262.00 2379.00 L 2142.00 2379.00 L 2122.00 2380.00 L 1982.00 2380.00 L 1962.00 2381.00 L 1822.00 2381.00 L 1802.00 2382.00 L 1682.00 2382.00 L 1662.00 2383.00 L 1522.00 2383.00 L 1502.00 2384.00 L 1382.00 2384.00 L 1362.00 2364.00 Z" />
<path id="csg562-065-16" fill="none" stroke="black" stroke-width="1" d="M 2522.00 2486.00 L 2502.00 2487.00 L 2422.00 2487.00 L 2402.00 2488.00 L 2322.00 2488.00 L 2302.00 2489.00 L 2222.00 2489.00 L 2202.00 2490.00 L 2122.00 2490.00 L 2102.00 2491.00 L 2022.00 2491.00 L 2002.00 2492.00 L 1922.00 2492.00 L 1902.00 2493.00 L 1822.00 2493.00 L 1802.00 2514.00 L 1782.00 2514.00 L 1762.00 2494.00 L 1722.00 2494.00 L 1702.00 2495.00 L 1622.00 2495.00 L 1602.00 2496.00 L 1522.00 2496.00 L 1502.00 2497.00 L 1422.00 2497.00 L 1402.00 2498.00 L 1322.00 2498.00 L 1302.00 2499.00 L 1222.00 2499.00 L 1202.00 2500.00 L 1122.00 2500.00 L 1102.00 2501.00 L 1022.00 2501.00 L 1002.00 2502.00 L 982.00 2522.00 L 922.00 2522.00 L 902.00 2503.00 L 822.00 2503.00 L 802.00 2504.00 L 722.00 2504.00 L 702.00 2505.00 L 622.00 2505.00 L 602.00 2506.00 L 522.00 2506.00 L 502.00 2507.00 L 426.18 2507.00 L 434.15 2614.00 L 502.00 2614.00 L 522.00 2613.00 L 622.00 2613.00 L 642.00 2612.00 L 722.00 2612.00 L 742.00 2611.00 L 842.00 2611.00 L 862.00 2610.00 L 922.00 2610.00 L 942.00 2630.00 L 962.00 2630.00 L 982.00 2649.00 L 1002.00 2629.00 L 1022.00 2609.00 L 1062.00 2609.00 L 1082.00 2608.00 L 1182.00 2608.00 L 1202.00 2607.00 L 1302.00 2607.00 L 1322.00 2606.00 L 1402.00 2606.00 L 1422.00 2605.00 L 1522.00 2605.00 L 1542.00 2624.00 L 1562.00 2624.00 L 1582.00 2604.00 L 1622.00 2604.00 L 1642.00 2603.00 L 1742.00 2603.00 L 1762.00 2602.00 L 1862.00 2602.00 L 1882.00 2601.00 L 1902.00 2621.00 L 1942.00 2621.00 L 1962.00 2601.00 L 1982.00 2600.00 L 2082.00 2600.00 L 2102.00 2599.00 L 2122.00 2619.00 L 2162.00 2619.00 L 2182.00 2599.00 L 2202.00 2599.00 L 2222.00 2598.00 L 2302.00 2598.00 L 2322.00 2597.00 L 2422.00 2597.00 L 2442.00 2596.00 L 2513.27 2596.00 L 2544.43 2486.00 Z" />
<path id="csg562-065-17" fill="none" stroke="black" stroke-width="1" d="M 2442.00 2596.00 L 2422.00 2597.00 L 2322.00 2597.00 L 2302.00 2598.00 L 2222.00 2598.00 L 2202.00 2599.00 L 2182.00 2599.00 L 2162.00 2619.00 L 2122.00 2619.00 L 2102.00 2599.00 L 2082.00 2600.00 L 1982.00 2600.00 L 1962.00 2601.00 L 1942.00 2621.00 L 1902.00 2621.00 L 1882.00 2601.00 L 1862.00 2602.00 L 1762.00 2602.00 L 1742.00 2603.00 L 1642.00 2603.00 L 1622.00 2604.00 L 1582.00 2604.00 L 1562.00 2624.00 L 1542.00 2624.00 L 1522.00 2605.00 L 1422.00 2605.00 L 1402.00 2606.00 L 1322.00 2606.00 L 1302.00 2607.00 L 1202.00 2607.00 L 1182.00 2608.00 L 1082.00 2608.00 L 1062.00 2609.00 L 1022.00 2609.00 L 1002.00 2629.00 L 982.00 2649.00 L 962.00 2630.00 L 942.00 2630.00 L 922.00 2610.00 L 862.00 2610.00 L 842.00 2611.00 L 742.00 2611.00 L 722.00 2612.00 L 642.00 2612.00 L 622.00 2613.00 L 522.00 2613.00 L 502.00 2614.00 L 434.15 2614.00 L 441.00 2706.00 L 549.00 2715.00 L 569.67 2746.00 L 602.00 2746.00 L 622.00 2745.00 L 689.11 2745.00 L 702.00 2733.00 L 1185.00 2721.00 L 2034.00 2730.00 L 2382.00 2727.00 L 2361.00 2607.00 L 2511.00 2604.00 L 2513.27 2596.00 Z" />
<path id="csg562-065-18" fill="none" stroke="black" stroke-width="1" d="M 1188.00 2829.00 L 588.00 2841.00 L 570.00 2952.00 L 708.00 2952.00 L 728.00 2951.00 L 868.00 2951.00 L 888.00 2950.00 L 1028.00 2950.00 L 1048.00 2949.00 L 1188.00 2949.00 L 1208.00 2948.00 L 1328.00 2948.00 L 1348.00 2947.00 L 1488.00 2947.00 L 1508.00 2946.00 L 1648.00 2946.00 L 1668.00 2945.00 L 1808.00 2945.00 L 1828.00 2944.00 L 1968.00 2944.00 L 1988.00 2943.00 L 2128.00 2943.00 L 2148.00 2942.00 L 2268.00 2942.00 L 2288.00 2941.00 L 2428.00 2941.00 L 2448.00 2940.00 L 2468.00 2960.00 L 2488.00 2940.00 L 2520.00 2940.00 L 2520.00 2841.00 L 1941.00 2832.00 L 1188.00 2829.00 Z" />
<path id="csg562-065-19" fill="none" stroke="black" stroke-width="1" d="M 2448.00 2940.00 L 2428.00 2941.00 L 2288.00 2941.00 L 2268.00 2942.00 L 2148.00 2942.00 L 2128.00 2943.00 L 1988.00 2943.00 L 1968.00 2944.00 L 1828.00 2944.00 L 1808.00 2945.00 L 1668.00 2945.00 L 1648.00 2946.00 L 1508.00 2946.00 L 1488.00 2947.00 L 1348.00 2947.00 L 1328.00 2948.00 L 1208.00 2948.00 L 1188.00 2949.00 L 1048.00 2949.00 L 1028.00 2950.00 L 888.00 2950.00 L 868.00 2951.00 L 728.00 2951.00 L 708.00 2952.00 L 570.00 2952.00 L 414.00 3036.00 L 412.75 3073.39 L 428.00 3065.00 L 508.00 3065.00 L 528.00 3064.00 L 628.00 3064.00 L 648.00 3063.00 L 688.00 3063.00 L 708.00 3083.00 L 728.00 3063.00 L 748.00 3063.00 L 768.00 3062.00 L 848.00 3062.00 L 868.00 3061.00 L 968.00 3061.00 L 988.00 3060.00 L 1088.00 3060.00 L 1108.00 3059.00 L 1188.00 3059.00 L 1208.00 3058.00 L 1308.00 3058.00 L 1328.00 3057.00 L 1428.00 3057.00 L 1448.00 3056.00 L 1548.00 3056.00 L 1568.00 3055.00 L 1648.00 3055.00 L 1668.00 3054.00 L 1688.00 3054.00 L 1708.00 3074.00 L 1728.00 3054.00 L 1768.00 3054.00 L 1788.00 3053.00 L 1888.00 3053.00 L 1908.00 3052.00 L 1988.00 3052.00 L 2008.00 3051.00 L 2108.00 3051.00 L 2128.00 3050.00 L 2228.00 3050.00 L 2248.00 3049.00 L 2288.00 3049.00 L 2308.00 3069.00 L 2348.00 3069.00 L 2368.00 3048.00 L 2448.00 3048.00 L 2468.00 3047.00 L 2520.00 3047.00 L 2520.00 2940.00 L 2488.00 2940.00 L 2468.00 2960.00 L 2448.00 2940.00 Z" />
<path id="csg562-065-20" fill="none" stroke="black" stroke-width="1" d="M 2468.00 3047.00 L 2448.00 3048.00 L 2368.00 3048.00 L 2348.00 3069.00 L 2308.00 3069.00 L 2288.00 3049.00 L 2248.00 3049.00 L 2228.00 3050.00 L 2128.00 3050.00 L 2108.00 3051.00 L 2008.00 3051.00 L 1988.00 3052.00 L 1908.00 3052.00 L 1888.00 3053.00 L 1788.00 3053.00 L 1768.00 3054.00 L 1728.00 3054.00 L 1708.00 3074.00 L 1688.00 3054.00 L 1668.00 3054.00 L 1648.00 3055.00 L 1568.00 3055.00 L 1548.00 3056.00 L 1448.00 3056.00 L 1428.00 3057.00 L 1328.00 3057.00 L 1308.00 3058.00 L 1208.00 3058.00 L 1188.00 3059.00 L 1108.00 3059.00 L 1088.00 3060.00 L 988.00 3060.00 L 968.00 3061.00 L 868.00 3061.00 L 848.00 3062.00 L 768.00 3062.00 L 748.00 3063.00 L 728.00 3063.00 L 708.00 3083.00 L 688.00 3063.00 L 648.00 3063.00 L 628.00 3064.00 L 528.00 3064.00 L 508.00 3065.00 L 428.00 3065.00 L 412.75 3073.39 L 409.09 3183.40 L 428.00 3173.00 L 628.00 3173.00 L 648.00 3172.00 L 848.00 3172.00 L 868.00 3171.00 L 1088.00 3171.00 L 1108.00 3170.00 L 1308.00 3170.00 L 1328.00 3169.00 L 1528.00 3169.00 L 1548.00 3168.00 L 1588.00 3168.00 L 1608.00 3148.00 L 1628.00 3168.00 L 1648.00 3148.00 L 1668.00 3168.00 L 1768.00 3168.00 L 1788.00 3167.00 L 1988.00 3167.00 L 2008.00 3166.00 L 2108.00 3166.00 L 2128.00 3186.00 L 2148.00 3186.00 L 2168.00 3166.00 L 2208.00 3166.00 L 2228.00 3165.00 L 2448.00 3165.00 L 2468.00 3164.00 L 2523.36 3164.00 L 2520.00 3090.00 L 2520.00 3047.00 Z" />
<path id="csg562-065-21" fill="none" stroke="black" stroke-width="1" d="M 1608.00 3148.00 L 1588.00 3168.00 L 1548.00 3168.00 L 1528.00 3169.00 L 1328.00 3169.00 L 1308.00 3170.00 L 1108.00 3170.00 L 1088.00 3171.00 L 868.00 3171.00 L 848.00 3172.00 L 648.00 3172.00 L 628.00 3173.00 L 428.00 3173.00 L 409.09 3183.40 L 408.00 3216.00 L 409.66 3293.09 L 428.00 3283.00 L 728.00 3283.00 L 748.00 3282.00 L 1068.00 3282.00 L 1088.00 3281.00 L 1408.00 3281.00 L 1428.00 3280.00 L 1608.00 3280.00 L 1628.00 3320.00 L 1648.00 3300.00 L 1668.00 3280.00 L 1748.00 3280.00 L 1768.00 3279.00 L 2068.00 3279.00 L 2088.00 3278.00 L 2408.00 3278.00 L 2428.00 3277.00 L 2528.50 3277.00 L 2523.36 3164.00 L 2468.00 3164.00 L 2448.00 3165.00 L 2228.00 3165.00 L 2208.00 3166.00 L 2168.00 3166.00 L 2148.00 3186.00 L 2128.00 3186.00 L 2108.00 3166.00 L 2008.00 3166.00 L 1988.00 3167.00 L 1788.00 3167.00 L 1768.00 3168.00 L 1668.00 3168.00 L 1648.00 3148.00 L 1628.00 3168.00 L 1608.00 3148.00 Z" />
<path id="csg562-065-22" fill="none" stroke="black" stroke-width="1" d="M 2428.00 3277.00 L 2408.00 3278.00 L 2088.00 3278.00 L 2068.00 3279.00 L 1768.00 3279.00 L 1748.00 3280.00 L 1668.00 3280.00 L 1648.00 3300.00 L 1628.00 3320.00 L 1608.00 3280.00 L 1428.00 3280.00 L 1408.00 3281.00 L 1088.00 3281.00 L 1068.00 3282.00 L 748.00 3282.00 L 728.00 3283.00 L 428.00 3283.00 L 409.66 3293.09 L 412.14 3408.72 L 428.00 3400.00 L 528.00 3400.00 L 548.00 3399.00 L 648.00 3399.00 L 668.00 3398.00 L 768.00 3398.00 L 788.00 3397.00 L 888.00 3397.00 L 908.00 3396.00 L 968.00 3396.00 L 988.00 3416.00 L 1008.00 3416.00 L 1028.00 3395.00 L 1128.00 3395.00 L 1148.00 3394.00 L 1248.00 3394.00 L 1268.00 3393.00 L 1368.00 3393.00 L 1388.00 3392.00 L 1488.00 3392.00 L 1508.00 3391.00 L 1608.00 3391.00 L 1628.00 3390.00 L 1728.00 3390.00 L 1748.00 3389.00 L 1848.00 3389.00 L 1868.00 3388.00 L 1968.00 3388.00 L 1988.00 3387.00 L 2088.00 3387.00 L 2108.00 3386.00 L 2208.00 3386.00 L 2228.00 3385.00 L 2328.00 3385.00 L 2348.00 3384.00 L 2468.00 3384.00 L 2488.00 3383.00 L 2524.15 3383.00 L 2532.00 3354.00 L 2528.50 3277.00 Z" />
<path id="csg562-065-23" fill="none" stroke="black" stroke-width="1" d="M 2488.00 3383.00 L 2468.00 3384.00 L 2348.00 3384.00 L 2328.00 3385.00 L 2228.00 3385.00 L 2208.00 3386.00 L 2108.00 3386.00 L 2088.00 3387.00 L 1988.00 3387.00 L 1968.00 3388.00 L 1868.00 3388.00 L 1848.00 3389.00 L 1748.00 3389.00 L 1728.00 3390.00 L 1628.00 3390.00 L 1608.00 3391.00 L 1508.00 3391.00 L 1488.00 3392.00 L 1388.00 3392.00 L 1368.00 3393.00 L 1268.00 3393.00 L 1248.00 3394.00 L 1148.00 3394.00 L 1128.00 3395.00 L 1028.00 3395.00 L 1008.00 3416.00 L 988.00 3416.00 L 968.00 3396.00 L 908.00 3396.00 L 888.00 3397.00 L 788.00 3397.00 L 768.00 3398.00 L 668.00 3398.00 L 648.00 3399.00 L 548.00 3399.00 L 528.00 3400.00 L 428.00 3400.00 L 412.14 3408.72 L 414.00 3495.00 L 543.00 3527.25 L 548.00 3527.00 L 648.00 3527.00 L 668.00 3526.00 L 768.00 3526.00 L 788.00 3525.00 L 888.00 3525.00 L 908.00 3524.00 L 1028.00 3524.00 L 1048.00 3523.00 L 1148.00 3523.00 L 1168.00 3522.00 L 1268.00 3522.00 L 1288.00 3521.00 L 1388.00 3521.00 L 1408.00 3520.00 L 1448.00 3520.00 L 1467.14 3539.14 L 1468.81 3539.19 L 1488.00 3520.00 L 1508.00 3520.00 L 1528.00 3519.00 L 1648.00 3519.00 L 1668.00 3518.00 L 1768.00 3518.00 L 1788.00 3517.00 L 1888.00 3517.00 L 1908.00 3516.00 L 1931.33 3516.00 L 1986.00 3513.00 L 2493.00 3498.00 L 2524.15 3383.00 Z" />
</svg>
