<?xml version="1.0" standalone="no"?>
<!DOCTYPE svg PUBLIC "-//W3C//DTD SVG 1.1//EN" "http://www.w3.org/Graphics/SVG/1.1/DTD/svg11.dtd">
<svg width="46.22222in" height="69.333336in" viewBox="0 0 3328 4992" xmlns="http://www.w3.org/2000/svg" version="1.1">
<path id="csg562-040-01" fill="none" stroke="black" stroke-width="1" d="M 1193.67 844.00 L 1131.00 846.00 L 912.00 891.00 L 901.62 947.33 L 915.00 948.00 L 995.00 948.00 L 1015.00 949.00 L 1095.00 949.00 L 1115.00 950.00 L 1195.00 950.00 L 1215.00 951.00 L 1295.00 951.00 L 1315.00 952.00 L 1395.00 952.00 L 1415.00 953.00 L 1495.00 953.00 L 1515.00 954.00 L 1595.00 954.00 L 1615.00 955.00 L 1695.00 955.00 L 1715.00 956.00 L 1795.00 956.00 L 1815.00 957.00 L 1835.00 937.00 L 1855.00 957.00 L 1875.00 937.00 L 1895.00 957.00 L 1915.00 958.00 L 1975.00 958.00 L 1995.00 978.00 L 2015.00 959.00 L 2095.00 959.00 L 2115.00 960.00 L 2195.00 960.00 L 2215.00 961.00 L 2295.00 961.00 L 2315.00 962.00 L 2395.00 962.00 L 2415.00 963.00 L 2495.00 963.00 L 2515.00 964.00 L 2595.00 964.00 L 2615.00 965.00 L 2695.00 965.00 L 2715.00 966.00 L 2815.00 966.00 L 2835.00 967.00 L 2915.00 967.00 L 2935.00 968.00 L 2941.88 968.00 L 2931.00 900.00 L 2511.00 882.00 L 2079.00 876.00 L 1554.00 873.00 L 1456.08 848.00 L 1455.00 848.00 L 1435.00 847.00 L 1375.00 847.00 L 1355.00 846.00 L 1295.00 846.00 L 1275.00 845.00 L 1235.00 845.00 L 1215.00 844.00 Z" />
<path id="csg562-040-02" fill="none" stroke="black" stroke-width="1" d="M 1835.00 937.00 L 1815.00 957.00 L 1795.00 956.00 L 1715.00 956.00 L 1695.00 955.00 L 1615.00 955.00 L 1595.00 954.00 L 1515.00 954.00 L 1495.00 953.00 L 1415.00 953.00 L 1395.00 952.00 L 1315.00 952.00 L 1295.00 951.00 L 1215.00 951.00 L 1195.00 950.00 L 1115.00 950.00 L 1095.00 949.00 L 1015.00 949.00 L 995.00 948.00 L 915.00 948.00 L 901.62 947.33 L 878.84 1071.00 L 935.00 1071.00 L 955.00 1072.00 L 1015.00 1072.00 L 1035.00 1073.00 L 1095.00 1073.00 L 1115.00 1074.00 L 1175.00 1074.00 L 1195.00 1075.00 L 1255.00 1075.00 L 1275.00 1076.00 L 1335.00 1076.00 L 1355.00 1077.00 L 1415.00 1077.00 L 1435.00 1078.00 L 1475.00 1078.00 L 1495.00 1079.00 L 1555.00 1079.00 L 1575.00 1080.00 L 1635.00 1080.00 L 1655.00 1081.00 L 1715.00 1081.00 L 1735.00 1082.00 L 1795.00 1082.00 L 1815.00 1083.00 L 1875.00 1083.00 L 1895.00 1084.00 L 1955.00 1084.00 L 1975.00 1085.00 L 2035.00 1085.00 L 2055.00 1086.00 L 2095.00 1086.00 L 2115.00 1087.00 L 2175.00 1087.00 L 2195.00 1088.00 L 2255.00 1088.00 L 2275.00 1089.00 L 2335.00 1089.00 L 2355.00 1090.00 L 2415.00 1090.00 L 2435.00 1071.00 L 2455.00 1071.00 L 2475.00 1051.00 L 2495.00 1091.00 L 2515.00 1092.00 L 2575.00 1092.00 L 2595.00 1093.00 L 2655.00 1093.00 L 2675.00 1094.00 L 2715.00 1094.00 L 2735.00 1095.00 L 2795.00 1095.00 L 2815.00 1096.00 L 2875.00 1096.00 L 2895.00 1097.00 L 2955.00 1097.00 L 2962.58 1097.38 L 2941.88 968.00 L 2935.00 968.00 L 2915.00 967.00 L 2835.00 967.00 L 2815.00 966.00 L 2715.00 966.00 L 2695.00 965.00 L 2615.00 965.00 L 2595.00 964.00 L 2515.00 964.00 L 2495.00 963.00 L 2415.00 963.00 L 2395.00 962.00 L 2315.00 962.00 L 2295.00 961.00 L 2215.00 961.00 L 2195.00 960.00 L 2115.00 960.00 L 2095.00 959.00 L 2015.00 959.00 L 1995.00 978.00 L 1975.00 958.00 L 1915.00 958.00 L 1895.00 957.00 L 1875.00 937.00 L 1855.00 957.00 L 1835.00 937.00 Z" />
<path id="csg562-040-03" fill="none" stroke="black" stroke-width="1" d="M 2475.00 1051.00 L 2455.00 1071.00 L 2435.00 1071.00 L 2415.00 1090.00 L 2355.00 1090.00 L 2335.00 1089.00 L 2275.00 1089.00 L 2255.00 1088.00 L 2195.00 1088.00 L 2175.00 1087.00 L 2115.00 1087.00 L 2095.00 1086.00 L 2055.00 1086.00 L 2035.00 1085.00 L 1975.00 1085.00 L 1955.00 1084.00 L 1895.00 1084.00 L 1875.00 1083.00 L 1815.00 1083.00 L 1795.00 1082.00 L 1735.00 1082.00 L 1715.00 1081.00 L 1655.00 1081.00 L 1635.00 1080.00 L 1575.00 1080.00 L 1555.00 1079.00 L 1495.00 1079.00 L 1475.00 1078.00 L 1435.00 1078.00 L 1415.00 1077.00 L 1355.00 1077.00 L 1335.00 1076.00 L 1275.00 1076.00 L 1255.00 1075.00 L 1195.00 1075.00 L 1175.00 1074.00 L 1115.00 1074.00 L 1095.00 1073.00 L 1035.00 1073.00 L 1015.00 1072.00 L 955.00 1072.00 L 935.00 1071.00 L 878.84 1071.00 L 870.00 1119.00 L 872.30 1177.00 L 935.00 1177.00 L 955.00 1178.00 L 1075.00 1178.00 L 1095.00 1179.00 L 1115.00 1163.00 L 1135.00 1161.00 L 1155.00 1179.00 L 1215.00 1179.00 L 1235.00 1180.00 L 1355.00 1180.00 L 1375.00 1181.00 L 1495.00 1181.00 L 1515.00 1182.00 L 1635.00 1182.00 L 1655.00 1183.00 L 1775.00 1183.00 L 1795.00 1184.00 L 1915.00 1184.00 L 1935.00 1185.00 L 2055.00 1185.00 L 2075.00 1186.00 L 2195.00 1186.00 L 2215.00 1187.00 L 2335.00 1187.00 L 2355.00 1188.00 L 2475.00 1188.00 L 2495.00 1189.00 L 2635.00 1189.00 L 2655.00 1190.00 L 2775.00 1190.00 L 2795.00 1191.00 L 2859.60 1191.00 L 2973.00 1173.00 L 2967.00 1125.00 L 2962.58 1097.38 L 2955.00 1097.00 L 2895.00 1097.00 L 2875.00 1096.00 L 2815.00 1096.00 L 2795.00 1095.00 L 2735.00 1095.00 L 2715.00 1094.00 L 2675.00 1094.00 L 2655.00 1093.00 L 2595.00 1093.00 L 2575.00 1092.00 L 2515.00 1092.00 L 2495.00 1091.00 L 2475.00 1051.00 Z" />
<path id="csg562-040-04" fill="none" stroke="black" stroke-width="1" d="M 1135.00 1161.00 L 1115.00 1163.00 L 1095.00 1179.00 L 1075.00 1178.00 L 955.00 1178.00 L 935.00 1177.00 L 872.30 1177.00 L 877.11 1298.00 L 895.00 1298.00 L 915.00 1278.00 L 935.00 1279.00 L 955.00 1279.00 L 975.00 1299.00 L 1055.00 1299.00 L 1075.00 1300.00 L 1195.00 1300.00 L 1215.00 1301.00 L 1335.00 1301.00 L 1355.00 1302.00 L 1475.00 1302.00 L 1495.00 1303.00 L 1615.00 1303.00 L 1635.00 1304.00 L 1755.00 1304.00 L 1775.00 1305.00 L 1895.00 1305.00 L 1915.00 1306.00 L 2015.00 1306.00 L 2035.00 1307.00 L 2155.00 1307.00 L 2175.00 1308.00 L 2295.00 1308.00 L 2315.00 1309.00 L 2435.00 1309.00 L 2455.00 1310.00 L 2575.00 1310.00 L 2595.00 1311.00 L 2715.00 1311.00 L 2735.00 1312.00 L 2758.05 1312.00 L 2784.00 1203.00 L 2859.60 1191.00 L 2795.00 1191.00 L 2775.00 1190.00 L 2655.00 1190.00 L 2635.00 1189.00 L 2495.00 1189.00 L 2475.00 1188.00 L 2355.00 1188.00 L 2335.00 1187.00 L 2215.00 1187.00 L 2195.00 1186.00 L 2075.00 1186.00 L 2055.00 1185.00 L 1935.00 1185.00 L 1915.00 1184.00 L 1795.00 1184.00 L 1775.00 1183.00 L 1655.00 1183.00 L 1635.00 1182.00 L 1515.00 1182.00 L 1495.00 1181.00 L 1375.00 1181.00 L 1355.00 1180.00 L 1235.00 1180.00 L 1215.00 1179.00 L 1155.00 1179.00 L 1135.00 1161.00 Z" />
<path id="csg562-040-05" fill="none" stroke="black" stroke-width="1" d="M 915.00 1278.00 L 895.00 1298.00 L 877.11 1298.00 L 881.25 1402.00 L 895.00 1402.00 L 915.00 1403.00 L 935.00 1403.00 L 955.00 1383.00 L 975.00 1403.00 L 995.00 1403.00 L 1015.00 1404.00 L 1095.00 1404.00 L 1115.00 1405.00 L 1195.00 1405.00 L 1215.00 1406.00 L 1315.00 1406.00 L 1335.00 1407.00 L 1415.00 1407.00 L 1435.00 1408.00 L 1515.00 1408.00 L 1535.00 1409.00 L 1615.00 1409.00 L 1635.00 1410.00 L 1715.00 1410.00 L 1735.00 1411.00 L 1835.00 1411.00 L 1855.00 1412.00 L 1935.00 1412.00 L 1955.00 1413.00 L 2035.00 1413.00 L 2055.00 1414.00 L 2135.00 1414.00 L 2155.00 1415.00 L 2255.00 1415.00 L 2275.00 1416.00 L 2355.00 1416.00 L 2375.00 1417.00 L 2455.00 1417.00 L 2475.00 1398.00 L 2495.00 1398.00 L 2515.00 1418.00 L 2555.00 1418.00 L 2575.00 1419.00 L 2655.00 1419.00 L 2675.00 1420.00 L 2775.00 1420.00 L 2795.00 1421.00 L 2875.00 1421.00 L 2895.00 1422.00 L 2931.78 1422.00 L 2993.97 1311.97 L 2975.00 1293.00 L 2955.00 1293.00 L 2935.00 1313.00 L 2875.00 1313.00 L 2855.00 1312.00 L 2808.78 1312.00 L 2754.00 1329.00 L 2758.05 1312.00 L 2735.00 1312.00 L 2715.00 1311.00 L 2595.00 1311.00 L 2575.00 1310.00 L 2455.00 1310.00 L 2435.00 1309.00 L 2315.00 1309.00 L 2295.00 1308.00 L 2175.00 1308.00 L 2155.00 1307.00 L 2035.00 1307.00 L 2015.00 1306.00 L 1915.00 1306.00 L 1895.00 1305.00 L 1775.00 1305.00 L 1755.00 1304.00 L 1635.00 1304.00 L 1615.00 1303.00 L 1495.00 1303.00 L 1475.00 1302.00 L 1355.00 1302.00 L 1335.00 1301.00 L 1215.00 1301.00 L 1195.00 1300.00 L 1075.00 1300.00 L 1055.00 1299.00 L 975.00 1299.00 L 955.00 1279.00 L 935.00 1279.00 L 915.00 1278.00 Z" />
<path id="csg562-040-06" fill="none" stroke="black" stroke-width="1" d="M 955.00 1383.00 L 935.00 1403.00 L 915.00 1403.00 L 895.00 1402.00 L 881.25 1402.00 L 886.29 1529.00 L 895.00 1529.00 L 915.00 1530.00 L 1015.00 1530.00 L 1035.00 1531.00 L 1135.00 1531.00 L 1155.00 1532.00 L 1255.00 1532.00 L 1275.00 1533.00 L 1375.00 1533.00 L 1395.00 1534.00 L 1495.00 1534.00 L 1515.00 1535.00 L 1615.00 1535.00 L 1635.00 1536.00 L 1735.00 1536.00 L 1755.00 1537.00 L 1855.00 1537.00 L 1875.00 1538.00 L 1975.00 1538.00 L 1995.00 1539.00 L 2095.00 1539.00 L 2115.00 1540.00 L 2215.00 1540.00 L 2235.00 1541.00 L 2335.00 1541.00 L 2355.00 1542.00 L 2435.00 1542.00 L 2455.00 1543.00 L 2555.00 1543.00 L 2575.00 1544.00 L 2675.00 1544.00 L 2695.00 1545.00 L 2795.00 1545.00 L 2815.00 1546.00 L 2915.00 1546.00 L 2935.00 1547.00 L 2940.95 1547.00 L 2925.00 1434.00 L 2931.78 1422.00 L 2895.00 1422.00 L 2875.00 1421.00 L 2795.00 1421.00 L 2775.00 1420.00 L 2675.00 1420.00 L 2655.00 1419.00 L 2575.00 1419.00 L 2555.00 1418.00 L 2515.00 1418.00 L 2495.00 1398.00 L 2475.00 1398.00 L 2455.00 1417.00 L 2375.00 1417.00 L 2355.00 1416.00 L 2275.00 1416.00 L 2255.00 1415.00 L 2155.00 1415.00 L 2135.00 1414.00 L 2055.00 1414.00 L 2035.00 1413.00 L 1955.00 1413.00 L 1935.00 1412.00 L 1855.00 1412.00 L 1835.00 1411.00 L 1735.00 1411.00 L 1715.00 1410.00 L 1635.00 1410.00 L 1615.00 1409.00 L 1535.00 1409.00 L 1515.00 1408.00 L 1435.00 1408.00 L 1415.00 1407.00 L 1335.00 1407.00 L 1315.00 1406.00 L 1215.00 1406.00 L 1195.00 1405.00 L 1115.00 1405.00 L 1095.00 1404.00 L 1015.00 1404.00 L 995.00 1403.00 L 975.00 1403.00 L 955.00 1383.00 Z" />
<path id="csg562-040-07" fill="none" stroke="black" stroke-width="1" d="M 886.29 1529.00 L 888.00 1572.00 L 886.85 1637.00 L 955.00 1637.00 L 975.00 1638.00 L 1115.00 1638.00 L 1135.00 1639.00 L 1275.00 1639.00 L 1295.00 1640.00 L 1455.00 1640.00 L 1475.00 1641.00 L 1615.00 1641.00 L 1635.00 1642.00 L 1775.00 1642.00 L 1795.00 1643.00 L 1955.00 1643.00 L 1975.00 1644.00 L 2115.00 1644.00 L 2135.00 1645.00 L 2275.00 1645.00 L 2295.00 1646.00 L 2455.00 1646.00 L 2475.00 1647.00 L 2615.00 1647.00 L 2635.00 1648.00 L 2775.00 1648.00 L 2795.00 1649.00 L 2955.00 1649.00 L 2955.36 1649.02 L 2940.95 1547.00 L 2935.00 1547.00 L 2915.00 1546.00 L 2815.00 1546.00 L 2795.00 1545.00 L 2695.00 1545.00 L 2675.00 1544.00 L 2575.00 1544.00 L 2555.00 1543.00 L 2455.00 1543.00 L 2435.00 1542.00 L 2355.00 1542.00 L 2335.00 1541.00 L 2235.00 1541.00 L 2215.00 1540.00 L 2115.00 1540.00 L 2095.00 1539.00 L 1995.00 1539.00 L 1975.00 1538.00 L 1875.00 1538.00 L 1855.00 1537.00 L 1755.00 1537.00 L 1735.00 1536.00 L 1635.00 1536.00 L 1615.00 1535.00 L 1515.00 1535.00 L 1495.00 1534.00 L 1395.00 1534.00 L 1375.00 1533.00 L 1275.00 1533.00 L 1255.00 1532.00 L 1155.00 1532.00 L 1135.00 1531.00 L 1035.00 1531.00 L 1015.00 1530.00 L 915.00 1530.00 L 895.00 1529.00 Z" />
<path id="csg562-040-08" fill="none" stroke="black" stroke-width="1" d="M 886.85 1637.00 L 884.87 1749.49 L 895.00 1750.00 L 915.00 1750.00 L 935.00 1730.00 L 975.00 1730.00 L 995.00 1751.00 L 1075.00 1751.00 L 1095.00 1752.00 L 1175.00 1752.00 L 1195.00 1753.00 L 1275.00 1753.00 L 1295.00 1754.00 L 1375.00 1754.00 L 1395.00 1755.00 L 1475.00 1755.00 L 1495.00 1756.00 L 1575.00 1756.00 L 1595.00 1757.00 L 1675.00 1757.00 L 1695.00 1758.00 L 1775.00 1758.00 L 1795.00 1759.00 L 1875.00 1759.00 L 1895.00 1760.00 L 1975.00 1760.00 L 1995.00 1761.00 L 2075.00 1761.00 L 2095.00 1762.00 L 2175.00 1762.00 L 2195.00 1763.00 L 2275.00 1763.00 L 2295.00 1764.00 L 2375.00 1764.00 L 2395.00 1765.00 L 2475.00 1765.00 L 2495.00 1766.00 L 2575.00 1766.00 L 2595.00 1767.00 L 2675.00 1767.00 L 2695.00 1768.00 L 2775.00 1768.00 L 2795.00 1769.00 L 2875.00 1769.00 L 2895.00 1770.00 L 2910.21 1770.00 L 2907.00 1764.00 L 2961.00 1689.00 L 2955.36 1649.02 L 2955.00 1649.00 L 2795.00 1649.00 L 2775.00 1648.00 L 2635.00 1648.00 L 2615.00 1647.00 L 2475.00 1647.00 L 2455.00 1646.00 L 2295.00 1646.00 L 2275.00 1645.00 L 2135.00 1645.00 L 2115.00 1644.00 L 1975.00 1644.00 L 1955.00 1643.00 L 1795.00 1643.00 L 1775.00 1642.00 L 1635.00 1642.00 L 1615.00 1641.00 L 1475.00 1641.00 L 1455.00 1640.00 L 1295.00 1640.00 L 1275.00 1639.00 L 1135.00 1639.00 L 1115.00 1638.00 L 975.00 1638.00 L 955.00 1637.00 Z" />
<path id="csg562-040-09" fill="none" stroke="black" stroke-width="1" d="M 935.00 1730.00 L 915.00 1750.00 L 895.00 1750.00 L 884.87 1749.49 L 882.95 1858.00 L 915.00 1858.00 L 935.00 1859.00 L 975.00 1859.00 L 995.00 1860.00 L 1055.00 1860.00 L 1075.00 1861.00 L 1115.00 1861.00 L 1135.00 1862.00 L 1175.00 1862.00 L 1195.00 1863.00 L 1235.00 1863.00 L 1255.00 1864.00 L 1315.00 1864.00 L 1335.00 1865.00 L 1375.00 1865.00 L 1395.00 1866.00 L 1435.00 1866.00 L 1455.00 1867.00 L 1495.00 1867.00 L 1515.00 1868.00 L 1575.00 1868.00 L 1595.00 1869.00 L 1635.00 1869.00 L 1655.00 1870.00 L 1695.00 1870.00 L 1715.00 1871.00 L 1755.00 1871.00 L 1775.00 1872.00 L 1835.00 1872.00 L 1855.00 1873.00 L 1895.00 1873.00 L 1915.00 1874.00 L 1955.00 1874.00 L 1975.00 1875.00 L 2035.00 1875.00 L 2055.00 1876.00 L 2095.00 1876.00 L 2115.00 1877.00 L 2155.00 1877.00 L 2175.00 1878.00 L 2215.00 1878.00 L 2235.00 1879.00 L 2295.00 1879.00 L 2315.00 1880.00 L 2355.00 1880.00 L 2375.00 1881.00 L 2415.00 1881.00 L 2435.00 1882.00 L 2475.00 1882.00 L 2495.00 1883.00 L 2555.00 1883.00 L 2575.00 1884.00 L 2615.00 1884.00 L 2635.00 1885.00 L 2675.00 1885.00 L 2695.00 1886.00 L 2735.00 1886.00 L 2755.00 1887.00 L 2815.00 1887.00 L 2835.00 1888.00 L 2875.00 1888.00 L 2895.00 1889.00 L 2935.00 1889.00 L 2955.00 1890.00 L 2974.50 1890.00 L 2910.21 1770.00 L 2895.00 1770.00 L 2875.00 1769.00 L 2795.00 1769.00 L 2775.00 1768.00 L 2695.00 1768.00 L 2675.00 1767.00 L 2595.00 1767.00 L 2575.00 1766.00 L 2495.00 1766.00 L 2475.00 1765.00 L 2395.00 1765.00 L 2375.00 1764.00 L 2295.00 1764.00 L 2275.00 1763.00 L 2195.00 1763.00 L 2175.00 1762.00 L 2095.00 1762.00 L 2075.00 1761.00 L 1995.00 1761.00 L 1975.00 1760.00 L 1895.00 1760.00 L 1875.00 1759.00 L 1795.00 1759.00 L 1775.00 1758.00 L 1695.00 1758.00 L 1675.00 1757.00 L 1595.00 1757.00 L 1575.00 1756.00 L 1495.00 1756.00 L 1475.00 1755.00 L 1395.00 1755.00 L 1375.00 1754.00 L 1295.00 1754.00 L 1275.00 1753.00 L 1195.00 1753.00 L 1175.00 1752.00 L 1095.00 1752.00 L 1075.00 1751.00 L 995.00 1751.00 L 975.00 1730.00 Z" />
<path id="csg562-040-10" fill="none" stroke="black" stroke-width="1" d="M 882.95 1858.00 L 881.46 1942.87 L 895.00 1930.00 L 915.00 1930.00 L 935.00 1970.00 L 975.00 1970.00 L 995.00 1971.00 L 1055.00 1971.00 L 1075.00 1972.00 L 1155.00 1972.00 L 1175.00 1973.00 L 1255.00 1973.00 L 1275.00 1974.00 L 1335.00 1974.00 L 1355.00 1975.00 L 1435.00 1975.00 L 1455.00 1976.00 L 1515.00 1976.00 L 1535.00 1977.00 L 1615.00 1977.00 L 1635.00 1978.00 L 1715.00 1978.00 L 1735.00 1979.00 L 1795.00 1979.00 L 1815.00 1980.00 L 1895.00 1980.00 L 1915.00 1981.00 L 1975.00 1981.00 L 1995.00 1982.00 L 2075.00 1982.00 L 2095.00 1983.00 L 2175.00 1983.00 L 2195.00 1984.00 L 2255.00 1984.00 L 2275.00 1985.00 L 2355.00 1985.00 L 2375.00 1986.00 L 2455.00 1986.00 L 2475.00 1987.00 L 2535.00 1987.00 L 2555.00 1988.00 L 2635.00 1988.00 L 2655.00 1989.00 L 2715.00 1989.00 L 2735.00 1990.00 L 2815.00 1990.00 L 2835.00 1991.00 L 2915.00 1991.00 L 2935.00 1992.00 L 2977.95 1992.00 L 2997.00 1932.00 L 2974.50 1890.00 L 2955.00 1890.00 L 2935.00 1889.00 L 2895.00 1889.00 L 2875.00 1888.00 L 2835.00 1888.00 L 2815.00 1887.00 L 2755.00 1887.00 L 2735.00 1886.00 L 2695.00 1886.00 L 2675.00 1885.00 L 2635.00 1885.00 L 2615.00 1884.00 L 2575.00 1884.00 L 2555.00 1883.00 L 2495.00 1883.00 L 2475.00 1882.00 L 2435.00 1882.00 L 2415.00 1881.00 L 2375.00 1881.00 L 2355.00 1880.00 L 2315.00 1880.00 L 2295.00 1879.00 L 2235.00 1879.00 L 2215.00 1878.00 L 2175.00 1878.00 L 2155.00 1877.00 L 2115.00 1877.00 L 2095.00 1876.00 L 2055.00 1876.00 L 2035.00 1875.00 L 1975.00 1875.00 L 1955.00 1874.00 L 1915.00 1874.00 L 1895.00 1873.00 L 1855.00 1873.00 L 1835.00 1872.00 L 1775.00 1872.00 L 1755.00 1871.00 L 1715.00 1871.00 L 1695.00 1870.00 L 1655.00 1870.00 L 1635.00 1869.00 L 1595.00 1869.00 L 1575.00 1868.00 L 1515.00 1868.00 L 1495.00 1867.00 L 1455.00 1867.00 L 1435.00 1866.00 L 1395.00 1866.00 L 1375.00 1865.00 L 1335.00 1865.00 L 1315.00 1864.00 L 1255.00 1864.00 L 1235.00 1863.00 L 1195.00 1863.00 L 1175.00 1862.00 L 1135.00 1862.00 L 1115.00 1861.00 L 1075.00 1861.00 L 1055.00 1860.00 L 995.00 1860.00 L 975.00 1859.00 L 935.00 1859.00 L 915.00 1858.00 Z" />
<path id="csg562-040-11" fill="none" stroke="black" stroke-width="1" d="M 895.00 1930.00 L 881.46 1942.87 L 879.21 2070.21 L 895.00 2071.00 L 955.00 2071.00 L 975.00 2072.00 L 1055.00 2072.00 L 1075.00 2073.00 L 1135.00 2073.00 L 1155.00 2074.00 L 1215.00 2074.00 L 1235.00 2075.00 L 1315.00 2075.00 L 1335.00 2076.00 L 1395.00 2076.00 L 1415.00 2077.00 L 1495.00 2077.00 L 1515.00 2078.00 L 1575.00 2078.00 L 1595.00 2079.00 L 1655.00 2079.00 L 1675.00 2080.00 L 1755.00 2080.00 L 1775.00 2081.00 L 1835.00 2081.00 L 1855.00 2082.00 L 1935.00 2082.00 L 1955.00 2083.00 L 2015.00 2083.00 L 2035.00 2084.00 L 2095.00 2084.00 L 2115.00 2085.00 L 2195.00 2085.00 L 2215.00 2086.00 L 2275.00 2086.00 L 2295.00 2087.00 L 2375.00 2087.00 L 2395.00 2088.00 L 2455.00 2088.00 L 2475.00 2089.00 L 2535.00 2089.00 L 2555.00 2090.00 L 2635.00 2090.00 L 2655.00 2091.00 L 2715.00 2091.00 L 2735.00 2092.00 L 2815.00 2092.00 L 2835.00 2093.00 L 2895.00 2093.00 L 2915.00 2094.00 L 2945.57 2094.00 L 2977.95 1992.00 L 2935.00 1992.00 L 2915.00 1991.00 L 2835.00 1991.00 L 2815.00 1990.00 L 2735.00 1990.00 L 2715.00 1989.00 L 2655.00 1989.00 L 2635.00 1988.00 L 2555.00 1988.00 L 2535.00 1987.00 L 2475.00 1987.00 L 2455.00 1986.00 L 2375.00 1986.00 L 2355.00 1985.00 L 2275.00 1985.00 L 2255.00 1984.00 L 2195.00 1984.00 L 2175.00 1983.00 L 2095.00 1983.00 L 2075.00 1982.00 L 1995.00 1982.00 L 1975.00 1981.00 L 1915.00 1981.00 L 1895.00 1980.00 L 1815.00 1980.00 L 1795.00 1979.00 L 1735.00 1979.00 L 1715.00 1978.00 L 1635.00 1978.00 L 1615.00 1977.00 L 1535.00 1977.00 L 1515.00 1976.00 L 1455.00 1976.00 L 1435.00 1975.00 L 1355.00 1975.00 L 1335.00 1974.00 L 1275.00 1974.00 L 1255.00 1973.00 L 1175.00 1973.00 L 1155.00 1972.00 L 1075.00 1972.00 L 1055.00 1971.00 L 995.00 1971.00 L 975.00 1970.00 L 935.00 1970.00 L 915.00 1930.00 Z" />
<path id="csg562-040-12" fill="none" stroke="black" stroke-width="1" d="M 879.21 2070.21 L 879.00 2082.00 L 881.33 2192.32 L 895.00 2193.00 L 955.00 2193.00 L 975.00 2194.00 L 1035.00 2194.00 L 1055.00 2195.00 L 1135.00 2195.00 L 1155.00 2196.00 L 1215.00 2196.00 L 1235.00 2197.00 L 1295.00 2197.00 L 1315.00 2198.00 L 1395.00 2198.00 L 1415.00 2199.00 L 1475.00 2199.00 L 1495.00 2200.00 L 1555.00 2200.00 L 1575.00 2201.00 L 1655.00 2201.00 L 1675.00 2202.00 L 1735.00 2202.00 L 1755.00 2203.00 L 1815.00 2203.00 L 1835.00 2204.00 L 1915.00 2204.00 L 1935.00 2205.00 L 1995.00 2205.00 L 2015.00 2206.00 L 2075.00 2206.00 L 2095.00 2207.00 L 2175.00 2207.00 L 2195.00 2208.00 L 2255.00 2208.00 L 2275.00 2209.00 L 2335.00 2209.00 L 2355.00 2210.00 L 2435.00 2210.00 L 2455.00 2211.00 L 2515.00 2211.00 L 2535.00 2212.00 L 2595.00 2212.00 L 2615.00 2213.00 L 2695.00 2213.00 L 2715.00 2214.00 L 2775.00 2214.00 L 2795.00 2215.00 L 2855.00 2215.00 L 2875.00 2216.00 L 2946.19 2216.00 L 2937.00 2121.00 L 2945.57 2094.00 L 2915.00 2094.00 L 2895.00 2093.00 L 2835.00 2093.00 L 2815.00 2092.00 L 2735.00 2092.00 L 2715.00 2091.00 L 2655.00 2091.00 L 2635.00 2090.00 L 2555.00 2090.00 L 2535.00 2089.00 L 2475.00 2089.00 L 2455.00 2088.00 L 2395.00 2088.00 L 2375.00 2087.00 L 2295.00 2087.00 L 2275.00 2086.00 L 2215.00 2086.00 L 2195.00 2085.00 L 2115.00 2085.00 L 2095.00 2084.00 L 2035.00 2084.00 L 2015.00 2083.00 L 1955.00 2083.00 L 1935.00 2082.00 L 1855.00 2082.00 L 1835.00 2081.00 L 1775.00 2081.00 L 1755.00 2080.00 L 1675.00 2080.00 L 1655.00 2079.00 L 1595.00 2079.00 L 1575.00 2078.00 L 1515.00 2078.00 L 1495.00 2077.00 L 1415.00 2077.00 L 1395.00 2076.00 L 1335.00 2076.00 L 1315.00 2075.00 L 1235.00 2075.00 L 1215.00 2074.00 L 1155.00 2074.00 L 1135.00 2073.00 L 1075.00 2073.00 L 1055.00 2072.00 L 975.00 2072.00 L 955.00 2071.00 L 895.00 2071.00 L 879.21 2070.21 Z" />
<path id="csg562-040-13" fill="none" stroke="black" stroke-width="1" d="M 881.33 2192.32 L 883.63 2301.00 L 915.00 2301.00 L 935.00 2302.00 L 995.00 2302.00 L 1015.00 2303.00 L 1055.00 2303.00 L 1075.00 2304.00 L 1115.00 2304.00 L 1135.00 2305.00 L 1195.00 2305.00 L 1215.00 2306.00 L 1255.00 2306.00 L 1275.00 2307.00 L 1315.00 2307.00 L 1335.00 2308.00 L 1395.00 2308.00 L 1415.00 2309.00 L 1455.00 2309.00 L 1475.00 2310.00 L 1495.00 2310.00 L 1515.00 2290.00 L 1535.00 2311.00 L 1555.00 2291.00 L 1575.00 2311.00 L 1595.00 2311.00 L 1615.00 2312.00 L 1655.00 2312.00 L 1675.00 2313.00 L 1715.00 2313.00 L 1735.00 2314.00 L 1795.00 2314.00 L 1815.00 2315.00 L 1855.00 2315.00 L 1875.00 2316.00 L 1915.00 2316.00 L 1935.00 2317.00 L 1995.00 2317.00 L 2015.00 2318.00 L 2055.00 2318.00 L 2075.00 2319.00 L 2115.00 2319.00 L 2135.00 2320.00 L 2195.00 2320.00 L 2215.00 2321.00 L 2255.00 2321.00 L 2275.00 2322.00 L 2315.00 2322.00 L 2335.00 2323.00 L 2395.00 2323.00 L 2415.00 2324.00 L 2455.00 2324.00 L 2475.00 2325.00 L 2535.00 2325.00 L 2555.00 2326.00 L 2595.00 2326.00 L 2615.00 2327.00 L 2655.00 2327.00 L 2675.00 2328.00 L 2735.00 2328.00 L 2755.00 2329.00 L 2795.00 2329.00 L 2815.00 2330.00 L 2855.00 2330.00 L 2875.00 2331.00 L 2935.00 2331.00 L 2955.00 2332.00 L 2957.42 2332.00 L 2946.19 2216.00 L 2875.00 2216.00 L 2855.00 2215.00 L 2795.00 2215.00 L 2775.00 2214.00 L 2715.00 2214.00 L 2695.00 2213.00 L 2615.00 2213.00 L 2595.00 2212.00 L 2535.00 2212.00 L 2515.00 2211.00 L 2455.00 2211.00 L 2435.00 2210.00 L 2355.00 2210.00 L 2335.00 2209.00 L 2275.00 2209.00 L 2255.00 2208.00 L 2195.00 2208.00 L 2175.00 2207.00 L 2095.00 2207.00 L 2075.00 2206.00 L 2015.00 2206.00 L 1995.00 2205.00 L 1935.00 2205.00 L 1915.00 2204.00 L 1835.00 2204.00 L 1815.00 2203.00 L 1755.00 2203.00 L 1735.00 2202.00 L 1675.00 2202.00 L 1655.00 2201.00 L 1575.00 2201.00 L 1555.00 2200.00 L 1495.00 2200.00 L 1475.00 2199.00 L 1415.00 2199.00 L 1395.00 2198.00 L 1315.00 2198.00 L 1295.00 2197.00 L 1235.00 2197.00 L 1215.00 2196.00 L 1155.00 2196.00 L 1135.00 2195.00 L 1055.00 2195.00 L 1035.00 2194.00 L 975.00 2194.00 L 955.00 2193.00 L 895.00 2193.00 L 881.33 2192.32 Z" />
<path id="csg562-040-14" fill="none" stroke="black" stroke-width="1" d="M 1515.00 2290.00 L 1495.00 2310.00 L 1475.00 2310.00 L 1455.00 2309.00 L 1415.00 2309.00 L 1395.00 2308.00 L 1335.00 2308.00 L 1315.00 2307.00 L 1275.00 2307.00 L 1255.00 2306.00 L 1215.00 2306.00 L 1195.00 2305.00 L 1135.00 2305.00 L 1115.00 2304.00 L 1075.00 2304.00 L 1055.00 2303.00 L 1015.00 2303.00 L 995.00 2302.00 L 935.00 2302.00 L 915.00 2301.00 L 883.63 2301.00 L 885.98 2412.55 L 895.00 2413.00 L 955.00 2413.00 L 975.00 2414.00 L 1035.00 2414.00 L 1055.00 2415.00 L 1135.00 2415.00 L 1155.00 2416.00 L 1215.00 2416.00 L 1235.00 2417.00 L 1295.00 2417.00 L 1315.00 2418.00 L 1395.00 2418.00 L 1415.00 2419.00 L 1475.00 2419.00 L 1495.00 2420.00 L 1555.00 2420.00 L 1575.00 2421.00 L 1635.00 2421.00 L 1655.00 2422.00 L 1735.00 2422.00 L 1755.00 2423.00 L 1815.00 2423.00 L 1835.00 2424.00 L 1895.00 2424.00 L 1915.00 2425.00 L 1995.00 2425.00 L 2015.00 2426.00 L 2075.00 2426.00 L 2095.00 2427.00 L 2155.00 2427.00 L 2175.00 2428.00 L 2235.00 2428.00 L 2255.00 2429.00 L 2335.00 2429.00 L 2355.00 2430.00 L 2415.00 2430.00 L 2435.00 2431.00 L 2495.00 2431.00 L 2515.00 2432.00 L 2595.00 2432.00 L 2615.00 2433.00 L 2675.00 2433.00 L 2695.00 2434.00 L 2755.00 2434.00 L 2775.00 2435.00 L 2855.00 2435.00 L 2875.00 2436.00 L 2901.60 2436.00 L 2964.00 2400.00 L 2957.42 2332.00 L 2955.00 2332.00 L 2935.00 2331.00 L 2875.00 2331.00 L 2855.00 2330.00 L 2815.00 2330.00 L 2795.00 2329.00 L 2755.00 2329.00 L 2735.00 2328.00 L 2675.00 2328.00 L 2655.00 2327.00 L 2615.00 2327.00 L 2595.00 2326.00 L 2555.00 2326.00 L 2535.00 2325.00 L 2475.00 2325.00 L 2455.00 2324.00 L 2415.00 2324.00 L 2395.00 2323.00 L 2335.00 2323.00 L 2315.00 2322.00 L 2275.00 2322.00 L 2255.00 2321.00 L 2215.00 2321.00 L 2195.00 2320.00 L 2135.00 2320.00 L 2115.00 2319.00 L 2075.00 2319.00 L 2055.00 2318.00 L 2015.00 2318.00 L 1995.00 2317.00 L 1935.00 2317.00 L 1915.00 2316.00 L 1875.00 2316.00 L 1855.00 2315.00 L 1815.00 2315.00 L 1795.00 2314.00 L 1735.00 2314.00 L 1715.00 2313.00 L 1675.00 2313.00 L 1655.00 2312.00 L 1615.00 2312.00 L 1595.00 2311.00 L 1575.00 2311.00 L 1555.00 2291.00 L 1535.00 2311.00 L 1515.00 2290.00 Z" />
<path id="csg562-040-15" fill="none" stroke="black" stroke-width="1" d="M 885.98 2412.55 L 888.00 2508.00 L 865.66 2519.53 L 875.00 2520.00 L 935.00 2520.00 L 955.00 2521.00 L 995.00 2521.00 L 1015.00 2522.00 L 1075.00 2522.00 L 1095.00 2523.00 L 1155.00 2523.00 L 1175.00 2524.00 L 1215.00 2524.00 L 1235.00 2525.00 L 1295.00 2525.00 L 1315.00 2526.00 L 1375.00 2526.00 L 1395.00 2527.00 L 1435.00 2527.00 L 1455.00 2528.00 L 1515.00 2528.00 L 1535.00 2529.00 L 1595.00 2529.00 L 1615.00 2530.00 L 1655.00 2530.00 L 1675.00 2531.00 L 1735.00 2531.00 L 1755.00 2532.00 L 1795.00 2532.00 L 1815.00 2533.00 L 1875.00 2533.00 L 1895.00 2534.00 L 1955.00 2534.00 L 1975.00 2535.00 L 2015.00 2535.00 L 2035.00 2536.00 L 2095.00 2536.00 L 2115.00 2537.00 L 2175.00 2537.00 L 2195.00 2538.00 L 2235.00 2538.00 L 2255.00 2539.00 L 2315.00 2539.00 L 2335.00 2540.00 L 2395.00 2540.00 L 2415.00 2541.00 L 2455.00 2541.00 L 2475.00 2542.00 L 2535.00 2542.00 L 2555.00 2543.00 L 2595.00 2543.00 L 2615.00 2544.00 L 2675.00 2544.00 L 2695.00 2545.00 L 2755.00 2545.00 L 2775.00 2546.00 L 2815.00 2546.00 L 2835.00 2547.00 L 2895.00 2547.00 L 2915.00 2548.00 L 2952.88 2548.00 L 2886.00 2445.00 L 2901.60 2436.00 L 2875.00 2436.00 L 2855.00 2435.00 L 2775.00 2435.00 L 2755.00 2434.00 L 2695.00 2434.00 L 2675.00 2433.00 L 2615.00 2433.00 L 2595.00 2432.00 L 2515.00 2432.00 L 2495.00 2431.00 L 2435.00 2431.00 L 2415.00 2430.00 L 2355.00 2430.00 L 2335.00 2429.00 L 2255.00 2429.00 L 2235.00 2428.00 L 2175.00 2428.00 L 2155.00 2427.00 L 2095.00 2427.00 L 2075.00 2426.00 L 2015.00 2426.00 L 1995.00 2425.00 L 1915.00 2425.00 L 1895.00 2424.00 L 1835.00 2424.00 L 1815.00 2423.00 L 1755.00 2423.00 L 1735.00 2422.00 L 1655.00 2422.00 L 1635.00 2421.00 L 1575.00 2421.00 L 1555.00 2420.00 L 1495.00 2420.00 L 1475.00 2419.00 L 1415.00 2419.00 L 1395.00 2418.00 L 1315.00 2418.00 L 1295.00 2417.00 L 1235.00 2417.00 L 1215.00 2416.00 L 1155.00 2416.00 L 1135.00 2415.00 L 1055.00 2415.00 L 1035.00 2414.00 L 975.00 2414.00 L 955.00 2413.00 L 895.00 2413.00 L 885.98 2412.55 Z" />
<path id="csg562-040-16" fill="none" stroke="black" stroke-width="1" d="M 865.66 2519.53 L 795.00 2556.00 L 861.00 2610.00 L 861.69 2632.33 L 875.00 2633.00 L 915.00 2633.00 L 935.00 2634.00 L 975.00 2634.00 L 995.00 2635.00 L 1035.00 2635.00 L 1055.00 2636.00 L 1095.00 2636.00 L 1115.00 2637.00 L 1175.00 2637.00 L 1195.00 2638.00 L 1235.00 2638.00 L 1255.00 2639.00 L 1295.00 2639.00 L 1315.00 2640.00 L 1355.00 2640.00 L 1375.00 2641.00 L 1415.00 2641.00 L 1435.00 2642.00 L 1495.00 2642.00 L 1515.00 2643.00 L 1555.00 2643.00 L 1575.00 2644.00 L 1615.00 2644.00 L 1635.00 2645.00 L 1675.00 2645.00 L 1695.00 2646.00 L 1735.00 2646.00 L 1755.00 2647.00 L 1815.00 2647.00 L 1835.00 2648.00 L 1875.00 2648.00 L 1895.00 2649.00 L 1935.00 2649.00 L 1955.00 2650.00 L 1995.00 2650.00 L 2015.00 2651.00 L 2055.00 2651.00 L 2075.00 2652.00 L 2115.00 2652.00 L 2135.00 2653.00 L 2195.00 2653.00 L 2215.00 2654.00 L 2255.00 2654.00 L 2275.00 2655.00 L 2315.00 2655.00 L 2335.00 2656.00 L 2375.00 2656.00 L 2395.00 2657.00 L 2435.00 2657.00 L 2455.00 2658.00 L 2515.00 2658.00 L 2535.00 2659.00 L 2575.00 2659.00 L 2595.00 2660.00 L 2635.00 2660.00 L 2655.00 2661.00 L 2695.00 2661.00 L 2715.00 2662.00 L 2755.00 2662.00 L 2775.00 2663.00 L 2835.00 2663.00 L 2855.00 2664.00 L 2895.00 2664.00 L 2915.00 2665.00 L 2955.00 2665.00 L 2975.00 2666.00 L 3015.00 2666.00 L 3029.99 2666.75 L 2952.88 2548.00 L 2915.00 2548.00 L 2895.00 2547.00 L 2835.00 2547.00 L 2815.00 2546.00 L 2775.00 2546.00 L 2755.00 2545.00 L 2695.00 2545.00 L 2675.00 2544.00 L 2615.00 2544.00 L 2595.00 2543.00 L 2555.00 2543.00 L 2535.00 2542.00 L 2475.00 2542.00 L 2455.00 2541.00 L 2415.00 2541.00 L 2395.00 2540.00 L 2335.00 2540.00 L 2315.00 2539.00 L 2255.00 2539.00 L 2235.00 2538.00 L 2195.00 2538.00 L 2175.00 2537.00 L 2115.00 2537.00 L 2095.00 2536.00 L 2035.00 2536.00 L 2015.00 2535.00 L 1975.00 2535.00 L 1955.00 2534.00 L 1895.00 2534.00 L 1875.00 2533.00 L 1815.00 2533.00 L 1795.00 2532.00 L 1755.00 2532.00 L 1735.00 2531.00 L 1675.00 2531.00 L 1655.00 2530.00 L 1615.00 2530.00 L 1595.00 2529.00 L 1535.00 2529.00 L 1515.00 2528.00 L 1455.00 2528.00 L 1435.00 2527.00 L 1395.00 2527.00 L 1375.00 2526.00 L 1315.00 2526.00 L 1295.00 2525.00 L 1235.00 2525.00 L 1215.00 2524.00 L 1175.00 2524.00 L 1155.00 2523.00 L 1095.00 2523.00 L 1075.00 2522.00 L 1015.00 2522.00 L 995.00 2521.00 L 955.00 2521.00 L 935.00 2520.00 L 875.00 2520.00 L 865.66 2519.53 Z" />
<path id="csg562-040-17" fill="none" stroke="black" stroke-width="1" d="M 861.69 2632.33 L 865.18 2745.00 L 875.00 2745.00 L 895.00 2746.00 L 955.00 2746.00 L 975.00 2747.00 L 1035.00 2747.00 L 1055.00 2748.00 L 1115.00 2748.00 L 1135.00 2749.00 L 1195.00 2749.00 L 1215.00 2750.00 L 1275.00 2750.00 L 1295.00 2751.00 L 1355.00 2751.00 L 1375.00 2752.00 L 1435.00 2752.00 L 1455.00 2753.00 L 1535.00 2753.00 L 1555.00 2754.00 L 1615.00 2754.00 L 1635.00 2755.00 L 1695.00 2755.00 L 1715.00 2756.00 L 1775.00 2756.00 L 1795.00 2757.00 L 1855.00 2757.00 L 1875.00 2758.00 L 1935.00 2758.00 L 1955.00 2759.00 L 2015.00 2759.00 L 2035.00 2760.00 L 2095.00 2760.00 L 2115.00 2761.00 L 2175.00 2761.00 L 2195.00 2762.00 L 2275.00 2762.00 L 2295.00 2763.00 L 2315.00 2741.00 L 2335.00 2731.00 L 2355.00 2731.00 L 2375.00 2737.00 L 2395.00 2739.00 L 2415.00 2741.00 L 2435.00 2764.00 L 2455.00 2765.00 L 2515.00 2765.00 L 2535.00 2766.00 L 2595.00 2766.00 L 2615.00 2767.00 L 2675.00 2767.00 L 2695.00 2768.00 L 2755.00 2768.00 L 2775.00 2769.00 L 2835.00 2769.00 L 2855.00 2770.00 L 2915.00 2770.00 L 2935.00 2771.00 L 2969.24 2771.00 L 3036.00 2676.00 L 3029.99 2666.75 L 3015.00 2666.00 L 2975.00 2666.00 L 2955.00 2665.00 L 2915.00 2665.00 L 2895.00 2664.00 L 2855.00 2664.00 L 2835.00 2663.00 L 2775.00 2663.00 L 2755.00 2662.00 L 2715.00 2662.00 L 2695.00 2661.00 L 2655.00 2661.00 L 2635.00 2660.00 L 2595.00 2660.00 L 2575.00 2659.00 L 2535.00 2659.00 L 2515.00 2658.00 L 2455.00 2658.00 L 2435.00 2657.00 L 2395.00 2657.00 L 2375.00 2656.00 L 2335.00 2656.00 L 2315.00 2655.00 L 2275.00 2655.00 L 2255.00 2654.00 L 2215.00 2654.00 L 2195.00 2653.00 L 2135.00 2653.00 L 2115.00 2652.00 L 2075.00 2652.00 L 2055.00 2651.00 L 2015.00 2651.00 L 1995.00 2650.00 L 1955.00 2650.00 L 1935.00 2649.00 L 1895.00 2649.00 L 1875.00 2648.00 L 1835.00 2648.00 L 1815.00 2647.00 L 1755.00 2647.00 L 1735.00 2646.00 L 1695.00 2646.00 L 1675.00 2645.00 L 1635.00 2645.00 L 1615.00 2644.00 L 1575.00 2644.00 L 1555.00 2643.00 L 1515.00 2643.00 L 1495.00 2642.00 L 1435.00 2642.00 L 1415.00 2641.00 L 1375.00 2641.00 L 1355.00 2640.00 L 1315.00 2640.00 L 1295.00 2639.00 L 1255.00 2639.00 L 1235.00 2638.00 L 1195.00 2638.00 L 1175.00 2637.00 L 1115.00 2637.00 L 1095.00 2636.00 L 1055.00 2636.00 L 1035.00 2635.00 L 995.00 2635.00 L 975.00 2634.00 L 935.00 2634.00 L 915.00 2633.00 L 875.00 2633.00 L 861.69 2632.33 Z" />
<path id="csg562-040-18" fill="none" stroke="black" stroke-width="1" d="M 2335.00 2731.00 L 2315.00 2741.00 L 2295.00 2763.00 L 2275.00 2762.00 L 2195.00 2762.00 L 2175.00 2761.00 L 2115.00 2761.00 L 2095.00 2760.00 L 2035.00 2760.00 L 2015.00 2759.00 L 1955.00 2759.00 L 1935.00 2758.00 L 1875.00 2758.00 L 1855.00 2757.00 L 1795.00 2757.00 L 1775.00 2756.00 L 1715.00 2756.00 L 1695.00 2755.00 L 1635.00 2755.00 L 1615.00 2754.00 L 1555.00 2754.00 L 1535.00 2753.00 L 1455.00 2753.00 L 1435.00 2752.00 L 1375.00 2752.00 L 1355.00 2751.00 L 1295.00 2751.00 L 1275.00 2750.00 L 1215.00 2750.00 L 1195.00 2749.00 L 1135.00 2749.00 L 1115.00 2748.00 L 1055.00 2748.00 L 1035.00 2747.00 L 975.00 2747.00 L 955.00 2746.00 L 895.00 2746.00 L 875.00 2745.00 L 865.18 2745.00 L 868.84 2863.00 L 875.00 2863.00 L 895.00 2864.00 L 955.00 2864.00 L 975.00 2865.00 L 1035.00 2865.00 L 1055.00 2866.00 L 1115.00 2866.00 L 1135.00 2867.00 L 1195.00 2867.00 L 1215.00 2868.00 L 1275.00 2868.00 L 1295.00 2869.00 L 1375.00 2869.00 L 1395.00 2870.00 L 1455.00 2870.00 L 1475.00 2871.00 L 1535.00 2871.00 L 1555.00 2872.00 L 1615.00 2872.00 L 1635.00 2873.00 L 1695.00 2873.00 L 1715.00 2874.00 L 1775.00 2874.00 L 1795.00 2875.00 L 1875.00 2875.00 L 1895.00 2876.00 L 1955.00 2876.00 L 1975.00 2877.00 L 2035.00 2877.00 L 2055.00 2878.00 L 2115.00 2878.00 L 2135.00 2879.00 L 2195.00 2879.00 L 2215.00 2880.00 L 2275.00 2880.00 L 2295.00 2881.00 L 2375.00 2881.00 L 2395.00 2882.00 L 2455.00 2882.00 L 2475.00 2883.00 L 2535.00 2883.00 L 2555.00 2884.00 L 2615.00 2884.00 L 2635.00 2885.00 L 2695.00 2885.00 L 2715.00 2886.00 L 2775.00 2886.00 L 2795.00 2887.00 L 2855.00 2887.00 L 2875.00 2888.00 L 2955.00 2888.00 L 2975.00 2889.00 L 2986.93 2889.00 L 2958.00 2787.00 L 2969.24 2771.00 L 2935.00 2771.00 L 2915.00 2770.00 L 2855.00 2770.00 L 2835.00 2769.00 L 2775.00 2769.00 L 2755.00 2768.00 L 2695.00 2768.00 L 2675.00 2767.00 L 2615.00 2767.00 L 2595.00 2766.00 L 2535.00 2766.00 L 2515.00 2765.00 L 2455.00 2765.00 L 2435.00 2764.00 L 2415.00 2741.00 L 2395.00 2739.00 L 2375.00 2737.00 L 2355.00 2731.00 Z" />
<path id="csg562-040-19" fill="none" stroke="black" stroke-width="1" d="M 868.84 2863.00 L 871.93 2963.00 L 875.00 2963.00 L 895.00 2964.00 L 955.00 2964.00 L 975.00 2965.00 L 1035.00 2965.00 L 1055.00 2966.00 L 1115.00 2966.00 L 1135.00 2967.00 L 1195.00 2967.00 L 1215.00 2968.00 L 1275.00 2968.00 L 1295.00 2969.00 L 1355.00 2969.00 L 1375.00 2970.00 L 1435.00 2970.00 L 1455.00 2971.00 L 1535.00 2971.00 L 1555.00 2972.00 L 1575.00 2972.00 L 1595.00 2952.00 L 1615.00 2952.00 L 1635.00 2953.00 L 1655.00 2973.00 L 1695.00 2973.00 L 1715.00 2974.00 L 1775.00 2974.00 L 1795.00 2975.00 L 1855.00 2975.00 L 1875.00 2976.00 L 1935.00 2976.00 L 1955.00 2977.00 L 2015.00 2977.00 L 2035.00 2978.00 L 2095.00 2978.00 L 2115.00 2979.00 L 2175.00 2979.00 L 2195.00 2980.00 L 2275.00 2980.00 L 2295.00 2981.00 L 2355.00 2981.00 L 2375.00 2982.00 L 2435.00 2982.00 L 2455.00 2983.00 L 2515.00 2983.00 L 2535.00 2984.00 L 2595.00 2984.00 L 2615.00 2985.00 L 2675.00 2985.00 L 2695.00 2986.00 L 2755.00 2986.00 L 2775.00 2987.00 L 2835.00 2987.00 L 2855.00 2988.00 L 2915.00 2988.00 L 2935.00 2989.00 L 3014.60 2989.00 L 3015.00 2988.00 L 2986.93 2889.00 L 2975.00 2889.00 L 2955.00 2888.00 L 2875.00 2888.00 L 2855.00 2887.00 L 2795.00 2887.00 L 2775.00 2886.00 L 2715.00 2886.00 L 2695.00 2885.00 L 2635.00 2885.00 L 2615.00 2884.00 L 2555.00 2884.00 L 2535.00 2883.00 L 2475.00 2883.00 L 2455.00 2882.00 L 2395.00 2882.00 L 2375.00 2881.00 L 2295.00 2881.00 L 2275.00 2880.00 L 2215.00 2880.00 L 2195.00 2879.00 L 2135.00 2879.00 L 2115.00 2878.00 L 2055.00 2878.00 L 2035.00 2877.00 L 1975.00 2877.00 L 1955.00 2876.00 L 1895.00 2876.00 L 1875.00 2875.00 L 1795.00 2875.00 L 1775.00 2874.00 L 1715.00 2874.00 L 1695.00 2873.00 L 1635.00 2873.00 L 1615.00 2872.00 L 1555.00 2872.00 L 1535.00 2871.00 L 1475.00 2871.00 L 1455.00 2870.00 L 1395.00 2870.00 L 1375.00 2869.00 L 1295.00 2869.00 L 1275.00 2868.00 L 1215.00 2868.00 L 1195.00 2867.00 L 1135.00 2867.00 L 1115.00 2866.00 L 1055.00 2866.00 L 1035.00 2865.00 L 975.00 2865.00 L 955.00 2864.00 L 895.00 2864.00 L 875.00 2863.00 Z" />
<path id="csg562-040-20" fill="none" stroke="black" stroke-width="1" d="M 1595.00 2952.00 L 1575.00 2972.00 L 1555.00 2972.00 L 1535.00 2971.00 L 1455.00 2971.00 L 1435.00 2970.00 L 1375.00 2970.00 L 1355.00 2969.00 L 1295.00 2969.00 L 1275.00 2968.00 L 1215.00 2968.00 L 1195.00 2967.00 L 1135.00 2967.00 L 1115.00 2966.00 L 1055.00 2966.00 L 1035.00 2965.00 L 975.00 2965.00 L 955.00 2964.00 L 895.00 2964.00 L 875.00 2963.00 L 871.93 2963.00 L 875.34 3073.00 L 935.00 3073.00 L 955.00 3074.00 L 1015.00 3074.00 L 1035.00 3075.00 L 1075.00 3075.00 L 1095.00 3076.00 L 1155.00 3076.00 L 1175.00 3077.00 L 1235.00 3077.00 L 1255.00 3078.00 L 1295.00 3078.00 L 1315.00 3079.00 L 1375.00 3079.00 L 1395.00 3080.00 L 1455.00 3080.00 L 1475.00 3081.00 L 1535.00 3081.00 L 1555.00 3082.00 L 1595.00 3082.00 L 1615.00 3083.00 L 1675.00 3083.00 L 1695.00 3084.00 L 1755.00 3084.00 L 1775.00 3085.00 L 1815.00 3085.00 L 1835.00 3086.00 L 1895.00 3086.00 L 1915.00 3087.00 L 1975.00 3087.00 L 1995.00 3088.00 L 2035.00 3088.00 L 2055.00 3089.00 L 2115.00 3089.00 L 2135.00 3090.00 L 2195.00 3090.00 L 2215.00 3091.00 L 2275.00 3091.00 L 2295.00 3092.00 L 2335.00 3092.00 L 2355.00 3093.00 L 2415.00 3093.00 L 2435.00 3094.00 L 2495.00 3094.00 L 2515.00 3095.00 L 2555.00 3095.00 L 2575.00 3096.00 L 2635.00 3096.00 L 2655.00 3097.00 L 2715.00 3097.00 L 2735.00 3098.00 L 2775.00 3098.00 L 2795.00 3099.00 L 2855.00 3099.00 L 2875.00 3100.00 L 2935.00 3100.00 L 2955.00 3101.00 L 2969.80 3101.00 L 3014.60 2989.00 L 2935.00 2989.00 L 2915.00 2988.00 L 2855.00 2988.00 L 2835.00 2987.00 L 2775.00 2987.00 L 2755.00 2986.00 L 2695.00 2986.00 L 2675.00 2985.00 L 2615.00 2985.00 L 2595.00 2984.00 L 2535.00 2984.00 L 2515.00 2983.00 L 2455.00 2983.00 L 2435.00 2982.00 L 2375.00 2982.00 L 2355.00 2981.00 L 2295.00 2981.00 L 2275.00 2980.00 L 2195.00 2980.00 L 2175.00 2979.00 L 2115.00 2979.00 L 2095.00 2978.00 L 2035.00 2978.00 L 2015.00 2977.00 L 1955.00 2977.00 L 1935.00 2976.00 L 1875.00 2976.00 L 1855.00 2975.00 L 1795.00 2975.00 L 1775.00 2974.00 L 1715.00 2974.00 L 1695.00 2973.00 L 1655.00 2973.00 L 1635.00 2953.00 L 1615.00 2952.00 Z" />
<path id="csg562-040-21" fill="none" stroke="black" stroke-width="1" d="M 875.34 3073.00 L 879.00 3191.20 L 895.00 3192.00 L 955.00 3192.00 L 975.00 3193.00 L 1055.00 3193.00 L 1075.00 3194.00 L 1135.00 3194.00 L 1155.00 3195.00 L 1235.00 3195.00 L 1255.00 3196.00 L 1315.00 3196.00 L 1335.00 3197.00 L 1415.00 3197.00 L 1435.00 3198.00 L 1495.00 3198.00 L 1515.00 3199.00 L 1595.00 3199.00 L 1615.00 3200.00 L 1675.00 3200.00 L 1695.00 3201.00 L 1755.00 3201.00 L 1775.00 3202.00 L 1855.00 3202.00 L 1875.00 3203.00 L 1922.43 3203.00 L 1926.00 3192.00 L 2031.60 3204.00 L 2035.00 3204.00 L 2055.00 3205.00 L 2076.67 3205.00 L 2226.00 3189.00 L 2454.00 3195.00 L 2937.00 3183.00 L 2969.80 3101.00 L 2955.00 3101.00 L 2935.00 3100.00 L 2875.00 3100.00 L 2855.00 3099.00 L 2795.00 3099.00 L 2775.00 3098.00 L 2735.00 3098.00 L 2715.00 3097.00 L 2655.00 3097.00 L 2635.00 3096.00 L 2575.00 3096.00 L 2555.00 3095.00 L 2515.00 3095.00 L 2495.00 3094.00 L 2435.00 3094.00 L 2415.00 3093.00 L 2355.00 3093.00 L 2335.00 3092.00 L 2295.00 3092.00 L 2275.00 3091.00 L 2215.00 3091.00 L 2195.00 3090.00 L 2135.00 3090.00 L 2115.00 3089.00 L 2055.00 3089.00 L 2035.00 3088.00 L 1995.00 3088.00 L 1975.00 3087.00 L 1915.00 3087.00 L 1895.00 3086.00 L 1835.00 3086.00 L 1815.00 3085.00 L 1775.00 3085.00 L 1755.00 3084.00 L 1695.00 3084.00 L 1675.00 3083.00 L 1615.00 3083.00 L 1595.00 3082.00 L 1555.00 3082.00 L 1535.00 3081.00 L 1475.00 3081.00 L 1455.00 3080.00 L 1395.00 3080.00 L 1375.00 3079.00 L 1315.00 3079.00 L 1295.00 3078.00 L 1255.00 3078.00 L 1235.00 3077.00 L 1175.00 3077.00 L 1155.00 3076.00 L 1095.00 3076.00 L 1075.00 3075.00 L 1035.00 3075.00 L 1015.00 3074.00 L 955.00 3074.00 L 935.00 3073.00 Z" />
<path id="csg562-040-22" fill="none" stroke="black" stroke-width="1" d="M 879.00 3191.20 L 882.00 3288.00 L 999.00 3285.00 L 1060.34 3308.27 L 1075.00 3309.00 L 1155.00 3309.00 L 1175.00 3310.00 L 1255.00 3310.00 L 1275.00 3311.00 L 1335.00 3311.00 L 1355.00 3312.00 L 1435.00 3312.00 L 1455.00 3313.00 L 1535.00 3313.00 L 1555.00 3314.00 L 1615.00 3314.00 L 1635.00 3315.00 L 1715.00 3315.00 L 1735.00 3316.00 L 1795.00 3316.00 L 1815.00 3317.00 L 1895.00 3317.00 L 1915.00 3318.00 L 1995.00 3318.00 L 2015.00 3319.00 L 2075.00 3319.00 L 2095.00 3320.00 L 2175.00 3320.00 L 2195.00 3321.00 L 2237.00 3321.00 L 1887.00 3312.00 L 1922.43 3203.00 L 1875.00 3203.00 L 1855.00 3202.00 L 1775.00 3202.00 L 1755.00 3201.00 L 1695.00 3201.00 L 1675.00 3200.00 L 1615.00 3200.00 L 1595.00 3199.00 L 1515.00 3199.00 L 1495.00 3198.00 L 1435.00 3198.00 L 1415.00 3197.00 L 1335.00 3197.00 L 1315.00 3196.00 L 1255.00 3196.00 L 1235.00 3195.00 L 1155.00 3195.00 L 1135.00 3194.00 L 1075.00 3194.00 L 1055.00 3193.00 L 975.00 3193.00 L 955.00 3192.00 L 895.00 3192.00 L 879.00 3191.20 Z" />
<path id="csg562-040-23" fill="none" stroke="black" stroke-width="1" d="M 1060.34 3308.27 L 1086.00 3318.00 L 1076.01 3415.05 L 1095.00 3416.00 L 1175.00 3416.00 L 1195.00 3417.00 L 1275.00 3417.00 L 1295.00 3418.00 L 1355.00 3418.00 L 1375.00 3419.00 L 1455.00 3419.00 L 1475.00 3420.00 L 1555.00 3420.00 L 1575.00 3421.00 L 1655.00 3421.00 L 1675.00 3422.00 L 1755.00 3422.00 L 1775.00 3423.00 L 1835.00 3423.00 L 1855.00 3424.00 L 1935.00 3424.00 L 1955.00 3425.00 L 2035.00 3425.00 L 2055.00 3426.00 L 2135.00 3426.00 L 2155.00 3427.00 L 2235.00 3427.00 L 2255.00 3428.00 L 2315.00 3428.00 L 2335.00 3429.00 L 2415.00 3429.00 L 2435.00 3430.00 L 2515.00 3430.00 L 2535.00 3431.00 L 2615.00 3431.00 L 2635.00 3432.00 L 2715.00 3432.00 L 2735.00 3433.00 L 2815.00 3433.00 L 2835.00 3434.00 L 2895.00 3434.00 L 2915.00 3435.00 L 2933.31 3435.00 L 2937.00 3339.00 L 2237.00 3321.00 L 2195.00 3321.00 L 2175.00 3320.00 L 2095.00 3320.00 L 2075.00 3319.00 L 2015.00 3319.00 L 1995.00 3318.00 L 1915.00 3318.00 L 1895.00 3317.00 L 1815.00 3317.00 L 1795.00 3316.00 L 1735.00 3316.00 L 1715.00 3315.00 L 1635.00 3315.00 L 1615.00 3314.00 L 1555.00 3314.00 L 1535.00 3313.00 L 1455.00 3313.00 L 1435.00 3312.00 L 1355.00 3312.00 L 1335.00 3311.00 L 1275.00 3311.00 L 1255.00 3310.00 L 1175.00 3310.00 L 1155.00 3309.00 L 1075.00 3309.00 L 1060.34 3308.27 Z" />
<path id="csg562-040-24" fill="none" stroke="black" stroke-width="1" d="M 1076.01 3415.05 L 1065.72 3515.00 L 1075.00 3515.00 L 1095.00 3516.00 L 1135.00 3516.00 L 1155.00 3517.00 L 1200.00 3517.00 L 1308.00 3513.00 L 1710.00 3513.00 L 2193.00 3519.00 L 2665.62 3538.00 L 2715.00 3538.00 L 2735.00 3539.00 L 2775.00 3539.00 L 2795.00 3540.00 L 2798.81 3540.00 L 2931.00 3495.00 L 2933.31 3435.00 L 2915.00 3435.00 L 2895.00 3434.00 L 2835.00 3434.00 L 2815.00 3433.00 L 2735.00 3433.00 L 2715.00 3432.00 L 2635.00 3432.00 L 2615.00 3431.00 L 2535.00 3431.00 L 2515.00 3430.00 L 2435.00 3430.00 L 2415.00 3429.00 L 2335.00 3429.00 L 2315.00 3428.00 L 2255.00 3428.00 L 2235.00 3427.00 L 2155.00 3427.00 L 2135.00 3426.00 L 2055.00 3426.00 L 2035.00 3425.00 L 1955.00 3425.00 L 1935.00 3424.00 L 1855.00 3424.00 L 1835.00 3423.00 L 1775.00 3423.00 L 1755.00 3422.00 L 1675.00 3422.00 L 1655.00 3421.00 L 1575.00 3421.00 L 1555.00 3420.00 L 1475.00 3420.00 L 1455.00 3419.00 L 1375.00 3419.00 L 1355.00 3418.00 L 1295.00 3418.00 L 1275.00 3417.00 L 1195.00 3417.00 L 1175.00 3416.00 L 1095.00 3416.00 L 1076.01 3415.05 Z" />
</svg>
