<?xml version="1.0" standalone="no"?>
<!DOCTYPE svg PUBLIC "-//W3C//DTD SVG 1.1//EN" "http://www.w3.org/Graphics/SVG/1.1/DTD/svg11.dtd">
<svg width="46.22222in" height="69.333336in" viewBox="0 0 3328 4992" xmlns="http://www.w3.org/2000/svg" version="1.1">
<path id="csg562-014-01" fill="none" stroke="black" stroke-width="1" d="M 1359.00 825.00 L 1125.00 840.00 L 963.00 840.00 L 967.40 933.32 L 981.00 934.00 L 1061.00 934.00 L 1081.00 935.00 L 1181.00 935.00 L 1201.00 936.00 L 1281.00 936.00 L 1301.00 937.00 L 1401.00 937.00 L 1421.00 938.00 L 1501.00 938.00 L 1521.00 939.00 L 1621.00 939.00 L 1641.00 940.00 L 1721.00 940.00 L 1741.00 941.00 L 1841.00 941.00 L 1861.00 942.00 L 1941.00 942.00 L 1961.00 943.00 L 2061.00 943.00 L 2081.00 944.00 L 2161.00 944.00 L 2181.00 945.00 L 2281.00 945.00 L 2301.00 946.00 L 2381.00 946.00 L 2401.00 947.00 L 2501.00 947.00 L 2521.00 948.00 L 2601.00 948.00 L 2621.00 969.00 L 2641.00 949.00 L 2701.00 949.00 L 2721.00 950.00 L 2821.00 950.00 L 2841.00 951.00 L 2921.00 951.00 L 2941.00 952.00 L 3011.40 952.00 L 2955.00 858.00 L 2865.09 835.00 L 2861.00 835.00 L 2841.00 834.00 L 2741.00 834.00 L 2721.00 833.00 L 2637.56 833.00 L 2190.00 852.00 L 2146.30 829.00 L 2061.00 829.00 L 2055.18 828.71 L 1959.00 837.00 L 1470.00 840.00 L 1359.00 825.00 Z" />
<path id="csg562-014-02" fill="none" stroke="black" stroke-width="1" d="M 967.40 933.32 L 972.89 1049.59 L 981.00 1050.00 L 1061.00 1050.00 L 1081.00 1051.00 L 1161.00 1051.00 L 1181.00 1052.00 L 1281.00 1052.00 L 1301.00 1053.00 L 1381.00 1053.00 L 1401.00 1054.00 L 1481.00 1054.00 L 1501.00 1055.00 L 1581.00 1055.00 L 1601.00 1056.00 L 1701.00 1056.00 L 1721.00 1057.00 L 1801.00 1057.00 L 1821.00 1058.00 L 1901.00 1058.00 L 1921.00 1059.00 L 2021.00 1059.00 L 2041.00 1060.00 L 2121.00 1060.00 L 2141.00 1061.00 L 2221.00 1061.00 L 2241.00 1062.00 L 2321.00 1062.00 L 2341.00 1063.00 L 2381.00 1063.00 L 2401.00 1043.00 L 2421.00 1043.00 L 2441.00 1063.00 L 2461.00 1064.00 L 2541.00 1064.00 L 2561.00 1065.00 L 2641.00 1065.00 L 2661.00 1066.00 L 2741.00 1066.00 L 2761.00 1067.00 L 2861.00 1067.00 L 2881.00 1068.00 L 2961.00 1068.00 L 2981.00 1069.00 L 3026.50 1069.00 L 3036.00 993.00 L 3011.40 952.00 L 2941.00 952.00 L 2921.00 951.00 L 2841.00 951.00 L 2821.00 950.00 L 2721.00 950.00 L 2701.00 949.00 L 2641.00 949.00 L 2621.00 969.00 L 2601.00 948.00 L 2521.00 948.00 L 2501.00 947.00 L 2401.00 947.00 L 2381.00 946.00 L 2301.00 946.00 L 2281.00 945.00 L 2181.00 945.00 L 2161.00 944.00 L 2081.00 944.00 L 2061.00 943.00 L 1961.00 943.00 L 1941.00 942.00 L 1861.00 942.00 L 1841.00 941.00 L 1741.00 941.00 L 1721.00 940.00 L 1641.00 940.00 L 1621.00 939.00 L 1521.00 939.00 L 1501.00 938.00 L 1421.00 938.00 L 1401.00 937.00 L 1301.00 937.00 L 1281.00 936.00 L 1201.00 936.00 L 1181.00 935.00 L 1081.00 935.00 L 1061.00 934.00 L 981.00 934.00 L 967.40 933.32 Z" />
<path id="csg562-014-03" fill="none" stroke="black" stroke-width="1" d="M 2401.00 1043.00 L 2381.00 1063.00 L 2341.00 1063.00 L 2321.00 1062.00 L 2241.00 1062.00 L 2221.00 1061.00 L 2141.00 1061.00 L 2121.00 1060.00 L 2041.00 1060.00 L 2021.00 1059.00 L 1921.00 1059.00 L 1901.00 1058.00 L 1821.00 1058.00 L 1801.00 1057.00 L 1721.00 1057.00 L 1701.00 1056.00 L 1601.00 1056.00 L 1581.00 1055.00 L 1501.00 1055.00 L 1481.00 1054.00 L 1401.00 1054.00 L 1381.00 1053.00 L 1301.00 1053.00 L 1281.00 1052.00 L 1181.00 1052.00 L 1161.00 1051.00 L 1081.00 1051.00 L 1061.00 1050.00 L 981.00 1050.00 L 972.89 1049.59 L 978.00 1158.00 L 976.95 1169.00 L 1021.00 1169.00 L 1041.00 1170.00 L 1101.00 1170.00 L 1121.00 1171.00 L 1181.00 1171.00 L 1201.00 1172.00 L 1281.00 1172.00 L 1301.00 1173.00 L 1361.00 1173.00 L 1381.00 1174.00 L 1441.00 1174.00 L 1461.00 1175.00 L 1521.00 1175.00 L 1541.00 1176.00 L 1601.00 1176.00 L 1621.00 1177.00 L 1701.00 1177.00 L 1721.00 1178.00 L 1781.00 1178.00 L 1801.00 1179.00 L 1861.00 1179.00 L 1881.00 1180.00 L 1941.00 1180.00 L 1961.00 1181.00 L 2021.00 1181.00 L 2041.00 1182.00 L 2121.00 1182.00 L 2141.00 1183.00 L 2201.00 1183.00 L 2221.00 1184.00 L 2281.00 1184.00 L 2301.00 1185.00 L 2361.00 1185.00 L 2381.00 1186.00 L 2461.00 1186.00 L 2481.00 1187.00 L 2541.00 1187.00 L 2561.00 1188.00 L 2621.00 1188.00 L 2641.00 1189.00 L 2701.00 1189.00 L 2721.00 1190.00 L 2781.00 1190.00 L 2801.00 1191.00 L 2881.00 1191.00 L 2901.00 1192.00 L 2961.00 1192.00 L 2981.00 1193.00 L 3041.00 1193.00 L 3047.60 1193.33 L 3024.00 1089.00 L 3026.50 1069.00 L 2981.00 1069.00 L 2961.00 1068.00 L 2881.00 1068.00 L 2861.00 1067.00 L 2761.00 1067.00 L 2741.00 1066.00 L 2661.00 1066.00 L 2641.00 1065.00 L 2561.00 1065.00 L 2541.00 1064.00 L 2461.00 1064.00 L 2441.00 1063.00 L 2421.00 1043.00 Z" />
<path id="csg562-014-04" fill="none" stroke="black" stroke-width="1" d="M 976.95 1169.00 L 966.57 1278.00 L 1041.00 1278.00 L 1061.00 1279.00 L 1141.00 1279.00 L 1161.00 1280.00 L 1221.00 1280.00 L 1241.00 1281.00 L 1321.00 1281.00 L 1341.00 1282.00 L 1421.00 1282.00 L 1441.00 1283.00 L 1501.00 1283.00 L 1521.00 1284.00 L 1601.00 1284.00 L 1621.00 1285.00 L 1701.00 1285.00 L 1721.00 1286.00 L 1801.00 1286.00 L 1821.00 1287.00 L 1881.00 1287.00 L 1901.00 1288.00 L 1981.00 1288.00 L 2001.00 1289.00 L 2081.00 1289.00 L 2101.00 1290.00 L 2161.00 1290.00 L 2181.00 1291.00 L 2261.00 1291.00 L 2281.00 1292.00 L 2361.00 1292.00 L 2381.00 1293.00 L 2441.00 1293.00 L 2461.00 1294.00 L 2541.00 1294.00 L 2561.00 1315.00 L 2581.00 1315.00 L 2601.00 1295.00 L 2641.00 1295.00 L 2661.00 1296.00 L 2741.00 1296.00 L 2761.00 1297.00 L 2821.00 1297.00 L 2841.00 1298.00 L 2921.00 1298.00 L 2941.00 1299.00 L 3021.00 1299.00 L 3041.00 1300.00 L 3071.73 1300.00 L 3047.60 1193.33 L 3041.00 1193.00 L 2981.00 1193.00 L 2961.00 1192.00 L 2901.00 1192.00 L 2881.00 1191.00 L 2801.00 1191.00 L 2781.00 1190.00 L 2721.00 1190.00 L 2701.00 1189.00 L 2641.00 1189.00 L 2621.00 1188.00 L 2561.00 1188.00 L 2541.00 1187.00 L 2481.00 1187.00 L 2461.00 1186.00 L 2381.00 1186.00 L 2361.00 1185.00 L 2301.00 1185.00 L 2281.00 1184.00 L 2221.00 1184.00 L 2201.00 1183.00 L 2141.00 1183.00 L 2121.00 1182.00 L 2041.00 1182.00 L 2021.00 1181.00 L 1961.00 1181.00 L 1941.00 1180.00 L 1881.00 1180.00 L 1861.00 1179.00 L 1801.00 1179.00 L 1781.00 1178.00 L 1721.00 1178.00 L 1701.00 1177.00 L 1621.00 1177.00 L 1601.00 1176.00 L 1541.00 1176.00 L 1521.00 1175.00 L 1461.00 1175.00 L 1441.00 1174.00 L 1381.00 1174.00 L 1361.00 1173.00 L 1301.00 1173.00 L 1281.00 1172.00 L 1201.00 1172.00 L 1181.00 1171.00 L 1121.00 1171.00 L 1101.00 1170.00 L 1041.00 1170.00 L 1021.00 1169.00 Z" />
<path id="csg562-014-05" fill="none" stroke="black" stroke-width="1" d="M 966.57 1278.00 L 954.86 1401.00 L 1001.00 1401.00 L 1021.00 1402.00 L 1061.00 1402.00 L 1081.00 1403.00 L 1141.00 1403.00 L 1161.00 1404.00 L 1221.00 1404.00 L 1241.00 1405.00 L 1281.00 1405.00 L 1301.00 1406.00 L 1361.00 1406.00 L 1381.00 1407.00 L 1441.00 1407.00 L 1461.00 1408.00 L 1501.00 1408.00 L 1521.00 1409.00 L 1581.00 1409.00 L 1601.00 1410.00 L 1641.00 1410.00 L 1661.00 1411.00 L 1721.00 1411.00 L 1741.00 1412.00 L 1801.00 1412.00 L 1821.00 1413.00 L 1861.00 1413.00 L 1881.00 1414.00 L 1941.00 1414.00 L 1961.00 1415.00 L 2021.00 1415.00 L 2041.00 1416.00 L 2081.00 1416.00 L 2101.00 1417.00 L 2161.00 1417.00 L 2181.00 1418.00 L 2221.00 1418.00 L 2241.00 1419.00 L 2261.00 1419.00 L 2281.00 1399.00 L 2301.00 1419.00 L 2321.00 1420.00 L 2381.00 1420.00 L 2401.00 1421.00 L 2441.00 1421.00 L 2461.00 1422.00 L 2521.00 1422.00 L 2541.00 1423.00 L 2601.00 1423.00 L 2621.00 1424.00 L 2661.00 1424.00 L 2681.00 1425.00 L 2741.00 1425.00 L 2761.00 1426.00 L 2801.00 1426.00 L 2821.00 1427.00 L 2881.00 1427.00 L 2901.00 1428.00 L 2961.00 1428.00 L 2981.00 1429.00 L 3021.00 1429.00 L 3041.00 1430.00 L 3054.91 1430.00 L 3081.00 1341.00 L 3071.73 1300.00 L 3041.00 1300.00 L 3021.00 1299.00 L 2941.00 1299.00 L 2921.00 1298.00 L 2841.00 1298.00 L 2821.00 1297.00 L 2761.00 1297.00 L 2741.00 1296.00 L 2661.00 1296.00 L 2641.00 1295.00 L 2601.00 1295.00 L 2581.00 1315.00 L 2561.00 1315.00 L 2541.00 1294.00 L 2461.00 1294.00 L 2441.00 1293.00 L 2381.00 1293.00 L 2361.00 1292.00 L 2281.00 1292.00 L 2261.00 1291.00 L 2181.00 1291.00 L 2161.00 1290.00 L 2101.00 1290.00 L 2081.00 1289.00 L 2001.00 1289.00 L 1981.00 1288.00 L 1901.00 1288.00 L 1881.00 1287.00 L 1821.00 1287.00 L 1801.00 1286.00 L 1721.00 1286.00 L 1701.00 1285.00 L 1621.00 1285.00 L 1601.00 1284.00 L 1521.00 1284.00 L 1501.00 1283.00 L 1441.00 1283.00 L 1421.00 1282.00 L 1341.00 1282.00 L 1321.00 1281.00 L 1241.00 1281.00 L 1221.00 1280.00 L 1161.00 1280.00 L 1141.00 1279.00 L 1061.00 1279.00 L 1041.00 1278.00 Z" />
<path id="csg562-014-06" fill="none" stroke="black" stroke-width="1" d="M 2281.00 1399.00 L 2261.00 1419.00 L 2241.00 1419.00 L 2221.00 1418.00 L 2181.00 1418.00 L 2161.00 1417.00 L 2101.00 1417.00 L 2081.00 1416.00 L 2041.00 1416.00 L 2021.00 1415.00 L 1961.00 1415.00 L 1941.00 1414.00 L 1881.00 1414.00 L 1861.00 1413.00 L 1821.00 1413.00 L 1801.00 1412.00 L 1741.00 1412.00 L 1721.00 1411.00 L 1661.00 1411.00 L 1641.00 1410.00 L 1601.00 1410.00 L 1581.00 1409.00 L 1521.00 1409.00 L 1501.00 1408.00 L 1461.00 1408.00 L 1441.00 1407.00 L 1381.00 1407.00 L 1361.00 1406.00 L 1301.00 1406.00 L 1281.00 1405.00 L 1241.00 1405.00 L 1221.00 1404.00 L 1161.00 1404.00 L 1141.00 1403.00 L 1081.00 1403.00 L 1061.00 1402.00 L 1021.00 1402.00 L 1001.00 1401.00 L 954.86 1401.00 L 944.18 1513.16 L 961.00 1514.00 L 1021.00 1514.00 L 1041.00 1515.00 L 1101.00 1515.00 L 1121.00 1516.00 L 1201.00 1516.00 L 1221.00 1517.00 L 1281.00 1517.00 L 1301.00 1518.00 L 1361.00 1518.00 L 1381.00 1519.00 L 1413.54 1519.00 L 1590.00 1482.00 L 1808.77 1523.39 L 1813.50 1523.62 L 1908.00 1500.00 L 1986.33 1525.27 L 2001.00 1526.00 L 2013.00 1526.00 L 2082.00 1503.00 L 3030.00 1515.00 L 3054.91 1430.00 L 3041.00 1430.00 L 3021.00 1429.00 L 2981.00 1429.00 L 2961.00 1428.00 L 2901.00 1428.00 L 2881.00 1427.00 L 2821.00 1427.00 L 2801.00 1426.00 L 2761.00 1426.00 L 2741.00 1425.00 L 2681.00 1425.00 L 2661.00 1424.00 L 2621.00 1424.00 L 2601.00 1423.00 L 2541.00 1423.00 L 2521.00 1422.00 L 2461.00 1422.00 L 2441.00 1421.00 L 2401.00 1421.00 L 2381.00 1420.00 L 2321.00 1420.00 L 2301.00 1419.00 L 2281.00 1399.00 Z" />
<path id="csg562-014-07" fill="none" stroke="black" stroke-width="1" d="M 944.18 1513.16 L 942.00 1536.00 L 984.00 1593.00 L 1050.00 1593.00 L 1115.14 1617.71 L 1121.00 1618.00 L 1181.00 1618.00 L 1201.00 1619.00 L 1261.00 1619.00 L 1281.00 1620.00 L 1341.00 1620.00 L 1361.00 1621.00 L 1421.00 1621.00 L 1441.00 1622.00 L 1501.00 1622.00 L 1521.00 1623.00 L 1581.00 1623.00 L 1601.00 1624.00 L 1681.00 1624.00 L 1701.00 1625.00 L 1761.00 1625.00 L 1781.00 1626.00 L 1797.00 1626.00 L 1404.00 1608.00 L 1404.00 1521.00 L 1413.54 1519.00 L 1381.00 1519.00 L 1361.00 1518.00 L 1301.00 1518.00 L 1281.00 1517.00 L 1221.00 1517.00 L 1201.00 1516.00 L 1121.00 1516.00 L 1101.00 1515.00 L 1041.00 1515.00 L 1021.00 1514.00 L 961.00 1514.00 L 944.18 1513.16 Z" />
<path id="csg562-014-08" fill="none" stroke="black" stroke-width="1" d="M 2261.00 1612.00 L 2241.00 1631.00 L 2181.00 1631.00 L 2161.00 1630.00 L 2101.00 1630.00 L 2085.81 1614.05 L 2054.66 1615.34 L 2041.00 1629.00 L 2021.00 1629.00 L 2001.00 1628.00 L 1941.00 1628.00 L 1921.00 1627.00 L 1861.00 1627.00 L 1841.00 1626.00 L 1781.00 1626.00 L 1761.00 1625.00 L 1701.00 1625.00 L 1681.00 1624.00 L 1601.00 1624.00 L 1581.00 1623.00 L 1521.00 1623.00 L 1501.00 1622.00 L 1441.00 1622.00 L 1421.00 1621.00 L 1361.00 1621.00 L 1341.00 1620.00 L 1281.00 1620.00 L 1261.00 1619.00 L 1201.00 1619.00 L 1181.00 1618.00 L 1121.00 1618.00 L 1115.14 1617.71 L 1137.00 1626.00 L 1126.41 1716.00 L 1141.00 1716.00 L 1161.00 1717.00 L 1301.00 1717.00 L 1321.00 1718.00 L 1441.00 1718.00 L 1461.00 1719.00 L 1601.00 1719.00 L 1621.00 1720.00 L 1741.00 1720.00 L 1761.00 1721.00 L 1901.00 1721.00 L 1921.00 1722.00 L 2041.00 1722.00 L 2061.00 1723.00 L 2201.00 1723.00 L 2221.00 1724.00 L 2341.00 1724.00 L 2361.00 1725.00 L 2501.00 1725.00 L 2521.00 1726.00 L 2641.00 1726.00 L 2661.00 1727.00 L 2801.00 1727.00 L 2821.00 1728.00 L 2941.00 1728.00 L 2961.00 1729.00 L 2964.33 1729.00 L 3060.00 1722.00 L 3060.00 1647.00 L 3020.73 1641.00 L 3001.00 1641.00 L 2981.00 1640.00 L 2921.00 1640.00 L 2901.00 1639.00 L 2841.00 1639.00 L 2821.00 1638.00 L 2761.00 1638.00 L 2741.00 1637.00 L 2681.00 1637.00 L 2661.00 1636.00 L 2601.00 1636.00 L 2581.00 1635.00 L 2521.00 1635.00 L 2501.00 1634.00 L 2421.00 1634.00 L 2401.00 1633.00 L 2341.00 1633.00 L 2321.00 1632.00 L 2301.00 1632.00 L 2281.00 1612.00 Z" />
<path id="csg562-014-09" fill="none" stroke="black" stroke-width="1" d="M 1126.41 1716.00 L 1113.00 1830.00 L 990.00 1800.00 L 984.00 1815.00 L 1041.00 1815.00 L 1061.00 1835.00 L 1081.00 1835.00 L 1101.00 1836.00 L 1321.00 1836.00 L 1341.00 1837.00 L 1541.00 1837.00 L 1561.00 1838.00 L 1781.00 1838.00 L 1801.00 1839.00 L 2001.00 1839.00 L 2021.00 1840.00 L 2241.00 1840.00 L 2261.00 1841.00 L 2461.00 1841.00 L 2481.00 1842.00 L 2701.00 1842.00 L 2721.00 1843.00 L 2741.00 1863.00 L 2761.00 1843.00 L 2802.86 1843.00 L 2814.00 1740.00 L 2964.33 1729.00 L 2961.00 1729.00 L 2941.00 1728.00 L 2821.00 1728.00 L 2801.00 1727.00 L 2661.00 1727.00 L 2641.00 1726.00 L 2521.00 1726.00 L 2501.00 1725.00 L 2361.00 1725.00 L 2341.00 1724.00 L 2221.00 1724.00 L 2201.00 1723.00 L 2061.00 1723.00 L 2041.00 1722.00 L 1921.00 1722.00 L 1901.00 1721.00 L 1761.00 1721.00 L 1741.00 1720.00 L 1621.00 1720.00 L 1601.00 1719.00 L 1461.00 1719.00 L 1441.00 1718.00 L 1321.00 1718.00 L 1301.00 1717.00 L 1161.00 1717.00 L 1141.00 1716.00 Z" />
<path id="csg562-014-10" fill="none" stroke="black" stroke-width="1" d="M 984.00 1815.00 L 972.00 1845.00 L 996.50 1943.00 L 1001.00 1943.00 L 1021.00 1944.00 L 1161.00 1944.00 L 1181.00 1945.00 L 1321.00 1945.00 L 1341.00 1946.00 L 1481.00 1946.00 L 1501.00 1947.00 L 1561.00 1947.00 L 1581.00 1967.00 L 1601.00 1947.00 L 1621.00 1947.00 L 1641.00 1948.00 L 1781.00 1948.00 L 1801.00 1949.00 L 1941.00 1949.00 L 1961.00 1950.00 L 2101.00 1950.00 L 2121.00 1951.00 L 2261.00 1951.00 L 2281.00 1952.00 L 2401.00 1952.00 L 2421.00 1953.00 L 2561.00 1953.00 L 2581.00 1954.00 L 2721.00 1954.00 L 2741.00 1955.00 L 2881.00 1955.00 L 2901.00 1956.00 L 3021.00 1956.00 L 3041.00 1957.00 L 3070.12 1957.00 L 3036.00 1866.00 L 2802.00 1851.00 L 2802.86 1843.00 L 2761.00 1843.00 L 2741.00 1863.00 L 2721.00 1843.00 L 2701.00 1842.00 L 2481.00 1842.00 L 2461.00 1841.00 L 2261.00 1841.00 L 2241.00 1840.00 L 2021.00 1840.00 L 2001.00 1839.00 L 1801.00 1839.00 L 1781.00 1838.00 L 1561.00 1838.00 L 1541.00 1837.00 L 1341.00 1837.00 L 1321.00 1836.00 L 1101.00 1836.00 L 1081.00 1835.00 L 1061.00 1835.00 L 1041.00 1815.00 Z" />
<path id="csg562-014-11" fill="none" stroke="black" stroke-width="1" d="M 996.50 1943.00 L 1002.00 1965.00 L 918.00 2004.00 L 921.60 2053.00 L 941.00 2053.00 L 961.00 2054.00 L 1041.00 2054.00 L 1061.00 2055.00 L 1141.00 2055.00 L 1161.00 2056.00 L 1201.00 2056.00 L 1221.00 2036.00 L 1241.00 2032.00 L 1261.00 2038.00 L 1281.00 2040.00 L 1301.00 2057.00 L 1341.00 2057.00 L 1361.00 2058.00 L 1421.00 2058.00 L 1441.00 2059.00 L 1521.00 2059.00 L 1541.00 2060.00 L 1621.00 2060.00 L 1641.00 2061.00 L 1721.00 2061.00 L 1741.00 2062.00 L 1821.00 2062.00 L 1841.00 2063.00 L 1901.00 2063.00 L 1921.00 2064.00 L 2001.00 2064.00 L 2021.00 2065.00 L 2101.00 2065.00 L 2121.00 2066.00 L 2201.00 2066.00 L 2221.00 2087.00 L 2241.00 2067.00 L 2301.00 2067.00 L 2321.00 2068.00 L 2401.00 2068.00 L 2421.00 2069.00 L 2481.00 2069.00 L 2501.00 2070.00 L 2581.00 2070.00 L 2601.00 2071.00 L 2681.00 2071.00 L 2701.00 2072.00 L 2781.00 2072.00 L 2801.00 2073.00 L 2881.00 2073.00 L 2901.00 2074.00 L 2921.00 2074.00 L 2941.00 2094.00 L 2961.00 2074.00 L 2981.00 2075.00 L 3053.03 2075.00 L 3081.00 1986.00 L 3070.12 1957.00 L 3041.00 1957.00 L 3021.00 1956.00 L 2901.00 1956.00 L 2881.00 1955.00 L 2741.00 1955.00 L 2721.00 1954.00 L 2581.00 1954.00 L 2561.00 1953.00 L 2421.00 1953.00 L 2401.00 1952.00 L 2281.00 1952.00 L 2261.00 1951.00 L 2121.00 1951.00 L 2101.00 1950.00 L 1961.00 1950.00 L 1941.00 1949.00 L 1801.00 1949.00 L 1781.00 1948.00 L 1641.00 1948.00 L 1621.00 1947.00 L 1601.00 1947.00 L 1581.00 1967.00 L 1561.00 1947.00 L 1501.00 1947.00 L 1481.00 1946.00 L 1341.00 1946.00 L 1321.00 1945.00 L 1181.00 1945.00 L 1161.00 1944.00 L 1021.00 1944.00 L 1001.00 1943.00 Z" />
<path id="csg562-014-12" fill="none" stroke="black" stroke-width="1" d="M 1241.00 2032.00 L 1221.00 2036.00 L 1201.00 2056.00 L 1161.00 2056.00 L 1141.00 2055.00 L 1061.00 2055.00 L 1041.00 2054.00 L 961.00 2054.00 L 941.00 2053.00 L 921.60 2053.00 L 929.47 2160.00 L 961.00 2160.00 L 981.00 2161.00 L 1061.00 2161.00 L 1081.00 2162.00 L 1181.00 2162.00 L 1201.00 2163.00 L 1281.00 2163.00 L 1301.00 2164.00 L 1381.00 2164.00 L 1401.00 2165.00 L 1501.00 2165.00 L 1521.00 2166.00 L 1601.00 2166.00 L 1621.00 2167.00 L 1701.00 2167.00 L 1721.00 2168.00 L 1821.00 2168.00 L 1841.00 2169.00 L 1921.00 2169.00 L 1941.00 2170.00 L 2021.00 2170.00 L 2041.00 2171.00 L 2061.00 2171.00 L 2081.00 2191.00 L 2101.00 2191.00 L 2121.00 2171.00 L 2141.00 2171.00 L 2161.00 2172.00 L 2241.00 2172.00 L 2261.00 2173.00 L 2341.00 2173.00 L 2361.00 2174.00 L 2461.00 2174.00 L 2481.00 2175.00 L 2561.00 2175.00 L 2581.00 2176.00 L 2661.00 2176.00 L 2681.00 2177.00 L 2781.00 2177.00 L 2801.00 2178.00 L 2881.00 2178.00 L 2901.00 2179.00 L 2981.00 2179.00 L 3001.00 2180.00 L 3061.41 2180.00 L 3048.00 2091.00 L 3053.03 2075.00 L 2981.00 2075.00 L 2961.00 2074.00 L 2941.00 2094.00 L 2921.00 2074.00 L 2901.00 2074.00 L 2881.00 2073.00 L 2801.00 2073.00 L 2781.00 2072.00 L 2701.00 2072.00 L 2681.00 2071.00 L 2601.00 2071.00 L 2581.00 2070.00 L 2501.00 2070.00 L 2481.00 2069.00 L 2421.00 2069.00 L 2401.00 2068.00 L 2321.00 2068.00 L 2301.00 2067.00 L 2241.00 2067.00 L 2221.00 2087.00 L 2201.00 2066.00 L 2121.00 2066.00 L 2101.00 2065.00 L 2021.00 2065.00 L 2001.00 2064.00 L 1921.00 2064.00 L 1901.00 2063.00 L 1841.00 2063.00 L 1821.00 2062.00 L 1741.00 2062.00 L 1721.00 2061.00 L 1641.00 2061.00 L 1621.00 2060.00 L 1541.00 2060.00 L 1521.00 2059.00 L 1441.00 2059.00 L 1421.00 2058.00 L 1361.00 2058.00 L 1341.00 2057.00 L 1301.00 2057.00 L 1281.00 2040.00 L 1261.00 2038.00 L 1241.00 2032.00 Z" />
<path id="csg562-014-13" fill="none" stroke="black" stroke-width="1" d="M 929.47 2160.00 L 937.26 2266.00 L 941.00 2266.00 L 961.00 2267.00 L 1021.00 2267.00 L 1041.00 2268.00 L 1101.00 2268.00 L 1121.00 2269.00 L 1181.00 2269.00 L 1201.00 2270.00 L 1261.00 2270.00 L 1281.00 2271.00 L 1301.00 2271.00 L 1321.00 2251.00 L 1341.00 2251.00 L 1361.00 2272.00 L 1421.00 2272.00 L 1441.00 2273.00 L 1501.00 2273.00 L 1521.00 2274.00 L 1581.00 2274.00 L 1601.00 2275.00 L 1661.00 2275.00 L 1681.00 2276.00 L 1741.00 2276.00 L 1761.00 2277.00 L 1821.00 2277.00 L 1841.00 2278.00 L 1901.00 2278.00 L 1921.00 2279.00 L 1981.00 2279.00 L 2001.00 2280.00 L 2061.00 2280.00 L 2081.00 2281.00 L 2141.00 2281.00 L 2161.00 2282.00 L 2221.00 2282.00 L 2241.00 2283.00 L 2301.00 2283.00 L 2321.00 2284.00 L 2381.00 2284.00 L 2401.00 2285.00 L 2461.00 2285.00 L 2481.00 2286.00 L 2541.00 2286.00 L 2561.00 2287.00 L 2621.00 2287.00 L 2641.00 2288.00 L 2701.00 2288.00 L 2721.00 2289.00 L 2781.00 2289.00 L 2801.00 2290.00 L 2861.00 2290.00 L 2881.00 2291.00 L 2941.00 2291.00 L 2961.00 2292.00 L 3021.00 2292.00 L 3041.00 2293.00 L 3078.44 2293.00 L 3061.41 2180.00 L 3001.00 2180.00 L 2981.00 2179.00 L 2901.00 2179.00 L 2881.00 2178.00 L 2801.00 2178.00 L 2781.00 2177.00 L 2681.00 2177.00 L 2661.00 2176.00 L 2581.00 2176.00 L 2561.00 2175.00 L 2481.00 2175.00 L 2461.00 2174.00 L 2361.00 2174.00 L 2341.00 2173.00 L 2261.00 2173.00 L 2241.00 2172.00 L 2161.00 2172.00 L 2141.00 2171.00 L 2121.00 2171.00 L 2101.00 2191.00 L 2081.00 2191.00 L 2061.00 2171.00 L 2041.00 2171.00 L 2021.00 2170.00 L 1941.00 2170.00 L 1921.00 2169.00 L 1841.00 2169.00 L 1821.00 2168.00 L 1721.00 2168.00 L 1701.00 2167.00 L 1621.00 2167.00 L 1601.00 2166.00 L 1521.00 2166.00 L 1501.00 2165.00 L 1401.00 2165.00 L 1381.00 2164.00 L 1301.00 2164.00 L 1281.00 2163.00 L 1201.00 2163.00 L 1181.00 2162.00 L 1081.00 2162.00 L 1061.00 2161.00 L 981.00 2161.00 L 961.00 2160.00 Z" />
<path id="csg562-014-14" fill="none" stroke="black" stroke-width="1" d="M 1321.00 2251.00 L 1301.00 2271.00 L 1281.00 2271.00 L 1261.00 2270.00 L 1201.00 2270.00 L 1181.00 2269.00 L 1121.00 2269.00 L 1101.00 2268.00 L 1041.00 2268.00 L 1021.00 2267.00 L 961.00 2267.00 L 941.00 2266.00 L 937.26 2266.00 L 945.44 2377.22 L 961.00 2378.00 L 1021.00 2378.00 L 1041.00 2379.00 L 1121.00 2379.00 L 1141.00 2380.00 L 1201.00 2380.00 L 1221.00 2381.00 L 1301.00 2381.00 L 1321.00 2382.00 L 1341.00 2362.00 L 1361.00 2382.00 L 1381.00 2382.00 L 1401.00 2383.00 L 1481.00 2383.00 L 1501.00 2384.00 L 1561.00 2384.00 L 1581.00 2385.00 L 1641.00 2385.00 L 1661.00 2386.00 L 1741.00 2386.00 L 1761.00 2387.00 L 1821.00 2387.00 L 1841.00 2388.00 L 1921.00 2388.00 L 1941.00 2389.00 L 2001.00 2389.00 L 2021.00 2390.00 L 2101.00 2390.00 L 2121.00 2391.00 L 2181.00 2391.00 L 2201.00 2392.00 L 2261.00 2392.00 L 2281.00 2393.00 L 2361.00 2393.00 L 2381.00 2394.00 L 2441.00 2394.00 L 2461.00 2395.00 L 2541.00 2395.00 L 2561.00 2396.00 L 2621.00 2396.00 L 2641.00 2397.00 L 2721.00 2397.00 L 2741.00 2398.00 L 2801.00 2398.00 L 2821.00 2399.00 L 2881.00 2399.00 L 2901.00 2400.00 L 2981.00 2400.00 L 3001.00 2401.00 L 3061.00 2401.00 L 3078.86 2401.89 L 3081.00 2310.00 L 3078.44 2293.00 L 3041.00 2293.00 L 3021.00 2292.00 L 2961.00 2292.00 L 2941.00 2291.00 L 2881.00 2291.00 L 2861.00 2290.00 L 2801.00 2290.00 L 2781.00 2289.00 L 2721.00 2289.00 L 2701.00 2288.00 L 2641.00 2288.00 L 2621.00 2287.00 L 2561.00 2287.00 L 2541.00 2286.00 L 2481.00 2286.00 L 2461.00 2285.00 L 2401.00 2285.00 L 2381.00 2284.00 L 2321.00 2284.00 L 2301.00 2283.00 L 2241.00 2283.00 L 2221.00 2282.00 L 2161.00 2282.00 L 2141.00 2281.00 L 2081.00 2281.00 L 2061.00 2280.00 L 2001.00 2280.00 L 1981.00 2279.00 L 1921.00 2279.00 L 1901.00 2278.00 L 1841.00 2278.00 L 1821.00 2277.00 L 1761.00 2277.00 L 1741.00 2276.00 L 1681.00 2276.00 L 1661.00 2275.00 L 1601.00 2275.00 L 1581.00 2274.00 L 1521.00 2274.00 L 1501.00 2273.00 L 1441.00 2273.00 L 1421.00 2272.00 L 1361.00 2272.00 L 1341.00 2251.00 Z" />
<path id="csg562-014-15" fill="none" stroke="black" stroke-width="1" d="M 1341.00 2362.00 L 1321.00 2382.00 L 1301.00 2381.00 L 1221.00 2381.00 L 1201.00 2380.00 L 1141.00 2380.00 L 1121.00 2379.00 L 1041.00 2379.00 L 1021.00 2378.00 L 961.00 2378.00 L 945.44 2377.22 L 948.00 2412.00 L 943.91 2499.00 L 961.00 2499.00 L 981.00 2500.00 L 1081.00 2500.00 L 1101.00 2501.00 L 1201.00 2501.00 L 1221.00 2502.00 L 1321.00 2502.00 L 1341.00 2503.00 L 1421.00 2503.00 L 1441.00 2504.00 L 1541.00 2504.00 L 1561.00 2505.00 L 1661.00 2505.00 L 1681.00 2506.00 L 1781.00 2506.00 L 1801.00 2507.00 L 1901.00 2507.00 L 1921.00 2508.00 L 2001.00 2508.00 L 2021.00 2509.00 L 2121.00 2509.00 L 2141.00 2510.00 L 2241.00 2510.00 L 2261.00 2491.00 L 2301.00 2491.00 L 2321.00 2511.00 L 2341.00 2491.00 L 2361.00 2491.00 L 2381.00 2512.00 L 2481.00 2512.00 L 2501.00 2513.00 L 2581.00 2513.00 L 2601.00 2514.00 L 2701.00 2514.00 L 2721.00 2515.00 L 2821.00 2515.00 L 2841.00 2516.00 L 2941.00 2516.00 L 2961.00 2517.00 L 3061.00 2517.00 L 3076.17 2517.76 L 3078.86 2401.89 L 3061.00 2401.00 L 3001.00 2401.00 L 2981.00 2400.00 L 2901.00 2400.00 L 2881.00 2399.00 L 2821.00 2399.00 L 2801.00 2398.00 L 2741.00 2398.00 L 2721.00 2397.00 L 2641.00 2397.00 L 2621.00 2396.00 L 2561.00 2396.00 L 2541.00 2395.00 L 2461.00 2395.00 L 2441.00 2394.00 L 2381.00 2394.00 L 2361.00 2393.00 L 2281.00 2393.00 L 2261.00 2392.00 L 2201.00 2392.00 L 2181.00 2391.00 L 2121.00 2391.00 L 2101.00 2390.00 L 2021.00 2390.00 L 2001.00 2389.00 L 1941.00 2389.00 L 1921.00 2388.00 L 1841.00 2388.00 L 1821.00 2387.00 L 1761.00 2387.00 L 1741.00 2386.00 L 1661.00 2386.00 L 1641.00 2385.00 L 1581.00 2385.00 L 1561.00 2384.00 L 1501.00 2384.00 L 1481.00 2383.00 L 1401.00 2383.00 L 1381.00 2382.00 L 1361.00 2382.00 L 1341.00 2362.00 Z" />
<path id="csg562-014-16" fill="none" stroke="black" stroke-width="1" d="M 2261.00 2491.00 L 2241.00 2510.00 L 2141.00 2510.00 L 2121.00 2509.00 L 2021.00 2509.00 L 2001.00 2508.00 L 1921.00 2508.00 L 1901.00 2507.00 L 1801.00 2507.00 L 1781.00 2506.00 L 1681.00 2506.00 L 1661.00 2505.00 L 1561.00 2505.00 L 1541.00 2504.00 L 1441.00 2504.00 L 1421.00 2503.00 L 1341.00 2503.00 L 1321.00 2502.00 L 1221.00 2502.00 L 1201.00 2501.00 L 1101.00 2501.00 L 1081.00 2500.00 L 981.00 2500.00 L 961.00 2499.00 L 943.91 2499.00 L 938.92 2605.00 L 941.00 2605.00 L 961.00 2606.00 L 1041.00 2606.00 L 1061.00 2607.00 L 1141.00 2607.00 L 1161.00 2608.00 L 1241.00 2608.00 L 1261.00 2609.00 L 1321.00 2609.00 L 1341.00 2610.00 L 1421.00 2610.00 L 1441.00 2611.00 L 1521.00 2611.00 L 1541.00 2612.00 L 1621.00 2612.00 L 1641.00 2613.00 L 1721.00 2613.00 L 1741.00 2614.00 L 1801.00 2614.00 L 1821.00 2615.00 L 1901.00 2615.00 L 1921.00 2616.00 L 2001.00 2616.00 L 2021.00 2617.00 L 2101.00 2617.00 L 2121.00 2618.00 L 2181.00 2618.00 L 2201.00 2619.00 L 2281.00 2619.00 L 2301.00 2620.00 L 2381.00 2620.00 L 2401.00 2621.00 L 2481.00 2621.00 L 2501.00 2622.00 L 2581.00 2622.00 L 2601.00 2623.00 L 2661.00 2623.00 L 2681.00 2624.00 L 2761.00 2624.00 L 2781.00 2625.00 L 2861.00 2625.00 L 2881.00 2626.00 L 2954.17 2626.00 L 3075.00 2568.00 L 3076.17 2517.76 L 3061.00 2517.00 L 2961.00 2517.00 L 2941.00 2516.00 L 2841.00 2516.00 L 2821.00 2515.00 L 2721.00 2515.00 L 2701.00 2514.00 L 2601.00 2514.00 L 2581.00 2513.00 L 2501.00 2513.00 L 2481.00 2512.00 L 2381.00 2512.00 L 2361.00 2491.00 L 2341.00 2491.00 L 2321.00 2511.00 L 2301.00 2491.00 Z" />
<path id="csg562-014-17" fill="none" stroke="black" stroke-width="1" d="M 938.92 2605.00 L 936.00 2667.00 L 916.65 2691.00 L 981.00 2691.00 L 1001.00 2711.00 L 1021.00 2712.00 L 1141.00 2712.00 L 1161.00 2713.00 L 1281.00 2713.00 L 1301.00 2714.00 L 1421.00 2714.00 L 1441.00 2715.00 L 1581.00 2715.00 L 1601.00 2716.00 L 1721.00 2716.00 L 1741.00 2717.00 L 1861.00 2717.00 L 1881.00 2718.00 L 2001.00 2718.00 L 2021.00 2719.00 L 2041.00 2739.00 L 2061.00 2719.00 L 2161.00 2719.00 L 2181.00 2720.00 L 2301.00 2720.00 L 2321.00 2721.00 L 2441.00 2721.00 L 2461.00 2722.00 L 2581.00 2722.00 L 2601.00 2723.00 L 2741.00 2723.00 L 2761.00 2724.00 L 2877.55 2724.00 L 2835.00 2718.00 L 2835.00 2631.00 L 2925.00 2640.00 L 2954.17 2626.00 L 2881.00 2626.00 L 2861.00 2625.00 L 2781.00 2625.00 L 2761.00 2624.00 L 2681.00 2624.00 L 2661.00 2623.00 L 2601.00 2623.00 L 2581.00 2622.00 L 2501.00 2622.00 L 2481.00 2621.00 L 2401.00 2621.00 L 2381.00 2620.00 L 2301.00 2620.00 L 2281.00 2619.00 L 2201.00 2619.00 L 2181.00 2618.00 L 2121.00 2618.00 L 2101.00 2617.00 L 2021.00 2617.00 L 2001.00 2616.00 L 1921.00 2616.00 L 1901.00 2615.00 L 1821.00 2615.00 L 1801.00 2614.00 L 1741.00 2614.00 L 1721.00 2613.00 L 1641.00 2613.00 L 1621.00 2612.00 L 1541.00 2612.00 L 1521.00 2611.00 L 1441.00 2611.00 L 1421.00 2610.00 L 1341.00 2610.00 L 1321.00 2609.00 L 1261.00 2609.00 L 1241.00 2608.00 L 1161.00 2608.00 L 1141.00 2607.00 L 1061.00 2607.00 L 1041.00 2606.00 L 961.00 2606.00 L 941.00 2605.00 Z" />
<path id="csg562-014-18" fill="none" stroke="black" stroke-width="1" d="M 916.65 2691.00 L 861.00 2760.00 L 915.43 2831.00 L 1021.00 2831.00 L 1041.00 2832.00 L 1201.00 2832.00 L 1221.00 2833.00 L 1381.00 2833.00 L 1401.00 2834.00 L 1541.00 2834.00 L 1561.00 2835.00 L 1721.00 2835.00 L 1741.00 2836.00 L 1901.00 2836.00 L 1921.00 2837.00 L 2081.00 2837.00 L 2101.00 2838.00 L 2241.00 2838.00 L 2261.00 2839.00 L 2421.00 2839.00 L 2441.00 2840.00 L 2601.00 2840.00 L 2621.00 2841.00 L 2781.00 2841.00 L 2801.00 2842.00 L 2941.00 2842.00 L 2961.00 2843.00 L 3057.34 2843.00 L 3069.00 2751.00 L 2877.55 2724.00 L 2761.00 2724.00 L 2741.00 2723.00 L 2601.00 2723.00 L 2581.00 2722.00 L 2461.00 2722.00 L 2441.00 2721.00 L 2321.00 2721.00 L 2301.00 2720.00 L 2181.00 2720.00 L 2161.00 2719.00 L 2061.00 2719.00 L 2041.00 2739.00 L 2021.00 2719.00 L 2001.00 2718.00 L 1881.00 2718.00 L 1861.00 2717.00 L 1741.00 2717.00 L 1721.00 2716.00 L 1601.00 2716.00 L 1581.00 2715.00 L 1441.00 2715.00 L 1421.00 2714.00 L 1301.00 2714.00 L 1281.00 2713.00 L 1161.00 2713.00 L 1141.00 2712.00 L 1021.00 2712.00 L 1001.00 2711.00 L 981.00 2691.00 Z" />
<path id="csg562-014-19" fill="none" stroke="black" stroke-width="1" d="M 915.43 2831.00 L 930.00 2850.00 L 930.70 2939.00 L 941.00 2939.00 L 961.00 2940.00 L 1041.00 2940.00 L 1061.00 2941.00 L 1141.00 2941.00 L 1161.00 2942.00 L 1241.00 2942.00 L 1261.00 2943.00 L 1341.00 2943.00 L 1361.00 2944.00 L 1441.00 2944.00 L 1461.00 2945.00 L 1541.00 2945.00 L 1561.00 2946.00 L 1641.00 2946.00 L 1661.00 2947.00 L 1741.00 2947.00 L 1761.00 2948.00 L 1841.00 2948.00 L 1861.00 2949.00 L 1941.00 2949.00 L 1961.00 2950.00 L 2041.00 2950.00 L 2061.00 2951.00 L 2141.00 2951.00 L 2161.00 2952.00 L 2241.00 2952.00 L 2261.00 2953.00 L 2341.00 2953.00 L 2361.00 2954.00 L 2441.00 2954.00 L 2461.00 2955.00 L 2521.00 2955.00 L 2541.00 2935.00 L 2561.00 2936.00 L 2581.00 2956.00 L 2641.00 2956.00 L 2661.00 2957.00 L 2741.00 2957.00 L 2761.00 2958.00 L 2841.00 2958.00 L 2861.00 2959.00 L 2941.00 2959.00 L 2961.00 2960.00 L 3041.00 2960.00 L 3042.50 2960.07 L 3057.34 2843.00 L 2961.00 2843.00 L 2941.00 2842.00 L 2801.00 2842.00 L 2781.00 2841.00 L 2621.00 2841.00 L 2601.00 2840.00 L 2441.00 2840.00 L 2421.00 2839.00 L 2261.00 2839.00 L 2241.00 2838.00 L 2101.00 2838.00 L 2081.00 2837.00 L 1921.00 2837.00 L 1901.00 2836.00 L 1741.00 2836.00 L 1721.00 2835.00 L 1561.00 2835.00 L 1541.00 2834.00 L 1401.00 2834.00 L 1381.00 2833.00 L 1221.00 2833.00 L 1201.00 2832.00 L 1041.00 2832.00 L 1021.00 2831.00 Z" />
<path id="csg562-014-20" fill="none" stroke="black" stroke-width="1" d="M 2541.00 2935.00 L 2521.00 2955.00 L 2461.00 2955.00 L 2441.00 2954.00 L 2361.00 2954.00 L 2341.00 2953.00 L 2261.00 2953.00 L 2241.00 2952.00 L 2161.00 2952.00 L 2141.00 2951.00 L 2061.00 2951.00 L 2041.00 2950.00 L 1961.00 2950.00 L 1941.00 2949.00 L 1861.00 2949.00 L 1841.00 2948.00 L 1761.00 2948.00 L 1741.00 2947.00 L 1661.00 2947.00 L 1641.00 2946.00 L 1561.00 2946.00 L 1541.00 2945.00 L 1461.00 2945.00 L 1441.00 2944.00 L 1361.00 2944.00 L 1341.00 2943.00 L 1261.00 2943.00 L 1241.00 2942.00 L 1161.00 2942.00 L 1141.00 2941.00 L 1061.00 2941.00 L 1041.00 2940.00 L 961.00 2940.00 L 941.00 2939.00 L 930.70 2939.00 L 931.56 3050.00 L 941.00 3050.00 L 961.00 3051.00 L 1041.00 3051.00 L 1061.00 3052.00 L 1141.00 3052.00 L 1161.00 3053.00 L 1221.00 3053.00 L 1241.00 3054.00 L 1321.00 3054.00 L 1341.00 3055.00 L 1421.00 3055.00 L 1441.00 3056.00 L 1501.00 3056.00 L 1521.00 3057.00 L 1601.00 3057.00 L 1621.00 3058.00 L 1701.00 3058.00 L 1721.00 3059.00 L 1781.00 3059.00 L 1801.00 3060.00 L 1881.00 3060.00 L 1901.00 3061.00 L 1981.00 3061.00 L 2001.00 3062.00 L 2061.00 3062.00 L 2081.00 3063.00 L 2141.00 3063.00 L 2161.00 3043.00 L 2181.00 3044.00 L 2201.00 3064.00 L 2261.00 3064.00 L 2281.00 3065.00 L 2361.00 3065.00 L 2381.00 3066.00 L 2441.00 3066.00 L 2461.00 3067.00 L 2541.00 3067.00 L 2561.00 3068.00 L 2641.00 3068.00 L 2661.00 3069.00 L 2721.00 3069.00 L 2741.00 3070.00 L 2821.00 3070.00 L 2841.00 3071.00 L 2921.00 3071.00 L 2941.00 3072.00 L 3001.00 3072.00 L 3021.00 3073.00 L 3083.83 3073.00 L 3042.00 2964.00 L 3042.50 2960.07 L 3041.00 2960.00 L 2961.00 2960.00 L 2941.00 2959.00 L 2861.00 2959.00 L 2841.00 2958.00 L 2761.00 2958.00 L 2741.00 2957.00 L 2661.00 2957.00 L 2641.00 2956.00 L 2581.00 2956.00 L 2561.00 2936.00 L 2541.00 2935.00 Z" />
<path id="csg562-014-21" fill="none" stroke="black" stroke-width="1" d="M 2161.00 3043.00 L 2141.00 3063.00 L 2081.00 3063.00 L 2061.00 3062.00 L 2001.00 3062.00 L 1981.00 3061.00 L 1901.00 3061.00 L 1881.00 3060.00 L 1801.00 3060.00 L 1781.00 3059.00 L 1721.00 3059.00 L 1701.00 3058.00 L 1621.00 3058.00 L 1601.00 3057.00 L 1521.00 3057.00 L 1501.00 3056.00 L 1441.00 3056.00 L 1421.00 3055.00 L 1341.00 3055.00 L 1321.00 3054.00 L 1241.00 3054.00 L 1221.00 3053.00 L 1161.00 3053.00 L 1141.00 3052.00 L 1061.00 3052.00 L 1041.00 3051.00 L 961.00 3051.00 L 941.00 3050.00 L 931.56 3050.00 L 932.47 3166.00 L 1001.00 3166.00 L 1021.00 3167.00 L 1141.00 3167.00 L 1161.00 3168.00 L 1281.00 3168.00 L 1301.00 3169.00 L 1421.00 3169.00 L 1441.00 3170.00 L 1581.00 3170.00 L 1601.00 3171.00 L 1721.00 3171.00 L 1741.00 3172.00 L 1861.00 3172.00 L 1881.00 3173.00 L 2001.00 3173.00 L 2021.00 3174.00 L 2161.00 3174.00 L 2181.00 3175.00 L 2301.00 3175.00 L 2321.00 3176.00 L 2441.00 3176.00 L 2461.00 3177.00 L 2581.00 3177.00 L 2601.00 3178.00 L 2741.00 3178.00 L 2761.00 3179.00 L 2881.00 3179.00 L 2901.00 3180.00 L 3021.00 3180.00 L 3041.00 3181.00 L 3125.27 3181.00 L 3083.83 3073.00 L 3021.00 3073.00 L 3001.00 3072.00 L 2941.00 3072.00 L 2921.00 3071.00 L 2841.00 3071.00 L 2821.00 3070.00 L 2741.00 3070.00 L 2721.00 3069.00 L 2661.00 3069.00 L 2641.00 3068.00 L 2561.00 3068.00 L 2541.00 3067.00 L 2461.00 3067.00 L 2441.00 3066.00 L 2381.00 3066.00 L 2361.00 3065.00 L 2281.00 3065.00 L 2261.00 3064.00 L 2201.00 3064.00 L 2181.00 3044.00 L 2161.00 3043.00 Z" />
<path id="csg562-014-22" fill="none" stroke="black" stroke-width="1" d="M 932.47 3166.00 L 933.00 3234.00 L 931.82 3276.00 L 941.00 3276.00 L 961.00 3256.00 L 981.00 3256.00 L 1001.00 3277.00 L 1121.00 3277.00 L 1141.00 3278.00 L 1241.00 3278.00 L 1261.00 3279.00 L 1381.00 3279.00 L 1401.00 3280.00 L 1501.00 3280.00 L 1521.00 3281.00 L 1641.00 3281.00 L 1661.00 3282.00 L 1761.00 3282.00 L 1781.00 3283.00 L 1901.00 3283.00 L 1921.00 3284.00 L 2021.00 3284.00 L 2041.00 3285.00 L 2161.00 3285.00 L 2181.00 3286.00 L 2301.00 3286.00 L 2321.00 3287.00 L 2421.00 3287.00 L 2441.00 3288.00 L 2561.00 3288.00 L 2581.00 3289.00 L 2681.00 3289.00 L 2701.00 3290.00 L 2821.00 3290.00 L 2841.00 3291.00 L 2941.00 3291.00 L 2961.00 3292.00 L 3061.00 3292.00 L 3081.00 3312.00 L 3101.00 3313.00 L 3114.39 3299.61 L 3141.00 3222.00 L 3125.27 3181.00 L 3041.00 3181.00 L 3021.00 3180.00 L 2901.00 3180.00 L 2881.00 3179.00 L 2761.00 3179.00 L 2741.00 3178.00 L 2601.00 3178.00 L 2581.00 3177.00 L 2461.00 3177.00 L 2441.00 3176.00 L 2321.00 3176.00 L 2301.00 3175.00 L 2181.00 3175.00 L 2161.00 3174.00 L 2021.00 3174.00 L 2001.00 3173.00 L 1881.00 3173.00 L 1861.00 3172.00 L 1741.00 3172.00 L 1721.00 3171.00 L 1601.00 3171.00 L 1581.00 3170.00 L 1441.00 3170.00 L 1421.00 3169.00 L 1301.00 3169.00 L 1281.00 3168.00 L 1161.00 3168.00 L 1141.00 3167.00 L 1021.00 3167.00 L 1001.00 3166.00 Z" />
<path id="csg562-014-23" fill="none" stroke="black" stroke-width="1" d="M 961.00 3256.00 L 941.00 3276.00 L 931.82 3276.00 L 928.86 3381.00 L 961.00 3381.00 L 981.00 3382.00 L 1061.00 3382.00 L 1081.00 3383.00 L 1181.00 3383.00 L 1201.00 3384.00 L 1281.00 3384.00 L 1301.00 3385.00 L 1401.00 3385.00 L 1421.00 3386.00 L 1501.00 3386.00 L 1521.00 3387.00 L 1621.00 3387.00 L 1641.00 3388.00 L 1721.00 3388.00 L 1741.00 3389.00 L 1821.00 3389.00 L 1841.00 3390.00 L 1941.00 3390.00 L 1961.00 3391.00 L 2041.00 3391.00 L 2061.00 3392.00 L 2161.00 3392.00 L 2181.00 3393.00 L 2261.00 3393.00 L 2281.00 3394.00 L 2381.00 3394.00 L 2401.00 3395.00 L 2481.00 3395.00 L 2501.00 3396.00 L 2601.00 3396.00 L 2621.00 3397.00 L 2701.00 3397.00 L 2721.00 3398.00 L 2801.00 3398.00 L 2821.00 3399.00 L 2921.00 3399.00 L 2941.00 3400.00 L 3021.00 3400.00 L 3041.00 3401.00 L 3079.63 3401.00 L 3114.39 3299.61 L 3101.00 3313.00 L 3081.00 3312.00 L 3061.00 3292.00 L 2961.00 3292.00 L 2941.00 3291.00 L 2841.00 3291.00 L 2821.00 3290.00 L 2701.00 3290.00 L 2681.00 3289.00 L 2581.00 3289.00 L 2561.00 3288.00 L 2441.00 3288.00 L 2421.00 3287.00 L 2321.00 3287.00 L 2301.00 3286.00 L 2181.00 3286.00 L 2161.00 3285.00 L 2041.00 3285.00 L 2021.00 3284.00 L 1921.00 3284.00 L 1901.00 3283.00 L 1781.00 3283.00 L 1761.00 3282.00 L 1661.00 3282.00 L 1641.00 3281.00 L 1521.00 3281.00 L 1501.00 3280.00 L 1401.00 3280.00 L 1381.00 3279.00 L 1261.00 3279.00 L 1241.00 3278.00 L 1141.00 3278.00 L 1121.00 3277.00 L 1001.00 3277.00 L 981.00 3256.00 Z" />
<path id="csg562-014-24" fill="none" stroke="black" stroke-width="1" d="M 928.86 3381.00 L 927.00 3447.00 L 993.00 3477.00 L 1239.00 3486.00 L 1484.00 3496.00 L 1521.00 3496.00 L 1541.00 3497.00 L 1641.00 3497.00 L 1661.00 3498.00 L 1781.00 3498.00 L 1801.00 3499.00 L 1921.00 3499.00 L 1941.00 3500.00 L 2041.00 3500.00 L 2061.00 3501.00 L 2181.00 3501.00 L 2201.00 3502.00 L 2321.00 3502.00 L 2341.00 3503.00 L 2441.00 3503.00 L 2461.00 3504.00 L 2581.00 3504.00 L 2601.00 3505.00 L 2721.00 3505.00 L 2741.00 3506.00 L 2841.00 3506.00 L 2861.00 3507.00 L 2981.00 3507.00 L 3001.00 3508.00 L 3039.77 3508.00 L 3069.00 3432.00 L 3079.63 3401.00 L 3041.00 3401.00 L 3021.00 3400.00 L 2941.00 3400.00 L 2921.00 3399.00 L 2821.00 3399.00 L 2801.00 3398.00 L 2721.00 3398.00 L 2701.00 3397.00 L 2621.00 3397.00 L 2601.00 3396.00 L 2501.00 3396.00 L 2481.00 3395.00 L 2401.00 3395.00 L 2381.00 3394.00 L 2281.00 3394.00 L 2261.00 3393.00 L 2181.00 3393.00 L 2161.00 3392.00 L 2061.00 3392.00 L 2041.00 3391.00 L 1961.00 3391.00 L 1941.00 3390.00 L 1841.00 3390.00 L 1821.00 3389.00 L 1741.00 3389.00 L 1721.00 3388.00 L 1641.00 3388.00 L 1621.00 3387.00 L 1521.00 3387.00 L 1501.00 3386.00 L 1421.00 3386.00 L 1401.00 3385.00 L 1301.00 3385.00 L 1281.00 3384.00 L 1201.00 3384.00 L 1181.00 3383.00 L 1081.00 3383.00 L 1061.00 3382.00 L 981.00 3382.00 L 961.00 3381.00 Z" />
</svg>
