<?xml version="1.0" standalone="no"?>
<!DOCTYPE svg PUBLIC "-//W3C//DTD SVG 1.1//EN" "http://www.w3.org/Graphics/SVG/1.1/DTD/svg11.dtd">
<svg width="46.22222in" height="69.333336in" viewBox="0 0 3328 4992" xmlns="http://www.w3.org/2000/svg" version="1.1">
<path id="csg562-042-01" fill="none" stroke="black" stroke-width="1" d="M 1542.00 852.00 L 1083.00 870.00 L 879.00 870.00 L 879.00 959.50 L 890.00 954.00 L 1050.00 954.00 L 1070.00 955.00 L 1230.00 955.00 L 1250.00 956.00 L 1410.00 956.00 L 1430.00 957.00 L 1590.00 957.00 L 1610.00 958.00 L 1790.00 958.00 L 1810.00 959.00 L 1970.00 959.00 L 1990.00 960.00 L 2150.00 960.00 L 2170.00 961.00 L 2330.00 961.00 L 2350.00 962.00 L 2510.00 962.00 L 2530.00 963.00 L 2710.00 963.00 L 2730.00 964.00 L 2890.00 964.00 L 2910.00 965.00 L 2912.15 965.00 L 2967.00 942.00 L 2955.00 894.00 L 2694.00 867.00 L 2121.00 864.00 L 1542.00 852.00 Z" />
<path id="csg562-042-02" fill="none" stroke="black" stroke-width="1" d="M 890.00 954.00 L 879.00 959.50 L 879.00 1058.50 L 890.00 1031.00 L 910.00 1051.00 L 930.00 1071.00 L 1150.00 1071.00 L 1170.00 1072.00 L 1450.00 1072.00 L 1470.00 1073.00 L 1750.00 1073.00 L 1770.00 1074.00 L 2030.00 1074.00 L 2050.00 1075.00 L 2330.00 1075.00 L 2350.00 1076.00 L 2630.00 1076.00 L 2650.00 1077.00 L 2823.47 1077.00 L 2874.00 981.00 L 2912.15 965.00 L 2910.00 965.00 L 2890.00 964.00 L 2730.00 964.00 L 2710.00 963.00 L 2530.00 963.00 L 2510.00 962.00 L 2350.00 962.00 L 2330.00 961.00 L 2170.00 961.00 L 2150.00 960.00 L 1990.00 960.00 L 1970.00 959.00 L 1810.00 959.00 L 1790.00 958.00 L 1610.00 958.00 L 1590.00 957.00 L 1430.00 957.00 L 1410.00 956.00 L 1250.00 956.00 L 1230.00 955.00 L 1070.00 955.00 L 1050.00 954.00 Z" />
<path id="csg562-042-03" fill="none" stroke="black" stroke-width="1" d="M 890.00 1031.00 L 879.00 1058.50 L 879.00 1194.50 L 890.00 1189.00 L 2410.00 1189.00 L 2430.00 1190.00 L 2898.00 1190.00 L 2982.00 1176.00 L 2964.00 1086.00 L 2814.00 1095.00 L 2823.47 1077.00 L 2650.00 1077.00 L 2630.00 1076.00 L 2350.00 1076.00 L 2330.00 1075.00 L 2050.00 1075.00 L 2030.00 1074.00 L 1770.00 1074.00 L 1750.00 1073.00 L 1470.00 1073.00 L 1450.00 1072.00 L 1170.00 1072.00 L 1150.00 1071.00 L 930.00 1071.00 L 910.00 1051.00 L 890.00 1031.00 Z" />
<path id="csg562-042-04" fill="none" stroke="black" stroke-width="1" d="M 890.00 1189.00 L 879.00 1194.50 L 879.00 1301.50 L 890.00 1285.00 L 910.00 1265.00 L 930.00 1285.00 L 950.00 1305.00 L 1490.00 1305.00 L 1510.00 1306.00 L 2110.00 1306.00 L 2130.00 1307.00 L 2750.00 1307.00 L 2770.00 1308.00 L 2822.44 1308.00 L 2856.00 1197.00 L 2898.00 1190.00 L 2430.00 1190.00 L 2410.00 1189.00 Z" />
<path id="csg562-042-05" fill="none" stroke="black" stroke-width="1" d="M 910.00 1265.00 L 890.00 1285.00 L 879.00 1301.50 L 879.00 1422.50 L 890.00 1417.00 L 2630.00 1417.00 L 2650.00 1418.00 L 2918.27 1418.00 L 2937.00 1311.00 L 2817.00 1326.00 L 2822.44 1308.00 L 2770.00 1308.00 L 2750.00 1307.00 L 2130.00 1307.00 L 2110.00 1306.00 L 1510.00 1306.00 L 1490.00 1305.00 L 950.00 1305.00 L 930.00 1285.00 L 910.00 1265.00 Z" />
<path id="csg562-042-06" fill="none" stroke="black" stroke-width="1" d="M 890.00 1417.00 L 879.00 1422.50 L 879.00 1518.00 L 878.97 1520.51 L 890.00 1515.00 L 1210.00 1515.00 L 1230.00 1516.00 L 1570.00 1516.00 L 1590.00 1517.00 L 1930.00 1517.00 L 1950.00 1518.00 L 2290.00 1518.00 L 2310.00 1519.00 L 2650.00 1519.00 L 2670.00 1520.00 L 2690.00 1520.00 L 2710.00 1540.00 L 2730.00 1520.00 L 2790.00 1520.00 L 2810.00 1540.00 L 2830.00 1540.00 L 2850.00 1520.00 L 2946.66 1520.00 L 2916.00 1431.00 L 2918.27 1418.00 L 2650.00 1418.00 L 2630.00 1417.00 Z" />
<path id="csg562-042-07" fill="none" stroke="black" stroke-width="1" d="M 890.00 1515.00 L 878.97 1520.51 L 877.74 1638.13 L 890.00 1632.00 L 1410.00 1632.00 L 1430.00 1633.00 L 1770.00 1633.00 L 1790.00 1653.00 L 1810.00 1633.00 L 1970.00 1633.00 L 1990.00 1634.00 L 2250.00 1634.00 L 2270.00 1654.00 L 2290.00 1634.00 L 2530.00 1634.00 L 2550.00 1635.00 L 2986.27 1635.00 L 2946.66 1520.00 L 2850.00 1520.00 L 2830.00 1540.00 L 2810.00 1540.00 L 2790.00 1520.00 L 2730.00 1520.00 L 2710.00 1540.00 L 2690.00 1520.00 L 2670.00 1520.00 L 2650.00 1519.00 L 2310.00 1519.00 L 2290.00 1518.00 L 1950.00 1518.00 L 1930.00 1517.00 L 1590.00 1517.00 L 1570.00 1516.00 L 1230.00 1516.00 L 1210.00 1515.00 Z" />
<path id="csg562-042-08" fill="none" stroke="black" stroke-width="1" d="M 890.00 1632.00 L 877.74 1638.13 L 876.39 1765.80 L 890.00 1759.00 L 1750.00 1759.00 L 1770.00 1739.00 L 1790.00 1739.00 L 1810.00 1740.00 L 1850.00 1740.00 L 1870.00 1760.00 L 2710.00 1760.00 L 2730.00 1761.00 L 2920.43 1761.00 L 3009.00 1701.00 L 2986.27 1635.00 L 2550.00 1635.00 L 2530.00 1634.00 L 2290.00 1634.00 L 2270.00 1654.00 L 2250.00 1634.00 L 1990.00 1634.00 L 1970.00 1633.00 L 1810.00 1633.00 L 1790.00 1653.00 L 1770.00 1633.00 L 1430.00 1633.00 L 1410.00 1632.00 Z" />
<path id="csg562-042-09" fill="none" stroke="black" stroke-width="1" d="M 1770.00 1739.00 L 1750.00 1759.00 L 890.00 1759.00 L 876.39 1765.80 L 875.35 1864.32 L 890.00 1857.00 L 1110.00 1857.00 L 1130.00 1858.00 L 1350.00 1858.00 L 1370.00 1859.00 L 1590.00 1859.00 L 1610.00 1860.00 L 1830.00 1860.00 L 1850.00 1861.00 L 2070.00 1861.00 L 2090.00 1862.00 L 2310.00 1862.00 L 2330.00 1863.00 L 2550.00 1863.00 L 2570.00 1864.00 L 2810.00 1864.00 L 2830.00 1865.00 L 2957.48 1865.00 L 2916.00 1764.00 L 2920.43 1761.00 L 2730.00 1761.00 L 2710.00 1760.00 L 1870.00 1760.00 L 1850.00 1740.00 L 1810.00 1740.00 L 1790.00 1739.00 Z" />
<path id="csg562-042-10" fill="none" stroke="black" stroke-width="1" d="M 890.00 1857.00 L 875.35 1864.32 L 874.15 1978.93 L 890.00 1971.00 L 1030.00 1971.00 L 1050.00 1972.00 L 1130.00 1972.00 L 1150.00 1952.00 L 1190.00 1952.00 L 1210.00 1973.00 L 1370.00 1973.00 L 1390.00 1974.00 L 1530.00 1974.00 L 1550.00 1975.00 L 1710.00 1975.00 L 1730.00 1976.00 L 1870.00 1976.00 L 1890.00 1977.00 L 2050.00 1977.00 L 2070.00 1978.00 L 2210.00 1978.00 L 2230.00 1979.00 L 2370.00 1979.00 L 2390.00 1980.00 L 2550.00 1980.00 L 2570.00 1981.00 L 2710.00 1981.00 L 2730.00 1982.00 L 2890.00 1982.00 L 2910.00 1983.00 L 2940.32 1983.00 L 2940.00 1980.00 L 2985.00 1932.00 L 2957.48 1865.00 L 2830.00 1865.00 L 2810.00 1864.00 L 2570.00 1864.00 L 2550.00 1863.00 L 2330.00 1863.00 L 2310.00 1862.00 L 2090.00 1862.00 L 2070.00 1861.00 L 1850.00 1861.00 L 1830.00 1860.00 L 1610.00 1860.00 L 1590.00 1859.00 L 1370.00 1859.00 L 1350.00 1858.00 L 1130.00 1858.00 L 1110.00 1857.00 Z" />
<path id="csg562-042-11" fill="none" stroke="black" stroke-width="1" d="M 1150.00 1952.00 L 1130.00 1972.00 L 1050.00 1972.00 L 1030.00 1971.00 L 890.00 1971.00 L 874.15 1978.93 L 872.98 2089.51 L 890.00 2081.00 L 1030.00 2081.00 L 1050.00 2082.00 L 1110.00 2082.00 L 1130.00 2062.00 L 1150.00 2082.00 L 1170.00 2062.00 L 1190.00 2082.00 L 1210.00 2083.00 L 1350.00 2083.00 L 1370.00 2084.00 L 1510.00 2084.00 L 1530.00 2085.00 L 1690.00 2085.00 L 1710.00 2086.00 L 1850.00 2086.00 L 1870.00 2087.00 L 2010.00 2087.00 L 2030.00 2088.00 L 2170.00 2088.00 L 2190.00 2089.00 L 2330.00 2089.00 L 2350.00 2090.00 L 2510.00 2090.00 L 2530.00 2091.00 L 2670.00 2091.00 L 2690.00 2092.00 L 2830.00 2092.00 L 2850.00 2093.00 L 2952.14 2093.00 L 2940.32 1983.00 L 2910.00 1983.00 L 2890.00 1982.00 L 2730.00 1982.00 L 2710.00 1981.00 L 2570.00 1981.00 L 2550.00 1980.00 L 2390.00 1980.00 L 2370.00 1979.00 L 2230.00 1979.00 L 2210.00 1978.00 L 2070.00 1978.00 L 2050.00 1977.00 L 1890.00 1977.00 L 1870.00 1976.00 L 1730.00 1976.00 L 1710.00 1975.00 L 1550.00 1975.00 L 1530.00 1974.00 L 1390.00 1974.00 L 1370.00 1973.00 L 1210.00 1973.00 L 1190.00 1952.00 Z" />
<path id="csg562-042-12" fill="none" stroke="black" stroke-width="1" d="M 1130.00 2062.00 L 1110.00 2082.00 L 1050.00 2082.00 L 1030.00 2081.00 L 890.00 2081.00 L 872.98 2089.51 L 871.80 2202.10 L 890.00 2193.00 L 1030.00 2193.00 L 1050.00 2194.00 L 1190.00 2194.00 L 1210.00 2195.00 L 1370.00 2195.00 L 1390.00 2196.00 L 1530.00 2196.00 L 1550.00 2197.00 L 1710.00 2197.00 L 1730.00 2198.00 L 1870.00 2198.00 L 1890.00 2199.00 L 2050.00 2199.00 L 2070.00 2200.00 L 2210.00 2200.00 L 2230.00 2201.00 L 2390.00 2201.00 L 2410.00 2202.00 L 2550.00 2202.00 L 2570.00 2203.00 L 2730.00 2203.00 L 2750.00 2204.00 L 2890.00 2204.00 L 2910.00 2205.00 L 2964.17 2205.00 L 2952.14 2093.00 L 2850.00 2093.00 L 2830.00 2092.00 L 2690.00 2092.00 L 2670.00 2091.00 L 2530.00 2091.00 L 2510.00 2090.00 L 2350.00 2090.00 L 2330.00 2089.00 L 2190.00 2089.00 L 2170.00 2088.00 L 2030.00 2088.00 L 2010.00 2087.00 L 1870.00 2087.00 L 1850.00 2086.00 L 1710.00 2086.00 L 1690.00 2085.00 L 1530.00 2085.00 L 1510.00 2084.00 L 1370.00 2084.00 L 1350.00 2083.00 L 1210.00 2083.00 L 1190.00 2082.00 L 1170.00 2062.00 L 1150.00 2082.00 L 1130.00 2062.00 Z" />
<path id="csg562-042-13" fill="none" stroke="black" stroke-width="1" d="M 890.00 2193.00 L 871.80 2202.10 L 870.73 2303.64 L 890.00 2294.00 L 910.00 2314.00 L 930.00 2294.00 L 1030.00 2294.00 L 1050.00 2295.00 L 1070.00 2315.00 L 1090.00 2295.00 L 1210.00 2295.00 L 1230.00 2296.00 L 1370.00 2296.00 L 1390.00 2297.00 L 1550.00 2297.00 L 1570.00 2298.00 L 1710.00 2298.00 L 1730.00 2299.00 L 1890.00 2299.00 L 1910.00 2300.00 L 2050.00 2300.00 L 2070.00 2301.00 L 2230.00 2301.00 L 2250.00 2302.00 L 2390.00 2302.00 L 2410.00 2303.00 L 2570.00 2303.00 L 2590.00 2304.00 L 2730.00 2304.00 L 2750.00 2305.00 L 2910.00 2305.00 L 2930.00 2306.00 L 2975.02 2306.00 L 2964.17 2205.00 L 2910.00 2205.00 L 2890.00 2204.00 L 2750.00 2204.00 L 2730.00 2203.00 L 2570.00 2203.00 L 2550.00 2202.00 L 2410.00 2202.00 L 2390.00 2201.00 L 2230.00 2201.00 L 2210.00 2200.00 L 2070.00 2200.00 L 2050.00 2199.00 L 1890.00 2199.00 L 1870.00 2198.00 L 1730.00 2198.00 L 1710.00 2197.00 L 1550.00 2197.00 L 1530.00 2196.00 L 1390.00 2196.00 L 1370.00 2195.00 L 1210.00 2195.00 L 1190.00 2194.00 L 1050.00 2194.00 L 1030.00 2193.00 Z" />
<path id="csg562-042-14" fill="none" stroke="black" stroke-width="1" d="M 890.00 2294.00 L 870.73 2303.64 L 870.00 2373.00 L 870.00 2426.00 L 890.00 2416.00 L 990.00 2416.00 L 1010.00 2396.00 L 1030.00 2396.00 L 1050.00 2416.00 L 1290.00 2416.00 L 1310.00 2417.00 L 1710.00 2417.00 L 1730.00 2418.00 L 2130.00 2418.00 L 2150.00 2419.00 L 2550.00 2419.00 L 2570.00 2420.00 L 2965.41 2420.00 L 2979.00 2343.00 L 2975.02 2306.00 L 2930.00 2306.00 L 2910.00 2305.00 L 2750.00 2305.00 L 2730.00 2304.00 L 2590.00 2304.00 L 2570.00 2303.00 L 2410.00 2303.00 L 2390.00 2302.00 L 2250.00 2302.00 L 2230.00 2301.00 L 2070.00 2301.00 L 2050.00 2300.00 L 1910.00 2300.00 L 1890.00 2299.00 L 1730.00 2299.00 L 1710.00 2298.00 L 1570.00 2298.00 L 1550.00 2297.00 L 1390.00 2297.00 L 1370.00 2296.00 L 1230.00 2296.00 L 1210.00 2295.00 L 1090.00 2295.00 L 1070.00 2315.00 L 1050.00 2295.00 L 1030.00 2294.00 L 930.00 2294.00 L 910.00 2314.00 L 890.00 2294.00 Z" />
<path id="csg562-042-15" fill="none" stroke="black" stroke-width="1" d="M 1010.00 2396.00 L 990.00 2416.00 L 890.00 2416.00 L 870.00 2426.00 L 870.00 2533.00 L 890.00 2543.00 L 910.00 2543.00 L 930.00 2523.00 L 1210.00 2523.00 L 1230.00 2543.00 L 1250.00 2523.00 L 1850.00 2523.00 L 1870.00 2543.00 L 1890.00 2543.00 L 1910.00 2523.00 L 2947.24 2523.00 L 2965.41 2420.00 L 2570.00 2420.00 L 2550.00 2419.00 L 2150.00 2419.00 L 2130.00 2418.00 L 1730.00 2418.00 L 1710.00 2417.00 L 1310.00 2417.00 L 1290.00 2416.00 L 1050.00 2416.00 L 1030.00 2396.00 Z" />
<path id="csg562-042-16" fill="none" stroke="black" stroke-width="1" d="M 930.00 2523.00 L 910.00 2543.00 L 890.00 2543.00 L 870.00 2533.00 L 870.00 2648.00 L 890.00 2637.00 L 1010.00 2637.00 L 1030.00 2635.00 L 1070.00 2635.00 L 1090.00 2641.00 L 1110.00 2647.00 L 1130.00 2655.00 L 1150.00 2661.00 L 1170.00 2669.00 L 1190.00 2671.00 L 1250.00 2671.00 L 1270.00 2667.00 L 1290.00 2663.00 L 1310.00 2647.00 L 1330.00 2635.00 L 1350.00 2637.00 L 1630.00 2637.00 L 1650.00 2657.00 L 1670.00 2637.00 L 1690.00 2657.00 L 1710.00 2657.00 L 1730.00 2637.00 L 2956.85 2637.00 L 2943.00 2547.00 L 2947.24 2523.00 L 1910.00 2523.00 L 1890.00 2543.00 L 1870.00 2543.00 L 1850.00 2523.00 L 1250.00 2523.00 L 1230.00 2543.00 L 1210.00 2523.00 Z" />
<path id="csg562-042-17" fill="none" stroke="black" stroke-width="1" d="M 1910.00 2642.00 L 1890.00 2662.00 L 1290.00 2662.00 L 1270.00 2682.00 L 1150.00 2682.00 L 1130.00 2662.00 L 890.00 2662.00 L 870.00 2672.00 L 870.00 2753.00 L 890.00 2743.00 L 1270.00 2743.00 L 1290.00 2744.00 L 1690.00 2744.00 L 1710.00 2745.00 L 1750.00 2745.00 L 1770.00 2725.00 L 1790.00 2745.00 L 2110.00 2745.00 L 2130.00 2746.00 L 2530.00 2746.00 L 2550.00 2747.00 L 2930.00 2747.00 L 2950.00 2748.00 L 2973.92 2748.00 L 2960.69 2662.00 L 2630.00 2662.00 L 2610.00 2642.00 L 2590.00 2642.00 L 2570.00 2662.00 L 2110.00 2662.00 L 2090.00 2642.00 L 2070.00 2662.00 L 2050.00 2642.00 Z" />
<path id="csg562-042-18" fill="none" stroke="black" stroke-width="1" d="M 1770.00 2725.00 L 1750.00 2745.00 L 1710.00 2745.00 L 1690.00 2744.00 L 1290.00 2744.00 L 1270.00 2743.00 L 890.00 2743.00 L 870.00 2753.00 L 870.00 2868.00 L 890.00 2858.00 L 1070.00 2858.00 L 1090.00 2859.00 L 1290.00 2859.00 L 1310.00 2860.00 L 1490.00 2860.00 L 1510.00 2861.00 L 1710.00 2861.00 L 1730.00 2862.00 L 1910.00 2862.00 L 1930.00 2863.00 L 2130.00 2863.00 L 2150.00 2864.00 L 2330.00 2864.00 L 2350.00 2865.00 L 2550.00 2865.00 L 2570.00 2866.00 L 2750.00 2866.00 L 2770.00 2867.00 L 2970.00 2867.00 L 2987.81 2867.89 L 2979.00 2781.00 L 2973.92 2748.00 L 2950.00 2748.00 L 2930.00 2747.00 L 2550.00 2747.00 L 2530.00 2746.00 L 2130.00 2746.00 L 2110.00 2745.00 L 1790.00 2745.00 L 1770.00 2725.00 Z" />
<path id="csg562-042-19" fill="none" stroke="black" stroke-width="1" d="M 890.00 2858.00 L 870.00 2868.00 L 870.00 2982.00 L 890.00 2972.00 L 1150.00 2972.00 L 1170.00 2973.00 L 1450.00 2973.00 L 1470.00 2974.00 L 1750.00 2974.00 L 1770.00 2975.00 L 2050.00 2975.00 L 2070.00 2976.00 L 2350.00 2976.00 L 2370.00 2977.00 L 2650.00 2977.00 L 2670.00 2978.00 L 2950.00 2978.00 L 2970.00 2979.00 L 2999.09 2979.00 L 2987.81 2867.89 L 2970.00 2867.00 L 2770.00 2867.00 L 2750.00 2866.00 L 2570.00 2866.00 L 2550.00 2865.00 L 2350.00 2865.00 L 2330.00 2864.00 L 2150.00 2864.00 L 2130.00 2863.00 L 1930.00 2863.00 L 1910.00 2862.00 L 1730.00 2862.00 L 1710.00 2861.00 L 1510.00 2861.00 L 1490.00 2860.00 L 1310.00 2860.00 L 1290.00 2859.00 L 1090.00 2859.00 L 1070.00 2858.00 Z" />
<path id="csg562-042-20" fill="none" stroke="black" stroke-width="1" d="M 890.00 2972.00 L 870.00 2982.00 L 870.00 3069.00 L 871.19 3085.02 L 890.00 3038.00 L 910.00 3058.00 L 930.00 3058.00 L 950.00 3078.00 L 1230.00 3078.00 L 1250.00 3079.00 L 1610.00 3079.00 L 1630.00 3080.00 L 1970.00 3080.00 L 1990.00 3100.00 L 2010.00 3081.00 L 2350.00 3081.00 L 2370.00 3082.00 L 2730.00 3082.00 L 2750.00 3083.00 L 2912.70 3083.00 L 3000.00 2988.00 L 2999.09 2979.00 L 2970.00 2979.00 L 2950.00 2978.00 L 2670.00 2978.00 L 2650.00 2977.00 L 2370.00 2977.00 L 2350.00 2976.00 L 2070.00 2976.00 L 2050.00 2975.00 L 1770.00 2975.00 L 1750.00 2974.00 L 1470.00 2974.00 L 1450.00 2973.00 L 1170.00 2973.00 L 1150.00 2972.00 Z" />
<path id="csg562-042-21" fill="none" stroke="black" stroke-width="1" d="M 890.00 3038.00 L 871.19 3085.02 L 878.81 3187.59 L 890.00 3182.00 L 1130.00 3182.00 L 1150.00 3183.00 L 1410.00 3183.00 L 1430.00 3184.00 L 1670.00 3184.00 L 1690.00 3185.00 L 1950.00 3185.00 L 1970.00 3186.00 L 2210.00 3186.00 L 2230.00 3187.00 L 2490.00 3187.00 L 2510.00 3188.00 L 2750.00 3188.00 L 2770.00 3189.00 L 2920.13 3189.00 L 2898.00 3099.00 L 2912.70 3083.00 L 2750.00 3083.00 L 2730.00 3082.00 L 2370.00 3082.00 L 2350.00 3081.00 L 2010.00 3081.00 L 1990.00 3100.00 L 1970.00 3080.00 L 1630.00 3080.00 L 1610.00 3079.00 L 1250.00 3079.00 L 1230.00 3078.00 L 950.00 3078.00 L 930.00 3058.00 L 910.00 3058.00 L 890.00 3038.00 Z" />
<path id="csg562-042-22" fill="none" stroke="black" stroke-width="1" d="M 890.00 3182.00 L 878.81 3187.59 L 887.20 3300.40 L 890.00 3299.00 L 1190.00 3299.00 L 1210.00 3300.00 L 1530.00 3300.00 L 1550.00 3301.00 L 1870.00 3301.00 L 1890.00 3302.00 L 2210.00 3302.00 L 2230.00 3303.00 L 2530.00 3303.00 L 2550.00 3304.00 L 2870.00 3304.00 L 2890.00 3305.00 L 2899.71 3305.00 L 2943.00 3282.00 L 2920.13 3189.00 L 2770.00 3189.00 L 2750.00 3188.00 L 2510.00 3188.00 L 2490.00 3187.00 L 2230.00 3187.00 L 2210.00 3186.00 L 1970.00 3186.00 L 1950.00 3185.00 L 1690.00 3185.00 L 1670.00 3184.00 L 1430.00 3184.00 L 1410.00 3183.00 L 1150.00 3183.00 L 1130.00 3182.00 Z" />
<path id="csg562-042-23" fill="none" stroke="black" stroke-width="1" d="M 890.00 3299.00 L 887.20 3300.40 L 893.94 3391.06 L 910.00 3375.00 L 930.00 3395.00 L 970.00 3395.00 L 990.00 3415.00 L 1150.00 3415.00 L 1170.00 3416.00 L 1450.00 3416.00 L 1470.00 3417.00 L 1610.00 3417.00 L 1630.00 3437.00 L 1650.00 3437.00 L 1670.00 3417.00 L 1730.00 3417.00 L 1750.00 3418.00 L 2030.00 3418.00 L 2050.00 3419.00 L 2310.00 3419.00 L 2330.00 3420.00 L 2610.00 3420.00 L 2630.00 3421.00 L 2904.04 3421.00 L 2847.00 3333.00 L 2899.71 3305.00 L 2890.00 3305.00 L 2870.00 3304.00 L 2550.00 3304.00 L 2530.00 3303.00 L 2230.00 3303.00 L 2210.00 3302.00 L 1890.00 3302.00 L 1870.00 3301.00 L 1550.00 3301.00 L 1530.00 3300.00 L 1210.00 3300.00 L 1190.00 3299.00 Z" />
<path id="csg562-042-24" fill="none" stroke="black" stroke-width="1" d="M 910.00 3375.00 L 893.94 3391.06 L 903.00 3513.00 L 1060.50 3518.00 L 1185.50 3518.00 L 1653.00 3513.00 L 1836.00 3519.00 L 1872.50 3520.00 L 1990.00 3520.00 L 2010.00 3521.00 L 2350.00 3521.00 L 2370.00 3522.00 L 2530.00 3522.00 L 2549.20 3541.20 L 2550.75 3541.25 L 2570.00 3522.00 L 2730.00 3522.00 L 2749.27 3522.96 L 2952.00 3495.00 L 2904.04 3421.00 L 2630.00 3421.00 L 2610.00 3420.00 L 2330.00 3420.00 L 2310.00 3419.00 L 2050.00 3419.00 L 2030.00 3418.00 L 1750.00 3418.00 L 1730.00 3417.00 L 1670.00 3417.00 L 1650.00 3437.00 L 1630.00 3437.00 L 1610.00 3417.00 L 1470.00 3417.00 L 1450.00 3416.00 L 1170.00 3416.00 L 1150.00 3415.00 L 990.00 3415.00 L 970.00 3395.00 L 930.00 3395.00 L 910.00 3375.00 Z" />
</svg>
