<?xml version="1.0" standalone="no"?>
<!DOCTYPE svg PUBLIC "-//W3C//DTD SVG 1.1//EN" "http://www.w3.org/Graphics/SVG/1.1/DTD/svg11.dtd">
<svg width="46.22222in" height="69.333336in" viewBox="0 0 3328 4992" xmlns="http://www.w3.org/2000/svg" version="1.1">
<path id="csg562-064-01" fill="none" stroke="black" stroke-width="1" d="M 1323.00 792.00 L 903.00 810.00 L 895.75 897.00 L 900.00 897.00 L 920.00 898.00 L 940.00 898.00 L 960.00 899.00 L 980.00 899.00 L 1000.00 900.00 L 1020.00 900.00 L 1040.00 901.00 L 1060.00 901.00 L 1080.00 902.00 L 1100.00 902.00 L 1120.00 903.00 L 1140.00 903.00 L 1160.00 904.00 L 1180.00 904.00 L 1200.00 905.00 L 1220.00 905.00 L 1240.00 906.00 L 1260.00 906.00 L 1280.00 907.00 L 1300.00 908.00 L 1320.00 908.00 L 1340.00 909.00 L 1360.00 909.00 L 1380.00 910.00 L 1400.00 910.00 L 1420.00 911.00 L 1440.00 911.00 L 1460.00 912.00 L 1480.00 912.00 L 1500.00 913.00 L 1520.00 933.00 L 1540.00 914.00 L 1560.00 914.00 L 1580.00 915.00 L 1600.00 915.00 L 1620.00 916.00 L 1640.00 916.00 L 1660.00 917.00 L 1680.00 917.00 L 1700.00 918.00 L 1720.00 919.00 L 1740.00 919.00 L 1760.00 920.00 L 1780.00 920.00 L 1800.00 921.00 L 1820.00 921.00 L 1840.00 922.00 L 1860.00 922.00 L 1880.00 923.00 L 1900.00 923.00 L 1920.00 924.00 L 1940.00 924.00 L 1960.00 925.00 L 1980.00 925.00 L 2000.00 926.00 L 2020.00 926.00 L 2040.00 927.00 L 2060.00 927.00 L 2080.00 908.00 L 2100.00 928.00 L 2120.00 929.00 L 2140.00 930.00 L 2160.00 930.00 L 2180.00 931.00 L 2200.00 931.00 L 2220.00 932.00 L 2240.00 932.00 L 2260.00 933.00 L 2280.00 933.00 L 2300.00 934.00 L 2320.00 934.00 L 2340.00 935.00 L 2360.00 935.00 L 2380.00 936.00 L 2400.00 936.00 L 2420.00 937.00 L 2440.00 937.00 L 2460.00 938.00 L 2480.00 938.00 L 2500.00 939.00 L 2520.00 939.00 L 2540.00 940.00 L 2560.00 921.00 L 2580.00 921.00 L 2600.00 922.00 L 2620.00 942.00 L 2640.00 943.00 L 2660.00 943.00 L 2680.00 944.00 L 2700.00 944.00 L 2720.00 945.00 L 2740.00 945.00 L 2760.00 946.00 L 2780.00 946.00 L 2800.00 947.00 L 2820.00 947.00 L 2840.00 948.00 L 2860.00 948.00 L 2880.00 949.00 L 2900.00 949.00 L 2920.00 950.00 L 2940.00 950.00 L 2960.00 951.00 L 2980.00 952.00 L 2981.00 952.00 L 2988.00 846.00 L 2952.53 833.63 L 2940.00 833.00 L 2920.00 833.00 L 2900.00 832.00 L 2880.00 832.00 L 2860.00 811.00 L 2840.00 811.00 L 2820.00 830.00 L 2800.00 830.00 L 2780.00 829.00 L 2760.00 829.00 L 2740.00 828.00 L 2720.00 828.00 L 2700.00 827.00 L 2680.00 827.00 L 2660.00 826.00 L 2640.00 826.00 L 2620.00 825.00 L 2600.00 825.00 L 2580.00 824.00 L 2560.00 823.00 L 2540.00 823.00 L 2520.00 822.00 L 2500.00 822.00 L 2480.00 821.00 L 2460.00 821.00 L 2440.00 820.00 L 2420.00 820.00 L 2400.00 819.00 L 2380.00 819.00 L 2360.00 818.00 L 2340.00 818.00 L 2320.00 817.00 L 2300.00 817.00 L 2280.00 816.00 L 2260.00 816.00 L 2240.00 815.00 L 2220.00 815.00 L 2200.00 814.00 L 2180.00 814.00 L 2160.00 813.00 L 2140.00 813.00 L 2120.00 812.00 L 2100.00 812.00 L 2080.00 811.00 L 2060.00 811.00 L 2040.00 810.00 L 2020.00 810.00 L 2000.00 809.00 L 1980.00 809.00 L 1960.00 808.00 L 1940.00 808.00 L 1920.00 807.00 L 1900.00 807.00 L 1880.00 806.00 L 1860.00 806.00 L 1840.00 805.00 L 1820.00 805.00 L 1800.00 804.00 L 1780.00 804.00 L 1760.00 803.00 L 1740.00 803.00 L 1720.00 802.00 L 1700.00 801.00 L 1680.00 801.00 L 1660.00 800.00 L 1640.00 800.00 L 1620.00 799.00 L 1600.00 799.00 L 1580.00 798.00 L 1560.00 798.00 L 1540.00 797.00 L 1520.00 797.00 L 1500.00 796.00 L 1480.00 796.00 L 1460.00 795.00 L 1440.00 795.00 L 1420.00 794.00 L 1400.00 794.00 L 1380.00 793.00 L 1360.00 793.00 L 1340.00 792.00 Z" />
<path id="csg562-064-02" fill="none" stroke="black" stroke-width="1" d="M 895.75 897.00 L 886.72 1005.34 L 900.00 1006.00 L 920.00 1006.00 L 940.00 1007.00 L 960.00 987.00 L 980.00 1008.00 L 1000.00 1008.00 L 1020.00 1009.00 L 1040.00 1009.00 L 1060.00 1010.00 L 1080.00 1010.00 L 1100.00 1011.00 L 1120.00 1011.00 L 1140.00 1012.00 L 1160.00 1012.00 L 1180.00 1013.00 L 1200.00 1013.00 L 1220.00 1014.00 L 1240.00 1014.00 L 1260.00 995.00 L 1280.00 995.00 L 1300.00 1016.00 L 1320.00 1016.00 L 1340.00 1017.00 L 1360.00 1017.00 L 1380.00 1018.00 L 1420.00 1018.00 L 1440.00 1019.00 L 1460.00 1019.00 L 1480.00 1020.00 L 1500.00 1020.00 L 1520.00 1021.00 L 1540.00 1021.00 L 1560.00 1022.00 L 1580.00 1022.00 L 1600.00 1023.00 L 1620.00 1023.00 L 1640.00 1024.00 L 1660.00 1024.00 L 1680.00 1025.00 L 1700.00 1025.00 L 1720.00 1026.00 L 1740.00 1026.00 L 1760.00 1007.00 L 1780.00 1027.00 L 1800.00 1028.00 L 1820.00 1028.00 L 1840.00 1029.00 L 1860.00 1029.00 L 1880.00 1030.00 L 1900.00 1030.00 L 1920.00 1031.00 L 1940.00 1031.00 L 1960.00 1032.00 L 2000.00 1032.00 L 2020.00 1033.00 L 2040.00 1033.00 L 2060.00 1034.00 L 2080.00 1034.00 L 2100.00 1035.00 L 2120.00 1035.00 L 2140.00 1036.00 L 2160.00 1036.00 L 2180.00 1037.00 L 2200.00 1037.00 L 2220.00 1038.00 L 2240.00 1038.00 L 2260.00 1039.00 L 2280.00 1039.00 L 2300.00 1040.00 L 2320.00 1040.00 L 2340.00 1041.00 L 2360.00 1041.00 L 2380.00 1042.00 L 2400.00 1042.00 L 2420.00 1043.00 L 2440.00 1043.00 L 2460.00 1044.00 L 2480.00 1044.00 L 2500.00 1045.00 L 2540.00 1045.00 L 2560.00 1046.00 L 2580.00 1046.00 L 2600.00 1047.00 L 2620.00 1047.00 L 2640.00 1048.00 L 2660.00 1048.00 L 2680.00 1049.00 L 2700.00 1049.00 L 2720.00 1050.00 L 2740.00 1050.00 L 2760.00 1051.00 L 2780.00 1051.00 L 2800.00 1052.00 L 2820.00 1052.00 L 2840.00 1053.00 L 2860.00 1053.00 L 2880.00 1054.00 L 2900.00 1054.00 L 2920.00 1055.00 L 2940.00 1055.00 L 2960.00 1056.00 L 2974.13 1056.00 L 2981.00 952.00 L 2980.00 952.00 L 2960.00 951.00 L 2940.00 950.00 L 2920.00 950.00 L 2900.00 949.00 L 2880.00 949.00 L 2860.00 948.00 L 2840.00 948.00 L 2820.00 947.00 L 2800.00 947.00 L 2780.00 946.00 L 2760.00 946.00 L 2740.00 945.00 L 2720.00 945.00 L 2700.00 944.00 L 2680.00 944.00 L 2660.00 943.00 L 2640.00 943.00 L 2620.00 942.00 L 2600.00 922.00 L 2580.00 921.00 L 2560.00 921.00 L 2540.00 940.00 L 2520.00 939.00 L 2500.00 939.00 L 2480.00 938.00 L 2460.00 938.00 L 2440.00 937.00 L 2420.00 937.00 L 2400.00 936.00 L 2380.00 936.00 L 2360.00 935.00 L 2340.00 935.00 L 2320.00 934.00 L 2300.00 934.00 L 2280.00 933.00 L 2260.00 933.00 L 2240.00 932.00 L 2220.00 932.00 L 2200.00 931.00 L 2180.00 931.00 L 2160.00 930.00 L 2140.00 930.00 L 2120.00 929.00 L 2100.00 928.00 L 2080.00 908.00 L 2060.00 927.00 L 2040.00 927.00 L 2020.00 926.00 L 2000.00 926.00 L 1980.00 925.00 L 1960.00 925.00 L 1940.00 924.00 L 1920.00 924.00 L 1900.00 923.00 L 1880.00 923.00 L 1860.00 922.00 L 1840.00 922.00 L 1820.00 921.00 L 1800.00 921.00 L 1780.00 920.00 L 1760.00 920.00 L 1740.00 919.00 L 1720.00 919.00 L 1700.00 918.00 L 1680.00 917.00 L 1660.00 917.00 L 1640.00 916.00 L 1620.00 916.00 L 1600.00 915.00 L 1580.00 915.00 L 1560.00 914.00 L 1540.00 914.00 L 1520.00 933.00 L 1500.00 913.00 L 1480.00 912.00 L 1460.00 912.00 L 1440.00 911.00 L 1420.00 911.00 L 1400.00 910.00 L 1380.00 910.00 L 1360.00 909.00 L 1340.00 909.00 L 1320.00 908.00 L 1300.00 908.00 L 1280.00 907.00 L 1260.00 906.00 L 1240.00 906.00 L 1220.00 905.00 L 1200.00 905.00 L 1180.00 904.00 L 1160.00 904.00 L 1140.00 903.00 L 1120.00 903.00 L 1100.00 902.00 L 1080.00 902.00 L 1060.00 901.00 L 1040.00 901.00 L 1020.00 900.00 L 1000.00 900.00 L 980.00 899.00 L 960.00 899.00 L 940.00 898.00 L 920.00 898.00 L 900.00 897.00 Z" />
<path id="csg562-064-03" fill="none" stroke="black" stroke-width="1" d="M 960.00 987.00 L 940.00 1007.00 L 920.00 1006.00 L 900.00 1006.00 L 886.72 1005.34 L 876.08 1133.00 L 880.00 1133.00 L 900.00 1134.00 L 920.00 1134.00 L 940.00 1135.00 L 980.00 1135.00 L 1000.00 1136.00 L 1020.00 1136.00 L 1040.00 1137.00 L 1060.00 1137.00 L 1080.00 1138.00 L 1120.00 1138.00 L 1140.00 1139.00 L 1160.00 1139.00 L 1180.00 1140.00 L 1200.00 1140.00 L 1220.00 1141.00 L 1260.00 1141.00 L 1280.00 1142.00 L 1300.00 1142.00 L 1320.00 1123.00 L 1340.00 1123.00 L 1360.00 1144.00 L 1380.00 1124.00 L 1400.00 1144.00 L 1420.00 1145.00 L 1440.00 1145.00 L 1460.00 1146.00 L 1500.00 1146.00 L 1520.00 1147.00 L 1540.00 1147.00 L 1560.00 1148.00 L 1580.00 1148.00 L 1600.00 1149.00 L 1640.00 1149.00 L 1660.00 1150.00 L 1680.00 1150.00 L 1700.00 1151.00 L 1720.00 1131.00 L 1740.00 1152.00 L 1760.00 1152.00 L 1780.00 1132.00 L 1800.00 1153.00 L 1820.00 1153.00 L 1840.00 1154.00 L 1860.00 1154.00 L 1880.00 1155.00 L 1920.00 1155.00 L 1940.00 1156.00 L 1960.00 1156.00 L 1980.00 1157.00 L 2000.00 1157.00 L 2020.00 1158.00 L 2060.00 1158.00 L 2080.00 1159.00 L 2100.00 1159.00 L 2120.00 1160.00 L 2160.00 1160.00 L 2180.00 1161.00 L 2200.00 1161.00 L 2220.00 1162.00 L 2240.00 1142.00 L 2260.00 1163.00 L 2300.00 1163.00 L 2320.00 1164.00 L 2340.00 1164.00 L 2360.00 1165.00 L 2380.00 1165.00 L 2400.00 1166.00 L 2440.00 1166.00 L 2460.00 1167.00 L 2480.00 1167.00 L 2500.00 1168.00 L 2520.00 1168.00 L 2540.00 1169.00 L 2580.00 1169.00 L 2600.00 1170.00 L 2620.00 1170.00 L 2640.00 1171.00 L 2660.00 1171.00 L 2680.00 1172.00 L 2720.00 1172.00 L 2740.00 1173.00 L 2760.00 1173.00 L 2780.00 1174.00 L 2820.00 1174.00 L 2840.00 1175.00 L 2860.00 1175.00 L 2880.00 1176.00 L 2900.00 1176.00 L 2920.00 1177.00 L 2960.00 1177.00 L 2980.00 1178.00 L 3000.00 1178.00 L 3020.00 1179.00 L 3040.00 1179.00 L 3043.33 1179.17 L 3039.00 1131.00 L 2967.00 1164.00 L 2974.13 1056.00 L 2960.00 1056.00 L 2940.00 1055.00 L 2920.00 1055.00 L 2900.00 1054.00 L 2880.00 1054.00 L 2860.00 1053.00 L 2840.00 1053.00 L 2820.00 1052.00 L 2800.00 1052.00 L 2780.00 1051.00 L 2760.00 1051.00 L 2740.00 1050.00 L 2720.00 1050.00 L 2700.00 1049.00 L 2680.00 1049.00 L 2660.00 1048.00 L 2640.00 1048.00 L 2620.00 1047.00 L 2600.00 1047.00 L 2580.00 1046.00 L 2560.00 1046.00 L 2540.00 1045.00 L 2500.00 1045.00 L 2480.00 1044.00 L 2460.00 1044.00 L 2440.00 1043.00 L 2420.00 1043.00 L 2400.00 1042.00 L 2380.00 1042.00 L 2360.00 1041.00 L 2340.00 1041.00 L 2320.00 1040.00 L 2300.00 1040.00 L 2280.00 1039.00 L 2260.00 1039.00 L 2240.00 1038.00 L 2220.00 1038.00 L 2200.00 1037.00 L 2180.00 1037.00 L 2160.00 1036.00 L 2140.00 1036.00 L 2120.00 1035.00 L 2100.00 1035.00 L 2080.00 1034.00 L 2060.00 1034.00 L 2040.00 1033.00 L 2020.00 1033.00 L 2000.00 1032.00 L 1960.00 1032.00 L 1940.00 1031.00 L 1920.00 1031.00 L 1900.00 1030.00 L 1880.00 1030.00 L 1860.00 1029.00 L 1840.00 1029.00 L 1820.00 1028.00 L 1800.00 1028.00 L 1780.00 1027.00 L 1760.00 1007.00 L 1740.00 1026.00 L 1720.00 1026.00 L 1700.00 1025.00 L 1680.00 1025.00 L 1660.00 1024.00 L 1640.00 1024.00 L 1620.00 1023.00 L 1600.00 1023.00 L 1580.00 1022.00 L 1560.00 1022.00 L 1540.00 1021.00 L 1520.00 1021.00 L 1500.00 1020.00 L 1480.00 1020.00 L 1460.00 1019.00 L 1440.00 1019.00 L 1420.00 1018.00 L 1380.00 1018.00 L 1360.00 1017.00 L 1340.00 1017.00 L 1320.00 1016.00 L 1300.00 1016.00 L 1280.00 995.00 L 1260.00 995.00 L 1240.00 1014.00 L 1220.00 1014.00 L 1200.00 1013.00 L 1180.00 1013.00 L 1160.00 1012.00 L 1140.00 1012.00 L 1120.00 1011.00 L 1100.00 1011.00 L 1080.00 1010.00 L 1060.00 1010.00 L 1040.00 1009.00 L 1020.00 1009.00 L 1000.00 1008.00 L 980.00 1008.00 L 960.00 987.00 Z" />
<path id="csg562-064-04" fill="none" stroke="black" stroke-width="1" d="M 1320.00 1123.00 L 1300.00 1142.00 L 1280.00 1142.00 L 1260.00 1141.00 L 1220.00 1141.00 L 1200.00 1140.00 L 1180.00 1140.00 L 1160.00 1139.00 L 1140.00 1139.00 L 1120.00 1138.00 L 1080.00 1138.00 L 1060.00 1137.00 L 1040.00 1137.00 L 1020.00 1136.00 L 1000.00 1136.00 L 980.00 1135.00 L 940.00 1135.00 L 920.00 1134.00 L 900.00 1134.00 L 880.00 1133.00 L 876.08 1133.00 L 867.25 1239.00 L 900.00 1239.00 L 920.00 1240.00 L 980.00 1240.00 L 1000.00 1241.00 L 1040.00 1241.00 L 1060.00 1242.00 L 1080.00 1222.00 L 1100.00 1222.00 L 1120.00 1242.00 L 1140.00 1243.00 L 1200.00 1243.00 L 1220.00 1244.00 L 1260.00 1244.00 L 1280.00 1245.00 L 1340.00 1245.00 L 1360.00 1246.00 L 1420.00 1246.00 L 1440.00 1247.00 L 1480.00 1247.00 L 1500.00 1248.00 L 1560.00 1248.00 L 1580.00 1249.00 L 1620.00 1249.00 L 1640.00 1250.00 L 1700.00 1250.00 L 1720.00 1251.00 L 1780.00 1251.00 L 1800.00 1252.00 L 1840.00 1252.00 L 1860.00 1253.00 L 1920.00 1253.00 L 1940.00 1254.00 L 2000.00 1254.00 L 2020.00 1255.00 L 2060.00 1255.00 L 2080.00 1256.00 L 2140.00 1256.00 L 2160.00 1257.00 L 2220.00 1257.00 L 2240.00 1258.00 L 2280.00 1258.00 L 2300.00 1259.00 L 2360.00 1259.00 L 2380.00 1260.00 L 2420.00 1260.00 L 2440.00 1261.00 L 2500.00 1261.00 L 2520.00 1262.00 L 2580.00 1262.00 L 2600.00 1263.00 L 2640.00 1263.00 L 2660.00 1284.00 L 2680.00 1264.00 L 2720.00 1264.00 L 2740.00 1265.00 L 2800.00 1265.00 L 2820.00 1266.00 L 2860.00 1266.00 L 2880.00 1267.00 L 2900.00 1267.00 L 2920.00 1287.00 L 2940.00 1287.00 L 2960.00 1268.00 L 3020.00 1268.00 L 3040.00 1269.00 L 3051.40 1269.00 L 3043.33 1179.17 L 3040.00 1179.00 L 3020.00 1179.00 L 3000.00 1178.00 L 2980.00 1178.00 L 2960.00 1177.00 L 2920.00 1177.00 L 2900.00 1176.00 L 2880.00 1176.00 L 2860.00 1175.00 L 2840.00 1175.00 L 2820.00 1174.00 L 2780.00 1174.00 L 2760.00 1173.00 L 2740.00 1173.00 L 2720.00 1172.00 L 2680.00 1172.00 L 2660.00 1171.00 L 2640.00 1171.00 L 2620.00 1170.00 L 2600.00 1170.00 L 2580.00 1169.00 L 2540.00 1169.00 L 2520.00 1168.00 L 2500.00 1168.00 L 2480.00 1167.00 L 2460.00 1167.00 L 2440.00 1166.00 L 2400.00 1166.00 L 2380.00 1165.00 L 2360.00 1165.00 L 2340.00 1164.00 L 2320.00 1164.00 L 2300.00 1163.00 L 2260.00 1163.00 L 2240.00 1142.00 L 2220.00 1162.00 L 2200.00 1161.00 L 2180.00 1161.00 L 2160.00 1160.00 L 2120.00 1160.00 L 2100.00 1159.00 L 2080.00 1159.00 L 2060.00 1158.00 L 2020.00 1158.00 L 2000.00 1157.00 L 1980.00 1157.00 L 1960.00 1156.00 L 1940.00 1156.00 L 1920.00 1155.00 L 1880.00 1155.00 L 1860.00 1154.00 L 1840.00 1154.00 L 1820.00 1153.00 L 1800.00 1153.00 L 1780.00 1132.00 L 1760.00 1152.00 L 1740.00 1152.00 L 1720.00 1131.00 L 1700.00 1151.00 L 1680.00 1150.00 L 1660.00 1150.00 L 1640.00 1149.00 L 1600.00 1149.00 L 1580.00 1148.00 L 1560.00 1148.00 L 1540.00 1147.00 L 1520.00 1147.00 L 1500.00 1146.00 L 1460.00 1146.00 L 1440.00 1145.00 L 1420.00 1145.00 L 1400.00 1144.00 L 1380.00 1124.00 L 1360.00 1144.00 L 1340.00 1123.00 Z" />
<path id="csg562-064-05" fill="none" stroke="black" stroke-width="1" d="M 1080.00 1222.00 L 1060.00 1242.00 L 1040.00 1241.00 L 1000.00 1241.00 L 980.00 1240.00 L 920.00 1240.00 L 900.00 1239.00 L 867.25 1239.00 L 867.00 1242.00 L 868.98 1353.00 L 880.00 1353.00 L 900.00 1354.00 L 940.00 1354.00 L 960.00 1355.00 L 1000.00 1355.00 L 1020.00 1356.00 L 1040.00 1356.00 L 1060.00 1357.00 L 1100.00 1357.00 L 1120.00 1358.00 L 1160.00 1358.00 L 1180.00 1359.00 L 1220.00 1359.00 L 1240.00 1360.00 L 1260.00 1360.00 L 1280.00 1361.00 L 1320.00 1361.00 L 1340.00 1362.00 L 1380.00 1362.00 L 1400.00 1363.00 L 1440.00 1363.00 L 1460.00 1364.00 L 1480.00 1364.00 L 1500.00 1365.00 L 1540.00 1365.00 L 1560.00 1366.00 L 1600.00 1366.00 L 1620.00 1367.00 L 1660.00 1367.00 L 1680.00 1368.00 L 1700.00 1368.00 L 1720.00 1369.00 L 1760.00 1369.00 L 1780.00 1370.00 L 1820.00 1370.00 L 1840.00 1371.00 L 1880.00 1371.00 L 1900.00 1372.00 L 1920.00 1372.00 L 1940.00 1373.00 L 1980.00 1373.00 L 2000.00 1374.00 L 2040.00 1374.00 L 2060.00 1375.00 L 2100.00 1375.00 L 2120.00 1376.00 L 2140.00 1376.00 L 2160.00 1377.00 L 2200.00 1377.00 L 2220.00 1378.00 L 2260.00 1378.00 L 2280.00 1379.00 L 2300.00 1379.00 L 2320.00 1380.00 L 2360.00 1380.00 L 2380.00 1381.00 L 2420.00 1381.00 L 2440.00 1382.00 L 2480.00 1382.00 L 2500.00 1383.00 L 2520.00 1383.00 L 2540.00 1384.00 L 2580.00 1384.00 L 2600.00 1385.00 L 2640.00 1385.00 L 2660.00 1386.00 L 2700.00 1386.00 L 2720.00 1387.00 L 2740.00 1387.00 L 2760.00 1388.00 L 2800.00 1388.00 L 2820.00 1389.00 L 2860.00 1389.00 L 2880.00 1390.00 L 2920.00 1390.00 L 2940.00 1391.00 L 2960.00 1391.00 L 2980.00 1392.00 L 3020.00 1392.00 L 3040.00 1393.00 L 3062.55 1393.00 L 3051.40 1269.00 L 3040.00 1269.00 L 3020.00 1268.00 L 2960.00 1268.00 L 2940.00 1287.00 L 2920.00 1287.00 L 2900.00 1267.00 L 2880.00 1267.00 L 2860.00 1266.00 L 2820.00 1266.00 L 2800.00 1265.00 L 2740.00 1265.00 L 2720.00 1264.00 L 2680.00 1264.00 L 2660.00 1284.00 L 2640.00 1263.00 L 2600.00 1263.00 L 2580.00 1262.00 L 2520.00 1262.00 L 2500.00 1261.00 L 2440.00 1261.00 L 2420.00 1260.00 L 2380.00 1260.00 L 2360.00 1259.00 L 2300.00 1259.00 L 2280.00 1258.00 L 2240.00 1258.00 L 2220.00 1257.00 L 2160.00 1257.00 L 2140.00 1256.00 L 2080.00 1256.00 L 2060.00 1255.00 L 2020.00 1255.00 L 2000.00 1254.00 L 1940.00 1254.00 L 1920.00 1253.00 L 1860.00 1253.00 L 1840.00 1252.00 L 1800.00 1252.00 L 1780.00 1251.00 L 1720.00 1251.00 L 1700.00 1250.00 L 1640.00 1250.00 L 1620.00 1249.00 L 1580.00 1249.00 L 1560.00 1248.00 L 1500.00 1248.00 L 1480.00 1247.00 L 1440.00 1247.00 L 1420.00 1246.00 L 1360.00 1246.00 L 1340.00 1245.00 L 1280.00 1245.00 L 1260.00 1244.00 L 1220.00 1244.00 L 1200.00 1243.00 L 1140.00 1243.00 L 1120.00 1242.00 L 1100.00 1222.00 Z" />
<path id="csg562-064-06" fill="none" stroke="black" stroke-width="1" d="M 868.98 1353.00 L 870.98 1465.00 L 900.00 1465.00 L 920.00 1466.00 L 960.00 1466.00 L 980.00 1467.00 L 1040.00 1467.00 L 1060.00 1468.00 L 1100.00 1468.00 L 1120.00 1469.00 L 1160.00 1469.00 L 1180.00 1470.00 L 1240.00 1470.00 L 1260.00 1471.00 L 1300.00 1471.00 L 1320.00 1472.00 L 1360.00 1472.00 L 1380.00 1473.00 L 1440.00 1473.00 L 1460.00 1474.00 L 1500.00 1474.00 L 1520.00 1475.00 L 1580.00 1475.00 L 1600.00 1476.00 L 1640.00 1476.00 L 1660.00 1477.00 L 1700.00 1477.00 L 1720.00 1478.00 L 1780.00 1478.00 L 1800.00 1479.00 L 1840.00 1479.00 L 1860.00 1480.00 L 1900.00 1480.00 L 1920.00 1481.00 L 1980.00 1481.00 L 2000.00 1482.00 L 2040.00 1482.00 L 2060.00 1483.00 L 2120.00 1483.00 L 2140.00 1484.00 L 2180.00 1484.00 L 2200.00 1485.00 L 2240.00 1485.00 L 2260.00 1486.00 L 2320.00 1486.00 L 2340.00 1487.00 L 2380.00 1487.00 L 2400.00 1488.00 L 2440.00 1488.00 L 2460.00 1489.00 L 2520.00 1489.00 L 2540.00 1490.00 L 2580.00 1490.00 L 2600.00 1491.00 L 2640.00 1491.00 L 2660.00 1492.00 L 2720.00 1492.00 L 2740.00 1493.00 L 2780.00 1493.00 L 2800.00 1494.00 L 2860.00 1494.00 L 2880.00 1495.00 L 2920.00 1495.00 L 2940.00 1496.00 L 2980.00 1496.00 L 3000.00 1497.00 L 3020.01 1497.00 L 3063.00 1398.00 L 3062.55 1393.00 L 3040.00 1393.00 L 3020.00 1392.00 L 2980.00 1392.00 L 2960.00 1391.00 L 2940.00 1391.00 L 2920.00 1390.00 L 2880.00 1390.00 L 2860.00 1389.00 L 2820.00 1389.00 L 2800.00 1388.00 L 2760.00 1388.00 L 2740.00 1387.00 L 2720.00 1387.00 L 2700.00 1386.00 L 2660.00 1386.00 L 2640.00 1385.00 L 2600.00 1385.00 L 2580.00 1384.00 L 2540.00 1384.00 L 2520.00 1383.00 L 2500.00 1383.00 L 2480.00 1382.00 L 2440.00 1382.00 L 2420.00 1381.00 L 2380.00 1381.00 L 2360.00 1380.00 L 2320.00 1380.00 L 2300.00 1379.00 L 2280.00 1379.00 L 2260.00 1378.00 L 2220.00 1378.00 L 2200.00 1377.00 L 2160.00 1377.00 L 2140.00 1376.00 L 2120.00 1376.00 L 2100.00 1375.00 L 2060.00 1375.00 L 2040.00 1374.00 L 2000.00 1374.00 L 1980.00 1373.00 L 1940.00 1373.00 L 1920.00 1372.00 L 1900.00 1372.00 L 1880.00 1371.00 L 1840.00 1371.00 L 1820.00 1370.00 L 1780.00 1370.00 L 1760.00 1369.00 L 1720.00 1369.00 L 1700.00 1368.00 L 1680.00 1368.00 L 1660.00 1367.00 L 1620.00 1367.00 L 1600.00 1366.00 L 1560.00 1366.00 L 1540.00 1365.00 L 1500.00 1365.00 L 1480.00 1364.00 L 1460.00 1364.00 L 1440.00 1363.00 L 1400.00 1363.00 L 1380.00 1362.00 L 1340.00 1362.00 L 1320.00 1361.00 L 1280.00 1361.00 L 1260.00 1360.00 L 1240.00 1360.00 L 1220.00 1359.00 L 1180.00 1359.00 L 1160.00 1358.00 L 1120.00 1358.00 L 1100.00 1357.00 L 1060.00 1357.00 L 1040.00 1356.00 L 1020.00 1356.00 L 1000.00 1355.00 L 960.00 1355.00 L 940.00 1354.00 L 900.00 1354.00 L 880.00 1353.00 Z" />
<path id="csg562-064-07" fill="none" stroke="black" stroke-width="1" d="M 870.98 1465.00 L 873.02 1579.00 L 900.00 1579.00 L 920.00 1560.00 L 960.00 1560.00 L 980.00 1581.00 L 1020.00 1581.00 L 1040.00 1582.00 L 1080.00 1582.00 L 1100.00 1583.00 L 1140.00 1583.00 L 1160.00 1584.00 L 1200.00 1584.00 L 1220.00 1585.00 L 1260.00 1585.00 L 1280.00 1586.00 L 1320.00 1586.00 L 1340.00 1587.00 L 1380.00 1587.00 L 1400.00 1588.00 L 1440.00 1588.00 L 1460.00 1589.00 L 1500.00 1589.00 L 1520.00 1590.00 L 1560.00 1590.00 L 1580.00 1591.00 L 1620.00 1591.00 L 1640.00 1592.00 L 1680.00 1592.00 L 1700.00 1593.00 L 1740.00 1593.00 L 1760.00 1594.00 L 1800.00 1594.00 L 1820.00 1595.00 L 1860.00 1595.00 L 1880.00 1596.00 L 1920.00 1596.00 L 1940.00 1597.00 L 1980.00 1597.00 L 2000.00 1598.00 L 2040.00 1598.00 L 2060.00 1599.00 L 2100.00 1599.00 L 2120.00 1600.00 L 2160.00 1600.00 L 2180.00 1601.00 L 2220.00 1601.00 L 2240.00 1602.00 L 2280.00 1602.00 L 2300.00 1603.00 L 2340.00 1603.00 L 2360.00 1604.00 L 2400.00 1604.00 L 2420.00 1605.00 L 2460.00 1605.00 L 2480.00 1606.00 L 2520.00 1606.00 L 2540.00 1607.00 L 2580.00 1607.00 L 2600.00 1608.00 L 2640.00 1608.00 L 2660.00 1609.00 L 2700.00 1609.00 L 2720.00 1610.00 L 2760.00 1610.00 L 2780.00 1611.00 L 2820.00 1611.00 L 2840.00 1612.00 L 2880.00 1612.00 L 2900.00 1613.00 L 2940.00 1613.00 L 2960.00 1614.00 L 2969.21 1614.00 L 3020.01 1497.00 L 3000.00 1497.00 L 2980.00 1496.00 L 2940.00 1496.00 L 2920.00 1495.00 L 2880.00 1495.00 L 2860.00 1494.00 L 2800.00 1494.00 L 2780.00 1493.00 L 2740.00 1493.00 L 2720.00 1492.00 L 2660.00 1492.00 L 2640.00 1491.00 L 2600.00 1491.00 L 2580.00 1490.00 L 2540.00 1490.00 L 2520.00 1489.00 L 2460.00 1489.00 L 2440.00 1488.00 L 2400.00 1488.00 L 2380.00 1487.00 L 2340.00 1487.00 L 2320.00 1486.00 L 2260.00 1486.00 L 2240.00 1485.00 L 2200.00 1485.00 L 2180.00 1484.00 L 2140.00 1484.00 L 2120.00 1483.00 L 2060.00 1483.00 L 2040.00 1482.00 L 2000.00 1482.00 L 1980.00 1481.00 L 1920.00 1481.00 L 1900.00 1480.00 L 1860.00 1480.00 L 1840.00 1479.00 L 1800.00 1479.00 L 1780.00 1478.00 L 1720.00 1478.00 L 1700.00 1477.00 L 1660.00 1477.00 L 1640.00 1476.00 L 1600.00 1476.00 L 1580.00 1475.00 L 1520.00 1475.00 L 1500.00 1474.00 L 1460.00 1474.00 L 1440.00 1473.00 L 1380.00 1473.00 L 1360.00 1472.00 L 1320.00 1472.00 L 1300.00 1471.00 L 1260.00 1471.00 L 1240.00 1470.00 L 1180.00 1470.00 L 1160.00 1469.00 L 1120.00 1469.00 L 1100.00 1468.00 L 1060.00 1468.00 L 1040.00 1467.00 L 980.00 1467.00 L 960.00 1466.00 L 920.00 1466.00 L 900.00 1465.00 Z" />
<path id="csg562-064-08" fill="none" stroke="black" stroke-width="1" d="M 920.00 1560.00 L 900.00 1579.00 L 873.02 1579.00 L 874.98 1689.00 L 900.00 1689.00 L 920.00 1690.00 L 960.00 1690.00 L 980.00 1691.00 L 1020.00 1691.00 L 1040.00 1692.00 L 1080.00 1692.00 L 1100.00 1693.00 L 1140.00 1693.00 L 1160.00 1694.00 L 1200.00 1694.00 L 1220.00 1695.00 L 1260.00 1695.00 L 1280.00 1696.00 L 1320.00 1696.00 L 1340.00 1697.00 L 1380.00 1697.00 L 1400.00 1698.00 L 1440.00 1698.00 L 1460.00 1699.00 L 1500.00 1699.00 L 1520.00 1700.00 L 1560.00 1700.00 L 1580.00 1701.00 L 1620.00 1701.00 L 1640.00 1702.00 L 1680.00 1702.00 L 1700.00 1703.00 L 1740.00 1703.00 L 1760.00 1704.00 L 1800.00 1704.00 L 1820.00 1705.00 L 1860.00 1705.00 L 1880.00 1706.00 L 1920.00 1706.00 L 1940.00 1707.00 L 1980.00 1707.00 L 2000.00 1708.00 L 2040.00 1708.00 L 2060.00 1709.00 L 2100.00 1709.00 L 2120.00 1710.00 L 2160.00 1710.00 L 2180.00 1711.00 L 2220.00 1711.00 L 2240.00 1712.00 L 2280.00 1712.00 L 2300.00 1713.00 L 2340.00 1713.00 L 2360.00 1714.00 L 2400.00 1714.00 L 2420.00 1715.00 L 2460.00 1715.00 L 2480.00 1716.00 L 2520.00 1716.00 L 2540.00 1717.00 L 2580.00 1717.00 L 2600.00 1718.00 L 2620.00 1698.00 L 2640.00 1698.00 L 2660.00 1679.00 L 2680.00 1699.00 L 2700.00 1699.00 L 2720.00 1720.00 L 2760.00 1720.00 L 2780.00 1721.00 L 2820.00 1721.00 L 2840.00 1722.00 L 2880.00 1722.00 L 2900.00 1723.00 L 2940.00 1723.00 L 2960.00 1724.00 L 3000.00 1724.00 L 3020.00 1725.00 L 3029.41 1725.00 L 2964.00 1626.00 L 2969.21 1614.00 L 2960.00 1614.00 L 2940.00 1613.00 L 2900.00 1613.00 L 2880.00 1612.00 L 2840.00 1612.00 L 2820.00 1611.00 L 2780.00 1611.00 L 2760.00 1610.00 L 2720.00 1610.00 L 2700.00 1609.00 L 2660.00 1609.00 L 2640.00 1608.00 L 2600.00 1608.00 L 2580.00 1607.00 L 2540.00 1607.00 L 2520.00 1606.00 L 2480.00 1606.00 L 2460.00 1605.00 L 2420.00 1605.00 L 2400.00 1604.00 L 2360.00 1604.00 L 2340.00 1603.00 L 2300.00 1603.00 L 2280.00 1602.00 L 2240.00 1602.00 L 2220.00 1601.00 L 2180.00 1601.00 L 2160.00 1600.00 L 2120.00 1600.00 L 2100.00 1599.00 L 2060.00 1599.00 L 2040.00 1598.00 L 2000.00 1598.00 L 1980.00 1597.00 L 1940.00 1597.00 L 1920.00 1596.00 L 1880.00 1596.00 L 1860.00 1595.00 L 1820.00 1595.00 L 1800.00 1594.00 L 1760.00 1594.00 L 1740.00 1593.00 L 1700.00 1593.00 L 1680.00 1592.00 L 1640.00 1592.00 L 1620.00 1591.00 L 1580.00 1591.00 L 1560.00 1590.00 L 1520.00 1590.00 L 1500.00 1589.00 L 1460.00 1589.00 L 1440.00 1588.00 L 1400.00 1588.00 L 1380.00 1587.00 L 1340.00 1587.00 L 1320.00 1586.00 L 1280.00 1586.00 L 1260.00 1585.00 L 1220.00 1585.00 L 1200.00 1584.00 L 1160.00 1584.00 L 1140.00 1583.00 L 1100.00 1583.00 L 1080.00 1582.00 L 1040.00 1582.00 L 1020.00 1581.00 L 980.00 1581.00 L 960.00 1560.00 Z" />
<path id="csg562-064-09" fill="none" stroke="black" stroke-width="1" d="M 2660.00 1679.00 L 2640.00 1698.00 L 2620.00 1698.00 L 2600.00 1718.00 L 2580.00 1717.00 L 2540.00 1717.00 L 2520.00 1716.00 L 2480.00 1716.00 L 2460.00 1715.00 L 2420.00 1715.00 L 2400.00 1714.00 L 2360.00 1714.00 L 2340.00 1713.00 L 2300.00 1713.00 L 2280.00 1712.00 L 2240.00 1712.00 L 2220.00 1711.00 L 2180.00 1711.00 L 2160.00 1710.00 L 2120.00 1710.00 L 2100.00 1709.00 L 2060.00 1709.00 L 2040.00 1708.00 L 2000.00 1708.00 L 1980.00 1707.00 L 1940.00 1707.00 L 1920.00 1706.00 L 1880.00 1706.00 L 1860.00 1705.00 L 1820.00 1705.00 L 1800.00 1704.00 L 1760.00 1704.00 L 1740.00 1703.00 L 1700.00 1703.00 L 1680.00 1702.00 L 1640.00 1702.00 L 1620.00 1701.00 L 1580.00 1701.00 L 1560.00 1700.00 L 1520.00 1700.00 L 1500.00 1699.00 L 1460.00 1699.00 L 1440.00 1698.00 L 1400.00 1698.00 L 1380.00 1697.00 L 1340.00 1697.00 L 1320.00 1696.00 L 1280.00 1696.00 L 1260.00 1695.00 L 1220.00 1695.00 L 1200.00 1694.00 L 1160.00 1694.00 L 1140.00 1693.00 L 1100.00 1693.00 L 1080.00 1692.00 L 1040.00 1692.00 L 1020.00 1691.00 L 980.00 1691.00 L 960.00 1690.00 L 920.00 1690.00 L 900.00 1689.00 L 874.98 1689.00 L 876.00 1746.00 L 874.98 1807.00 L 880.00 1807.00 L 900.00 1808.00 L 940.00 1808.00 L 960.00 1809.00 L 1000.00 1809.00 L 1020.00 1810.00 L 1060.00 1810.00 L 1080.00 1811.00 L 1100.00 1811.00 L 1120.00 1812.00 L 1160.00 1812.00 L 1180.00 1813.00 L 1220.00 1813.00 L 1240.00 1814.00 L 1280.00 1814.00 L 1300.00 1815.00 L 1340.00 1815.00 L 1360.00 1816.00 L 1380.00 1816.00 L 1400.00 1817.00 L 1440.00 1817.00 L 1460.00 1818.00 L 1500.00 1818.00 L 1520.00 1819.00 L 1560.00 1819.00 L 1580.00 1820.00 L 1620.00 1820.00 L 1640.00 1821.00 L 1660.00 1821.00 L 1680.00 1822.00 L 1720.00 1822.00 L 1740.00 1823.00 L 1780.00 1823.00 L 1800.00 1824.00 L 1840.00 1824.00 L 1860.00 1825.00 L 1900.00 1825.00 L 1920.00 1826.00 L 1940.00 1826.00 L 1960.00 1827.00 L 2000.00 1827.00 L 2020.00 1828.00 L 2060.00 1828.00 L 2080.00 1829.00 L 2120.00 1829.00 L 2140.00 1830.00 L 2180.00 1830.00 L 2200.00 1831.00 L 2220.00 1831.00 L 2240.00 1832.00 L 2280.00 1832.00 L 2300.00 1833.00 L 2340.00 1833.00 L 2360.00 1834.00 L 2400.00 1834.00 L 2420.00 1835.00 L 2440.00 1835.00 L 2460.00 1836.00 L 2500.00 1836.00 L 2520.00 1837.00 L 2560.00 1837.00 L 2580.00 1838.00 L 2620.00 1838.00 L 2640.00 1839.00 L 2680.00 1839.00 L 2700.00 1840.00 L 2720.00 1840.00 L 2740.00 1841.00 L 2780.00 1841.00 L 2800.00 1842.00 L 2840.00 1842.00 L 2860.00 1843.00 L 2900.00 1843.00 L 2920.00 1844.00 L 2960.00 1844.00 L 2980.00 1845.00 L 3000.00 1845.00 L 3020.00 1846.00 L 3025.08 1846.00 L 3075.00 1794.00 L 3029.41 1725.00 L 3020.00 1725.00 L 3000.00 1724.00 L 2960.00 1724.00 L 2940.00 1723.00 L 2900.00 1723.00 L 2880.00 1722.00 L 2840.00 1722.00 L 2820.00 1721.00 L 2780.00 1721.00 L 2760.00 1720.00 L 2720.00 1720.00 L 2700.00 1699.00 L 2680.00 1699.00 L 2660.00 1679.00 Z" />
<path id="csg562-064-10" fill="none" stroke="black" stroke-width="1" d="M 874.98 1807.00 L 873.27 1910.00 L 880.00 1910.00 L 900.00 1911.00 L 940.00 1911.00 L 960.00 1912.00 L 980.00 1912.00 L 1000.00 1913.00 L 1040.00 1913.00 L 1060.00 1914.00 L 1080.00 1914.00 L 1100.00 1915.00 L 1140.00 1915.00 L 1160.00 1916.00 L 1200.00 1916.00 L 1220.00 1917.00 L 1240.00 1917.00 L 1260.00 1918.00 L 1300.00 1918.00 L 1320.00 1919.00 L 1340.00 1919.00 L 1360.00 1920.00 L 1400.00 1920.00 L 1420.00 1921.00 L 1460.00 1921.00 L 1480.00 1922.00 L 1500.00 1922.00 L 1520.00 1923.00 L 1560.00 1923.00 L 1580.00 1924.00 L 1600.00 1924.00 L 1620.00 1925.00 L 1660.00 1925.00 L 1680.00 1926.00 L 1720.00 1926.00 L 1740.00 1927.00 L 1760.00 1927.00 L 1780.00 1928.00 L 1820.00 1928.00 L 1840.00 1929.00 L 1860.00 1929.00 L 1880.00 1930.00 L 1920.00 1930.00 L 1940.00 1931.00 L 1980.00 1931.00 L 2000.00 1932.00 L 2020.00 1932.00 L 2040.00 1933.00 L 2080.00 1933.00 L 2100.00 1934.00 L 2120.00 1934.00 L 2140.00 1935.00 L 2180.00 1935.00 L 2200.00 1936.00 L 2240.00 1936.00 L 2260.00 1937.00 L 2280.00 1937.00 L 2300.00 1938.00 L 2320.00 1938.00 L 2340.00 1958.00 L 2360.00 1919.00 L 2380.00 1919.00 L 2400.00 1940.00 L 2440.00 1940.00 L 2460.00 1941.00 L 2500.00 1941.00 L 2520.00 1942.00 L 2540.00 1942.00 L 2560.00 1943.00 L 2600.00 1943.00 L 2620.00 1944.00 L 2640.00 1944.00 L 2660.00 1945.00 L 2700.00 1945.00 L 2720.00 1946.00 L 2760.00 1946.00 L 2780.00 1947.00 L 2800.00 1947.00 L 2820.00 1948.00 L 2860.00 1948.00 L 2880.00 1949.00 L 2900.00 1949.00 L 2920.00 1950.00 L 2960.00 1950.00 L 2980.00 1951.00 L 3007.71 1951.00 L 3003.00 1869.00 L 3025.08 1846.00 L 3020.00 1846.00 L 3000.00 1845.00 L 2980.00 1845.00 L 2960.00 1844.00 L 2920.00 1844.00 L 2900.00 1843.00 L 2860.00 1843.00 L 2840.00 1842.00 L 2800.00 1842.00 L 2780.00 1841.00 L 2740.00 1841.00 L 2720.00 1840.00 L 2700.00 1840.00 L 2680.00 1839.00 L 2640.00 1839.00 L 2620.00 1838.00 L 2580.00 1838.00 L 2560.00 1837.00 L 2520.00 1837.00 L 2500.00 1836.00 L 2460.00 1836.00 L 2440.00 1835.00 L 2420.00 1835.00 L 2400.00 1834.00 L 2360.00 1834.00 L 2340.00 1833.00 L 2300.00 1833.00 L 2280.00 1832.00 L 2240.00 1832.00 L 2220.00 1831.00 L 2200.00 1831.00 L 2180.00 1830.00 L 2140.00 1830.00 L 2120.00 1829.00 L 2080.00 1829.00 L 2060.00 1828.00 L 2020.00 1828.00 L 2000.00 1827.00 L 1960.00 1827.00 L 1940.00 1826.00 L 1920.00 1826.00 L 1900.00 1825.00 L 1860.00 1825.00 L 1840.00 1824.00 L 1800.00 1824.00 L 1780.00 1823.00 L 1740.00 1823.00 L 1720.00 1822.00 L 1680.00 1822.00 L 1660.00 1821.00 L 1640.00 1821.00 L 1620.00 1820.00 L 1580.00 1820.00 L 1560.00 1819.00 L 1520.00 1819.00 L 1500.00 1818.00 L 1460.00 1818.00 L 1440.00 1817.00 L 1400.00 1817.00 L 1380.00 1816.00 L 1360.00 1816.00 L 1340.00 1815.00 L 1300.00 1815.00 L 1280.00 1814.00 L 1240.00 1814.00 L 1220.00 1813.00 L 1180.00 1813.00 L 1160.00 1812.00 L 1120.00 1812.00 L 1100.00 1811.00 L 1080.00 1811.00 L 1060.00 1810.00 L 1020.00 1810.00 L 1000.00 1809.00 L 960.00 1809.00 L 940.00 1808.00 L 900.00 1808.00 L 880.00 1807.00 Z" />
<path id="csg562-064-11" fill="none" stroke="black" stroke-width="1" d="M 873.27 1910.00 L 871.42 2021.00 L 880.00 2021.00 L 900.00 2022.00 L 940.00 2022.00 L 960.00 2023.00 L 1000.00 2023.00 L 1020.00 2024.00 L 1040.00 2024.00 L 1060.00 2025.00 L 1100.00 2025.00 L 1120.00 2026.00 L 1160.00 2026.00 L 1180.00 2027.00 L 1200.00 2007.00 L 1220.00 2008.00 L 1240.00 2008.00 L 1260.00 2028.00 L 1280.00 2029.00 L 1320.00 2029.00 L 1340.00 2030.00 L 1360.00 2030.00 L 1380.00 2031.00 L 1420.00 2031.00 L 1440.00 2032.00 L 1480.00 2032.00 L 1500.00 2033.00 L 1540.00 2033.00 L 1560.00 2034.00 L 1580.00 2034.00 L 1600.00 2035.00 L 1640.00 2035.00 L 1660.00 2036.00 L 1700.00 2036.00 L 1720.00 2037.00 L 1740.00 2037.00 L 1760.00 2038.00 L 1800.00 2038.00 L 1820.00 2039.00 L 1860.00 2039.00 L 1880.00 2040.00 L 1900.00 2040.00 L 1920.00 2041.00 L 1960.00 2041.00 L 1980.00 2042.00 L 2020.00 2042.00 L 2040.00 2043.00 L 2080.00 2043.00 L 2100.00 2044.00 L 2120.00 2044.00 L 2140.00 2045.00 L 2180.00 2045.00 L 2200.00 2046.00 L 2240.00 2046.00 L 2260.00 2047.00 L 2280.00 2047.00 L 2300.00 2048.00 L 2340.00 2048.00 L 2360.00 2049.00 L 2400.00 2049.00 L 2420.00 2050.00 L 2440.00 2050.00 L 2460.00 2051.00 L 2500.00 2051.00 L 2520.00 2052.00 L 2560.00 2052.00 L 2580.00 2053.00 L 2620.00 2053.00 L 2640.00 2074.00 L 2660.00 2074.00 L 2680.00 2055.00 L 2720.00 2055.00 L 2740.00 2056.00 L 2780.00 2056.00 L 2800.00 2057.00 L 2820.00 2057.00 L 2840.00 2058.00 L 2880.00 2058.00 L 2900.00 2059.00 L 2940.00 2059.00 L 2960.00 2060.00 L 2980.00 2060.00 L 3000.00 2061.00 L 3014.03 2061.00 L 3007.71 1951.00 L 2980.00 1951.00 L 2960.00 1950.00 L 2920.00 1950.00 L 2900.00 1949.00 L 2880.00 1949.00 L 2860.00 1948.00 L 2820.00 1948.00 L 2800.00 1947.00 L 2780.00 1947.00 L 2760.00 1946.00 L 2720.00 1946.00 L 2700.00 1945.00 L 2660.00 1945.00 L 2640.00 1944.00 L 2620.00 1944.00 L 2600.00 1943.00 L 2560.00 1943.00 L 2540.00 1942.00 L 2520.00 1942.00 L 2500.00 1941.00 L 2460.00 1941.00 L 2440.00 1940.00 L 2400.00 1940.00 L 2380.00 1919.00 L 2360.00 1919.00 L 2340.00 1958.00 L 2320.00 1938.00 L 2300.00 1938.00 L 2280.00 1937.00 L 2260.00 1937.00 L 2240.00 1936.00 L 2200.00 1936.00 L 2180.00 1935.00 L 2140.00 1935.00 L 2120.00 1934.00 L 2100.00 1934.00 L 2080.00 1933.00 L 2040.00 1933.00 L 2020.00 1932.00 L 2000.00 1932.00 L 1980.00 1931.00 L 1940.00 1931.00 L 1920.00 1930.00 L 1880.00 1930.00 L 1860.00 1929.00 L 1840.00 1929.00 L 1820.00 1928.00 L 1780.00 1928.00 L 1760.00 1927.00 L 1740.00 1927.00 L 1720.00 1926.00 L 1680.00 1926.00 L 1660.00 1925.00 L 1620.00 1925.00 L 1600.00 1924.00 L 1580.00 1924.00 L 1560.00 1923.00 L 1520.00 1923.00 L 1500.00 1922.00 L 1480.00 1922.00 L 1460.00 1921.00 L 1420.00 1921.00 L 1400.00 1920.00 L 1360.00 1920.00 L 1340.00 1919.00 L 1320.00 1919.00 L 1300.00 1918.00 L 1260.00 1918.00 L 1240.00 1917.00 L 1220.00 1917.00 L 1200.00 1916.00 L 1160.00 1916.00 L 1140.00 1915.00 L 1100.00 1915.00 L 1080.00 1914.00 L 1060.00 1914.00 L 1040.00 1913.00 L 1000.00 1913.00 L 980.00 1912.00 L 960.00 1912.00 L 940.00 1911.00 L 900.00 1911.00 L 880.00 1910.00 Z" />
<path id="csg562-064-12" fill="none" stroke="black" stroke-width="1" d="M 1200.00 2007.00 L 1180.00 2027.00 L 1160.00 2026.00 L 1120.00 2026.00 L 1100.00 2025.00 L 1060.00 2025.00 L 1040.00 2024.00 L 1020.00 2024.00 L 1000.00 2023.00 L 960.00 2023.00 L 940.00 2022.00 L 900.00 2022.00 L 880.00 2021.00 L 871.42 2021.00 L 869.43 2140.00 L 880.00 2140.00 L 900.00 2141.00 L 940.00 2141.00 L 960.00 2142.00 L 980.00 2142.00 L 1000.00 2143.00 L 1040.00 2143.00 L 1060.00 2144.00 L 1080.00 2144.00 L 1100.00 2145.00 L 1140.00 2145.00 L 1160.00 2146.00 L 1180.00 2146.00 L 1200.00 2147.00 L 1240.00 2147.00 L 1260.00 2148.00 L 1280.00 2148.00 L 1300.00 2149.00 L 1340.00 2149.00 L 1360.00 2150.00 L 1380.00 2130.00 L 1400.00 2131.00 L 1420.00 2111.00 L 1440.00 2131.00 L 1460.00 2112.00 L 1480.00 2112.00 L 1500.00 2153.00 L 1540.00 2153.00 L 1560.00 2154.00 L 1580.00 2154.00 L 1600.00 2155.00 L 1640.00 2155.00 L 1660.00 2156.00 L 1680.00 2156.00 L 1700.00 2157.00 L 1740.00 2157.00 L 1760.00 2158.00 L 1780.00 2158.00 L 1800.00 2159.00 L 1840.00 2159.00 L 1860.00 2140.00 L 1880.00 2200.00 L 1900.00 2161.00 L 1940.00 2161.00 L 1960.00 2162.00 L 1980.00 2142.00 L 2000.00 2163.00 L 2040.00 2163.00 L 2060.00 2164.00 L 2080.00 2164.00 L 2100.00 2165.00 L 2140.00 2165.00 L 2160.00 2166.00 L 2180.00 2166.00 L 2200.00 2167.00 L 2240.00 2167.00 L 2260.00 2168.00 L 2280.00 2168.00 L 2300.00 2169.00 L 2340.00 2169.00 L 2360.00 2170.00 L 2380.00 2170.00 L 2400.00 2171.00 L 2440.00 2171.00 L 2460.00 2172.00 L 2480.00 2172.00 L 2500.00 2173.00 L 2540.00 2173.00 L 2560.00 2174.00 L 2580.00 2174.00 L 2600.00 2175.00 L 2640.00 2175.00 L 2660.00 2136.00 L 2680.00 2176.00 L 2700.00 2176.00 L 2720.00 2177.00 L 2740.00 2177.00 L 2760.00 2178.00 L 2800.00 2178.00 L 2820.00 2179.00 L 2840.00 2179.00 L 2860.00 2180.00 L 2900.00 2180.00 L 2920.00 2181.00 L 2940.00 2181.00 L 2960.00 2182.00 L 2971.78 2182.00 L 3018.00 2130.00 L 3014.03 2061.00 L 3000.00 2061.00 L 2980.00 2060.00 L 2960.00 2060.00 L 2940.00 2059.00 L 2900.00 2059.00 L 2880.00 2058.00 L 2840.00 2058.00 L 2820.00 2057.00 L 2800.00 2057.00 L 2780.00 2056.00 L 2740.00 2056.00 L 2720.00 2055.00 L 2680.00 2055.00 L 2660.00 2074.00 L 2640.00 2074.00 L 2620.00 2053.00 L 2580.00 2053.00 L 2560.00 2052.00 L 2520.00 2052.00 L 2500.00 2051.00 L 2460.00 2051.00 L 2440.00 2050.00 L 2420.00 2050.00 L 2400.00 2049.00 L 2360.00 2049.00 L 2340.00 2048.00 L 2300.00 2048.00 L 2280.00 2047.00 L 2260.00 2047.00 L 2240.00 2046.00 L 2200.00 2046.00 L 2180.00 2045.00 L 2140.00 2045.00 L 2120.00 2044.00 L 2100.00 2044.00 L 2080.00 2043.00 L 2040.00 2043.00 L 2020.00 2042.00 L 1980.00 2042.00 L 1960.00 2041.00 L 1920.00 2041.00 L 1900.00 2040.00 L 1880.00 2040.00 L 1860.00 2039.00 L 1820.00 2039.00 L 1800.00 2038.00 L 1760.00 2038.00 L 1740.00 2037.00 L 1720.00 2037.00 L 1700.00 2036.00 L 1660.00 2036.00 L 1640.00 2035.00 L 1600.00 2035.00 L 1580.00 2034.00 L 1560.00 2034.00 L 1540.00 2033.00 L 1500.00 2033.00 L 1480.00 2032.00 L 1440.00 2032.00 L 1420.00 2031.00 L 1380.00 2031.00 L 1360.00 2030.00 L 1340.00 2030.00 L 1320.00 2029.00 L 1280.00 2029.00 L 1260.00 2028.00 L 1240.00 2008.00 L 1220.00 2008.00 L 1200.00 2007.00 Z" />
<path id="csg562-064-13" fill="none" stroke="black" stroke-width="1" d="M 1420.00 2111.00 L 1400.00 2131.00 L 1380.00 2130.00 L 1360.00 2150.00 L 1340.00 2149.00 L 1300.00 2149.00 L 1280.00 2148.00 L 1260.00 2148.00 L 1240.00 2147.00 L 1200.00 2147.00 L 1180.00 2146.00 L 1160.00 2146.00 L 1140.00 2145.00 L 1100.00 2145.00 L 1080.00 2144.00 L 1060.00 2144.00 L 1040.00 2143.00 L 1000.00 2143.00 L 980.00 2142.00 L 960.00 2142.00 L 940.00 2141.00 L 900.00 2141.00 L 880.00 2140.00 L 869.43 2140.00 L 867.70 2244.00 L 880.00 2244.00 L 900.00 2245.00 L 920.00 2245.00 L 940.00 2246.00 L 960.00 2246.00 L 980.00 2247.00 L 1020.00 2247.00 L 1040.00 2248.00 L 1060.00 2248.00 L 1080.00 2249.00 L 1100.00 2249.00 L 1120.00 2250.00 L 1140.00 2250.00 L 1160.00 2251.00 L 1200.00 2251.00 L 1220.00 2252.00 L 1240.00 2252.00 L 1260.00 2253.00 L 1280.00 2253.00 L 1300.00 2254.00 L 1320.00 2254.00 L 1340.00 2255.00 L 1380.00 2255.00 L 1400.00 2256.00 L 1420.00 2256.00 L 1440.00 2257.00 L 1460.00 2257.00 L 1480.00 2258.00 L 1500.00 2258.00 L 1520.00 2259.00 L 1560.00 2259.00 L 1580.00 2260.00 L 1600.00 2260.00 L 1620.00 2261.00 L 1640.00 2261.00 L 1660.00 2262.00 L 1680.00 2262.00 L 1700.00 2263.00 L 1740.00 2263.00 L 1760.00 2264.00 L 1780.00 2264.00 L 1800.00 2265.00 L 1820.00 2265.00 L 1840.00 2266.00 L 1860.00 2266.00 L 1880.00 2267.00 L 1920.00 2267.00 L 1940.00 2268.00 L 1960.00 2268.00 L 1980.00 2269.00 L 2000.00 2269.00 L 2020.00 2270.00 L 2040.00 2270.00 L 2060.00 2271.00 L 2100.00 2271.00 L 2120.00 2272.00 L 2140.00 2272.00 L 2160.00 2273.00 L 2180.00 2273.00 L 2200.00 2274.00 L 2220.00 2274.00 L 2240.00 2275.00 L 2260.00 2275.00 L 2280.00 2255.00 L 2300.00 2256.00 L 2320.00 2256.00 L 2340.00 2277.00 L 2360.00 2277.00 L 2380.00 2278.00 L 2400.00 2278.00 L 2420.00 2279.00 L 2460.00 2279.00 L 2480.00 2280.00 L 2500.00 2280.00 L 2520.00 2281.00 L 2540.00 2281.00 L 2560.00 2282.00 L 2580.00 2282.00 L 2600.00 2283.00 L 2640.00 2283.00 L 2660.00 2284.00 L 2680.00 2284.00 L 2700.00 2285.00 L 2720.00 2285.00 L 2740.00 2286.00 L 2760.00 2266.00 L 2780.00 2267.00 L 2800.00 2287.00 L 2820.00 2287.00 L 2840.00 2288.00 L 2860.00 2288.00 L 2880.00 2289.00 L 2900.00 2289.00 L 2920.00 2290.00 L 2940.00 2290.00 L 2960.00 2291.00 L 2968.11 2291.00 L 2946.00 2211.00 L 2971.78 2182.00 L 2960.00 2182.00 L 2940.00 2181.00 L 2920.00 2181.00 L 2900.00 2180.00 L 2860.00 2180.00 L 2840.00 2179.00 L 2820.00 2179.00 L 2800.00 2178.00 L 2760.00 2178.00 L 2740.00 2177.00 L 2720.00 2177.00 L 2700.00 2176.00 L 2680.00 2176.00 L 2660.00 2136.00 L 2640.00 2175.00 L 2600.00 2175.00 L 2580.00 2174.00 L 2560.00 2174.00 L 2540.00 2173.00 L 2500.00 2173.00 L 2480.00 2172.00 L 2460.00 2172.00 L 2440.00 2171.00 L 2400.00 2171.00 L 2380.00 2170.00 L 2360.00 2170.00 L 2340.00 2169.00 L 2300.00 2169.00 L 2280.00 2168.00 L 2260.00 2168.00 L 2240.00 2167.00 L 2200.00 2167.00 L 2180.00 2166.00 L 2160.00 2166.00 L 2140.00 2165.00 L 2100.00 2165.00 L 2080.00 2164.00 L 2060.00 2164.00 L 2040.00 2163.00 L 2000.00 2163.00 L 1980.00 2142.00 L 1960.00 2162.00 L 1940.00 2161.00 L 1900.00 2161.00 L 1880.00 2200.00 L 1860.00 2140.00 L 1840.00 2159.00 L 1800.00 2159.00 L 1780.00 2158.00 L 1760.00 2158.00 L 1740.00 2157.00 L 1700.00 2157.00 L 1680.00 2156.00 L 1660.00 2156.00 L 1640.00 2155.00 L 1600.00 2155.00 L 1580.00 2154.00 L 1560.00 2154.00 L 1540.00 2153.00 L 1500.00 2153.00 L 1480.00 2112.00 L 1460.00 2112.00 L 1440.00 2131.00 L 1420.00 2111.00 Z" />
<path id="csg562-064-14" fill="none" stroke="black" stroke-width="1" d="M 867.70 2244.00 L 865.80 2358.00 L 900.00 2358.00 L 920.00 2359.00 L 960.00 2359.00 L 980.00 2360.00 L 1020.00 2360.00 L 1040.00 2341.00 L 1060.00 2361.00 L 1080.00 2361.00 L 1100.00 2362.00 L 1140.00 2362.00 L 1160.00 2363.00 L 1200.00 2363.00 L 1220.00 2364.00 L 1260.00 2364.00 L 1280.00 2365.00 L 1320.00 2365.00 L 1340.00 2366.00 L 1380.00 2366.00 L 1400.00 2367.00 L 1440.00 2367.00 L 1460.00 2368.00 L 1520.00 2368.00 L 1540.00 2369.00 L 1580.00 2369.00 L 1600.00 2370.00 L 1640.00 2370.00 L 1660.00 2371.00 L 1700.00 2371.00 L 1720.00 2372.00 L 1760.00 2372.00 L 1780.00 2373.00 L 1820.00 2373.00 L 1840.00 2374.00 L 1880.00 2374.00 L 1900.00 2375.00 L 1940.00 2375.00 L 1960.00 2376.00 L 2000.00 2376.00 L 2020.00 2377.00 L 2060.00 2377.00 L 2080.00 2378.00 L 2140.00 2378.00 L 2160.00 2379.00 L 2200.00 2379.00 L 2220.00 2380.00 L 2260.00 2380.00 L 2280.00 2381.00 L 2320.00 2381.00 L 2340.00 2382.00 L 2380.00 2382.00 L 2400.00 2383.00 L 2440.00 2383.00 L 2460.00 2384.00 L 2500.00 2384.00 L 2520.00 2385.00 L 2560.00 2385.00 L 2580.00 2386.00 L 2620.00 2386.00 L 2640.00 2387.00 L 2680.00 2387.00 L 2700.00 2388.00 L 2740.00 2388.00 L 2760.00 2389.00 L 2820.00 2389.00 L 2840.00 2390.00 L 2880.00 2390.00 L 2900.00 2391.00 L 2940.00 2391.00 L 2960.00 2392.00 L 2996.01 2392.00 L 2968.11 2291.00 L 2960.00 2291.00 L 2940.00 2290.00 L 2920.00 2290.00 L 2900.00 2289.00 L 2880.00 2289.00 L 2860.00 2288.00 L 2840.00 2288.00 L 2820.00 2287.00 L 2800.00 2287.00 L 2780.00 2267.00 L 2760.00 2266.00 L 2740.00 2286.00 L 2720.00 2285.00 L 2700.00 2285.00 L 2680.00 2284.00 L 2660.00 2284.00 L 2640.00 2283.00 L 2600.00 2283.00 L 2580.00 2282.00 L 2560.00 2282.00 L 2540.00 2281.00 L 2520.00 2281.00 L 2500.00 2280.00 L 2480.00 2280.00 L 2460.00 2279.00 L 2420.00 2279.00 L 2400.00 2278.00 L 2380.00 2278.00 L 2360.00 2277.00 L 2340.00 2277.00 L 2320.00 2256.00 L 2300.00 2256.00 L 2280.00 2255.00 L 2260.00 2275.00 L 2240.00 2275.00 L 2220.00 2274.00 L 2200.00 2274.00 L 2180.00 2273.00 L 2160.00 2273.00 L 2140.00 2272.00 L 2120.00 2272.00 L 2100.00 2271.00 L 2060.00 2271.00 L 2040.00 2270.00 L 2020.00 2270.00 L 2000.00 2269.00 L 1980.00 2269.00 L 1960.00 2268.00 L 1940.00 2268.00 L 1920.00 2267.00 L 1880.00 2267.00 L 1860.00 2266.00 L 1840.00 2266.00 L 1820.00 2265.00 L 1800.00 2265.00 L 1780.00 2264.00 L 1760.00 2264.00 L 1740.00 2263.00 L 1700.00 2263.00 L 1680.00 2262.00 L 1660.00 2262.00 L 1640.00 2261.00 L 1620.00 2261.00 L 1600.00 2260.00 L 1580.00 2260.00 L 1560.00 2259.00 L 1520.00 2259.00 L 1500.00 2258.00 L 1480.00 2258.00 L 1460.00 2257.00 L 1440.00 2257.00 L 1420.00 2256.00 L 1400.00 2256.00 L 1380.00 2255.00 L 1340.00 2255.00 L 1320.00 2254.00 L 1300.00 2254.00 L 1280.00 2253.00 L 1260.00 2253.00 L 1240.00 2252.00 L 1220.00 2252.00 L 1200.00 2251.00 L 1160.00 2251.00 L 1140.00 2250.00 L 1120.00 2250.00 L 1100.00 2249.00 L 1080.00 2249.00 L 1060.00 2248.00 L 1040.00 2248.00 L 1020.00 2247.00 L 980.00 2247.00 L 960.00 2246.00 L 940.00 2246.00 L 920.00 2245.00 L 900.00 2245.00 L 880.00 2244.00 Z" />
<path id="csg562-064-15" fill="none" stroke="black" stroke-width="1" d="M 1040.00 2341.00 L 1020.00 2360.00 L 980.00 2360.00 L 960.00 2359.00 L 920.00 2359.00 L 900.00 2358.00 L 865.80 2358.00 L 863.80 2478.00 L 900.00 2478.00 L 920.00 2479.00 L 980.00 2479.00 L 1000.00 2480.00 L 1040.00 2480.00 L 1060.00 2481.00 L 1120.00 2481.00 L 1140.00 2482.00 L 1180.00 2482.00 L 1200.00 2483.00 L 1260.00 2483.00 L 1280.00 2484.00 L 1320.00 2484.00 L 1340.00 2485.00 L 1400.00 2485.00 L 1420.00 2486.00 L 1480.00 2486.00 L 1500.00 2487.00 L 1540.00 2487.00 L 1560.00 2488.00 L 1620.00 2488.00 L 1640.00 2489.00 L 1680.00 2489.00 L 1700.00 2490.00 L 1760.00 2490.00 L 1780.00 2491.00 L 1820.00 2491.00 L 1840.00 2492.00 L 1900.00 2492.00 L 1920.00 2493.00 L 1980.00 2493.00 L 2000.00 2494.00 L 2040.00 2494.00 L 2060.00 2495.00 L 2120.00 2495.00 L 2140.00 2496.00 L 2180.00 2496.00 L 2200.00 2497.00 L 2260.00 2497.00 L 2280.00 2498.00 L 2320.00 2498.00 L 2340.00 2499.00 L 2400.00 2499.00 L 2420.00 2500.00 L 2460.00 2500.00 L 2480.00 2501.00 L 2540.00 2501.00 L 2560.00 2502.00 L 2620.00 2502.00 L 2640.00 2503.00 L 2680.00 2503.00 L 2700.00 2504.00 L 2760.00 2504.00 L 2780.00 2505.00 L 2820.00 2505.00 L 2840.00 2506.00 L 2900.00 2506.00 L 2920.00 2507.00 L 2960.00 2507.00 L 2980.00 2508.00 L 2992.37 2508.00 L 3009.00 2439.00 L 2996.01 2392.00 L 2960.00 2392.00 L 2940.00 2391.00 L 2900.00 2391.00 L 2880.00 2390.00 L 2840.00 2390.00 L 2820.00 2389.00 L 2760.00 2389.00 L 2740.00 2388.00 L 2700.00 2388.00 L 2680.00 2387.00 L 2640.00 2387.00 L 2620.00 2386.00 L 2580.00 2386.00 L 2560.00 2385.00 L 2520.00 2385.00 L 2500.00 2384.00 L 2460.00 2384.00 L 2440.00 2383.00 L 2400.00 2383.00 L 2380.00 2382.00 L 2340.00 2382.00 L 2320.00 2381.00 L 2280.00 2381.00 L 2260.00 2380.00 L 2220.00 2380.00 L 2200.00 2379.00 L 2160.00 2379.00 L 2140.00 2378.00 L 2080.00 2378.00 L 2060.00 2377.00 L 2020.00 2377.00 L 2000.00 2376.00 L 1960.00 2376.00 L 1940.00 2375.00 L 1900.00 2375.00 L 1880.00 2374.00 L 1840.00 2374.00 L 1820.00 2373.00 L 1780.00 2373.00 L 1760.00 2372.00 L 1720.00 2372.00 L 1700.00 2371.00 L 1660.00 2371.00 L 1640.00 2370.00 L 1600.00 2370.00 L 1580.00 2369.00 L 1540.00 2369.00 L 1520.00 2368.00 L 1460.00 2368.00 L 1440.00 2367.00 L 1400.00 2367.00 L 1380.00 2366.00 L 1340.00 2366.00 L 1320.00 2365.00 L 1280.00 2365.00 L 1260.00 2364.00 L 1220.00 2364.00 L 1200.00 2363.00 L 1160.00 2363.00 L 1140.00 2362.00 L 1100.00 2362.00 L 1080.00 2361.00 L 1060.00 2361.00 L 1040.00 2341.00 Z" />
<path id="csg562-064-16" fill="none" stroke="black" stroke-width="1" d="M 863.80 2478.00 L 862.07 2582.00 L 920.00 2582.00 L 940.00 2583.00 L 1000.00 2583.00 L 1020.00 2584.00 L 1080.00 2584.00 L 1100.00 2585.00 L 1180.00 2585.00 L 1200.00 2586.00 L 1260.00 2586.00 L 1280.00 2587.00 L 1340.00 2587.00 L 1360.00 2588.00 L 1420.00 2588.00 L 1440.00 2589.00 L 1520.00 2589.00 L 1540.00 2590.00 L 1600.00 2590.00 L 1620.00 2591.00 L 1680.00 2591.00 L 1700.00 2592.00 L 1780.00 2592.00 L 1800.00 2593.00 L 1860.00 2593.00 L 1880.00 2594.00 L 1940.00 2594.00 L 1960.00 2595.00 L 2000.00 2595.00 L 2020.00 2598.00 L 2040.00 2602.00 L 2080.00 2602.00 L 2100.00 2596.00 L 2120.00 2596.00 L 2140.00 2597.00 L 2200.00 2597.00 L 2220.00 2598.00 L 2280.00 2598.00 L 2300.00 2599.00 L 2320.00 2599.00 L 2340.00 2619.00 L 2360.00 2599.00 L 2380.00 2599.00 L 2400.00 2600.00 L 2460.00 2600.00 L 2480.00 2601.00 L 2540.00 2601.00 L 2560.00 2602.00 L 2620.00 2602.00 L 2640.00 2623.00 L 2680.00 2623.00 L 2700.00 2603.00 L 2720.00 2603.00 L 2740.00 2604.00 L 2800.00 2604.00 L 2820.00 2605.00 L 2880.00 2605.00 L 2900.00 2606.00 L 2968.76 2606.00 L 2992.37 2508.00 L 2980.00 2508.00 L 2960.00 2507.00 L 2920.00 2507.00 L 2900.00 2506.00 L 2840.00 2506.00 L 2820.00 2505.00 L 2780.00 2505.00 L 2760.00 2504.00 L 2700.00 2504.00 L 2680.00 2503.00 L 2640.00 2503.00 L 2620.00 2502.00 L 2560.00 2502.00 L 2540.00 2501.00 L 2480.00 2501.00 L 2460.00 2500.00 L 2420.00 2500.00 L 2400.00 2499.00 L 2340.00 2499.00 L 2320.00 2498.00 L 2280.00 2498.00 L 2260.00 2497.00 L 2200.00 2497.00 L 2180.00 2496.00 L 2140.00 2496.00 L 2120.00 2495.00 L 2060.00 2495.00 L 2040.00 2494.00 L 2000.00 2494.00 L 1980.00 2493.00 L 1920.00 2493.00 L 1900.00 2492.00 L 1840.00 2492.00 L 1820.00 2491.00 L 1780.00 2491.00 L 1760.00 2490.00 L 1700.00 2490.00 L 1680.00 2489.00 L 1640.00 2489.00 L 1620.00 2488.00 L 1560.00 2488.00 L 1540.00 2487.00 L 1500.00 2487.00 L 1480.00 2486.00 L 1420.00 2486.00 L 1400.00 2485.00 L 1340.00 2485.00 L 1320.00 2484.00 L 1280.00 2484.00 L 1260.00 2483.00 L 1200.00 2483.00 L 1180.00 2482.00 L 1140.00 2482.00 L 1120.00 2481.00 L 1060.00 2481.00 L 1040.00 2480.00 L 1000.00 2480.00 L 980.00 2479.00 L 920.00 2479.00 L 900.00 2478.00 Z" />
<path id="csg562-064-17" fill="none" stroke="black" stroke-width="1" d="M 862.07 2582.00 L 861.00 2646.00 L 860.37 2691.00 L 920.00 2691.00 L 940.00 2692.00 L 1000.00 2692.00 L 1020.00 2693.00 L 1100.00 2693.00 L 1120.00 2674.00 L 1140.00 2674.00 L 1160.00 2694.00 L 1180.00 2694.00 L 1200.00 2695.00 L 1280.00 2695.00 L 1300.00 2696.00 L 1360.00 2696.00 L 1380.00 2697.00 L 1460.00 2697.00 L 1480.00 2698.00 L 1540.00 2698.00 L 1560.00 2699.00 L 1620.00 2699.00 L 1640.00 2700.00 L 1720.00 2700.00 L 1740.00 2701.00 L 1800.00 2701.00 L 1820.00 2702.00 L 1900.00 2702.00 L 1920.00 2703.00 L 1980.00 2703.00 L 2000.00 2704.00 L 2080.00 2704.00 L 2100.00 2705.00 L 2160.00 2705.00 L 2180.00 2706.00 L 2240.00 2706.00 L 2260.00 2707.00 L 2340.00 2707.00 L 2360.00 2708.00 L 2420.00 2708.00 L 2440.00 2709.00 L 2520.00 2709.00 L 2540.00 2710.00 L 2600.00 2710.00 L 2620.00 2711.00 L 2700.00 2711.00 L 2720.00 2712.00 L 2780.00 2712.00 L 2800.00 2713.00 L 2860.00 2713.00 L 2880.00 2714.00 L 2925.17 2714.00 L 2949.00 2688.00 L 2968.76 2606.00 L 2900.00 2606.00 L 2880.00 2605.00 L 2820.00 2605.00 L 2800.00 2604.00 L 2740.00 2604.00 L 2720.00 2603.00 L 2700.00 2603.00 L 2680.00 2623.00 L 2640.00 2623.00 L 2620.00 2602.00 L 2560.00 2602.00 L 2540.00 2601.00 L 2480.00 2601.00 L 2460.00 2600.00 L 2400.00 2600.00 L 2380.00 2599.00 L 2360.00 2599.00 L 2340.00 2619.00 L 2320.00 2599.00 L 2300.00 2599.00 L 2280.00 2598.00 L 2220.00 2598.00 L 2200.00 2597.00 L 2140.00 2597.00 L 2120.00 2596.00 L 2100.00 2596.00 L 2080.00 2602.00 L 2040.00 2602.00 L 2020.00 2598.00 L 2000.00 2595.00 L 1960.00 2595.00 L 1940.00 2594.00 L 1880.00 2594.00 L 1860.00 2593.00 L 1800.00 2593.00 L 1780.00 2592.00 L 1700.00 2592.00 L 1680.00 2591.00 L 1620.00 2591.00 L 1600.00 2590.00 L 1540.00 2590.00 L 1520.00 2589.00 L 1440.00 2589.00 L 1420.00 2588.00 L 1360.00 2588.00 L 1340.00 2587.00 L 1280.00 2587.00 L 1260.00 2586.00 L 1200.00 2586.00 L 1180.00 2585.00 L 1100.00 2585.00 L 1080.00 2584.00 L 1020.00 2584.00 L 1000.00 2583.00 L 940.00 2583.00 L 920.00 2582.00 Z" />
<path id="csg562-064-18" fill="none" stroke="black" stroke-width="1" d="M 1120.00 2674.00 L 1100.00 2693.00 L 1020.00 2693.00 L 1000.00 2692.00 L 940.00 2692.00 L 920.00 2691.00 L 860.37 2691.00 L 858.72 2809.64 L 860.00 2809.00 L 880.00 2809.00 L 900.00 2789.00 L 920.00 2790.00 L 940.00 2810.00 L 980.00 2810.00 L 1000.00 2811.00 L 1040.00 2811.00 L 1060.00 2812.00 L 1120.00 2812.00 L 1140.00 2813.00 L 1180.00 2813.00 L 1200.00 2814.00 L 1260.00 2814.00 L 1280.00 2815.00 L 1320.00 2815.00 L 1340.00 2816.00 L 1400.00 2816.00 L 1420.00 2817.00 L 1480.00 2817.00 L 1500.00 2818.00 L 1540.00 2818.00 L 1560.00 2819.00 L 1620.00 2819.00 L 1640.00 2820.00 L 1680.00 2820.00 L 1700.00 2821.00 L 1760.00 2821.00 L 1780.00 2822.00 L 1820.00 2822.00 L 1840.00 2823.00 L 1900.00 2823.00 L 1920.00 2824.00 L 1980.00 2824.00 L 2000.00 2825.00 L 2040.00 2825.00 L 2060.00 2826.00 L 2120.00 2826.00 L 2140.00 2827.00 L 2180.00 2827.00 L 2200.00 2828.00 L 2260.00 2828.00 L 2280.00 2829.00 L 2320.00 2829.00 L 2340.00 2830.00 L 2400.00 2830.00 L 2420.00 2831.00 L 2480.00 2831.00 L 2500.00 2832.00 L 2540.00 2832.00 L 2560.00 2833.00 L 2620.00 2833.00 L 2640.00 2834.00 L 2680.00 2834.00 L 2700.00 2835.00 L 2760.00 2835.00 L 2780.00 2836.00 L 2820.00 2836.00 L 2840.00 2837.00 L 2900.00 2837.00 L 2920.00 2838.00 L 2920.87 2838.00 L 2922.00 2826.00 L 2817.00 2832.00 L 2925.17 2714.00 L 2880.00 2714.00 L 2860.00 2713.00 L 2800.00 2713.00 L 2780.00 2712.00 L 2720.00 2712.00 L 2700.00 2711.00 L 2620.00 2711.00 L 2600.00 2710.00 L 2540.00 2710.00 L 2520.00 2709.00 L 2440.00 2709.00 L 2420.00 2708.00 L 2360.00 2708.00 L 2340.00 2707.00 L 2260.00 2707.00 L 2240.00 2706.00 L 2180.00 2706.00 L 2160.00 2705.00 L 2100.00 2705.00 L 2080.00 2704.00 L 2000.00 2704.00 L 1980.00 2703.00 L 1920.00 2703.00 L 1900.00 2702.00 L 1820.00 2702.00 L 1800.00 2701.00 L 1740.00 2701.00 L 1720.00 2700.00 L 1640.00 2700.00 L 1620.00 2699.00 L 1560.00 2699.00 L 1540.00 2698.00 L 1480.00 2698.00 L 1460.00 2697.00 L 1380.00 2697.00 L 1360.00 2696.00 L 1300.00 2696.00 L 1280.00 2695.00 L 1200.00 2695.00 L 1180.00 2694.00 L 1160.00 2694.00 L 1140.00 2674.00 Z" />
<path id="csg562-064-19" fill="none" stroke="black" stroke-width="1" d="M 900.00 2789.00 L 880.00 2809.00 L 860.00 2809.00 L 858.72 2809.64 L 857.21 2917.39 L 860.00 2916.00 L 900.00 2916.00 L 920.00 2917.00 L 980.00 2917.00 L 1000.00 2918.00 L 1060.00 2918.00 L 1080.00 2919.00 L 1140.00 2919.00 L 1160.00 2920.00 L 1220.00 2920.00 L 1240.00 2921.00 L 1300.00 2921.00 L 1320.00 2922.00 L 1380.00 2922.00 L 1400.00 2923.00 L 1460.00 2923.00 L 1480.00 2924.00 L 1540.00 2924.00 L 1560.00 2925.00 L 1620.00 2925.00 L 1640.00 2926.00 L 1680.00 2926.00 L 1700.00 2927.00 L 1760.00 2927.00 L 1780.00 2928.00 L 1840.00 2928.00 L 1860.00 2929.00 L 1920.00 2929.00 L 1940.00 2930.00 L 2000.00 2930.00 L 2020.00 2931.00 L 2080.00 2931.00 L 2100.00 2932.00 L 2160.00 2932.00 L 2180.00 2933.00 L 2240.00 2933.00 L 2260.00 2934.00 L 2280.00 2954.00 L 2300.00 2934.00 L 2320.00 2934.00 L 2340.00 2935.00 L 2400.00 2935.00 L 2420.00 2936.00 L 2460.00 2936.00 L 2480.00 2937.00 L 2540.00 2937.00 L 2560.00 2938.00 L 2580.00 2958.00 L 2600.00 2938.00 L 2620.00 2938.00 L 2640.00 2939.00 L 2700.00 2939.00 L 2720.00 2940.00 L 2780.00 2940.00 L 2800.00 2941.00 L 2860.00 2941.00 L 2880.00 2942.00 L 2911.08 2942.00 L 2920.87 2838.00 L 2920.00 2838.00 L 2900.00 2837.00 L 2840.00 2837.00 L 2820.00 2836.00 L 2780.00 2836.00 L 2760.00 2835.00 L 2700.00 2835.00 L 2680.00 2834.00 L 2640.00 2834.00 L 2620.00 2833.00 L 2560.00 2833.00 L 2540.00 2832.00 L 2500.00 2832.00 L 2480.00 2831.00 L 2420.00 2831.00 L 2400.00 2830.00 L 2340.00 2830.00 L 2320.00 2829.00 L 2280.00 2829.00 L 2260.00 2828.00 L 2200.00 2828.00 L 2180.00 2827.00 L 2140.00 2827.00 L 2120.00 2826.00 L 2060.00 2826.00 L 2040.00 2825.00 L 2000.00 2825.00 L 1980.00 2824.00 L 1920.00 2824.00 L 1900.00 2823.00 L 1840.00 2823.00 L 1820.00 2822.00 L 1780.00 2822.00 L 1760.00 2821.00 L 1700.00 2821.00 L 1680.00 2820.00 L 1640.00 2820.00 L 1620.00 2819.00 L 1560.00 2819.00 L 1540.00 2818.00 L 1500.00 2818.00 L 1480.00 2817.00 L 1420.00 2817.00 L 1400.00 2816.00 L 1340.00 2816.00 L 1320.00 2815.00 L 1280.00 2815.00 L 1260.00 2814.00 L 1200.00 2814.00 L 1180.00 2813.00 L 1140.00 2813.00 L 1120.00 2812.00 L 1060.00 2812.00 L 1040.00 2811.00 L 1000.00 2811.00 L 980.00 2810.00 L 940.00 2810.00 L 920.00 2790.00 L 900.00 2789.00 Z" />
<path id="csg562-064-20" fill="none" stroke="black" stroke-width="1" d="M 860.00 2916.00 L 857.21 2917.39 L 855.68 3027.16 L 855.68 3027.16 L 860.00 3025.00 L 880.00 3025.00 L 900.00 3026.00 L 940.00 3026.00 L 960.00 3027.00 L 1000.00 3027.00 L 1020.00 3028.00 L 1060.00 3028.00 L 1080.00 3029.00 L 1100.00 3029.00 L 1120.00 3030.00 L 1160.00 3030.00 L 1180.00 3031.00 L 1220.00 3031.00 L 1240.00 3032.00 L 1280.00 3032.00 L 1300.00 3033.00 L 1340.00 3033.00 L 1360.00 3034.00 L 1380.00 3034.00 L 1400.00 3035.00 L 1440.00 3035.00 L 1460.00 3036.00 L 1500.00 3036.00 L 1520.00 3037.00 L 1560.00 3037.00 L 1580.00 3038.00 L 1620.00 3038.00 L 1640.00 3039.00 L 1660.00 3039.00 L 1680.00 3040.00 L 1720.00 3040.00 L 1740.00 3041.00 L 1780.00 3041.00 L 1800.00 3042.00 L 1840.00 3042.00 L 1860.00 3043.00 L 1900.00 3043.00 L 1920.00 3044.00 L 1940.00 3044.00 L 1960.00 3045.00 L 2000.00 3045.00 L 2020.00 3046.00 L 2060.00 3046.00 L 2080.00 3047.00 L 2120.00 3047.00 L 2140.00 3048.00 L 2180.00 3048.00 L 2200.00 3049.00 L 2220.00 3049.00 L 2240.00 3050.00 L 2280.00 3050.00 L 2300.00 3051.00 L 2340.00 3051.00 L 2360.00 3052.00 L 2400.00 3052.00 L 2420.00 3053.00 L 2440.00 3053.00 L 2460.00 3054.00 L 2500.00 3054.00 L 2520.00 3055.00 L 2560.00 3055.00 L 2580.00 3056.00 L 2620.00 3056.00 L 2640.00 3057.00 L 2680.00 3057.00 L 2700.00 3058.00 L 2720.00 3058.00 L 2740.00 3059.00 L 2780.00 3059.00 L 2800.00 3060.00 L 2840.00 3060.00 L 2860.00 3061.00 L 2899.88 3061.00 L 2911.08 2942.00 L 2880.00 2942.00 L 2860.00 2941.00 L 2800.00 2941.00 L 2780.00 2940.00 L 2720.00 2940.00 L 2700.00 2939.00 L 2640.00 2939.00 L 2620.00 2938.00 L 2600.00 2938.00 L 2580.00 2958.00 L 2560.00 2938.00 L 2540.00 2937.00 L 2480.00 2937.00 L 2460.00 2936.00 L 2420.00 2936.00 L 2400.00 2935.00 L 2340.00 2935.00 L 2320.00 2934.00 L 2300.00 2934.00 L 2280.00 2954.00 L 2260.00 2934.00 L 2240.00 2933.00 L 2180.00 2933.00 L 2160.00 2932.00 L 2100.00 2932.00 L 2080.00 2931.00 L 2020.00 2931.00 L 2000.00 2930.00 L 1940.00 2930.00 L 1920.00 2929.00 L 1860.00 2929.00 L 1840.00 2928.00 L 1780.00 2928.00 L 1760.00 2927.00 L 1700.00 2927.00 L 1680.00 2926.00 L 1640.00 2926.00 L 1620.00 2925.00 L 1560.00 2925.00 L 1540.00 2924.00 L 1480.00 2924.00 L 1460.00 2923.00 L 1400.00 2923.00 L 1380.00 2922.00 L 1320.00 2922.00 L 1300.00 2921.00 L 1240.00 2921.00 L 1220.00 2920.00 L 1160.00 2920.00 L 1140.00 2919.00 L 1080.00 2919.00 L 1060.00 2918.00 L 1000.00 2918.00 L 980.00 2917.00 L 920.00 2917.00 L 900.00 2916.00 Z" />
<path id="csg562-064-21" fill="none" stroke="black" stroke-width="1" d="M 860.00 3025.00 L 855.68 3027.16 L 854.18 3134.91 L 860.00 3132.00 L 880.00 3132.00 L 900.00 3133.00 L 920.00 3133.00 L 940.00 3134.00 L 980.00 3134.00 L 1000.00 3135.00 L 1020.00 3135.00 L 1040.00 3136.00 L 1060.00 3136.00 L 1080.00 3156.00 L 1100.00 3157.00 L 1120.00 3137.00 L 1140.00 3138.00 L 1180.00 3138.00 L 1200.00 3139.00 L 1220.00 3139.00 L 1240.00 3140.00 L 1280.00 3140.00 L 1300.00 3141.00 L 1320.00 3141.00 L 1340.00 3142.00 L 1360.00 3142.00 L 1380.00 3143.00 L 1420.00 3143.00 L 1440.00 3144.00 L 1460.00 3144.00 L 1480.00 3145.00 L 1520.00 3145.00 L 1540.00 3146.00 L 1560.00 3146.00 L 1580.00 3147.00 L 1620.00 3147.00 L 1640.00 3148.00 L 1660.00 3148.00 L 1680.00 3149.00 L 1720.00 3149.00 L 1740.00 3150.00 L 1760.00 3150.00 L 1780.00 3151.00 L 1800.00 3151.00 L 1820.00 3152.00 L 1860.00 3152.00 L 1880.00 3153.00 L 1900.00 3153.00 L 1920.00 3154.00 L 1960.00 3154.00 L 1980.00 3155.00 L 2000.00 3155.00 L 2020.00 3156.00 L 2060.00 3156.00 L 2080.00 3157.00 L 2100.00 3157.00 L 2120.00 3158.00 L 2160.00 3158.00 L 2180.00 3159.00 L 2200.00 3159.00 L 2220.00 3160.00 L 2240.00 3160.00 L 2260.00 3161.00 L 2300.00 3161.00 L 2320.00 3162.00 L 2340.00 3162.00 L 2360.00 3163.00 L 2400.00 3163.00 L 2420.00 3144.00 L 2440.00 3144.00 L 2460.00 3145.00 L 2480.00 3125.00 L 2500.00 3125.00 L 2520.00 3166.00 L 2540.00 3166.00 L 2560.00 3167.00 L 2600.00 3167.00 L 2620.00 3168.00 L 2640.00 3168.00 L 2660.00 3169.00 L 2680.00 3169.00 L 2700.00 3170.00 L 2740.00 3170.00 L 2760.00 3171.00 L 2780.00 3171.00 L 2800.00 3172.00 L 2840.00 3172.00 L 2860.00 3173.00 L 2880.00 3173.00 L 2900.00 3174.00 L 2931.44 3174.00 L 2898.00 3081.00 L 2899.88 3061.00 L 2860.00 3061.00 L 2840.00 3060.00 L 2800.00 3060.00 L 2780.00 3059.00 L 2740.00 3059.00 L 2720.00 3058.00 L 2700.00 3058.00 L 2680.00 3057.00 L 2640.00 3057.00 L 2620.00 3056.00 L 2580.00 3056.00 L 2560.00 3055.00 L 2520.00 3055.00 L 2500.00 3054.00 L 2460.00 3054.00 L 2440.00 3053.00 L 2420.00 3053.00 L 2400.00 3052.00 L 2360.00 3052.00 L 2340.00 3051.00 L 2300.00 3051.00 L 2280.00 3050.00 L 2240.00 3050.00 L 2220.00 3049.00 L 2200.00 3049.00 L 2180.00 3048.00 L 2140.00 3048.00 L 2120.00 3047.00 L 2080.00 3047.00 L 2060.00 3046.00 L 2020.00 3046.00 L 2000.00 3045.00 L 1960.00 3045.00 L 1940.00 3044.00 L 1920.00 3044.00 L 1900.00 3043.00 L 1860.00 3043.00 L 1840.00 3042.00 L 1800.00 3042.00 L 1780.00 3041.00 L 1740.00 3041.00 L 1720.00 3040.00 L 1680.00 3040.00 L 1660.00 3039.00 L 1640.00 3039.00 L 1620.00 3038.00 L 1580.00 3038.00 L 1560.00 3037.00 L 1520.00 3037.00 L 1500.00 3036.00 L 1460.00 3036.00 L 1440.00 3035.00 L 1400.00 3035.00 L 1380.00 3034.00 L 1360.00 3034.00 L 1340.00 3033.00 L 1300.00 3033.00 L 1280.00 3032.00 L 1240.00 3032.00 L 1220.00 3031.00 L 1180.00 3031.00 L 1160.00 3030.00 L 1120.00 3030.00 L 1100.00 3029.00 L 1080.00 3029.00 L 1060.00 3028.00 L 1020.00 3028.00 L 1000.00 3027.00 L 960.00 3027.00 L 940.00 3026.00 L 900.00 3026.00 L 880.00 3025.00 Z" />
<path id="csg562-064-22" fill="none" stroke="black" stroke-width="1" d="M 2480.00 3125.00 L 2460.00 3145.00 L 2440.00 3144.00 L 2420.00 3144.00 L 2400.00 3163.00 L 2360.00 3163.00 L 2340.00 3162.00 L 2320.00 3162.00 L 2300.00 3161.00 L 2260.00 3161.00 L 2240.00 3160.00 L 2220.00 3160.00 L 2200.00 3159.00 L 2180.00 3159.00 L 2160.00 3158.00 L 2120.00 3158.00 L 2100.00 3157.00 L 2080.00 3157.00 L 2060.00 3156.00 L 2020.00 3156.00 L 2000.00 3155.00 L 1980.00 3155.00 L 1960.00 3154.00 L 1920.00 3154.00 L 1900.00 3153.00 L 1880.00 3153.00 L 1860.00 3152.00 L 1820.00 3152.00 L 1800.00 3151.00 L 1780.00 3151.00 L 1760.00 3150.00 L 1740.00 3150.00 L 1720.00 3149.00 L 1680.00 3149.00 L 1660.00 3148.00 L 1640.00 3148.00 L 1620.00 3147.00 L 1580.00 3147.00 L 1560.00 3146.00 L 1540.00 3146.00 L 1520.00 3145.00 L 1480.00 3145.00 L 1460.00 3144.00 L 1440.00 3144.00 L 1420.00 3143.00 L 1380.00 3143.00 L 1360.00 3142.00 L 1340.00 3142.00 L 1320.00 3141.00 L 1300.00 3141.00 L 1280.00 3140.00 L 1240.00 3140.00 L 1220.00 3139.00 L 1200.00 3139.00 L 1180.00 3138.00 L 1140.00 3138.00 L 1120.00 3137.00 L 1100.00 3157.00 L 1080.00 3156.00 L 1060.00 3136.00 L 1040.00 3136.00 L 1020.00 3135.00 L 1000.00 3135.00 L 980.00 3134.00 L 940.00 3134.00 L 920.00 3133.00 L 900.00 3133.00 L 880.00 3132.00 L 860.00 3132.00 L 854.18 3134.91 L 852.55 3251.73 L 852.55 3251.73 L 860.00 3248.00 L 880.00 3248.00 L 900.00 3249.00 L 920.00 3249.00 L 940.00 3250.00 L 980.00 3250.00 L 1000.00 3251.00 L 1020.00 3251.00 L 1040.00 3252.00 L 1060.00 3252.00 L 1080.00 3253.00 L 1120.00 3253.00 L 1140.00 3254.00 L 1160.00 3254.00 L 1180.00 3255.00 L 1200.00 3255.00 L 1220.00 3256.00 L 1260.00 3256.00 L 1280.00 3257.00 L 1300.00 3257.00 L 1320.00 3258.00 L 1360.00 3258.00 L 1380.00 3259.00 L 1400.00 3259.00 L 1420.00 3260.00 L 1440.00 3260.00 L 1460.00 3261.00 L 1500.00 3261.00 L 1520.00 3262.00 L 1540.00 3262.00 L 1560.00 3263.00 L 1580.00 3263.00 L 1600.00 3264.00 L 1640.00 3264.00 L 1660.00 3265.00 L 1680.00 3265.00 L 1700.00 3266.00 L 1740.00 3266.00 L 1760.00 3267.00 L 1780.00 3267.00 L 1800.00 3268.00 L 1820.00 3268.00 L 1840.00 3269.00 L 1880.00 3269.00 L 1900.00 3270.00 L 1920.00 3270.00 L 1940.00 3271.00 L 1960.00 3271.00 L 1980.00 3272.00 L 2020.00 3272.00 L 2040.00 3273.00 L 2060.00 3273.00 L 2080.00 3274.00 L 2100.00 3274.00 L 2120.00 3275.00 L 2160.00 3275.00 L 2180.00 3276.00 L 2200.00 3276.00 L 2220.00 3277.00 L 2260.00 3277.00 L 2280.00 3278.00 L 2300.00 3278.00 L 2320.00 3279.00 L 2340.00 3279.00 L 2360.00 3280.00 L 2400.00 3280.00 L 2420.00 3281.00 L 2440.00 3281.00 L 2460.00 3282.00 L 2480.00 3282.00 L 2500.00 3283.00 L 2540.00 3283.00 L 2560.00 3284.00 L 2580.00 3284.00 L 2600.00 3285.00 L 2640.00 3285.00 L 2660.00 3286.00 L 2680.00 3286.00 L 2700.00 3287.00 L 2720.00 3287.00 L 2740.00 3288.00 L 2780.00 3288.00 L 2800.00 3289.00 L 2820.00 3289.00 L 2840.00 3290.00 L 2860.00 3290.00 L 2880.00 3291.00 L 2920.00 3291.00 L 2940.00 3292.00 L 2960.00 3292.00 L 2974.12 3292.71 L 2931.44 3174.00 L 2900.00 3174.00 L 2880.00 3173.00 L 2860.00 3173.00 L 2840.00 3172.00 L 2800.00 3172.00 L 2780.00 3171.00 L 2760.00 3171.00 L 2740.00 3170.00 L 2700.00 3170.00 L 2680.00 3169.00 L 2660.00 3169.00 L 2640.00 3168.00 L 2620.00 3168.00 L 2600.00 3167.00 L 2560.00 3167.00 L 2540.00 3166.00 L 2520.00 3166.00 L 2500.00 3125.00 Z" />
<path id="csg562-064-23" fill="none" stroke="black" stroke-width="1" d="M 860.00 3248.00 L 852.55 3251.73 L 852.00 3291.00 L 846.46 3365.77 L 860.00 3359.00 L 900.00 3359.00 L 920.00 3360.00 L 960.00 3360.00 L 980.00 3361.00 L 1020.00 3361.00 L 1040.00 3362.00 L 1080.00 3362.00 L 1100.00 3363.00 L 1140.00 3363.00 L 1160.00 3364.00 L 1220.00 3364.00 L 1240.00 3365.00 L 1280.00 3365.00 L 1300.00 3366.00 L 1340.00 3366.00 L 1360.00 3367.00 L 1400.00 3367.00 L 1420.00 3368.00 L 1460.00 3368.00 L 1480.00 3369.00 L 1520.00 3369.00 L 1540.00 3370.00 L 1600.00 3370.00 L 1620.00 3371.00 L 1660.00 3371.00 L 1680.00 3372.00 L 1720.00 3372.00 L 1740.00 3373.00 L 1780.00 3373.00 L 1800.00 3374.00 L 1840.00 3374.00 L 1860.00 3375.00 L 1920.00 3375.00 L 1940.00 3376.00 L 1980.00 3376.00 L 2000.00 3377.00 L 2040.00 3377.00 L 2060.00 3378.00 L 2100.00 3378.00 L 2120.00 3379.00 L 2160.00 3379.00 L 2180.00 3380.00 L 2220.00 3380.00 L 2240.00 3381.00 L 2300.00 3381.00 L 2320.00 3382.00 L 2360.00 3382.00 L 2380.00 3383.00 L 2420.00 3383.00 L 2440.00 3384.00 L 2480.00 3384.00 L 2500.00 3385.00 L 2540.00 3385.00 L 2560.00 3386.00 L 2620.00 3386.00 L 2640.00 3387.00 L 2680.00 3387.00 L 2700.00 3388.00 L 2740.00 3388.00 L 2760.00 3389.00 L 2800.00 3389.00 L 2820.00 3390.00 L 2860.00 3390.00 L 2880.00 3391.00 L 2920.00 3391.00 L 2940.00 3392.00 L 2994.00 3392.00 L 2994.00 3348.00 L 2974.12 3292.71 L 2960.00 3292.00 L 2940.00 3292.00 L 2920.00 3291.00 L 2880.00 3291.00 L 2860.00 3290.00 L 2840.00 3290.00 L 2820.00 3289.00 L 2800.00 3289.00 L 2780.00 3288.00 L 2740.00 3288.00 L 2720.00 3287.00 L 2700.00 3287.00 L 2680.00 3286.00 L 2660.00 3286.00 L 2640.00 3285.00 L 2600.00 3285.00 L 2580.00 3284.00 L 2560.00 3284.00 L 2540.00 3283.00 L 2500.00 3283.00 L 2480.00 3282.00 L 2460.00 3282.00 L 2440.00 3281.00 L 2420.00 3281.00 L 2400.00 3280.00 L 2360.00 3280.00 L 2340.00 3279.00 L 2320.00 3279.00 L 2300.00 3278.00 L 2280.00 3278.00 L 2260.00 3277.00 L 2220.00 3277.00 L 2200.00 3276.00 L 2180.00 3276.00 L 2160.00 3275.00 L 2120.00 3275.00 L 2100.00 3274.00 L 2080.00 3274.00 L 2060.00 3273.00 L 2040.00 3273.00 L 2020.00 3272.00 L 1980.00 3272.00 L 1960.00 3271.00 L 1940.00 3271.00 L 1920.00 3270.00 L 1900.00 3270.00 L 1880.00 3269.00 L 1840.00 3269.00 L 1820.00 3268.00 L 1800.00 3268.00 L 1780.00 3267.00 L 1760.00 3267.00 L 1740.00 3266.00 L 1700.00 3266.00 L 1680.00 3265.00 L 1660.00 3265.00 L 1640.00 3264.00 L 1600.00 3264.00 L 1580.00 3263.00 L 1560.00 3263.00 L 1540.00 3262.00 L 1520.00 3262.00 L 1500.00 3261.00 L 1460.00 3261.00 L 1440.00 3260.00 L 1420.00 3260.00 L 1400.00 3259.00 L 1380.00 3259.00 L 1360.00 3258.00 L 1320.00 3258.00 L 1300.00 3257.00 L 1280.00 3257.00 L 1260.00 3256.00 L 1220.00 3256.00 L 1200.00 3255.00 L 1180.00 3255.00 L 1160.00 3254.00 L 1140.00 3254.00 L 1120.00 3253.00 L 1080.00 3253.00 L 1060.00 3252.00 L 1040.00 3252.00 L 1020.00 3251.00 L 1000.00 3251.00 L 980.00 3250.00 L 940.00 3250.00 L 920.00 3249.00 L 900.00 3249.00 L 880.00 3248.00 Z" />
<path id="csg562-064-24" fill="none" stroke="black" stroke-width="1" d="M 860.00 3359.00 L 846.46 3365.77 L 840.00 3453.00 L 921.82 3466.09 L 940.00 3467.00 L 1000.00 3467.00 L 1013.03 3480.69 L 1025.34 3482.66 L 1040.00 3468.00 L 1100.00 3468.00 L 1120.00 3469.00 L 1180.00 3469.00 L 1200.00 3470.00 L 1260.00 3470.00 L 1280.00 3471.00 L 1360.00 3471.00 L 1380.00 3472.00 L 1440.00 3472.00 L 1460.00 3473.00 L 1500.00 3473.00 L 1519.93 3490.94 L 1520.07 3490.94 L 1540.00 3474.00 L 1620.00 3474.00 L 1640.00 3475.00 L 1700.00 3475.00 L 1720.00 3476.00 L 1780.00 3476.00 L 1800.00 3477.00 L 1880.00 3477.00 L 1900.00 3478.00 L 1960.00 3478.00 L 1980.00 3479.00 L 2040.00 3479.00 L 2060.00 3480.00 L 2080.00 3480.00 L 2100.00 3491.00 L 2120.00 3480.00 L 2140.00 3480.00 L 2160.00 3481.00 L 2220.00 3481.00 L 2240.00 3482.00 L 2300.00 3482.00 L 2320.00 3483.00 L 2400.00 3483.00 L 2420.00 3484.00 L 2480.00 3484.00 L 2500.00 3485.00 L 2560.00 3485.00 L 2580.00 3486.00 L 2660.00 3486.00 L 2680.00 3487.00 L 2740.00 3487.00 L 2760.00 3488.00 L 2820.00 3488.00 L 2840.00 3489.00 L 2920.00 3489.00 L 2925.42 3489.27 L 2994.00 3489.00 L 2994.00 3392.00 L 2940.00 3392.00 L 2920.00 3391.00 L 2880.00 3391.00 L 2860.00 3390.00 L 2820.00 3390.00 L 2800.00 3389.00 L 2760.00 3389.00 L 2740.00 3388.00 L 2700.00 3388.00 L 2680.00 3387.00 L 2640.00 3387.00 L 2620.00 3386.00 L 2560.00 3386.00 L 2540.00 3385.00 L 2500.00 3385.00 L 2480.00 3384.00 L 2440.00 3384.00 L 2420.00 3383.00 L 2380.00 3383.00 L 2360.00 3382.00 L 2320.00 3382.00 L 2300.00 3381.00 L 2240.00 3381.00 L 2220.00 3380.00 L 2180.00 3380.00 L 2160.00 3379.00 L 2120.00 3379.00 L 2100.00 3378.00 L 2060.00 3378.00 L 2040.00 3377.00 L 2000.00 3377.00 L 1980.00 3376.00 L 1940.00 3376.00 L 1920.00 3375.00 L 1860.00 3375.00 L 1840.00 3374.00 L 1800.00 3374.00 L 1780.00 3373.00 L 1740.00 3373.00 L 1720.00 3372.00 L 1680.00 3372.00 L 1660.00 3371.00 L 1620.00 3371.00 L 1600.00 3370.00 L 1540.00 3370.00 L 1520.00 3369.00 L 1480.00 3369.00 L 1460.00 3368.00 L 1420.00 3368.00 L 1400.00 3367.00 L 1360.00 3367.00 L 1340.00 3366.00 L 1300.00 3366.00 L 1280.00 3365.00 L 1240.00 3365.00 L 1220.00 3364.00 L 1160.00 3364.00 L 1140.00 3363.00 L 1100.00 3363.00 L 1080.00 3362.00 L 1040.00 3362.00 L 1020.00 3361.00 L 980.00 3361.00 L 960.00 3360.00 L 920.00 3360.00 L 900.00 3359.00 Z" />
</svg>
