<?xml version="1.0" standalone="no"?>
<!DOCTYPE svg PUBLIC "-//W3C//DTD SVG 1.1//EN" "http://www.w3.org/Graphics/SVG/1.1/DTD/svg11.dtd">
<svg width="46.22222in" height="69.333336in" viewBox="0 0 3328 4992" xmlns="http://www.w3.org/2000/svg" version="1.1">
<path id="csg562-025-01" fill="none" stroke="black" stroke-width="1" d="M 468.40 773.00 L 471.00 882.00 L 468.33 884.00 L 2156.00 884.00 L 2176.00 904.00 L 2196.00 904.00 L 2216.00 884.00 L 2542.44 884.00 L 2451.00 807.00 L 2235.00 789.00 L 1932.00 807.00 L 1884.40 773.00 L 1705.10 773.00 L 1422.00 792.00 L 1280.86 773.00 L 1219.25 773.00 L 705.00 795.00 L 571.31 773.00 Z" />
<path id="csg562-025-02" fill="none" stroke="black" stroke-width="1" d="M 468.33 884.00 L 411.00 927.00 L 409.09 992.46 L 416.00 989.00 L 1236.00 989.00 L 1256.00 990.00 L 1536.00 990.00 L 1556.00 1010.00 L 1576.00 990.00 L 2096.00 990.00 L 2116.00 991.00 L 2558.33 991.00 L 2565.00 981.00 L 2565.00 903.00 L 2542.44 884.00 L 2216.00 884.00 L 2196.00 904.00 L 2176.00 904.00 L 2156.00 884.00 Z" />
<path id="csg562-025-03" fill="none" stroke="black" stroke-width="1" d="M 416.00 989.00 L 409.09 992.46 L 405.54 1113.75 L 416.00 1108.00 L 1916.00 1108.00 L 1936.00 1107.00 L 2216.00 1107.00 L 2236.00 1127.00 L 2256.00 1127.00 L 2276.00 1107.00 L 2481.00 1107.00 L 2558.33 991.00 L 2116.00 991.00 L 2096.00 990.00 L 1576.00 990.00 L 1556.00 1010.00 L 1536.00 990.00 L 1256.00 990.00 L 1236.00 989.00 Z" />
<path id="csg562-025-04" fill="none" stroke="black" stroke-width="1" d="M 1936.00 1107.00 L 1916.00 1108.00 L 416.00 1108.00 L 405.54 1113.75 L 402.00 1234.70 L 416.00 1227.00 L 1196.00 1227.00 L 1216.00 1226.00 L 2016.00 1226.00 L 2036.00 1225.00 L 2492.17 1225.00 L 2469.00 1125.00 L 2481.00 1107.00 L 2276.00 1107.00 L 2256.00 1127.00 L 2236.00 1127.00 L 2216.00 1107.00 Z" />
<path id="csg562-025-05" fill="none" stroke="black" stroke-width="1" d="M 2036.00 1225.00 L 2016.00 1226.00 L 1216.00 1226.00 L 1196.00 1227.00 L 416.00 1227.00 L 402.00 1234.70 L 398.82 1343.59 L 416.00 1335.00 L 856.00 1335.00 L 876.00 1355.00 L 896.00 1335.00 L 1056.00 1335.00 L 1076.00 1355.00 L 1096.00 1355.00 L 1116.00 1335.00 L 1196.00 1335.00 L 1216.00 1336.00 L 2016.00 1336.00 L 2036.00 1337.00 L 2518.12 1337.00 L 2492.17 1225.00 Z" />
<path id="csg562-025-06" fill="none" stroke="black" stroke-width="1" d="M 416.00 1335.00 L 398.82 1343.59 L 396.00 1440.00 L 396.22 1452.88 L 416.00 1442.00 L 676.00 1442.00 L 696.00 1422.00 L 736.00 1422.00 L 756.00 1442.00 L 2526.00 1442.00 L 2526.00 1371.00 L 2518.12 1337.00 L 2036.00 1337.00 L 2016.00 1336.00 L 1216.00 1336.00 L 1196.00 1335.00 L 1116.00 1335.00 L 1096.00 1355.00 L 1076.00 1355.00 L 1056.00 1335.00 L 896.00 1335.00 L 876.00 1355.00 L 856.00 1335.00 Z" />
<path id="csg562-025-07" fill="none" stroke="black" stroke-width="1" d="M 696.00 1422.00 L 676.00 1442.00 L 416.00 1442.00 L 396.22 1452.88 L 398.27 1572.75 L 416.00 1563.00 L 1336.00 1563.00 L 1356.00 1543.00 L 1376.00 1563.00 L 2526.00 1563.00 L 2526.00 1442.00 L 756.00 1442.00 L 736.00 1422.00 Z" />
<path id="csg562-025-08" fill="none" stroke="black" stroke-width="1" d="M 1356.00 1543.00 L 1336.00 1563.00 L 416.00 1563.00 L 398.27 1572.75 L 400.16 1682.71 L 416.00 1674.00 L 896.00 1674.00 L 916.00 1673.00 L 1416.00 1673.00 L 1436.00 1672.00 L 1936.00 1672.00 L 1956.00 1671.00 L 2448.86 1671.00 L 2526.00 1563.00 L 1376.00 1563.00 L 1356.00 1543.00 Z" />
<path id="csg562-025-09" fill="none" stroke="black" stroke-width="1" d="M 1956.00 1671.00 L 1936.00 1672.00 L 1436.00 1672.00 L 1416.00 1673.00 L 916.00 1673.00 L 896.00 1674.00 L 416.00 1674.00 L 400.16 1682.71 L 402.09 1795.65 L 416.00 1788.00 L 716.00 1788.00 L 736.00 1787.00 L 1056.00 1787.00 L 1076.00 1786.00 L 1396.00 1786.00 L 1416.00 1785.00 L 1736.00 1785.00 L 1756.00 1784.00 L 2056.00 1784.00 L 2076.00 1783.00 L 2396.00 1783.00 L 2416.00 1782.00 L 2458.55 1782.00 L 2436.00 1689.00 L 2448.86 1671.00 Z" />
<path id="csg562-025-10" fill="none" stroke="black" stroke-width="1" d="M 2416.00 1782.00 L 2396.00 1783.00 L 2076.00 1783.00 L 2056.00 1784.00 L 1756.00 1784.00 L 1736.00 1785.00 L 1416.00 1785.00 L 1396.00 1786.00 L 1076.00 1786.00 L 1056.00 1787.00 L 736.00 1787.00 L 716.00 1788.00 L 416.00 1788.00 L 402.09 1795.65 L 403.77 1893.73 L 416.00 1887.00 L 636.00 1887.00 L 656.00 1907.00 L 676.00 1887.00 L 836.00 1887.00 L 856.00 1867.00 L 876.00 1867.00 L 896.00 1887.00 L 1056.00 1887.00 L 1076.00 1907.00 L 1096.00 1887.00 L 1116.00 1887.00 L 1136.00 1886.00 L 1856.00 1886.00 L 1876.00 1885.00 L 2503.70 1885.00 L 2460.00 1788.00 L 2458.55 1782.00 Z" />
<path id="csg562-025-11" fill="none" stroke="black" stroke-width="1" d="M 856.00 1867.00 L 836.00 1887.00 L 676.00 1887.00 L 656.00 1907.00 L 636.00 1887.00 L 416.00 1887.00 L 403.77 1893.73 L 405.63 2002.19 L 416.00 1997.00 L 776.00 1997.00 L 796.00 1998.00 L 1176.00 1998.00 L 1196.00 1999.00 L 1556.00 1999.00 L 1576.00 2000.00 L 1756.00 2000.00 L 1776.00 1980.00 L 1796.00 2000.00 L 1956.00 2000.00 L 1976.00 2001.00 L 2336.00 2001.00 L 2356.00 2002.00 L 2556.42 2002.00 L 2503.70 1885.00 L 1876.00 1885.00 L 1856.00 1886.00 L 1136.00 1886.00 L 1116.00 1887.00 L 1096.00 1887.00 L 1076.00 1907.00 L 1056.00 1887.00 L 896.00 1887.00 L 876.00 1867.00 Z" />
<path id="csg562-025-12" fill="none" stroke="black" stroke-width="1" d="M 1776.00 1980.00 L 1756.00 2000.00 L 1576.00 2000.00 L 1556.00 1999.00 L 1196.00 1999.00 L 1176.00 1998.00 L 796.00 1998.00 L 776.00 1997.00 L 416.00 1997.00 L 405.63 2002.19 L 407.40 2105.73 L 416.00 2101.00 L 1976.00 2101.00 L 1996.00 2121.00 L 2016.00 2121.00 L 2036.00 2101.00 L 2552.33 2101.00 L 2583.00 2061.00 L 2556.42 2002.00 L 2356.00 2002.00 L 2336.00 2001.00 L 1976.00 2001.00 L 1956.00 2000.00 L 1796.00 2000.00 L 1776.00 1980.00 Z" />
<path id="csg562-025-13" fill="none" stroke="black" stroke-width="1" d="M 416.00 2101.00 L 407.40 2105.73 L 409.45 2225.60 L 416.00 2222.00 L 636.00 2222.00 L 656.00 2221.00 L 896.00 2221.00 L 916.00 2220.00 L 1156.00 2220.00 L 1176.00 2219.00 L 1416.00 2219.00 L 1436.00 2218.00 L 1656.00 2218.00 L 1676.00 2217.00 L 1896.00 2217.00 L 1916.00 2237.00 L 1936.00 2216.00 L 1976.00 2216.00 L 1996.00 2236.00 L 2016.00 2216.00 L 2176.00 2216.00 L 2196.00 2215.00 L 2436.00 2215.00 L 2456.00 2214.00 L 2620.95 2214.00 L 2514.00 2151.00 L 2552.33 2101.00 L 2036.00 2101.00 L 2016.00 2121.00 L 1996.00 2121.00 L 1976.00 2101.00 Z" />
<path id="csg562-025-14" fill="none" stroke="black" stroke-width="1" d="M 2456.00 2214.00 L 2436.00 2215.00 L 2196.00 2215.00 L 2176.00 2216.00 L 2016.00 2216.00 L 1996.00 2236.00 L 1976.00 2216.00 L 1936.00 2216.00 L 1916.00 2237.00 L 1896.00 2217.00 L 1676.00 2217.00 L 1656.00 2218.00 L 1436.00 2218.00 L 1416.00 2219.00 L 1176.00 2219.00 L 1156.00 2220.00 L 916.00 2220.00 L 896.00 2221.00 L 656.00 2221.00 L 636.00 2222.00 L 416.00 2222.00 L 409.45 2225.60 L 411.00 2316.00 L 492.00 2331.00 L 490.80 2342.00 L 1196.00 2342.00 L 1216.00 2341.00 L 2016.00 2341.00 L 2036.00 2340.00 L 2656.00 2340.00 L 2676.00 2360.00 L 2696.00 2340.00 L 2717.52 2340.00 L 2733.00 2280.00 L 2620.95 2214.00 Z" />
<path id="csg562-025-15" fill="none" stroke="black" stroke-width="1" d="M 2036.00 2340.00 L 2016.00 2341.00 L 1216.00 2341.00 L 1196.00 2342.00 L 490.80 2342.00 L 479.17 2449.00 L 836.00 2449.00 L 856.00 2469.00 L 876.00 2449.00 L 1276.00 2449.00 L 1296.00 2448.00 L 2156.00 2448.00 L 2176.00 2468.00 L 2196.00 2447.00 L 2520.62 2447.00 L 2469.00 2346.00 L 2709.00 2373.00 L 2717.52 2340.00 L 2696.00 2340.00 L 2676.00 2360.00 L 2656.00 2340.00 Z" />
<path id="csg562-025-16" fill="none" stroke="black" stroke-width="1" d="M 2196.00 2447.00 L 2176.00 2468.00 L 2156.00 2448.00 L 1296.00 2448.00 L 1276.00 2449.00 L 876.00 2449.00 L 856.00 2469.00 L 836.00 2449.00 L 479.17 2449.00 L 477.00 2469.00 L 420.00 2490.00 L 420.00 2544.00 L 504.00 2544.00 L 502.73 2551.00 L 2456.00 2551.00 L 2476.00 2571.00 L 2496.00 2551.00 L 2539.05 2551.00 L 2538.00 2481.00 L 2520.62 2447.00 Z" />
<path id="csg562-025-17" fill="none" stroke="black" stroke-width="1" d="M 502.73 2551.00 L 480.91 2671.00 L 896.00 2671.00 L 916.00 2670.00 L 1416.00 2670.00 L 1436.00 2669.00 L 1656.00 2669.00 L 1676.00 2689.00 L 1716.00 2689.00 L 1736.00 2669.00 L 1816.00 2669.00 L 1836.00 2689.00 L 1856.00 2669.00 L 1936.00 2669.00 L 1956.00 2668.00 L 2456.00 2668.00 L 2476.00 2667.00 L 2540.80 2667.00 L 2539.05 2551.00 L 2496.00 2551.00 L 2476.00 2571.00 L 2456.00 2551.00 Z" />
<path id="csg562-025-18" fill="none" stroke="black" stroke-width="1" d="M 2476.00 2667.00 L 2456.00 2668.00 L 1956.00 2668.00 L 1936.00 2669.00 L 1856.00 2669.00 L 1836.00 2689.00 L 1816.00 2669.00 L 1736.00 2669.00 L 1716.00 2689.00 L 1676.00 2689.00 L 1656.00 2669.00 L 1436.00 2669.00 L 1416.00 2670.00 L 916.00 2670.00 L 896.00 2671.00 L 480.91 2671.00 L 480.00 2676.00 L 432.00 2706.00 L 422.20 2783.00 L 436.00 2783.00 L 456.00 2803.00 L 476.00 2783.00 L 656.00 2783.00 L 676.00 2782.00 L 916.00 2782.00 L 936.00 2781.00 L 1176.00 2781.00 L 1196.00 2780.00 L 1456.00 2780.00 L 1476.00 2779.00 L 1716.00 2779.00 L 1736.00 2778.00 L 1976.00 2778.00 L 1996.00 2777.00 L 2236.00 2777.00 L 2256.00 2776.00 L 2516.00 2776.00 L 2536.00 2775.00 L 2542.42 2775.00 L 2540.80 2667.00 Z" />
<path id="csg562-025-19" fill="none" stroke="black" stroke-width="1" d="M 2536.00 2775.00 L 2516.00 2776.00 L 2256.00 2776.00 L 2236.00 2777.00 L 1996.00 2777.00 L 1976.00 2778.00 L 1736.00 2778.00 L 1716.00 2779.00 L 1476.00 2779.00 L 1456.00 2780.00 L 1196.00 2780.00 L 1176.00 2781.00 L 936.00 2781.00 L 916.00 2782.00 L 676.00 2782.00 L 656.00 2783.00 L 476.00 2783.00 L 456.00 2803.00 L 436.00 2783.00 L 422.20 2783.00 L 411.00 2871.00 L 415.73 2887.15 L 416.00 2887.00 L 676.00 2887.00 L 696.00 2886.00 L 956.00 2886.00 L 976.00 2885.00 L 1256.00 2885.00 L 1276.00 2884.00 L 1536.00 2884.00 L 1556.00 2883.00 L 1836.00 2883.00 L 1856.00 2882.00 L 2116.00 2882.00 L 2136.00 2881.00 L 2396.00 2881.00 L 2416.00 2880.00 L 2544.00 2880.00 L 2542.42 2775.00 Z" />
<path id="csg562-025-20" fill="none" stroke="black" stroke-width="1" d="M 2416.00 2880.00 L 2396.00 2881.00 L 2136.00 2881.00 L 2116.00 2882.00 L 1856.00 2882.00 L 1836.00 2883.00 L 1556.00 2883.00 L 1536.00 2884.00 L 1276.00 2884.00 L 1256.00 2885.00 L 976.00 2885.00 L 956.00 2886.00 L 696.00 2886.00 L 676.00 2887.00 L 416.00 2887.00 L 415.73 2887.15 L 447.00 2994.00 L 540.00 2994.00 L 582.43 3016.00 L 756.00 3016.00 L 776.00 3015.00 L 1116.00 3015.00 L 1136.00 3014.00 L 1288.56 3014.00 L 1332.00 2922.00 L 1527.00 2892.00 L 1863.00 2892.00 L 2544.00 2880.00 Z" />
<path id="csg562-025-21" fill="none" stroke="black" stroke-width="1" d="M 1136.00 3014.00 L 1116.00 3015.00 L 776.00 3015.00 L 756.00 3016.00 L 582.43 3016.00 L 621.00 3036.00 L 619.65 3112.82 L 636.00 3112.00 L 836.00 3112.00 L 856.00 3111.00 L 1076.00 3111.00 L 1096.00 3110.00 L 1296.00 3110.00 L 1316.00 3109.00 L 1536.00 3109.00 L 1556.00 3108.00 L 1756.00 3108.00 L 1776.00 3107.00 L 1996.00 3107.00 L 2016.00 3106.00 L 2216.00 3106.00 L 2236.00 3105.00 L 2456.00 3105.00 L 2476.00 3104.00 L 2539.70 3104.00 L 2502.00 3030.00 L 1869.00 3018.00 L 1281.00 3030.00 L 1288.56 3014.00 Z" />
<path id="csg562-025-22" fill="none" stroke="black" stroke-width="1" d="M 2476.00 3104.00 L 2456.00 3105.00 L 2236.00 3105.00 L 2216.00 3106.00 L 2016.00 3106.00 L 1996.00 3107.00 L 1776.00 3107.00 L 1756.00 3108.00 L 1556.00 3108.00 L 1536.00 3109.00 L 1316.00 3109.00 L 1296.00 3110.00 L 1096.00 3110.00 L 1076.00 3111.00 L 856.00 3111.00 L 836.00 3112.00 L 636.00 3112.00 L 619.65 3112.82 L 618.00 3207.00 L 505.27 3227.00 L 576.00 3227.00 L 596.00 3226.00 L 756.00 3226.00 L 776.00 3225.00 L 936.00 3225.00 L 956.00 3224.00 L 1116.00 3224.00 L 1136.00 3223.00 L 1296.00 3223.00 L 1316.00 3222.00 L 1456.00 3222.00 L 1476.00 3242.00 L 1496.00 3221.00 L 1656.00 3221.00 L 1676.00 3220.00 L 1856.00 3220.00 L 1876.00 3219.00 L 2036.00 3219.00 L 2056.00 3218.00 L 2216.00 3218.00 L 2236.00 3217.00 L 2396.00 3217.00 L 2416.00 3216.00 L 2576.00 3216.00 L 2578.02 3215.90 L 2583.00 3189.00 L 2539.70 3104.00 Z" />
<path id="csg562-025-23" fill="none" stroke="black" stroke-width="1" d="M 2578.02 3215.90 L 2576.00 3216.00 L 2416.00 3216.00 L 2396.00 3217.00 L 2236.00 3217.00 L 2216.00 3218.00 L 2056.00 3218.00 L 2036.00 3219.00 L 1876.00 3219.00 L 1856.00 3220.00 L 1676.00 3220.00 L 1656.00 3221.00 L 1496.00 3221.00 L 1476.00 3242.00 L 1456.00 3222.00 L 1316.00 3222.00 L 1296.00 3223.00 L 1136.00 3223.00 L 1116.00 3224.00 L 956.00 3224.00 L 936.00 3225.00 L 776.00 3225.00 L 756.00 3226.00 L 596.00 3226.00 L 576.00 3227.00 L 505.27 3227.00 L 432.00 3240.00 L 453.00 3312.00 L 451.36 3328.00 L 596.00 3328.00 L 616.00 3327.00 L 796.00 3327.00 L 816.00 3326.00 L 996.00 3326.00 L 1016.00 3325.00 L 1196.00 3325.00 L 1216.00 3324.00 L 1416.00 3324.00 L 1436.00 3323.00 L 1516.00 3323.00 L 1536.00 3303.00 L 1556.00 3303.00 L 1576.00 3343.00 L 1596.00 3323.00 L 1616.00 3323.00 L 1636.00 3322.00 L 1816.00 3322.00 L 1836.00 3321.00 L 2016.00 3321.00 L 2036.00 3320.00 L 2236.00 3320.00 L 2256.00 3319.00 L 2436.00 3319.00 L 2456.00 3318.00 L 2559.11 3318.00 L 2578.02 3215.90 Z" />
<path id="csg562-025-24" fill="none" stroke="black" stroke-width="1" d="M 1536.00 3303.00 L 1516.00 3323.00 L 1436.00 3323.00 L 1416.00 3324.00 L 1216.00 3324.00 L 1196.00 3325.00 L 1016.00 3325.00 L 996.00 3326.00 L 816.00 3326.00 L 796.00 3327.00 L 616.00 3327.00 L 596.00 3328.00 L 451.36 3328.00 L 441.00 3429.00 L 450.67 3430.00 L 596.00 3430.00 L 616.00 3429.00 L 796.00 3429.00 L 816.00 3428.00 L 996.00 3428.00 L 1016.00 3427.00 L 1196.00 3427.00 L 1216.00 3426.00 L 1416.00 3426.00 L 1436.00 3425.00 L 1476.00 3425.00 L 1496.00 3445.00 L 1516.00 3445.00 L 1536.00 3425.00 L 1616.00 3425.00 L 1636.00 3424.00 L 1816.00 3424.00 L 1836.00 3423.00 L 2016.00 3423.00 L 2036.00 3422.00 L 2236.00 3422.00 L 2256.00 3421.00 L 2436.00 3421.00 L 2456.00 3420.00 L 2540.22 3420.00 L 2559.11 3318.00 L 2456.00 3318.00 L 2436.00 3319.00 L 2256.00 3319.00 L 2236.00 3320.00 L 2036.00 3320.00 L 2016.00 3321.00 L 1836.00 3321.00 L 1816.00 3322.00 L 1636.00 3322.00 L 1616.00 3323.00 L 1596.00 3323.00 L 1576.00 3343.00 L 1556.00 3303.00 Z" />
</svg>
