<?xml version="1.0" standalone="no"?>
<!DOCTYPE svg PUBLIC "-//W3C//DTD SVG 1.1//EN" "http://www.w3.org/Graphics/SVG/1.1/DTD/svg11.dtd">
<svg width="46.22222in" height="69.333336in" viewBox="0 0 3328 4992" xmlns="http://www.w3.org/2000/svg" version="1.1">
<path id="csg562-054-01" fill="none" stroke="black" stroke-width="1" d="M 2267.00 718.00 L 2247.00 720.00 L 2237.29 722.91 L 2225.30 731.61 L 2207.00 792.00 L 2187.00 791.00 L 2167.00 791.00 L 2147.00 790.00 L 2144.76 790.00 L 2142.00 792.00 L 1908.00 786.00 L 1887.00 786.00 L 1867.00 785.00 L 1847.00 785.00 L 1827.00 784.00 L 1787.00 784.00 L 1767.00 783.00 L 1727.00 783.00 L 1707.00 782.00 L 1687.00 782.00 L 1667.00 781.00 L 1627.00 781.00 L 1607.00 780.00 L 1567.00 780.00 L 1547.00 779.00 L 1507.00 779.00 L 1487.00 778.00 L 1481.33 778.00 L 876.00 786.00 L 860.00 884.65 L 867.00 885.00 L 887.00 885.00 L 907.00 886.00 L 947.00 886.00 L 967.00 887.00 L 987.00 887.00 L 1007.00 888.00 L 1047.00 888.00 L 1067.00 889.00 L 1087.00 889.00 L 1107.00 890.00 L 1147.00 890.00 L 1167.00 891.00 L 1187.00 891.00 L 1207.00 892.00 L 1247.00 892.00 L 1267.00 893.00 L 1287.00 893.00 L 1307.00 894.00 L 1347.00 894.00 L 1367.00 895.00 L 1387.00 895.00 L 1407.00 896.00 L 1447.00 896.00 L 1467.00 897.00 L 1487.00 897.00 L 1507.00 898.00 L 1547.00 898.00 L 1567.00 899.00 L 1587.00 899.00 L 1607.00 900.00 L 1647.00 900.00 L 1667.00 901.00 L 1687.00 901.00 L 1707.00 902.00 L 1747.00 902.00 L 1767.00 903.00 L 1787.00 903.00 L 1807.00 904.00 L 1847.00 904.00 L 1867.00 905.00 L 1887.00 905.00 L 1907.00 906.00 L 1947.00 906.00 L 1967.00 907.00 L 1987.00 907.00 L 2007.00 908.00 L 2047.00 908.00 L 2067.00 909.00 L 2087.00 909.00 L 2107.00 910.00 L 2147.00 910.00 L 2167.00 911.00 L 2187.00 911.00 L 2207.00 912.00 L 2247.00 912.00 L 2267.00 913.00 L 2287.00 913.00 L 2307.00 914.00 L 2347.00 914.00 L 2367.00 915.00 L 2387.00 915.00 L 2407.00 916.00 L 2447.00 916.00 L 2467.00 917.00 L 2487.00 917.00 L 2507.00 918.00 L 2527.00 918.00 L 2547.00 919.00 L 2587.00 919.00 L 2607.00 920.00 L 2627.00 920.00 L 2647.00 921.00 L 2687.00 921.00 L 2707.00 922.00 L 2727.00 922.00 L 2747.00 923.00 L 2787.00 923.00 L 2807.00 924.00 L 2827.00 924.00 L 2847.00 925.00 L 2887.00 925.00 L 2907.00 926.00 L 2927.00 926.00 L 2941.44 926.72 L 2955.00 825.00 L 2355.00 804.00 L 2274.21 718.00 Z" />
<path id="csg562-054-02" fill="none" stroke="black" stroke-width="1" d="M 860.00 884.65 L 841.78 997.00 L 847.00 997.00 L 867.00 998.00 L 907.00 998.00 L 927.00 999.00 L 947.00 999.00 L 967.00 1000.00 L 1007.00 1000.00 L 1027.00 1001.00 L 1047.00 1001.00 L 1067.00 1002.00 L 1107.00 1002.00 L 1127.00 1003.00 L 1147.00 1003.00 L 1167.00 1004.00 L 1207.00 1004.00 L 1227.00 1005.00 L 1247.00 1005.00 L 1267.00 1006.00 L 1307.00 1006.00 L 1327.00 1007.00 L 1347.00 1007.00 L 1367.00 1008.00 L 1407.00 1008.00 L 1427.00 1009.00 L 1467.00 1009.00 L 1487.00 1010.00 L 1507.00 1010.00 L 1527.00 1011.00 L 1567.00 1011.00 L 1587.00 1012.00 L 1607.00 1012.00 L 1627.00 1013.00 L 1667.00 1013.00 L 1687.00 1014.00 L 1707.00 1014.00 L 1727.00 1015.00 L 1767.00 1015.00 L 1787.00 1016.00 L 1807.00 1016.00 L 1827.00 1017.00 L 1867.00 1017.00 L 1887.00 1018.00 L 1907.00 1018.00 L 1927.00 1019.00 L 1967.00 1019.00 L 1987.00 1020.00 L 2027.00 1020.00 L 2047.00 1021.00 L 2067.00 1021.00 L 2087.00 1022.00 L 2127.00 1022.00 L 2147.00 1023.00 L 2167.00 1023.00 L 2187.00 1024.00 L 2227.00 1024.00 L 2247.00 1025.00 L 2267.00 1025.00 L 2287.00 1026.00 L 2327.00 1026.00 L 2347.00 1027.00 L 2367.00 1027.00 L 2387.00 1028.00 L 2427.00 1028.00 L 2447.00 1029.00 L 2467.00 1029.00 L 2487.00 1030.00 L 2527.00 1030.00 L 2547.00 1031.00 L 2587.00 1031.00 L 2607.00 1032.00 L 2627.00 1032.00 L 2647.00 1033.00 L 2687.00 1033.00 L 2707.00 1034.00 L 2727.00 1034.00 L 2747.00 1018.00 L 2767.00 1014.00 L 2787.00 1004.00 L 2807.00 994.00 L 2827.00 990.00 L 2847.00 1037.00 L 2887.00 1037.00 L 2907.00 1038.00 L 2926.60 1038.00 L 2941.44 926.72 L 2927.00 926.00 L 2907.00 926.00 L 2887.00 925.00 L 2847.00 925.00 L 2827.00 924.00 L 2807.00 924.00 L 2787.00 923.00 L 2747.00 923.00 L 2727.00 922.00 L 2707.00 922.00 L 2687.00 921.00 L 2647.00 921.00 L 2627.00 920.00 L 2607.00 920.00 L 2587.00 919.00 L 2547.00 919.00 L 2527.00 918.00 L 2507.00 918.00 L 2487.00 917.00 L 2467.00 917.00 L 2447.00 916.00 L 2407.00 916.00 L 2387.00 915.00 L 2367.00 915.00 L 2347.00 914.00 L 2307.00 914.00 L 2287.00 913.00 L 2267.00 913.00 L 2247.00 912.00 L 2207.00 912.00 L 2187.00 911.00 L 2167.00 911.00 L 2147.00 910.00 L 2107.00 910.00 L 2087.00 909.00 L 2067.00 909.00 L 2047.00 908.00 L 2007.00 908.00 L 1987.00 907.00 L 1967.00 907.00 L 1947.00 906.00 L 1907.00 906.00 L 1887.00 905.00 L 1867.00 905.00 L 1847.00 904.00 L 1807.00 904.00 L 1787.00 903.00 L 1767.00 903.00 L 1747.00 902.00 L 1707.00 902.00 L 1687.00 901.00 L 1667.00 901.00 L 1647.00 900.00 L 1607.00 900.00 L 1587.00 899.00 L 1567.00 899.00 L 1547.00 898.00 L 1507.00 898.00 L 1487.00 897.00 L 1467.00 897.00 L 1447.00 896.00 L 1407.00 896.00 L 1387.00 895.00 L 1367.00 895.00 L 1347.00 894.00 L 1307.00 894.00 L 1287.00 893.00 L 1267.00 893.00 L 1247.00 892.00 L 1207.00 892.00 L 1187.00 891.00 L 1167.00 891.00 L 1147.00 890.00 L 1107.00 890.00 L 1087.00 889.00 L 1067.00 889.00 L 1047.00 888.00 L 1007.00 888.00 L 987.00 887.00 L 967.00 887.00 L 947.00 886.00 L 907.00 886.00 L 887.00 885.00 L 867.00 885.00 L 860.00 884.65 Z" />
<path id="csg562-054-03" fill="none" stroke="black" stroke-width="1" d="M 2827.00 990.00 L 2807.00 994.00 L 2787.00 1004.00 L 2767.00 1014.00 L 2747.00 1018.00 L 2727.00 1034.00 L 2707.00 1034.00 L 2687.00 1033.00 L 2647.00 1033.00 L 2627.00 1032.00 L 2607.00 1032.00 L 2587.00 1031.00 L 2547.00 1031.00 L 2527.00 1030.00 L 2487.00 1030.00 L 2467.00 1029.00 L 2447.00 1029.00 L 2427.00 1028.00 L 2387.00 1028.00 L 2367.00 1027.00 L 2347.00 1027.00 L 2327.00 1026.00 L 2287.00 1026.00 L 2267.00 1025.00 L 2247.00 1025.00 L 2227.00 1024.00 L 2187.00 1024.00 L 2167.00 1023.00 L 2147.00 1023.00 L 2127.00 1022.00 L 2087.00 1022.00 L 2067.00 1021.00 L 2047.00 1021.00 L 2027.00 1020.00 L 1987.00 1020.00 L 1967.00 1019.00 L 1927.00 1019.00 L 1907.00 1018.00 L 1887.00 1018.00 L 1867.00 1017.00 L 1827.00 1017.00 L 1807.00 1016.00 L 1787.00 1016.00 L 1767.00 1015.00 L 1727.00 1015.00 L 1707.00 1014.00 L 1687.00 1014.00 L 1667.00 1013.00 L 1627.00 1013.00 L 1607.00 1012.00 L 1587.00 1012.00 L 1567.00 1011.00 L 1527.00 1011.00 L 1507.00 1010.00 L 1487.00 1010.00 L 1467.00 1009.00 L 1427.00 1009.00 L 1407.00 1008.00 L 1367.00 1008.00 L 1347.00 1007.00 L 1327.00 1007.00 L 1307.00 1006.00 L 1267.00 1006.00 L 1247.00 1005.00 L 1227.00 1005.00 L 1207.00 1004.00 L 1167.00 1004.00 L 1147.00 1003.00 L 1127.00 1003.00 L 1107.00 1002.00 L 1067.00 1002.00 L 1047.00 1001.00 L 1027.00 1001.00 L 1007.00 1000.00 L 967.00 1000.00 L 947.00 999.00 L 927.00 999.00 L 907.00 998.00 L 867.00 998.00 L 847.00 997.00 L 841.78 997.00 L 840.00 1008.00 L 839.36 1110.00 L 867.00 1110.00 L 887.00 1111.00 L 927.00 1111.00 L 947.00 1112.00 L 1007.00 1112.00 L 1027.00 1113.00 L 1067.00 1113.00 L 1087.00 1114.00 L 1147.00 1114.00 L 1167.00 1115.00 L 1207.00 1115.00 L 1227.00 1116.00 L 1267.00 1116.00 L 1287.00 1117.00 L 1347.00 1117.00 L 1367.00 1118.00 L 1407.00 1118.00 L 1427.00 1119.00 L 1487.00 1119.00 L 1507.00 1120.00 L 1547.00 1120.00 L 1567.00 1121.00 L 1607.00 1121.00 L 1627.00 1122.00 L 1687.00 1122.00 L 1707.00 1123.00 L 1747.00 1123.00 L 1767.00 1124.00 L 1827.00 1124.00 L 1847.00 1125.00 L 1887.00 1125.00 L 1907.00 1126.00 L 1947.00 1126.00 L 1967.00 1127.00 L 2027.00 1127.00 L 2047.00 1128.00 L 2087.00 1128.00 L 2107.00 1129.00 L 2167.00 1129.00 L 2187.00 1130.00 L 2227.00 1130.00 L 2247.00 1131.00 L 2287.00 1131.00 L 2307.00 1132.00 L 2367.00 1132.00 L 2387.00 1133.00 L 2427.00 1133.00 L 2447.00 1134.00 L 2507.00 1134.00 L 2527.00 1135.00 L 2567.00 1135.00 L 2587.00 1136.00 L 2627.00 1136.00 L 2647.00 1137.00 L 2707.00 1137.00 L 2727.00 1138.00 L 2767.00 1138.00 L 2787.00 1139.00 L 2847.00 1139.00 L 2867.00 1140.00 L 2894.00 1140.00 L 2919.00 1095.00 L 2926.60 1038.00 L 2907.00 1038.00 L 2887.00 1037.00 L 2847.00 1037.00 L 2827.00 990.00 Z" />
<path id="csg562-054-04" fill="none" stroke="black" stroke-width="1" d="M 839.36 1110.00 L 838.67 1220.00 L 867.00 1220.00 L 887.00 1221.00 L 947.00 1221.00 L 967.00 1222.00 L 1027.00 1222.00 L 1047.00 1223.00 L 1107.00 1223.00 L 1127.00 1224.00 L 1167.00 1224.00 L 1187.00 1225.00 L 1247.00 1225.00 L 1267.00 1226.00 L 1327.00 1226.00 L 1347.00 1227.00 L 1407.00 1227.00 L 1427.00 1228.00 L 1467.00 1228.00 L 1487.00 1229.00 L 1547.00 1229.00 L 1567.00 1230.00 L 1627.00 1230.00 L 1647.00 1231.00 L 1707.00 1231.00 L 1727.00 1232.00 L 1767.00 1232.00 L 1787.00 1233.00 L 1847.00 1233.00 L 1867.00 1234.00 L 1927.00 1234.00 L 1947.00 1235.00 L 2007.00 1235.00 L 2027.00 1236.00 L 2087.00 1236.00 L 2107.00 1237.00 L 2147.00 1237.00 L 2167.00 1238.00 L 2227.00 1238.00 L 2247.00 1239.00 L 2307.00 1239.00 L 2327.00 1240.00 L 2387.00 1240.00 L 2407.00 1241.00 L 2447.00 1241.00 L 2467.00 1242.00 L 2527.00 1242.00 L 2547.00 1243.00 L 2607.00 1243.00 L 2627.00 1244.00 L 2687.00 1244.00 L 2707.00 1245.00 L 2747.00 1245.00 L 2767.00 1246.00 L 2827.00 1246.00 L 2834.89 1246.39 L 2894.00 1140.00 L 2867.00 1140.00 L 2847.00 1139.00 L 2787.00 1139.00 L 2767.00 1138.00 L 2727.00 1138.00 L 2707.00 1137.00 L 2647.00 1137.00 L 2627.00 1136.00 L 2587.00 1136.00 L 2567.00 1135.00 L 2527.00 1135.00 L 2507.00 1134.00 L 2447.00 1134.00 L 2427.00 1133.00 L 2387.00 1133.00 L 2367.00 1132.00 L 2307.00 1132.00 L 2287.00 1131.00 L 2247.00 1131.00 L 2227.00 1130.00 L 2187.00 1130.00 L 2167.00 1129.00 L 2107.00 1129.00 L 2087.00 1128.00 L 2047.00 1128.00 L 2027.00 1127.00 L 1967.00 1127.00 L 1947.00 1126.00 L 1907.00 1126.00 L 1887.00 1125.00 L 1847.00 1125.00 L 1827.00 1124.00 L 1767.00 1124.00 L 1747.00 1123.00 L 1707.00 1123.00 L 1687.00 1122.00 L 1627.00 1122.00 L 1607.00 1121.00 L 1567.00 1121.00 L 1547.00 1120.00 L 1507.00 1120.00 L 1487.00 1119.00 L 1427.00 1119.00 L 1407.00 1118.00 L 1367.00 1118.00 L 1347.00 1117.00 L 1287.00 1117.00 L 1267.00 1116.00 L 1227.00 1116.00 L 1207.00 1115.00 L 1167.00 1115.00 L 1147.00 1114.00 L 1087.00 1114.00 L 1067.00 1113.00 L 1027.00 1113.00 L 1007.00 1112.00 L 947.00 1112.00 L 927.00 1111.00 L 887.00 1111.00 L 867.00 1110.00 Z" />
<path id="csg562-054-05" fill="none" stroke="black" stroke-width="1" d="M 838.67 1220.00 L 837.91 1341.00 L 867.00 1341.00 L 887.00 1342.00 L 947.00 1342.00 L 967.00 1343.00 L 1027.00 1343.00 L 1047.00 1344.00 L 1107.00 1344.00 L 1127.00 1345.00 L 1187.00 1345.00 L 1207.00 1346.00 L 1267.00 1346.00 L 1287.00 1347.00 L 1347.00 1347.00 L 1367.00 1348.00 L 1427.00 1348.00 L 1447.00 1349.00 L 1507.00 1349.00 L 1527.00 1350.00 L 1587.00 1350.00 L 1607.00 1351.00 L 1667.00 1351.00 L 1687.00 1352.00 L 1747.00 1352.00 L 1767.00 1353.00 L 1827.00 1353.00 L 1847.00 1354.00 L 1907.00 1354.00 L 1927.00 1355.00 L 1987.00 1355.00 L 2007.00 1356.00 L 2047.00 1356.00 L 2067.00 1357.00 L 2127.00 1357.00 L 2147.00 1358.00 L 2207.00 1358.00 L 2227.00 1359.00 L 2287.00 1359.00 L 2307.00 1360.00 L 2367.00 1360.00 L 2387.00 1361.00 L 2407.00 1361.00 L 2427.00 1321.00 L 2447.00 1341.00 L 2467.00 1342.00 L 2487.00 1342.00 L 2507.00 1362.00 L 2527.00 1362.00 L 2547.00 1363.00 L 2607.00 1363.00 L 2627.00 1364.00 L 2687.00 1364.00 L 2707.00 1365.00 L 2767.00 1365.00 L 2787.00 1366.00 L 2847.00 1366.00 L 2867.00 1367.00 L 2927.00 1367.00 L 2939.63 1367.63 L 2913.00 1254.00 L 2829.00 1257.00 L 2834.89 1246.39 L 2827.00 1246.00 L 2767.00 1246.00 L 2747.00 1245.00 L 2707.00 1245.00 L 2687.00 1244.00 L 2627.00 1244.00 L 2607.00 1243.00 L 2547.00 1243.00 L 2527.00 1242.00 L 2467.00 1242.00 L 2447.00 1241.00 L 2407.00 1241.00 L 2387.00 1240.00 L 2327.00 1240.00 L 2307.00 1239.00 L 2247.00 1239.00 L 2227.00 1238.00 L 2167.00 1238.00 L 2147.00 1237.00 L 2107.00 1237.00 L 2087.00 1236.00 L 2027.00 1236.00 L 2007.00 1235.00 L 1947.00 1235.00 L 1927.00 1234.00 L 1867.00 1234.00 L 1847.00 1233.00 L 1787.00 1233.00 L 1767.00 1232.00 L 1727.00 1232.00 L 1707.00 1231.00 L 1647.00 1231.00 L 1627.00 1230.00 L 1567.00 1230.00 L 1547.00 1229.00 L 1487.00 1229.00 L 1467.00 1228.00 L 1427.00 1228.00 L 1407.00 1227.00 L 1347.00 1227.00 L 1327.00 1226.00 L 1267.00 1226.00 L 1247.00 1225.00 L 1187.00 1225.00 L 1167.00 1224.00 L 1127.00 1224.00 L 1107.00 1223.00 L 1047.00 1223.00 L 1027.00 1222.00 L 967.00 1222.00 L 947.00 1221.00 L 887.00 1221.00 L 867.00 1220.00 Z" />
<path id="csg562-054-06" fill="none" stroke="black" stroke-width="1" d="M 2427.00 1321.00 L 2407.00 1361.00 L 2387.00 1361.00 L 2367.00 1360.00 L 2307.00 1360.00 L 2287.00 1359.00 L 2227.00 1359.00 L 2207.00 1358.00 L 2147.00 1358.00 L 2127.00 1357.00 L 2067.00 1357.00 L 2047.00 1356.00 L 2007.00 1356.00 L 1987.00 1355.00 L 1927.00 1355.00 L 1907.00 1354.00 L 1847.00 1354.00 L 1827.00 1353.00 L 1767.00 1353.00 L 1747.00 1352.00 L 1687.00 1352.00 L 1667.00 1351.00 L 1607.00 1351.00 L 1587.00 1350.00 L 1527.00 1350.00 L 1507.00 1349.00 L 1447.00 1349.00 L 1427.00 1348.00 L 1367.00 1348.00 L 1347.00 1347.00 L 1287.00 1347.00 L 1267.00 1346.00 L 1207.00 1346.00 L 1187.00 1345.00 L 1127.00 1345.00 L 1107.00 1344.00 L 1047.00 1344.00 L 1027.00 1343.00 L 967.00 1343.00 L 947.00 1342.00 L 887.00 1342.00 L 867.00 1341.00 L 837.91 1341.00 L 837.22 1450.00 L 887.00 1450.00 L 907.00 1451.00 L 967.00 1451.00 L 987.00 1452.00 L 1047.00 1452.00 L 1067.00 1453.00 L 1127.00 1453.00 L 1147.00 1454.00 L 1207.00 1454.00 L 1227.00 1455.00 L 1307.00 1455.00 L 1327.00 1456.00 L 1387.00 1456.00 L 1407.00 1457.00 L 1467.00 1457.00 L 1487.00 1458.00 L 1547.00 1458.00 L 1567.00 1459.00 L 1627.00 1459.00 L 1647.00 1460.00 L 1727.00 1460.00 L 1747.00 1461.00 L 1807.00 1461.00 L 1827.00 1462.00 L 1887.00 1462.00 L 1907.00 1463.00 L 1967.00 1463.00 L 1987.00 1464.00 L 2047.00 1464.00 L 2067.00 1465.00 L 2127.00 1465.00 L 2147.00 1466.00 L 2227.00 1466.00 L 2247.00 1467.00 L 2307.00 1467.00 L 2327.00 1468.00 L 2387.00 1468.00 L 2407.00 1469.00 L 2467.00 1469.00 L 2487.00 1470.00 L 2547.00 1470.00 L 2567.00 1471.00 L 2647.00 1471.00 L 2667.00 1472.00 L 2727.00 1472.00 L 2747.00 1473.00 L 2807.00 1473.00 L 2827.00 1474.00 L 2887.00 1474.00 L 2907.00 1475.00 L 2921.75 1475.00 L 2958.00 1446.00 L 2939.63 1367.63 L 2927.00 1367.00 L 2867.00 1367.00 L 2847.00 1366.00 L 2787.00 1366.00 L 2767.00 1365.00 L 2707.00 1365.00 L 2687.00 1364.00 L 2627.00 1364.00 L 2607.00 1363.00 L 2547.00 1363.00 L 2527.00 1362.00 L 2507.00 1362.00 L 2487.00 1342.00 L 2467.00 1342.00 L 2447.00 1341.00 L 2427.00 1321.00 Z" />
<path id="csg562-054-07" fill="none" stroke="black" stroke-width="1" d="M 837.22 1450.00 L 837.00 1485.00 L 836.76 1556.00 L 847.00 1556.00 L 867.00 1557.00 L 907.00 1557.00 L 927.00 1558.00 L 967.00 1558.00 L 987.00 1559.00 L 1027.00 1559.00 L 1047.00 1560.00 L 1087.00 1560.00 L 1107.00 1561.00 L 1147.00 1561.00 L 1167.00 1562.00 L 1207.00 1562.00 L 1227.00 1563.00 L 1267.00 1563.00 L 1287.00 1564.00 L 1327.00 1564.00 L 1347.00 1565.00 L 1387.00 1565.00 L 1407.00 1566.00 L 1447.00 1566.00 L 1467.00 1567.00 L 1507.00 1567.00 L 1527.00 1568.00 L 1567.00 1568.00 L 1587.00 1569.00 L 1627.00 1569.00 L 1647.00 1570.00 L 1687.00 1570.00 L 1707.00 1571.00 L 1747.00 1571.00 L 1767.00 1572.00 L 1807.00 1572.00 L 1827.00 1573.00 L 1847.00 1533.00 L 1867.00 1553.00 L 1887.00 1574.00 L 1927.00 1574.00 L 1947.00 1575.00 L 1987.00 1575.00 L 2007.00 1576.00 L 2047.00 1576.00 L 2067.00 1577.00 L 2107.00 1577.00 L 2127.00 1578.00 L 2167.00 1578.00 L 2187.00 1579.00 L 2207.00 1579.00 L 2227.00 1580.00 L 2267.00 1580.00 L 2287.00 1581.00 L 2327.00 1581.00 L 2347.00 1582.00 L 2387.00 1582.00 L 2407.00 1583.00 L 2447.00 1583.00 L 2467.00 1584.00 L 2507.00 1584.00 L 2527.00 1585.00 L 2567.00 1585.00 L 2587.00 1586.00 L 2627.00 1586.00 L 2647.00 1587.00 L 2687.00 1587.00 L 2707.00 1588.00 L 2747.00 1588.00 L 2767.00 1589.00 L 2807.00 1589.00 L 2827.00 1590.00 L 2867.00 1590.00 L 2887.00 1591.00 L 2909.25 1591.00 L 2883.00 1506.00 L 2921.75 1475.00 L 2907.00 1475.00 L 2887.00 1474.00 L 2827.00 1474.00 L 2807.00 1473.00 L 2747.00 1473.00 L 2727.00 1472.00 L 2667.00 1472.00 L 2647.00 1471.00 L 2567.00 1471.00 L 2547.00 1470.00 L 2487.00 1470.00 L 2467.00 1469.00 L 2407.00 1469.00 L 2387.00 1468.00 L 2327.00 1468.00 L 2307.00 1467.00 L 2247.00 1467.00 L 2227.00 1466.00 L 2147.00 1466.00 L 2127.00 1465.00 L 2067.00 1465.00 L 2047.00 1464.00 L 1987.00 1464.00 L 1967.00 1463.00 L 1907.00 1463.00 L 1887.00 1462.00 L 1827.00 1462.00 L 1807.00 1461.00 L 1747.00 1461.00 L 1727.00 1460.00 L 1647.00 1460.00 L 1627.00 1459.00 L 1567.00 1459.00 L 1547.00 1458.00 L 1487.00 1458.00 L 1467.00 1457.00 L 1407.00 1457.00 L 1387.00 1456.00 L 1327.00 1456.00 L 1307.00 1455.00 L 1227.00 1455.00 L 1207.00 1454.00 L 1147.00 1454.00 L 1127.00 1453.00 L 1067.00 1453.00 L 1047.00 1452.00 L 987.00 1452.00 L 967.00 1451.00 L 907.00 1451.00 L 887.00 1450.00 Z" />
<path id="csg562-054-08" fill="none" stroke="black" stroke-width="1" d="M 1847.00 1533.00 L 1827.00 1573.00 L 1807.00 1572.00 L 1767.00 1572.00 L 1747.00 1571.00 L 1707.00 1571.00 L 1687.00 1570.00 L 1647.00 1570.00 L 1627.00 1569.00 L 1587.00 1569.00 L 1567.00 1568.00 L 1527.00 1568.00 L 1507.00 1567.00 L 1467.00 1567.00 L 1447.00 1566.00 L 1407.00 1566.00 L 1387.00 1565.00 L 1347.00 1565.00 L 1327.00 1564.00 L 1287.00 1564.00 L 1267.00 1563.00 L 1227.00 1563.00 L 1207.00 1562.00 L 1167.00 1562.00 L 1147.00 1561.00 L 1107.00 1561.00 L 1087.00 1560.00 L 1047.00 1560.00 L 1027.00 1559.00 L 987.00 1559.00 L 967.00 1558.00 L 927.00 1558.00 L 907.00 1557.00 L 867.00 1557.00 L 847.00 1556.00 L 836.76 1556.00 L 836.41 1664.00 L 847.00 1664.00 L 867.00 1665.00 L 907.00 1665.00 L 927.00 1666.00 L 947.00 1666.00 L 967.00 1667.00 L 1007.00 1667.00 L 1027.00 1668.00 L 1067.00 1668.00 L 1087.00 1669.00 L 1107.00 1669.00 L 1127.00 1670.00 L 1167.00 1670.00 L 1187.00 1671.00 L 1227.00 1671.00 L 1247.00 1672.00 L 1267.00 1672.00 L 1287.00 1673.00 L 1327.00 1673.00 L 1347.00 1674.00 L 1387.00 1674.00 L 1407.00 1675.00 L 1427.00 1675.00 L 1447.00 1676.00 L 1487.00 1676.00 L 1507.00 1677.00 L 1547.00 1677.00 L 1567.00 1678.00 L 1587.00 1678.00 L 1607.00 1679.00 L 1647.00 1679.00 L 1667.00 1680.00 L 1707.00 1680.00 L 1727.00 1681.00 L 1747.00 1681.00 L 1767.00 1682.00 L 1807.00 1682.00 L 1827.00 1683.00 L 1867.00 1683.00 L 1887.00 1684.00 L 1907.00 1684.00 L 1927.00 1685.00 L 1967.00 1685.00 L 1987.00 1686.00 L 2027.00 1686.00 L 2047.00 1687.00 L 2067.00 1687.00 L 2087.00 1688.00 L 2127.00 1688.00 L 2147.00 1689.00 L 2187.00 1689.00 L 2207.00 1690.00 L 2227.00 1690.00 L 2247.00 1691.00 L 2287.00 1691.00 L 2307.00 1692.00 L 2347.00 1692.00 L 2367.00 1693.00 L 2387.00 1693.00 L 2407.00 1694.00 L 2447.00 1694.00 L 2467.00 1695.00 L 2507.00 1695.00 L 2527.00 1676.00 L 2547.00 1676.00 L 2567.00 1677.00 L 2587.00 1697.00 L 2607.00 1697.00 L 2627.00 1698.00 L 2667.00 1698.00 L 2687.00 1699.00 L 2707.00 1699.00 L 2727.00 1700.00 L 2767.00 1700.00 L 2787.00 1701.00 L 2827.00 1701.00 L 2847.00 1702.00 L 2867.00 1702.00 L 2887.00 1703.00 L 2927.00 1703.00 L 2944.10 1703.86 L 2909.25 1591.00 L 2887.00 1591.00 L 2867.00 1590.00 L 2827.00 1590.00 L 2807.00 1589.00 L 2767.00 1589.00 L 2747.00 1588.00 L 2707.00 1588.00 L 2687.00 1587.00 L 2647.00 1587.00 L 2627.00 1586.00 L 2587.00 1586.00 L 2567.00 1585.00 L 2527.00 1585.00 L 2507.00 1584.00 L 2467.00 1584.00 L 2447.00 1583.00 L 2407.00 1583.00 L 2387.00 1582.00 L 2347.00 1582.00 L 2327.00 1581.00 L 2287.00 1581.00 L 2267.00 1580.00 L 2227.00 1580.00 L 2207.00 1579.00 L 2187.00 1579.00 L 2167.00 1578.00 L 2127.00 1578.00 L 2107.00 1577.00 L 2067.00 1577.00 L 2047.00 1576.00 L 2007.00 1576.00 L 1987.00 1575.00 L 1947.00 1575.00 L 1927.00 1574.00 L 1887.00 1574.00 L 1867.00 1553.00 L 1847.00 1533.00 Z" />
<path id="csg562-054-09" fill="none" stroke="black" stroke-width="1" d="M 836.41 1664.00 L 836.01 1782.00 L 867.00 1782.00 L 887.00 1783.00 L 927.00 1783.00 L 947.00 1784.00 L 1007.00 1784.00 L 1027.00 1785.00 L 1067.00 1785.00 L 1087.00 1786.00 L 1127.00 1786.00 L 1147.00 1787.00 L 1207.00 1787.00 L 1227.00 1788.00 L 1267.00 1788.00 L 1287.00 1789.00 L 1347.00 1789.00 L 1367.00 1790.00 L 1407.00 1790.00 L 1427.00 1791.00 L 1467.00 1791.00 L 1487.00 1792.00 L 1547.00 1792.00 L 1567.00 1793.00 L 1607.00 1793.00 L 1627.00 1794.00 L 1687.00 1794.00 L 1707.00 1795.00 L 1747.00 1795.00 L 1767.00 1796.00 L 1807.00 1796.00 L 1827.00 1797.00 L 1887.00 1797.00 L 1907.00 1798.00 L 1947.00 1798.00 L 1967.00 1799.00 L 2007.00 1799.00 L 2027.00 1800.00 L 2087.00 1800.00 L 2107.00 1801.00 L 2147.00 1801.00 L 2167.00 1802.00 L 2227.00 1802.00 L 2247.00 1803.00 L 2287.00 1803.00 L 2307.00 1804.00 L 2347.00 1804.00 L 2367.00 1805.00 L 2427.00 1805.00 L 2447.00 1806.00 L 2487.00 1806.00 L 2507.00 1807.00 L 2567.00 1807.00 L 2587.00 1808.00 L 2627.00 1808.00 L 2647.00 1809.00 L 2687.00 1809.00 L 2707.00 1810.00 L 2767.00 1810.00 L 2787.00 1811.00 L 2827.00 1811.00 L 2847.00 1812.00 L 2887.00 1812.00 L 2907.00 1813.00 L 2926.30 1813.00 L 2925.00 1803.00 L 2946.00 1710.00 L 2944.10 1703.86 L 2927.00 1703.00 L 2887.00 1703.00 L 2867.00 1702.00 L 2847.00 1702.00 L 2827.00 1701.00 L 2787.00 1701.00 L 2767.00 1700.00 L 2727.00 1700.00 L 2707.00 1699.00 L 2687.00 1699.00 L 2667.00 1698.00 L 2627.00 1698.00 L 2607.00 1697.00 L 2587.00 1697.00 L 2567.00 1677.00 L 2547.00 1676.00 L 2527.00 1676.00 L 2507.00 1695.00 L 2467.00 1695.00 L 2447.00 1694.00 L 2407.00 1694.00 L 2387.00 1693.00 L 2367.00 1693.00 L 2347.00 1692.00 L 2307.00 1692.00 L 2287.00 1691.00 L 2247.00 1691.00 L 2227.00 1690.00 L 2207.00 1690.00 L 2187.00 1689.00 L 2147.00 1689.00 L 2127.00 1688.00 L 2087.00 1688.00 L 2067.00 1687.00 L 2047.00 1687.00 L 2027.00 1686.00 L 1987.00 1686.00 L 1967.00 1685.00 L 1927.00 1685.00 L 1907.00 1684.00 L 1887.00 1684.00 L 1867.00 1683.00 L 1827.00 1683.00 L 1807.00 1682.00 L 1767.00 1682.00 L 1747.00 1681.00 L 1727.00 1681.00 L 1707.00 1680.00 L 1667.00 1680.00 L 1647.00 1679.00 L 1607.00 1679.00 L 1587.00 1678.00 L 1567.00 1678.00 L 1547.00 1677.00 L 1507.00 1677.00 L 1487.00 1676.00 L 1447.00 1676.00 L 1427.00 1675.00 L 1407.00 1675.00 L 1387.00 1674.00 L 1347.00 1674.00 L 1327.00 1673.00 L 1287.00 1673.00 L 1267.00 1672.00 L 1247.00 1672.00 L 1227.00 1671.00 L 1187.00 1671.00 L 1167.00 1670.00 L 1127.00 1670.00 L 1107.00 1669.00 L 1087.00 1669.00 L 1067.00 1668.00 L 1027.00 1668.00 L 1007.00 1667.00 L 967.00 1667.00 L 947.00 1666.00 L 927.00 1666.00 L 907.00 1665.00 L 867.00 1665.00 L 847.00 1664.00 Z" />
<path id="csg562-054-10" fill="none" stroke="black" stroke-width="1" d="M 836.01 1782.00 L 835.66 1889.00 L 867.00 1889.00 L 887.00 1890.00 L 927.00 1890.00 L 947.00 1891.00 L 987.00 1891.00 L 1007.00 1892.00 L 1047.00 1892.00 L 1067.00 1893.00 L 1107.00 1893.00 L 1127.00 1894.00 L 1167.00 1894.00 L 1187.00 1895.00 L 1227.00 1895.00 L 1247.00 1896.00 L 1287.00 1896.00 L 1307.00 1897.00 L 1347.00 1897.00 L 1367.00 1898.00 L 1407.00 1898.00 L 1427.00 1899.00 L 1467.00 1899.00 L 1487.00 1900.00 L 1527.00 1900.00 L 1547.00 1901.00 L 1587.00 1901.00 L 1607.00 1902.00 L 1647.00 1902.00 L 1667.00 1903.00 L 1707.00 1903.00 L 1727.00 1904.00 L 1767.00 1904.00 L 1787.00 1905.00 L 1827.00 1905.00 L 1847.00 1906.00 L 1887.00 1906.00 L 1907.00 1907.00 L 1967.00 1907.00 L 1987.00 1908.00 L 2027.00 1908.00 L 2047.00 1909.00 L 2087.00 1909.00 L 2107.00 1910.00 L 2147.00 1910.00 L 2167.00 1911.00 L 2207.00 1911.00 L 2227.00 1912.00 L 2267.00 1912.00 L 2287.00 1913.00 L 2327.00 1913.00 L 2347.00 1914.00 L 2387.00 1914.00 L 2407.00 1915.00 L 2447.00 1915.00 L 2467.00 1916.00 L 2507.00 1916.00 L 2527.00 1917.00 L 2567.00 1917.00 L 2587.00 1918.00 L 2627.00 1918.00 L 2647.00 1919.00 L 2687.00 1919.00 L 2707.00 1920.00 L 2747.00 1920.00 L 2767.00 1921.00 L 2807.00 1921.00 L 2827.00 1922.00 L 2867.00 1922.00 L 2887.00 1923.00 L 2927.00 1923.00 L 2940.64 1923.68 L 2926.30 1813.00 L 2907.00 1813.00 L 2887.00 1812.00 L 2847.00 1812.00 L 2827.00 1811.00 L 2787.00 1811.00 L 2767.00 1810.00 L 2707.00 1810.00 L 2687.00 1809.00 L 2647.00 1809.00 L 2627.00 1808.00 L 2587.00 1808.00 L 2567.00 1807.00 L 2507.00 1807.00 L 2487.00 1806.00 L 2447.00 1806.00 L 2427.00 1805.00 L 2367.00 1805.00 L 2347.00 1804.00 L 2307.00 1804.00 L 2287.00 1803.00 L 2247.00 1803.00 L 2227.00 1802.00 L 2167.00 1802.00 L 2147.00 1801.00 L 2107.00 1801.00 L 2087.00 1800.00 L 2027.00 1800.00 L 2007.00 1799.00 L 1967.00 1799.00 L 1947.00 1798.00 L 1907.00 1798.00 L 1887.00 1797.00 L 1827.00 1797.00 L 1807.00 1796.00 L 1767.00 1796.00 L 1747.00 1795.00 L 1707.00 1795.00 L 1687.00 1794.00 L 1627.00 1794.00 L 1607.00 1793.00 L 1567.00 1793.00 L 1547.00 1792.00 L 1487.00 1792.00 L 1467.00 1791.00 L 1427.00 1791.00 L 1407.00 1790.00 L 1367.00 1790.00 L 1347.00 1789.00 L 1287.00 1789.00 L 1267.00 1788.00 L 1227.00 1788.00 L 1207.00 1787.00 L 1147.00 1787.00 L 1127.00 1786.00 L 1087.00 1786.00 L 1067.00 1785.00 L 1027.00 1785.00 L 1007.00 1784.00 L 947.00 1784.00 L 927.00 1783.00 L 887.00 1783.00 L 867.00 1782.00 Z" />
<path id="csg562-054-11" fill="none" stroke="black" stroke-width="1" d="M 835.66 1889.00 L 835.29 1999.00 L 867.00 1999.00 L 887.00 2000.00 L 927.00 2000.00 L 947.00 2001.00 L 987.00 2001.00 L 1007.00 2002.00 L 1067.00 2002.00 L 1087.00 2003.00 L 1127.00 2003.00 L 1147.00 2004.00 L 1187.00 2004.00 L 1207.00 2005.00 L 1267.00 2005.00 L 1287.00 2006.00 L 1327.00 2006.00 L 1347.00 2007.00 L 1367.00 1987.00 L 1387.00 1987.00 L 1407.00 2008.00 L 1467.00 2008.00 L 1487.00 2009.00 L 1527.00 2009.00 L 1547.00 2010.00 L 1587.00 2010.00 L 1607.00 2011.00 L 1667.00 2011.00 L 1687.00 2012.00 L 1727.00 2012.00 L 1747.00 2013.00 L 1787.00 2013.00 L 1807.00 2014.00 L 1847.00 2014.00 L 1867.00 2015.00 L 1927.00 2015.00 L 1947.00 2016.00 L 1987.00 2016.00 L 2007.00 2017.00 L 2047.00 2017.00 L 2067.00 2018.00 L 2127.00 2018.00 L 2147.00 2019.00 L 2187.00 2019.00 L 2207.00 2020.00 L 2247.00 2020.00 L 2267.00 2021.00 L 2327.00 2021.00 L 2347.00 2022.00 L 2387.00 2022.00 L 2407.00 2023.00 L 2447.00 2023.00 L 2467.00 2024.00 L 2527.00 2024.00 L 2547.00 2025.00 L 2587.00 2025.00 L 2607.00 2026.00 L 2647.00 2026.00 L 2667.00 2027.00 L 2707.00 2027.00 L 2727.00 2028.00 L 2787.00 2028.00 L 2807.00 2029.00 L 2847.00 2029.00 L 2867.00 2030.00 L 2907.00 2030.00 L 2918.22 2030.56 L 2946.00 1965.00 L 2940.64 1923.68 L 2927.00 1923.00 L 2887.00 1923.00 L 2867.00 1922.00 L 2827.00 1922.00 L 2807.00 1921.00 L 2767.00 1921.00 L 2747.00 1920.00 L 2707.00 1920.00 L 2687.00 1919.00 L 2647.00 1919.00 L 2627.00 1918.00 L 2587.00 1918.00 L 2567.00 1917.00 L 2527.00 1917.00 L 2507.00 1916.00 L 2467.00 1916.00 L 2447.00 1915.00 L 2407.00 1915.00 L 2387.00 1914.00 L 2347.00 1914.00 L 2327.00 1913.00 L 2287.00 1913.00 L 2267.00 1912.00 L 2227.00 1912.00 L 2207.00 1911.00 L 2167.00 1911.00 L 2147.00 1910.00 L 2107.00 1910.00 L 2087.00 1909.00 L 2047.00 1909.00 L 2027.00 1908.00 L 1987.00 1908.00 L 1967.00 1907.00 L 1907.00 1907.00 L 1887.00 1906.00 L 1847.00 1906.00 L 1827.00 1905.00 L 1787.00 1905.00 L 1767.00 1904.00 L 1727.00 1904.00 L 1707.00 1903.00 L 1667.00 1903.00 L 1647.00 1902.00 L 1607.00 1902.00 L 1587.00 1901.00 L 1547.00 1901.00 L 1527.00 1900.00 L 1487.00 1900.00 L 1467.00 1899.00 L 1427.00 1899.00 L 1407.00 1898.00 L 1367.00 1898.00 L 1347.00 1897.00 L 1307.00 1897.00 L 1287.00 1896.00 L 1247.00 1896.00 L 1227.00 1895.00 L 1187.00 1895.00 L 1167.00 1894.00 L 1127.00 1894.00 L 1107.00 1893.00 L 1067.00 1893.00 L 1047.00 1892.00 L 1007.00 1892.00 L 987.00 1891.00 L 947.00 1891.00 L 927.00 1890.00 L 887.00 1890.00 L 867.00 1889.00 Z" />
<path id="csg562-054-12" fill="none" stroke="black" stroke-width="1" d="M 1367.00 1987.00 L 1347.00 2007.00 L 1327.00 2006.00 L 1287.00 2006.00 L 1267.00 2005.00 L 1207.00 2005.00 L 1187.00 2004.00 L 1147.00 2004.00 L 1127.00 2003.00 L 1087.00 2003.00 L 1067.00 2002.00 L 1007.00 2002.00 L 987.00 2001.00 L 947.00 2001.00 L 927.00 2000.00 L 887.00 2000.00 L 867.00 1999.00 L 835.29 1999.00 L 834.93 2109.00 L 927.00 2109.00 L 947.00 2110.00 L 1047.00 2110.00 L 1067.00 2111.00 L 1167.00 2111.00 L 1187.00 2112.00 L 1287.00 2112.00 L 1307.00 2113.00 L 1407.00 2113.00 L 1427.00 2114.00 L 1527.00 2114.00 L 1547.00 2115.00 L 1647.00 2115.00 L 1667.00 2116.00 L 1767.00 2116.00 L 1787.00 2117.00 L 1887.00 2117.00 L 1907.00 2118.00 L 2007.00 2118.00 L 2027.00 2119.00 L 2147.00 2119.00 L 2167.00 2120.00 L 2267.00 2120.00 L 2287.00 2121.00 L 2387.00 2121.00 L 2407.00 2122.00 L 2507.00 2122.00 L 2527.00 2123.00 L 2627.00 2123.00 L 2647.00 2124.00 L 2747.00 2124.00 L 2767.00 2125.00 L 2867.00 2125.00 L 2877.97 2125.55 L 2918.22 2030.56 L 2907.00 2030.00 L 2867.00 2030.00 L 2847.00 2029.00 L 2807.00 2029.00 L 2787.00 2028.00 L 2727.00 2028.00 L 2707.00 2027.00 L 2667.00 2027.00 L 2647.00 2026.00 L 2607.00 2026.00 L 2587.00 2025.00 L 2547.00 2025.00 L 2527.00 2024.00 L 2467.00 2024.00 L 2447.00 2023.00 L 2407.00 2023.00 L 2387.00 2022.00 L 2347.00 2022.00 L 2327.00 2021.00 L 2267.00 2021.00 L 2247.00 2020.00 L 2207.00 2020.00 L 2187.00 2019.00 L 2147.00 2019.00 L 2127.00 2018.00 L 2067.00 2018.00 L 2047.00 2017.00 L 2007.00 2017.00 L 1987.00 2016.00 L 1947.00 2016.00 L 1927.00 2015.00 L 1867.00 2015.00 L 1847.00 2014.00 L 1807.00 2014.00 L 1787.00 2013.00 L 1747.00 2013.00 L 1727.00 2012.00 L 1687.00 2012.00 L 1667.00 2011.00 L 1607.00 2011.00 L 1587.00 2010.00 L 1547.00 2010.00 L 1527.00 2009.00 L 1487.00 2009.00 L 1467.00 2008.00 L 1407.00 2008.00 L 1387.00 1987.00 Z" />
<path id="csg562-054-13" fill="none" stroke="black" stroke-width="1" d="M 834.93 2109.00 L 834.54 2225.00 L 907.00 2225.00 L 927.00 2226.00 L 1007.00 2226.00 L 1027.00 2227.00 L 1107.00 2227.00 L 1127.00 2228.00 L 1207.00 2228.00 L 1227.00 2229.00 L 1307.00 2229.00 L 1327.00 2230.00 L 1407.00 2230.00 L 1427.00 2231.00 L 1507.00 2231.00 L 1527.00 2232.00 L 1607.00 2232.00 L 1627.00 2233.00 L 1707.00 2233.00 L 1727.00 2234.00 L 1807.00 2234.00 L 1827.00 2235.00 L 1907.00 2235.00 L 1927.00 2236.00 L 2007.00 2236.00 L 2027.00 2237.00 L 2107.00 2237.00 L 2127.00 2238.00 L 2207.00 2238.00 L 2227.00 2239.00 L 2307.00 2239.00 L 2327.00 2240.00 L 2407.00 2240.00 L 2427.00 2241.00 L 2527.00 2241.00 L 2547.00 2242.00 L 2627.00 2242.00 L 2647.00 2243.00 L 2727.00 2243.00 L 2747.00 2244.00 L 2827.00 2244.00 L 2847.00 2245.00 L 2888.35 2245.00 L 2871.00 2142.00 L 2877.97 2125.55 L 2867.00 2125.00 L 2767.00 2125.00 L 2747.00 2124.00 L 2647.00 2124.00 L 2627.00 2123.00 L 2527.00 2123.00 L 2507.00 2122.00 L 2407.00 2122.00 L 2387.00 2121.00 L 2287.00 2121.00 L 2267.00 2120.00 L 2167.00 2120.00 L 2147.00 2119.00 L 2027.00 2119.00 L 2007.00 2118.00 L 1907.00 2118.00 L 1887.00 2117.00 L 1787.00 2117.00 L 1767.00 2116.00 L 1667.00 2116.00 L 1647.00 2115.00 L 1547.00 2115.00 L 1527.00 2114.00 L 1427.00 2114.00 L 1407.00 2113.00 L 1307.00 2113.00 L 1287.00 2112.00 L 1187.00 2112.00 L 1167.00 2111.00 L 1067.00 2111.00 L 1047.00 2110.00 L 947.00 2110.00 L 927.00 2109.00 Z" />
<path id="csg562-054-14" fill="none" stroke="black" stroke-width="1" d="M 834.54 2225.00 L 834.17 2337.00 L 887.00 2337.00 L 907.00 2338.00 L 967.00 2338.00 L 987.00 2339.00 L 1067.00 2339.00 L 1087.00 2340.00 L 1147.00 2340.00 L 1167.00 2341.00 L 1247.00 2341.00 L 1267.00 2342.00 L 1327.00 2342.00 L 1347.00 2343.00 L 1427.00 2343.00 L 1447.00 2344.00 L 1507.00 2344.00 L 1527.00 2345.00 L 1607.00 2345.00 L 1627.00 2346.00 L 1687.00 2346.00 L 1707.00 2347.00 L 1787.00 2347.00 L 1807.00 2348.00 L 1867.00 2348.00 L 1887.00 2349.00 L 1947.00 2349.00 L 1967.00 2350.00 L 2047.00 2350.00 L 2067.00 2351.00 L 2127.00 2351.00 L 2147.00 2352.00 L 2227.00 2352.00 L 2247.00 2353.00 L 2287.00 2353.00 L 2307.00 2342.00 L 2327.00 2330.00 L 2387.00 2330.00 L 2407.00 2334.00 L 2427.00 2355.00 L 2487.00 2355.00 L 2507.00 2356.00 L 2587.00 2356.00 L 2607.00 2357.00 L 2667.00 2357.00 L 2687.00 2358.00 L 2767.00 2358.00 L 2787.00 2359.00 L 2847.00 2359.00 L 2867.00 2360.00 L 2907.72 2360.00 L 2888.35 2245.00 L 2847.00 2245.00 L 2827.00 2244.00 L 2747.00 2244.00 L 2727.00 2243.00 L 2647.00 2243.00 L 2627.00 2242.00 L 2547.00 2242.00 L 2527.00 2241.00 L 2427.00 2241.00 L 2407.00 2240.00 L 2327.00 2240.00 L 2307.00 2239.00 L 2227.00 2239.00 L 2207.00 2238.00 L 2127.00 2238.00 L 2107.00 2237.00 L 2027.00 2237.00 L 2007.00 2236.00 L 1927.00 2236.00 L 1907.00 2235.00 L 1827.00 2235.00 L 1807.00 2234.00 L 1727.00 2234.00 L 1707.00 2233.00 L 1627.00 2233.00 L 1607.00 2232.00 L 1527.00 2232.00 L 1507.00 2231.00 L 1427.00 2231.00 L 1407.00 2230.00 L 1327.00 2230.00 L 1307.00 2229.00 L 1227.00 2229.00 L 1207.00 2228.00 L 1127.00 2228.00 L 1107.00 2227.00 L 1027.00 2227.00 L 1007.00 2226.00 L 927.00 2226.00 L 907.00 2225.00 Z" />
<path id="csg562-054-15" fill="none" stroke="black" stroke-width="1" d="M 2327.00 2330.00 L 2307.00 2342.00 L 2287.00 2353.00 L 2247.00 2353.00 L 2227.00 2352.00 L 2147.00 2352.00 L 2127.00 2351.00 L 2067.00 2351.00 L 2047.00 2350.00 L 1967.00 2350.00 L 1947.00 2349.00 L 1887.00 2349.00 L 1867.00 2348.00 L 1807.00 2348.00 L 1787.00 2347.00 L 1707.00 2347.00 L 1687.00 2346.00 L 1627.00 2346.00 L 1607.00 2345.00 L 1527.00 2345.00 L 1507.00 2344.00 L 1447.00 2344.00 L 1427.00 2343.00 L 1347.00 2343.00 L 1327.00 2342.00 L 1267.00 2342.00 L 1247.00 2341.00 L 1167.00 2341.00 L 1147.00 2340.00 L 1087.00 2340.00 L 1067.00 2339.00 L 987.00 2339.00 L 967.00 2338.00 L 907.00 2338.00 L 887.00 2337.00 L 834.17 2337.00 L 834.00 2388.00 L 830.59 2460.00 L 867.00 2460.00 L 887.00 2461.00 L 927.00 2461.00 L 947.00 2462.00 L 987.00 2462.00 L 1007.00 2463.00 L 1067.00 2463.00 L 1087.00 2464.00 L 1127.00 2464.00 L 1147.00 2465.00 L 1187.00 2465.00 L 1207.00 2466.00 L 1247.00 2466.00 L 1267.00 2467.00 L 1327.00 2467.00 L 1347.00 2468.00 L 1387.00 2468.00 L 1407.00 2469.00 L 1447.00 2469.00 L 1467.00 2470.00 L 1527.00 2470.00 L 1547.00 2471.00 L 1587.00 2471.00 L 1607.00 2472.00 L 1647.00 2472.00 L 1667.00 2473.00 L 1707.00 2473.00 L 1727.00 2474.00 L 1787.00 2474.00 L 1807.00 2475.00 L 1847.00 2475.00 L 1867.00 2476.00 L 1907.00 2476.00 L 1927.00 2477.00 L 1967.00 2477.00 L 1987.00 2478.00 L 2047.00 2478.00 L 2067.00 2479.00 L 2107.00 2479.00 L 2127.00 2480.00 L 2167.00 2480.00 L 2187.00 2481.00 L 2247.00 2481.00 L 2267.00 2462.00 L 2287.00 2482.00 L 2307.00 2482.00 L 2327.00 2483.00 L 2347.00 2483.00 L 2367.00 2503.00 L 2387.00 2504.00 L 2407.00 2504.00 L 2427.00 2464.00 L 2447.00 2465.00 L 2467.00 2465.00 L 2487.00 2485.00 L 2507.00 2485.00 L 2527.00 2486.00 L 2547.00 2506.00 L 2567.00 2506.00 L 2587.00 2507.00 L 2627.00 2507.00 L 2647.00 2488.00 L 2687.00 2488.00 L 2707.00 2489.00 L 2767.00 2489.00 L 2787.00 2490.00 L 2807.00 2510.00 L 2827.00 2510.00 L 2847.00 2491.00 L 2868.18 2491.00 L 2868.00 2490.00 L 2919.00 2427.00 L 2907.72 2360.00 L 2867.00 2360.00 L 2847.00 2359.00 L 2787.00 2359.00 L 2767.00 2358.00 L 2687.00 2358.00 L 2667.00 2357.00 L 2607.00 2357.00 L 2587.00 2356.00 L 2507.00 2356.00 L 2487.00 2355.00 L 2427.00 2355.00 L 2407.00 2334.00 L 2387.00 2330.00 Z" />
<path id="csg562-054-16" fill="none" stroke="black" stroke-width="1" d="M 830.59 2460.00 L 825.49 2567.76 L 827.00 2567.00 L 867.00 2567.00 L 887.00 2568.00 L 927.00 2568.00 L 947.00 2569.00 L 1007.00 2569.00 L 1027.00 2570.00 L 1067.00 2570.00 L 1087.00 2571.00 L 1147.00 2571.00 L 1167.00 2572.00 L 1207.00 2572.00 L 1227.00 2573.00 L 1267.00 2573.00 L 1287.00 2574.00 L 1347.00 2574.00 L 1367.00 2575.00 L 1407.00 2575.00 L 1427.00 2576.00 L 1487.00 2576.00 L 1507.00 2577.00 L 1547.00 2577.00 L 1567.00 2578.00 L 1627.00 2578.00 L 1647.00 2579.00 L 1687.00 2579.00 L 1707.00 2580.00 L 1747.00 2580.00 L 1767.00 2581.00 L 1827.00 2581.00 L 1847.00 2582.00 L 1887.00 2582.00 L 1907.00 2583.00 L 1967.00 2583.00 L 1987.00 2584.00 L 2027.00 2584.00 L 2047.00 2585.00 L 2107.00 2585.00 L 2127.00 2586.00 L 2147.00 2586.00 L 2167.00 2606.00 L 2187.00 2587.00 L 2207.00 2607.00 L 2227.00 2587.00 L 2247.00 2588.00 L 2287.00 2588.00 L 2307.00 2568.00 L 2327.00 2569.00 L 2347.00 2589.00 L 2367.00 2589.00 L 2387.00 2590.00 L 2447.00 2590.00 L 2467.00 2571.00 L 2507.00 2571.00 L 2527.00 2592.00 L 2567.00 2592.00 L 2587.00 2593.00 L 2647.00 2593.00 L 2667.00 2594.00 L 2707.00 2594.00 L 2727.00 2595.00 L 2787.00 2595.00 L 2807.00 2596.00 L 2827.00 2576.00 L 2847.00 2596.00 L 2867.00 2597.00 L 2887.71 2597.00 L 2868.18 2491.00 L 2847.00 2491.00 L 2827.00 2510.00 L 2807.00 2510.00 L 2787.00 2490.00 L 2767.00 2489.00 L 2707.00 2489.00 L 2687.00 2488.00 L 2647.00 2488.00 L 2627.00 2507.00 L 2587.00 2507.00 L 2567.00 2506.00 L 2547.00 2506.00 L 2527.00 2486.00 L 2507.00 2485.00 L 2487.00 2485.00 L 2467.00 2465.00 L 2447.00 2465.00 L 2427.00 2464.00 L 2407.00 2504.00 L 2387.00 2504.00 L 2367.00 2503.00 L 2347.00 2483.00 L 2327.00 2483.00 L 2307.00 2482.00 L 2287.00 2482.00 L 2267.00 2462.00 L 2247.00 2481.00 L 2187.00 2481.00 L 2167.00 2480.00 L 2127.00 2480.00 L 2107.00 2479.00 L 2067.00 2479.00 L 2047.00 2478.00 L 1987.00 2478.00 L 1967.00 2477.00 L 1927.00 2477.00 L 1907.00 2476.00 L 1867.00 2476.00 L 1847.00 2475.00 L 1807.00 2475.00 L 1787.00 2474.00 L 1727.00 2474.00 L 1707.00 2473.00 L 1667.00 2473.00 L 1647.00 2472.00 L 1607.00 2472.00 L 1587.00 2471.00 L 1547.00 2471.00 L 1527.00 2470.00 L 1467.00 2470.00 L 1447.00 2469.00 L 1407.00 2469.00 L 1387.00 2468.00 L 1347.00 2468.00 L 1327.00 2467.00 L 1267.00 2467.00 L 1247.00 2466.00 L 1207.00 2466.00 L 1187.00 2465.00 L 1147.00 2465.00 L 1127.00 2464.00 L 1087.00 2464.00 L 1067.00 2463.00 L 1007.00 2463.00 L 987.00 2462.00 L 947.00 2462.00 L 927.00 2461.00 L 887.00 2461.00 L 867.00 2460.00 Z" />
<path id="csg562-054-17" fill="none" stroke="black" stroke-width="1" d="M 827.00 2567.00 L 825.49 2567.76 L 820.58 2671.21 L 827.00 2668.00 L 887.00 2668.00 L 907.00 2669.00 L 967.00 2669.00 L 987.00 2670.00 L 1047.00 2670.00 L 1067.00 2671.00 L 1127.00 2671.00 L 1147.00 2672.00 L 1207.00 2672.00 L 1227.00 2673.00 L 1307.00 2673.00 L 1327.00 2674.00 L 1387.00 2674.00 L 1407.00 2675.00 L 1467.00 2675.00 L 1487.00 2676.00 L 1547.00 2676.00 L 1567.00 2657.00 L 1587.00 2677.00 L 1607.00 2657.00 L 1627.00 2677.00 L 1647.00 2678.00 L 1727.00 2678.00 L 1747.00 2679.00 L 1807.00 2679.00 L 1827.00 2680.00 L 1847.00 2700.00 L 1867.00 2700.00 L 1887.00 2680.00 L 1907.00 2681.00 L 1927.00 2701.00 L 1947.00 2681.00 L 1967.00 2681.00 L 1987.00 2682.00 L 2047.00 2682.00 L 2067.00 2683.00 L 2127.00 2683.00 L 2147.00 2684.00 L 2227.00 2684.00 L 2247.00 2665.00 L 2307.00 2665.00 L 2327.00 2686.00 L 2367.00 2686.00 L 2387.00 2706.00 L 2407.00 2707.00 L 2427.00 2727.00 L 2447.00 2707.00 L 2467.00 2707.00 L 2487.00 2708.00 L 2547.00 2708.00 L 2567.00 2689.00 L 2647.00 2689.00 L 2667.00 2690.00 L 2727.00 2690.00 L 2747.00 2691.00 L 2767.00 2671.00 L 2787.00 2691.00 L 2807.00 2691.00 L 2827.00 2692.00 L 2868.16 2692.00 L 2889.00 2604.00 L 2887.71 2597.00 L 2867.00 2597.00 L 2847.00 2596.00 L 2827.00 2576.00 L 2807.00 2596.00 L 2787.00 2595.00 L 2727.00 2595.00 L 2707.00 2594.00 L 2667.00 2594.00 L 2647.00 2593.00 L 2587.00 2593.00 L 2567.00 2592.00 L 2527.00 2592.00 L 2507.00 2571.00 L 2467.00 2571.00 L 2447.00 2590.00 L 2387.00 2590.00 L 2367.00 2589.00 L 2347.00 2589.00 L 2327.00 2569.00 L 2307.00 2568.00 L 2287.00 2588.00 L 2247.00 2588.00 L 2227.00 2587.00 L 2207.00 2607.00 L 2187.00 2587.00 L 2167.00 2606.00 L 2147.00 2586.00 L 2127.00 2586.00 L 2107.00 2585.00 L 2047.00 2585.00 L 2027.00 2584.00 L 1987.00 2584.00 L 1967.00 2583.00 L 1907.00 2583.00 L 1887.00 2582.00 L 1847.00 2582.00 L 1827.00 2581.00 L 1767.00 2581.00 L 1747.00 2580.00 L 1707.00 2580.00 L 1687.00 2579.00 L 1647.00 2579.00 L 1627.00 2578.00 L 1567.00 2578.00 L 1547.00 2577.00 L 1507.00 2577.00 L 1487.00 2576.00 L 1427.00 2576.00 L 1407.00 2575.00 L 1367.00 2575.00 L 1347.00 2574.00 L 1287.00 2574.00 L 1267.00 2573.00 L 1227.00 2573.00 L 1207.00 2572.00 L 1167.00 2572.00 L 1147.00 2571.00 L 1087.00 2571.00 L 1067.00 2570.00 L 1027.00 2570.00 L 1007.00 2569.00 L 947.00 2569.00 L 927.00 2568.00 L 887.00 2568.00 L 867.00 2567.00 Z" />
<path id="csg562-054-18" fill="none" stroke="black" stroke-width="1" d="M 1567.00 2657.00 L 1547.00 2676.00 L 1487.00 2676.00 L 1467.00 2675.00 L 1407.00 2675.00 L 1387.00 2674.00 L 1327.00 2674.00 L 1307.00 2673.00 L 1227.00 2673.00 L 1207.00 2672.00 L 1147.00 2672.00 L 1127.00 2671.00 L 1067.00 2671.00 L 1047.00 2670.00 L 987.00 2670.00 L 967.00 2669.00 L 907.00 2669.00 L 887.00 2668.00 L 827.00 2668.00 L 820.58 2671.21 L 815.30 2782.85 L 827.00 2777.00 L 847.00 2777.00 L 867.00 2778.00 L 907.00 2778.00 L 927.00 2779.00 L 967.00 2779.00 L 987.00 2780.00 L 1027.00 2780.00 L 1047.00 2781.00 L 1087.00 2781.00 L 1107.00 2782.00 L 1147.00 2782.00 L 1167.00 2783.00 L 1207.00 2783.00 L 1227.00 2784.00 L 1267.00 2784.00 L 1287.00 2785.00 L 1327.00 2785.00 L 1347.00 2786.00 L 1387.00 2786.00 L 1407.00 2787.00 L 1447.00 2787.00 L 1467.00 2788.00 L 1507.00 2788.00 L 1527.00 2789.00 L 1567.00 2789.00 L 1587.00 2790.00 L 1627.00 2790.00 L 1647.00 2791.00 L 1687.00 2791.00 L 1707.00 2792.00 L 1747.00 2792.00 L 1767.00 2793.00 L 1807.00 2793.00 L 1827.00 2794.00 L 1867.00 2794.00 L 1887.00 2775.00 L 1907.00 2795.00 L 1927.00 2796.00 L 1967.00 2796.00 L 1987.00 2797.00 L 2027.00 2797.00 L 2047.00 2798.00 L 2087.00 2798.00 L 2107.00 2799.00 L 2147.00 2799.00 L 2167.00 2800.00 L 2207.00 2800.00 L 2227.00 2781.00 L 2247.00 2801.00 L 2267.00 2801.00 L 2287.00 2802.00 L 2327.00 2802.00 L 2347.00 2803.00 L 2387.00 2803.00 L 2407.00 2804.00 L 2447.00 2804.00 L 2467.00 2805.00 L 2507.00 2805.00 L 2527.00 2806.00 L 2547.00 2786.00 L 2567.00 2786.00 L 2587.00 2767.00 L 2607.00 2807.00 L 2627.00 2807.00 L 2647.00 2808.00 L 2687.00 2808.00 L 2707.00 2809.00 L 2747.00 2809.00 L 2767.00 2850.00 L 2787.00 2850.00 L 2807.00 2830.00 L 2827.00 2811.00 L 2867.00 2811.00 L 2877.78 2811.54 L 2862.00 2718.00 L 2868.16 2692.00 L 2827.00 2692.00 L 2807.00 2691.00 L 2787.00 2691.00 L 2767.00 2671.00 L 2747.00 2691.00 L 2727.00 2690.00 L 2667.00 2690.00 L 2647.00 2689.00 L 2567.00 2689.00 L 2547.00 2708.00 L 2487.00 2708.00 L 2467.00 2707.00 L 2447.00 2707.00 L 2427.00 2727.00 L 2407.00 2707.00 L 2387.00 2706.00 L 2367.00 2686.00 L 2327.00 2686.00 L 2307.00 2665.00 L 2247.00 2665.00 L 2227.00 2684.00 L 2147.00 2684.00 L 2127.00 2683.00 L 2067.00 2683.00 L 2047.00 2682.00 L 1987.00 2682.00 L 1967.00 2681.00 L 1947.00 2681.00 L 1927.00 2701.00 L 1907.00 2681.00 L 1887.00 2680.00 L 1867.00 2700.00 L 1847.00 2700.00 L 1827.00 2680.00 L 1807.00 2679.00 L 1747.00 2679.00 L 1727.00 2678.00 L 1647.00 2678.00 L 1627.00 2677.00 L 1607.00 2657.00 L 1587.00 2677.00 L 1567.00 2657.00 Z" />
<path id="csg562-054-19" fill="none" stroke="black" stroke-width="1" d="M 2587.00 2767.00 L 2567.00 2786.00 L 2547.00 2786.00 L 2527.00 2806.00 L 2507.00 2805.00 L 2467.00 2805.00 L 2447.00 2804.00 L 2407.00 2804.00 L 2387.00 2803.00 L 2347.00 2803.00 L 2327.00 2802.00 L 2287.00 2802.00 L 2267.00 2801.00 L 2247.00 2801.00 L 2227.00 2781.00 L 2207.00 2800.00 L 2167.00 2800.00 L 2147.00 2799.00 L 2107.00 2799.00 L 2087.00 2798.00 L 2047.00 2798.00 L 2027.00 2797.00 L 1987.00 2797.00 L 1967.00 2796.00 L 1927.00 2796.00 L 1907.00 2795.00 L 1887.00 2775.00 L 1867.00 2794.00 L 1827.00 2794.00 L 1807.00 2793.00 L 1767.00 2793.00 L 1747.00 2792.00 L 1707.00 2792.00 L 1687.00 2791.00 L 1647.00 2791.00 L 1627.00 2790.00 L 1587.00 2790.00 L 1567.00 2789.00 L 1527.00 2789.00 L 1507.00 2788.00 L 1467.00 2788.00 L 1447.00 2787.00 L 1407.00 2787.00 L 1387.00 2786.00 L 1347.00 2786.00 L 1327.00 2785.00 L 1287.00 2785.00 L 1267.00 2784.00 L 1227.00 2784.00 L 1207.00 2783.00 L 1167.00 2783.00 L 1147.00 2782.00 L 1107.00 2782.00 L 1087.00 2781.00 L 1047.00 2781.00 L 1027.00 2780.00 L 987.00 2780.00 L 967.00 2779.00 L 927.00 2779.00 L 907.00 2778.00 L 867.00 2778.00 L 847.00 2777.00 L 827.00 2777.00 L 815.30 2782.85 L 809.67 2901.67 L 827.00 2893.00 L 847.00 2893.00 L 867.00 2894.00 L 907.00 2894.00 L 927.00 2895.00 L 947.00 2895.00 L 967.00 2896.00 L 1007.00 2896.00 L 1027.00 2897.00 L 1067.00 2897.00 L 1087.00 2898.00 L 1107.00 2898.00 L 1127.00 2899.00 L 1147.00 2899.00 L 1167.00 2879.00 L 1187.00 2860.00 L 1207.00 2880.00 L 1227.00 2901.00 L 1267.00 2901.00 L 1287.00 2902.00 L 1327.00 2902.00 L 1347.00 2903.00 L 1367.00 2903.00 L 1387.00 2904.00 L 1427.00 2904.00 L 1447.00 2905.00 L 1467.00 2905.00 L 1487.00 2906.00 L 1527.00 2906.00 L 1547.00 2907.00 L 1587.00 2907.00 L 1607.00 2908.00 L 1627.00 2908.00 L 1647.00 2909.00 L 1687.00 2909.00 L 1707.00 2910.00 L 1727.00 2910.00 L 1747.00 2911.00 L 1787.00 2911.00 L 1807.00 2912.00 L 1847.00 2912.00 L 1867.00 2913.00 L 1887.00 2893.00 L 1907.00 2874.00 L 1927.00 2894.00 L 1947.00 2894.00 L 1967.00 2915.00 L 2007.00 2915.00 L 2027.00 2916.00 L 2047.00 2916.00 L 2067.00 2917.00 L 2107.00 2917.00 L 2127.00 2918.00 L 2147.00 2938.00 L 2167.00 2939.00 L 2187.00 2919.00 L 2207.00 2919.00 L 2227.00 2900.00 L 2247.00 2920.00 L 2267.00 2920.00 L 2287.00 2921.00 L 2307.00 2921.00 L 2327.00 2922.00 L 2367.00 2922.00 L 2387.00 2923.00 L 2407.00 2923.00 L 2427.00 2924.00 L 2467.00 2924.00 L 2487.00 2925.00 L 2527.00 2925.00 L 2547.00 2926.00 L 2567.00 2926.00 L 2587.00 2947.00 L 2607.00 2927.00 L 2627.00 2927.00 L 2647.00 2928.00 L 2667.00 2928.00 L 2687.00 2929.00 L 2727.00 2929.00 L 2747.00 2930.00 L 2767.00 2930.00 L 2787.00 2910.00 L 2807.00 2931.00 L 2827.00 2931.00 L 2847.00 2932.00 L 2887.00 2932.00 L 2898.19 2932.56 L 2877.78 2811.54 L 2867.00 2811.00 L 2827.00 2811.00 L 2807.00 2830.00 L 2787.00 2850.00 L 2767.00 2850.00 L 2747.00 2809.00 L 2707.00 2809.00 L 2687.00 2808.00 L 2647.00 2808.00 L 2627.00 2807.00 L 2607.00 2807.00 L 2587.00 2767.00 Z" />
<path id="csg562-054-20" fill="none" stroke="black" stroke-width="1" d="M 1187.00 2860.00 L 1167.00 2879.00 L 1147.00 2899.00 L 1127.00 2899.00 L 1107.00 2898.00 L 1087.00 2898.00 L 1067.00 2897.00 L 1027.00 2897.00 L 1007.00 2896.00 L 967.00 2896.00 L 947.00 2895.00 L 927.00 2895.00 L 907.00 2894.00 L 867.00 2894.00 L 847.00 2893.00 L 827.00 2893.00 L 809.67 2901.67 L 807.00 2958.00 L 810.81 3010.09 L 827.00 3002.00 L 867.00 3002.00 L 887.00 3003.00 L 927.00 3003.00 L 947.00 3004.00 L 1007.00 3004.00 L 1027.00 3005.00 L 1067.00 3005.00 L 1087.00 3006.00 L 1147.00 3006.00 L 1167.00 3007.00 L 1207.00 3007.00 L 1227.00 3008.00 L 1287.00 3008.00 L 1307.00 3009.00 L 1347.00 3009.00 L 1367.00 3010.00 L 1407.00 3010.00 L 1427.00 3011.00 L 1487.00 3011.00 L 1507.00 3012.00 L 1547.00 3012.00 L 1567.00 3013.00 L 1627.00 3013.00 L 1647.00 3014.00 L 1687.00 3014.00 L 1707.00 3015.00 L 1767.00 3015.00 L 1787.00 3016.00 L 1827.00 3016.00 L 1847.00 3017.00 L 1887.00 3017.00 L 1907.00 3018.00 L 1967.00 3018.00 L 1987.00 3019.00 L 2027.00 3019.00 L 2047.00 3020.00 L 2107.00 3020.00 L 2127.00 3001.00 L 2147.00 3061.00 L 2167.00 3061.00 L 2187.00 3042.00 L 2207.00 3022.00 L 2247.00 3022.00 L 2267.00 3023.00 L 2307.00 3023.00 L 2327.00 3044.00 L 2367.00 3044.00 L 2387.00 3025.00 L 2407.00 3025.00 L 2427.00 3005.00 L 2447.00 3005.00 L 2467.00 3026.00 L 2507.00 3026.00 L 2527.00 3027.00 L 2587.00 3027.00 L 2607.00 3028.00 L 2647.00 3028.00 L 2667.00 3029.00 L 2727.00 3029.00 L 2747.00 3030.00 L 2787.00 3030.00 L 2807.00 3031.00 L 2847.00 3031.00 L 2867.00 3032.00 L 2891.62 3032.00 L 2904.00 2967.00 L 2898.19 2932.56 L 2887.00 2932.00 L 2847.00 2932.00 L 2827.00 2931.00 L 2807.00 2931.00 L 2787.00 2910.00 L 2767.00 2930.00 L 2747.00 2930.00 L 2727.00 2929.00 L 2687.00 2929.00 L 2667.00 2928.00 L 2647.00 2928.00 L 2627.00 2927.00 L 2607.00 2927.00 L 2587.00 2947.00 L 2567.00 2926.00 L 2547.00 2926.00 L 2527.00 2925.00 L 2487.00 2925.00 L 2467.00 2924.00 L 2427.00 2924.00 L 2407.00 2923.00 L 2387.00 2923.00 L 2367.00 2922.00 L 2327.00 2922.00 L 2307.00 2921.00 L 2287.00 2921.00 L 2267.00 2920.00 L 2247.00 2920.00 L 2227.00 2900.00 L 2207.00 2919.00 L 2187.00 2919.00 L 2167.00 2939.00 L 2147.00 2938.00 L 2127.00 2918.00 L 2107.00 2917.00 L 2067.00 2917.00 L 2047.00 2916.00 L 2027.00 2916.00 L 2007.00 2915.00 L 1967.00 2915.00 L 1947.00 2894.00 L 1927.00 2894.00 L 1907.00 2874.00 L 1887.00 2893.00 L 1867.00 2913.00 L 1847.00 2912.00 L 1807.00 2912.00 L 1787.00 2911.00 L 1747.00 2911.00 L 1727.00 2910.00 L 1707.00 2910.00 L 1687.00 2909.00 L 1647.00 2909.00 L 1627.00 2908.00 L 1607.00 2908.00 L 1587.00 2907.00 L 1547.00 2907.00 L 1527.00 2906.00 L 1487.00 2906.00 L 1467.00 2905.00 L 1447.00 2905.00 L 1427.00 2904.00 L 1387.00 2904.00 L 1367.00 2903.00 L 1347.00 2903.00 L 1327.00 2902.00 L 1287.00 2902.00 L 1267.00 2901.00 L 1227.00 2901.00 L 1207.00 2880.00 L 1187.00 2860.00 Z" />
<path id="csg562-054-21" fill="none" stroke="black" stroke-width="1" d="M 2127.00 3001.00 L 2107.00 3020.00 L 2047.00 3020.00 L 2027.00 3019.00 L 1987.00 3019.00 L 1967.00 3018.00 L 1907.00 3018.00 L 1887.00 3017.00 L 1847.00 3017.00 L 1827.00 3016.00 L 1787.00 3016.00 L 1767.00 3015.00 L 1707.00 3015.00 L 1687.00 3014.00 L 1647.00 3014.00 L 1627.00 3013.00 L 1567.00 3013.00 L 1547.00 3012.00 L 1507.00 3012.00 L 1487.00 3011.00 L 1427.00 3011.00 L 1407.00 3010.00 L 1367.00 3010.00 L 1347.00 3009.00 L 1307.00 3009.00 L 1287.00 3008.00 L 1227.00 3008.00 L 1207.00 3007.00 L 1167.00 3007.00 L 1147.00 3006.00 L 1087.00 3006.00 L 1067.00 3005.00 L 1027.00 3005.00 L 1007.00 3004.00 L 947.00 3004.00 L 927.00 3003.00 L 887.00 3003.00 L 867.00 3002.00 L 827.00 3002.00 L 810.81 3010.09 L 818.72 3118.14 L 827.00 3114.00 L 867.00 3114.00 L 887.00 3115.00 L 947.00 3115.00 L 967.00 3116.00 L 1027.00 3116.00 L 1047.00 3117.00 L 1107.00 3117.00 L 1127.00 3118.00 L 1187.00 3118.00 L 1207.00 3119.00 L 1247.00 3119.00 L 1267.00 3120.00 L 1327.00 3120.00 L 1347.00 3121.00 L 1407.00 3121.00 L 1427.00 3122.00 L 1487.00 3122.00 L 1507.00 3123.00 L 1567.00 3123.00 L 1587.00 3124.00 L 1627.00 3124.00 L 1647.00 3125.00 L 1707.00 3125.00 L 1727.00 3126.00 L 1787.00 3126.00 L 1807.00 3127.00 L 1867.00 3127.00 L 1887.00 3128.00 L 1947.00 3128.00 L 1967.00 3129.00 L 2007.00 3129.00 L 2027.00 3130.00 L 2087.00 3130.00 L 2107.00 3131.00 L 2147.00 3131.00 L 2167.00 3151.00 L 2187.00 3172.00 L 2207.00 3172.00 L 2227.00 3152.00 L 2247.00 3152.00 L 2267.00 3173.00 L 2287.00 3173.00 L 2307.00 3153.00 L 2327.00 3153.00 L 2347.00 3134.00 L 2407.00 3134.00 L 2427.00 3135.00 L 2467.00 3135.00 L 2487.00 3136.00 L 2507.00 3136.00 L 2527.00 3156.00 L 2547.00 3156.00 L 2567.00 3137.00 L 2627.00 3137.00 L 2647.00 3138.00 L 2707.00 3138.00 L 2727.00 3139.00 L 2787.00 3139.00 L 2807.00 3140.00 L 2847.00 3140.00 L 2867.00 3141.00 L 2870.86 3141.00 L 2891.62 3032.00 L 2867.00 3032.00 L 2847.00 3031.00 L 2807.00 3031.00 L 2787.00 3030.00 L 2747.00 3030.00 L 2727.00 3029.00 L 2667.00 3029.00 L 2647.00 3028.00 L 2607.00 3028.00 L 2587.00 3027.00 L 2527.00 3027.00 L 2507.00 3026.00 L 2467.00 3026.00 L 2447.00 3005.00 L 2427.00 3005.00 L 2407.00 3025.00 L 2387.00 3025.00 L 2367.00 3044.00 L 2327.00 3044.00 L 2307.00 3023.00 L 2267.00 3023.00 L 2247.00 3022.00 L 2207.00 3022.00 L 2187.00 3042.00 L 2167.00 3061.00 L 2147.00 3061.00 L 2127.00 3001.00 Z" />
<path id="csg562-054-22" fill="none" stroke="black" stroke-width="1" d="M 827.00 3114.00 L 818.72 3118.14 L 826.34 3222.33 L 827.00 3222.00 L 887.00 3222.00 L 907.00 3223.00 L 987.00 3223.00 L 1007.00 3224.00 L 1087.00 3224.00 L 1107.00 3225.00 L 1167.00 3225.00 L 1187.00 3226.00 L 1267.00 3226.00 L 1287.00 3227.00 L 1367.00 3227.00 L 1387.00 3228.00 L 1447.00 3228.00 L 1467.00 3224.00 L 1487.00 3216.00 L 1507.00 3216.00 L 1527.00 3220.00 L 1547.00 3229.00 L 1567.00 3230.00 L 1647.00 3230.00 L 1667.00 3231.00 L 1747.00 3231.00 L 1767.00 3232.00 L 1827.00 3232.00 L 1847.00 3233.00 L 1927.00 3233.00 L 1947.00 3234.00 L 2027.00 3234.00 L 2047.00 3235.00 L 2127.00 3235.00 L 2147.00 3236.00 L 2207.00 3236.00 L 2227.00 3237.00 L 2307.00 3237.00 L 2327.00 3258.00 L 2367.00 3258.00 L 2387.00 3238.00 L 2407.00 3238.00 L 2427.00 3239.00 L 2507.00 3239.00 L 2527.00 3240.00 L 2587.00 3240.00 L 2607.00 3241.00 L 2687.00 3241.00 L 2707.00 3242.00 L 2727.00 3242.00 L 2747.00 3222.00 L 2767.00 3222.00 L 2787.00 3242.00 L 2807.00 3243.00 L 2867.00 3243.00 L 2873.29 3243.31 L 2868.00 3156.00 L 2870.86 3141.00 L 2867.00 3141.00 L 2847.00 3140.00 L 2807.00 3140.00 L 2787.00 3139.00 L 2727.00 3139.00 L 2707.00 3138.00 L 2647.00 3138.00 L 2627.00 3137.00 L 2567.00 3137.00 L 2547.00 3156.00 L 2527.00 3156.00 L 2507.00 3136.00 L 2487.00 3136.00 L 2467.00 3135.00 L 2427.00 3135.00 L 2407.00 3134.00 L 2347.00 3134.00 L 2327.00 3153.00 L 2307.00 3153.00 L 2287.00 3173.00 L 2267.00 3173.00 L 2247.00 3152.00 L 2227.00 3152.00 L 2207.00 3172.00 L 2187.00 3172.00 L 2167.00 3151.00 L 2147.00 3131.00 L 2107.00 3131.00 L 2087.00 3130.00 L 2027.00 3130.00 L 2007.00 3129.00 L 1967.00 3129.00 L 1947.00 3128.00 L 1887.00 3128.00 L 1867.00 3127.00 L 1807.00 3127.00 L 1787.00 3126.00 L 1727.00 3126.00 L 1707.00 3125.00 L 1647.00 3125.00 L 1627.00 3124.00 L 1587.00 3124.00 L 1567.00 3123.00 L 1507.00 3123.00 L 1487.00 3122.00 L 1427.00 3122.00 L 1407.00 3121.00 L 1347.00 3121.00 L 1327.00 3120.00 L 1267.00 3120.00 L 1247.00 3119.00 L 1207.00 3119.00 L 1187.00 3118.00 L 1127.00 3118.00 L 1107.00 3117.00 L 1047.00 3117.00 L 1027.00 3116.00 L 967.00 3116.00 L 947.00 3115.00 L 887.00 3115.00 L 867.00 3114.00 Z" />
<path id="csg562-054-23" fill="none" stroke="black" stroke-width="1" d="M 1487.00 3216.00 L 1467.00 3224.00 L 1447.00 3228.00 L 1387.00 3228.00 L 1367.00 3227.00 L 1287.00 3227.00 L 1267.00 3226.00 L 1187.00 3226.00 L 1167.00 3225.00 L 1107.00 3225.00 L 1087.00 3224.00 L 1007.00 3224.00 L 987.00 3223.00 L 907.00 3223.00 L 887.00 3222.00 L 827.00 3222.00 L 826.34 3222.33 L 834.00 3327.00 L 831.75 3335.00 L 907.00 3335.00 L 927.00 3336.00 L 1027.00 3336.00 L 1047.00 3337.00 L 1147.00 3337.00 L 1167.00 3338.00 L 1267.00 3338.00 L 1287.00 3339.00 L 1387.00 3339.00 L 1407.00 3340.00 L 1487.00 3340.00 L 1507.00 3341.00 L 1607.00 3341.00 L 1627.00 3342.00 L 1727.00 3342.00 L 1747.00 3343.00 L 1847.00 3343.00 L 1867.00 3344.00 L 1967.00 3344.00 L 1987.00 3345.00 L 2007.00 3345.00 L 2027.00 3325.00 L 2047.00 3345.00 L 2067.00 3345.00 L 2087.00 3346.00 L 2187.00 3346.00 L 2207.00 3347.00 L 2307.00 3347.00 L 2327.00 3348.00 L 2427.00 3348.00 L 2447.00 3349.00 L 2547.00 3349.00 L 2567.00 3350.00 L 2647.00 3350.00 L 2667.00 3351.00 L 2767.00 3351.00 L 2787.00 3352.00 L 2879.88 3352.00 L 2873.29 3243.31 L 2867.00 3243.00 L 2807.00 3243.00 L 2787.00 3242.00 L 2767.00 3222.00 L 2747.00 3222.00 L 2727.00 3242.00 L 2707.00 3242.00 L 2687.00 3241.00 L 2607.00 3241.00 L 2587.00 3240.00 L 2527.00 3240.00 L 2507.00 3239.00 L 2427.00 3239.00 L 2407.00 3238.00 L 2387.00 3238.00 L 2367.00 3258.00 L 2327.00 3258.00 L 2307.00 3237.00 L 2227.00 3237.00 L 2207.00 3236.00 L 2147.00 3236.00 L 2127.00 3235.00 L 2047.00 3235.00 L 2027.00 3234.00 L 1947.00 3234.00 L 1927.00 3233.00 L 1847.00 3233.00 L 1827.00 3232.00 L 1767.00 3232.00 L 1747.00 3231.00 L 1667.00 3231.00 L 1647.00 3230.00 L 1567.00 3230.00 L 1547.00 3229.00 L 1527.00 3220.00 L 1507.00 3216.00 Z" />
<path id="csg562-054-24" fill="none" stroke="black" stroke-width="1" d="M 2027.00 3325.00 L 2007.00 3345.00 L 1987.00 3345.00 L 1967.00 3344.00 L 1867.00 3344.00 L 1847.00 3343.00 L 1747.00 3343.00 L 1727.00 3342.00 L 1627.00 3342.00 L 1607.00 3341.00 L 1507.00 3341.00 L 1487.00 3340.00 L 1407.00 3340.00 L 1387.00 3339.00 L 1287.00 3339.00 L 1267.00 3338.00 L 1167.00 3338.00 L 1147.00 3337.00 L 1047.00 3337.00 L 1027.00 3336.00 L 927.00 3336.00 L 907.00 3335.00 L 831.75 3335.00 L 807.00 3423.00 L 883.00 3442.00 L 987.00 3442.00 L 1007.00 3443.00 L 1167.00 3443.00 L 1187.00 3444.00 L 1367.00 3444.00 L 1387.00 3445.00 L 1547.00 3445.00 L 1567.00 3446.00 L 1687.00 3446.00 L 1700.02 3455.77 L 1733.12 3456.41 L 1747.00 3446.00 L 1767.00 3447.00 L 1927.00 3447.00 L 1947.00 3448.00 L 2027.00 3448.00 L 2047.00 3461.00 L 2067.00 3448.00 L 2107.00 3448.00 L 2127.00 3449.00 L 2307.00 3449.00 L 2327.00 3450.00 L 2487.00 3450.00 L 2507.00 3451.00 L 2687.00 3451.00 L 2707.00 3452.00 L 2867.00 3452.00 L 2886.00 3452.95 L 2879.88 3352.00 L 2787.00 3352.00 L 2767.00 3351.00 L 2667.00 3351.00 L 2647.00 3350.00 L 2567.00 3350.00 L 2547.00 3349.00 L 2447.00 3349.00 L 2427.00 3348.00 L 2327.00 3348.00 L 2307.00 3347.00 L 2207.00 3347.00 L 2187.00 3346.00 L 2087.00 3346.00 L 2067.00 3345.00 L 2047.00 3345.00 L 2027.00 3325.00 Z" />
</svg>
