<?xml version="1.0" standalone="no"?>
<!DOCTYPE svg PUBLIC "-//W3C//DTD SVG 1.1//EN" "http://www.w3.org/Graphics/SVG/1.1/DTD/svg11.dtd">
<svg width="46.22222in" height="69.333336in" viewBox="0 0 3328 4992" xmlns="http://www.w3.org/2000/svg" version="1.1">
<path id="csg562-049-01" fill="none" stroke="black" stroke-width="1" d="M 1563.00 801.00 L 882.00 810.00 L 429.00 822.00 L 430.27 930.30 L 449.00 920.00 L 549.00 920.00 L 569.00 919.00 L 669.00 919.00 L 689.00 918.00 L 789.00 918.00 L 809.00 917.00 L 909.00 917.00 L 929.00 916.00 L 1049.00 916.00 L 1069.00 915.00 L 1169.00 915.00 L 1189.00 914.00 L 1289.00 914.00 L 1309.00 913.00 L 1409.00 913.00 L 1429.00 912.00 L 1529.00 912.00 L 1549.00 911.00 L 1669.00 911.00 L 1689.00 910.00 L 1789.00 910.00 L 1809.00 909.00 L 1909.00 909.00 L 1929.00 908.00 L 2029.00 908.00 L 2049.00 907.00 L 2169.00 907.00 L 2189.00 906.00 L 2289.00 906.00 L 2309.00 905.00 L 2409.00 905.00 L 2429.00 904.00 L 2477.44 904.00 L 2421.00 822.00 L 2175.00 813.00 L 1563.00 801.00 Z" />
<path id="csg562-049-02" fill="none" stroke="black" stroke-width="1" d="M 2429.00 904.00 L 2409.00 905.00 L 2309.00 905.00 L 2289.00 906.00 L 2189.00 906.00 L 2169.00 907.00 L 2049.00 907.00 L 2029.00 908.00 L 1929.00 908.00 L 1909.00 909.00 L 1809.00 909.00 L 1789.00 910.00 L 1689.00 910.00 L 1669.00 911.00 L 1549.00 911.00 L 1529.00 912.00 L 1429.00 912.00 L 1409.00 913.00 L 1309.00 913.00 L 1289.00 914.00 L 1189.00 914.00 L 1169.00 915.00 L 1069.00 915.00 L 1049.00 916.00 L 929.00 916.00 L 909.00 917.00 L 809.00 917.00 L 789.00 918.00 L 689.00 918.00 L 669.00 919.00 L 569.00 919.00 L 549.00 920.00 L 449.00 920.00 L 430.27 930.30 L 431.47 1031.64 L 449.00 1022.00 L 529.00 1022.00 L 549.00 1021.00 L 649.00 1021.00 L 669.00 1020.00 L 749.00 1020.00 L 769.00 1019.00 L 869.00 1019.00 L 889.00 1018.00 L 969.00 1018.00 L 989.00 1017.00 L 1089.00 1017.00 L 1109.00 1016.00 L 1189.00 1016.00 L 1209.00 1015.00 L 1309.00 1015.00 L 1329.00 1014.00 L 1409.00 1014.00 L 1429.00 1013.00 L 1529.00 1013.00 L 1549.00 1012.00 L 1649.00 1012.00 L 1669.00 1011.00 L 1749.00 1011.00 L 1769.00 1010.00 L 1869.00 1010.00 L 1889.00 1009.00 L 1909.00 1029.00 L 1929.00 1009.00 L 1969.00 1009.00 L 1989.00 1008.00 L 2089.00 1008.00 L 2109.00 1007.00 L 2189.00 1007.00 L 2209.00 1006.00 L 2309.00 1006.00 L 2329.00 1005.00 L 2409.00 1005.00 L 2429.00 1004.00 L 2529.00 1004.00 L 2545.70 1003.17 L 2477.44 904.00 Z" />
<path id="csg562-049-03" fill="none" stroke="black" stroke-width="1" d="M 2545.70 1003.17 L 2529.00 1004.00 L 2429.00 1004.00 L 2409.00 1005.00 L 2329.00 1005.00 L 2309.00 1006.00 L 2209.00 1006.00 L 2189.00 1007.00 L 2109.00 1007.00 L 2089.00 1008.00 L 1989.00 1008.00 L 1969.00 1009.00 L 1929.00 1009.00 L 1909.00 1029.00 L 1889.00 1009.00 L 1869.00 1010.00 L 1769.00 1010.00 L 1749.00 1011.00 L 1669.00 1011.00 L 1649.00 1012.00 L 1549.00 1012.00 L 1529.00 1013.00 L 1429.00 1013.00 L 1409.00 1014.00 L 1329.00 1014.00 L 1309.00 1015.00 L 1209.00 1015.00 L 1189.00 1016.00 L 1109.00 1016.00 L 1089.00 1017.00 L 989.00 1017.00 L 969.00 1018.00 L 889.00 1018.00 L 869.00 1019.00 L 769.00 1019.00 L 749.00 1020.00 L 669.00 1020.00 L 649.00 1021.00 L 549.00 1021.00 L 529.00 1022.00 L 449.00 1022.00 L 431.47 1031.64 L 432.69 1135.97 L 449.00 1127.00 L 509.00 1127.00 L 529.00 1126.00 L 609.00 1126.00 L 629.00 1125.00 L 689.00 1125.00 L 709.00 1124.00 L 789.00 1124.00 L 809.00 1123.00 L 889.00 1123.00 L 909.00 1122.00 L 969.00 1122.00 L 989.00 1121.00 L 1069.00 1121.00 L 1089.00 1120.00 L 1149.00 1120.00 L 1169.00 1119.00 L 1249.00 1119.00 L 1269.00 1118.00 L 1349.00 1118.00 L 1369.00 1117.00 L 1429.00 1117.00 L 1449.00 1116.00 L 1529.00 1116.00 L 1549.00 1115.00 L 1629.00 1115.00 L 1649.00 1114.00 L 1709.00 1114.00 L 1729.00 1113.00 L 1809.00 1113.00 L 1829.00 1112.00 L 1889.00 1112.00 L 1909.00 1111.00 L 1989.00 1111.00 L 2009.00 1110.00 L 2029.00 1110.00 L 2049.00 1130.00 L 2069.00 1110.00 L 2089.00 1110.00 L 2109.00 1109.00 L 2169.00 1109.00 L 2189.00 1108.00 L 2269.00 1108.00 L 2289.00 1107.00 L 2349.00 1107.00 L 2369.00 1106.00 L 2449.00 1106.00 L 2469.00 1105.00 L 2489.00 1105.00 L 2509.00 1125.00 L 2529.00 1125.00 L 2549.00 1105.00 L 2562.60 1104.32 L 2580.00 1053.00 L 2545.70 1003.17 Z" />
<path id="csg562-049-04" fill="none" stroke="black" stroke-width="1" d="M 2562.60 1104.32 L 2549.00 1105.00 L 2529.00 1125.00 L 2509.00 1125.00 L 2489.00 1105.00 L 2469.00 1105.00 L 2449.00 1106.00 L 2369.00 1106.00 L 2349.00 1107.00 L 2289.00 1107.00 L 2269.00 1108.00 L 2189.00 1108.00 L 2169.00 1109.00 L 2109.00 1109.00 L 2089.00 1110.00 L 2069.00 1110.00 L 2049.00 1130.00 L 2029.00 1110.00 L 2009.00 1110.00 L 1989.00 1111.00 L 1909.00 1111.00 L 1889.00 1112.00 L 1829.00 1112.00 L 1809.00 1113.00 L 1729.00 1113.00 L 1709.00 1114.00 L 1649.00 1114.00 L 1629.00 1115.00 L 1549.00 1115.00 L 1529.00 1116.00 L 1449.00 1116.00 L 1429.00 1117.00 L 1369.00 1117.00 L 1349.00 1118.00 L 1269.00 1118.00 L 1249.00 1119.00 L 1169.00 1119.00 L 1149.00 1120.00 L 1089.00 1120.00 L 1069.00 1121.00 L 989.00 1121.00 L 969.00 1122.00 L 909.00 1122.00 L 889.00 1123.00 L 809.00 1123.00 L 789.00 1124.00 L 709.00 1124.00 L 689.00 1125.00 L 629.00 1125.00 L 609.00 1126.00 L 529.00 1126.00 L 509.00 1127.00 L 449.00 1127.00 L 432.69 1135.97 L 434.11 1256.19 L 449.00 1248.00 L 489.00 1248.00 L 509.00 1247.00 L 569.00 1247.00 L 589.00 1246.00 L 649.00 1246.00 L 669.00 1245.00 L 729.00 1245.00 L 749.00 1244.00 L 789.00 1244.00 L 809.00 1243.00 L 869.00 1243.00 L 889.00 1242.00 L 949.00 1242.00 L 969.00 1241.00 L 1029.00 1241.00 L 1049.00 1240.00 L 1089.00 1240.00 L 1109.00 1239.00 L 1169.00 1239.00 L 1189.00 1238.00 L 1249.00 1238.00 L 1269.00 1237.00 L 1329.00 1237.00 L 1349.00 1236.00 L 1389.00 1236.00 L 1409.00 1235.00 L 1469.00 1235.00 L 1489.00 1234.00 L 1549.00 1234.00 L 1569.00 1233.00 L 1629.00 1233.00 L 1649.00 1232.00 L 1709.00 1232.00 L 1729.00 1231.00 L 1769.00 1231.00 L 1789.00 1230.00 L 1849.00 1230.00 L 1869.00 1229.00 L 1929.00 1229.00 L 1932.95 1232.76 L 1984.49 1232.51 L 1989.00 1228.00 L 2009.00 1228.00 L 2029.00 1227.00 L 2069.00 1227.00 L 2089.00 1226.00 L 2149.00 1226.00 L 2169.00 1225.00 L 2229.00 1225.00 L 2249.00 1224.00 L 2309.00 1224.00 L 2329.00 1223.00 L 2369.00 1223.00 L 2389.00 1222.00 L 2429.00 1222.00 L 2437.39 1230.39 L 2460.16 1230.28 L 2469.00 1221.00 L 2523.05 1221.00 L 2562.60 1104.32 Z" />
<path id="csg562-049-05" fill="none" stroke="black" stroke-width="1" d="M 1869.00 1229.00 L 1849.00 1230.00 L 1789.00 1230.00 L 1769.00 1231.00 L 1729.00 1231.00 L 1709.00 1232.00 L 1649.00 1232.00 L 1629.00 1233.00 L 1569.00 1233.00 L 1549.00 1234.00 L 1489.00 1234.00 L 1469.00 1235.00 L 1409.00 1235.00 L 1389.00 1236.00 L 1349.00 1236.00 L 1329.00 1237.00 L 1269.00 1237.00 L 1249.00 1238.00 L 1189.00 1238.00 L 1169.00 1239.00 L 1109.00 1239.00 L 1089.00 1240.00 L 1049.00 1240.00 L 1029.00 1241.00 L 969.00 1241.00 L 949.00 1242.00 L 889.00 1242.00 L 869.00 1243.00 L 809.00 1243.00 L 789.00 1244.00 L 749.00 1244.00 L 729.00 1245.00 L 669.00 1245.00 L 649.00 1246.00 L 589.00 1246.00 L 569.00 1247.00 L 509.00 1247.00 L 489.00 1248.00 L 449.00 1248.00 L 434.11 1256.19 L 435.00 1332.00 L 470.00 1337.00 L 489.00 1337.00 L 509.00 1336.00 L 569.00 1336.00 L 578.36 1343.49 L 598.28 1344.11 L 609.00 1335.00 L 649.00 1335.00 L 669.00 1334.00 L 729.00 1334.00 L 745.30 1348.67 L 829.71 1351.29 L 849.00 1332.00 L 869.00 1312.00 L 886.20 1311.14 L 888.00 1248.00 L 1335.00 1248.00 L 1881.00 1233.00 L 1932.95 1232.76 L 1929.00 1229.00 Z" />
<path id="csg562-049-06" fill="none" stroke="black" stroke-width="1" d="M 1146.00 1476.00 L 585.00 1506.00 L 500.00 1591.00 L 560.00 1591.00 L 580.00 1590.00 L 700.00 1590.00 L 720.00 1589.00 L 840.00 1589.00 L 860.00 1588.00 L 980.00 1588.00 L 1000.00 1587.00 L 1120.00 1587.00 L 1140.00 1586.00 L 1260.00 1586.00 L 1280.00 1585.00 L 1420.00 1585.00 L 1440.00 1584.00 L 1560.00 1584.00 L 1580.00 1583.00 L 1700.00 1583.00 L 1720.00 1582.00 L 1840.00 1582.00 L 1860.00 1581.00 L 1920.00 1581.00 L 1940.00 1601.00 L 1960.00 1581.00 L 1980.00 1581.00 L 2000.00 1580.00 L 2120.00 1580.00 L 2140.00 1579.00 L 2280.00 1579.00 L 2300.00 1578.00 L 2420.00 1578.00 L 2440.00 1577.00 L 2501.71 1577.00 L 2484.00 1479.00 L 1899.00 1482.00 L 1359.00 1494.00 L 1146.00 1476.00 Z" />
<path id="csg562-049-07" fill="none" stroke="black" stroke-width="1" d="M 2440.00 1577.00 L 2420.00 1578.00 L 2300.00 1578.00 L 2280.00 1579.00 L 2140.00 1579.00 L 2120.00 1580.00 L 2000.00 1580.00 L 1980.00 1581.00 L 1960.00 1581.00 L 1940.00 1601.00 L 1920.00 1581.00 L 1860.00 1581.00 L 1840.00 1582.00 L 1720.00 1582.00 L 1700.00 1583.00 L 1580.00 1583.00 L 1560.00 1584.00 L 1440.00 1584.00 L 1420.00 1585.00 L 1280.00 1585.00 L 1260.00 1586.00 L 1140.00 1586.00 L 1120.00 1587.00 L 1000.00 1587.00 L 980.00 1588.00 L 860.00 1588.00 L 840.00 1589.00 L 720.00 1589.00 L 700.00 1590.00 L 580.00 1590.00 L 560.00 1591.00 L 500.00 1591.00 L 441.00 1650.00 L 448.57 1703.00 L 560.00 1703.00 L 580.00 1702.00 L 700.00 1702.00 L 720.00 1701.00 L 840.00 1701.00 L 860.00 1700.00 L 980.00 1700.00 L 1000.00 1699.00 L 1120.00 1699.00 L 1140.00 1698.00 L 1260.00 1698.00 L 1280.00 1697.00 L 1400.00 1697.00 L 1420.00 1696.00 L 1540.00 1696.00 L 1560.00 1695.00 L 1680.00 1695.00 L 1700.00 1694.00 L 1820.00 1694.00 L 1840.00 1693.00 L 1960.00 1693.00 L 1980.00 1692.00 L 2100.00 1692.00 L 2120.00 1691.00 L 2240.00 1691.00 L 2260.00 1690.00 L 2380.00 1690.00 L 2400.00 1689.00 L 2520.00 1689.00 L 2521.93 1688.90 L 2501.71 1577.00 Z" />
<path id="csg562-049-08" fill="none" stroke="black" stroke-width="1" d="M 2521.93 1688.90 L 2520.00 1689.00 L 2400.00 1689.00 L 2380.00 1690.00 L 2260.00 1690.00 L 2240.00 1691.00 L 2120.00 1691.00 L 2100.00 1692.00 L 1980.00 1692.00 L 1960.00 1693.00 L 1840.00 1693.00 L 1820.00 1694.00 L 1700.00 1694.00 L 1680.00 1695.00 L 1560.00 1695.00 L 1540.00 1696.00 L 1420.00 1696.00 L 1400.00 1697.00 L 1280.00 1697.00 L 1260.00 1698.00 L 1140.00 1698.00 L 1120.00 1699.00 L 1000.00 1699.00 L 980.00 1700.00 L 860.00 1700.00 L 840.00 1701.00 L 720.00 1701.00 L 700.00 1702.00 L 580.00 1702.00 L 560.00 1703.00 L 448.57 1703.00 L 456.00 1755.00 L 451.50 1815.00 L 520.00 1815.00 L 540.00 1814.00 L 620.00 1814.00 L 640.00 1813.00 L 720.00 1813.00 L 740.00 1812.00 L 820.00 1812.00 L 840.00 1811.00 L 920.00 1811.00 L 940.00 1810.00 L 1020.00 1810.00 L 1040.00 1809.00 L 1120.00 1809.00 L 1140.00 1808.00 L 1240.00 1808.00 L 1260.00 1807.00 L 1320.00 1807.00 L 1340.00 1827.00 L 1360.00 1806.00 L 1440.00 1806.00 L 1460.00 1805.00 L 1540.00 1805.00 L 1560.00 1804.00 L 1640.00 1804.00 L 1660.00 1803.00 L 1740.00 1803.00 L 1760.00 1802.00 L 1840.00 1802.00 L 1860.00 1801.00 L 1960.00 1801.00 L 1980.00 1800.00 L 2020.00 1800.00 L 2040.00 1820.00 L 2060.00 1820.00 L 2080.00 1799.00 L 2160.00 1799.00 L 2180.00 1798.00 L 2260.00 1798.00 L 2280.00 1797.00 L 2360.00 1797.00 L 2380.00 1796.00 L 2460.00 1796.00 L 2480.00 1795.00 L 2524.41 1795.00 L 2529.00 1728.00 L 2521.93 1688.90 Z" />
<path id="csg562-049-09" fill="none" stroke="black" stroke-width="1" d="M 2480.00 1795.00 L 2460.00 1796.00 L 2380.00 1796.00 L 2360.00 1797.00 L 2280.00 1797.00 L 2260.00 1798.00 L 2180.00 1798.00 L 2160.00 1799.00 L 2080.00 1799.00 L 2060.00 1820.00 L 2040.00 1820.00 L 2020.00 1800.00 L 1980.00 1800.00 L 1960.00 1801.00 L 1860.00 1801.00 L 1840.00 1802.00 L 1760.00 1802.00 L 1740.00 1803.00 L 1660.00 1803.00 L 1640.00 1804.00 L 1560.00 1804.00 L 1540.00 1805.00 L 1460.00 1805.00 L 1440.00 1806.00 L 1360.00 1806.00 L 1340.00 1827.00 L 1320.00 1807.00 L 1260.00 1807.00 L 1240.00 1808.00 L 1140.00 1808.00 L 1120.00 1809.00 L 1040.00 1809.00 L 1020.00 1810.00 L 940.00 1810.00 L 920.00 1811.00 L 840.00 1811.00 L 820.00 1812.00 L 740.00 1812.00 L 720.00 1813.00 L 640.00 1813.00 L 620.00 1814.00 L 540.00 1814.00 L 520.00 1815.00 L 451.50 1815.00 L 443.62 1920.00 L 520.00 1920.00 L 540.00 1919.00 L 640.00 1919.00 L 660.00 1918.00 L 740.00 1918.00 L 760.00 1917.00 L 860.00 1917.00 L 880.00 1916.00 L 960.00 1916.00 L 980.00 1915.00 L 1000.00 1915.00 L 1020.00 1935.00 L 1040.00 1915.00 L 1080.00 1915.00 L 1100.00 1914.00 L 1180.00 1914.00 L 1200.00 1933.00 L 1220.00 1913.00 L 1300.00 1913.00 L 1320.00 1912.00 L 1340.00 1932.00 L 1360.00 1912.00 L 1400.00 1912.00 L 1420.00 1911.00 L 1520.00 1911.00 L 1540.00 1910.00 L 1640.00 1910.00 L 1660.00 1909.00 L 1740.00 1909.00 L 1760.00 1908.00 L 1860.00 1908.00 L 1880.00 1907.00 L 1960.00 1907.00 L 1980.00 1906.00 L 2080.00 1906.00 L 2100.00 1905.00 L 2180.00 1905.00 L 2200.00 1904.00 L 2300.00 1904.00 L 2320.00 1903.00 L 2400.00 1903.00 L 2420.00 1902.00 L 2517.08 1902.00 L 2524.41 1795.00 Z" />
<path id="csg562-049-10" fill="none" stroke="black" stroke-width="1" d="M 2420.00 1902.00 L 2400.00 1903.00 L 2320.00 1903.00 L 2300.00 1904.00 L 2200.00 1904.00 L 2180.00 1905.00 L 2100.00 1905.00 L 2080.00 1906.00 L 1980.00 1906.00 L 1960.00 1907.00 L 1880.00 1907.00 L 1860.00 1908.00 L 1760.00 1908.00 L 1740.00 1909.00 L 1660.00 1909.00 L 1640.00 1910.00 L 1540.00 1910.00 L 1520.00 1911.00 L 1420.00 1911.00 L 1400.00 1912.00 L 1360.00 1912.00 L 1340.00 1932.00 L 1320.00 1912.00 L 1300.00 1913.00 L 1220.00 1913.00 L 1200.00 1933.00 L 1180.00 1914.00 L 1100.00 1914.00 L 1080.00 1915.00 L 1040.00 1915.00 L 1020.00 1935.00 L 1000.00 1915.00 L 980.00 1915.00 L 960.00 1916.00 L 880.00 1916.00 L 860.00 1917.00 L 760.00 1917.00 L 740.00 1918.00 L 660.00 1918.00 L 640.00 1919.00 L 540.00 1919.00 L 520.00 1920.00 L 443.62 1920.00 L 434.63 2039.95 L 440.00 2037.00 L 520.00 2037.00 L 540.00 2036.00 L 640.00 2036.00 L 660.00 2035.00 L 740.00 2035.00 L 760.00 2034.00 L 860.00 2034.00 L 880.00 2033.00 L 960.00 2033.00 L 980.00 2012.00 L 1020.00 2012.00 L 1040.00 2032.00 L 1080.00 2032.00 L 1100.00 2031.00 L 1180.00 2031.00 L 1200.00 2030.00 L 1300.00 2030.00 L 1320.00 2029.00 L 1400.00 2029.00 L 1420.00 2028.00 L 1520.00 2028.00 L 1540.00 2027.00 L 1640.00 2027.00 L 1660.00 2026.00 L 1740.00 2026.00 L 1760.00 2025.00 L 1860.00 2025.00 L 1880.00 2024.00 L 1960.00 2024.00 L 1980.00 2023.00 L 2080.00 2023.00 L 2100.00 2022.00 L 2180.00 2022.00 L 2200.00 2021.00 L 2300.00 2021.00 L 2320.00 2020.00 L 2400.00 2020.00 L 2420.00 2019.00 L 2520.00 2019.00 L 2533.54 2018.32 L 2514.00 1947.00 L 2517.08 1902.00 Z" />
<path id="csg562-049-11" fill="none" stroke="black" stroke-width="1" d="M 980.00 2012.00 L 960.00 2033.00 L 880.00 2033.00 L 860.00 2034.00 L 760.00 2034.00 L 740.00 2035.00 L 660.00 2035.00 L 640.00 2036.00 L 540.00 2036.00 L 520.00 2037.00 L 440.00 2037.00 L 434.63 2039.95 L 425.16 2166.16 L 440.00 2158.00 L 520.00 2158.00 L 540.00 2137.00 L 560.00 2157.00 L 620.00 2157.00 L 640.00 2156.00 L 720.00 2156.00 L 740.00 2155.00 L 820.00 2155.00 L 840.00 2154.00 L 920.00 2154.00 L 940.00 2153.00 L 1020.00 2153.00 L 1040.00 2152.00 L 1120.00 2152.00 L 1140.00 2151.00 L 1220.00 2151.00 L 1240.00 2150.00 L 1320.00 2150.00 L 1340.00 2149.00 L 1420.00 2149.00 L 1440.00 2148.00 L 1520.00 2148.00 L 1540.00 2147.00 L 1620.00 2147.00 L 1640.00 2146.00 L 1740.00 2146.00 L 1760.00 2125.00 L 1780.00 2125.00 L 1800.00 2145.00 L 1820.00 2125.00 L 1840.00 2145.00 L 1860.00 2144.00 L 1940.00 2144.00 L 1960.00 2143.00 L 2040.00 2143.00 L 2060.00 2142.00 L 2140.00 2142.00 L 2160.00 2141.00 L 2240.00 2141.00 L 2260.00 2140.00 L 2340.00 2140.00 L 2360.00 2139.00 L 2440.00 2139.00 L 2460.00 2138.00 L 2540.00 2138.00 L 2560.00 2137.00 L 2566.05 2137.00 L 2533.54 2018.32 L 2520.00 2019.00 L 2420.00 2019.00 L 2400.00 2020.00 L 2320.00 2020.00 L 2300.00 2021.00 L 2200.00 2021.00 L 2180.00 2022.00 L 2100.00 2022.00 L 2080.00 2023.00 L 1980.00 2023.00 L 1960.00 2024.00 L 1880.00 2024.00 L 1860.00 2025.00 L 1760.00 2025.00 L 1740.00 2026.00 L 1660.00 2026.00 L 1640.00 2027.00 L 1540.00 2027.00 L 1520.00 2028.00 L 1420.00 2028.00 L 1400.00 2029.00 L 1320.00 2029.00 L 1300.00 2030.00 L 1200.00 2030.00 L 1180.00 2031.00 L 1100.00 2031.00 L 1080.00 2032.00 L 1040.00 2032.00 L 1020.00 2012.00 Z" />
<path id="csg562-049-12" fill="none" stroke="black" stroke-width="1" d="M 1760.00 2125.00 L 1740.00 2146.00 L 1640.00 2146.00 L 1620.00 2147.00 L 1540.00 2147.00 L 1520.00 2148.00 L 1440.00 2148.00 L 1420.00 2149.00 L 1340.00 2149.00 L 1320.00 2150.00 L 1240.00 2150.00 L 1220.00 2151.00 L 1140.00 2151.00 L 1120.00 2152.00 L 1040.00 2152.00 L 1020.00 2153.00 L 940.00 2153.00 L 920.00 2154.00 L 840.00 2154.00 L 820.00 2155.00 L 740.00 2155.00 L 720.00 2156.00 L 640.00 2156.00 L 620.00 2157.00 L 560.00 2157.00 L 540.00 2137.00 L 520.00 2158.00 L 440.00 2158.00 L 425.16 2166.16 L 420.00 2235.00 L 421.86 2269.98 L 440.00 2260.00 L 520.00 2260.00 L 540.00 2259.00 L 620.00 2259.00 L 640.00 2258.00 L 720.00 2258.00 L 740.00 2257.00 L 840.00 2257.00 L 860.00 2256.00 L 940.00 2256.00 L 960.00 2255.00 L 1040.00 2255.00 L 1060.00 2254.00 L 1160.00 2254.00 L 1180.00 2253.00 L 1260.00 2253.00 L 1280.00 2252.00 L 1360.00 2252.00 L 1380.00 2251.00 L 1480.00 2251.00 L 1500.00 2250.00 L 1580.00 2250.00 L 1600.00 2249.00 L 1680.00 2249.00 L 1700.00 2248.00 L 1800.00 2248.00 L 1820.00 2247.00 L 1900.00 2247.00 L 1920.00 2246.00 L 2000.00 2246.00 L 2020.00 2245.00 L 2120.00 2245.00 L 2140.00 2244.00 L 2220.00 2244.00 L 2240.00 2243.00 L 2320.00 2243.00 L 2340.00 2242.00 L 2400.00 2242.00 L 2420.00 2262.00 L 2440.00 2262.00 L 2460.00 2241.00 L 2520.28 2241.00 L 2574.00 2166.00 L 2566.05 2137.00 L 2560.00 2137.00 L 2540.00 2138.00 L 2460.00 2138.00 L 2440.00 2139.00 L 2360.00 2139.00 L 2340.00 2140.00 L 2260.00 2140.00 L 2240.00 2141.00 L 2160.00 2141.00 L 2140.00 2142.00 L 2060.00 2142.00 L 2040.00 2143.00 L 1960.00 2143.00 L 1940.00 2144.00 L 1860.00 2144.00 L 1840.00 2145.00 L 1820.00 2125.00 L 1800.00 2145.00 L 1780.00 2125.00 Z" />
<path id="csg562-049-13" fill="none" stroke="black" stroke-width="1" d="M 2460.00 2241.00 L 2440.00 2262.00 L 2420.00 2262.00 L 2400.00 2242.00 L 2340.00 2242.00 L 2320.00 2243.00 L 2240.00 2243.00 L 2220.00 2244.00 L 2140.00 2244.00 L 2120.00 2245.00 L 2020.00 2245.00 L 2000.00 2246.00 L 1920.00 2246.00 L 1900.00 2247.00 L 1820.00 2247.00 L 1800.00 2248.00 L 1700.00 2248.00 L 1680.00 2249.00 L 1600.00 2249.00 L 1580.00 2250.00 L 1500.00 2250.00 L 1480.00 2251.00 L 1380.00 2251.00 L 1360.00 2252.00 L 1280.00 2252.00 L 1260.00 2253.00 L 1180.00 2253.00 L 1160.00 2254.00 L 1060.00 2254.00 L 1040.00 2255.00 L 960.00 2255.00 L 940.00 2256.00 L 860.00 2256.00 L 840.00 2257.00 L 740.00 2257.00 L 720.00 2258.00 L 640.00 2258.00 L 620.00 2259.00 L 540.00 2259.00 L 520.00 2260.00 L 440.00 2260.00 L 421.86 2269.98 L 427.33 2372.97 L 440.00 2366.00 L 600.00 2366.00 L 620.00 2365.00 L 800.00 2365.00 L 820.00 2364.00 L 980.00 2364.00 L 1000.00 2363.00 L 1180.00 2363.00 L 1200.00 2362.00 L 1380.00 2362.00 L 1400.00 2381.00 L 1420.00 2381.00 L 1440.00 2361.00 L 1560.00 2361.00 L 1580.00 2360.00 L 1760.00 2360.00 L 1780.00 2359.00 L 1960.00 2359.00 L 1980.00 2358.00 L 2140.00 2358.00 L 2160.00 2357.00 L 2340.00 2357.00 L 2360.00 2356.00 L 2437.92 2356.00 L 2520.28 2241.00 Z" />
<path id="csg562-049-14" fill="none" stroke="black" stroke-width="1" d="M 2360.00 2356.00 L 2340.00 2357.00 L 2160.00 2357.00 L 2140.00 2358.00 L 1980.00 2358.00 L 1960.00 2359.00 L 1780.00 2359.00 L 1760.00 2360.00 L 1580.00 2360.00 L 1560.00 2361.00 L 1440.00 2361.00 L 1420.00 2381.00 L 1400.00 2381.00 L 1380.00 2362.00 L 1200.00 2362.00 L 1180.00 2363.00 L 1000.00 2363.00 L 980.00 2364.00 L 820.00 2364.00 L 800.00 2365.00 L 620.00 2365.00 L 600.00 2366.00 L 440.00 2366.00 L 427.33 2372.97 L 433.41 2487.62 L 440.00 2484.00 L 800.00 2484.00 L 820.00 2483.00 L 1200.00 2483.00 L 1220.00 2482.00 L 1600.00 2482.00 L 1620.00 2481.00 L 2000.00 2481.00 L 2020.00 2480.00 L 2400.00 2480.00 L 2420.00 2479.00 L 2559.86 2479.00 L 2535.00 2403.00 L 2415.00 2388.00 L 2437.92 2356.00 Z" />
<path id="csg562-049-15" fill="none" stroke="black" stroke-width="1" d="M 2420.00 2479.00 L 2400.00 2480.00 L 2020.00 2480.00 L 2000.00 2481.00 L 1620.00 2481.00 L 1600.00 2482.00 L 1220.00 2482.00 L 1200.00 2483.00 L 820.00 2483.00 L 800.00 2484.00 L 440.00 2484.00 L 433.41 2487.62 L 438.78 2588.67 L 440.00 2588.00 L 600.00 2588.00 L 620.00 2607.00 L 640.00 2587.00 L 780.00 2587.00 L 800.00 2586.00 L 980.00 2586.00 L 1000.00 2585.00 L 1160.00 2585.00 L 1180.00 2584.00 L 1320.00 2584.00 L 1340.00 2604.00 L 1360.00 2603.00 L 1380.00 2583.00 L 1540.00 2583.00 L 1560.00 2582.00 L 1720.00 2582.00 L 1740.00 2581.00 L 1840.00 2581.00 L 1860.00 2601.00 L 1880.00 2581.00 L 1920.00 2581.00 L 1940.00 2580.00 L 2100.00 2580.00 L 2120.00 2579.00 L 2280.00 2579.00 L 2300.00 2578.00 L 2480.00 2578.00 L 2500.00 2577.00 L 2591.92 2577.00 L 2559.86 2479.00 Z" />
<path id="csg562-049-16" fill="none" stroke="black" stroke-width="1" d="M 2500.00 2577.00 L 2480.00 2578.00 L 2300.00 2578.00 L 2280.00 2579.00 L 2120.00 2579.00 L 2100.00 2580.00 L 1940.00 2580.00 L 1920.00 2581.00 L 1880.00 2581.00 L 1860.00 2601.00 L 1840.00 2581.00 L 1740.00 2581.00 L 1720.00 2582.00 L 1560.00 2582.00 L 1540.00 2583.00 L 1380.00 2583.00 L 1360.00 2603.00 L 1340.00 2604.00 L 1320.00 2584.00 L 1180.00 2584.00 L 1160.00 2585.00 L 1000.00 2585.00 L 980.00 2586.00 L 800.00 2586.00 L 780.00 2587.00 L 640.00 2587.00 L 620.00 2607.00 L 600.00 2588.00 L 440.00 2588.00 L 438.78 2588.67 L 444.80 2702.00 L 580.00 2702.00 L 600.00 2701.00 L 760.00 2701.00 L 780.00 2700.00 L 860.00 2700.00 L 880.00 2720.00 L 900.00 2700.00 L 940.00 2700.00 L 960.00 2699.00 L 1120.00 2699.00 L 1140.00 2698.00 L 1300.00 2698.00 L 1320.00 2697.00 L 1480.00 2697.00 L 1500.00 2696.00 L 1540.00 2696.00 L 1560.00 2716.00 L 1580.00 2696.00 L 1660.00 2696.00 L 1680.00 2695.00 L 1840.00 2695.00 L 1860.00 2694.00 L 2020.00 2694.00 L 2040.00 2693.00 L 2200.00 2693.00 L 2220.00 2692.00 L 2360.00 2692.00 L 2380.00 2691.00 L 2400.00 2691.00 L 2420.00 2711.00 L 2440.00 2711.00 L 2460.00 2691.00 L 2540.00 2691.00 L 2560.00 2690.00 L 2628.88 2690.00 L 2591.92 2577.00 Z" />
<path id="csg562-049-17" fill="none" stroke="black" stroke-width="1" d="M 2560.00 2690.00 L 2540.00 2691.00 L 2460.00 2691.00 L 2440.00 2711.00 L 2420.00 2711.00 L 2400.00 2691.00 L 2380.00 2691.00 L 2360.00 2692.00 L 2220.00 2692.00 L 2200.00 2693.00 L 2040.00 2693.00 L 2020.00 2694.00 L 1860.00 2694.00 L 1840.00 2695.00 L 1680.00 2695.00 L 1660.00 2696.00 L 1580.00 2696.00 L 1560.00 2716.00 L 1540.00 2696.00 L 1500.00 2696.00 L 1480.00 2697.00 L 1320.00 2697.00 L 1300.00 2698.00 L 1140.00 2698.00 L 1120.00 2699.00 L 960.00 2699.00 L 940.00 2700.00 L 900.00 2700.00 L 880.00 2720.00 L 860.00 2700.00 L 780.00 2700.00 L 760.00 2701.00 L 600.00 2701.00 L 580.00 2702.00 L 444.80 2702.00 L 449.95 2799.00 L 700.00 2799.00 L 720.00 2798.00 L 980.00 2798.00 L 1000.00 2797.00 L 1260.00 2797.00 L 1280.00 2796.00 L 1540.00 2796.00 L 1560.00 2816.00 L 1580.00 2795.00 L 1840.00 2795.00 L 1860.00 2794.00 L 1980.00 2794.00 L 2000.00 2814.00 L 2020.00 2794.00 L 2120.00 2794.00 L 2140.00 2793.00 L 2420.00 2793.00 L 2440.00 2792.00 L 2603.38 2792.00 L 2640.00 2724.00 L 2628.88 2690.00 Z" />
<path id="csg562-049-18" fill="none" stroke="black" stroke-width="1" d="M 2440.00 2792.00 L 2420.00 2793.00 L 2140.00 2793.00 L 2120.00 2794.00 L 2020.00 2794.00 L 2000.00 2814.00 L 1980.00 2794.00 L 1860.00 2794.00 L 1840.00 2795.00 L 1580.00 2795.00 L 1560.00 2816.00 L 1540.00 2796.00 L 1280.00 2796.00 L 1260.00 2797.00 L 1000.00 2797.00 L 980.00 2798.00 L 720.00 2798.00 L 700.00 2799.00 L 449.95 2799.00 L 456.00 2913.00 L 455.26 2929.00 L 640.00 2929.00 L 660.00 2928.00 L 880.00 2928.00 L 900.00 2927.00 L 1100.00 2927.00 L 1120.00 2926.00 L 1340.00 2926.00 L 1360.00 2925.00 L 1560.00 2925.00 L 1580.00 2924.00 L 1800.00 2924.00 L 1820.00 2923.00 L 2020.00 2923.00 L 2040.00 2922.00 L 2260.00 2922.00 L 2280.00 2921.00 L 2480.00 2921.00 L 2500.00 2920.00 L 2592.80 2920.00 L 2577.00 2841.00 L 2603.38 2792.00 Z" />
<path id="csg562-049-19" fill="none" stroke="black" stroke-width="1" d="M 2500.00 2920.00 L 2480.00 2921.00 L 2280.00 2921.00 L 2260.00 2922.00 L 2040.00 2922.00 L 2020.00 2923.00 L 1820.00 2923.00 L 1800.00 2924.00 L 1580.00 2924.00 L 1560.00 2925.00 L 1360.00 2925.00 L 1340.00 2926.00 L 1120.00 2926.00 L 1100.00 2927.00 L 900.00 2927.00 L 880.00 2928.00 L 660.00 2928.00 L 640.00 2929.00 L 455.26 2929.00 L 449.89 3045.00 L 580.00 3045.00 L 600.00 3044.00 L 740.00 3044.00 L 760.00 3043.00 L 920.00 3043.00 L 940.00 3042.00 L 1080.00 3042.00 L 1100.00 3041.00 L 1260.00 3041.00 L 1280.00 3040.00 L 1420.00 3040.00 L 1440.00 3039.00 L 1600.00 3039.00 L 1620.00 3038.00 L 1760.00 3038.00 L 1780.00 3037.00 L 1940.00 3037.00 L 1960.00 3036.00 L 2100.00 3036.00 L 2120.00 3035.00 L 2260.00 3035.00 L 2280.00 3034.00 L 2440.00 3034.00 L 2460.00 3033.00 L 2600.00 3033.00 L 2615.25 3032.24 L 2592.80 2920.00 Z" />
<path id="csg562-049-20" fill="none" stroke="black" stroke-width="1" d="M 2615.25 3032.24 L 2600.00 3033.00 L 2460.00 3033.00 L 2440.00 3034.00 L 2280.00 3034.00 L 2260.00 3035.00 L 2120.00 3035.00 L 2100.00 3036.00 L 1960.00 3036.00 L 1940.00 3037.00 L 1780.00 3037.00 L 1760.00 3038.00 L 1620.00 3038.00 L 1600.00 3039.00 L 1440.00 3039.00 L 1420.00 3040.00 L 1280.00 3040.00 L 1260.00 3041.00 L 1100.00 3041.00 L 1080.00 3042.00 L 940.00 3042.00 L 920.00 3043.00 L 760.00 3043.00 L 740.00 3044.00 L 600.00 3044.00 L 580.00 3045.00 L 449.89 3045.00 L 445.03 3150.00 L 500.00 3150.00 L 520.00 3149.00 L 600.00 3149.00 L 620.00 3148.00 L 700.00 3148.00 L 720.00 3147.00 L 800.00 3147.00 L 820.00 3146.00 L 900.00 3146.00 L 920.00 3145.00 L 1000.00 3145.00 L 1020.00 3144.00 L 1080.00 3144.00 L 1100.00 3143.00 L 1180.00 3143.00 L 1200.00 3142.00 L 1240.00 3142.00 L 1249.50 3151.50 L 1269.80 3152.20 L 1280.00 3142.00 L 1300.00 3141.00 L 1347.00 3141.00 L 1401.00 3129.00 L 1830.00 3135.00 L 1864.08 3135.80 L 1880.00 3135.00 L 1960.00 3135.00 L 1980.00 3134.00 L 2060.00 3134.00 L 2080.00 3133.00 L 2160.00 3133.00 L 2180.00 3132.00 L 2260.00 3132.00 L 2280.00 3131.00 L 2320.00 3131.00 L 2335.81 3146.81 L 2363.38 3147.45 L 2380.00 3130.00 L 2440.00 3130.00 L 2460.00 3149.00 L 2480.00 3129.00 L 2540.00 3129.00 L 2560.00 3128.00 L 2607.03 3128.00 L 2622.00 3066.00 L 2615.25 3032.24 Z" />
<path id="csg562-049-21" fill="none" stroke="black" stroke-width="1" d="M 1200.00 3142.00 L 1180.00 3143.00 L 1100.00 3143.00 L 1080.00 3144.00 L 1020.00 3144.00 L 1000.00 3145.00 L 920.00 3145.00 L 900.00 3146.00 L 820.00 3146.00 L 800.00 3147.00 L 720.00 3147.00 L 700.00 3148.00 L 620.00 3148.00 L 600.00 3149.00 L 520.00 3149.00 L 500.00 3150.00 L 445.03 3150.00 L 441.00 3237.00 L 545.00 3243.00 L 600.00 3243.00 L 620.00 3242.00 L 700.00 3242.00 L 720.00 3241.00 L 800.00 3241.00 L 820.00 3240.00 L 840.00 3240.00 L 860.00 3254.00 L 880.00 3240.00 L 900.00 3240.00 L 903.03 3239.85 L 918.00 3165.00 L 1119.00 3147.00 L 1249.50 3151.50 L 1240.00 3142.00 Z" />
</svg>
