<?xml version="1.0" standalone="no"?>
<!DOCTYPE svg PUBLIC "-//W3C//DTD SVG 1.1//EN" "http://www.w3.org/Graphics/SVG/1.1/DTD/svg11.dtd">
<svg width="46.22222in" height="69.333336in" viewBox="0 0 3328 4992" xmlns="http://www.w3.org/2000/svg" version="1.1">
<path id="csg562-020-01" fill="none" stroke="black" stroke-width="1" d="M 2090.00 783.00 L 2070.00 803.00 L 2030.00 803.00 L 2010.00 802.00 L 1999.50 802.00 L 1872.00 832.00 L 1824.00 808.00 L 1548.00 830.00 L 1480.00 804.00 L 1208.00 842.00 L 1144.00 810.00 L 926.00 852.00 L 920.12 910.00 L 1050.00 910.00 L 1070.00 911.00 L 1210.00 911.00 L 1230.00 912.00 L 1370.00 912.00 L 1390.00 913.00 L 1530.00 913.00 L 1550.00 914.00 L 1690.00 914.00 L 1710.00 915.00 L 1850.00 915.00 L 1870.00 916.00 L 1990.00 916.00 L 2010.00 936.00 L 2030.00 916.00 L 2050.00 917.00 L 2190.00 917.00 L 2210.00 918.00 L 2350.00 918.00 L 2370.00 919.00 L 2510.00 919.00 L 2530.00 920.00 L 2670.00 920.00 L 2690.00 921.00 L 2830.00 921.00 L 2850.00 922.00 L 2953.73 922.00 L 2932.00 842.00 L 2516.00 842.00 L 2482.00 808.00 L 2174.00 834.00 L 2139.79 803.00 L 2130.00 803.00 L 2110.00 783.00 Z" />
<path id="csg562-020-02" fill="none" stroke="black" stroke-width="1" d="M 920.12 910.00 L 912.00 990.00 L 970.00 1018.00 L 970.00 1028.00 L 1270.00 1028.00 L 1290.00 1048.00 L 1310.00 1028.00 L 2330.00 1028.00 L 2350.00 1029.00 L 2570.00 1029.00 L 2590.00 1049.00 L 2610.00 1029.00 L 2910.00 1029.00 L 2930.00 1009.00 L 2970.00 1009.00 L 2973.98 1012.98 L 2976.00 1004.00 L 2953.73 922.00 L 2850.00 922.00 L 2830.00 921.00 L 2690.00 921.00 L 2670.00 920.00 L 2530.00 920.00 L 2510.00 919.00 L 2370.00 919.00 L 2350.00 918.00 L 2210.00 918.00 L 2190.00 917.00 L 2050.00 917.00 L 2030.00 916.00 L 2010.00 936.00 L 1990.00 916.00 L 1870.00 916.00 L 1850.00 915.00 L 1710.00 915.00 L 1690.00 914.00 L 1550.00 914.00 L 1530.00 913.00 L 1390.00 913.00 L 1370.00 912.00 L 1230.00 912.00 L 1210.00 911.00 L 1070.00 911.00 L 1050.00 910.00 Z" />
<path id="csg562-020-03" fill="none" stroke="black" stroke-width="1" d="M 2930.00 1009.00 L 2910.00 1029.00 L 2610.00 1029.00 L 2590.00 1049.00 L 2570.00 1029.00 L 2350.00 1029.00 L 2330.00 1028.00 L 1310.00 1028.00 L 1290.00 1048.00 L 1270.00 1028.00 L 970.00 1028.00 L 970.00 1114.00 L 922.00 1144.00 L 2310.00 1144.00 L 2330.00 1143.00 L 2963.01 1143.00 L 2954.00 1102.00 L 2973.98 1012.98 L 2970.00 1009.00 Z" />
<path id="csg562-020-04" fill="none" stroke="black" stroke-width="1" d="M 2330.00 1143.00 L 2310.00 1144.00 L 922.00 1144.00 L 906.00 1154.00 L 906.00 1261.20 L 910.00 1259.00 L 1430.00 1259.00 L 1450.00 1239.00 L 1470.00 1239.00 L 1490.00 1259.00 L 1630.00 1259.00 L 1650.00 1258.00 L 2390.00 1258.00 L 2410.00 1257.00 L 2550.00 1257.00 L 2570.00 1277.00 L 2590.00 1277.00 L 2610.00 1257.00 L 2988.07 1257.00 L 2963.01 1143.00 Z" />
<path id="csg562-020-05" fill="none" stroke="black" stroke-width="1" d="M 1450.00 1239.00 L 1430.00 1259.00 L 910.00 1259.00 L 906.00 1261.20 L 906.00 1375.20 L 910.00 1373.00 L 1130.00 1373.00 L 1150.00 1393.00 L 1170.00 1373.00 L 2530.00 1373.00 L 2550.00 1372.00 L 3009.30 1372.00 L 2994.00 1284.00 L 2988.07 1257.00 L 2610.00 1257.00 L 2590.00 1277.00 L 2570.00 1277.00 L 2550.00 1257.00 L 2410.00 1257.00 L 2390.00 1258.00 L 1650.00 1258.00 L 1630.00 1259.00 L 1490.00 1259.00 L 1470.00 1239.00 Z" />
<path id="csg562-020-06" fill="none" stroke="black" stroke-width="1" d="M 2550.00 1372.00 L 2530.00 1373.00 L 1170.00 1373.00 L 1150.00 1393.00 L 1130.00 1373.00 L 910.00 1373.00 L 906.00 1375.20 L 906.00 1480.00 L 910.00 1478.00 L 1250.00 1478.00 L 1270.00 1479.00 L 1630.00 1479.00 L 1650.00 1480.00 L 1870.00 1480.00 L 1890.00 1460.00 L 1910.00 1480.00 L 2010.00 1480.00 L 2030.00 1481.00 L 2050.00 1501.00 L 2070.00 1501.00 L 2090.00 1481.00 L 2390.00 1481.00 L 2410.00 1482.00 L 2770.00 1482.00 L 2790.00 1483.00 L 2970.00 1483.00 L 3026.00 1468.00 L 3009.30 1372.00 Z" />
<path id="csg562-020-07" fill="none" stroke="black" stroke-width="1" d="M 1890.00 1460.00 L 1870.00 1480.00 L 1650.00 1480.00 L 1630.00 1479.00 L 1270.00 1479.00 L 1250.00 1478.00 L 910.00 1478.00 L 906.00 1480.00 L 906.00 1560.00 L 904.05 1603.97 L 910.00 1601.00 L 1250.00 1601.00 L 1270.00 1602.00 L 1630.00 1602.00 L 1650.00 1603.00 L 2010.00 1603.00 L 2030.00 1604.00 L 2390.00 1604.00 L 2410.00 1605.00 L 2530.00 1605.00 L 2550.00 1585.00 L 2590.00 1585.00 L 2610.00 1605.00 L 2770.00 1605.00 L 2790.00 1606.00 L 3026.98 1606.00 L 2914.00 1498.00 L 2970.00 1483.00 L 2790.00 1483.00 L 2770.00 1482.00 L 2410.00 1482.00 L 2390.00 1481.00 L 2090.00 1481.00 L 2070.00 1501.00 L 2050.00 1501.00 L 2030.00 1481.00 L 2010.00 1480.00 L 1910.00 1480.00 L 1890.00 1460.00 Z" />
<path id="csg562-020-08" fill="none" stroke="black" stroke-width="1" d="M 2550.00 1585.00 L 2530.00 1605.00 L 2410.00 1605.00 L 2390.00 1604.00 L 2030.00 1604.00 L 2010.00 1603.00 L 1650.00 1603.00 L 1630.00 1602.00 L 1270.00 1602.00 L 1250.00 1601.00 L 910.00 1601.00 L 904.05 1603.97 L 899.18 1713.95 L 899.18 1713.95 L 910.00 1708.00 L 930.00 1728.00 L 950.00 1708.00 L 1290.00 1708.00 L 1310.00 1688.00 L 1330.00 1688.00 L 1350.00 1708.00 L 1870.00 1708.00 L 1890.00 1728.00 L 1910.00 1708.00 L 2470.00 1708.00 L 2490.00 1728.00 L 2510.00 1708.00 L 2810.00 1708.00 L 2830.00 1728.00 L 2850.00 1728.00 L 2870.00 1708.00 L 3004.29 1708.00 L 3050.00 1628.00 L 3026.98 1606.00 L 2790.00 1606.00 L 2770.00 1605.00 L 2610.00 1605.00 L 2590.00 1585.00 Z" />
<path id="csg562-020-09" fill="none" stroke="black" stroke-width="1" d="M 1310.00 1688.00 L 1290.00 1708.00 L 950.00 1708.00 L 930.00 1728.00 L 910.00 1708.00 L 899.18 1713.95 L 894.28 1824.65 L 910.00 1816.00 L 1190.00 1816.00 L 1210.00 1815.00 L 1450.00 1815.00 L 1470.00 1835.00 L 1490.00 1815.00 L 1510.00 1814.00 L 1790.00 1814.00 L 1810.00 1813.00 L 2110.00 1813.00 L 2130.00 1812.00 L 2170.00 1812.00 L 2190.00 1832.00 L 2250.00 1832.00 L 2270.00 1812.00 L 2410.00 1812.00 L 2430.00 1811.00 L 2590.00 1811.00 L 2610.00 1831.00 L 2630.00 1811.00 L 2710.00 1811.00 L 2730.00 1810.00 L 2990.63 1810.00 L 2986.00 1740.00 L 3004.29 1708.00 L 2870.00 1708.00 L 2850.00 1728.00 L 2830.00 1728.00 L 2810.00 1708.00 L 2510.00 1708.00 L 2490.00 1728.00 L 2470.00 1708.00 L 1910.00 1708.00 L 1890.00 1728.00 L 1870.00 1708.00 L 1350.00 1708.00 L 1330.00 1688.00 Z" />
<path id="csg562-020-10" fill="none" stroke="black" stroke-width="1" d="M 2730.00 1810.00 L 2710.00 1811.00 L 2630.00 1811.00 L 2610.00 1831.00 L 2590.00 1811.00 L 2430.00 1811.00 L 2410.00 1812.00 L 2270.00 1812.00 L 2250.00 1832.00 L 2190.00 1832.00 L 2170.00 1812.00 L 2130.00 1812.00 L 2110.00 1813.00 L 1810.00 1813.00 L 1790.00 1814.00 L 1510.00 1814.00 L 1490.00 1815.00 L 1470.00 1835.00 L 1450.00 1815.00 L 1210.00 1815.00 L 1190.00 1816.00 L 910.00 1816.00 L 894.28 1824.65 L 892.00 1876.00 L 891.51 1930.24 L 910.00 1921.00 L 1290.00 1921.00 L 1310.00 1922.00 L 1690.00 1922.00 L 1710.00 1923.00 L 2090.00 1923.00 L 2110.00 1924.00 L 2490.00 1924.00 L 2510.00 1925.00 L 2590.00 1925.00 L 2610.00 1905.00 L 2630.00 1925.00 L 2890.00 1925.00 L 2910.00 1926.00 L 2998.30 1926.00 L 2990.63 1810.00 Z" />
<path id="csg562-020-11" fill="none" stroke="black" stroke-width="1" d="M 2610.00 1905.00 L 2590.00 1925.00 L 2510.00 1925.00 L 2490.00 1924.00 L 2110.00 1924.00 L 2090.00 1923.00 L 1710.00 1923.00 L 1690.00 1922.00 L 1310.00 1922.00 L 1290.00 1921.00 L 910.00 1921.00 L 891.51 1930.24 L 890.54 2037.73 L 890.54 2037.73 L 910.00 2028.00 L 1110.00 2028.00 L 1130.00 2029.00 L 1330.00 2029.00 L 1350.00 2030.00 L 1550.00 2030.00 L 1570.00 2031.00 L 1770.00 2031.00 L 1790.00 2032.00 L 1990.00 2032.00 L 2010.00 2033.00 L 2210.00 2033.00 L 2230.00 2034.00 L 2430.00 2034.00 L 2450.00 2035.00 L 2670.00 2035.00 L 2690.00 2036.00 L 2890.00 2036.00 L 2910.00 2037.00 L 2967.86 2037.00 L 3002.00 1982.00 L 2998.30 1926.00 L 2910.00 1926.00 L 2890.00 1925.00 L 2630.00 1925.00 L 2610.00 1905.00 Z" />
<path id="csg562-020-12" fill="none" stroke="black" stroke-width="1" d="M 910.00 2028.00 L 890.54 2037.73 L 890.00 2098.00 L 906.00 2140.00 L 998.00 2140.00 L 997.52 2151.00 L 1370.00 2151.00 L 1390.00 2152.00 L 1870.00 2152.00 L 1890.00 2153.00 L 2370.00 2153.00 L 2390.00 2154.00 L 2870.00 2154.00 L 2890.00 2155.00 L 3013.64 2155.00 L 2966.00 2040.00 L 2967.86 2037.00 L 2910.00 2037.00 L 2890.00 2036.00 L 2690.00 2036.00 L 2670.00 2035.00 L 2450.00 2035.00 L 2430.00 2034.00 L 2230.00 2034.00 L 2210.00 2033.00 L 2010.00 2033.00 L 1990.00 2032.00 L 1790.00 2032.00 L 1770.00 2031.00 L 1570.00 2031.00 L 1550.00 2030.00 L 1350.00 2030.00 L 1330.00 2029.00 L 1130.00 2029.00 L 1110.00 2028.00 Z" />
<path id="csg562-020-13" fill="none" stroke="black" stroke-width="1" d="M 997.52 2151.00 L 992.48 2267.00 L 1370.00 2267.00 L 1390.00 2268.00 L 1870.00 2268.00 L 1890.00 2269.00 L 2370.00 2269.00 L 2390.00 2270.00 L 2870.00 2270.00 L 2890.00 2271.00 L 3024.00 2271.00 L 3024.00 2180.00 L 3013.64 2155.00 L 2890.00 2155.00 L 2870.00 2154.00 L 2390.00 2154.00 L 2370.00 2153.00 L 1890.00 2153.00 L 1870.00 2152.00 L 1390.00 2152.00 L 1370.00 2151.00 Z" />
<path id="csg562-020-14" fill="none" stroke="black" stroke-width="1" d="M 992.48 2267.00 L 992.00 2278.00 L 910.00 2300.00 L 908.56 2368.72 L 910.00 2368.00 L 1350.00 2368.00 L 1370.00 2388.00 L 1390.00 2388.00 L 1410.00 2368.00 L 1430.00 2368.00 L 1450.00 2369.00 L 1970.00 2369.00 L 1990.00 2370.00 L 2370.00 2370.00 L 2390.00 2390.00 L 2410.00 2390.00 L 2430.00 2370.00 L 2490.00 2370.00 L 2510.00 2390.00 L 2530.00 2391.00 L 2570.00 2391.00 L 2590.00 2371.00 L 3024.00 2371.00 L 3024.00 2271.00 L 2890.00 2271.00 L 2870.00 2270.00 L 2390.00 2270.00 L 2370.00 2269.00 L 1890.00 2269.00 L 1870.00 2268.00 L 1390.00 2268.00 L 1370.00 2267.00 Z" />
<path id="csg562-020-15" fill="none" stroke="black" stroke-width="1" d="M 910.00 2368.00 L 908.56 2368.72 L 906.17 2483.10 L 910.00 2481.00 L 1590.00 2481.00 L 1610.00 2490.00 L 1630.00 2488.00 L 1650.00 2486.00 L 1670.00 2480.00 L 2390.00 2480.00 L 2410.00 2479.00 L 2550.00 2479.00 L 2570.00 2499.00 L 2590.00 2479.00 L 2650.00 2479.00 L 2670.00 2499.00 L 2690.00 2499.00 L 2710.00 2479.00 L 3006.94 2479.00 L 3024.00 2374.00 L 3024.00 2371.00 L 2590.00 2371.00 L 2570.00 2391.00 L 2530.00 2391.00 L 2510.00 2390.00 L 2490.00 2370.00 L 2430.00 2370.00 L 2410.00 2390.00 L 2390.00 2390.00 L 2370.00 2370.00 L 1990.00 2370.00 L 1970.00 2369.00 L 1450.00 2369.00 L 1430.00 2368.00 L 1410.00 2368.00 L 1390.00 2388.00 L 1370.00 2388.00 L 1350.00 2368.00 Z" />
<path id="csg562-020-16" fill="none" stroke="black" stroke-width="1" d="M 2410.00 2479.00 L 2390.00 2480.00 L 1670.00 2480.00 L 1650.00 2486.00 L 1630.00 2488.00 L 1610.00 2490.00 L 1590.00 2481.00 L 910.00 2481.00 L 906.17 2483.10 L 903.62 2605.51 L 910.00 2602.00 L 1770.00 2602.00 L 1790.00 2622.00 L 1810.00 2562.00 L 1830.00 2582.00 L 1850.00 2602.00 L 2982.89 2602.00 L 2998.00 2534.00 L 3006.94 2479.00 L 2710.00 2479.00 L 2690.00 2499.00 L 2670.00 2499.00 L 2650.00 2479.00 L 2590.00 2479.00 L 2570.00 2499.00 L 2550.00 2479.00 Z" />
<path id="csg562-020-17" fill="none" stroke="black" stroke-width="1" d="M 1810.00 2562.00 L 1790.00 2622.00 L 1770.00 2602.00 L 910.00 2602.00 L 903.62 2605.51 L 901.47 2708.27 L 910.00 2704.00 L 1750.00 2704.00 L 1770.00 2724.00 L 1790.00 2704.00 L 2910.00 2704.00 L 2930.00 2724.00 L 2950.00 2704.00 L 2960.22 2704.00 L 2982.89 2602.00 L 1850.00 2602.00 L 1830.00 2582.00 L 1810.00 2562.00 Z" />
<path id="csg562-020-18" fill="none" stroke="black" stroke-width="1" d="M 910.00 2704.00 L 901.47 2708.27 L 899.23 2815.38 L 910.00 2810.00 L 1470.00 2810.00 L 1490.00 2830.00 L 1510.00 2810.00 L 2250.00 2810.00 L 2270.00 2830.00 L 2290.00 2831.00 L 2310.00 2831.00 L 2330.00 2811.00 L 2490.00 2811.00 L 2510.00 2831.00 L 2530.00 2831.00 L 2550.00 2811.00 L 2953.01 2811.00 L 2950.00 2750.00 L 2960.22 2704.00 L 2950.00 2704.00 L 2930.00 2724.00 L 2910.00 2704.00 L 1790.00 2704.00 L 1770.00 2724.00 L 1750.00 2704.00 Z" />
<path id="csg562-020-19" fill="none" stroke="black" stroke-width="1" d="M 910.00 2810.00 L 899.23 2815.38 L 896.89 2927.56 L 896.89 2927.56 L 910.00 2921.00 L 1290.00 2921.00 L 1310.00 2941.00 L 1330.00 2921.00 L 1390.00 2921.00 L 1410.00 2922.00 L 1690.00 2922.00 L 1710.00 2942.00 L 1730.00 2942.00 L 1750.00 2922.00 L 1890.00 2922.00 L 1910.00 2923.00 L 2390.00 2923.00 L 2410.00 2924.00 L 2742.00 2924.00 L 2958.00 2912.00 L 2953.01 2811.00 L 2550.00 2811.00 L 2530.00 2831.00 L 2510.00 2831.00 L 2490.00 2811.00 L 2330.00 2811.00 L 2310.00 2831.00 L 2290.00 2831.00 L 2270.00 2830.00 L 2250.00 2810.00 L 1510.00 2810.00 L 1490.00 2830.00 L 1470.00 2810.00 Z" />
<path id="csg562-020-20" fill="none" stroke="black" stroke-width="1" d="M 910.00 2921.00 L 896.89 2927.56 L 896.00 2970.00 L 926.00 3022.00 L 999.50 3031.00 L 1590.00 3031.00 L 1610.00 3032.00 L 2310.00 3032.00 L 2330.00 3033.00 L 2611.86 3033.00 L 2598.00 2932.00 L 2742.00 2924.00 L 2410.00 2924.00 L 2390.00 2923.00 L 1910.00 2923.00 L 1890.00 2922.00 L 1750.00 2922.00 L 1730.00 2942.00 L 1710.00 2942.00 L 1690.00 2922.00 L 1410.00 2922.00 L 1390.00 2921.00 L 1330.00 2921.00 L 1310.00 2941.00 L 1290.00 2921.00 Z" />
<path id="csg562-020-21" fill="none" stroke="black" stroke-width="1" d="M 999.50 3031.00 L 1024.00 3034.00 L 966.00 3084.00 L 986.00 3144.00 L 975.20 3147.00 L 1510.00 3147.00 L 1521.41 3158.41 L 1560.82 3156.18 L 1570.00 3147.00 L 1770.25 3147.00 L 2114.00 3132.00 L 2210.00 3146.00 L 2344.00 3138.00 L 2884.00 3130.00 L 2890.00 3070.00 L 2612.00 3034.00 L 2611.86 3033.00 L 2330.00 3033.00 L 2310.00 3032.00 L 1610.00 3032.00 L 1590.00 3031.00 Z" />
<path id="csg562-020-22" fill="none" stroke="black" stroke-width="1" d="M 975.20 3147.00 L 914.00 3164.00 L 909.41 3248.29 L 910.00 3248.00 L 1290.00 3248.00 L 1310.00 3268.00 L 1319.13 3258.87 L 1352.00 3168.00 L 1521.41 3158.41 L 1510.00 3147.00 Z" />
<path id="csg562-020-23" fill="none" stroke="black" stroke-width="1" d="M 910.00 3248.00 L 909.41 3248.29 L 903.07 3364.81 L 910.00 3361.00 L 930.00 3361.00 L 950.00 3381.00 L 970.00 3361.00 L 1350.00 3361.00 L 1370.00 3360.00 L 1830.00 3360.00 L 1850.00 3359.00 L 2290.00 3359.00 L 2310.00 3358.00 L 2770.00 3358.00 L 2790.00 3357.00 L 2946.63 3357.00 L 2944.00 3278.00 L 2846.00 3256.00 L 2582.00 3276.00 L 2529.11 3248.00 L 2464.86 3248.00 L 2342.00 3268.00 L 1946.00 3272.00 L 1318.00 3262.00 L 1319.13 3258.87 L 1310.00 3268.00 L 1290.00 3248.00 Z" />
<path id="csg562-020-24" fill="none" stroke="black" stroke-width="1" d="M 2790.00 3357.00 L 2770.00 3358.00 L 2310.00 3358.00 L 2290.00 3359.00 L 1850.00 3359.00 L 1830.00 3360.00 L 1370.00 3360.00 L 1350.00 3361.00 L 970.00 3361.00 L 950.00 3381.00 L 930.00 3361.00 L 910.00 3361.00 L 903.07 3364.81 L 898.00 3458.00 L 907.66 3458.17 L 910.00 3457.00 L 1250.00 3457.00 L 1270.00 3456.00 L 1430.00 3456.00 L 1450.00 3467.00 L 1470.00 3456.00 L 1630.00 3456.00 L 1650.00 3455.00 L 2010.00 3455.00 L 2030.00 3454.00 L 2390.00 3454.00 L 2410.00 3453.00 L 2770.00 3453.00 L 2790.00 3452.00 L 2949.80 3452.00 L 2946.63 3357.00 Z" />
</svg>
