<?xml version="1.0" standalone="no"?>
<!DOCTYPE svg PUBLIC "-//W3C//DTD SVG 1.1//EN" "http://www.w3.org/Graphics/SVG/1.1/DTD/svg11.dtd">
<svg width="46.22222in" height="69.333336in" viewBox="0 0 3328 4992" xmlns="http://www.w3.org/2000/svg" version="1.1">
<path id="csg562-044-01" fill="none" stroke="black" stroke-width="1" d="M 1581.00 846.00 L 1326.00 876.00 L 873.00 879.00 L 876.11 975.44 L 881.00 973.00 L 1001.00 973.00 L 1021.00 974.00 L 1161.00 974.00 L 1181.00 975.00 L 1321.00 975.00 L 1341.00 976.00 L 1461.00 976.00 L 1481.00 977.00 L 1621.00 977.00 L 1641.00 978.00 L 1781.00 978.00 L 1801.00 979.00 L 1921.00 979.00 L 1941.00 980.00 L 2081.00 980.00 L 2101.00 981.00 L 2241.00 981.00 L 2261.00 982.00 L 2381.00 982.00 L 2401.00 983.00 L 2541.00 983.00 L 2561.00 984.00 L 2701.00 984.00 L 2721.00 985.00 L 2841.00 985.00 L 2861.00 986.00 L 2977.77 986.00 L 2943.00 879.00 L 2865.00 873.00 L 2280.00 882.00 L 1767.00 882.00 L 1654.50 847.00 L 1641.00 847.00 L 1621.00 846.00 Z" />
<path id="csg562-044-02" fill="none" stroke="black" stroke-width="1" d="M 881.00 973.00 L 876.11 975.44 L 879.73 1087.63 L 881.00 1087.00 L 1061.00 1087.00 L 1081.00 1088.00 L 1261.00 1088.00 L 1281.00 1089.00 L 1481.00 1089.00 L 1501.00 1090.00 L 1681.00 1090.00 L 1701.00 1091.00 L 1881.00 1091.00 L 1901.00 1092.00 L 1921.00 1112.00 L 1941.00 1092.00 L 2101.00 1092.00 L 2121.00 1093.00 L 2301.00 1093.00 L 2321.00 1094.00 L 2521.00 1094.00 L 2541.00 1095.00 L 2721.00 1095.00 L 2741.00 1096.00 L 2921.00 1096.00 L 2941.00 1097.00 L 2979.28 1097.00 L 2982.00 999.00 L 2977.77 986.00 L 2861.00 986.00 L 2841.00 985.00 L 2721.00 985.00 L 2701.00 984.00 L 2561.00 984.00 L 2541.00 983.00 L 2401.00 983.00 L 2381.00 982.00 L 2261.00 982.00 L 2241.00 981.00 L 2101.00 981.00 L 2081.00 980.00 L 1941.00 980.00 L 1921.00 979.00 L 1801.00 979.00 L 1781.00 978.00 L 1641.00 978.00 L 1621.00 977.00 L 1481.00 977.00 L 1461.00 976.00 L 1341.00 976.00 L 1321.00 975.00 L 1181.00 975.00 L 1161.00 974.00 L 1021.00 974.00 L 1001.00 973.00 Z" />
<path id="csg562-044-03" fill="none" stroke="black" stroke-width="1" d="M 881.00 1087.00 L 879.73 1087.63 L 882.00 1158.00 L 874.49 1206.25 L 881.00 1203.00 L 1161.00 1203.00 L 1181.00 1204.00 L 1481.00 1204.00 L 1501.00 1205.00 L 1781.00 1205.00 L 1801.00 1206.00 L 2101.00 1206.00 L 2121.00 1207.00 L 2321.00 1207.00 L 2341.00 1187.00 L 2361.00 1207.00 L 2401.00 1207.00 L 2421.00 1208.00 L 2721.00 1208.00 L 2741.00 1209.00 L 2976.17 1209.00 L 2979.28 1097.00 L 2941.00 1097.00 L 2921.00 1096.00 L 2741.00 1096.00 L 2721.00 1095.00 L 2541.00 1095.00 L 2521.00 1094.00 L 2321.00 1094.00 L 2301.00 1093.00 L 2121.00 1093.00 L 2101.00 1092.00 L 1941.00 1092.00 L 1921.00 1112.00 L 1901.00 1092.00 L 1881.00 1091.00 L 1701.00 1091.00 L 1681.00 1090.00 L 1501.00 1090.00 L 1481.00 1089.00 L 1281.00 1089.00 L 1261.00 1088.00 L 1081.00 1088.00 L 1061.00 1087.00 Z" />
<path id="csg562-044-04" fill="none" stroke="black" stroke-width="1" d="M 2341.00 1187.00 L 2321.00 1207.00 L 2121.00 1207.00 L 2101.00 1206.00 L 1801.00 1206.00 L 1781.00 1205.00 L 1501.00 1205.00 L 1481.00 1204.00 L 1181.00 1204.00 L 1161.00 1203.00 L 881.00 1203.00 L 874.49 1206.25 L 861.00 1293.00 L 862.69 1317.15 L 881.00 1308.00 L 1161.00 1308.00 L 1181.00 1309.00 L 1481.00 1309.00 L 1501.00 1310.00 L 1801.00 1310.00 L 1821.00 1311.00 L 2101.00 1311.00 L 2121.00 1312.00 L 2421.00 1312.00 L 2441.00 1313.00 L 2741.00 1313.00 L 2761.00 1314.00 L 2973.25 1314.00 L 2976.17 1209.00 L 2741.00 1209.00 L 2721.00 1208.00 L 2421.00 1208.00 L 2401.00 1207.00 L 2361.00 1207.00 L 2341.00 1187.00 Z" />
<path id="csg562-044-05" fill="none" stroke="black" stroke-width="1" d="M 881.00 1308.00 L 862.69 1317.15 L 870.06 1422.47 L 881.00 1417.00 L 1261.00 1417.00 L 1281.00 1437.00 L 1301.00 1417.00 L 1321.00 1418.00 L 1741.00 1418.00 L 1761.00 1419.00 L 2181.00 1419.00 L 2201.00 1420.00 L 2621.00 1420.00 L 2641.00 1421.00 L 3005.28 1421.00 L 2973.00 1323.00 L 2973.25 1314.00 L 2761.00 1314.00 L 2741.00 1313.00 L 2441.00 1313.00 L 2421.00 1312.00 L 2121.00 1312.00 L 2101.00 1311.00 L 1821.00 1311.00 L 1801.00 1310.00 L 1501.00 1310.00 L 1481.00 1309.00 L 1181.00 1309.00 L 1161.00 1308.00 Z" />
<path id="csg562-044-06" fill="none" stroke="black" stroke-width="1" d="M 881.00 1417.00 L 870.06 1422.47 L 877.43 1527.78 L 881.00 1526.00 L 1961.00 1526.00 L 1981.00 1527.00 L 2021.00 1527.00 L 2041.00 1547.00 L 2061.00 1527.00 L 3040.20 1527.00 L 3005.28 1421.00 L 2641.00 1421.00 L 2621.00 1420.00 L 2201.00 1420.00 L 2181.00 1419.00 L 1761.00 1419.00 L 1741.00 1418.00 L 1321.00 1418.00 L 1301.00 1417.00 L 1281.00 1437.00 L 1261.00 1417.00 Z" />
<path id="csg562-044-07" fill="none" stroke="black" stroke-width="1" d="M 881.00 1526.00 L 877.43 1527.78 L 882.00 1593.00 L 921.00 1635.00 L 1023.00 1629.00 L 1209.00 1635.00 L 1566.00 1635.00 L 1677.00 1637.00 L 1861.00 1637.00 L 1866.70 1640.42 L 1894.47 1640.92 L 1901.00 1637.00 L 1909.40 1637.00 L 1938.00 1626.00 L 2008.71 1637.00 L 2381.00 1637.00 L 2401.00 1636.00 L 3032.83 1636.00 L 3057.00 1578.00 L 3040.20 1527.00 L 2061.00 1527.00 L 2041.00 1547.00 L 2021.00 1527.00 L 1981.00 1527.00 L 1961.00 1526.00 Z" />
<path id="csg562-044-08" fill="none" stroke="black" stroke-width="1" d="M 1368.00 1764.00 L 1098.00 1770.00 L 1108.74 1872.00 L 2215.00 1872.00 L 2235.00 1873.00 L 2943.71 1873.00 L 2871.00 1770.00 L 2813.86 1766.00 L 2635.00 1766.00 L 2615.00 1765.00 L 2395.00 1765.00 L 2375.00 1764.00 Z" />
<path id="csg562-044-09" fill="none" stroke="black" stroke-width="1" d="M 1108.74 1872.00 L 1110.00 1884.00 L 900.00 1908.00 L 898.65 1982.00 L 1615.00 1982.00 L 1635.00 1981.00 L 2375.00 1981.00 L 2395.00 1980.00 L 2982.24 1980.00 L 2979.00 1923.00 L 2943.71 1873.00 L 2235.00 1873.00 L 2215.00 1872.00 Z" />
<path id="csg562-044-10" fill="none" stroke="black" stroke-width="1" d="M 2395.00 1980.00 L 2375.00 1981.00 L 1635.00 1981.00 L 1615.00 1982.00 L 898.65 1982.00 L 896.73 2088.00 L 1135.00 2088.00 L 1155.00 2108.00 L 1175.00 2088.00 L 1375.00 2088.00 L 1395.00 2089.00 L 1895.00 2089.00 L 1915.00 2090.00 L 2235.00 2090.00 L 2255.00 2110.00 L 2275.00 2090.00 L 2415.00 2090.00 L 2435.00 2091.00 L 2935.00 2091.00 L 2955.00 2092.00 L 2988.60 2092.00 L 2982.24 1980.00 Z" />
<path id="csg562-044-11" fill="none" stroke="black" stroke-width="1" d="M 896.73 2088.00 L 894.51 2210.00 L 935.00 2210.00 L 955.00 2230.00 L 975.00 2210.00 L 1155.00 2210.00 L 1175.00 2211.00 L 1475.00 2211.00 L 1495.00 2212.00 L 1735.00 2212.00 L 1755.00 2232.00 L 1775.00 2212.00 L 1795.00 2212.00 L 1815.00 2213.00 L 2115.00 2213.00 L 2135.00 2214.00 L 2435.00 2214.00 L 2455.00 2215.00 L 2735.00 2215.00 L 2755.00 2216.00 L 2861.24 2216.00 L 2865.00 2202.00 L 2994.00 2187.00 L 2988.60 2092.00 L 2955.00 2092.00 L 2935.00 2091.00 L 2435.00 2091.00 L 2415.00 2090.00 L 2275.00 2090.00 L 2255.00 2110.00 L 2235.00 2090.00 L 1915.00 2090.00 L 1895.00 2089.00 L 1395.00 2089.00 L 1375.00 2088.00 L 1175.00 2088.00 L 1155.00 2108.00 L 1135.00 2088.00 Z" />
<path id="csg562-044-12" fill="none" stroke="black" stroke-width="1" d="M 894.51 2210.00 L 892.62 2314.00 L 2035.00 2314.00 L 2055.00 2294.00 L 2075.00 2314.00 L 2475.00 2314.00 L 2495.00 2335.00 L 2515.00 2315.00 L 2834.68 2315.00 L 2861.24 2216.00 L 2755.00 2216.00 L 2735.00 2215.00 L 2455.00 2215.00 L 2435.00 2214.00 L 2135.00 2214.00 L 2115.00 2213.00 L 1815.00 2213.00 L 1795.00 2212.00 L 1775.00 2212.00 L 1755.00 2232.00 L 1735.00 2212.00 L 1495.00 2212.00 L 1475.00 2211.00 L 1175.00 2211.00 L 1155.00 2210.00 L 975.00 2210.00 L 955.00 2230.00 L 935.00 2210.00 Z" />
<path id="csg562-044-13" fill="none" stroke="black" stroke-width="1" d="M 2055.00 2294.00 L 2035.00 2314.00 L 892.62 2314.00 L 891.00 2403.00 L 888.57 2430.00 L 1235.00 2430.00 L 1255.00 2431.00 L 1615.00 2431.00 L 1635.00 2432.00 L 1995.00 2432.00 L 2015.00 2433.00 L 2375.00 2433.00 L 2395.00 2434.00 L 2755.00 2434.00 L 2775.00 2435.00 L 2996.00 2435.00 L 2982.00 2325.00 L 2832.00 2325.00 L 2834.68 2315.00 L 2515.00 2315.00 L 2495.00 2335.00 L 2475.00 2314.00 L 2075.00 2314.00 L 2055.00 2294.00 Z" />
<path id="csg562-044-14" fill="none" stroke="black" stroke-width="1" d="M 888.57 2430.00 L 878.29 2544.00 L 1015.00 2544.00 L 1035.00 2545.00 L 1175.00 2545.00 L 1195.00 2546.00 L 1335.00 2546.00 L 1355.00 2547.00 L 1495.00 2547.00 L 1515.00 2548.00 L 1655.00 2548.00 L 1675.00 2549.00 L 1815.00 2549.00 L 1835.00 2550.00 L 1975.00 2550.00 L 1995.00 2551.00 L 2135.00 2551.00 L 2155.00 2552.00 L 2295.00 2552.00 L 2315.00 2553.00 L 2355.00 2553.00 L 2375.00 2533.00 L 2395.00 2533.00 L 2415.00 2553.00 L 2455.00 2553.00 L 2475.00 2554.00 L 2615.00 2554.00 L 2635.00 2555.00 L 2775.00 2555.00 L 2795.00 2556.00 L 2935.00 2556.00 L 2955.00 2557.00 L 3011.53 2557.00 L 2996.00 2435.00 L 2775.00 2435.00 L 2755.00 2434.00 L 2395.00 2434.00 L 2375.00 2433.00 L 2015.00 2433.00 L 1995.00 2432.00 L 1635.00 2432.00 L 1615.00 2431.00 L 1255.00 2431.00 L 1235.00 2430.00 Z" />
<path id="csg562-044-15" fill="none" stroke="black" stroke-width="1" d="M 2375.00 2533.00 L 2355.00 2553.00 L 2315.00 2553.00 L 2295.00 2552.00 L 2155.00 2552.00 L 2135.00 2551.00 L 1995.00 2551.00 L 1975.00 2550.00 L 1835.00 2550.00 L 1815.00 2549.00 L 1675.00 2549.00 L 1655.00 2548.00 L 1515.00 2548.00 L 1495.00 2547.00 L 1355.00 2547.00 L 1335.00 2546.00 L 1195.00 2546.00 L 1175.00 2545.00 L 1035.00 2545.00 L 1015.00 2544.00 L 878.29 2544.00 L 868.43 2653.28 L 875.00 2650.00 L 1015.00 2650.00 L 1035.00 2651.00 L 1195.00 2651.00 L 1215.00 2652.00 L 1375.00 2652.00 L 1395.00 2653.00 L 1555.00 2653.00 L 1575.00 2654.00 L 1735.00 2654.00 L 1755.00 2655.00 L 1915.00 2655.00 L 1935.00 2656.00 L 2095.00 2656.00 L 2115.00 2657.00 L 2275.00 2657.00 L 2295.00 2658.00 L 2455.00 2658.00 L 2475.00 2659.00 L 2635.00 2659.00 L 2655.00 2660.00 L 2815.00 2660.00 L 2835.00 2661.00 L 2995.00 2661.00 L 3015.00 2662.00 L 3022.69 2662.00 L 3024.00 2655.00 L 3011.53 2557.00 L 2955.00 2557.00 L 2935.00 2556.00 L 2795.00 2556.00 L 2775.00 2555.00 L 2635.00 2555.00 L 2615.00 2554.00 L 2475.00 2554.00 L 2455.00 2553.00 L 2415.00 2553.00 L 2395.00 2533.00 Z" />
<path id="csg562-044-16" fill="none" stroke="black" stroke-width="1" d="M 875.00 2650.00 L 868.43 2653.28 L 858.05 2768.42 L 875.00 2743.00 L 895.00 2723.00 L 915.00 2743.00 L 935.00 2763.00 L 1215.00 2763.00 L 1235.00 2764.00 L 1575.00 2764.00 L 1595.00 2765.00 L 1935.00 2765.00 L 1955.00 2745.00 L 1975.00 2746.00 L 1995.00 2766.00 L 2315.00 2766.00 L 2335.00 2767.00 L 2695.00 2767.00 L 2715.00 2768.00 L 3002.91 2768.00 L 3022.69 2662.00 L 3015.00 2662.00 L 2995.00 2661.00 L 2835.00 2661.00 L 2815.00 2660.00 L 2655.00 2660.00 L 2635.00 2659.00 L 2475.00 2659.00 L 2455.00 2658.00 L 2295.00 2658.00 L 2275.00 2657.00 L 2115.00 2657.00 L 2095.00 2656.00 L 1935.00 2656.00 L 1915.00 2655.00 L 1755.00 2655.00 L 1735.00 2654.00 L 1575.00 2654.00 L 1555.00 2653.00 L 1395.00 2653.00 L 1375.00 2652.00 L 1215.00 2652.00 L 1195.00 2651.00 L 1035.00 2651.00 L 1015.00 2650.00 Z" />
<path id="csg562-044-17" fill="none" stroke="black" stroke-width="1" d="M 895.00 2723.00 L 875.00 2743.00 L 858.05 2768.42 L 858.00 2769.00 L 864.54 2877.23 L 875.00 2872.00 L 1035.00 2872.00 L 1055.00 2873.00 L 1235.00 2873.00 L 1255.00 2874.00 L 1415.00 2874.00 L 1435.00 2875.00 L 1615.00 2875.00 L 1635.00 2876.00 L 1795.00 2876.00 L 1815.00 2877.00 L 1995.00 2877.00 L 2015.00 2878.00 L 2175.00 2878.00 L 2195.00 2879.00 L 2375.00 2879.00 L 2395.00 2880.00 L 2555.00 2880.00 L 2575.00 2881.00 L 2755.00 2881.00 L 2775.00 2882.00 L 2935.00 2882.00 L 2955.00 2883.00 L 2981.44 2883.00 L 3002.91 2768.00 L 2715.00 2768.00 L 2695.00 2767.00 L 2335.00 2767.00 L 2315.00 2766.00 L 1995.00 2766.00 L 1975.00 2746.00 L 1955.00 2745.00 L 1935.00 2765.00 L 1595.00 2765.00 L 1575.00 2764.00 L 1235.00 2764.00 L 1215.00 2763.00 L 935.00 2763.00 L 915.00 2743.00 L 895.00 2723.00 Z" />
<path id="csg562-044-18" fill="none" stroke="black" stroke-width="1" d="M 875.00 2872.00 L 864.54 2877.23 L 871.29 2988.86 L 875.00 2987.00 L 1115.00 2987.00 L 1135.00 2988.00 L 1375.00 2988.00 L 1395.00 2989.00 L 1635.00 2989.00 L 1655.00 2990.00 L 1915.00 2990.00 L 1935.00 2991.00 L 2175.00 2991.00 L 2195.00 2992.00 L 2435.00 2992.00 L 2455.00 2993.00 L 2695.00 2993.00 L 2715.00 2994.00 L 2960.72 2994.00 L 2981.44 2883.00 L 2955.00 2883.00 L 2935.00 2882.00 L 2775.00 2882.00 L 2755.00 2881.00 L 2575.00 2881.00 L 2555.00 2880.00 L 2395.00 2880.00 L 2375.00 2879.00 L 2195.00 2879.00 L 2175.00 2878.00 L 2015.00 2878.00 L 1995.00 2877.00 L 1815.00 2877.00 L 1795.00 2876.00 L 1635.00 2876.00 L 1615.00 2875.00 L 1435.00 2875.00 L 1415.00 2874.00 L 1255.00 2874.00 L 1235.00 2873.00 L 1055.00 2873.00 L 1035.00 2872.00 Z" />
<path id="csg562-044-19" fill="none" stroke="black" stroke-width="1" d="M 875.00 2987.00 L 871.29 2988.86 L 877.95 3099.00 L 1035.00 3099.00 L 1055.00 3100.00 L 1215.00 3100.00 L 1235.00 3101.00 L 1415.00 3101.00 L 1435.00 3102.00 L 1595.00 3102.00 L 1615.00 3103.00 L 1775.00 3103.00 L 1795.00 3104.00 L 1875.00 3104.00 L 1895.00 3124.00 L 1915.00 3104.00 L 1975.00 3104.00 L 1995.00 3105.00 L 2035.00 3105.00 L 2055.00 3085.00 L 2075.00 3085.00 L 2095.00 3105.00 L 2155.00 3105.00 L 2175.00 3106.00 L 2335.00 3106.00 L 2355.00 3107.00 L 2535.00 3107.00 L 2555.00 3108.00 L 2715.00 3108.00 L 2735.00 3109.00 L 2895.00 3109.00 L 2915.00 3110.00 L 2941.76 3110.00 L 2940.00 3105.00 L 2960.72 2994.00 L 2715.00 2994.00 L 2695.00 2993.00 L 2455.00 2993.00 L 2435.00 2992.00 L 2195.00 2992.00 L 2175.00 2991.00 L 1935.00 2991.00 L 1915.00 2990.00 L 1655.00 2990.00 L 1635.00 2989.00 L 1395.00 2989.00 L 1375.00 2988.00 L 1135.00 2988.00 L 1115.00 2987.00 Z" />
<path id="csg562-044-20" fill="none" stroke="black" stroke-width="1" d="M 2055.00 3085.00 L 2035.00 3105.00 L 1995.00 3105.00 L 1975.00 3104.00 L 1915.00 3104.00 L 1895.00 3124.00 L 1875.00 3104.00 L 1795.00 3104.00 L 1775.00 3103.00 L 1615.00 3103.00 L 1595.00 3102.00 L 1435.00 3102.00 L 1415.00 3101.00 L 1235.00 3101.00 L 1215.00 3100.00 L 1055.00 3100.00 L 1035.00 3099.00 L 877.95 3099.00 L 884.41 3206.00 L 1035.00 3206.00 L 1055.00 3207.00 L 1215.00 3207.00 L 1235.00 3208.00 L 1395.00 3208.00 L 1415.00 3209.00 L 1535.00 3209.00 L 1555.00 3189.00 L 1575.00 3209.00 L 1595.00 3210.00 L 1755.00 3210.00 L 1775.00 3211.00 L 1935.00 3211.00 L 1955.00 3212.00 L 2115.00 3212.00 L 2135.00 3213.00 L 2295.00 3213.00 L 2315.00 3214.00 L 2475.00 3214.00 L 2495.00 3215.00 L 2675.00 3215.00 L 2695.00 3216.00 L 2855.00 3216.00 L 2875.00 3217.00 L 2979.45 3217.00 L 2941.76 3110.00 L 2915.00 3110.00 L 2895.00 3109.00 L 2735.00 3109.00 L 2715.00 3108.00 L 2555.00 3108.00 L 2535.00 3107.00 L 2355.00 3107.00 L 2335.00 3106.00 L 2175.00 3106.00 L 2155.00 3105.00 L 2095.00 3105.00 L 2075.00 3085.00 Z" />
<path id="csg562-044-21" fill="none" stroke="black" stroke-width="1" d="M 1555.00 3189.00 L 1535.00 3209.00 L 1415.00 3209.00 L 1395.00 3208.00 L 1235.00 3208.00 L 1215.00 3207.00 L 1055.00 3207.00 L 1035.00 3206.00 L 884.41 3206.00 L 891.00 3315.00 L 887.80 3327.00 L 975.00 3327.00 L 995.00 3328.00 L 1115.00 3328.00 L 1135.00 3329.00 L 1255.00 3329.00 L 1275.00 3330.00 L 1395.00 3330.00 L 1415.00 3331.00 L 1535.00 3331.00 L 1555.00 3332.00 L 1675.00 3332.00 L 1695.00 3333.00 L 1795.00 3333.00 L 1815.00 3334.00 L 1935.00 3334.00 L 1955.00 3335.00 L 2075.00 3335.00 L 2095.00 3336.00 L 2215.00 3336.00 L 2235.00 3337.00 L 2355.00 3337.00 L 2375.00 3338.00 L 2495.00 3338.00 L 2515.00 3339.00 L 2635.00 3339.00 L 2655.00 3340.00 L 2755.00 3340.00 L 2775.00 3341.00 L 2895.00 3341.00 L 2915.00 3342.00 L 3023.49 3342.00 L 2979.45 3217.00 L 2875.00 3217.00 L 2855.00 3216.00 L 2695.00 3216.00 L 2675.00 3215.00 L 2495.00 3215.00 L 2475.00 3214.00 L 2315.00 3214.00 L 2295.00 3213.00 L 2135.00 3213.00 L 2115.00 3212.00 L 1955.00 3212.00 L 1935.00 3211.00 L 1775.00 3211.00 L 1755.00 3210.00 L 1595.00 3210.00 L 1575.00 3209.00 L 1555.00 3189.00 Z" />
<path id="csg562-044-22" fill="none" stroke="black" stroke-width="1" d="M 887.80 3327.00 L 859.00 3435.00 L 875.00 3411.00 L 895.00 3411.00 L 915.00 3433.00 L 935.00 3431.00 L 995.00 3431.00 L 1015.00 3432.00 L 1155.00 3432.00 L 1175.00 3433.00 L 1295.00 3433.00 L 1315.00 3434.00 L 1455.00 3434.00 L 1475.00 3435.00 L 1595.00 3435.00 L 1615.00 3436.00 L 1755.00 3436.00 L 1775.00 3437.00 L 1895.00 3437.00 L 1915.00 3438.00 L 2055.00 3438.00 L 2075.00 3439.00 L 2195.00 3439.00 L 2215.00 3440.00 L 2355.00 3440.00 L 2375.00 3441.00 L 2495.00 3441.00 L 2515.00 3442.00 L 2655.00 3442.00 L 2675.00 3443.00 L 2795.00 3443.00 L 2815.00 3444.00 L 2955.00 3444.00 L 2975.00 3445.00 L 2987.40 3445.00 L 3033.00 3369.00 L 3023.49 3342.00 L 2915.00 3342.00 L 2895.00 3341.00 L 2775.00 3341.00 L 2755.00 3340.00 L 2655.00 3340.00 L 2635.00 3339.00 L 2515.00 3339.00 L 2495.00 3338.00 L 2375.00 3338.00 L 2355.00 3337.00 L 2235.00 3337.00 L 2215.00 3336.00 L 2095.00 3336.00 L 2075.00 3335.00 L 1955.00 3335.00 L 1935.00 3334.00 L 1815.00 3334.00 L 1795.00 3333.00 L 1695.00 3333.00 L 1675.00 3332.00 L 1555.00 3332.00 L 1535.00 3331.00 L 1415.00 3331.00 L 1395.00 3330.00 L 1275.00 3330.00 L 1255.00 3329.00 L 1135.00 3329.00 L 1115.00 3328.00 L 995.00 3328.00 L 975.00 3327.00 Z" />
<path id="csg562-044-23" fill="none" stroke="black" stroke-width="1" d="M 875.00 3411.00 L 859.00 3435.00 L 855.00 3450.00 L 884.79 3551.79 L 895.00 3562.00 L 915.00 3542.00 L 975.00 3542.00 L 995.00 3543.00 L 1095.00 3543.00 L 1103.06 3543.40 L 2340.00 3549.00 L 2934.00 3534.00 L 2987.40 3445.00 L 2975.00 3445.00 L 2955.00 3444.00 L 2815.00 3444.00 L 2795.00 3443.00 L 2675.00 3443.00 L 2655.00 3442.00 L 2515.00 3442.00 L 2495.00 3441.00 L 2375.00 3441.00 L 2355.00 3440.00 L 2215.00 3440.00 L 2195.00 3439.00 L 2075.00 3439.00 L 2055.00 3438.00 L 1915.00 3438.00 L 1895.00 3437.00 L 1775.00 3437.00 L 1755.00 3436.00 L 1615.00 3436.00 L 1595.00 3435.00 L 1475.00 3435.00 L 1455.00 3434.00 L 1315.00 3434.00 L 1295.00 3433.00 L 1175.00 3433.00 L 1155.00 3432.00 L 1015.00 3432.00 L 995.00 3431.00 L 935.00 3431.00 L 915.00 3433.00 L 895.00 3411.00 Z" />
</svg>
