<?xml version="1.0" standalone="no"?>
<!DOCTYPE svg PUBLIC "-//W3C//DTD SVG 1.1//EN" "http://www.w3.org/Graphics/SVG/1.1/DTD/svg11.dtd">
<svg width="46.22222in" height="69.333336in" viewBox="0 0 3328 4992" xmlns="http://www.w3.org/2000/svg" version="1.1">
<path id="csg562-031-01" fill="none" stroke="black" stroke-width="1" d="M 1921.00 828.00 L 1767.00 849.00 L 1581.00 840.00 L 1098.00 852.00 L 858.00 837.00 L 408.00 837.00 L 402.84 935.00 L 997.00 935.00 L 1017.00 936.00 L 1657.00 936.00 L 1677.00 937.00 L 2197.00 937.00 L 2217.00 957.00 L 2237.00 937.00 L 2317.00 937.00 L 2337.00 938.00 L 2476.60 938.00 L 2466.00 870.00 L 2067.00 846.00 L 1990.50 828.00 Z" />
<path id="csg562-031-02" fill="none" stroke="black" stroke-width="1" d="M 402.84 935.00 L 396.32 1059.00 L 777.00 1059.00 L 797.00 1060.00 L 1197.00 1060.00 L 1217.00 1061.00 L 1617.00 1061.00 L 1637.00 1062.00 L 2037.00 1062.00 L 2057.00 1063.00 L 2457.00 1063.00 L 2477.00 1064.00 L 2496.23 1064.00 L 2476.60 938.00 L 2337.00 938.00 L 2317.00 937.00 L 2237.00 937.00 L 2217.00 957.00 L 2197.00 937.00 L 1677.00 937.00 L 1657.00 936.00 L 1017.00 936.00 L 997.00 935.00 Z" />
<path id="csg562-031-03" fill="none" stroke="black" stroke-width="1" d="M 396.32 1059.00 L 390.53 1169.00 L 877.00 1169.00 L 897.00 1149.00 L 917.00 1169.00 L 1137.00 1169.00 L 1157.00 1168.00 L 1317.00 1168.00 L 1337.00 1188.00 L 1357.00 1168.00 L 1937.00 1168.00 L 1957.00 1167.00 L 2466.72 1167.00 L 2502.00 1101.00 L 2496.23 1064.00 L 2477.00 1064.00 L 2457.00 1063.00 L 2057.00 1063.00 L 2037.00 1062.00 L 1637.00 1062.00 L 1617.00 1061.00 L 1217.00 1061.00 L 1197.00 1060.00 L 797.00 1060.00 L 777.00 1059.00 Z" />
<path id="csg562-031-04" fill="none" stroke="black" stroke-width="1" d="M 897.00 1149.00 L 877.00 1169.00 L 390.53 1169.00 L 387.00 1236.00 L 382.14 1272.00 L 757.00 1272.00 L 777.00 1252.00 L 817.00 1252.00 L 837.00 1272.00 L 1557.00 1272.00 L 1577.00 1292.00 L 1597.00 1272.00 L 2410.60 1272.00 L 2466.72 1167.00 L 1957.00 1167.00 L 1937.00 1168.00 L 1357.00 1168.00 L 1337.00 1188.00 L 1317.00 1168.00 L 1157.00 1168.00 L 1137.00 1169.00 L 917.00 1169.00 L 897.00 1149.00 Z" />
<path id="csg562-031-05" fill="none" stroke="black" stroke-width="1" d="M 777.00 1252.00 L 757.00 1272.00 L 382.14 1272.00 L 364.45 1402.91 L 377.00 1396.00 L 1677.00 1396.00 L 1697.00 1395.00 L 2530.49 1395.00 L 2529.00 1317.00 L 2409.00 1275.00 L 2410.60 1272.00 L 1597.00 1272.00 L 1577.00 1292.00 L 1557.00 1272.00 L 837.00 1272.00 L 817.00 1252.00 Z" />
<path id="csg562-031-06" fill="none" stroke="black" stroke-width="1" d="M 1697.00 1395.00 L 1677.00 1396.00 L 377.00 1396.00 L 364.45 1402.91 L 357.00 1458.00 L 364.39 1506.31 L 377.00 1500.00 L 677.00 1500.00 L 697.00 1501.00 L 997.00 1501.00 L 1017.00 1502.00 L 1317.00 1502.00 L 1337.00 1503.00 L 1657.00 1503.00 L 1677.00 1504.00 L 1977.00 1504.00 L 1997.00 1505.00 L 2297.00 1505.00 L 2317.00 1506.00 L 2532.60 1506.00 L 2530.49 1395.00 Z" />
<path id="csg562-031-07" fill="none" stroke="black" stroke-width="1" d="M 377.00 1500.00 L 364.39 1506.31 L 380.71 1613.00 L 617.00 1613.00 L 637.00 1614.00 L 877.00 1614.00 L 897.00 1615.00 L 1137.00 1615.00 L 1157.00 1616.00 L 1397.00 1616.00 L 1417.00 1617.00 L 1657.00 1617.00 L 1677.00 1618.00 L 1737.00 1618.00 L 1757.00 1638.00 L 1777.00 1618.00 L 1917.00 1618.00 L 1937.00 1619.00 L 2157.00 1619.00 L 2177.00 1639.00 L 2197.00 1620.00 L 2257.00 1620.00 L 2277.00 1640.00 L 2397.00 1640.00 L 2417.00 1620.00 L 2437.00 1640.00 L 2457.00 1621.00 L 2474.93 1638.93 L 2479.61 1638.39 L 2497.00 1621.00 L 2534.79 1621.00 L 2532.60 1506.00 L 2317.00 1506.00 L 2297.00 1505.00 L 1997.00 1505.00 L 1977.00 1504.00 L 1677.00 1504.00 L 1657.00 1503.00 L 1337.00 1503.00 L 1317.00 1502.00 L 1017.00 1502.00 L 997.00 1501.00 L 697.00 1501.00 L 677.00 1500.00 Z" />
<path id="csg562-031-08" fill="none" stroke="black" stroke-width="1" d="M 380.71 1613.00 L 396.00 1713.00 L 471.00 1725.00 L 470.56 1730.00 L 2313.24 1730.00 L 2301.00 1659.00 L 2474.93 1638.93 L 2457.00 1621.00 L 2437.00 1640.00 L 2417.00 1620.00 L 2397.00 1640.00 L 2277.00 1640.00 L 2257.00 1620.00 L 2197.00 1620.00 L 2177.00 1639.00 L 2157.00 1619.00 L 1937.00 1619.00 L 1917.00 1618.00 L 1777.00 1618.00 L 1757.00 1638.00 L 1737.00 1618.00 L 1677.00 1618.00 L 1657.00 1617.00 L 1417.00 1617.00 L 1397.00 1616.00 L 1157.00 1616.00 L 1137.00 1615.00 L 897.00 1615.00 L 877.00 1614.00 L 637.00 1614.00 L 617.00 1613.00 Z" />
<path id="csg562-031-09" fill="none" stroke="black" stroke-width="1" d="M 470.56 1730.00 L 462.00 1827.00 L 444.50 1832.00 L 797.00 1832.00 L 817.00 1833.00 L 1237.00 1833.00 L 1257.00 1834.00 L 1697.00 1834.00 L 1717.00 1835.00 L 2137.00 1835.00 L 2157.00 1836.00 L 2337.00 1836.00 L 2357.00 1856.00 L 2377.00 1836.00 L 2483.43 1836.00 L 2490.00 1791.00 L 2316.00 1746.00 L 2313.24 1730.00 Z" />
<path id="csg562-031-10" fill="none" stroke="black" stroke-width="1" d="M 444.50 1832.00 L 378.00 1851.00 L 377.31 1943.00 L 677.00 1943.00 L 697.00 1944.00 L 997.00 1944.00 L 1017.00 1945.00 L 1337.00 1945.00 L 1357.00 1946.00 L 1657.00 1946.00 L 1677.00 1947.00 L 1837.00 1947.00 L 1857.00 1967.00 L 1877.00 1947.00 L 1977.00 1947.00 L 1997.00 1948.00 L 2317.00 1948.00 L 2337.00 1949.00 L 2466.92 1949.00 L 2483.43 1836.00 L 2377.00 1836.00 L 2357.00 1856.00 L 2337.00 1836.00 L 2157.00 1836.00 L 2137.00 1835.00 L 1717.00 1835.00 L 1697.00 1834.00 L 1257.00 1834.00 L 1237.00 1833.00 L 817.00 1833.00 L 797.00 1832.00 Z" />
<path id="csg562-031-11" fill="none" stroke="black" stroke-width="1" d="M 377.31 1943.00 L 376.48 2053.26 L 377.00 2053.00 L 617.00 2053.00 L 637.00 2054.00 L 897.00 2054.00 L 917.00 2055.00 L 957.00 2055.00 L 977.00 2075.00 L 997.00 2055.00 L 1177.00 2055.00 L 1197.00 2056.00 L 1457.00 2056.00 L 1477.00 2057.00 L 1677.00 2057.00 L 1697.00 2061.00 L 1717.00 2061.00 L 1737.00 2059.00 L 1757.00 2059.00 L 1777.00 2057.00 L 1817.00 2057.00 L 1837.00 2058.00 L 2017.00 2058.00 L 2037.00 2059.00 L 2297.00 2059.00 L 2317.00 2060.00 L 2451.16 2060.00 L 2451.00 2058.00 L 2466.92 1949.00 L 2337.00 1949.00 L 2317.00 1948.00 L 1997.00 1948.00 L 1977.00 1947.00 L 1877.00 1947.00 L 1857.00 1967.00 L 1837.00 1947.00 L 1677.00 1947.00 L 1657.00 1946.00 L 1357.00 1946.00 L 1337.00 1945.00 L 1017.00 1945.00 L 997.00 1944.00 L 697.00 1944.00 L 677.00 1943.00 Z" />
<path id="csg562-031-12" fill="none" stroke="black" stroke-width="1" d="M 377.00 2053.00 L 376.48 2053.26 L 375.62 2168.69 L 377.00 2168.00 L 457.00 2168.00 L 477.00 2169.00 L 557.00 2169.00 L 577.00 2170.00 L 657.00 2170.00 L 677.00 2171.00 L 757.00 2171.00 L 777.00 2172.00 L 857.00 2172.00 L 877.00 2173.00 L 957.00 2173.00 L 977.00 2174.00 L 1057.00 2174.00 L 1077.00 2175.00 L 1157.00 2175.00 L 1177.00 2176.00 L 1257.00 2176.00 L 1277.00 2177.00 L 1357.00 2177.00 L 1377.00 2178.00 L 1457.00 2178.00 L 1477.00 2179.00 L 1557.00 2179.00 L 1577.00 2180.00 L 1657.00 2180.00 L 1677.00 2181.00 L 1757.00 2181.00 L 1777.00 2182.00 L 1857.00 2182.00 L 1877.00 2183.00 L 1957.00 2183.00 L 1977.00 2184.00 L 2057.00 2184.00 L 2077.00 2185.00 L 2157.00 2185.00 L 2177.00 2186.00 L 2257.00 2186.00 L 2277.00 2187.00 L 2357.00 2187.00 L 2377.00 2188.00 L 2457.00 2188.00 L 2461.63 2188.23 L 2451.16 2060.00 L 2317.00 2060.00 L 2297.00 2059.00 L 2037.00 2059.00 L 2017.00 2058.00 L 1837.00 2058.00 L 1817.00 2057.00 L 1777.00 2057.00 L 1757.00 2059.00 L 1737.00 2059.00 L 1717.00 2061.00 L 1697.00 2061.00 L 1677.00 2057.00 L 1477.00 2057.00 L 1457.00 2056.00 L 1197.00 2056.00 L 1177.00 2055.00 L 997.00 2055.00 L 977.00 2075.00 L 957.00 2055.00 L 917.00 2055.00 L 897.00 2054.00 L 637.00 2054.00 L 617.00 2053.00 Z" />
<path id="csg562-031-13" fill="none" stroke="black" stroke-width="1" d="M 377.00 2168.00 L 375.62 2168.69 L 374.79 2279.10 L 374.79 2279.10 L 377.00 2278.00 L 457.00 2278.00 L 477.00 2279.00 L 557.00 2279.00 L 577.00 2280.00 L 657.00 2280.00 L 677.00 2281.00 L 777.00 2281.00 L 797.00 2282.00 L 877.00 2282.00 L 897.00 2283.00 L 977.00 2283.00 L 997.00 2284.00 L 1097.00 2284.00 L 1117.00 2285.00 L 1197.00 2285.00 L 1217.00 2286.00 L 1297.00 2286.00 L 1317.00 2287.00 L 1417.00 2287.00 L 1437.00 2288.00 L 1517.00 2288.00 L 1537.00 2289.00 L 1617.00 2289.00 L 1637.00 2290.00 L 1737.00 2290.00 L 1757.00 2291.00 L 1837.00 2291.00 L 1857.00 2292.00 L 1937.00 2292.00 L 1957.00 2293.00 L 2057.00 2293.00 L 2077.00 2294.00 L 2157.00 2294.00 L 2177.00 2295.00 L 2257.00 2295.00 L 2277.00 2296.00 L 2377.00 2296.00 L 2397.00 2297.00 L 2470.51 2297.00 L 2461.63 2188.23 L 2457.00 2188.00 L 2377.00 2188.00 L 2357.00 2187.00 L 2277.00 2187.00 L 2257.00 2186.00 L 2177.00 2186.00 L 2157.00 2185.00 L 2077.00 2185.00 L 2057.00 2184.00 L 1977.00 2184.00 L 1957.00 2183.00 L 1877.00 2183.00 L 1857.00 2182.00 L 1777.00 2182.00 L 1757.00 2181.00 L 1677.00 2181.00 L 1657.00 2180.00 L 1577.00 2180.00 L 1557.00 2179.00 L 1477.00 2179.00 L 1457.00 2178.00 L 1377.00 2178.00 L 1357.00 2177.00 L 1277.00 2177.00 L 1257.00 2176.00 L 1177.00 2176.00 L 1157.00 2175.00 L 1077.00 2175.00 L 1057.00 2174.00 L 977.00 2174.00 L 957.00 2173.00 L 877.00 2173.00 L 857.00 2172.00 L 777.00 2172.00 L 757.00 2171.00 L 677.00 2171.00 L 657.00 2170.00 L 577.00 2170.00 L 557.00 2169.00 L 477.00 2169.00 L 457.00 2168.00 Z" />
<path id="csg562-031-14" fill="none" stroke="black" stroke-width="1" d="M 377.00 2278.00 L 374.79 2279.10 L 373.82 2408.59 L 377.00 2407.00 L 397.00 2407.00 L 417.00 2397.00 L 437.00 2377.00 L 457.00 2373.00 L 477.00 2379.00 L 497.00 2379.00 L 517.00 2408.00 L 557.00 2408.00 L 577.00 2409.00 L 617.00 2409.00 L 637.00 2369.00 L 657.00 2389.00 L 677.00 2390.00 L 697.00 2410.00 L 757.00 2410.00 L 777.00 2411.00 L 857.00 2411.00 L 877.00 2412.00 L 977.00 2412.00 L 997.00 2413.00 L 1077.00 2413.00 L 1097.00 2414.00 L 1177.00 2414.00 L 1197.00 2415.00 L 1277.00 2415.00 L 1297.00 2416.00 L 1377.00 2416.00 L 1397.00 2417.00 L 1477.00 2417.00 L 1497.00 2418.00 L 1597.00 2418.00 L 1617.00 2419.00 L 1697.00 2419.00 L 1717.00 2420.00 L 1797.00 2420.00 L 1817.00 2421.00 L 1897.00 2421.00 L 1917.00 2422.00 L 1997.00 2422.00 L 2017.00 2423.00 L 2097.00 2423.00 L 2117.00 2424.00 L 2217.00 2424.00 L 2237.00 2425.00 L 2317.00 2425.00 L 2337.00 2426.00 L 2417.00 2426.00 L 2437.00 2427.00 L 2470.71 2427.00 L 2475.00 2352.00 L 2470.51 2297.00 L 2397.00 2297.00 L 2377.00 2296.00 L 2277.00 2296.00 L 2257.00 2295.00 L 2177.00 2295.00 L 2157.00 2294.00 L 2077.00 2294.00 L 2057.00 2293.00 L 1957.00 2293.00 L 1937.00 2292.00 L 1857.00 2292.00 L 1837.00 2291.00 L 1757.00 2291.00 L 1737.00 2290.00 L 1637.00 2290.00 L 1617.00 2289.00 L 1537.00 2289.00 L 1517.00 2288.00 L 1437.00 2288.00 L 1417.00 2287.00 L 1317.00 2287.00 L 1297.00 2286.00 L 1217.00 2286.00 L 1197.00 2285.00 L 1117.00 2285.00 L 1097.00 2284.00 L 997.00 2284.00 L 977.00 2283.00 L 897.00 2283.00 L 877.00 2282.00 L 797.00 2282.00 L 777.00 2281.00 L 677.00 2281.00 L 657.00 2280.00 L 577.00 2280.00 L 557.00 2279.00 L 477.00 2279.00 L 457.00 2278.00 Z" />
<path id="csg562-031-15" fill="none" stroke="black" stroke-width="1" d="M 637.00 2369.00 L 617.00 2409.00 L 577.00 2409.00 L 557.00 2408.00 L 517.00 2408.00 L 497.00 2379.00 L 477.00 2379.00 L 457.00 2373.00 L 437.00 2377.00 L 417.00 2397.00 L 397.00 2407.00 L 377.00 2407.00 L 373.82 2408.59 L 373.06 2510.97 L 377.00 2509.00 L 437.00 2509.00 L 457.00 2510.00 L 537.00 2510.00 L 557.00 2511.00 L 617.00 2511.00 L 637.00 2512.00 L 717.00 2512.00 L 737.00 2513.00 L 797.00 2513.00 L 817.00 2514.00 L 897.00 2514.00 L 917.00 2515.00 L 977.00 2515.00 L 997.00 2516.00 L 1077.00 2516.00 L 1097.00 2517.00 L 1157.00 2517.00 L 1177.00 2518.00 L 1257.00 2518.00 L 1277.00 2519.00 L 1337.00 2519.00 L 1357.00 2520.00 L 1417.00 2520.00 L 1437.00 2500.00 L 1457.00 2501.00 L 1477.00 2501.00 L 1497.00 2521.00 L 1517.00 2521.00 L 1537.00 2522.00 L 1617.00 2522.00 L 1637.00 2523.00 L 1697.00 2523.00 L 1717.00 2524.00 L 1797.00 2524.00 L 1817.00 2525.00 L 1877.00 2525.00 L 1897.00 2526.00 L 1977.00 2526.00 L 1997.00 2527.00 L 2057.00 2527.00 L 2077.00 2528.00 L 2157.00 2528.00 L 2177.00 2529.00 L 2257.00 2529.00 L 2277.00 2530.00 L 2337.00 2530.00 L 2357.00 2531.00 L 2437.00 2531.00 L 2457.00 2532.00 L 2464.71 2532.00 L 2470.71 2427.00 L 2437.00 2427.00 L 2417.00 2426.00 L 2337.00 2426.00 L 2317.00 2425.00 L 2237.00 2425.00 L 2217.00 2424.00 L 2117.00 2424.00 L 2097.00 2423.00 L 2017.00 2423.00 L 1997.00 2422.00 L 1917.00 2422.00 L 1897.00 2421.00 L 1817.00 2421.00 L 1797.00 2420.00 L 1717.00 2420.00 L 1697.00 2419.00 L 1617.00 2419.00 L 1597.00 2418.00 L 1497.00 2418.00 L 1477.00 2417.00 L 1397.00 2417.00 L 1377.00 2416.00 L 1297.00 2416.00 L 1277.00 2415.00 L 1197.00 2415.00 L 1177.00 2414.00 L 1097.00 2414.00 L 1077.00 2413.00 L 997.00 2413.00 L 977.00 2412.00 L 877.00 2412.00 L 857.00 2411.00 L 777.00 2411.00 L 757.00 2410.00 L 697.00 2410.00 L 677.00 2390.00 L 657.00 2389.00 L 637.00 2369.00 Z" />
<path id="csg562-031-16" fill="none" stroke="black" stroke-width="1" d="M 1437.00 2500.00 L 1417.00 2520.00 L 1357.00 2520.00 L 1337.00 2519.00 L 1277.00 2519.00 L 1257.00 2518.00 L 1177.00 2518.00 L 1157.00 2517.00 L 1097.00 2517.00 L 1077.00 2516.00 L 997.00 2516.00 L 977.00 2515.00 L 917.00 2515.00 L 897.00 2514.00 L 817.00 2514.00 L 797.00 2513.00 L 737.00 2513.00 L 717.00 2512.00 L 637.00 2512.00 L 617.00 2511.00 L 557.00 2511.00 L 537.00 2510.00 L 457.00 2510.00 L 437.00 2509.00 L 377.00 2509.00 L 373.06 2510.97 L 372.24 2619.38 L 372.24 2619.38 L 377.00 2617.00 L 497.00 2617.00 L 517.00 2618.00 L 557.00 2618.00 L 577.00 2598.00 L 597.00 2598.00 L 617.00 2618.00 L 637.00 2618.00 L 657.00 2619.00 L 777.00 2619.00 L 797.00 2620.00 L 937.00 2620.00 L 957.00 2621.00 L 1077.00 2621.00 L 1097.00 2622.00 L 1217.00 2622.00 L 1237.00 2623.00 L 1257.00 2623.00 L 1277.00 2603.00 L 1297.00 2623.00 L 1357.00 2623.00 L 1377.00 2624.00 L 1517.00 2624.00 L 1537.00 2625.00 L 1657.00 2625.00 L 1677.00 2626.00 L 1797.00 2626.00 L 1817.00 2627.00 L 1937.00 2627.00 L 1957.00 2628.00 L 2097.00 2628.00 L 2117.00 2629.00 L 2237.00 2629.00 L 2257.00 2630.00 L 2377.00 2630.00 L 2397.00 2631.00 L 2465.68 2631.00 L 2463.00 2562.00 L 2464.71 2532.00 L 2457.00 2532.00 L 2437.00 2531.00 L 2357.00 2531.00 L 2337.00 2530.00 L 2277.00 2530.00 L 2257.00 2529.00 L 2177.00 2529.00 L 2157.00 2528.00 L 2077.00 2528.00 L 2057.00 2527.00 L 1997.00 2527.00 L 1977.00 2526.00 L 1897.00 2526.00 L 1877.00 2525.00 L 1817.00 2525.00 L 1797.00 2524.00 L 1717.00 2524.00 L 1697.00 2523.00 L 1637.00 2523.00 L 1617.00 2522.00 L 1537.00 2522.00 L 1517.00 2521.00 L 1497.00 2521.00 L 1477.00 2501.00 L 1457.00 2501.00 L 1437.00 2500.00 Z" />
<path id="csg562-031-17" fill="none" stroke="black" stroke-width="1" d="M 577.00 2598.00 L 557.00 2618.00 L 517.00 2618.00 L 497.00 2617.00 L 377.00 2617.00 L 372.24 2619.38 L 372.00 2652.00 L 370.57 2734.21 L 377.00 2731.00 L 417.00 2731.00 L 437.00 2732.00 L 497.00 2732.00 L 517.00 2733.00 L 557.00 2733.00 L 577.00 2734.00 L 637.00 2734.00 L 657.00 2735.00 L 697.00 2735.00 L 717.00 2736.00 L 777.00 2736.00 L 797.00 2737.00 L 857.00 2737.00 L 877.00 2738.00 L 917.00 2738.00 L 937.00 2739.00 L 997.00 2739.00 L 1017.00 2740.00 L 1057.00 2740.00 L 1077.00 2741.00 L 1137.00 2741.00 L 1157.00 2742.00 L 1217.00 2742.00 L 1237.00 2743.00 L 1277.00 2743.00 L 1297.00 2744.00 L 1357.00 2744.00 L 1377.00 2745.00 L 1417.00 2745.00 L 1437.00 2746.00 L 1457.00 2746.00 L 1477.00 2726.00 L 1497.00 2726.00 L 1517.00 2747.00 L 1577.00 2747.00 L 1597.00 2748.00 L 1637.00 2748.00 L 1657.00 2749.00 L 1717.00 2749.00 L 1737.00 2750.00 L 1777.00 2750.00 L 1797.00 2751.00 L 1857.00 2751.00 L 1877.00 2752.00 L 1937.00 2752.00 L 1957.00 2753.00 L 1997.00 2753.00 L 2017.00 2714.00 L 2037.00 2714.00 L 2057.00 2754.00 L 2077.00 2754.00 L 2097.00 2755.00 L 2137.00 2755.00 L 2157.00 2756.00 L 2217.00 2756.00 L 2237.00 2757.00 L 2277.00 2757.00 L 2297.00 2758.00 L 2357.00 2758.00 L 2377.00 2759.00 L 2437.00 2759.00 L 2457.00 2760.00 L 2470.69 2760.00 L 2465.68 2631.00 L 2397.00 2631.00 L 2377.00 2630.00 L 2257.00 2630.00 L 2237.00 2629.00 L 2117.00 2629.00 L 2097.00 2628.00 L 1957.00 2628.00 L 1937.00 2627.00 L 1817.00 2627.00 L 1797.00 2626.00 L 1677.00 2626.00 L 1657.00 2625.00 L 1537.00 2625.00 L 1517.00 2624.00 L 1377.00 2624.00 L 1357.00 2623.00 L 1297.00 2623.00 L 1277.00 2603.00 L 1257.00 2623.00 L 1237.00 2623.00 L 1217.00 2622.00 L 1097.00 2622.00 L 1077.00 2621.00 L 957.00 2621.00 L 937.00 2620.00 L 797.00 2620.00 L 777.00 2619.00 L 657.00 2619.00 L 637.00 2618.00 L 617.00 2618.00 L 597.00 2598.00 Z" />
<path id="csg562-031-18" fill="none" stroke="black" stroke-width="1" d="M 2017.00 2714.00 L 1997.00 2753.00 L 1957.00 2753.00 L 1937.00 2752.00 L 1877.00 2752.00 L 1857.00 2751.00 L 1797.00 2751.00 L 1777.00 2750.00 L 1737.00 2750.00 L 1717.00 2749.00 L 1657.00 2749.00 L 1637.00 2748.00 L 1597.00 2748.00 L 1577.00 2747.00 L 1517.00 2747.00 L 1497.00 2726.00 L 1477.00 2726.00 L 1457.00 2746.00 L 1437.00 2746.00 L 1417.00 2745.00 L 1377.00 2745.00 L 1357.00 2744.00 L 1297.00 2744.00 L 1277.00 2743.00 L 1237.00 2743.00 L 1217.00 2742.00 L 1157.00 2742.00 L 1137.00 2741.00 L 1077.00 2741.00 L 1057.00 2740.00 L 1017.00 2740.00 L 997.00 2739.00 L 937.00 2739.00 L 917.00 2738.00 L 877.00 2738.00 L 857.00 2737.00 L 797.00 2737.00 L 777.00 2736.00 L 717.00 2736.00 L 697.00 2735.00 L 657.00 2735.00 L 637.00 2734.00 L 577.00 2734.00 L 557.00 2733.00 L 517.00 2733.00 L 497.00 2732.00 L 437.00 2732.00 L 417.00 2731.00 L 377.00 2731.00 L 370.57 2734.21 L 368.62 2846.19 L 377.00 2842.00 L 637.00 2842.00 L 657.00 2843.00 L 937.00 2843.00 L 957.00 2844.00 L 1237.00 2844.00 L 1257.00 2845.00 L 1537.00 2845.00 L 1557.00 2846.00 L 1837.00 2846.00 L 1857.00 2847.00 L 2137.00 2847.00 L 2157.00 2848.00 L 2437.00 2848.00 L 2457.00 2849.00 L 2474.15 2849.00 L 2470.69 2760.00 L 2457.00 2760.00 L 2437.00 2759.00 L 2377.00 2759.00 L 2357.00 2758.00 L 2297.00 2758.00 L 2277.00 2757.00 L 2237.00 2757.00 L 2217.00 2756.00 L 2157.00 2756.00 L 2137.00 2755.00 L 2097.00 2755.00 L 2077.00 2754.00 L 2057.00 2754.00 L 2037.00 2714.00 Z" />
<path id="csg562-031-19" fill="none" stroke="black" stroke-width="1" d="M 377.00 2842.00 L 368.62 2846.19 L 366.71 2956.14 L 377.00 2951.00 L 497.00 2951.00 L 517.00 2952.00 L 657.00 2952.00 L 677.00 2953.00 L 797.00 2953.00 L 817.00 2954.00 L 957.00 2954.00 L 977.00 2955.00 L 1117.00 2955.00 L 1137.00 2956.00 L 1257.00 2956.00 L 1277.00 2957.00 L 1417.00 2957.00 L 1437.00 2958.00 L 1557.00 2958.00 L 1577.00 2959.00 L 1717.00 2959.00 L 1737.00 2960.00 L 1877.00 2960.00 L 1897.00 2961.00 L 2017.00 2961.00 L 2037.00 2962.00 L 2177.00 2962.00 L 2197.00 2963.00 L 2337.00 2963.00 L 2357.00 2964.00 L 2477.00 2964.00 L 2484.11 2964.36 L 2475.00 2871.00 L 2474.15 2849.00 L 2457.00 2849.00 L 2437.00 2848.00 L 2157.00 2848.00 L 2137.00 2847.00 L 1857.00 2847.00 L 1837.00 2846.00 L 1557.00 2846.00 L 1537.00 2845.00 L 1257.00 2845.00 L 1237.00 2844.00 L 957.00 2844.00 L 937.00 2843.00 L 657.00 2843.00 L 637.00 2842.00 Z" />
<path id="csg562-031-20" fill="none" stroke="black" stroke-width="1" d="M 377.00 2951.00 L 366.71 2956.14 L 364.73 3070.14 L 377.00 3064.00 L 497.00 3064.00 L 517.00 3065.00 L 657.00 3065.00 L 677.00 3066.00 L 797.00 3066.00 L 817.00 3067.00 L 957.00 3067.00 L 977.00 3068.00 L 1117.00 3068.00 L 1137.00 3069.00 L 1257.00 3069.00 L 1277.00 3070.00 L 1417.00 3070.00 L 1437.00 3071.00 L 1557.00 3071.00 L 1577.00 3072.00 L 1717.00 3072.00 L 1737.00 3073.00 L 1877.00 3073.00 L 1897.00 3074.00 L 2017.00 3074.00 L 2037.00 3075.00 L 2177.00 3075.00 L 2197.00 3076.00 L 2337.00 3076.00 L 2357.00 3077.00 L 2477.00 3077.00 L 2495.19 3077.91 L 2484.11 2964.36 L 2477.00 2964.00 L 2357.00 2964.00 L 2337.00 2963.00 L 2197.00 2963.00 L 2177.00 2962.00 L 2037.00 2962.00 L 2017.00 2961.00 L 1897.00 2961.00 L 1877.00 2960.00 L 1737.00 2960.00 L 1717.00 2959.00 L 1577.00 2959.00 L 1557.00 2958.00 L 1437.00 2958.00 L 1417.00 2957.00 L 1277.00 2957.00 L 1257.00 2956.00 L 1137.00 2956.00 L 1117.00 2955.00 L 977.00 2955.00 L 957.00 2954.00 L 817.00 2954.00 L 797.00 2953.00 L 677.00 2953.00 L 657.00 2952.00 L 517.00 2952.00 L 497.00 2951.00 Z" />
<path id="csg562-031-21" fill="none" stroke="black" stroke-width="1" d="M 377.00 3064.00 L 364.73 3070.14 L 362.61 3192.20 L 377.00 3185.00 L 717.00 3185.00 L 737.00 3186.00 L 1097.00 3186.00 L 1117.00 3187.00 L 1477.00 3187.00 L 1497.00 3188.00 L 1617.00 3188.00 L 1637.00 3208.00 L 1657.00 3188.00 L 1837.00 3188.00 L 1857.00 3189.00 L 2217.00 3189.00 L 2237.00 3190.00 L 2473.17 3190.00 L 2499.00 3117.00 L 2495.19 3077.91 L 2477.00 3077.00 L 2357.00 3077.00 L 2337.00 3076.00 L 2197.00 3076.00 L 2177.00 3075.00 L 2037.00 3075.00 L 2017.00 3074.00 L 1897.00 3074.00 L 1877.00 3073.00 L 1737.00 3073.00 L 1717.00 3072.00 L 1577.00 3072.00 L 1557.00 3071.00 L 1437.00 3071.00 L 1417.00 3070.00 L 1277.00 3070.00 L 1257.00 3069.00 L 1137.00 3069.00 L 1117.00 3068.00 L 977.00 3068.00 L 957.00 3067.00 L 817.00 3067.00 L 797.00 3066.00 L 677.00 3066.00 L 657.00 3065.00 L 517.00 3065.00 L 497.00 3064.00 Z" />
<path id="csg562-031-22" fill="none" stroke="black" stroke-width="1" d="M 377.00 3185.00 L 362.61 3192.20 L 360.73 3300.14 L 377.00 3292.00 L 557.00 3292.00 L 577.00 3293.00 L 777.00 3293.00 L 797.00 3294.00 L 977.00 3294.00 L 997.00 3295.00 L 1197.00 3295.00 L 1217.00 3296.00 L 1397.00 3296.00 L 1417.00 3297.00 L 1617.00 3297.00 L 1637.00 3298.00 L 1837.00 3298.00 L 1857.00 3299.00 L 2037.00 3299.00 L 2057.00 3300.00 L 2257.00 3300.00 L 2277.00 3301.00 L 2357.00 3301.00 L 2377.00 3321.00 L 2397.00 3301.00 L 2433.89 3301.00 L 2473.17 3190.00 L 2237.00 3190.00 L 2217.00 3189.00 L 1857.00 3189.00 L 1837.00 3188.00 L 1657.00 3188.00 L 1637.00 3208.00 L 1617.00 3188.00 L 1497.00 3188.00 L 1477.00 3187.00 L 1117.00 3187.00 L 1097.00 3186.00 L 737.00 3186.00 L 717.00 3185.00 Z" />
<path id="csg562-031-23" fill="none" stroke="black" stroke-width="1" d="M 377.00 3292.00 L 360.73 3300.14 L 360.00 3342.00 L 358.68 3409.16 L 377.00 3400.00 L 457.00 3400.00 L 477.00 3401.00 L 557.00 3401.00 L 577.00 3402.00 L 657.00 3402.00 L 677.00 3403.00 L 777.00 3403.00 L 797.00 3404.00 L 877.00 3404.00 L 897.00 3405.00 L 977.00 3405.00 L 997.00 3406.00 L 1097.00 3406.00 L 1117.00 3407.00 L 1197.00 3407.00 L 1217.00 3408.00 L 1297.00 3408.00 L 1317.00 3409.00 L 1417.00 3409.00 L 1437.00 3410.00 L 1517.00 3410.00 L 1537.00 3411.00 L 1617.00 3411.00 L 1637.00 3412.00 L 1737.00 3412.00 L 1757.00 3413.00 L 1837.00 3413.00 L 1857.00 3414.00 L 1937.00 3414.00 L 1957.00 3415.00 L 2057.00 3415.00 L 2077.00 3416.00 L 2157.00 3416.00 L 2177.00 3417.00 L 2257.00 3417.00 L 2277.00 3418.00 L 2377.00 3418.00 L 2397.00 3419.00 L 2443.17 3419.00 L 2430.00 3312.00 L 2433.89 3301.00 L 2397.00 3301.00 L 2377.00 3321.00 L 2357.00 3301.00 L 2277.00 3301.00 L 2257.00 3300.00 L 2057.00 3300.00 L 2037.00 3299.00 L 1857.00 3299.00 L 1837.00 3298.00 L 1637.00 3298.00 L 1617.00 3297.00 L 1417.00 3297.00 L 1397.00 3296.00 L 1217.00 3296.00 L 1197.00 3295.00 L 997.00 3295.00 L 977.00 3294.00 L 797.00 3294.00 L 777.00 3293.00 L 577.00 3293.00 L 557.00 3292.00 Z" />
<path id="csg562-031-24" fill="none" stroke="black" stroke-width="1" d="M 377.00 3400.00 L 358.68 3409.16 L 357.00 3495.00 L 453.00 3492.00 L 1143.00 3516.00 L 1202.93 3547.00 L 1237.00 3547.00 L 1250.02 3547.65 L 1302.00 3513.00 L 1821.00 3543.00 L 2454.00 3507.00 L 2443.17 3419.00 L 2397.00 3419.00 L 2377.00 3418.00 L 2277.00 3418.00 L 2257.00 3417.00 L 2177.00 3417.00 L 2157.00 3416.00 L 2077.00 3416.00 L 2057.00 3415.00 L 1957.00 3415.00 L 1937.00 3414.00 L 1857.00 3414.00 L 1837.00 3413.00 L 1757.00 3413.00 L 1737.00 3412.00 L 1637.00 3412.00 L 1617.00 3411.00 L 1537.00 3411.00 L 1517.00 3410.00 L 1437.00 3410.00 L 1417.00 3409.00 L 1317.00 3409.00 L 1297.00 3408.00 L 1217.00 3408.00 L 1197.00 3407.00 L 1117.00 3407.00 L 1097.00 3406.00 L 997.00 3406.00 L 977.00 3405.00 L 897.00 3405.00 L 877.00 3404.00 L 797.00 3404.00 L 777.00 3403.00 L 677.00 3403.00 L 657.00 3402.00 L 577.00 3402.00 L 557.00 3401.00 L 477.00 3401.00 L 457.00 3400.00 Z" />
</svg>
