<?xml version="1.0" standalone="no"?>
<!DOCTYPE svg PUBLIC "-//W3C//DTD SVG 1.1//EN" "http://www.w3.org/Graphics/SVG/1.1/DTD/svg11.dtd">
<svg width="46.22222in" height="69.333336in" viewBox="0 0 3328 4992" xmlns="http://www.w3.org/2000/svg" version="1.1">
<path id="csg562-039-01" fill="none" stroke="black" stroke-width="1" d="M 1422.00 786.00 L 1143.00 831.00 L 1053.00 807.00 L 657.00 822.00 L 354.00 831.00 L 366.61 908.06 L 374.00 904.00 L 534.00 904.00 L 554.00 903.00 L 734.00 903.00 L 754.00 902.00 L 934.00 902.00 L 954.00 901.00 L 1107.60 901.00 L 1122.00 900.00 L 1148.75 900.26 L 1154.00 900.00 L 1334.00 900.00 L 1354.00 899.00 L 1514.00 899.00 L 1534.00 898.00 L 1654.00 898.00 L 1656.61 900.61 L 1691.76 900.24 L 1694.00 898.00 L 1714.00 898.00 L 1734.00 897.00 L 1914.00 897.00 L 1934.00 896.00 L 2114.00 896.00 L 2134.00 895.00 L 2314.00 895.00 L 2334.00 894.00 L 2432.48 894.00 L 2421.00 828.00 L 2286.00 798.00 L 1779.00 816.00 L 1422.00 786.00 Z" />
<path id="csg562-039-02" fill="none" stroke="black" stroke-width="1" d="M 954.00 901.00 L 934.00 902.00 L 754.00 902.00 L 734.00 903.00 L 554.00 903.00 L 534.00 904.00 L 374.00 904.00 L 366.61 908.06 L 381.00 996.00 L 497.57 1013.00 L 574.00 1013.00 L 594.00 1012.00 L 694.00 1012.00 L 714.00 1011.00 L 814.00 1011.00 L 834.00 1010.00 L 854.00 1030.00 L 874.00 1010.00 L 893.16 1010.00 L 906.00 915.00 L 1107.60 901.00 Z" />
<path id="csg562-039-03" fill="none" stroke="black" stroke-width="1" d="M 834.00 1010.00 L 814.00 1011.00 L 714.00 1011.00 L 694.00 1012.00 L 594.00 1012.00 L 574.00 1013.00 L 497.57 1013.00 L 525.00 1017.00 L 543.00 1128.00 L 541.17 1129.00 L 634.00 1129.00 L 654.00 1128.00 L 914.00 1128.00 L 934.00 1127.00 L 1194.00 1127.00 L 1214.00 1126.00 L 1354.00 1126.00 L 1374.00 1146.00 L 1394.00 1126.00 L 1474.00 1126.00 L 1494.00 1125.00 L 1754.00 1125.00 L 1774.00 1124.00 L 2034.00 1124.00 L 2054.00 1123.00 L 2314.00 1123.00 L 2334.00 1122.00 L 2503.08 1122.00 L 2526.00 1095.00 L 2319.00 1014.00 L 1671.00 1014.00 L 891.00 1026.00 L 893.16 1010.00 L 874.00 1010.00 L 854.00 1030.00 L 834.00 1010.00 Z" />
<path id="csg562-039-04" fill="none" stroke="black" stroke-width="1" d="M 2334.00 1122.00 L 2314.00 1123.00 L 2054.00 1123.00 L 2034.00 1124.00 L 1774.00 1124.00 L 1754.00 1125.00 L 1494.00 1125.00 L 1474.00 1126.00 L 1394.00 1126.00 L 1374.00 1146.00 L 1354.00 1126.00 L 1214.00 1126.00 L 1194.00 1127.00 L 934.00 1127.00 L 914.00 1128.00 L 654.00 1128.00 L 634.00 1129.00 L 541.17 1129.00 L 417.00 1197.00 L 443.88 1240.00 L 574.00 1240.00 L 594.00 1239.00 L 814.00 1239.00 L 834.00 1238.00 L 1054.00 1238.00 L 1074.00 1237.00 L 1294.00 1237.00 L 1314.00 1236.00 L 1534.00 1236.00 L 1554.00 1235.00 L 1774.00 1235.00 L 1794.00 1234.00 L 1934.00 1234.00 L 1954.00 1254.00 L 1974.00 1254.00 L 1994.00 1234.00 L 2014.00 1234.00 L 2034.00 1233.00 L 2074.00 1233.00 L 2094.00 1253.00 L 2114.00 1253.00 L 2134.00 1233.00 L 2254.00 1233.00 L 2274.00 1232.00 L 2409.68 1232.00 L 2503.08 1122.00 Z" />
<path id="csg562-039-05" fill="none" stroke="black" stroke-width="1" d="M 2274.00 1232.00 L 2254.00 1233.00 L 2134.00 1233.00 L 2114.00 1253.00 L 2094.00 1253.00 L 2074.00 1233.00 L 2034.00 1233.00 L 2014.00 1234.00 L 1994.00 1234.00 L 1974.00 1254.00 L 1954.00 1254.00 L 1934.00 1234.00 L 1794.00 1234.00 L 1774.00 1235.00 L 1554.00 1235.00 L 1534.00 1236.00 L 1314.00 1236.00 L 1294.00 1237.00 L 1074.00 1237.00 L 1054.00 1238.00 L 834.00 1238.00 L 814.00 1239.00 L 594.00 1239.00 L 574.00 1240.00 L 443.88 1240.00 L 447.00 1245.00 L 384.00 1305.00 L 385.15 1365.00 L 614.00 1365.00 L 634.00 1364.00 L 894.00 1364.00 L 914.00 1363.00 L 1154.00 1363.00 L 1174.00 1362.00 L 1434.00 1362.00 L 1454.00 1361.00 L 1474.00 1361.00 L 1494.00 1381.00 L 1514.00 1361.00 L 1694.00 1361.00 L 1714.00 1360.00 L 1974.00 1360.00 L 1994.00 1359.00 L 2234.00 1359.00 L 2254.00 1358.00 L 2400.71 1358.00 L 2391.00 1254.00 L 2409.68 1232.00 Z" />
<path id="csg562-039-06" fill="none" stroke="black" stroke-width="1" d="M 2254.00 1358.00 L 2234.00 1359.00 L 1994.00 1359.00 L 1974.00 1360.00 L 1714.00 1360.00 L 1694.00 1361.00 L 1514.00 1361.00 L 1494.00 1381.00 L 1474.00 1361.00 L 1454.00 1361.00 L 1434.00 1362.00 L 1174.00 1362.00 L 1154.00 1363.00 L 914.00 1363.00 L 894.00 1364.00 L 634.00 1364.00 L 614.00 1365.00 L 385.15 1365.00 L 387.33 1478.00 L 534.00 1478.00 L 554.00 1477.00 L 714.00 1477.00 L 734.00 1476.00 L 894.00 1476.00 L 914.00 1475.00 L 1094.00 1475.00 L 1114.00 1474.00 L 1274.00 1474.00 L 1294.00 1473.00 L 1454.00 1473.00 L 1474.00 1472.00 L 1634.00 1472.00 L 1654.00 1471.00 L 1834.00 1471.00 L 1854.00 1470.00 L 2014.00 1470.00 L 2034.00 1469.00 L 2194.00 1469.00 L 2214.00 1468.00 L 2374.00 1468.00 L 2394.00 1467.00 L 2410.88 1467.00 L 2400.71 1358.00 Z" />
<path id="csg562-039-07" fill="none" stroke="black" stroke-width="1" d="M 2394.00 1467.00 L 2374.00 1468.00 L 2214.00 1468.00 L 2194.00 1469.00 L 2034.00 1469.00 L 2014.00 1470.00 L 1854.00 1470.00 L 1834.00 1471.00 L 1654.00 1471.00 L 1634.00 1472.00 L 1474.00 1472.00 L 1454.00 1473.00 L 1294.00 1473.00 L 1274.00 1474.00 L 1114.00 1474.00 L 1094.00 1475.00 L 914.00 1475.00 L 894.00 1476.00 L 734.00 1476.00 L 714.00 1477.00 L 554.00 1477.00 L 534.00 1478.00 L 387.33 1478.00 L 389.40 1586.00 L 514.00 1586.00 L 534.00 1585.00 L 674.00 1585.00 L 694.00 1584.00 L 834.00 1584.00 L 854.00 1583.00 L 994.00 1583.00 L 1014.00 1582.00 L 1154.00 1582.00 L 1174.00 1581.00 L 1314.00 1581.00 L 1334.00 1580.00 L 1474.00 1580.00 L 1494.00 1579.00 L 1514.00 1599.00 L 1534.00 1579.00 L 1634.00 1579.00 L 1654.00 1578.00 L 1674.00 1598.00 L 1694.00 1598.00 L 1714.00 1578.00 L 1814.00 1578.00 L 1834.00 1577.00 L 1974.00 1577.00 L 1994.00 1576.00 L 2134.00 1576.00 L 2154.00 1575.00 L 2294.00 1575.00 L 2314.00 1574.00 L 2430.75 1574.00 L 2412.00 1479.00 L 2410.88 1467.00 Z" />
<path id="csg562-039-08" fill="none" stroke="black" stroke-width="1" d="M 2314.00 1574.00 L 2294.00 1575.00 L 2154.00 1575.00 L 2134.00 1576.00 L 1994.00 1576.00 L 1974.00 1577.00 L 1834.00 1577.00 L 1814.00 1578.00 L 1714.00 1578.00 L 1694.00 1598.00 L 1674.00 1598.00 L 1654.00 1578.00 L 1634.00 1579.00 L 1534.00 1579.00 L 1514.00 1599.00 L 1494.00 1579.00 L 1474.00 1580.00 L 1334.00 1580.00 L 1314.00 1581.00 L 1174.00 1581.00 L 1154.00 1582.00 L 1014.00 1582.00 L 994.00 1583.00 L 854.00 1583.00 L 834.00 1584.00 L 694.00 1584.00 L 674.00 1585.00 L 534.00 1585.00 L 514.00 1586.00 L 389.40 1586.00 L 391.86 1713.86 L 394.00 1716.00 L 414.00 1716.00 L 434.00 1696.00 L 1094.00 1696.00 L 1114.00 1695.00 L 1854.00 1695.00 L 1874.00 1694.00 L 1934.00 1694.00 L 1954.00 1714.00 L 1974.00 1714.00 L 1994.00 1694.00 L 2454.43 1694.00 L 2430.75 1574.00 Z" />
<path id="csg562-039-09" fill="none" stroke="black" stroke-width="1" d="M 1874.00 1694.00 L 1854.00 1695.00 L 1114.00 1695.00 L 1094.00 1696.00 L 434.00 1696.00 L 414.00 1716.00 L 394.00 1716.00 L 391.86 1713.86 L 393.65 1807.00 L 774.00 1807.00 L 794.00 1806.00 L 954.00 1806.00 L 974.00 1826.00 L 994.00 1806.00 L 1194.00 1806.00 L 1214.00 1805.00 L 1314.00 1805.00 L 1334.00 1785.00 L 1374.00 1785.00 L 1394.00 1805.00 L 1614.00 1805.00 L 1634.00 1804.00 L 2034.00 1804.00 L 2054.00 1803.00 L 2454.00 1803.00 L 2461.35 1802.63 L 2457.00 1707.00 L 2454.43 1694.00 L 1994.00 1694.00 L 1974.00 1714.00 L 1954.00 1714.00 L 1934.00 1694.00 Z" />
<path id="csg562-039-10" fill="none" stroke="black" stroke-width="1" d="M 1334.00 1785.00 L 1314.00 1805.00 L 1214.00 1805.00 L 1194.00 1806.00 L 994.00 1806.00 L 974.00 1826.00 L 954.00 1806.00 L 794.00 1806.00 L 774.00 1807.00 L 393.65 1807.00 L 395.73 1915.00 L 594.00 1915.00 L 614.00 1914.00 L 834.00 1914.00 L 854.00 1913.00 L 1074.00 1913.00 L 1094.00 1912.00 L 1314.00 1912.00 L 1334.00 1911.00 L 1554.00 1911.00 L 1574.00 1910.00 L 1794.00 1910.00 L 1814.00 1909.00 L 2054.00 1909.00 L 2074.00 1908.00 L 2294.00 1908.00 L 2314.00 1907.00 L 2466.09 1907.00 L 2461.35 1802.63 L 2454.00 1803.00 L 2054.00 1803.00 L 2034.00 1804.00 L 1634.00 1804.00 L 1614.00 1805.00 L 1394.00 1805.00 L 1374.00 1785.00 Z" />
<path id="csg562-039-11" fill="none" stroke="black" stroke-width="1" d="M 2314.00 1907.00 L 2294.00 1908.00 L 2074.00 1908.00 L 2054.00 1909.00 L 1814.00 1909.00 L 1794.00 1910.00 L 1574.00 1910.00 L 1554.00 1911.00 L 1334.00 1911.00 L 1314.00 1912.00 L 1094.00 1912.00 L 1074.00 1913.00 L 854.00 1913.00 L 834.00 1914.00 L 614.00 1914.00 L 594.00 1915.00 L 395.73 1915.00 L 396.00 1929.00 L 354.00 1995.00 L 355.25 2034.31 L 374.00 2024.00 L 594.00 2024.00 L 614.00 2023.00 L 714.00 2023.00 L 734.00 2043.00 L 754.00 2023.00 L 834.00 2023.00 L 854.00 2022.00 L 1074.00 2022.00 L 1094.00 2021.00 L 1314.00 2021.00 L 1334.00 2020.00 L 1554.00 2020.00 L 1574.00 2019.00 L 1794.00 2019.00 L 1814.00 2018.00 L 2034.00 2018.00 L 2054.00 2017.00 L 2134.00 2017.00 L 2154.00 2037.00 L 2174.00 2017.00 L 2274.00 2017.00 L 2294.00 2016.00 L 2414.00 2016.00 L 2434.00 2036.00 L 2454.00 2016.00 L 2458.84 2016.00 L 2469.00 1971.00 L 2466.09 1907.00 Z" />
<path id="csg562-039-12" fill="none" stroke="black" stroke-width="1" d="M 2294.00 2016.00 L 2274.00 2017.00 L 2174.00 2017.00 L 2154.00 2037.00 L 2134.00 2017.00 L 2054.00 2017.00 L 2034.00 2018.00 L 1814.00 2018.00 L 1794.00 2019.00 L 1574.00 2019.00 L 1554.00 2020.00 L 1334.00 2020.00 L 1314.00 2021.00 L 1094.00 2021.00 L 1074.00 2022.00 L 854.00 2022.00 L 834.00 2023.00 L 754.00 2023.00 L 734.00 2043.00 L 714.00 2023.00 L 614.00 2023.00 L 594.00 2024.00 L 374.00 2024.00 L 355.25 2034.31 L 358.82 2146.35 L 374.00 2138.00 L 494.00 2138.00 L 514.00 2137.00 L 634.00 2137.00 L 654.00 2136.00 L 774.00 2136.00 L 794.00 2135.00 L 934.00 2135.00 L 954.00 2114.00 L 974.00 2134.00 L 1074.00 2134.00 L 1094.00 2133.00 L 1214.00 2133.00 L 1234.00 2132.00 L 1254.00 2152.00 L 1274.00 2152.00 L 1294.00 2132.00 L 1354.00 2132.00 L 1374.00 2131.00 L 1514.00 2131.00 L 1534.00 2130.00 L 1654.00 2130.00 L 1674.00 2129.00 L 1794.00 2129.00 L 1814.00 2128.00 L 1934.00 2128.00 L 1954.00 2127.00 L 2094.00 2127.00 L 2114.00 2126.00 L 2234.00 2126.00 L 2254.00 2125.00 L 2374.00 2125.00 L 2394.00 2124.00 L 2434.45 2124.00 L 2458.84 2016.00 L 2454.00 2016.00 L 2434.00 2036.00 L 2414.00 2016.00 Z" />
<path id="csg562-039-13" fill="none" stroke="black" stroke-width="1" d="M 954.00 2114.00 L 934.00 2135.00 L 794.00 2135.00 L 774.00 2136.00 L 654.00 2136.00 L 634.00 2137.00 L 514.00 2137.00 L 494.00 2138.00 L 374.00 2138.00 L 358.82 2146.35 L 362.64 2266.25 L 374.00 2260.00 L 474.00 2260.00 L 494.00 2259.00 L 594.00 2259.00 L 614.00 2258.00 L 714.00 2258.00 L 734.00 2257.00 L 834.00 2257.00 L 854.00 2256.00 L 954.00 2256.00 L 974.00 2255.00 L 1074.00 2255.00 L 1094.00 2254.00 L 1194.00 2254.00 L 1214.00 2253.00 L 1314.00 2253.00 L 1334.00 2252.00 L 1354.00 2252.00 L 1374.00 2272.00 L 1414.00 2272.00 L 1434.00 2252.00 L 1454.00 2252.00 L 1474.00 2251.00 L 1574.00 2251.00 L 1594.00 2250.00 L 1694.00 2250.00 L 1714.00 2249.00 L 1814.00 2249.00 L 1834.00 2248.00 L 1874.00 2248.00 L 1894.00 2268.00 L 1914.00 2248.00 L 1934.00 2248.00 L 1954.00 2247.00 L 2054.00 2247.00 L 2074.00 2246.00 L 2114.00 2246.00 L 2134.00 2266.00 L 2154.00 2246.00 L 2174.00 2246.00 L 2194.00 2245.00 L 2294.00 2245.00 L 2314.00 2244.00 L 2407.35 2244.00 L 2434.45 2124.00 L 2394.00 2124.00 L 2374.00 2125.00 L 2254.00 2125.00 L 2234.00 2126.00 L 2114.00 2126.00 L 2094.00 2127.00 L 1954.00 2127.00 L 1934.00 2128.00 L 1814.00 2128.00 L 1794.00 2129.00 L 1674.00 2129.00 L 1654.00 2130.00 L 1534.00 2130.00 L 1514.00 2131.00 L 1374.00 2131.00 L 1354.00 2132.00 L 1294.00 2132.00 L 1274.00 2152.00 L 1254.00 2152.00 L 1234.00 2132.00 L 1214.00 2133.00 L 1094.00 2133.00 L 1074.00 2134.00 L 974.00 2134.00 L 954.00 2114.00 Z" />
<path id="csg562-039-14" fill="none" stroke="black" stroke-width="1" d="M 2314.00 2244.00 L 2294.00 2245.00 L 2194.00 2245.00 L 2174.00 2246.00 L 2154.00 2246.00 L 2134.00 2266.00 L 2114.00 2246.00 L 2074.00 2246.00 L 2054.00 2247.00 L 1954.00 2247.00 L 1934.00 2248.00 L 1914.00 2248.00 L 1894.00 2268.00 L 1874.00 2248.00 L 1834.00 2248.00 L 1814.00 2249.00 L 1714.00 2249.00 L 1694.00 2250.00 L 1594.00 2250.00 L 1574.00 2251.00 L 1474.00 2251.00 L 1454.00 2252.00 L 1434.00 2252.00 L 1414.00 2272.00 L 1374.00 2272.00 L 1354.00 2252.00 L 1334.00 2252.00 L 1314.00 2253.00 L 1214.00 2253.00 L 1194.00 2254.00 L 1094.00 2254.00 L 1074.00 2255.00 L 974.00 2255.00 L 954.00 2256.00 L 854.00 2256.00 L 834.00 2257.00 L 734.00 2257.00 L 714.00 2258.00 L 614.00 2258.00 L 594.00 2259.00 L 494.00 2259.00 L 474.00 2260.00 L 374.00 2260.00 L 362.64 2266.25 L 365.89 2368.46 L 374.00 2364.00 L 474.00 2364.00 L 494.00 2363.00 L 614.00 2363.00 L 634.00 2362.00 L 734.00 2362.00 L 754.00 2361.00 L 814.00 2361.00 L 834.00 2381.00 L 854.00 2361.00 L 874.00 2361.00 L 894.00 2360.00 L 994.00 2360.00 L 1014.00 2359.00 L 1134.00 2359.00 L 1154.00 2358.00 L 1254.00 2358.00 L 1274.00 2357.00 L 1394.00 2357.00 L 1414.00 2356.00 L 1514.00 2356.00 L 1534.00 2355.00 L 1654.00 2355.00 L 1674.00 2354.00 L 1774.00 2354.00 L 1794.00 2353.00 L 1914.00 2353.00 L 1934.00 2352.00 L 2034.00 2352.00 L 2054.00 2351.00 L 2114.00 2351.00 L 2134.00 2331.00 L 2154.00 2351.00 L 2174.00 2351.00 L 2194.00 2350.00 L 2254.00 2350.00 L 2274.00 2370.00 L 2294.00 2350.00 L 2314.00 2349.00 L 2434.00 2349.00 L 2454.00 2348.00 L 2476.69 2348.00 L 2406.00 2250.00 L 2407.35 2244.00 Z" />
<path id="csg562-039-15" fill="none" stroke="black" stroke-width="1" d="M 2134.00 2331.00 L 2114.00 2351.00 L 2054.00 2351.00 L 2034.00 2352.00 L 1934.00 2352.00 L 1914.00 2353.00 L 1794.00 2353.00 L 1774.00 2354.00 L 1674.00 2354.00 L 1654.00 2355.00 L 1534.00 2355.00 L 1514.00 2356.00 L 1414.00 2356.00 L 1394.00 2357.00 L 1274.00 2357.00 L 1254.00 2358.00 L 1154.00 2358.00 L 1134.00 2359.00 L 1014.00 2359.00 L 994.00 2360.00 L 894.00 2360.00 L 874.00 2361.00 L 854.00 2361.00 L 834.00 2381.00 L 814.00 2361.00 L 754.00 2361.00 L 734.00 2362.00 L 634.00 2362.00 L 614.00 2363.00 L 494.00 2363.00 L 474.00 2364.00 L 374.00 2364.00 L 365.89 2368.46 L 369.00 2466.00 L 369.83 2486.29 L 374.00 2484.00 L 474.00 2484.00 L 494.00 2483.00 L 594.00 2483.00 L 614.00 2482.00 L 714.00 2482.00 L 734.00 2481.00 L 834.00 2481.00 L 854.00 2480.00 L 954.00 2480.00 L 974.00 2499.00 L 994.00 2479.00 L 1074.00 2479.00 L 1094.00 2478.00 L 1214.00 2478.00 L 1234.00 2477.00 L 1254.00 2477.00 L 1274.00 2497.00 L 1294.00 2497.00 L 1314.00 2477.00 L 1334.00 2477.00 L 1354.00 2476.00 L 1454.00 2476.00 L 1474.00 2475.00 L 1574.00 2475.00 L 1594.00 2474.00 L 1694.00 2474.00 L 1714.00 2473.00 L 1754.00 2473.00 L 1774.00 2493.00 L 1794.00 2493.00 L 1814.00 2473.00 L 1834.00 2472.00 L 1954.00 2472.00 L 1974.00 2471.00 L 2074.00 2471.00 L 2094.00 2470.00 L 2194.00 2470.00 L 2214.00 2469.00 L 2314.00 2469.00 L 2334.00 2468.00 L 2434.00 2468.00 L 2454.00 2467.00 L 2474.00 2487.00 L 2514.00 2487.00 L 2521.95 2479.05 L 2538.00 2433.00 L 2476.69 2348.00 L 2454.00 2348.00 L 2434.00 2349.00 L 2314.00 2349.00 L 2294.00 2350.00 L 2274.00 2370.00 L 2254.00 2350.00 L 2194.00 2350.00 L 2174.00 2351.00 L 2154.00 2351.00 L 2134.00 2331.00 Z" />
<path id="csg562-039-16" fill="none" stroke="black" stroke-width="1" d="M 2454.00 2467.00 L 2434.00 2468.00 L 2334.00 2468.00 L 2314.00 2469.00 L 2214.00 2469.00 L 2194.00 2470.00 L 2094.00 2470.00 L 2074.00 2471.00 L 1974.00 2471.00 L 1954.00 2472.00 L 1834.00 2472.00 L 1814.00 2473.00 L 1794.00 2493.00 L 1774.00 2493.00 L 1754.00 2473.00 L 1714.00 2473.00 L 1694.00 2474.00 L 1594.00 2474.00 L 1574.00 2475.00 L 1474.00 2475.00 L 1454.00 2476.00 L 1354.00 2476.00 L 1334.00 2477.00 L 1314.00 2477.00 L 1294.00 2497.00 L 1274.00 2497.00 L 1254.00 2477.00 L 1234.00 2477.00 L 1214.00 2478.00 L 1094.00 2478.00 L 1074.00 2479.00 L 994.00 2479.00 L 974.00 2499.00 L 954.00 2480.00 L 854.00 2480.00 L 834.00 2481.00 L 734.00 2481.00 L 714.00 2482.00 L 614.00 2482.00 L 594.00 2483.00 L 494.00 2483.00 L 474.00 2484.00 L 374.00 2484.00 L 369.83 2486.29 L 374.06 2590.00 L 714.00 2590.00 L 734.00 2589.00 L 1074.00 2589.00 L 1094.00 2588.00 L 1434.00 2588.00 L 1454.00 2587.00 L 1794.00 2587.00 L 1814.00 2586.00 L 2154.00 2586.00 L 2174.00 2585.00 L 2485.03 2585.00 L 2521.95 2479.05 L 2514.00 2487.00 L 2474.00 2487.00 L 2454.00 2467.00 Z" />
<path id="csg562-039-17" fill="none" stroke="black" stroke-width="1" d="M 2174.00 2585.00 L 2154.00 2586.00 L 1814.00 2586.00 L 1794.00 2587.00 L 1454.00 2587.00 L 1434.00 2588.00 L 1094.00 2588.00 L 1074.00 2589.00 L 734.00 2589.00 L 714.00 2590.00 L 374.06 2590.00 L 378.67 2703.00 L 894.00 2703.00 L 914.00 2702.00 L 1434.00 2702.00 L 1454.00 2701.00 L 1974.00 2701.00 L 1994.00 2700.00 L 2425.56 2700.00 L 2469.00 2631.00 L 2485.03 2585.00 Z" />
<path id="csg562-039-18" fill="none" stroke="black" stroke-width="1" d="M 1994.00 2700.00 L 1974.00 2701.00 L 1454.00 2701.00 L 1434.00 2702.00 L 914.00 2702.00 L 894.00 2703.00 L 378.67 2703.00 L 383.16 2813.00 L 514.00 2813.00 L 534.00 2812.00 L 694.00 2812.00 L 714.00 2811.00 L 874.00 2811.00 L 894.00 2810.00 L 1034.00 2810.00 L 1054.00 2809.00 L 1214.00 2809.00 L 1234.00 2808.00 L 1374.00 2808.00 L 1394.00 2788.00 L 1414.00 2787.00 L 1454.00 2787.00 L 1474.00 2807.00 L 1574.00 2807.00 L 1594.00 2806.00 L 1734.00 2806.00 L 1754.00 2805.00 L 1914.00 2805.00 L 1934.00 2804.00 L 2094.00 2804.00 L 2114.00 2803.00 L 2274.00 2803.00 L 2294.00 2802.00 L 2434.00 2802.00 L 2454.00 2801.00 L 2528.19 2801.00 L 2418.00 2712.00 L 2425.56 2700.00 Z" />
<path id="csg562-039-19" fill="none" stroke="black" stroke-width="1" d="M 1414.00 2787.00 L 1394.00 2788.00 L 1374.00 2808.00 L 1234.00 2808.00 L 1214.00 2809.00 L 1054.00 2809.00 L 1034.00 2810.00 L 894.00 2810.00 L 874.00 2811.00 L 714.00 2811.00 L 694.00 2812.00 L 534.00 2812.00 L 514.00 2813.00 L 383.16 2813.00 L 387.00 2907.00 L 386.14 2915.00 L 514.00 2915.00 L 534.00 2914.00 L 674.00 2914.00 L 694.00 2913.00 L 834.00 2913.00 L 854.00 2912.00 L 994.00 2912.00 L 1014.00 2911.00 L 1154.00 2911.00 L 1174.00 2910.00 L 1314.00 2910.00 L 1334.00 2909.00 L 1474.00 2909.00 L 1494.00 2908.00 L 1634.00 2908.00 L 1654.00 2907.00 L 1794.00 2907.00 L 1814.00 2906.00 L 1954.00 2906.00 L 1974.00 2905.00 L 2114.00 2905.00 L 2134.00 2904.00 L 2274.00 2904.00 L 2294.00 2903.00 L 2434.00 2903.00 L 2454.00 2902.00 L 2562.43 2902.00 L 2574.00 2838.00 L 2528.19 2801.00 L 2454.00 2801.00 L 2434.00 2802.00 L 2294.00 2802.00 L 2274.00 2803.00 L 2114.00 2803.00 L 2094.00 2804.00 L 1934.00 2804.00 L 1914.00 2805.00 L 1754.00 2805.00 L 1734.00 2806.00 L 1594.00 2806.00 L 1574.00 2807.00 L 1474.00 2807.00 L 1454.00 2787.00 Z" />
<path id="csg562-039-20" fill="none" stroke="black" stroke-width="1" d="M 2454.00 2902.00 L 2434.00 2903.00 L 2294.00 2903.00 L 2274.00 2904.00 L 2134.00 2904.00 L 2114.00 2905.00 L 1974.00 2905.00 L 1954.00 2906.00 L 1814.00 2906.00 L 1794.00 2907.00 L 1654.00 2907.00 L 1634.00 2908.00 L 1494.00 2908.00 L 1474.00 2909.00 L 1334.00 2909.00 L 1314.00 2910.00 L 1174.00 2910.00 L 1154.00 2911.00 L 1014.00 2911.00 L 994.00 2912.00 L 854.00 2912.00 L 834.00 2913.00 L 694.00 2913.00 L 674.00 2914.00 L 534.00 2914.00 L 514.00 2915.00 L 386.14 2915.00 L 373.05 3036.52 L 374.00 3036.00 L 554.00 3036.00 L 574.00 3035.00 L 754.00 3035.00 L 774.00 3034.00 L 954.00 3034.00 L 974.00 3033.00 L 1154.00 3033.00 L 1174.00 3032.00 L 1354.00 3032.00 L 1374.00 3031.00 L 1554.00 3031.00 L 1574.00 3030.00 L 1754.00 3030.00 L 1774.00 3029.00 L 1974.00 3029.00 L 1994.00 3028.00 L 2174.00 3028.00 L 2194.00 3027.00 L 2374.00 3027.00 L 2394.00 3026.00 L 2540.02 3026.00 L 2562.43 2902.00 Z" />
<path id="csg562-039-21" fill="none" stroke="black" stroke-width="1" d="M 2394.00 3026.00 L 2374.00 3027.00 L 2194.00 3027.00 L 2174.00 3028.00 L 1994.00 3028.00 L 1974.00 3029.00 L 1774.00 3029.00 L 1754.00 3030.00 L 1574.00 3030.00 L 1554.00 3031.00 L 1374.00 3031.00 L 1354.00 3032.00 L 1174.00 3032.00 L 1154.00 3033.00 L 974.00 3033.00 L 954.00 3034.00 L 774.00 3034.00 L 754.00 3035.00 L 574.00 3035.00 L 554.00 3036.00 L 374.00 3036.00 L 373.05 3036.52 L 366.00 3102.00 L 369.22 3145.63 L 374.00 3143.00 L 634.00 3143.00 L 654.00 3142.00 L 914.00 3142.00 L 934.00 3141.00 L 1194.00 3141.00 L 1214.00 3140.00 L 1474.00 3140.00 L 1494.00 3139.00 L 1754.00 3139.00 L 1774.00 3138.00 L 2054.00 3138.00 L 2074.00 3137.00 L 2334.00 3137.00 L 2354.00 3136.00 L 2475.10 3136.00 L 2529.00 3087.00 L 2540.02 3026.00 Z" />
<path id="csg562-039-22" fill="none" stroke="black" stroke-width="1" d="M 2354.00 3136.00 L 2334.00 3137.00 L 2074.00 3137.00 L 2054.00 3138.00 L 1774.00 3138.00 L 1754.00 3139.00 L 1494.00 3139.00 L 1474.00 3140.00 L 1214.00 3140.00 L 1194.00 3141.00 L 934.00 3141.00 L 914.00 3142.00 L 654.00 3142.00 L 634.00 3143.00 L 374.00 3143.00 L 369.22 3145.63 L 377.21 3254.00 L 454.00 3254.00 L 474.00 3253.00 L 554.00 3253.00 L 574.00 3252.00 L 654.00 3252.00 L 674.00 3251.00 L 774.00 3251.00 L 794.00 3250.00 L 874.00 3250.00 L 894.00 3249.00 L 974.00 3249.00 L 994.00 3248.00 L 1014.00 3268.00 L 1034.00 3248.00 L 1094.00 3248.00 L 1114.00 3247.00 L 1194.00 3247.00 L 1214.00 3246.00 L 1294.00 3246.00 L 1314.00 3245.00 L 1414.00 3245.00 L 1434.00 3244.00 L 1454.00 3244.00 L 1474.00 3264.00 L 1494.00 3264.00 L 1514.00 3244.00 L 1534.00 3243.00 L 1614.00 3243.00 L 1634.00 3242.00 L 1734.00 3242.00 L 1754.00 3241.00 L 1834.00 3241.00 L 1854.00 3240.00 L 1934.00 3240.00 L 1954.00 3239.00 L 2054.00 3239.00 L 2074.00 3238.00 L 2154.00 3238.00 L 2174.00 3237.00 L 2254.00 3237.00 L 2274.00 3236.00 L 2294.00 3256.00 L 2314.00 3236.00 L 2354.00 3236.00 L 2374.00 3235.00 L 2474.00 3235.00 L 2494.00 3234.00 L 2574.00 3234.00 L 2594.00 3233.00 L 2670.66 3233.00 L 2463.00 3147.00 L 2475.10 3136.00 Z" />
<path id="csg562-039-23" fill="none" stroke="black" stroke-width="1" d="M 2594.00 3233.00 L 2574.00 3234.00 L 2494.00 3234.00 L 2474.00 3235.00 L 2374.00 3235.00 L 2354.00 3236.00 L 2314.00 3236.00 L 2294.00 3256.00 L 2274.00 3236.00 L 2254.00 3237.00 L 2174.00 3237.00 L 2154.00 3238.00 L 2074.00 3238.00 L 2054.00 3239.00 L 1954.00 3239.00 L 1934.00 3240.00 L 1854.00 3240.00 L 1834.00 3241.00 L 1754.00 3241.00 L 1734.00 3242.00 L 1634.00 3242.00 L 1614.00 3243.00 L 1534.00 3243.00 L 1514.00 3244.00 L 1494.00 3264.00 L 1474.00 3264.00 L 1454.00 3244.00 L 1434.00 3244.00 L 1414.00 3245.00 L 1314.00 3245.00 L 1294.00 3246.00 L 1214.00 3246.00 L 1194.00 3247.00 L 1114.00 3247.00 L 1094.00 3248.00 L 1034.00 3248.00 L 1014.00 3268.00 L 994.00 3248.00 L 974.00 3249.00 L 894.00 3249.00 L 874.00 3250.00 L 794.00 3250.00 L 774.00 3251.00 L 674.00 3251.00 L 654.00 3252.00 L 574.00 3252.00 L 554.00 3253.00 L 474.00 3253.00 L 454.00 3254.00 L 377.21 3254.00 L 385.25 3363.00 L 494.00 3363.00 L 514.00 3362.00 L 654.00 3362.00 L 674.00 3361.00 L 814.00 3361.00 L 834.00 3360.00 L 954.00 3360.00 L 974.00 3359.00 L 1114.00 3359.00 L 1134.00 3358.00 L 1154.00 3338.00 L 1194.00 3338.00 L 1214.00 3358.00 L 1234.00 3358.00 L 1254.00 3378.00 L 1274.00 3358.00 L 1294.00 3357.00 L 1434.00 3357.00 L 1454.00 3356.00 L 1494.00 3356.00 L 1514.00 3376.00 L 1534.00 3376.00 L 1554.00 3356.00 L 1574.00 3356.00 L 1594.00 3355.00 L 1654.00 3355.00 L 1674.00 3375.00 L 1694.00 3355.00 L 1734.00 3355.00 L 1754.00 3354.00 L 1894.00 3354.00 L 1914.00 3353.00 L 2054.00 3353.00 L 2074.00 3352.00 L 2194.00 3352.00 L 2214.00 3351.00 L 2354.00 3351.00 L 2374.00 3350.00 L 2514.00 3350.00 L 2534.00 3349.00 L 2615.67 3349.00 L 2769.00 3339.00 L 2760.00 3270.00 L 2670.66 3233.00 Z" />
<path id="csg562-039-24" fill="none" stroke="black" stroke-width="1" d="M 1154.00 3338.00 L 1134.00 3358.00 L 1114.00 3359.00 L 974.00 3359.00 L 954.00 3360.00 L 834.00 3360.00 L 814.00 3361.00 L 674.00 3361.00 L 654.00 3362.00 L 514.00 3362.00 L 494.00 3363.00 L 385.25 3363.00 L 393.00 3468.00 L 777.00 3468.00 L 895.12 3477.00 L 974.00 3477.00 L 994.00 3476.00 L 1094.00 3476.00 L 1112.32 3489.74 L 1116.26 3489.30 L 1134.00 3476.00 L 1194.00 3476.00 L 1214.00 3475.00 L 1245.00 3475.00 L 1362.00 3462.00 L 1416.67 3474.00 L 1555.71 3474.00 L 1584.00 3468.00 L 2487.00 3456.00 L 2433.00 3375.00 L 2493.00 3357.00 L 2615.67 3349.00 L 2534.00 3349.00 L 2514.00 3350.00 L 2374.00 3350.00 L 2354.00 3351.00 L 2214.00 3351.00 L 2194.00 3352.00 L 2074.00 3352.00 L 2054.00 3353.00 L 1914.00 3353.00 L 1894.00 3354.00 L 1754.00 3354.00 L 1734.00 3355.00 L 1694.00 3355.00 L 1674.00 3375.00 L 1654.00 3355.00 L 1594.00 3355.00 L 1574.00 3356.00 L 1554.00 3356.00 L 1534.00 3376.00 L 1514.00 3376.00 L 1494.00 3356.00 L 1454.00 3356.00 L 1434.00 3357.00 L 1294.00 3357.00 L 1274.00 3358.00 L 1254.00 3378.00 L 1234.00 3358.00 L 1214.00 3358.00 L 1194.00 3338.00 Z" />
</svg>
