<?xml version="1.0" standalone="no"?>
<!DOCTYPE svg PUBLIC "-//W3C//DTD SVG 1.1//EN" "http://www.w3.org/Graphics/SVG/1.1/DTD/svg11.dtd">
<svg width="46.22222in" height="69.333336in" viewBox="0 0 3328 4992" xmlns="http://www.w3.org/2000/svg" version="1.1">
<path id="csg562-024-01" fill="none" stroke="black" stroke-width="1" d="M 1109.73 830.49 L 876.00 849.00 L 858.00 921.00 L 921.00 930.00 L 921.48 934.00 L 940.00 934.00 L 960.00 935.00 L 1000.00 935.00 L 1020.00 936.00 L 1040.00 936.00 L 1060.00 937.00 L 1100.00 937.00 L 1120.00 938.00 L 1160.00 938.00 L 1180.00 939.00 L 1220.00 939.00 L 1240.00 940.00 L 1260.00 940.00 L 1280.00 941.00 L 1320.00 941.00 L 1340.00 942.00 L 1380.00 942.00 L 1400.00 943.00 L 1440.00 943.00 L 1460.00 944.00 L 1480.00 944.00 L 1500.00 945.00 L 1540.00 945.00 L 1560.00 946.00 L 1600.00 946.00 L 1620.00 947.00 L 1660.00 947.00 L 1680.00 948.00 L 1700.00 948.00 L 1720.00 949.00 L 1760.00 949.00 L 1780.00 950.00 L 1820.00 950.00 L 1840.00 951.00 L 1880.00 951.00 L 1900.00 952.00 L 1920.00 952.00 L 1940.00 953.00 L 1980.00 953.00 L 2000.00 954.00 L 2040.00 954.00 L 2060.00 955.00 L 2100.00 955.00 L 2120.00 956.00 L 2140.00 956.00 L 2160.00 957.00 L 2200.00 957.00 L 2220.00 958.00 L 2260.00 958.00 L 2280.00 959.00 L 2320.00 959.00 L 2340.00 960.00 L 2360.00 960.00 L 2380.00 961.00 L 2420.00 961.00 L 2440.00 962.00 L 2480.00 962.00 L 2500.00 963.00 L 2540.00 963.00 L 2560.00 964.00 L 2580.00 964.00 L 2600.00 965.00 L 2640.00 965.00 L 2660.00 966.00 L 2700.00 966.00 L 2720.00 967.00 L 2740.00 967.00 L 2760.00 968.00 L 2800.00 968.00 L 2820.00 969.00 L 2860.00 969.00 L 2880.00 970.00 L 2920.00 970.00 L 2940.00 971.00 L 2941.91 971.00 L 3036.00 882.00 L 3011.92 865.00 L 2980.00 865.00 L 2960.00 864.00 L 2940.00 864.00 L 2920.00 863.00 L 2880.00 863.00 L 2860.00 862.00 L 2820.00 862.00 L 2800.00 861.00 L 2760.00 861.00 L 2740.00 860.00 L 2720.00 860.00 L 2719.49 859.97 L 2472.00 873.00 L 2354.50 853.00 L 2340.00 853.00 L 2320.00 852.00 L 2280.00 852.00 L 2264.40 851.22 L 1881.00 864.00 L 1838.88 843.94 L 1820.00 843.00 L 1780.00 843.00 L 1760.00 842.00 L 1720.00 842.00 L 1700.00 841.00 L 1680.00 841.00 L 1660.87 840.04 L 1272.00 855.00 L 1200.70 832.00 L 1180.00 832.00 L 1160.00 831.00 L 1120.00 831.00 L 1109.73 830.49 Z" />
<path id="csg562-024-02" fill="none" stroke="black" stroke-width="1" d="M 921.48 934.00 L 935.29 1050.00 L 960.00 1050.00 L 980.00 1051.00 L 1040.00 1051.00 L 1060.00 1052.00 L 1100.00 1052.00 L 1120.00 1053.00 L 1160.00 1053.00 L 1180.00 1054.00 L 1240.00 1054.00 L 1260.00 1055.00 L 1300.00 1055.00 L 1320.00 1056.00 L 1380.00 1056.00 L 1400.00 1057.00 L 1440.00 1057.00 L 1460.00 1058.00 L 1500.00 1058.00 L 1520.00 1059.00 L 1580.00 1059.00 L 1600.00 1060.00 L 1640.00 1060.00 L 1660.00 1061.00 L 1720.00 1061.00 L 1740.00 1062.00 L 1780.00 1062.00 L 1800.00 1063.00 L 1840.00 1063.00 L 1860.00 1064.00 L 1920.00 1064.00 L 1940.00 1065.00 L 1980.00 1065.00 L 2000.00 1066.00 L 2060.00 1066.00 L 2080.00 1067.00 L 2120.00 1067.00 L 2140.00 1068.00 L 2180.00 1068.00 L 2200.00 1069.00 L 2260.00 1069.00 L 2280.00 1070.00 L 2320.00 1070.00 L 2340.00 1071.00 L 2380.00 1071.00 L 2400.00 1072.00 L 2460.00 1072.00 L 2480.00 1073.00 L 2520.00 1073.00 L 2540.00 1074.00 L 2600.00 1074.00 L 2620.00 1075.00 L 2660.00 1075.00 L 2680.00 1076.00 L 2720.00 1076.00 L 2740.00 1077.00 L 2800.00 1077.00 L 2820.00 1078.00 L 2860.00 1078.00 L 2880.00 1079.00 L 2927.24 1079.00 L 2925.00 987.00 L 2941.91 971.00 L 2940.00 971.00 L 2920.00 970.00 L 2880.00 970.00 L 2860.00 969.00 L 2820.00 969.00 L 2800.00 968.00 L 2760.00 968.00 L 2740.00 967.00 L 2720.00 967.00 L 2700.00 966.00 L 2660.00 966.00 L 2640.00 965.00 L 2600.00 965.00 L 2580.00 964.00 L 2560.00 964.00 L 2540.00 963.00 L 2500.00 963.00 L 2480.00 962.00 L 2440.00 962.00 L 2420.00 961.00 L 2380.00 961.00 L 2360.00 960.00 L 2340.00 960.00 L 2320.00 959.00 L 2280.00 959.00 L 2260.00 958.00 L 2220.00 958.00 L 2200.00 957.00 L 2160.00 957.00 L 2140.00 956.00 L 2120.00 956.00 L 2100.00 955.00 L 2060.00 955.00 L 2040.00 954.00 L 2000.00 954.00 L 1980.00 953.00 L 1940.00 953.00 L 1920.00 952.00 L 1900.00 952.00 L 1880.00 951.00 L 1840.00 951.00 L 1820.00 950.00 L 1780.00 950.00 L 1760.00 949.00 L 1720.00 949.00 L 1700.00 948.00 L 1680.00 948.00 L 1660.00 947.00 L 1620.00 947.00 L 1600.00 946.00 L 1560.00 946.00 L 1540.00 945.00 L 1500.00 945.00 L 1480.00 944.00 L 1460.00 944.00 L 1440.00 943.00 L 1400.00 943.00 L 1380.00 942.00 L 1340.00 942.00 L 1320.00 941.00 L 1280.00 941.00 L 1260.00 940.00 L 1240.00 940.00 L 1220.00 939.00 L 1180.00 939.00 L 1160.00 938.00 L 1120.00 938.00 L 1100.00 937.00 L 1060.00 937.00 L 1040.00 936.00 L 1020.00 936.00 L 1000.00 935.00 L 960.00 935.00 L 940.00 934.00 Z" />
<path id="csg562-024-03" fill="none" stroke="black" stroke-width="1" d="M 935.29 1050.00 L 936.00 1056.00 L 864.00 1131.00 L 865.25 1166.00 L 940.00 1166.00 L 960.00 1167.00 L 1060.00 1167.00 L 1080.00 1168.00 L 1160.00 1168.00 L 1180.00 1169.00 L 1280.00 1169.00 L 1300.00 1170.00 L 1400.00 1170.00 L 1420.00 1171.00 L 1480.00 1171.00 L 1500.00 1151.00 L 1520.00 1152.00 L 1540.00 1152.00 L 1560.00 1172.00 L 1620.00 1172.00 L 1640.00 1173.00 L 1740.00 1173.00 L 1760.00 1174.00 L 1840.00 1174.00 L 1860.00 1175.00 L 1960.00 1175.00 L 1980.00 1176.00 L 2080.00 1176.00 L 2100.00 1177.00 L 2180.00 1177.00 L 2200.00 1178.00 L 2300.00 1178.00 L 2320.00 1179.00 L 2400.00 1179.00 L 2420.00 1180.00 L 2520.00 1180.00 L 2540.00 1181.00 L 2640.00 1181.00 L 2660.00 1182.00 L 2740.00 1182.00 L 2760.00 1183.00 L 2860.00 1183.00 L 2880.00 1184.00 L 2965.00 1184.00 L 2928.00 1110.00 L 2927.24 1079.00 L 2880.00 1079.00 L 2860.00 1078.00 L 2820.00 1078.00 L 2800.00 1077.00 L 2740.00 1077.00 L 2720.00 1076.00 L 2680.00 1076.00 L 2660.00 1075.00 L 2620.00 1075.00 L 2600.00 1074.00 L 2540.00 1074.00 L 2520.00 1073.00 L 2480.00 1073.00 L 2460.00 1072.00 L 2400.00 1072.00 L 2380.00 1071.00 L 2340.00 1071.00 L 2320.00 1070.00 L 2280.00 1070.00 L 2260.00 1069.00 L 2200.00 1069.00 L 2180.00 1068.00 L 2140.00 1068.00 L 2120.00 1067.00 L 2080.00 1067.00 L 2060.00 1066.00 L 2000.00 1066.00 L 1980.00 1065.00 L 1940.00 1065.00 L 1920.00 1064.00 L 1860.00 1064.00 L 1840.00 1063.00 L 1800.00 1063.00 L 1780.00 1062.00 L 1740.00 1062.00 L 1720.00 1061.00 L 1660.00 1061.00 L 1640.00 1060.00 L 1600.00 1060.00 L 1580.00 1059.00 L 1520.00 1059.00 L 1500.00 1058.00 L 1460.00 1058.00 L 1440.00 1057.00 L 1400.00 1057.00 L 1380.00 1056.00 L 1320.00 1056.00 L 1300.00 1055.00 L 1260.00 1055.00 L 1240.00 1054.00 L 1180.00 1054.00 L 1160.00 1053.00 L 1120.00 1053.00 L 1100.00 1052.00 L 1060.00 1052.00 L 1040.00 1051.00 L 980.00 1051.00 L 960.00 1050.00 Z" />
<path id="csg562-024-04" fill="none" stroke="black" stroke-width="1" d="M 1500.00 1151.00 L 1480.00 1171.00 L 1420.00 1171.00 L 1400.00 1170.00 L 1300.00 1170.00 L 1280.00 1169.00 L 1180.00 1169.00 L 1160.00 1168.00 L 1080.00 1168.00 L 1060.00 1167.00 L 960.00 1167.00 L 940.00 1166.00 L 865.25 1166.00 L 869.82 1294.00 L 1000.00 1294.00 L 1020.00 1295.00 L 1180.00 1295.00 L 1200.00 1296.00 L 1360.00 1296.00 L 1380.00 1297.00 L 1540.00 1297.00 L 1560.00 1298.00 L 1600.00 1298.00 L 1620.00 1278.00 L 1640.00 1258.00 L 1660.00 1278.00 L 1680.00 1258.00 L 1700.00 1298.00 L 1720.00 1298.00 L 1740.00 1299.00 L 1900.00 1299.00 L 1920.00 1300.00 L 2080.00 1300.00 L 2100.00 1301.00 L 2260.00 1301.00 L 2280.00 1302.00 L 2440.00 1302.00 L 2460.00 1303.00 L 2600.00 1303.00 L 2620.00 1304.00 L 2780.00 1304.00 L 2800.00 1305.00 L 2960.00 1305.00 L 2980.00 1306.00 L 3026.00 1306.00 L 2965.00 1184.00 L 2880.00 1184.00 L 2860.00 1183.00 L 2760.00 1183.00 L 2740.00 1182.00 L 2660.00 1182.00 L 2640.00 1181.00 L 2540.00 1181.00 L 2520.00 1180.00 L 2420.00 1180.00 L 2400.00 1179.00 L 2320.00 1179.00 L 2300.00 1178.00 L 2200.00 1178.00 L 2180.00 1177.00 L 2100.00 1177.00 L 2080.00 1176.00 L 1980.00 1176.00 L 1960.00 1175.00 L 1860.00 1175.00 L 1840.00 1174.00 L 1760.00 1174.00 L 1740.00 1173.00 L 1640.00 1173.00 L 1620.00 1172.00 L 1560.00 1172.00 L 1540.00 1152.00 L 1520.00 1152.00 L 1500.00 1151.00 Z" />
<path id="csg562-024-05" fill="none" stroke="black" stroke-width="1" d="M 1640.00 1258.00 L 1620.00 1278.00 L 1600.00 1298.00 L 1560.00 1298.00 L 1540.00 1297.00 L 1380.00 1297.00 L 1360.00 1296.00 L 1200.00 1296.00 L 1180.00 1295.00 L 1020.00 1295.00 L 1000.00 1294.00 L 869.82 1294.00 L 873.54 1398.00 L 940.00 1398.00 L 960.00 1399.00 L 1060.00 1399.00 L 1080.00 1400.00 L 1180.00 1400.00 L 1200.00 1401.00 L 1300.00 1401.00 L 1320.00 1402.00 L 1420.00 1402.00 L 1440.00 1403.00 L 1540.00 1403.00 L 1560.00 1404.00 L 1660.00 1404.00 L 1680.00 1405.00 L 1760.00 1405.00 L 1780.00 1406.00 L 1880.00 1406.00 L 1900.00 1407.00 L 2000.00 1407.00 L 2020.00 1408.00 L 2120.00 1408.00 L 2140.00 1409.00 L 2240.00 1409.00 L 2260.00 1410.00 L 2272.50 1410.00 L 2367.00 1401.00 L 2392.00 1411.00 L 2400.00 1411.00 L 2405.33 1416.33 L 2426.29 1424.71 L 2440.00 1411.00 L 2480.00 1411.00 L 2500.00 1412.00 L 2505.00 1412.00 L 2517.00 1410.00 L 2994.00 1407.00 L 3036.00 1326.00 L 3026.00 1306.00 L 2980.00 1306.00 L 2960.00 1305.00 L 2800.00 1305.00 L 2780.00 1304.00 L 2620.00 1304.00 L 2600.00 1303.00 L 2460.00 1303.00 L 2440.00 1302.00 L 2280.00 1302.00 L 2260.00 1301.00 L 2100.00 1301.00 L 2080.00 1300.00 L 1920.00 1300.00 L 1900.00 1299.00 L 1740.00 1299.00 L 1720.00 1298.00 L 1700.00 1298.00 L 1680.00 1258.00 L 1660.00 1278.00 L 1640.00 1258.00 Z" />
<path id="csg562-024-06" fill="none" stroke="black" stroke-width="1" d="M 873.54 1398.00 L 876.00 1467.00 L 974.53 1506.00 L 1220.00 1506.00 L 1240.00 1507.00 L 1600.00 1507.00 L 1620.00 1508.00 L 1740.00 1508.00 L 1760.00 1528.00 L 1780.00 1508.00 L 2000.00 1508.00 L 2020.00 1509.00 L 2214.33 1509.00 L 2241.00 1413.00 L 2272.50 1410.00 L 2260.00 1410.00 L 2240.00 1409.00 L 2140.00 1409.00 L 2120.00 1408.00 L 2020.00 1408.00 L 2000.00 1407.00 L 1900.00 1407.00 L 1880.00 1406.00 L 1780.00 1406.00 L 1760.00 1405.00 L 1680.00 1405.00 L 1660.00 1404.00 L 1560.00 1404.00 L 1540.00 1403.00 L 1440.00 1403.00 L 1420.00 1402.00 L 1320.00 1402.00 L 1300.00 1401.00 L 1200.00 1401.00 L 1180.00 1400.00 L 1080.00 1400.00 L 1060.00 1399.00 L 960.00 1399.00 L 940.00 1398.00 Z" />
<path id="csg562-024-07" fill="none" stroke="black" stroke-width="1" d="M 974.53 1506.00 L 1020.00 1524.00 L 1021.41 1614.00 L 1040.00 1614.00 L 1060.00 1615.00 L 1120.00 1615.00 L 1140.00 1616.00 L 1200.00 1616.00 L 1220.00 1617.00 L 1260.00 1617.00 L 1280.00 1618.00 L 1340.00 1618.00 L 1360.00 1619.00 L 1420.00 1619.00 L 1440.00 1620.00 L 1480.00 1620.00 L 1500.00 1621.00 L 1560.00 1621.00 L 1580.00 1622.00 L 1640.00 1622.00 L 1660.00 1623.00 L 1700.00 1623.00 L 1720.00 1624.00 L 1780.00 1624.00 L 1800.00 1625.00 L 1840.00 1625.00 L 1860.00 1626.00 L 1920.00 1626.00 L 1940.00 1627.00 L 2000.00 1627.00 L 2020.00 1628.00 L 2060.00 1628.00 L 2080.00 1629.00 L 2140.00 1629.00 L 2160.00 1630.00 L 2220.00 1630.00 L 2240.00 1631.00 L 2280.00 1631.00 L 2300.00 1632.00 L 2360.00 1632.00 L 2380.00 1633.00 L 2440.00 1633.00 L 2460.00 1634.00 L 2500.00 1634.00 L 2520.00 1635.00 L 2580.00 1635.00 L 2600.00 1636.00 L 2640.00 1636.00 L 2660.00 1637.00 L 2720.00 1637.00 L 2740.00 1638.00 L 2800.00 1638.00 L 2820.00 1639.00 L 2860.00 1639.00 L 2880.00 1640.00 L 2940.00 1640.00 L 2960.00 1641.00 L 2988.47 1641.00 L 2901.00 1518.00 L 2211.00 1521.00 L 2214.33 1509.00 L 2020.00 1509.00 L 2000.00 1508.00 L 1780.00 1508.00 L 1760.00 1528.00 L 1740.00 1508.00 L 1620.00 1508.00 L 1600.00 1507.00 L 1240.00 1507.00 L 1220.00 1506.00 Z" />
<path id="csg562-024-08" fill="none" stroke="black" stroke-width="1" d="M 1021.41 1614.00 L 1023.00 1716.00 L 994.42 1723.00 L 1020.00 1723.00 L 1040.00 1724.00 L 1120.00 1724.00 L 1140.00 1725.00 L 1220.00 1725.00 L 1240.00 1726.00 L 1320.00 1726.00 L 1340.00 1727.00 L 1420.00 1727.00 L 1440.00 1728.00 L 1520.00 1728.00 L 1540.00 1729.00 L 1620.00 1729.00 L 1640.00 1730.00 L 1720.00 1730.00 L 1740.00 1731.00 L 1820.00 1731.00 L 1840.00 1732.00 L 1900.00 1732.00 L 1920.00 1733.00 L 2000.00 1733.00 L 2020.00 1734.00 L 2100.00 1734.00 L 2120.00 1735.00 L 2200.00 1735.00 L 2220.00 1736.00 L 2300.00 1736.00 L 2320.00 1737.00 L 2400.00 1737.00 L 2420.00 1738.00 L 2500.00 1738.00 L 2520.00 1739.00 L 2600.00 1739.00 L 2620.00 1740.00 L 2700.00 1740.00 L 2720.00 1741.00 L 2800.00 1741.00 L 2820.00 1742.00 L 2880.00 1742.00 L 2900.00 1743.00 L 2976.13 1743.00 L 2997.00 1653.00 L 2988.47 1641.00 L 2960.00 1641.00 L 2940.00 1640.00 L 2880.00 1640.00 L 2860.00 1639.00 L 2820.00 1639.00 L 2800.00 1638.00 L 2740.00 1638.00 L 2720.00 1637.00 L 2660.00 1637.00 L 2640.00 1636.00 L 2600.00 1636.00 L 2580.00 1635.00 L 2520.00 1635.00 L 2500.00 1634.00 L 2460.00 1634.00 L 2440.00 1633.00 L 2380.00 1633.00 L 2360.00 1632.00 L 2300.00 1632.00 L 2280.00 1631.00 L 2240.00 1631.00 L 2220.00 1630.00 L 2160.00 1630.00 L 2140.00 1629.00 L 2080.00 1629.00 L 2060.00 1628.00 L 2020.00 1628.00 L 2000.00 1627.00 L 1940.00 1627.00 L 1920.00 1626.00 L 1860.00 1626.00 L 1840.00 1625.00 L 1800.00 1625.00 L 1780.00 1624.00 L 1720.00 1624.00 L 1700.00 1623.00 L 1660.00 1623.00 L 1640.00 1622.00 L 1580.00 1622.00 L 1560.00 1621.00 L 1500.00 1621.00 L 1480.00 1620.00 L 1440.00 1620.00 L 1420.00 1619.00 L 1360.00 1619.00 L 1340.00 1618.00 L 1280.00 1618.00 L 1260.00 1617.00 L 1220.00 1617.00 L 1200.00 1616.00 L 1140.00 1616.00 L 1120.00 1615.00 L 1060.00 1615.00 L 1040.00 1614.00 Z" />
<path id="csg562-024-09" fill="none" stroke="black" stroke-width="1" d="M 994.42 1723.00 L 876.00 1752.00 L 873.00 1812.00 L 920.25 1833.00 L 940.00 1833.00 L 960.00 1834.00 L 1040.00 1834.00 L 1060.00 1835.00 L 1160.00 1835.00 L 1180.00 1836.00 L 1260.00 1836.00 L 1280.00 1837.00 L 1360.00 1837.00 L 1380.00 1838.00 L 1480.00 1838.00 L 1500.00 1839.00 L 1580.00 1839.00 L 1600.00 1840.00 L 1680.00 1840.00 L 1700.00 1841.00 L 1800.00 1841.00 L 1820.00 1842.00 L 1900.00 1842.00 L 1920.00 1843.00 L 2020.00 1843.00 L 2040.00 1844.00 L 2120.00 1844.00 L 2140.00 1845.00 L 2220.00 1845.00 L 2240.00 1846.00 L 2340.00 1846.00 L 2360.00 1847.00 L 2440.00 1847.00 L 2460.00 1848.00 L 2540.00 1848.00 L 2560.00 1849.00 L 2660.00 1849.00 L 2680.00 1850.00 L 2760.00 1850.00 L 2780.00 1851.00 L 2880.00 1851.00 L 2900.00 1852.00 L 2950.85 1852.00 L 2976.13 1743.00 L 2900.00 1743.00 L 2880.00 1742.00 L 2820.00 1742.00 L 2800.00 1741.00 L 2720.00 1741.00 L 2700.00 1740.00 L 2620.00 1740.00 L 2600.00 1739.00 L 2520.00 1739.00 L 2500.00 1738.00 L 2420.00 1738.00 L 2400.00 1737.00 L 2320.00 1737.00 L 2300.00 1736.00 L 2220.00 1736.00 L 2200.00 1735.00 L 2120.00 1735.00 L 2100.00 1734.00 L 2020.00 1734.00 L 2000.00 1733.00 L 1920.00 1733.00 L 1900.00 1732.00 L 1840.00 1732.00 L 1820.00 1731.00 L 1740.00 1731.00 L 1720.00 1730.00 L 1640.00 1730.00 L 1620.00 1729.00 L 1540.00 1729.00 L 1520.00 1728.00 L 1440.00 1728.00 L 1420.00 1727.00 L 1340.00 1727.00 L 1320.00 1726.00 L 1240.00 1726.00 L 1220.00 1725.00 L 1140.00 1725.00 L 1120.00 1724.00 L 1040.00 1724.00 L 1020.00 1723.00 Z" />
<path id="csg562-024-10" fill="none" stroke="black" stroke-width="1" d="M 920.25 1833.00 L 927.00 1836.00 L 864.00 1872.00 L 869.68 1939.00 L 900.00 1939.00 L 920.00 1940.00 L 980.00 1940.00 L 1000.00 1941.00 L 1040.00 1941.00 L 1060.00 1942.00 L 1120.00 1942.00 L 1140.00 1943.00 L 1180.00 1943.00 L 1200.00 1944.00 L 1260.00 1944.00 L 1280.00 1945.00 L 1320.00 1945.00 L 1340.00 1946.00 L 1400.00 1946.00 L 1420.00 1947.00 L 1460.00 1947.00 L 1480.00 1948.00 L 1540.00 1948.00 L 1560.00 1949.00 L 1600.00 1949.00 L 1620.00 1950.00 L 1680.00 1950.00 L 1700.00 1951.00 L 1760.00 1951.00 L 1780.00 1952.00 L 1820.00 1952.00 L 1840.00 1953.00 L 1900.00 1953.00 L 1920.00 1954.00 L 1960.00 1954.00 L 1980.00 1955.00 L 2040.00 1955.00 L 2060.00 1956.00 L 2100.00 1956.00 L 2120.00 1957.00 L 2180.00 1957.00 L 2200.00 1958.00 L 2240.00 1958.00 L 2260.00 1959.00 L 2320.00 1959.00 L 2340.00 1960.00 L 2380.00 1960.00 L 2400.00 1961.00 L 2460.00 1961.00 L 2480.00 1962.00 L 2540.00 1962.00 L 2560.00 1963.00 L 2600.00 1963.00 L 2620.00 1964.00 L 2680.00 1964.00 L 2700.00 1965.00 L 2740.00 1965.00 L 2760.00 1966.00 L 2820.00 1966.00 L 2840.00 1967.00 L 2880.00 1967.00 L 2900.00 1968.00 L 2960.00 1968.00 L 2980.00 1969.00 L 2981.96 1969.00 L 2982.00 1968.00 L 2949.00 1860.00 L 2950.85 1852.00 L 2900.00 1852.00 L 2880.00 1851.00 L 2780.00 1851.00 L 2760.00 1850.00 L 2680.00 1850.00 L 2660.00 1849.00 L 2560.00 1849.00 L 2540.00 1848.00 L 2460.00 1848.00 L 2440.00 1847.00 L 2360.00 1847.00 L 2340.00 1846.00 L 2240.00 1846.00 L 2220.00 1845.00 L 2140.00 1845.00 L 2120.00 1844.00 L 2040.00 1844.00 L 2020.00 1843.00 L 1920.00 1843.00 L 1900.00 1842.00 L 1820.00 1842.00 L 1800.00 1841.00 L 1700.00 1841.00 L 1680.00 1840.00 L 1600.00 1840.00 L 1580.00 1839.00 L 1500.00 1839.00 L 1480.00 1838.00 L 1380.00 1838.00 L 1360.00 1837.00 L 1280.00 1837.00 L 1260.00 1836.00 L 1180.00 1836.00 L 1160.00 1835.00 L 1060.00 1835.00 L 1040.00 1834.00 L 960.00 1834.00 L 940.00 1833.00 Z" />
<path id="csg562-024-11" fill="none" stroke="black" stroke-width="1" d="M 869.68 1939.00 L 879.00 2049.00 L 996.00 2049.00 L 984.00 2061.00 L 1040.00 2061.00 L 1060.00 2062.00 L 1240.00 2062.00 L 1260.00 2063.00 L 1460.00 2063.00 L 1480.00 2064.00 L 1660.00 2064.00 L 1680.00 2065.00 L 1880.00 2065.00 L 1900.00 2066.00 L 2080.00 2066.00 L 2100.00 2067.00 L 2300.00 2067.00 L 2320.00 2068.00 L 2500.00 2068.00 L 2520.00 2069.00 L 2700.00 2069.00 L 2720.00 2089.00 L 2740.00 2090.00 L 2760.00 2070.00 L 2920.00 2070.00 L 2940.00 2071.00 L 2978.04 2071.00 L 2981.96 1969.00 L 2980.00 1969.00 L 2960.00 1968.00 L 2900.00 1968.00 L 2880.00 1967.00 L 2840.00 1967.00 L 2820.00 1966.00 L 2760.00 1966.00 L 2740.00 1965.00 L 2700.00 1965.00 L 2680.00 1964.00 L 2620.00 1964.00 L 2600.00 1963.00 L 2560.00 1963.00 L 2540.00 1962.00 L 2480.00 1962.00 L 2460.00 1961.00 L 2400.00 1961.00 L 2380.00 1960.00 L 2340.00 1960.00 L 2320.00 1959.00 L 2260.00 1959.00 L 2240.00 1958.00 L 2200.00 1958.00 L 2180.00 1957.00 L 2120.00 1957.00 L 2100.00 1956.00 L 2060.00 1956.00 L 2040.00 1955.00 L 1980.00 1955.00 L 1960.00 1954.00 L 1920.00 1954.00 L 1900.00 1953.00 L 1840.00 1953.00 L 1820.00 1952.00 L 1780.00 1952.00 L 1760.00 1951.00 L 1700.00 1951.00 L 1680.00 1950.00 L 1620.00 1950.00 L 1600.00 1949.00 L 1560.00 1949.00 L 1540.00 1948.00 L 1480.00 1948.00 L 1460.00 1947.00 L 1420.00 1947.00 L 1400.00 1946.00 L 1340.00 1946.00 L 1320.00 1945.00 L 1280.00 1945.00 L 1260.00 1944.00 L 1200.00 1944.00 L 1180.00 1943.00 L 1140.00 1943.00 L 1120.00 1942.00 L 1060.00 1942.00 L 1040.00 1941.00 L 1000.00 1941.00 L 980.00 1940.00 L 920.00 1940.00 L 900.00 1939.00 Z" />
<path id="csg562-024-12" fill="none" stroke="black" stroke-width="1" d="M 984.00 2061.00 L 918.00 2127.00 L 882.38 2165.00 L 1080.00 2165.00 L 1100.00 2166.00 L 1340.00 2166.00 L 1360.00 2167.00 L 1600.00 2167.00 L 1620.00 2168.00 L 1700.00 2168.00 L 1720.00 2188.00 L 1740.00 2188.00 L 1760.00 2168.00 L 1860.00 2168.00 L 1880.00 2189.00 L 1900.00 2189.00 L 1920.00 2169.00 L 2120.00 2169.00 L 2140.00 2170.00 L 2380.00 2170.00 L 2400.00 2171.00 L 2640.00 2171.00 L 2660.00 2172.00 L 2900.00 2172.00 L 2920.00 2173.00 L 2974.12 2173.00 L 2978.04 2071.00 L 2940.00 2071.00 L 2920.00 2070.00 L 2760.00 2070.00 L 2740.00 2090.00 L 2720.00 2089.00 L 2700.00 2069.00 L 2520.00 2069.00 L 2500.00 2068.00 L 2320.00 2068.00 L 2300.00 2067.00 L 2100.00 2067.00 L 2080.00 2066.00 L 1900.00 2066.00 L 1880.00 2065.00 L 1680.00 2065.00 L 1660.00 2064.00 L 1480.00 2064.00 L 1460.00 2063.00 L 1260.00 2063.00 L 1240.00 2062.00 L 1060.00 2062.00 L 1040.00 2061.00 Z" />
<path id="csg562-024-13" fill="none" stroke="black" stroke-width="1" d="M 882.38 2165.00 L 873.00 2175.00 L 870.71 2275.00 L 1020.00 2275.00 L 1040.00 2276.00 L 1200.00 2276.00 L 1220.00 2277.00 L 1380.00 2277.00 L 1400.00 2278.00 L 1580.00 2278.00 L 1600.00 2279.00 L 1760.00 2279.00 L 1780.00 2280.00 L 1940.00 2280.00 L 1960.00 2281.00 L 2120.00 2281.00 L 2140.00 2282.00 L 2320.00 2282.00 L 2340.00 2283.00 L 2500.00 2283.00 L 2520.00 2284.00 L 2680.00 2284.00 L 2700.00 2285.00 L 2860.00 2285.00 L 2880.00 2286.00 L 2940.78 2286.00 L 2973.00 2202.00 L 2974.12 2173.00 L 2920.00 2173.00 L 2900.00 2172.00 L 2660.00 2172.00 L 2640.00 2171.00 L 2400.00 2171.00 L 2380.00 2170.00 L 2140.00 2170.00 L 2120.00 2169.00 L 1920.00 2169.00 L 1900.00 2189.00 L 1880.00 2189.00 L 1860.00 2168.00 L 1760.00 2168.00 L 1740.00 2188.00 L 1720.00 2188.00 L 1700.00 2168.00 L 1620.00 2168.00 L 1600.00 2167.00 L 1360.00 2167.00 L 1340.00 2166.00 L 1100.00 2166.00 L 1080.00 2165.00 Z" />
<path id="csg562-024-14" fill="none" stroke="black" stroke-width="1" d="M 870.71 2275.00 L 868.20 2385.00 L 920.00 2385.00 L 940.00 2386.00 L 1020.00 2386.00 L 1040.00 2387.00 L 1120.00 2387.00 L 1140.00 2388.00 L 1220.00 2388.00 L 1240.00 2369.00 L 1280.00 2369.00 L 1300.00 2389.00 L 1320.00 2389.00 L 1340.00 2390.00 L 1420.00 2390.00 L 1440.00 2391.00 L 1520.00 2391.00 L 1540.00 2392.00 L 1620.00 2392.00 L 1640.00 2393.00 L 1720.00 2393.00 L 1740.00 2394.00 L 1820.00 2394.00 L 1840.00 2395.00 L 1920.00 2395.00 L 1940.00 2396.00 L 2020.00 2396.00 L 2040.00 2397.00 L 2120.00 2397.00 L 2140.00 2398.00 L 2220.00 2398.00 L 2240.00 2399.00 L 2320.00 2399.00 L 2340.00 2400.00 L 2420.00 2400.00 L 2440.00 2401.00 L 2520.00 2401.00 L 2540.00 2402.00 L 2620.00 2402.00 L 2640.00 2403.00 L 2720.00 2403.00 L 2740.00 2404.00 L 2820.00 2404.00 L 2840.00 2405.00 L 2895.14 2405.00 L 2940.78 2286.00 L 2880.00 2286.00 L 2860.00 2285.00 L 2700.00 2285.00 L 2680.00 2284.00 L 2520.00 2284.00 L 2500.00 2283.00 L 2340.00 2283.00 L 2320.00 2282.00 L 2140.00 2282.00 L 2120.00 2281.00 L 1960.00 2281.00 L 1940.00 2280.00 L 1780.00 2280.00 L 1760.00 2279.00 L 1600.00 2279.00 L 1580.00 2278.00 L 1400.00 2278.00 L 1380.00 2277.00 L 1220.00 2277.00 L 1200.00 2276.00 L 1040.00 2276.00 L 1020.00 2275.00 Z" />
<path id="csg562-024-15" fill="none" stroke="black" stroke-width="1" d="M 1240.00 2369.00 L 1220.00 2388.00 L 1140.00 2388.00 L 1120.00 2387.00 L 1040.00 2387.00 L 1020.00 2386.00 L 940.00 2386.00 L 920.00 2385.00 L 868.20 2385.00 L 865.59 2499.00 L 1020.00 2499.00 L 1040.00 2500.00 L 1200.00 2500.00 L 1220.00 2501.00 L 1380.00 2501.00 L 1400.00 2502.00 L 1560.00 2502.00 L 1580.00 2503.00 L 1740.00 2503.00 L 1760.00 2504.00 L 1920.00 2504.00 L 1940.00 2505.00 L 2100.00 2505.00 L 2120.00 2506.00 L 2280.00 2506.00 L 2300.00 2507.00 L 2460.00 2507.00 L 2480.00 2508.00 L 2500.00 2508.00 L 2520.00 2510.00 L 2540.00 2510.00 L 2560.00 2512.00 L 2580.00 2512.00 L 2600.00 2508.00 L 2640.00 2508.00 L 2660.00 2509.00 L 2820.00 2509.00 L 2840.00 2510.00 L 2902.58 2510.00 L 2889.00 2421.00 L 2895.14 2405.00 L 2840.00 2405.00 L 2820.00 2404.00 L 2740.00 2404.00 L 2720.00 2403.00 L 2640.00 2403.00 L 2620.00 2402.00 L 2540.00 2402.00 L 2520.00 2401.00 L 2440.00 2401.00 L 2420.00 2400.00 L 2340.00 2400.00 L 2320.00 2399.00 L 2240.00 2399.00 L 2220.00 2398.00 L 2140.00 2398.00 L 2120.00 2397.00 L 2040.00 2397.00 L 2020.00 2396.00 L 1940.00 2396.00 L 1920.00 2395.00 L 1840.00 2395.00 L 1820.00 2394.00 L 1740.00 2394.00 L 1720.00 2393.00 L 1640.00 2393.00 L 1620.00 2392.00 L 1540.00 2392.00 L 1520.00 2391.00 L 1440.00 2391.00 L 1420.00 2390.00 L 1340.00 2390.00 L 1320.00 2389.00 L 1300.00 2389.00 L 1280.00 2369.00 Z" />
<path id="csg562-024-16" fill="none" stroke="black" stroke-width="1" d="M 865.59 2499.00 L 863.01 2612.00 L 1520.00 2612.00 L 1540.00 2592.00 L 1560.00 2612.00 L 1600.00 2612.00 L 1620.00 2611.00 L 1980.00 2611.00 L 2000.00 2631.00 L 2020.00 2611.00 L 2360.00 2611.00 L 2380.00 2610.00 L 2540.00 2610.00 L 2560.00 2630.00 L 2580.00 2610.00 L 2917.83 2610.00 L 2902.58 2510.00 L 2840.00 2510.00 L 2820.00 2509.00 L 2660.00 2509.00 L 2640.00 2508.00 L 2600.00 2508.00 L 2580.00 2512.00 L 2560.00 2512.00 L 2540.00 2510.00 L 2520.00 2510.00 L 2500.00 2508.00 L 2480.00 2508.00 L 2460.00 2507.00 L 2300.00 2507.00 L 2280.00 2506.00 L 2120.00 2506.00 L 2100.00 2505.00 L 1940.00 2505.00 L 1920.00 2504.00 L 1760.00 2504.00 L 1740.00 2503.00 L 1580.00 2503.00 L 1560.00 2502.00 L 1400.00 2502.00 L 1380.00 2501.00 L 1220.00 2501.00 L 1200.00 2500.00 L 1040.00 2500.00 L 1020.00 2499.00 Z" />
<path id="csg562-024-17" fill="none" stroke="black" stroke-width="1" d="M 1540.00 2592.00 L 1520.00 2612.00 L 863.01 2612.00 L 861.00 2700.00 L 860.28 2726.00 L 1000.00 2726.00 L 1020.00 2727.00 L 1160.00 2727.00 L 1180.00 2728.00 L 1320.00 2728.00 L 1340.00 2729.00 L 1480.00 2729.00 L 1500.00 2730.00 L 1640.00 2730.00 L 1660.00 2731.00 L 1800.00 2731.00 L 1820.00 2732.00 L 1960.00 2732.00 L 1980.00 2733.00 L 2120.00 2733.00 L 2140.00 2734.00 L 2280.00 2734.00 L 2300.00 2735.00 L 2440.00 2735.00 L 2460.00 2736.00 L 2620.00 2736.00 L 2640.00 2737.00 L 2780.00 2737.00 L 2800.00 2738.00 L 2937.36 2738.00 L 2917.83 2610.00 L 2580.00 2610.00 L 2560.00 2630.00 L 2540.00 2610.00 L 2380.00 2610.00 L 2360.00 2611.00 L 2020.00 2611.00 L 2000.00 2631.00 L 1980.00 2611.00 L 1620.00 2611.00 L 1600.00 2612.00 L 1560.00 2612.00 L 1540.00 2592.00 Z" />
<path id="csg562-024-18" fill="none" stroke="black" stroke-width="1" d="M 860.28 2726.00 L 857.41 2830.29 L 860.00 2829.00 L 900.00 2829.00 L 920.00 2830.00 L 980.00 2830.00 L 1000.00 2831.00 L 1060.00 2831.00 L 1080.00 2832.00 L 1140.00 2832.00 L 1160.00 2833.00 L 1220.00 2833.00 L 1240.00 2834.00 L 1300.00 2834.00 L 1320.00 2835.00 L 1360.00 2835.00 L 1380.00 2836.00 L 1440.00 2836.00 L 1460.00 2837.00 L 1520.00 2837.00 L 1540.00 2838.00 L 1600.00 2838.00 L 1620.00 2839.00 L 1680.00 2839.00 L 1700.00 2840.00 L 1760.00 2840.00 L 1780.00 2841.00 L 1820.00 2841.00 L 1840.00 2842.00 L 1900.00 2842.00 L 1920.00 2843.00 L 1980.00 2843.00 L 2000.00 2844.00 L 2060.00 2844.00 L 2080.00 2845.00 L 2140.00 2845.00 L 2160.00 2846.00 L 2220.00 2846.00 L 2240.00 2847.00 L 2280.00 2847.00 L 2300.00 2848.00 L 2360.00 2848.00 L 2380.00 2849.00 L 2440.00 2849.00 L 2460.00 2850.00 L 2520.00 2850.00 L 2540.00 2851.00 L 2600.00 2851.00 L 2620.00 2852.00 L 2680.00 2852.00 L 2700.00 2853.00 L 2740.00 2853.00 L 2760.00 2854.00 L 2820.00 2854.00 L 2840.00 2855.00 L 2900.00 2855.00 L 2920.00 2856.00 L 2927.45 2856.00 L 2943.00 2775.00 L 2937.36 2738.00 L 2800.00 2738.00 L 2780.00 2737.00 L 2640.00 2737.00 L 2620.00 2736.00 L 2460.00 2736.00 L 2440.00 2735.00 L 2300.00 2735.00 L 2280.00 2734.00 L 2140.00 2734.00 L 2120.00 2733.00 L 1980.00 2733.00 L 1960.00 2732.00 L 1820.00 2732.00 L 1800.00 2731.00 L 1660.00 2731.00 L 1640.00 2730.00 L 1500.00 2730.00 L 1480.00 2729.00 L 1340.00 2729.00 L 1320.00 2728.00 L 1180.00 2728.00 L 1160.00 2727.00 L 1020.00 2727.00 L 1000.00 2726.00 Z" />
<path id="csg562-024-19" fill="none" stroke="black" stroke-width="1" d="M 860.00 2829.00 L 857.41 2830.29 L 854.26 2944.87 L 860.00 2942.00 L 960.00 2942.00 L 980.00 2943.00 L 1100.00 2943.00 L 1120.00 2944.00 L 1220.00 2944.00 L 1240.00 2945.00 L 1300.00 2945.00 L 1320.00 2965.00 L 1340.00 2945.00 L 1360.00 2945.00 L 1380.00 2946.00 L 1480.00 2946.00 L 1500.00 2947.00 L 1620.00 2947.00 L 1640.00 2948.00 L 1740.00 2948.00 L 1760.00 2949.00 L 1880.00 2949.00 L 1900.00 2950.00 L 2020.00 2950.00 L 2040.00 2951.00 L 2140.00 2951.00 L 2160.00 2952.00 L 2280.00 2952.00 L 2300.00 2953.00 L 2400.00 2953.00 L 2420.00 2954.00 L 2540.00 2954.00 L 2560.00 2955.00 L 2640.00 2955.00 L 2660.00 2975.00 L 2680.00 2956.00 L 2800.00 2956.00 L 2820.00 2957.00 L 2908.07 2957.00 L 2927.45 2856.00 L 2920.00 2856.00 L 2900.00 2855.00 L 2840.00 2855.00 L 2820.00 2854.00 L 2760.00 2854.00 L 2740.00 2853.00 L 2700.00 2853.00 L 2680.00 2852.00 L 2620.00 2852.00 L 2600.00 2851.00 L 2540.00 2851.00 L 2520.00 2850.00 L 2460.00 2850.00 L 2440.00 2849.00 L 2380.00 2849.00 L 2360.00 2848.00 L 2300.00 2848.00 L 2280.00 2847.00 L 2240.00 2847.00 L 2220.00 2846.00 L 2160.00 2846.00 L 2140.00 2845.00 L 2080.00 2845.00 L 2060.00 2844.00 L 2000.00 2844.00 L 1980.00 2843.00 L 1920.00 2843.00 L 1900.00 2842.00 L 1840.00 2842.00 L 1820.00 2841.00 L 1780.00 2841.00 L 1760.00 2840.00 L 1700.00 2840.00 L 1680.00 2839.00 L 1620.00 2839.00 L 1600.00 2838.00 L 1540.00 2838.00 L 1520.00 2837.00 L 1460.00 2837.00 L 1440.00 2836.00 L 1380.00 2836.00 L 1360.00 2835.00 L 1320.00 2835.00 L 1300.00 2834.00 L 1240.00 2834.00 L 1220.00 2833.00 L 1160.00 2833.00 L 1140.00 2832.00 L 1080.00 2832.00 L 1060.00 2831.00 L 1000.00 2831.00 L 980.00 2830.00 L 920.00 2830.00 L 900.00 2829.00 Z" />
<path id="csg562-024-20" fill="none" stroke="black" stroke-width="1" d="M 860.00 2942.00 L 854.26 2944.87 L 852.00 3027.00 L 900.00 3045.00 L 936.00 3036.00 L 916.12 3069.12 L 920.00 3073.00 L 940.00 3053.00 L 1220.00 3053.00 L 1240.00 3054.00 L 1620.00 3054.00 L 1640.00 3055.00 L 2000.00 3055.00 L 2020.00 3056.00 L 2240.00 3056.00 L 2260.00 3036.00 L 2300.00 3036.00 L 2320.00 3056.00 L 2400.00 3056.00 L 2420.00 3057.00 L 2800.00 3057.00 L 2820.00 3058.00 L 2888.69 3058.00 L 2908.07 2957.00 L 2820.00 2957.00 L 2800.00 2956.00 L 2680.00 2956.00 L 2660.00 2975.00 L 2640.00 2955.00 L 2560.00 2955.00 L 2540.00 2954.00 L 2420.00 2954.00 L 2400.00 2953.00 L 2300.00 2953.00 L 2280.00 2952.00 L 2160.00 2952.00 L 2140.00 2951.00 L 2040.00 2951.00 L 2020.00 2950.00 L 1900.00 2950.00 L 1880.00 2949.00 L 1760.00 2949.00 L 1740.00 2948.00 L 1640.00 2948.00 L 1620.00 2947.00 L 1500.00 2947.00 L 1480.00 2946.00 L 1380.00 2946.00 L 1360.00 2945.00 L 1340.00 2945.00 L 1320.00 2965.00 L 1300.00 2945.00 L 1240.00 2945.00 L 1220.00 2944.00 L 1120.00 2944.00 L 1100.00 2943.00 L 980.00 2943.00 L 960.00 2942.00 Z" />
<path id="csg562-024-21" fill="none" stroke="black" stroke-width="1" d="M 2260.00 3036.00 L 2240.00 3056.00 L 2020.00 3056.00 L 2000.00 3055.00 L 1640.00 3055.00 L 1620.00 3054.00 L 1240.00 3054.00 L 1220.00 3053.00 L 940.00 3053.00 L 920.00 3073.00 L 916.12 3069.12 L 909.00 3081.00 L 917.36 3159.00 L 1100.00 3159.00 L 1120.00 3160.00 L 1360.00 3160.00 L 1380.00 3161.00 L 1620.00 3161.00 L 1640.00 3162.00 L 1880.00 3162.00 L 1900.00 3163.00 L 2140.00 3163.00 L 2160.00 3184.00 L 2180.00 3164.00 L 2320.00 3164.00 L 2340.00 3144.00 L 2360.00 3164.00 L 2400.00 3164.00 L 2420.00 3165.00 L 2660.00 3165.00 L 2680.00 3166.00 L 2918.83 3166.00 L 2886.00 3072.00 L 2888.69 3058.00 L 2820.00 3058.00 L 2800.00 3057.00 L 2420.00 3057.00 L 2400.00 3056.00 L 2320.00 3056.00 L 2300.00 3036.00 Z" />
<path id="csg562-024-22" fill="none" stroke="black" stroke-width="1" d="M 2340.00 3144.00 L 2320.00 3164.00 L 2180.00 3164.00 L 2160.00 3184.00 L 2140.00 3163.00 L 1900.00 3163.00 L 1880.00 3162.00 L 1640.00 3162.00 L 1620.00 3161.00 L 1380.00 3161.00 L 1360.00 3160.00 L 1120.00 3160.00 L 1100.00 3159.00 L 917.36 3159.00 L 918.00 3165.00 L 842.17 3167.92 L 840.04 3168.98 L 843.89 3273.05 L 860.00 3265.00 L 1360.00 3265.00 L 1380.00 3266.00 L 1900.00 3266.00 L 1920.00 3267.00 L 2420.00 3267.00 L 2440.00 3268.00 L 2740.00 3268.00 L 2760.00 3288.00 L 2780.00 3288.00 L 2800.00 3268.00 L 2951.79 3268.00 L 2952.00 3261.00 L 2918.83 3166.00 L 2680.00 3166.00 L 2660.00 3165.00 L 2420.00 3165.00 L 2400.00 3164.00 L 2360.00 3164.00 L 2340.00 3144.00 Z" />
<path id="csg562-024-23" fill="none" stroke="black" stroke-width="1" d="M 860.00 3265.00 L 843.89 3273.05 L 847.96 3383.02 L 860.00 3377.00 L 1160.00 3377.00 L 1180.00 3397.00 L 1200.00 3377.00 L 1380.00 3377.00 L 1400.00 3378.00 L 1920.00 3378.00 L 1940.00 3379.00 L 1960.00 3399.00 L 1980.00 3399.00 L 2000.00 3379.00 L 2480.00 3379.00 L 2500.00 3380.00 L 2820.85 3380.00 L 2949.00 3363.00 L 2951.79 3268.00 L 2800.00 3268.00 L 2780.00 3288.00 L 2760.00 3288.00 L 2740.00 3268.00 L 2440.00 3268.00 L 2420.00 3267.00 L 1920.00 3267.00 L 1900.00 3266.00 L 1380.00 3266.00 L 1360.00 3265.00 Z" />
<path id="csg562-024-24" fill="none" stroke="black" stroke-width="1" d="M 860.00 3377.00 L 847.96 3383.02 L 851.87 3488.47 L 860.00 3484.00 L 937.00 3484.00 L 1107.00 3468.00 L 1293.29 3484.00 L 1600.00 3484.00 L 1620.00 3483.00 L 1843.15 3483.00 L 1953.00 3471.00 L 2185.36 3483.00 L 2360.00 3483.00 L 2380.00 3482.00 L 2605.59 3482.00 L 2655.00 3402.00 L 2820.85 3380.00 L 2500.00 3380.00 L 2480.00 3379.00 L 2000.00 3379.00 L 1980.00 3399.00 L 1960.00 3399.00 L 1940.00 3379.00 L 1920.00 3378.00 L 1400.00 3378.00 L 1380.00 3377.00 L 1200.00 3377.00 L 1180.00 3397.00 L 1160.00 3377.00 Z" />
</svg>
