<?xml version="1.0" standalone="no"?>
<!DOCTYPE svg PUBLIC "-//W3C//DTD SVG 1.1//EN" "http://www.w3.org/Graphics/SVG/1.1/DTD/svg11.dtd">
<svg width="46.22222in" height="69.333336in" viewBox="0 0 3328 4992" xmlns="http://www.w3.org/2000/svg" version="1.1">
<path id="csg562-048-01" fill="none" stroke="black" stroke-width="1" d="M 2454.41 805.41 L 2453.50 805.50 L 2434.00 825.00 L 2354.00 825.00 L 2334.00 824.00 L 2262.33 824.00 L 2097.00 840.00 L 1698.00 834.00 L 1122.00 834.00 L 852.00 867.00 L 848.80 933.60 L 854.00 931.00 L 1574.00 931.00 L 1594.00 932.00 L 2334.00 932.00 L 2354.00 933.00 L 2454.00 933.00 L 2474.00 953.00 L 2494.00 933.00 L 2953.57 933.00 L 2907.00 852.00 L 2660.62 825.00 L 2474.00 825.00 L 2454.41 805.41 Z" />
<path id="csg562-048-02" fill="none" stroke="black" stroke-width="1" d="M 854.00 931.00 L 848.80 933.60 L 842.66 1061.67 L 854.00 1056.00 L 1574.00 1056.00 L 1594.00 1057.00 L 1994.00 1057.00 L 2014.00 1037.00 L 2054.00 1037.00 L 2074.00 1057.00 L 2334.00 1057.00 L 2354.00 1058.00 L 2980.25 1058.00 L 2976.00 972.00 L 2953.57 933.00 L 2494.00 933.00 L 2474.00 953.00 L 2454.00 933.00 L 2354.00 933.00 L 2334.00 932.00 L 1594.00 932.00 L 1574.00 931.00 Z" />
<path id="csg562-048-03" fill="none" stroke="black" stroke-width="1" d="M 2014.00 1037.00 L 1994.00 1057.00 L 1594.00 1057.00 L 1574.00 1056.00 L 854.00 1056.00 L 842.66 1061.67 L 837.39 1171.30 L 854.00 1163.00 L 874.00 1183.00 L 894.00 1163.00 L 1334.00 1163.00 L 1354.00 1164.00 L 1834.00 1164.00 L 1854.00 1165.00 L 2354.00 1165.00 L 2374.00 1166.00 L 2634.00 1166.00 L 2654.00 1146.00 L 2674.00 1166.00 L 2734.00 1166.00 L 2754.00 1186.00 L 2774.00 1186.00 L 2794.00 1166.00 L 2854.00 1166.00 L 2874.00 1167.00 L 2985.63 1167.00 L 2980.25 1058.00 L 2354.00 1058.00 L 2334.00 1057.00 L 2074.00 1057.00 L 2054.00 1037.00 Z" />
<path id="csg562-048-04" fill="none" stroke="black" stroke-width="1" d="M 2654.00 1146.00 L 2634.00 1166.00 L 2374.00 1166.00 L 2354.00 1165.00 L 1854.00 1165.00 L 1834.00 1164.00 L 1354.00 1164.00 L 1334.00 1163.00 L 894.00 1163.00 L 874.00 1183.00 L 854.00 1163.00 L 837.39 1171.30 L 834.00 1242.00 L 837.35 1292.32 L 854.00 1284.00 L 1314.00 1284.00 L 1334.00 1285.00 L 1794.00 1285.00 L 1814.00 1286.00 L 2294.00 1286.00 L 2314.00 1287.00 L 2774.00 1287.00 L 2794.00 1288.00 L 2942.91 1288.00 L 2988.00 1215.00 L 2985.63 1167.00 L 2874.00 1167.00 L 2854.00 1166.00 L 2794.00 1166.00 L 2774.00 1186.00 L 2754.00 1186.00 L 2734.00 1166.00 L 2674.00 1166.00 L 2654.00 1146.00 Z" />
<path id="csg562-048-05" fill="none" stroke="black" stroke-width="1" d="M 854.00 1284.00 L 837.35 1292.32 L 844.26 1395.87 L 854.00 1391.00 L 1354.00 1391.00 L 1374.00 1392.00 L 1394.00 1372.00 L 1434.00 1372.00 L 1454.00 1392.00 L 1874.00 1392.00 L 1894.00 1393.00 L 2394.00 1393.00 L 2414.00 1394.00 L 2886.50 1394.00 L 2925.00 1317.00 L 2942.91 1288.00 L 2794.00 1288.00 L 2774.00 1287.00 L 2314.00 1287.00 L 2294.00 1286.00 L 1814.00 1286.00 L 1794.00 1285.00 L 1334.00 1285.00 L 1314.00 1284.00 Z" />
<path id="csg562-048-06" fill="none" stroke="black" stroke-width="1" d="M 1394.00 1372.00 L 1374.00 1392.00 L 1354.00 1391.00 L 854.00 1391.00 L 844.26 1395.87 L 851.55 1505.23 L 854.00 1504.00 L 1194.00 1504.00 L 1214.00 1505.00 L 1574.00 1505.00 L 1594.00 1506.00 L 1954.00 1506.00 L 1974.00 1507.00 L 2028.39 1507.00 L 2028.00 1500.00 L 2240.33 1507.00 L 2334.00 1507.00 L 2351.36 1507.87 L 2835.00 1497.00 L 2886.50 1394.00 L 2414.00 1394.00 L 2394.00 1393.00 L 1894.00 1393.00 L 1874.00 1392.00 L 1454.00 1392.00 L 1434.00 1372.00 Z" />
<path id="csg562-048-07" fill="none" stroke="black" stroke-width="1" d="M 854.00 1504.00 L 851.55 1505.23 L 857.93 1601.00 L 1194.00 1601.00 L 1214.00 1602.00 L 1574.00 1602.00 L 1594.00 1603.00 L 1954.00 1603.00 L 1974.00 1604.00 L 2033.78 1604.00 L 2028.39 1507.00 L 1974.00 1507.00 L 1954.00 1506.00 L 1594.00 1506.00 L 1574.00 1505.00 L 1214.00 1505.00 L 1194.00 1504.00 Z" />
<path id="csg562-048-08" fill="none" stroke="black" stroke-width="1" d="M 2316.20 1729.00 L 2073.00 1737.00 L 1536.00 1740.00 L 858.00 1743.00 L 855.43 1833.00 L 1096.00 1833.00 L 1116.00 1834.00 L 1376.00 1834.00 L 1396.00 1835.00 L 1656.00 1835.00 L 1676.00 1836.00 L 1936.00 1836.00 L 1956.00 1837.00 L 2216.00 1837.00 L 2236.00 1838.00 L 2496.00 1838.00 L 2516.00 1839.00 L 2776.00 1839.00 L 2796.00 1840.00 L 2908.80 1840.00 L 2904.00 1779.00 L 2784.00 1752.00 L 2597.00 1730.00 L 2356.00 1730.00 L 2336.00 1729.00 Z" />
<path id="csg562-048-09" fill="none" stroke="black" stroke-width="1" d="M 855.43 1833.00 L 852.14 1948.00 L 1136.00 1948.00 L 1156.00 1949.00 L 1456.00 1949.00 L 1476.00 1950.00 L 1776.00 1950.00 L 1796.00 1951.00 L 2096.00 1951.00 L 2116.00 1952.00 L 2416.00 1952.00 L 2436.00 1953.00 L 2736.00 1953.00 L 2756.00 1954.00 L 2917.78 1954.00 L 2908.80 1840.00 L 2796.00 1840.00 L 2776.00 1839.00 L 2516.00 1839.00 L 2496.00 1838.00 L 2236.00 1838.00 L 2216.00 1837.00 L 1956.00 1837.00 L 1936.00 1836.00 L 1676.00 1836.00 L 1656.00 1835.00 L 1396.00 1835.00 L 1376.00 1834.00 L 1116.00 1834.00 L 1096.00 1833.00 Z" />
<path id="csg562-048-10" fill="none" stroke="black" stroke-width="1" d="M 852.14 1948.00 L 849.26 2049.00 L 1036.00 2049.00 L 1056.00 2050.00 L 1176.00 2050.00 L 1196.00 2070.00 L 1216.00 2070.00 L 1236.00 2050.00 L 1276.00 2050.00 L 1296.00 2051.00 L 1496.00 2051.00 L 1516.00 2052.00 L 1736.00 2052.00 L 1756.00 2053.00 L 1956.00 2053.00 L 1976.00 2054.00 L 2196.00 2054.00 L 2216.00 2055.00 L 2416.00 2055.00 L 2436.00 2056.00 L 2516.00 2056.00 L 2536.00 2068.00 L 2596.00 2068.00 L 2616.00 2056.00 L 2656.00 2056.00 L 2676.00 2057.00 L 2876.00 2057.00 L 2896.00 2058.00 L 2925.97 2058.00 L 2917.78 1954.00 L 2756.00 1954.00 L 2736.00 1953.00 L 2436.00 1953.00 L 2416.00 1952.00 L 2116.00 1952.00 L 2096.00 1951.00 L 1796.00 1951.00 L 1776.00 1950.00 L 1476.00 1950.00 L 1456.00 1949.00 L 1156.00 1949.00 L 1136.00 1948.00 Z" />
<path id="csg562-048-11" fill="none" stroke="black" stroke-width="1" d="M 1316.00 2054.00 L 1296.00 2056.00 L 1276.00 2058.00 L 1256.00 2060.00 L 1236.00 2085.00 L 1116.00 2085.00 L 1096.00 2084.00 L 848.26 2084.00 L 845.71 2173.00 L 1016.00 2173.00 L 1036.00 2174.00 L 1236.00 2174.00 L 1256.00 2175.00 L 1456.00 2175.00 L 1476.00 2176.00 L 1656.00 2176.00 L 1676.00 2177.00 L 1876.00 2177.00 L 1896.00 2178.00 L 2096.00 2178.00 L 2116.00 2179.00 L 2316.00 2179.00 L 2336.00 2180.00 L 2516.00 2180.00 L 2536.00 2181.00 L 2736.00 2181.00 L 2756.00 2182.00 L 2823.57 2182.00 L 2820.00 2178.00 L 2934.00 2160.00 L 2928.57 2091.00 L 2876.00 2091.00 L 2856.00 2090.00 L 2576.00 2090.00 L 2556.00 2089.00 L 2276.00 2089.00 L 2256.00 2088.00 L 1996.00 2088.00 L 1976.00 2087.00 L 1696.00 2087.00 L 1676.00 2086.00 L 1556.00 2086.00 L 1536.00 2058.00 L 1516.00 2056.00 L 1496.00 2054.00 Z" />
<path id="csg562-048-12" fill="none" stroke="black" stroke-width="1" d="M 845.71 2173.00 L 843.00 2268.00 L 842.81 2284.00 L 936.00 2284.00 L 956.00 2304.00 L 976.00 2284.00 L 996.00 2285.00 L 1156.00 2285.00 L 1176.00 2286.00 L 1316.00 2286.00 L 1336.00 2287.00 L 1496.00 2287.00 L 1516.00 2288.00 L 1656.00 2288.00 L 1676.00 2289.00 L 1816.00 2289.00 L 1836.00 2309.00 L 1856.00 2290.00 L 1996.00 2290.00 L 2016.00 2291.00 L 2176.00 2291.00 L 2196.00 2292.00 L 2316.00 2292.00 L 2336.00 2272.00 L 2356.00 2293.00 L 2516.00 2293.00 L 2536.00 2294.00 L 2676.00 2294.00 L 2696.00 2295.00 L 2856.00 2295.00 L 2876.00 2296.00 L 2925.36 2296.00 L 2823.57 2182.00 L 2756.00 2182.00 L 2736.00 2181.00 L 2536.00 2181.00 L 2516.00 2180.00 L 2336.00 2180.00 L 2316.00 2179.00 L 2116.00 2179.00 L 2096.00 2178.00 L 1896.00 2178.00 L 1876.00 2177.00 L 1676.00 2177.00 L 1656.00 2176.00 L 1476.00 2176.00 L 1456.00 2175.00 L 1256.00 2175.00 L 1236.00 2174.00 L 1036.00 2174.00 L 1016.00 2173.00 Z" />
<path id="csg562-048-13" fill="none" stroke="black" stroke-width="1" d="M 2336.00 2272.00 L 2316.00 2292.00 L 2196.00 2292.00 L 2176.00 2291.00 L 2016.00 2291.00 L 1996.00 2290.00 L 1856.00 2290.00 L 1836.00 2309.00 L 1816.00 2289.00 L 1676.00 2289.00 L 1656.00 2288.00 L 1516.00 2288.00 L 1496.00 2287.00 L 1336.00 2287.00 L 1316.00 2286.00 L 1176.00 2286.00 L 1156.00 2285.00 L 996.00 2285.00 L 976.00 2284.00 L 956.00 2304.00 L 936.00 2284.00 L 842.81 2284.00 L 841.31 2408.00 L 976.00 2408.00 L 996.00 2409.00 L 1156.00 2409.00 L 1176.00 2410.00 L 1336.00 2410.00 L 1356.00 2411.00 L 1516.00 2411.00 L 1536.00 2412.00 L 1696.00 2412.00 L 1716.00 2413.00 L 1876.00 2413.00 L 1896.00 2414.00 L 2056.00 2414.00 L 2076.00 2415.00 L 2236.00 2415.00 L 2256.00 2416.00 L 2416.00 2416.00 L 2436.00 2417.00 L 2596.00 2417.00 L 2616.00 2418.00 L 2776.00 2418.00 L 2796.00 2419.00 L 2909.17 2419.00 L 2970.00 2346.00 L 2925.36 2296.00 L 2876.00 2296.00 L 2856.00 2295.00 L 2696.00 2295.00 L 2676.00 2294.00 L 2536.00 2294.00 L 2516.00 2293.00 L 2356.00 2293.00 L 2336.00 2272.00 Z" />
<path id="csg562-048-14" fill="none" stroke="black" stroke-width="1" d="M 841.31 2408.00 L 840.01 2515.00 L 1056.00 2515.00 L 1076.00 2516.00 L 1316.00 2516.00 L 1336.00 2517.00 L 1576.00 2517.00 L 1596.00 2518.00 L 1816.00 2518.00 L 1836.00 2519.00 L 2076.00 2519.00 L 2096.00 2520.00 L 2336.00 2520.00 L 2356.00 2521.00 L 2596.00 2521.00 L 2616.00 2522.00 L 2836.00 2522.00 L 2856.00 2523.00 L 2895.00 2523.00 L 2895.00 2436.00 L 2909.17 2419.00 L 2796.00 2419.00 L 2776.00 2418.00 L 2616.00 2418.00 L 2596.00 2417.00 L 2436.00 2417.00 L 2416.00 2416.00 L 2256.00 2416.00 L 2236.00 2415.00 L 2076.00 2415.00 L 2056.00 2414.00 L 1896.00 2414.00 L 1876.00 2413.00 L 1716.00 2413.00 L 1696.00 2412.00 L 1536.00 2412.00 L 1516.00 2411.00 L 1356.00 2411.00 L 1336.00 2410.00 L 1176.00 2410.00 L 1156.00 2409.00 L 996.00 2409.00 L 976.00 2408.00 Z" />
<path id="csg562-048-15" fill="none" stroke="black" stroke-width="1" d="M 840.01 2515.00 L 838.58 2633.00 L 1036.00 2633.00 L 1056.00 2634.00 L 1276.00 2634.00 L 1296.00 2635.00 L 1496.00 2635.00 L 1516.00 2636.00 L 1736.00 2636.00 L 1756.00 2637.00 L 1956.00 2637.00 L 1976.00 2638.00 L 2056.00 2638.00 L 2076.00 2618.00 L 2096.00 2638.00 L 2196.00 2638.00 L 2216.00 2639.00 L 2416.00 2639.00 L 2436.00 2640.00 L 2656.00 2640.00 L 2676.00 2641.00 L 2876.00 2641.00 L 2895.00 2641.95 L 2895.00 2523.00 L 2856.00 2523.00 L 2836.00 2522.00 L 2616.00 2522.00 L 2596.00 2521.00 L 2356.00 2521.00 L 2336.00 2520.00 L 2096.00 2520.00 L 2076.00 2519.00 L 1836.00 2519.00 L 1816.00 2518.00 L 1596.00 2518.00 L 1576.00 2517.00 L 1336.00 2517.00 L 1316.00 2516.00 L 1076.00 2516.00 L 1056.00 2515.00 Z" />
<path id="csg562-048-16" fill="none" stroke="black" stroke-width="1" d="M 2076.00 2618.00 L 2056.00 2638.00 L 1976.00 2638.00 L 1956.00 2637.00 L 1756.00 2637.00 L 1736.00 2636.00 L 1516.00 2636.00 L 1496.00 2635.00 L 1296.00 2635.00 L 1276.00 2634.00 L 1056.00 2634.00 L 1036.00 2633.00 L 838.58 2633.00 L 837.40 2731.00 L 1016.00 2731.00 L 1036.00 2732.00 L 1216.00 2732.00 L 1236.00 2733.00 L 1436.00 2733.00 L 1456.00 2734.00 L 1636.00 2734.00 L 1656.00 2735.00 L 1856.00 2735.00 L 1876.00 2736.00 L 2056.00 2736.00 L 2076.00 2737.00 L 2276.00 2737.00 L 2296.00 2738.00 L 2456.00 2738.00 L 2476.00 2758.00 L 2496.00 2739.00 L 2696.00 2739.00 L 2716.00 2740.00 L 2895.00 2740.00 L 2895.00 2641.95 L 2876.00 2641.00 L 2676.00 2641.00 L 2656.00 2640.00 L 2436.00 2640.00 L 2416.00 2639.00 L 2216.00 2639.00 L 2196.00 2638.00 L 2096.00 2638.00 L 2076.00 2618.00 Z" />
<path id="csg562-048-17" fill="none" stroke="black" stroke-width="1" d="M 837.40 2731.00 L 836.12 2837.00 L 896.00 2837.00 L 916.00 2817.00 L 936.00 2837.00 L 956.00 2837.00 L 976.00 2838.00 L 1116.00 2838.00 L 1136.00 2839.00 L 1276.00 2839.00 L 1296.00 2840.00 L 1416.00 2840.00 L 1436.00 2841.00 L 1576.00 2841.00 L 1596.00 2842.00 L 1736.00 2842.00 L 1756.00 2843.00 L 1896.00 2843.00 L 1916.00 2844.00 L 2036.00 2844.00 L 2056.00 2845.00 L 2196.00 2845.00 L 2216.00 2846.00 L 2356.00 2846.00 L 2376.00 2847.00 L 2496.00 2847.00 L 2516.00 2848.00 L 2656.00 2848.00 L 2676.00 2849.00 L 2816.00 2849.00 L 2836.00 2850.00 L 2895.00 2850.00 L 2895.00 2740.00 L 2716.00 2740.00 L 2696.00 2739.00 L 2496.00 2739.00 L 2476.00 2758.00 L 2456.00 2738.00 L 2296.00 2738.00 L 2276.00 2737.00 L 2076.00 2737.00 L 2056.00 2736.00 L 1876.00 2736.00 L 1856.00 2735.00 L 1656.00 2735.00 L 1636.00 2734.00 L 1456.00 2734.00 L 1436.00 2733.00 L 1236.00 2733.00 L 1216.00 2732.00 L 1036.00 2732.00 L 1016.00 2731.00 Z" />
<path id="csg562-048-18" fill="none" stroke="black" stroke-width="1" d="M 916.00 2817.00 L 896.00 2837.00 L 836.12 2837.00 L 834.84 2942.58 L 836.00 2942.00 L 996.00 2942.00 L 1016.00 2943.00 L 1196.00 2943.00 L 1216.00 2944.00 L 1376.00 2944.00 L 1396.00 2945.00 L 1576.00 2945.00 L 1596.00 2946.00 L 1756.00 2946.00 L 1776.00 2947.00 L 1956.00 2947.00 L 1976.00 2948.00 L 2136.00 2948.00 L 2156.00 2949.00 L 2336.00 2949.00 L 2356.00 2950.00 L 2536.00 2950.00 L 2556.00 2951.00 L 2716.00 2951.00 L 2736.00 2952.00 L 2916.00 2952.00 L 2933.66 2952.88 L 2895.00 2859.00 L 2895.00 2850.00 L 2836.00 2850.00 L 2816.00 2849.00 L 2676.00 2849.00 L 2656.00 2848.00 L 2516.00 2848.00 L 2496.00 2847.00 L 2376.00 2847.00 L 2356.00 2846.00 L 2216.00 2846.00 L 2196.00 2845.00 L 2056.00 2845.00 L 2036.00 2844.00 L 1916.00 2844.00 L 1896.00 2843.00 L 1756.00 2843.00 L 1736.00 2842.00 L 1596.00 2842.00 L 1576.00 2841.00 L 1436.00 2841.00 L 1416.00 2840.00 L 1296.00 2840.00 L 1276.00 2839.00 L 1136.00 2839.00 L 1116.00 2838.00 L 976.00 2838.00 L 956.00 2837.00 L 936.00 2837.00 L 916.00 2817.00 Z" />
<path id="csg562-048-19" fill="none" stroke="black" stroke-width="1" d="M 836.00 2942.00 L 834.84 2942.58 L 834.00 3012.00 L 831.37 3066.31 L 836.00 3064.00 L 1036.00 3064.00 L 1056.00 3065.00 L 1256.00 3065.00 L 1276.00 3066.00 L 1476.00 3066.00 L 1496.00 3067.00 L 1616.00 3067.00 L 1636.00 3047.00 L 1656.00 3047.00 L 1676.00 3067.00 L 1696.00 3067.00 L 1716.00 3068.00 L 1916.00 3068.00 L 1936.00 3069.00 L 2156.00 3069.00 L 2176.00 3070.00 L 2376.00 3070.00 L 2396.00 3071.00 L 2596.00 3071.00 L 2616.00 3072.00 L 2816.00 3072.00 L 2836.00 3073.00 L 2983.12 3073.00 L 2933.66 2952.88 L 2916.00 2952.00 L 2736.00 2952.00 L 2716.00 2951.00 L 2556.00 2951.00 L 2536.00 2950.00 L 2356.00 2950.00 L 2336.00 2949.00 L 2156.00 2949.00 L 2136.00 2948.00 L 1976.00 2948.00 L 1956.00 2947.00 L 1776.00 2947.00 L 1756.00 2946.00 L 1596.00 2946.00 L 1576.00 2945.00 L 1396.00 2945.00 L 1376.00 2944.00 L 1216.00 2944.00 L 1196.00 2943.00 L 1016.00 2943.00 L 996.00 2942.00 Z" />
<path id="csg562-048-20" fill="none" stroke="black" stroke-width="1" d="M 1636.00 3047.00 L 1616.00 3067.00 L 1496.00 3067.00 L 1476.00 3066.00 L 1276.00 3066.00 L 1256.00 3065.00 L 1056.00 3065.00 L 1036.00 3064.00 L 836.00 3064.00 L 831.37 3066.31 L 826.17 3173.92 L 836.00 3169.00 L 1096.00 3169.00 L 1116.00 3170.00 L 1396.00 3170.00 L 1416.00 3171.00 L 1696.00 3171.00 L 1716.00 3172.00 L 1916.00 3172.00 L 1936.00 3192.00 L 1956.00 3172.00 L 1976.00 3172.00 L 1996.00 3173.00 L 2216.00 3173.00 L 2236.00 3193.00 L 2256.00 3173.00 L 2276.00 3173.00 L 2296.00 3174.00 L 2576.00 3174.00 L 2596.00 3175.00 L 2876.00 3175.00 L 2896.00 3176.00 L 2971.51 3176.00 L 3000.00 3114.00 L 2983.12 3073.00 L 2836.00 3073.00 L 2816.00 3072.00 L 2616.00 3072.00 L 2596.00 3071.00 L 2396.00 3071.00 L 2376.00 3070.00 L 2176.00 3070.00 L 2156.00 3069.00 L 1936.00 3069.00 L 1916.00 3068.00 L 1716.00 3068.00 L 1696.00 3067.00 L 1676.00 3067.00 L 1656.00 3047.00 Z" />
<path id="csg562-048-21" fill="none" stroke="black" stroke-width="1" d="M 836.00 3169.00 L 826.17 3173.92 L 820.46 3291.77 L 836.00 3284.00 L 1056.00 3284.00 L 1076.00 3285.00 L 1316.00 3285.00 L 1336.00 3286.00 L 1576.00 3286.00 L 1596.00 3287.00 L 1676.00 3287.00 L 1696.00 3267.00 L 1716.00 3267.00 L 1736.00 3287.00 L 1816.00 3287.00 L 1836.00 3288.00 L 2076.00 3288.00 L 2096.00 3289.00 L 2336.00 3289.00 L 2356.00 3290.00 L 2596.00 3290.00 L 2616.00 3291.00 L 2836.00 3291.00 L 2856.00 3292.00 L 2941.87 3292.00 L 2949.00 3225.00 L 2971.51 3176.00 L 2896.00 3176.00 L 2876.00 3175.00 L 2596.00 3175.00 L 2576.00 3174.00 L 2296.00 3174.00 L 2276.00 3173.00 L 2256.00 3173.00 L 2236.00 3193.00 L 2216.00 3173.00 L 1996.00 3173.00 L 1976.00 3172.00 L 1956.00 3172.00 L 1936.00 3192.00 L 1916.00 3172.00 L 1716.00 3172.00 L 1696.00 3171.00 L 1416.00 3171.00 L 1396.00 3170.00 L 1116.00 3170.00 L 1096.00 3169.00 Z" />
<path id="csg562-048-22" fill="none" stroke="black" stroke-width="1" d="M 1696.00 3267.00 L 1676.00 3287.00 L 1596.00 3287.00 L 1576.00 3286.00 L 1336.00 3286.00 L 1316.00 3285.00 L 1076.00 3285.00 L 1056.00 3284.00 L 836.00 3284.00 L 820.46 3291.77 L 816.00 3384.00 L 822.84 3405.58 L 836.00 3399.00 L 1096.00 3399.00 L 1116.00 3400.00 L 1396.00 3400.00 L 1416.00 3401.00 L 1696.00 3401.00 L 1716.00 3402.00 L 1976.00 3402.00 L 1996.00 3403.00 L 2136.00 3403.00 L 2156.00 3383.00 L 2176.00 3403.00 L 2276.00 3403.00 L 2296.00 3404.00 L 2576.00 3404.00 L 2596.00 3405.00 L 2876.00 3405.00 L 2896.00 3406.00 L 2929.74 3406.00 L 2941.87 3292.00 L 2856.00 3292.00 L 2836.00 3291.00 L 2616.00 3291.00 L 2596.00 3290.00 L 2356.00 3290.00 L 2336.00 3289.00 L 2096.00 3289.00 L 2076.00 3288.00 L 1836.00 3288.00 L 1816.00 3287.00 L 1736.00 3287.00 L 1716.00 3267.00 Z" />
<path id="csg562-048-23" fill="none" stroke="black" stroke-width="1" d="M 2156.00 3383.00 L 2136.00 3403.00 L 1996.00 3403.00 L 1976.00 3402.00 L 1716.00 3402.00 L 1696.00 3401.00 L 1416.00 3401.00 L 1396.00 3400.00 L 1116.00 3400.00 L 1096.00 3399.00 L 836.00 3399.00 L 822.84 3405.58 L 855.00 3507.00 L 1027.57 3515.00 L 1056.00 3515.00 L 1076.00 3516.00 L 1316.00 3516.00 L 1336.00 3517.00 L 1576.00 3517.00 L 1596.00 3518.00 L 1816.00 3518.00 L 1836.00 3519.00 L 2076.00 3519.00 L 2096.00 3520.00 L 2336.00 3520.00 L 2356.00 3521.00 L 2480.33 3521.00 L 2919.00 3507.00 L 2929.74 3406.00 L 2896.00 3406.00 L 2876.00 3405.00 L 2596.00 3405.00 L 2576.00 3404.00 L 2296.00 3404.00 L 2276.00 3403.00 L 2176.00 3403.00 L 2156.00 3383.00 Z" />
</svg>
