<?xml version="1.0" standalone="no"?>
<!DOCTYPE svg PUBLIC "-//W3C//DTD SVG 1.1//EN" "http://www.w3.org/Graphics/SVG/1.1/DTD/svg11.dtd">
<svg width="46.22222in" height="69.333336in" viewBox="0 0 3328 4992" xmlns="http://www.w3.org/2000/svg" version="1.1">
<path id="csg562-059-01" fill="none" stroke="black" stroke-width="1" d="M 834.00 783.00 L 321.00 822.00 L 315.57 892.57 L 329.00 859.00 L 349.00 879.00 L 369.00 879.00 L 389.00 859.00 L 409.00 879.00 L 429.00 899.00 L 449.00 900.00 L 569.00 900.00 L 589.00 901.00 L 689.00 901.00 L 709.00 902.00 L 829.00 902.00 L 849.00 903.00 L 949.00 903.00 L 969.00 904.00 L 1089.00 904.00 L 1109.00 905.00 L 1209.00 905.00 L 1229.00 906.00 L 1349.00 906.00 L 1369.00 907.00 L 1469.00 907.00 L 1489.00 908.00 L 1609.00 908.00 L 1629.00 909.00 L 1729.00 909.00 L 1749.00 910.00 L 1869.00 910.00 L 1889.00 911.00 L 1989.00 911.00 L 2009.00 912.00 L 2129.00 912.00 L 2149.00 913.00 L 2249.00 913.00 L 2269.00 914.00 L 2389.00 914.00 L 2409.00 915.00 L 2424.26 915.00 L 2307.00 807.00 L 2019.00 792.00 L 1332.00 804.00 L 834.00 783.00 Z" />
<path id="csg562-059-02" fill="none" stroke="black" stroke-width="1" d="M 329.00 859.00 L 315.57 892.57 L 309.00 978.00 L 310.01 1016.50 L 329.00 1007.00 L 349.00 1007.00 L 369.00 1027.00 L 389.00 1007.00 L 469.00 1007.00 L 489.00 1008.00 L 649.00 1008.00 L 669.00 1009.00 L 809.00 1009.00 L 829.00 1010.00 L 989.00 1010.00 L 1009.00 1011.00 L 1169.00 1011.00 L 1189.00 1012.00 L 1329.00 1012.00 L 1349.00 1013.00 L 1509.00 1013.00 L 1529.00 1014.00 L 1689.00 1014.00 L 1709.00 1015.00 L 1849.00 1015.00 L 1869.00 1036.00 L 1889.00 1016.00 L 2029.00 1016.00 L 2049.00 1017.00 L 2209.00 1017.00 L 2229.00 1018.00 L 2369.00 1018.00 L 2389.00 1019.00 L 2535.32 1019.00 L 2535.00 1017.00 L 2424.26 915.00 L 2409.00 915.00 L 2389.00 914.00 L 2269.00 914.00 L 2249.00 913.00 L 2149.00 913.00 L 2129.00 912.00 L 2009.00 912.00 L 1989.00 911.00 L 1889.00 911.00 L 1869.00 910.00 L 1749.00 910.00 L 1729.00 909.00 L 1629.00 909.00 L 1609.00 908.00 L 1489.00 908.00 L 1469.00 907.00 L 1369.00 907.00 L 1349.00 906.00 L 1229.00 906.00 L 1209.00 905.00 L 1109.00 905.00 L 1089.00 904.00 L 969.00 904.00 L 949.00 903.00 L 849.00 903.00 L 829.00 902.00 L 709.00 902.00 L 689.00 901.00 L 589.00 901.00 L 569.00 900.00 L 449.00 900.00 L 429.00 899.00 L 409.00 879.00 L 389.00 859.00 L 369.00 879.00 L 349.00 879.00 L 329.00 859.00 Z" />
<path id="csg562-059-03" fill="none" stroke="black" stroke-width="1" d="M 329.00 1007.00 L 310.01 1016.50 L 312.89 1127.05 L 329.00 1119.00 L 449.00 1119.00 L 469.00 1120.00 L 589.00 1120.00 L 609.00 1121.00 L 729.00 1121.00 L 749.00 1122.00 L 869.00 1122.00 L 889.00 1123.00 L 1009.00 1123.00 L 1029.00 1124.00 L 1149.00 1124.00 L 1169.00 1125.00 L 1229.00 1125.00 L 1249.00 1105.00 L 1269.00 1105.00 L 1289.00 1085.00 L 1309.00 1126.00 L 1429.00 1126.00 L 1449.00 1127.00 L 1569.00 1127.00 L 1589.00 1128.00 L 1709.00 1128.00 L 1729.00 1129.00 L 1849.00 1129.00 L 1869.00 1130.00 L 1989.00 1130.00 L 2009.00 1131.00 L 2129.00 1131.00 L 2149.00 1132.00 L 2269.00 1132.00 L 2289.00 1133.00 L 2429.00 1133.00 L 2449.00 1134.00 L 2510.89 1134.00 L 2547.00 1092.00 L 2535.32 1019.00 L 2389.00 1019.00 L 2369.00 1018.00 L 2229.00 1018.00 L 2209.00 1017.00 L 2049.00 1017.00 L 2029.00 1016.00 L 1889.00 1016.00 L 1869.00 1036.00 L 1849.00 1015.00 L 1709.00 1015.00 L 1689.00 1014.00 L 1529.00 1014.00 L 1509.00 1013.00 L 1349.00 1013.00 L 1329.00 1012.00 L 1189.00 1012.00 L 1169.00 1011.00 L 1009.00 1011.00 L 989.00 1010.00 L 829.00 1010.00 L 809.00 1009.00 L 669.00 1009.00 L 649.00 1008.00 L 489.00 1008.00 L 469.00 1007.00 L 389.00 1007.00 L 369.00 1027.00 L 349.00 1007.00 Z" />
<path id="csg562-059-04" fill="none" stroke="black" stroke-width="1" d="M 1289.00 1085.00 L 1269.00 1105.00 L 1249.00 1105.00 L 1229.00 1125.00 L 1169.00 1125.00 L 1149.00 1124.00 L 1029.00 1124.00 L 1009.00 1123.00 L 889.00 1123.00 L 869.00 1122.00 L 749.00 1122.00 L 729.00 1121.00 L 609.00 1121.00 L 589.00 1120.00 L 469.00 1120.00 L 449.00 1119.00 L 329.00 1119.00 L 312.89 1127.05 L 315.81 1238.60 L 329.00 1232.00 L 489.00 1232.00 L 509.00 1233.00 L 689.00 1233.00 L 709.00 1234.00 L 889.00 1234.00 L 909.00 1235.00 L 1089.00 1235.00 L 1109.00 1236.00 L 1269.00 1236.00 L 1289.00 1237.00 L 1469.00 1237.00 L 1489.00 1238.00 L 1669.00 1238.00 L 1689.00 1239.00 L 1869.00 1239.00 L 1889.00 1240.00 L 2069.00 1240.00 L 2089.00 1241.00 L 2249.00 1241.00 L 2269.00 1242.00 L 2418.05 1242.00 L 2510.89 1134.00 L 2449.00 1134.00 L 2429.00 1133.00 L 2289.00 1133.00 L 2269.00 1132.00 L 2149.00 1132.00 L 2129.00 1131.00 L 2009.00 1131.00 L 1989.00 1130.00 L 1869.00 1130.00 L 1849.00 1129.00 L 1729.00 1129.00 L 1709.00 1128.00 L 1589.00 1128.00 L 1569.00 1127.00 L 1449.00 1127.00 L 1429.00 1126.00 L 1309.00 1126.00 L 1289.00 1085.00 Z" />
<path id="csg562-059-05" fill="none" stroke="black" stroke-width="1" d="M 329.00 1232.00 L 315.81 1238.60 L 318.70 1349.15 L 329.00 1344.00 L 609.00 1344.00 L 629.00 1345.00 L 909.00 1345.00 L 929.00 1346.00 L 1209.00 1346.00 L 1229.00 1347.00 L 1509.00 1347.00 L 1529.00 1348.00 L 1809.00 1348.00 L 1829.00 1349.00 L 2109.00 1349.00 L 2129.00 1350.00 L 2429.00 1350.00 L 2449.00 1351.00 L 2479.62 1351.00 L 2400.00 1263.00 L 2418.05 1242.00 L 2269.00 1242.00 L 2249.00 1241.00 L 2089.00 1241.00 L 2069.00 1240.00 L 1889.00 1240.00 L 1869.00 1239.00 L 1689.00 1239.00 L 1669.00 1238.00 L 1489.00 1238.00 L 1469.00 1237.00 L 1289.00 1237.00 L 1269.00 1236.00 L 1109.00 1236.00 L 1089.00 1235.00 L 909.00 1235.00 L 889.00 1234.00 L 709.00 1234.00 L 689.00 1233.00 L 509.00 1233.00 L 489.00 1232.00 Z" />
<path id="csg562-059-06" fill="none" stroke="black" stroke-width="1" d="M 329.00 1344.00 L 318.70 1349.15 L 321.72 1464.64 L 329.00 1461.00 L 529.00 1461.00 L 549.00 1462.00 L 749.00 1462.00 L 769.00 1463.00 L 969.00 1463.00 L 989.00 1464.00 L 1209.00 1464.00 L 1229.00 1465.00 L 1429.00 1465.00 L 1449.00 1466.00 L 1649.00 1466.00 L 1669.00 1467.00 L 1889.00 1467.00 L 1909.00 1468.00 L 2109.00 1468.00 L 2129.00 1469.00 L 2329.00 1469.00 L 2349.00 1470.00 L 2461.93 1470.00 L 2514.00 1389.00 L 2479.62 1351.00 L 2449.00 1351.00 L 2429.00 1350.00 L 2129.00 1350.00 L 2109.00 1349.00 L 1829.00 1349.00 L 1809.00 1348.00 L 1529.00 1348.00 L 1509.00 1347.00 L 1229.00 1347.00 L 1209.00 1346.00 L 929.00 1346.00 L 909.00 1345.00 L 629.00 1345.00 L 609.00 1344.00 Z" />
<path id="csg562-059-07" fill="none" stroke="black" stroke-width="1" d="M 329.00 1461.00 L 321.72 1464.64 L 324.47 1570.26 L 329.00 1568.00 L 489.00 1568.00 L 509.00 1588.00 L 529.00 1568.00 L 549.00 1569.00 L 749.00 1569.00 L 769.00 1570.00 L 969.00 1570.00 L 989.00 1571.00 L 1109.00 1571.00 L 1129.00 1591.00 L 1149.00 1571.00 L 1189.00 1571.00 L 1209.00 1572.00 L 1229.00 1572.00 L 1249.00 1592.00 L 1289.00 1592.00 L 1309.00 1572.00 L 1409.00 1572.00 L 1429.00 1573.00 L 1489.00 1573.00 L 1509.00 1593.00 L 1529.00 1573.00 L 1649.00 1573.00 L 1669.00 1574.00 L 1869.00 1574.00 L 1889.00 1575.00 L 2089.00 1575.00 L 2109.00 1596.00 L 2129.00 1576.00 L 2309.00 1576.00 L 2329.00 1577.00 L 2393.14 1577.00 L 2461.93 1470.00 L 2349.00 1470.00 L 2329.00 1469.00 L 2129.00 1469.00 L 2109.00 1468.00 L 1909.00 1468.00 L 1889.00 1467.00 L 1669.00 1467.00 L 1649.00 1466.00 L 1449.00 1466.00 L 1429.00 1465.00 L 1229.00 1465.00 L 1209.00 1464.00 L 989.00 1464.00 L 969.00 1463.00 L 769.00 1463.00 L 749.00 1462.00 L 549.00 1462.00 L 529.00 1461.00 Z" />
<path id="csg562-059-08" fill="none" stroke="black" stroke-width="1" d="M 329.00 1568.00 L 324.47 1570.26 L 327.54 1687.73 L 329.00 1687.00 L 829.00 1687.00 L 849.00 1688.00 L 1349.00 1688.00 L 1369.00 1689.00 L 1889.00 1689.00 L 1909.00 1690.00 L 2409.00 1690.00 L 2429.00 1691.00 L 2435.53 1691.00 L 2379.00 1599.00 L 2393.14 1577.00 L 2329.00 1577.00 L 2309.00 1576.00 L 2129.00 1576.00 L 2109.00 1596.00 L 2089.00 1575.00 L 1889.00 1575.00 L 1869.00 1574.00 L 1669.00 1574.00 L 1649.00 1573.00 L 1529.00 1573.00 L 1509.00 1593.00 L 1489.00 1573.00 L 1429.00 1573.00 L 1409.00 1572.00 L 1309.00 1572.00 L 1289.00 1592.00 L 1249.00 1592.00 L 1229.00 1572.00 L 1209.00 1572.00 L 1189.00 1571.00 L 1149.00 1571.00 L 1129.00 1591.00 L 1109.00 1571.00 L 989.00 1571.00 L 969.00 1570.00 L 769.00 1570.00 L 749.00 1569.00 L 549.00 1569.00 L 529.00 1568.00 L 509.00 1588.00 L 489.00 1568.00 Z" />
<path id="csg562-059-09" fill="none" stroke="black" stroke-width="1" d="M 329.00 1687.00 L 327.54 1687.73 L 330.37 1796.00 L 369.00 1796.00 L 389.00 1816.00 L 409.00 1816.00 L 429.00 1796.00 L 1649.00 1796.00 L 1669.00 1816.00 L 1689.00 1796.00 L 1869.00 1796.00 L 1889.00 1776.00 L 1909.00 1776.00 L 1929.00 1796.00 L 1949.00 1776.00 L 1969.00 1796.00 L 2229.00 1796.00 L 2249.00 1797.00 L 2500.66 1797.00 L 2435.53 1691.00 L 2429.00 1691.00 L 2409.00 1690.00 L 1909.00 1690.00 L 1889.00 1689.00 L 1369.00 1689.00 L 1349.00 1688.00 L 849.00 1688.00 L 829.00 1687.00 Z" />
<path id="csg562-059-10" fill="none" stroke="black" stroke-width="1" d="M 1889.00 1776.00 L 1869.00 1796.00 L 1689.00 1796.00 L 1669.00 1816.00 L 1649.00 1796.00 L 429.00 1796.00 L 409.00 1816.00 L 389.00 1816.00 L 369.00 1796.00 L 330.37 1796.00 L 333.27 1907.00 L 829.00 1907.00 L 849.00 1908.00 L 1229.00 1908.00 L 1249.00 1928.00 L 1269.00 1908.00 L 1349.00 1908.00 L 1369.00 1909.00 L 1549.00 1909.00 L 1569.00 1929.00 L 1589.00 1909.00 L 1869.00 1909.00 L 1889.00 1910.00 L 2149.00 1910.00 L 2169.00 1930.00 L 2189.00 1910.00 L 2209.00 1930.00 L 2229.00 1910.00 L 2389.00 1910.00 L 2409.00 1911.00 L 2506.06 1911.00 L 2532.00 1848.00 L 2500.66 1797.00 L 2249.00 1797.00 L 2229.00 1796.00 L 1969.00 1796.00 L 1949.00 1776.00 L 1929.00 1796.00 L 1909.00 1776.00 Z" />
<path id="csg562-059-11" fill="none" stroke="black" stroke-width="1" d="M 333.27 1907.00 L 336.17 2018.00 L 529.00 2018.00 L 549.00 2019.00 L 769.00 2019.00 L 789.00 2020.00 L 1009.00 2020.00 L 1029.00 2021.00 L 1229.00 2021.00 L 1249.00 2022.00 L 1269.00 2042.00 L 1289.00 2022.00 L 1469.00 2022.00 L 1489.00 2023.00 L 1709.00 2023.00 L 1729.00 2024.00 L 1929.00 2024.00 L 1949.00 2025.00 L 2129.00 2025.00 L 2149.00 2045.00 L 2169.00 2025.00 L 2189.00 2026.00 L 2343.26 2026.00 L 2346.00 2019.00 L 2469.00 2001.00 L 2506.06 1911.00 L 2409.00 1911.00 L 2389.00 1910.00 L 2229.00 1910.00 L 2209.00 1930.00 L 2189.00 1910.00 L 2169.00 1930.00 L 2149.00 1910.00 L 1889.00 1910.00 L 1869.00 1909.00 L 1589.00 1909.00 L 1569.00 1929.00 L 1549.00 1909.00 L 1369.00 1909.00 L 1349.00 1908.00 L 1269.00 1908.00 L 1249.00 1928.00 L 1229.00 1908.00 L 849.00 1908.00 L 829.00 1907.00 Z" />
<path id="csg562-059-12" fill="none" stroke="black" stroke-width="1" d="M 336.17 2018.00 L 339.15 2132.00 L 349.00 2132.00 L 369.00 2112.00 L 389.00 2112.00 L 409.00 2113.00 L 429.00 2133.00 L 489.00 2133.00 L 509.00 2134.00 L 569.00 2134.00 L 589.00 2135.00 L 609.00 2155.00 L 629.00 2135.00 L 669.00 2135.00 L 689.00 2136.00 L 709.00 2116.00 L 729.00 2136.00 L 749.00 2136.00 L 769.00 2137.00 L 849.00 2137.00 L 869.00 2138.00 L 929.00 2138.00 L 949.00 2139.00 L 1029.00 2139.00 L 1049.00 2140.00 L 1109.00 2140.00 L 1129.00 2141.00 L 1209.00 2141.00 L 1229.00 2142.00 L 1289.00 2142.00 L 1309.00 2143.00 L 1389.00 2143.00 L 1409.00 2144.00 L 1469.00 2144.00 L 1489.00 2145.00 L 1569.00 2145.00 L 1589.00 2146.00 L 1649.00 2146.00 L 1669.00 2147.00 L 1749.00 2147.00 L 1769.00 2148.00 L 1829.00 2148.00 L 1849.00 2149.00 L 1929.00 2149.00 L 1949.00 2150.00 L 2009.00 2150.00 L 2029.00 2151.00 L 2109.00 2151.00 L 2129.00 2152.00 L 2189.00 2152.00 L 2209.00 2153.00 L 2289.00 2153.00 L 2293.48 2153.22 L 2343.26 2026.00 L 2189.00 2026.00 L 2169.00 2025.00 L 2149.00 2045.00 L 2129.00 2025.00 L 1949.00 2025.00 L 1929.00 2024.00 L 1729.00 2024.00 L 1709.00 2023.00 L 1489.00 2023.00 L 1469.00 2022.00 L 1289.00 2022.00 L 1269.00 2042.00 L 1249.00 2022.00 L 1229.00 2021.00 L 1029.00 2021.00 L 1009.00 2020.00 L 789.00 2020.00 L 769.00 2019.00 L 549.00 2019.00 L 529.00 2018.00 Z" />
<path id="csg562-059-13" fill="none" stroke="black" stroke-width="1" d="M 369.00 2112.00 L 349.00 2132.00 L 339.15 2132.00 L 342.00 2241.00 L 342.04 2246.00 L 429.00 2246.00 L 449.00 2247.00 L 549.00 2247.00 L 569.00 2248.00 L 669.00 2248.00 L 689.00 2249.00 L 789.00 2249.00 L 809.00 2250.00 L 909.00 2250.00 L 929.00 2251.00 L 1029.00 2251.00 L 1049.00 2252.00 L 1169.00 2252.00 L 1189.00 2253.00 L 1289.00 2253.00 L 1309.00 2254.00 L 1409.00 2254.00 L 1429.00 2255.00 L 1529.00 2255.00 L 1549.00 2256.00 L 1649.00 2256.00 L 1669.00 2257.00 L 1769.00 2257.00 L 1789.00 2258.00 L 1889.00 2258.00 L 1909.00 2259.00 L 2029.00 2259.00 L 2049.00 2260.00 L 2069.00 2240.00 L 2109.00 2240.00 L 2129.00 2260.00 L 2149.00 2260.00 L 2169.00 2261.00 L 2269.00 2261.00 L 2289.00 2262.00 L 2389.00 2262.00 L 2409.00 2263.00 L 2454.89 2263.00 L 2433.00 2172.00 L 2292.00 2157.00 L 2293.48 2153.22 L 2289.00 2153.00 L 2209.00 2153.00 L 2189.00 2152.00 L 2129.00 2152.00 L 2109.00 2151.00 L 2029.00 2151.00 L 2009.00 2150.00 L 1949.00 2150.00 L 1929.00 2149.00 L 1849.00 2149.00 L 1829.00 2148.00 L 1769.00 2148.00 L 1749.00 2147.00 L 1669.00 2147.00 L 1649.00 2146.00 L 1589.00 2146.00 L 1569.00 2145.00 L 1489.00 2145.00 L 1469.00 2144.00 L 1409.00 2144.00 L 1389.00 2143.00 L 1309.00 2143.00 L 1289.00 2142.00 L 1229.00 2142.00 L 1209.00 2141.00 L 1129.00 2141.00 L 1109.00 2140.00 L 1049.00 2140.00 L 1029.00 2139.00 L 949.00 2139.00 L 929.00 2138.00 L 869.00 2138.00 L 849.00 2137.00 L 769.00 2137.00 L 749.00 2136.00 L 729.00 2136.00 L 709.00 2116.00 L 689.00 2136.00 L 669.00 2135.00 L 629.00 2135.00 L 609.00 2155.00 L 589.00 2135.00 L 569.00 2134.00 L 509.00 2134.00 L 489.00 2133.00 L 429.00 2133.00 L 409.00 2113.00 L 389.00 2112.00 Z" />
<path id="csg562-059-14" fill="none" stroke="black" stroke-width="1" d="M 2069.00 2240.00 L 2049.00 2260.00 L 2029.00 2259.00 L 1909.00 2259.00 L 1889.00 2258.00 L 1789.00 2258.00 L 1769.00 2257.00 L 1669.00 2257.00 L 1649.00 2256.00 L 1549.00 2256.00 L 1529.00 2255.00 L 1429.00 2255.00 L 1409.00 2254.00 L 1309.00 2254.00 L 1289.00 2253.00 L 1189.00 2253.00 L 1169.00 2252.00 L 1049.00 2252.00 L 1029.00 2251.00 L 929.00 2251.00 L 909.00 2250.00 L 809.00 2250.00 L 789.00 2249.00 L 689.00 2249.00 L 669.00 2248.00 L 569.00 2248.00 L 549.00 2247.00 L 449.00 2247.00 L 429.00 2246.00 L 342.04 2246.00 L 342.93 2350.00 L 409.00 2350.00 L 429.00 2351.00 L 509.00 2351.00 L 529.00 2352.00 L 629.00 2352.00 L 649.00 2353.00 L 729.00 2353.00 L 749.00 2354.00 L 849.00 2354.00 L 869.00 2355.00 L 889.00 2335.00 L 909.00 2355.00 L 949.00 2355.00 L 969.00 2356.00 L 1069.00 2356.00 L 1089.00 2357.00 L 1169.00 2357.00 L 1189.00 2358.00 L 1289.00 2358.00 L 1309.00 2359.00 L 1389.00 2359.00 L 1409.00 2360.00 L 1489.00 2360.00 L 1509.00 2361.00 L 1609.00 2361.00 L 1629.00 2362.00 L 1709.00 2362.00 L 1729.00 2363.00 L 1829.00 2363.00 L 1849.00 2364.00 L 1929.00 2364.00 L 1949.00 2365.00 L 2049.00 2365.00 L 2069.00 2366.00 L 2149.00 2366.00 L 2169.00 2367.00 L 2269.00 2367.00 L 2289.00 2368.00 L 2369.00 2368.00 L 2389.00 2369.00 L 2469.00 2369.00 L 2480.52 2369.58 L 2454.89 2263.00 L 2409.00 2263.00 L 2389.00 2262.00 L 2289.00 2262.00 L 2269.00 2261.00 L 2169.00 2261.00 L 2149.00 2260.00 L 2129.00 2260.00 L 2109.00 2240.00 Z" />
<path id="csg562-059-15" fill="none" stroke="black" stroke-width="1" d="M 889.00 2335.00 L 869.00 2355.00 L 849.00 2354.00 L 749.00 2354.00 L 729.00 2353.00 L 649.00 2353.00 L 629.00 2352.00 L 529.00 2352.00 L 509.00 2351.00 L 429.00 2351.00 L 409.00 2350.00 L 342.93 2350.00 L 343.97 2472.00 L 429.00 2472.00 L 449.00 2473.00 L 569.00 2473.00 L 589.00 2474.00 L 689.00 2474.00 L 709.00 2475.00 L 829.00 2475.00 L 849.00 2476.00 L 869.00 2456.00 L 909.00 2456.00 L 929.00 2476.00 L 949.00 2476.00 L 969.00 2477.00 L 1089.00 2477.00 L 1109.00 2478.00 L 1209.00 2478.00 L 1229.00 2479.00 L 1349.00 2479.00 L 1369.00 2480.00 L 1469.00 2480.00 L 1489.00 2481.00 L 1609.00 2481.00 L 1629.00 2482.00 L 1729.00 2482.00 L 1749.00 2483.00 L 1869.00 2483.00 L 1889.00 2484.00 L 1989.00 2484.00 L 2009.00 2485.00 L 2129.00 2485.00 L 2149.00 2486.00 L 2249.00 2486.00 L 2269.00 2487.00 L 2389.00 2487.00 L 2409.00 2488.00 L 2428.84 2488.00 L 2490.00 2409.00 L 2480.52 2369.58 L 2469.00 2369.00 L 2389.00 2369.00 L 2369.00 2368.00 L 2289.00 2368.00 L 2269.00 2367.00 L 2169.00 2367.00 L 2149.00 2366.00 L 2069.00 2366.00 L 2049.00 2365.00 L 1949.00 2365.00 L 1929.00 2364.00 L 1849.00 2364.00 L 1829.00 2363.00 L 1729.00 2363.00 L 1709.00 2362.00 L 1629.00 2362.00 L 1609.00 2361.00 L 1509.00 2361.00 L 1489.00 2360.00 L 1409.00 2360.00 L 1389.00 2359.00 L 1309.00 2359.00 L 1289.00 2358.00 L 1189.00 2358.00 L 1169.00 2357.00 L 1089.00 2357.00 L 1069.00 2356.00 L 969.00 2356.00 L 949.00 2355.00 L 909.00 2355.00 L 889.00 2335.00 Z" />
<path id="csg562-059-16" fill="none" stroke="black" stroke-width="1" d="M 869.00 2456.00 L 849.00 2476.00 L 829.00 2475.00 L 709.00 2475.00 L 689.00 2474.00 L 589.00 2474.00 L 569.00 2473.00 L 449.00 2473.00 L 429.00 2472.00 L 343.97 2472.00 L 344.89 2580.00 L 509.00 2580.00 L 529.00 2540.00 L 549.00 2580.00 L 649.00 2580.00 L 669.00 2581.00 L 989.00 2581.00 L 1009.00 2582.00 L 1329.00 2582.00 L 1349.00 2583.00 L 1669.00 2583.00 L 1689.00 2584.00 L 2009.00 2584.00 L 2029.00 2585.00 L 2309.00 2585.00 L 2329.00 2605.00 L 2349.00 2605.00 L 2369.00 2606.00 L 2389.00 2586.00 L 2448.64 2586.00 L 2418.00 2502.00 L 2428.84 2488.00 L 2409.00 2488.00 L 2389.00 2487.00 L 2269.00 2487.00 L 2249.00 2486.00 L 2149.00 2486.00 L 2129.00 2485.00 L 2009.00 2485.00 L 1989.00 2484.00 L 1889.00 2484.00 L 1869.00 2483.00 L 1749.00 2483.00 L 1729.00 2482.00 L 1629.00 2482.00 L 1609.00 2481.00 L 1489.00 2481.00 L 1469.00 2480.00 L 1369.00 2480.00 L 1349.00 2479.00 L 1229.00 2479.00 L 1209.00 2478.00 L 1109.00 2478.00 L 1089.00 2477.00 L 969.00 2477.00 L 949.00 2476.00 L 929.00 2476.00 L 909.00 2456.00 Z" />
<path id="csg562-059-17" fill="none" stroke="black" stroke-width="1" d="M 529.00 2540.00 L 509.00 2580.00 L 344.89 2580.00 L 345.85 2693.00 L 369.00 2693.00 L 389.00 2673.00 L 409.00 2693.00 L 509.00 2693.00 L 529.00 2694.00 L 709.00 2694.00 L 729.00 2695.00 L 909.00 2695.00 L 929.00 2696.00 L 1109.00 2696.00 L 1129.00 2697.00 L 1309.00 2697.00 L 1329.00 2698.00 L 1349.00 2718.00 L 1369.00 2718.00 L 1389.00 2698.00 L 1509.00 2698.00 L 1529.00 2699.00 L 1709.00 2699.00 L 1729.00 2700.00 L 1909.00 2700.00 L 1929.00 2701.00 L 2109.00 2701.00 L 2129.00 2702.00 L 2309.00 2702.00 L 2329.00 2703.00 L 2491.31 2703.00 L 2448.64 2586.00 L 2389.00 2586.00 L 2369.00 2606.00 L 2349.00 2605.00 L 2329.00 2605.00 L 2309.00 2585.00 L 2029.00 2585.00 L 2009.00 2584.00 L 1689.00 2584.00 L 1669.00 2583.00 L 1349.00 2583.00 L 1329.00 2582.00 L 1009.00 2582.00 L 989.00 2581.00 L 669.00 2581.00 L 649.00 2580.00 L 549.00 2580.00 L 529.00 2540.00 Z" />
<path id="csg562-059-18" fill="none" stroke="black" stroke-width="1" d="M 389.00 2673.00 L 369.00 2693.00 L 345.85 2693.00 L 346.77 2802.00 L 389.00 2802.00 L 409.00 2803.00 L 469.00 2803.00 L 489.00 2804.00 L 569.00 2804.00 L 589.00 2805.00 L 649.00 2805.00 L 669.00 2806.00 L 749.00 2806.00 L 769.00 2807.00 L 829.00 2807.00 L 849.00 2808.00 L 929.00 2808.00 L 949.00 2809.00 L 1009.00 2809.00 L 1029.00 2810.00 L 1109.00 2810.00 L 1129.00 2811.00 L 1189.00 2811.00 L 1209.00 2812.00 L 1289.00 2812.00 L 1309.00 2813.00 L 1369.00 2813.00 L 1389.00 2814.00 L 1469.00 2814.00 L 1489.00 2815.00 L 1549.00 2815.00 L 1569.00 2816.00 L 1629.00 2816.00 L 1649.00 2817.00 L 1729.00 2817.00 L 1749.00 2818.00 L 1809.00 2818.00 L 1829.00 2819.00 L 1909.00 2819.00 L 1929.00 2820.00 L 1989.00 2820.00 L 2009.00 2821.00 L 2089.00 2821.00 L 2109.00 2822.00 L 2169.00 2822.00 L 2189.00 2823.00 L 2269.00 2823.00 L 2289.00 2824.00 L 2349.00 2824.00 L 2369.00 2825.00 L 2449.00 2825.00 L 2456.71 2825.39 L 2457.00 2823.00 L 2511.00 2757.00 L 2491.31 2703.00 L 2329.00 2703.00 L 2309.00 2702.00 L 2129.00 2702.00 L 2109.00 2701.00 L 1929.00 2701.00 L 1909.00 2700.00 L 1729.00 2700.00 L 1709.00 2699.00 L 1529.00 2699.00 L 1509.00 2698.00 L 1389.00 2698.00 L 1369.00 2718.00 L 1349.00 2718.00 L 1329.00 2698.00 L 1309.00 2697.00 L 1129.00 2697.00 L 1109.00 2696.00 L 929.00 2696.00 L 909.00 2695.00 L 729.00 2695.00 L 709.00 2694.00 L 529.00 2694.00 L 509.00 2693.00 L 409.00 2693.00 L 389.00 2673.00 Z" />
<path id="csg562-059-19" fill="none" stroke="black" stroke-width="1" d="M 346.77 2802.00 L 347.81 2924.00 L 549.00 2924.00 L 569.00 2925.00 L 809.00 2925.00 L 829.00 2926.00 L 1069.00 2926.00 L 1089.00 2927.00 L 1329.00 2927.00 L 1349.00 2928.00 L 1589.00 2928.00 L 1609.00 2929.00 L 1849.00 2929.00 L 1869.00 2930.00 L 2109.00 2930.00 L 2129.00 2931.00 L 2369.00 2931.00 L 2389.00 2932.00 L 2443.79 2932.00 L 2456.71 2825.39 L 2449.00 2825.00 L 2369.00 2825.00 L 2349.00 2824.00 L 2289.00 2824.00 L 2269.00 2823.00 L 2189.00 2823.00 L 2169.00 2822.00 L 2109.00 2822.00 L 2089.00 2821.00 L 2009.00 2821.00 L 1989.00 2820.00 L 1929.00 2820.00 L 1909.00 2819.00 L 1829.00 2819.00 L 1809.00 2818.00 L 1749.00 2818.00 L 1729.00 2817.00 L 1649.00 2817.00 L 1629.00 2816.00 L 1569.00 2816.00 L 1549.00 2815.00 L 1489.00 2815.00 L 1469.00 2814.00 L 1389.00 2814.00 L 1369.00 2813.00 L 1309.00 2813.00 L 1289.00 2812.00 L 1209.00 2812.00 L 1189.00 2811.00 L 1129.00 2811.00 L 1109.00 2810.00 L 1029.00 2810.00 L 1009.00 2809.00 L 949.00 2809.00 L 929.00 2808.00 L 849.00 2808.00 L 829.00 2807.00 L 769.00 2807.00 L 749.00 2806.00 L 669.00 2806.00 L 649.00 2805.00 L 589.00 2805.00 L 569.00 2804.00 L 489.00 2804.00 L 469.00 2803.00 L 409.00 2803.00 L 389.00 2802.00 Z" />
<path id="csg562-059-20" fill="none" stroke="black" stroke-width="1" d="M 347.81 2924.00 L 348.00 2946.00 L 350.57 3030.00 L 449.00 3030.00 L 469.00 3031.00 L 609.00 3031.00 L 629.00 3032.00 L 769.00 3032.00 L 789.00 3033.00 L 909.00 3033.00 L 929.00 3034.00 L 1069.00 3034.00 L 1089.00 3035.00 L 1229.00 3035.00 L 1249.00 3036.00 L 1369.00 3036.00 L 1389.00 3037.00 L 1529.00 3037.00 L 1549.00 3038.00 L 1689.00 3038.00 L 1709.00 3039.00 L 1849.00 3039.00 L 1869.00 3040.00 L 1989.00 3040.00 L 2009.00 3041.00 L 2149.00 3041.00 L 2169.00 3042.00 L 2309.00 3042.00 L 2329.00 3043.00 L 2430.33 3043.00 L 2443.79 2932.00 L 2389.00 2932.00 L 2369.00 2931.00 L 2129.00 2931.00 L 2109.00 2930.00 L 1869.00 2930.00 L 1849.00 2929.00 L 1609.00 2929.00 L 1589.00 2928.00 L 1349.00 2928.00 L 1329.00 2927.00 L 1089.00 2927.00 L 1069.00 2926.00 L 829.00 2926.00 L 809.00 2925.00 L 569.00 2925.00 L 549.00 2924.00 Z" />
<path id="csg562-059-21" fill="none" stroke="black" stroke-width="1" d="M 350.57 3030.00 L 354.09 3145.00 L 1413.00 3145.00 L 1797.00 3129.00 L 1926.78 3145.00 L 2139.75 3145.00 L 2421.00 3120.00 L 2430.33 3043.00 L 2329.00 3043.00 L 2309.00 3042.00 L 2169.00 3042.00 L 2149.00 3041.00 L 2009.00 3041.00 L 1989.00 3040.00 L 1869.00 3040.00 L 1849.00 3039.00 L 1709.00 3039.00 L 1689.00 3038.00 L 1549.00 3038.00 L 1529.00 3037.00 L 1389.00 3037.00 L 1369.00 3036.00 L 1249.00 3036.00 L 1229.00 3035.00 L 1089.00 3035.00 L 1069.00 3034.00 L 929.00 3034.00 L 909.00 3033.00 L 789.00 3033.00 L 769.00 3032.00 L 629.00 3032.00 L 609.00 3031.00 L 469.00 3031.00 L 449.00 3030.00 Z" />
<path id="csg562-059-22" fill="none" stroke="black" stroke-width="1" d="M 354.09 3145.00 L 357.00 3240.00 L 474.00 3240.00 L 576.38 3249.00 L 1074.50 3249.00 L 1140.00 3246.00 L 1149.00 3156.00 L 1413.00 3145.00 Z" />
</svg>
