<?xml version="1.0" standalone="no"?>
<!DOCTYPE svg PUBLIC "-//W3C//DTD SVG 1.1//EN" "http://www.w3.org/Graphics/SVG/1.1/DTD/svg11.dtd">
<svg width="46.22222in" height="69.333336in" viewBox="0 0 3328 4992" xmlns="http://www.w3.org/2000/svg" version="1.1">
<path id="csg562-015-01" fill="none" stroke="black" stroke-width="1" d="M 2388.00 756.00 L 2211.00 765.00 L 1785.00 780.00 L 1686.00 777.00 L 1329.00 786.00 L 1236.00 765.00 L 828.00 789.00 L 711.00 771.00 L 390.00 807.00 L 383.22 887.00 L 397.00 887.00 L 417.00 907.00 L 437.00 887.00 L 477.00 887.00 L 497.00 907.00 L 517.00 887.00 L 677.00 887.00 L 697.00 886.00 L 1017.00 886.00 L 1037.00 885.00 L 1337.00 885.00 L 1357.00 884.00 L 1677.00 884.00 L 1697.00 883.00 L 1997.00 883.00 L 2017.00 882.00 L 2337.00 882.00 L 2357.00 881.00 L 2429.94 881.00 L 2490.00 777.00 L 2388.00 756.00 Z" />
<path id="csg562-015-02" fill="none" stroke="black" stroke-width="1" d="M 2357.00 881.00 L 2337.00 882.00 L 2017.00 882.00 L 1997.00 883.00 L 1697.00 883.00 L 1677.00 884.00 L 1357.00 884.00 L 1337.00 885.00 L 1037.00 885.00 L 1017.00 886.00 L 697.00 886.00 L 677.00 887.00 L 517.00 887.00 L 497.00 907.00 L 477.00 887.00 L 437.00 887.00 L 417.00 907.00 L 397.00 887.00 L 383.22 887.00 L 375.00 984.00 L 480.00 984.00 L 477.86 993.00 L 657.00 993.00 L 677.00 992.00 L 977.00 992.00 L 997.00 1011.00 L 1037.00 1011.00 L 1057.00 991.00 L 1297.00 991.00 L 1317.00 990.00 L 1537.00 990.00 L 1557.00 1010.00 L 1577.00 990.00 L 1597.00 990.00 L 1617.00 989.00 L 1917.00 989.00 L 1937.00 988.00 L 2237.00 988.00 L 2257.00 987.00 L 2368.73 987.00 L 2429.94 881.00 Z" />
<path id="csg562-015-03" fill="none" stroke="black" stroke-width="1" d="M 2257.00 987.00 L 2237.00 988.00 L 1937.00 988.00 L 1917.00 989.00 L 1617.00 989.00 L 1597.00 990.00 L 1577.00 990.00 L 1557.00 1010.00 L 1537.00 990.00 L 1317.00 990.00 L 1297.00 991.00 L 1057.00 991.00 L 1037.00 1011.00 L 997.00 1011.00 L 977.00 992.00 L 677.00 992.00 L 657.00 993.00 L 477.86 993.00 L 451.90 1102.00 L 597.00 1102.00 L 617.00 1082.00 L 637.00 1082.00 L 657.00 1102.00 L 697.00 1102.00 L 717.00 1101.00 L 1057.00 1101.00 L 1077.00 1100.00 L 1397.00 1100.00 L 1417.00 1099.00 L 1757.00 1099.00 L 1777.00 1098.00 L 2117.00 1098.00 L 2137.00 1097.00 L 2457.00 1097.00 L 2477.00 1096.00 L 2514.67 1096.00 L 2469.00 1017.00 L 2367.00 990.00 L 2368.73 987.00 Z" />
<path id="csg562-015-04" fill="none" stroke="black" stroke-width="1" d="M 617.00 1082.00 L 597.00 1102.00 L 451.90 1102.00 L 450.00 1110.00 L 369.00 1167.00 L 372.26 1225.61 L 377.00 1223.00 L 657.00 1223.00 L 677.00 1222.00 L 977.00 1222.00 L 997.00 1221.00 L 1297.00 1221.00 L 1317.00 1220.00 L 1617.00 1220.00 L 1637.00 1219.00 L 1777.00 1219.00 L 1797.00 1239.00 L 1817.00 1219.00 L 1917.00 1219.00 L 1937.00 1218.00 L 2237.00 1218.00 L 2257.00 1217.00 L 2533.00 1217.00 L 2580.00 1209.00 L 2514.67 1096.00 L 2477.00 1096.00 L 2457.00 1097.00 L 2137.00 1097.00 L 2117.00 1098.00 L 1777.00 1098.00 L 1757.00 1099.00 L 1417.00 1099.00 L 1397.00 1100.00 L 1077.00 1100.00 L 1057.00 1101.00 L 717.00 1101.00 L 697.00 1102.00 L 657.00 1102.00 L 637.00 1082.00 Z" />
<path id="csg562-015-05" fill="none" stroke="black" stroke-width="1" d="M 2257.00 1217.00 L 2237.00 1218.00 L 1937.00 1218.00 L 1917.00 1219.00 L 1817.00 1219.00 L 1797.00 1239.00 L 1777.00 1219.00 L 1637.00 1219.00 L 1617.00 1220.00 L 1317.00 1220.00 L 1297.00 1221.00 L 997.00 1221.00 L 977.00 1222.00 L 677.00 1222.00 L 657.00 1223.00 L 377.00 1223.00 L 372.26 1225.61 L 378.00 1329.00 L 395.86 1339.00 L 397.00 1339.00 L 398.45 1340.45 L 431.57 1359.00 L 437.00 1359.00 L 457.00 1339.00 L 517.00 1339.00 L 537.00 1338.00 L 697.00 1338.00 L 717.00 1337.00 L 877.00 1337.00 L 897.00 1336.00 L 1037.00 1336.00 L 1057.00 1335.00 L 1117.00 1335.00 L 1137.00 1355.00 L 1157.00 1335.00 L 1217.00 1335.00 L 1237.00 1334.00 L 1397.00 1334.00 L 1417.00 1333.00 L 1577.00 1333.00 L 1597.00 1332.00 L 1737.00 1332.00 L 1757.00 1331.00 L 1917.00 1331.00 L 1937.00 1330.00 L 2097.00 1330.00 L 2117.00 1329.00 L 2257.00 1329.00 L 2277.00 1328.00 L 2357.00 1328.00 L 2377.00 1348.00 L 2397.00 1348.00 L 2417.00 1328.00 L 2437.00 1328.00 L 2457.00 1327.00 L 2470.33 1327.00 L 2439.00 1233.00 L 2533.00 1217.00 Z" />
<path id="csg562-015-06" fill="none" stroke="black" stroke-width="1" d="M 2457.00 1327.00 L 2437.00 1328.00 L 2417.00 1328.00 L 2397.00 1348.00 L 2377.00 1348.00 L 2357.00 1328.00 L 2277.00 1328.00 L 2257.00 1329.00 L 2117.00 1329.00 L 2097.00 1330.00 L 1937.00 1330.00 L 1917.00 1331.00 L 1757.00 1331.00 L 1737.00 1332.00 L 1597.00 1332.00 L 1577.00 1333.00 L 1417.00 1333.00 L 1397.00 1334.00 L 1237.00 1334.00 L 1217.00 1335.00 L 1157.00 1335.00 L 1137.00 1355.00 L 1117.00 1335.00 L 1057.00 1335.00 L 1037.00 1336.00 L 897.00 1336.00 L 877.00 1337.00 L 717.00 1337.00 L 697.00 1338.00 L 537.00 1338.00 L 517.00 1339.00 L 457.00 1339.00 L 437.00 1359.00 L 431.57 1359.00 L 453.00 1371.00 L 447.40 1441.00 L 937.00 1441.00 L 957.00 1440.00 L 1517.00 1440.00 L 1537.00 1439.00 L 2097.00 1439.00 L 2117.00 1438.00 L 2481.43 1438.00 L 2502.00 1422.00 L 2470.33 1327.00 Z" />
<path id="csg562-015-07" fill="none" stroke="black" stroke-width="1" d="M 2117.00 1438.00 L 2097.00 1439.00 L 1537.00 1439.00 L 1517.00 1440.00 L 957.00 1440.00 L 937.00 1441.00 L 447.40 1441.00 L 447.00 1446.00 L 372.00 1509.00 L 374.97 1554.01 L 377.00 1553.00 L 1117.00 1553.00 L 1137.00 1554.00 L 1357.00 1554.00 L 1377.00 1574.00 L 1417.00 1574.00 L 1437.00 1554.00 L 1897.00 1554.00 L 1917.00 1555.00 L 2037.00 1555.00 L 2057.00 1575.00 L 2077.00 1575.00 L 2097.00 1555.00 L 2475.40 1555.00 L 2448.00 1464.00 L 2481.43 1438.00 Z" />
<path id="csg562-015-08" fill="none" stroke="black" stroke-width="1" d="M 377.00 1553.00 L 374.97 1554.01 L 382.83 1673.00 L 897.00 1673.00 L 917.00 1672.00 L 1437.00 1672.00 L 1457.00 1671.00 L 1537.00 1671.00 L 1557.00 1691.00 L 1577.00 1671.00 L 1977.00 1671.00 L 1997.00 1670.00 L 2157.00 1670.00 L 2177.00 1650.00 L 2197.00 1650.00 L 2217.00 1670.00 L 2510.02 1670.00 L 2475.40 1555.00 L 2097.00 1555.00 L 2077.00 1575.00 L 2057.00 1575.00 L 2037.00 1555.00 L 1917.00 1555.00 L 1897.00 1554.00 L 1437.00 1554.00 L 1417.00 1574.00 L 1377.00 1574.00 L 1357.00 1554.00 L 1137.00 1554.00 L 1117.00 1553.00 Z" />
<path id="csg562-015-09" fill="none" stroke="black" stroke-width="1" d="M 2177.00 1650.00 L 2157.00 1670.00 L 1997.00 1670.00 L 1977.00 1671.00 L 1577.00 1671.00 L 1557.00 1691.00 L 1537.00 1671.00 L 1457.00 1671.00 L 1437.00 1672.00 L 917.00 1672.00 L 897.00 1673.00 L 382.83 1673.00 L 390.42 1788.00 L 697.00 1788.00 L 717.00 1787.00 L 1057.00 1787.00 L 1077.00 1786.00 L 1397.00 1786.00 L 1417.00 1785.00 L 1757.00 1785.00 L 1777.00 1784.00 L 2117.00 1784.00 L 2137.00 1783.00 L 2457.00 1783.00 L 2457.79 1782.96 L 2532.00 1743.00 L 2510.02 1670.00 L 2217.00 1670.00 L 2197.00 1650.00 Z" />
<path id="csg562-015-10" fill="none" stroke="black" stroke-width="1" d="M 2457.79 1782.96 L 2457.00 1783.00 L 2137.00 1783.00 L 2117.00 1784.00 L 1777.00 1784.00 L 1757.00 1785.00 L 1417.00 1785.00 L 1397.00 1786.00 L 1077.00 1786.00 L 1057.00 1787.00 L 717.00 1787.00 L 697.00 1788.00 L 390.42 1788.00 L 393.00 1827.00 L 393.00 1847.80 L 397.00 1851.00 L 417.00 1853.00 L 425.22 1870.26 L 438.00 1866.00 L 436.85 1894.69 L 437.00 1895.00 L 477.00 1895.00 L 497.00 1915.00 L 517.00 1915.00 L 537.00 1895.00 L 737.00 1895.00 L 757.00 1896.00 L 1137.00 1896.00 L 1157.00 1897.00 L 1537.00 1897.00 L 1557.00 1898.00 L 1917.00 1898.00 L 1937.00 1899.00 L 2317.00 1899.00 L 2337.00 1900.00 L 2503.07 1900.00 L 2454.00 1785.00 L 2457.79 1782.96 Z" />
<path id="csg562-015-11" fill="none" stroke="black" stroke-width="1" d="M 436.85 1894.69 L 432.44 2005.00 L 557.00 2005.00 L 577.00 2025.00 L 597.00 2005.00 L 1197.00 2005.00 L 1217.00 2006.00 L 1597.00 2006.00 L 1617.00 2026.00 L 1637.00 2006.00 L 2037.00 2006.00 L 2057.00 2007.00 L 2548.72 2007.00 L 2503.07 1900.00 L 2337.00 1900.00 L 2317.00 1899.00 L 1937.00 1899.00 L 1917.00 1898.00 L 1557.00 1898.00 L 1537.00 1897.00 L 1157.00 1897.00 L 1137.00 1896.00 L 757.00 1896.00 L 737.00 1895.00 L 537.00 1895.00 L 517.00 1915.00 L 497.00 1915.00 L 477.00 1895.00 L 437.00 1895.00 L 436.85 1894.69 Z" />
<path id="csg562-015-12" fill="none" stroke="black" stroke-width="1" d="M 432.44 2005.00 L 432.00 2016.00 L 393.38 2117.00 L 397.00 2117.00 L 417.00 2137.00 L 437.00 2137.00 L 457.00 2117.00 L 1857.00 2117.00 L 1877.00 2116.00 L 1999.80 2116.00 L 2538.00 2103.00 L 2550.00 2010.00 L 2548.72 2007.00 L 2057.00 2007.00 L 2037.00 2006.00 L 1637.00 2006.00 L 1617.00 2026.00 L 1597.00 2006.00 L 1217.00 2006.00 L 1197.00 2005.00 L 597.00 2005.00 L 577.00 2025.00 L 557.00 2005.00 Z" />
<path id="csg562-015-13" fill="none" stroke="black" stroke-width="1" d="M 1877.00 2116.00 L 1857.00 2117.00 L 457.00 2117.00 L 437.00 2137.00 L 417.00 2137.00 L 397.00 2117.00 L 393.38 2117.00 L 393.00 2118.00 L 414.00 2211.00 L 489.00 2205.00 L 548.40 2223.00 L 657.00 2223.00 L 677.00 2222.00 L 817.00 2222.00 L 837.00 2221.00 L 977.00 2221.00 L 997.00 2220.00 L 1117.00 2220.00 L 1137.00 2219.00 L 1277.00 2219.00 L 1297.00 2218.00 L 1437.00 2218.00 L 1457.00 2217.00 L 1597.00 2217.00 L 1617.00 2216.00 L 1757.00 2216.00 L 1777.00 2235.00 L 1797.00 2235.00 L 1817.00 2215.00 L 1845.40 2215.00 L 1860.00 2142.00 L 1917.00 2118.00 L 1999.80 2116.00 Z" />
<path id="csg562-015-14" fill="none" stroke="black" stroke-width="1" d="M 1817.00 2215.00 L 1797.00 2235.00 L 1777.00 2235.00 L 1757.00 2216.00 L 1617.00 2216.00 L 1597.00 2217.00 L 1457.00 2217.00 L 1437.00 2218.00 L 1297.00 2218.00 L 1277.00 2219.00 L 1137.00 2219.00 L 1117.00 2220.00 L 997.00 2220.00 L 977.00 2221.00 L 837.00 2221.00 L 817.00 2222.00 L 677.00 2222.00 L 657.00 2223.00 L 548.40 2223.00 L 588.00 2235.00 L 608.79 2336.00 L 637.00 2336.00 L 657.00 2335.00 L 937.00 2335.00 L 957.00 2334.00 L 1217.00 2334.00 L 1237.00 2333.00 L 1517.00 2333.00 L 1537.00 2332.00 L 1797.00 2332.00 L 1817.00 2331.00 L 2097.00 2331.00 L 2117.00 2330.00 L 2397.00 2330.00 L 2417.00 2329.00 L 2466.75 2329.00 L 2448.00 2244.00 L 1845.00 2217.00 L 1845.40 2215.00 Z" />
<path id="csg562-015-15" fill="none" stroke="black" stroke-width="1" d="M 2417.00 2329.00 L 2397.00 2330.00 L 2117.00 2330.00 L 2097.00 2331.00 L 1817.00 2331.00 L 1797.00 2332.00 L 1537.00 2332.00 L 1517.00 2333.00 L 1237.00 2333.00 L 1217.00 2334.00 L 957.00 2334.00 L 937.00 2335.00 L 657.00 2335.00 L 637.00 2336.00 L 608.79 2336.00 L 609.00 2337.00 L 575.20 2441.00 L 737.00 2441.00 L 757.00 2440.00 L 937.00 2440.00 L 957.00 2439.00 L 1117.00 2439.00 L 1137.00 2438.00 L 1317.00 2438.00 L 1337.00 2437.00 L 1517.00 2437.00 L 1537.00 2436.00 L 1717.00 2436.00 L 1737.00 2435.00 L 1897.00 2435.00 L 1917.00 2434.00 L 2097.00 2434.00 L 2117.00 2433.00 L 2297.00 2433.00 L 2317.00 2432.00 L 2477.00 2432.00 L 2489.33 2431.38 L 2466.75 2329.00 Z" />
<path id="csg562-015-16" fill="none" stroke="black" stroke-width="1" d="M 2489.33 2431.38 L 2477.00 2432.00 L 2317.00 2432.00 L 2297.00 2433.00 L 2117.00 2433.00 L 2097.00 2434.00 L 1917.00 2434.00 L 1897.00 2435.00 L 1737.00 2435.00 L 1717.00 2436.00 L 1537.00 2436.00 L 1517.00 2437.00 L 1337.00 2437.00 L 1317.00 2438.00 L 1137.00 2438.00 L 1117.00 2439.00 L 957.00 2439.00 L 937.00 2440.00 L 757.00 2440.00 L 737.00 2441.00 L 575.20 2441.00 L 570.00 2457.00 L 414.00 2472.00 L 378.00 2529.00 L 377.55 2559.00 L 1077.00 2559.00 L 1097.00 2579.00 L 1117.00 2558.00 L 1857.00 2558.00 L 1877.00 2557.00 L 2515.47 2557.00 L 2493.00 2448.00 L 2489.33 2431.38 Z" />
<path id="csg562-015-17" fill="none" stroke="black" stroke-width="1" d="M 1877.00 2557.00 L 1857.00 2558.00 L 1117.00 2558.00 L 1097.00 2579.00 L 1077.00 2559.00 L 377.55 2559.00 L 375.75 2677.63 L 377.00 2677.00 L 1057.00 2677.00 L 1077.00 2697.00 L 1097.00 2677.00 L 1117.00 2637.00 L 1137.00 2657.00 L 1157.00 2637.00 L 1177.00 2697.00 L 1197.00 2677.00 L 1237.00 2677.00 L 1257.00 2678.00 L 2117.00 2678.00 L 2137.00 2679.00 L 2540.63 2679.00 L 2515.47 2557.00 Z" />
<path id="csg562-015-18" fill="none" stroke="black" stroke-width="1" d="M 1117.00 2637.00 L 1097.00 2677.00 L 1077.00 2697.00 L 1057.00 2677.00 L 377.00 2677.00 L 375.75 2677.63 L 375.00 2727.00 L 379.50 2781.00 L 617.00 2781.00 L 637.00 2801.00 L 657.00 2781.00 L 737.00 2781.00 L 757.00 2782.00 L 1117.00 2782.00 L 1137.00 2783.00 L 1517.00 2783.00 L 1537.00 2784.00 L 1897.00 2784.00 L 1917.00 2785.00 L 2297.00 2785.00 L 2317.00 2786.00 L 2337.00 2786.00 L 2357.00 2806.00 L 2377.00 2786.00 L 2532.20 2786.00 L 2553.00 2739.00 L 2540.63 2679.00 L 2137.00 2679.00 L 2117.00 2678.00 L 1257.00 2678.00 L 1237.00 2677.00 L 1197.00 2677.00 L 1177.00 2697.00 L 1157.00 2637.00 L 1137.00 2657.00 L 1117.00 2637.00 Z" />
<path id="csg562-015-19" fill="none" stroke="black" stroke-width="1" d="M 379.50 2781.00 L 388.75 2892.00 L 397.00 2892.00 L 417.00 2912.00 L 437.00 2892.00 L 877.00 2892.00 L 897.00 2912.00 L 917.00 2892.00 L 977.00 2892.00 L 997.00 2893.00 L 1617.00 2893.00 L 1637.00 2894.00 L 2257.00 2894.00 L 2277.00 2895.00 L 2483.95 2895.00 L 2532.20 2786.00 L 2377.00 2786.00 L 2357.00 2806.00 L 2337.00 2786.00 L 2317.00 2786.00 L 2297.00 2785.00 L 1917.00 2785.00 L 1897.00 2784.00 L 1537.00 2784.00 L 1517.00 2783.00 L 1137.00 2783.00 L 1117.00 2782.00 L 757.00 2782.00 L 737.00 2781.00 L 657.00 2781.00 L 637.00 2801.00 L 617.00 2781.00 Z" />
<path id="csg562-015-20" fill="none" stroke="black" stroke-width="1" d="M 388.75 2892.00 L 393.00 2943.00 L 394.00 3006.00 L 1417.00 3006.00 L 1437.00 3026.00 L 1457.00 3006.00 L 2077.00 3006.00 L 2097.00 3026.00 L 2117.00 3026.00 L 2137.00 3006.00 L 2486.70 3006.00 L 2472.00 2922.00 L 2483.95 2895.00 L 2277.00 2895.00 L 2257.00 2894.00 L 1637.00 2894.00 L 1617.00 2893.00 L 997.00 2893.00 L 977.00 2892.00 L 917.00 2892.00 L 897.00 2912.00 L 877.00 2892.00 L 437.00 2892.00 L 417.00 2912.00 L 397.00 2892.00 Z" />
<path id="csg562-015-21" fill="none" stroke="black" stroke-width="1" d="M 394.00 3006.00 L 395.83 3121.00 L 497.00 3121.00 L 517.00 3120.00 L 637.00 3120.00 L 657.00 3119.00 L 777.00 3119.00 L 797.00 3118.00 L 917.00 3118.00 L 937.00 3117.00 L 1057.00 3117.00 L 1077.00 3116.00 L 1197.00 3116.00 L 1217.00 3115.00 L 1337.00 3115.00 L 1357.00 3114.00 L 1437.00 3114.00 L 1457.00 3134.00 L 1477.00 3114.00 L 1497.00 3113.00 L 1617.00 3113.00 L 1637.00 3112.00 L 1757.00 3112.00 L 1777.00 3111.00 L 1897.00 3111.00 L 1917.00 3110.00 L 2037.00 3110.00 L 2057.00 3109.00 L 2177.00 3109.00 L 2197.00 3108.00 L 2317.00 3108.00 L 2337.00 3107.00 L 2357.00 3107.00 L 2377.00 3127.00 L 2397.00 3127.00 L 2417.00 3107.00 L 2457.00 3107.00 L 2477.00 3106.00 L 2504.20 3106.00 L 2486.70 3006.00 L 2137.00 3006.00 L 2117.00 3026.00 L 2097.00 3026.00 L 2077.00 3006.00 L 1457.00 3006.00 L 1437.00 3026.00 L 1417.00 3006.00 Z" />
<path id="csg562-015-22" fill="none" stroke="black" stroke-width="1" d="M 2477.00 3106.00 L 2457.00 3107.00 L 2417.00 3107.00 L 2397.00 3127.00 L 2377.00 3127.00 L 2357.00 3107.00 L 2337.00 3107.00 L 2317.00 3108.00 L 2197.00 3108.00 L 2177.00 3109.00 L 2057.00 3109.00 L 2037.00 3110.00 L 1917.00 3110.00 L 1897.00 3111.00 L 1777.00 3111.00 L 1757.00 3112.00 L 1637.00 3112.00 L 1617.00 3113.00 L 1497.00 3113.00 L 1477.00 3114.00 L 1457.00 3134.00 L 1437.00 3114.00 L 1357.00 3114.00 L 1337.00 3115.00 L 1217.00 3115.00 L 1197.00 3116.00 L 1077.00 3116.00 L 1057.00 3117.00 L 937.00 3117.00 L 917.00 3118.00 L 797.00 3118.00 L 777.00 3119.00 L 657.00 3119.00 L 637.00 3120.00 L 517.00 3120.00 L 497.00 3121.00 L 395.83 3121.00 L 397.57 3231.00 L 477.00 3231.00 L 497.00 3230.00 L 617.00 3230.00 L 637.00 3229.00 L 757.00 3229.00 L 777.00 3228.00 L 897.00 3228.00 L 917.00 3227.00 L 1037.00 3227.00 L 1057.00 3226.00 L 1137.00 3226.00 L 1157.00 3246.00 L 1177.00 3246.00 L 1197.00 3225.00 L 1297.00 3225.00 L 1317.00 3205.00 L 1337.00 3224.00 L 1357.00 3204.00 L 1377.00 3224.00 L 1457.00 3224.00 L 1477.00 3223.00 L 1497.00 3243.00 L 1517.00 3223.00 L 1597.00 3223.00 L 1617.00 3222.00 L 1737.00 3222.00 L 1757.00 3221.00 L 1877.00 3221.00 L 1897.00 3220.00 L 2017.00 3220.00 L 2037.00 3219.00 L 2157.00 3219.00 L 2177.00 3218.00 L 2297.00 3218.00 L 2317.00 3217.00 L 2437.00 3217.00 L 2457.00 3216.00 L 2519.20 3216.00 L 2514.00 3162.00 L 2504.20 3106.00 Z" />
<path id="csg562-015-23" fill="none" stroke="black" stroke-width="1" d="M 1357.00 3204.00 L 1337.00 3224.00 L 1317.00 3205.00 L 1297.00 3225.00 L 1197.00 3225.00 L 1177.00 3246.00 L 1157.00 3246.00 L 1137.00 3226.00 L 1057.00 3226.00 L 1037.00 3227.00 L 917.00 3227.00 L 897.00 3228.00 L 777.00 3228.00 L 757.00 3229.00 L 637.00 3229.00 L 617.00 3230.00 L 497.00 3230.00 L 477.00 3231.00 L 397.57 3231.00 L 399.00 3321.00 L 390.04 3337.00 L 617.00 3337.00 L 637.00 3336.00 L 657.00 3336.00 L 677.00 3331.00 L 697.00 3321.00 L 717.00 3321.00 L 737.00 3336.00 L 897.00 3336.00 L 917.00 3335.00 L 1157.00 3335.00 L 1177.00 3334.00 L 1437.00 3334.00 L 1457.00 3333.00 L 1557.00 3333.00 L 1577.00 3353.00 L 1597.00 3333.00 L 1717.00 3333.00 L 1737.00 3332.00 L 1757.00 3352.00 L 1777.00 3332.00 L 1977.00 3332.00 L 1997.00 3331.00 L 2017.00 3351.00 L 2117.00 3351.00 L 2137.00 3331.00 L 2257.00 3331.00 L 2277.00 3330.00 L 2530.19 3330.00 L 2519.20 3216.00 L 2457.00 3216.00 L 2437.00 3217.00 L 2317.00 3217.00 L 2297.00 3218.00 L 2177.00 3218.00 L 2157.00 3219.00 L 2037.00 3219.00 L 2017.00 3220.00 L 1897.00 3220.00 L 1877.00 3221.00 L 1757.00 3221.00 L 1737.00 3222.00 L 1617.00 3222.00 L 1597.00 3223.00 L 1517.00 3223.00 L 1497.00 3243.00 L 1477.00 3223.00 L 1457.00 3224.00 L 1377.00 3224.00 L 1357.00 3204.00 Z" />
<path id="csg562-015-24" fill="none" stroke="black" stroke-width="1" d="M 697.00 3321.00 L 677.00 3331.00 L 657.00 3336.00 L 637.00 3336.00 L 617.00 3337.00 L 390.04 3337.00 L 357.00 3396.00 L 417.00 3444.00 L 642.00 3441.00 L 954.00 3432.00 L 976.53 3458.00 L 1037.33 3458.00 L 1098.00 3432.00 L 1278.00 3459.00 L 1722.00 3447.00 L 2274.00 3438.00 L 2370.00 3460.00 L 2440.00 3460.00 L 2538.00 3411.00 L 2530.19 3330.00 L 2277.00 3330.00 L 2257.00 3331.00 L 2137.00 3331.00 L 2117.00 3351.00 L 2017.00 3351.00 L 1997.00 3331.00 L 1977.00 3332.00 L 1777.00 3332.00 L 1757.00 3352.00 L 1737.00 3332.00 L 1717.00 3333.00 L 1597.00 3333.00 L 1577.00 3353.00 L 1557.00 3333.00 L 1457.00 3333.00 L 1437.00 3334.00 L 1177.00 3334.00 L 1157.00 3335.00 L 917.00 3335.00 L 897.00 3336.00 L 737.00 3336.00 L 717.00 3321.00 Z" />
</svg>
