<?xml version="1.0" standalone="no"?>
<!DOCTYPE svg PUBLIC "-//W3C//DTD SVG 1.1//EN" "http://www.w3.org/Graphics/SVG/1.1/DTD/svg11.dtd">
<svg width="46.22222in" height="69.333336in" viewBox="0 0 3328 4992" xmlns="http://www.w3.org/2000/svg" version="1.1">
<path id="csg562-046-01" fill="none" stroke="black" stroke-width="1" d="M 1885.00 815.00 L 1865.00 835.00 L 1845.00 855.00 L 1825.00 855.00 L 1805.00 854.00 L 1782.75 854.00 L 1776.00 858.00 L 1392.00 855.00 L 912.00 873.00 L 909.05 956.00 L 985.00 956.00 L 1005.00 957.00 L 1085.00 957.00 L 1105.00 958.00 L 1205.00 958.00 L 1225.00 959.00 L 1305.00 959.00 L 1325.00 960.00 L 1425.00 960.00 L 1445.00 961.00 L 1525.00 961.00 L 1545.00 962.00 L 1625.00 962.00 L 1645.00 963.00 L 1745.00 963.00 L 1765.00 964.00 L 1845.00 964.00 L 1865.00 965.00 L 1965.00 965.00 L 1985.00 966.00 L 2065.00 966.00 L 2085.00 967.00 L 2165.00 967.00 L 2185.00 968.00 L 2285.00 968.00 L 2305.00 969.00 L 2325.00 949.00 L 2365.00 949.00 L 2385.00 969.00 L 2405.00 970.00 L 2505.00 970.00 L 2525.00 971.00 L 2605.00 971.00 L 2625.00 972.00 L 2725.00 972.00 L 2745.00 973.00 L 2825.00 973.00 L 2845.00 974.00 L 2925.00 974.00 L 2945.00 975.00 L 2949.40 975.00 L 2916.00 876.00 L 2755.55 866.00 L 2745.00 866.00 L 2725.00 865.00 L 2665.00 865.00 L 2645.00 864.00 L 2585.00 864.00 L 2565.00 863.00 L 2505.00 863.00 L 2485.00 862.00 L 2405.00 862.00 L 2385.00 861.00 L 2325.00 861.00 L 2305.00 860.00 L 2245.00 860.00 L 2225.00 859.00 L 2165.00 859.00 L 2145.00 858.00 L 2065.00 858.00 L 2045.00 857.00 L 1985.00 857.00 L 1965.00 856.00 L 1925.00 856.00 L 1905.00 816.00 L 1885.00 815.00 Z" />
<path id="csg562-046-02" fill="none" stroke="black" stroke-width="1" d="M 2325.00 949.00 L 2305.00 969.00 L 2285.00 968.00 L 2185.00 968.00 L 2165.00 967.00 L 2085.00 967.00 L 2065.00 966.00 L 1985.00 966.00 L 1965.00 965.00 L 1865.00 965.00 L 1845.00 964.00 L 1765.00 964.00 L 1745.00 963.00 L 1645.00 963.00 L 1625.00 962.00 L 1545.00 962.00 L 1525.00 961.00 L 1445.00 961.00 L 1425.00 960.00 L 1325.00 960.00 L 1305.00 959.00 L 1225.00 959.00 L 1205.00 958.00 L 1105.00 958.00 L 1085.00 957.00 L 1005.00 957.00 L 985.00 956.00 L 909.05 956.00 L 905.18 1065.00 L 1045.00 1065.00 L 1065.00 1066.00 L 1205.00 1066.00 L 1225.00 1067.00 L 1365.00 1067.00 L 1385.00 1068.00 L 1525.00 1068.00 L 1545.00 1069.00 L 1685.00 1069.00 L 1705.00 1070.00 L 1845.00 1070.00 L 1865.00 1071.00 L 2005.00 1071.00 L 2025.00 1072.00 L 2165.00 1072.00 L 2185.00 1073.00 L 2325.00 1073.00 L 2345.00 1074.00 L 2365.00 1074.00 L 2385.00 1094.00 L 2405.00 1074.00 L 2485.00 1074.00 L 2505.00 1075.00 L 2645.00 1075.00 L 2665.00 1096.00 L 2685.00 1096.00 L 2705.00 1076.00 L 2805.00 1076.00 L 2825.00 1077.00 L 2965.00 1077.00 L 2984.13 1077.96 L 2949.40 975.00 L 2945.00 975.00 L 2925.00 974.00 L 2845.00 974.00 L 2825.00 973.00 L 2745.00 973.00 L 2725.00 972.00 L 2625.00 972.00 L 2605.00 971.00 L 2525.00 971.00 L 2505.00 970.00 L 2405.00 970.00 L 2385.00 969.00 L 2365.00 949.00 Z" />
<path id="csg562-046-03" fill="none" stroke="black" stroke-width="1" d="M 905.18 1065.00 L 901.17 1177.91 L 905.00 1176.00 L 985.00 1176.00 L 1005.00 1196.00 L 1025.00 1196.00 L 1045.00 1176.00 L 1065.00 1176.00 L 1085.00 1177.00 L 1245.00 1177.00 L 1265.00 1178.00 L 1445.00 1178.00 L 1465.00 1179.00 L 1625.00 1179.00 L 1645.00 1180.00 L 1825.00 1180.00 L 1845.00 1181.00 L 2005.00 1181.00 L 2025.00 1182.00 L 2145.00 1182.00 L 2165.00 1202.00 L 2185.00 1182.00 L 2205.00 1182.00 L 2225.00 1183.00 L 2385.00 1183.00 L 2405.00 1184.00 L 2585.00 1184.00 L 2605.00 1185.00 L 2765.00 1185.00 L 2785.00 1186.00 L 2965.00 1186.00 L 2970.59 1186.28 L 3000.00 1125.00 L 2984.13 1077.96 L 2965.00 1077.00 L 2825.00 1077.00 L 2805.00 1076.00 L 2705.00 1076.00 L 2685.00 1096.00 L 2665.00 1096.00 L 2645.00 1075.00 L 2505.00 1075.00 L 2485.00 1074.00 L 2405.00 1074.00 L 2385.00 1094.00 L 2365.00 1074.00 L 2345.00 1074.00 L 2325.00 1073.00 L 2185.00 1073.00 L 2165.00 1072.00 L 2025.00 1072.00 L 2005.00 1071.00 L 1865.00 1071.00 L 1845.00 1070.00 L 1705.00 1070.00 L 1685.00 1069.00 L 1545.00 1069.00 L 1525.00 1068.00 L 1385.00 1068.00 L 1365.00 1067.00 L 1225.00 1067.00 L 1205.00 1066.00 L 1065.00 1066.00 L 1045.00 1065.00 Z" />
<path id="csg562-046-04" fill="none" stroke="black" stroke-width="1" d="M 905.00 1176.00 L 901.17 1177.91 L 896.73 1303.14 L 905.00 1299.00 L 1065.00 1299.00 L 1085.00 1300.00 L 1245.00 1300.00 L 1265.00 1301.00 L 1445.00 1301.00 L 1465.00 1302.00 L 1625.00 1302.00 L 1645.00 1303.00 L 1785.00 1303.00 L 1805.00 1323.00 L 1825.00 1303.00 L 1845.00 1304.00 L 2005.00 1304.00 L 2025.00 1305.00 L 2165.00 1305.00 L 2185.00 1325.00 L 2205.00 1305.00 L 2225.00 1306.00 L 2385.00 1306.00 L 2405.00 1307.00 L 2585.00 1307.00 L 2605.00 1308.00 L 2765.00 1308.00 L 2785.00 1309.00 L 2965.00 1309.00 L 2985.00 1310.00 L 2993.42 1310.00 L 2964.00 1200.00 L 2970.59 1186.28 L 2965.00 1186.00 L 2785.00 1186.00 L 2765.00 1185.00 L 2605.00 1185.00 L 2585.00 1184.00 L 2405.00 1184.00 L 2385.00 1183.00 L 2225.00 1183.00 L 2205.00 1182.00 L 2185.00 1182.00 L 2165.00 1202.00 L 2145.00 1182.00 L 2025.00 1182.00 L 2005.00 1181.00 L 1845.00 1181.00 L 1825.00 1180.00 L 1645.00 1180.00 L 1625.00 1179.00 L 1465.00 1179.00 L 1445.00 1178.00 L 1265.00 1178.00 L 1245.00 1177.00 L 1085.00 1177.00 L 1065.00 1176.00 L 1045.00 1176.00 L 1025.00 1196.00 L 1005.00 1196.00 L 985.00 1176.00 Z" />
<path id="csg562-046-05" fill="none" stroke="black" stroke-width="1" d="M 905.00 1299.00 L 896.73 1303.14 L 894.00 1380.00 L 894.18 1412.41 L 905.00 1407.00 L 1005.00 1407.00 L 1025.00 1408.00 L 1145.00 1408.00 L 1165.00 1409.00 L 1285.00 1409.00 L 1305.00 1410.00 L 1425.00 1410.00 L 1445.00 1411.00 L 1565.00 1411.00 L 1585.00 1412.00 L 1705.00 1412.00 L 1725.00 1413.00 L 1825.00 1413.00 L 1845.00 1414.00 L 1965.00 1414.00 L 1985.00 1415.00 L 2105.00 1415.00 L 2125.00 1416.00 L 2145.00 1396.00 L 2165.00 1416.00 L 2185.00 1396.00 L 2205.00 1416.00 L 2245.00 1416.00 L 2265.00 1417.00 L 2385.00 1417.00 L 2405.00 1418.00 L 2525.00 1418.00 L 2545.00 1419.00 L 2665.00 1419.00 L 2685.00 1420.00 L 2785.00 1420.00 L 2805.00 1421.00 L 2925.00 1421.00 L 2945.00 1422.00 L 3023.37 1422.00 L 2993.42 1310.00 L 2985.00 1310.00 L 2965.00 1309.00 L 2785.00 1309.00 L 2765.00 1308.00 L 2605.00 1308.00 L 2585.00 1307.00 L 2405.00 1307.00 L 2385.00 1306.00 L 2225.00 1306.00 L 2205.00 1305.00 L 2185.00 1325.00 L 2165.00 1305.00 L 2025.00 1305.00 L 2005.00 1304.00 L 1845.00 1304.00 L 1825.00 1303.00 L 1805.00 1323.00 L 1785.00 1303.00 L 1645.00 1303.00 L 1625.00 1302.00 L 1465.00 1302.00 L 1445.00 1301.00 L 1265.00 1301.00 L 1245.00 1300.00 L 1085.00 1300.00 L 1065.00 1299.00 Z" />
<path id="csg562-046-06" fill="none" stroke="black" stroke-width="1" d="M 2145.00 1396.00 L 2125.00 1416.00 L 2105.00 1415.00 L 1985.00 1415.00 L 1965.00 1414.00 L 1845.00 1414.00 L 1825.00 1413.00 L 1725.00 1413.00 L 1705.00 1412.00 L 1585.00 1412.00 L 1565.00 1411.00 L 1445.00 1411.00 L 1425.00 1410.00 L 1305.00 1410.00 L 1285.00 1409.00 L 1165.00 1409.00 L 1145.00 1408.00 L 1025.00 1408.00 L 1005.00 1407.00 L 905.00 1407.00 L 894.18 1412.41 L 894.77 1522.12 L 905.00 1517.00 L 985.00 1517.00 L 1005.00 1518.00 L 1085.00 1518.00 L 1105.00 1519.00 L 1205.00 1519.00 L 1225.00 1520.00 L 1305.00 1520.00 L 1325.00 1521.00 L 1425.00 1521.00 L 1445.00 1522.00 L 1525.00 1522.00 L 1545.00 1523.00 L 1645.00 1523.00 L 1665.00 1524.00 L 1745.00 1524.00 L 1765.00 1525.00 L 1865.00 1525.00 L 1885.00 1526.00 L 1965.00 1526.00 L 1985.00 1527.00 L 2085.00 1527.00 L 2105.00 1528.00 L 2185.00 1528.00 L 2205.00 1529.00 L 2285.00 1529.00 L 2305.00 1530.00 L 2405.00 1530.00 L 2425.00 1531.00 L 2505.00 1531.00 L 2525.00 1532.00 L 2625.00 1532.00 L 2645.00 1533.00 L 2685.00 1533.00 L 2705.00 1513.00 L 2725.00 1513.00 L 2745.00 1534.00 L 2845.00 1534.00 L 2865.00 1535.00 L 2945.00 1535.00 L 2965.00 1536.00 L 3030.73 1536.00 L 3033.00 1458.00 L 3023.37 1422.00 L 2945.00 1422.00 L 2925.00 1421.00 L 2805.00 1421.00 L 2785.00 1420.00 L 2685.00 1420.00 L 2665.00 1419.00 L 2545.00 1419.00 L 2525.00 1418.00 L 2405.00 1418.00 L 2385.00 1417.00 L 2265.00 1417.00 L 2245.00 1416.00 L 2205.00 1416.00 L 2185.00 1396.00 L 2165.00 1416.00 L 2145.00 1396.00 Z" />
<path id="csg562-046-07" fill="none" stroke="black" stroke-width="1" d="M 2705.00 1513.00 L 2685.00 1533.00 L 2645.00 1533.00 L 2625.00 1532.00 L 2525.00 1532.00 L 2505.00 1531.00 L 2425.00 1531.00 L 2405.00 1530.00 L 2305.00 1530.00 L 2285.00 1529.00 L 2205.00 1529.00 L 2185.00 1528.00 L 2105.00 1528.00 L 2085.00 1527.00 L 1985.00 1527.00 L 1965.00 1526.00 L 1885.00 1526.00 L 1865.00 1525.00 L 1765.00 1525.00 L 1745.00 1524.00 L 1665.00 1524.00 L 1645.00 1523.00 L 1545.00 1523.00 L 1525.00 1522.00 L 1445.00 1522.00 L 1425.00 1521.00 L 1325.00 1521.00 L 1305.00 1520.00 L 1225.00 1520.00 L 1205.00 1519.00 L 1105.00 1519.00 L 1085.00 1518.00 L 1005.00 1518.00 L 985.00 1517.00 L 905.00 1517.00 L 894.77 1522.12 L 895.37 1632.82 L 905.00 1628.00 L 985.00 1628.00 L 1005.00 1629.00 L 1085.00 1629.00 L 1105.00 1630.00 L 1205.00 1630.00 L 1225.00 1631.00 L 1285.00 1631.00 L 1305.00 1611.00 L 1325.00 1612.00 L 1345.00 1612.00 L 1365.00 1632.00 L 1405.00 1632.00 L 1425.00 1633.00 L 1465.00 1633.00 L 1485.00 1653.00 L 1505.00 1653.00 L 1525.00 1633.00 L 1545.00 1634.00 L 1625.00 1634.00 L 1645.00 1635.00 L 1745.00 1635.00 L 1765.00 1636.00 L 1845.00 1636.00 L 1865.00 1637.00 L 1885.00 1637.00 L 1905.00 1657.00 L 1925.00 1637.00 L 1945.00 1637.00 L 1965.00 1638.00 L 2065.00 1638.00 L 2085.00 1639.00 L 2165.00 1639.00 L 2185.00 1640.00 L 2285.00 1640.00 L 2305.00 1641.00 L 2385.00 1641.00 L 2405.00 1642.00 L 2485.00 1642.00 L 2505.00 1643.00 L 2605.00 1643.00 L 2625.00 1644.00 L 2705.00 1644.00 L 2725.00 1645.00 L 2825.00 1645.00 L 2845.00 1646.00 L 2925.00 1646.00 L 2945.00 1647.00 L 3025.00 1647.00 L 3027.49 1647.12 L 3030.73 1536.00 L 2965.00 1536.00 L 2945.00 1535.00 L 2865.00 1535.00 L 2845.00 1534.00 L 2745.00 1534.00 L 2725.00 1513.00 Z" />
<path id="csg562-046-08" fill="none" stroke="black" stroke-width="1" d="M 1305.00 1611.00 L 1285.00 1631.00 L 1225.00 1631.00 L 1205.00 1630.00 L 1105.00 1630.00 L 1085.00 1629.00 L 1005.00 1629.00 L 985.00 1628.00 L 905.00 1628.00 L 895.37 1632.82 L 895.97 1744.51 L 905.00 1740.00 L 1085.00 1740.00 L 1105.00 1741.00 L 1285.00 1741.00 L 1305.00 1742.00 L 1485.00 1742.00 L 1505.00 1743.00 L 1685.00 1743.00 L 1705.00 1744.00 L 1845.00 1744.00 L 1865.00 1764.00 L 1885.00 1744.00 L 1905.00 1745.00 L 2045.00 1745.00 L 2065.00 1765.00 L 2085.00 1745.00 L 2105.00 1746.00 L 2285.00 1746.00 L 2305.00 1747.00 L 2325.00 1767.00 L 2345.00 1767.00 L 2365.00 1747.00 L 2485.00 1747.00 L 2505.00 1748.00 L 2645.00 1748.00 L 2665.00 1768.00 L 2685.00 1748.00 L 2705.00 1749.00 L 2885.00 1749.00 L 2905.00 1750.00 L 3024.50 1750.00 L 3027.49 1647.12 L 3025.00 1647.00 L 2945.00 1647.00 L 2925.00 1646.00 L 2845.00 1646.00 L 2825.00 1645.00 L 2725.00 1645.00 L 2705.00 1644.00 L 2625.00 1644.00 L 2605.00 1643.00 L 2505.00 1643.00 L 2485.00 1642.00 L 2405.00 1642.00 L 2385.00 1641.00 L 2305.00 1641.00 L 2285.00 1640.00 L 2185.00 1640.00 L 2165.00 1639.00 L 2085.00 1639.00 L 2065.00 1638.00 L 1965.00 1638.00 L 1945.00 1637.00 L 1925.00 1637.00 L 1905.00 1657.00 L 1885.00 1637.00 L 1865.00 1637.00 L 1845.00 1636.00 L 1765.00 1636.00 L 1745.00 1635.00 L 1645.00 1635.00 L 1625.00 1634.00 L 1545.00 1634.00 L 1525.00 1633.00 L 1505.00 1653.00 L 1485.00 1653.00 L 1465.00 1633.00 L 1425.00 1633.00 L 1405.00 1632.00 L 1365.00 1632.00 L 1345.00 1612.00 L 1325.00 1612.00 L 1305.00 1611.00 Z" />
<path id="csg562-046-09" fill="none" stroke="black" stroke-width="1" d="M 905.00 1740.00 L 895.97 1744.51 L 896.56 1853.22 L 905.00 1849.00 L 1025.00 1849.00 L 1045.00 1850.00 L 1165.00 1850.00 L 1185.00 1851.00 L 1305.00 1851.00 L 1325.00 1852.00 L 1465.00 1852.00 L 1485.00 1853.00 L 1605.00 1853.00 L 1625.00 1854.00 L 1745.00 1854.00 L 1765.00 1855.00 L 1885.00 1855.00 L 1905.00 1856.00 L 2045.00 1856.00 L 2065.00 1857.00 L 2185.00 1857.00 L 2205.00 1858.00 L 2325.00 1858.00 L 2345.00 1859.00 L 2465.00 1859.00 L 2485.00 1860.00 L 2625.00 1860.00 L 2645.00 1861.00 L 2765.00 1861.00 L 2785.00 1862.00 L 2905.00 1862.00 L 2925.00 1863.00 L 3026.00 1863.00 L 3024.00 1767.00 L 3024.50 1750.00 L 2905.00 1750.00 L 2885.00 1749.00 L 2705.00 1749.00 L 2685.00 1748.00 L 2665.00 1768.00 L 2645.00 1748.00 L 2505.00 1748.00 L 2485.00 1747.00 L 2365.00 1747.00 L 2345.00 1767.00 L 2325.00 1767.00 L 2305.00 1747.00 L 2285.00 1746.00 L 2105.00 1746.00 L 2085.00 1745.00 L 2065.00 1765.00 L 2045.00 1745.00 L 1905.00 1745.00 L 1885.00 1744.00 L 1865.00 1764.00 L 1845.00 1744.00 L 1705.00 1744.00 L 1685.00 1743.00 L 1505.00 1743.00 L 1485.00 1742.00 L 1305.00 1742.00 L 1285.00 1741.00 L 1105.00 1741.00 L 1085.00 1740.00 Z" />
<path id="csg562-046-10" fill="none" stroke="black" stroke-width="1" d="M 905.00 1849.00 L 896.56 1853.22 L 897.16 1963.92 L 905.00 1960.00 L 985.00 1960.00 L 1005.00 1961.00 L 1085.00 1961.00 L 1105.00 1962.00 L 1185.00 1962.00 L 1205.00 1963.00 L 1285.00 1963.00 L 1305.00 1964.00 L 1385.00 1964.00 L 1405.00 1965.00 L 1485.00 1965.00 L 1505.00 1966.00 L 1585.00 1966.00 L 1605.00 1967.00 L 1685.00 1967.00 L 1705.00 1968.00 L 1805.00 1968.00 L 1825.00 1969.00 L 1905.00 1969.00 L 1925.00 1970.00 L 2005.00 1970.00 L 2025.00 1971.00 L 2105.00 1971.00 L 2125.00 1972.00 L 2165.00 1972.00 L 2185.00 1992.00 L 2205.00 1972.00 L 2225.00 1973.00 L 2305.00 1973.00 L 2325.00 1974.00 L 2405.00 1974.00 L 2425.00 1975.00 L 2505.00 1975.00 L 2525.00 1976.00 L 2605.00 1976.00 L 2625.00 1977.00 L 2725.00 1977.00 L 2745.00 1978.00 L 2825.00 1978.00 L 2845.00 1979.00 L 2925.00 1979.00 L 2945.00 1980.00 L 2977.03 1980.00 L 3027.00 1911.00 L 3026.00 1863.00 L 2925.00 1863.00 L 2905.00 1862.00 L 2785.00 1862.00 L 2765.00 1861.00 L 2645.00 1861.00 L 2625.00 1860.00 L 2485.00 1860.00 L 2465.00 1859.00 L 2345.00 1859.00 L 2325.00 1858.00 L 2205.00 1858.00 L 2185.00 1857.00 L 2065.00 1857.00 L 2045.00 1856.00 L 1905.00 1856.00 L 1885.00 1855.00 L 1765.00 1855.00 L 1745.00 1854.00 L 1625.00 1854.00 L 1605.00 1853.00 L 1485.00 1853.00 L 1465.00 1852.00 L 1325.00 1852.00 L 1305.00 1851.00 L 1185.00 1851.00 L 1165.00 1850.00 L 1045.00 1850.00 L 1025.00 1849.00 Z" />
<path id="csg562-046-11" fill="none" stroke="black" stroke-width="1" d="M 905.00 1960.00 L 897.16 1963.92 L 897.79 2081.60 L 905.00 2078.00 L 965.00 2078.00 L 985.00 2079.00 L 1045.00 2079.00 L 1065.00 2080.00 L 1125.00 2080.00 L 1145.00 2081.00 L 1205.00 2081.00 L 1225.00 2082.00 L 1285.00 2082.00 L 1305.00 2083.00 L 1385.00 2083.00 L 1405.00 2084.00 L 1465.00 2084.00 L 1485.00 2085.00 L 1545.00 2085.00 L 1565.00 2086.00 L 1625.00 2086.00 L 1645.00 2087.00 L 1705.00 2087.00 L 1725.00 2088.00 L 1785.00 2088.00 L 1805.00 2089.00 L 1885.00 2089.00 L 1905.00 2090.00 L 1965.00 2090.00 L 1985.00 2091.00 L 2045.00 2091.00 L 2065.00 2092.00 L 2125.00 2092.00 L 2145.00 2093.00 L 2205.00 2093.00 L 2225.00 2094.00 L 2285.00 2094.00 L 2305.00 2095.00 L 2325.00 2075.00 L 2345.00 2055.00 L 2365.00 2055.00 L 2385.00 2095.00 L 2405.00 2096.00 L 2465.00 2096.00 L 2485.00 2097.00 L 2545.00 2097.00 L 2565.00 2098.00 L 2625.00 2098.00 L 2645.00 2099.00 L 2705.00 2099.00 L 2725.00 2100.00 L 2805.00 2100.00 L 2825.00 2101.00 L 2885.00 2101.00 L 2905.00 2102.00 L 2908.21 2102.00 L 2901.00 2085.00 L 2977.03 1980.00 L 2945.00 1980.00 L 2925.00 1979.00 L 2845.00 1979.00 L 2825.00 1978.00 L 2745.00 1978.00 L 2725.00 1977.00 L 2625.00 1977.00 L 2605.00 1976.00 L 2525.00 1976.00 L 2505.00 1975.00 L 2425.00 1975.00 L 2405.00 1974.00 L 2325.00 1974.00 L 2305.00 1973.00 L 2225.00 1973.00 L 2205.00 1972.00 L 2185.00 1992.00 L 2165.00 1972.00 L 2125.00 1972.00 L 2105.00 1971.00 L 2025.00 1971.00 L 2005.00 1970.00 L 1925.00 1970.00 L 1905.00 1969.00 L 1825.00 1969.00 L 1805.00 1968.00 L 1705.00 1968.00 L 1685.00 1967.00 L 1605.00 1967.00 L 1585.00 1966.00 L 1505.00 1966.00 L 1485.00 1965.00 L 1405.00 1965.00 L 1385.00 1964.00 L 1305.00 1964.00 L 1285.00 1963.00 L 1205.00 1963.00 L 1185.00 1962.00 L 1105.00 1962.00 L 1085.00 1961.00 L 1005.00 1961.00 L 985.00 1960.00 Z" />
<path id="csg562-046-12" fill="none" stroke="black" stroke-width="1" d="M 2345.00 2055.00 L 2325.00 2075.00 L 2305.00 2095.00 L 2285.00 2094.00 L 2225.00 2094.00 L 2205.00 2093.00 L 2145.00 2093.00 L 2125.00 2092.00 L 2065.00 2092.00 L 2045.00 2091.00 L 1985.00 2091.00 L 1965.00 2090.00 L 1905.00 2090.00 L 1885.00 2089.00 L 1805.00 2089.00 L 1785.00 2088.00 L 1725.00 2088.00 L 1705.00 2087.00 L 1645.00 2087.00 L 1625.00 2086.00 L 1565.00 2086.00 L 1545.00 2085.00 L 1485.00 2085.00 L 1465.00 2084.00 L 1405.00 2084.00 L 1385.00 2083.00 L 1305.00 2083.00 L 1285.00 2082.00 L 1225.00 2082.00 L 1205.00 2081.00 L 1145.00 2081.00 L 1125.00 2080.00 L 1065.00 2080.00 L 1045.00 2079.00 L 985.00 2079.00 L 965.00 2078.00 L 905.00 2078.00 L 897.79 2081.60 L 898.35 2185.32 L 905.00 2182.00 L 985.00 2182.00 L 1005.00 2183.00 L 1085.00 2183.00 L 1105.00 2184.00 L 1205.00 2184.00 L 1225.00 2185.00 L 1305.00 2185.00 L 1325.00 2186.00 L 1425.00 2186.00 L 1445.00 2187.00 L 1525.00 2187.00 L 1545.00 2188.00 L 1645.00 2188.00 L 1665.00 2189.00 L 1745.00 2189.00 L 1765.00 2190.00 L 1865.00 2190.00 L 1885.00 2191.00 L 1965.00 2191.00 L 1985.00 2192.00 L 2085.00 2192.00 L 2105.00 2193.00 L 2185.00 2193.00 L 2205.00 2194.00 L 2305.00 2194.00 L 2325.00 2195.00 L 2405.00 2195.00 L 2425.00 2196.00 L 2525.00 2196.00 L 2545.00 2197.00 L 2625.00 2197.00 L 2645.00 2198.00 L 2745.00 2198.00 L 2765.00 2199.00 L 2845.00 2199.00 L 2865.00 2200.00 L 2945.00 2200.00 L 2949.89 2200.24 L 2908.21 2102.00 L 2905.00 2102.00 L 2885.00 2101.00 L 2825.00 2101.00 L 2805.00 2100.00 L 2725.00 2100.00 L 2705.00 2099.00 L 2645.00 2099.00 L 2625.00 2098.00 L 2565.00 2098.00 L 2545.00 2097.00 L 2485.00 2097.00 L 2465.00 2096.00 L 2405.00 2096.00 L 2385.00 2095.00 L 2365.00 2055.00 Z" />
<path id="csg562-046-13" fill="none" stroke="black" stroke-width="1" d="M 905.00 2182.00 L 898.35 2185.32 L 898.99 2303.01 L 905.00 2300.00 L 965.00 2300.00 L 985.00 2301.00 L 1065.00 2301.00 L 1085.00 2302.00 L 1145.00 2302.00 L 1165.00 2303.00 L 1245.00 2303.00 L 1265.00 2304.00 L 1345.00 2304.00 L 1365.00 2305.00 L 1425.00 2305.00 L 1445.00 2306.00 L 1525.00 2306.00 L 1545.00 2307.00 L 1625.00 2307.00 L 1645.00 2308.00 L 1705.00 2308.00 L 1725.00 2309.00 L 1805.00 2309.00 L 1825.00 2310.00 L 1905.00 2310.00 L 1925.00 2311.00 L 1985.00 2311.00 L 2005.00 2312.00 L 2085.00 2312.00 L 2105.00 2313.00 L 2165.00 2313.00 L 2185.00 2314.00 L 2265.00 2314.00 L 2285.00 2315.00 L 2365.00 2315.00 L 2385.00 2316.00 L 2445.00 2316.00 L 2465.00 2317.00 L 2545.00 2317.00 L 2565.00 2318.00 L 2645.00 2318.00 L 2665.00 2319.00 L 2725.00 2319.00 L 2745.00 2320.00 L 2825.00 2320.00 L 2830.78 2320.29 L 2832.00 2310.00 L 2985.00 2283.00 L 2949.89 2200.24 L 2945.00 2200.00 L 2865.00 2200.00 L 2845.00 2199.00 L 2765.00 2199.00 L 2745.00 2198.00 L 2645.00 2198.00 L 2625.00 2197.00 L 2545.00 2197.00 L 2525.00 2196.00 L 2425.00 2196.00 L 2405.00 2195.00 L 2325.00 2195.00 L 2305.00 2194.00 L 2205.00 2194.00 L 2185.00 2193.00 L 2105.00 2193.00 L 2085.00 2192.00 L 1985.00 2192.00 L 1965.00 2191.00 L 1885.00 2191.00 L 1865.00 2190.00 L 1765.00 2190.00 L 1745.00 2189.00 L 1665.00 2189.00 L 1645.00 2188.00 L 1545.00 2188.00 L 1525.00 2187.00 L 1445.00 2187.00 L 1425.00 2186.00 L 1325.00 2186.00 L 1305.00 2185.00 L 1225.00 2185.00 L 1205.00 2184.00 L 1105.00 2184.00 L 1085.00 2183.00 L 1005.00 2183.00 L 985.00 2182.00 Z" />
<path id="csg562-046-14" fill="none" stroke="black" stroke-width="1" d="M 905.00 2300.00 L 898.99 2303.01 L 899.59 2413.71 L 905.00 2411.00 L 925.00 2391.00 L 965.00 2391.00 L 985.00 2411.00 L 1005.00 2412.00 L 1105.00 2412.00 L 1125.00 2413.00 L 1225.00 2413.00 L 1245.00 2414.00 L 1345.00 2414.00 L 1365.00 2415.00 L 1445.00 2415.00 L 1465.00 2416.00 L 1565.00 2416.00 L 1585.00 2417.00 L 1685.00 2417.00 L 1705.00 2418.00 L 1805.00 2418.00 L 1825.00 2419.00 L 1925.00 2419.00 L 1945.00 2420.00 L 2025.00 2420.00 L 2045.00 2421.00 L 2145.00 2421.00 L 2165.00 2422.00 L 2185.00 2422.00 L 2205.00 2402.00 L 2225.00 2422.00 L 2265.00 2422.00 L 2285.00 2423.00 L 2385.00 2423.00 L 2405.00 2424.00 L 2485.00 2424.00 L 2505.00 2425.00 L 2605.00 2425.00 L 2625.00 2426.00 L 2725.00 2426.00 L 2745.00 2427.00 L 2818.07 2427.00 L 2830.78 2320.29 L 2825.00 2320.00 L 2745.00 2320.00 L 2725.00 2319.00 L 2665.00 2319.00 L 2645.00 2318.00 L 2565.00 2318.00 L 2545.00 2317.00 L 2465.00 2317.00 L 2445.00 2316.00 L 2385.00 2316.00 L 2365.00 2315.00 L 2285.00 2315.00 L 2265.00 2314.00 L 2185.00 2314.00 L 2165.00 2313.00 L 2105.00 2313.00 L 2085.00 2312.00 L 2005.00 2312.00 L 1985.00 2311.00 L 1925.00 2311.00 L 1905.00 2310.00 L 1825.00 2310.00 L 1805.00 2309.00 L 1725.00 2309.00 L 1705.00 2308.00 L 1645.00 2308.00 L 1625.00 2307.00 L 1545.00 2307.00 L 1525.00 2306.00 L 1445.00 2306.00 L 1425.00 2305.00 L 1365.00 2305.00 L 1345.00 2304.00 L 1265.00 2304.00 L 1245.00 2303.00 L 1165.00 2303.00 L 1145.00 2302.00 L 1085.00 2302.00 L 1065.00 2301.00 L 985.00 2301.00 L 965.00 2300.00 Z" />
<path id="csg562-046-15" fill="none" stroke="black" stroke-width="1" d="M 925.00 2391.00 L 905.00 2411.00 L 899.59 2413.71 L 900.00 2490.00 L 899.49 2523.76 L 905.00 2521.00 L 985.00 2521.00 L 1005.00 2522.00 L 1085.00 2522.00 L 1105.00 2523.00 L 1205.00 2523.00 L 1225.00 2524.00 L 1305.00 2524.00 L 1325.00 2525.00 L 1425.00 2525.00 L 1445.00 2526.00 L 1525.00 2526.00 L 1545.00 2527.00 L 1645.00 2527.00 L 1665.00 2528.00 L 1745.00 2528.00 L 1765.00 2529.00 L 1865.00 2529.00 L 1885.00 2530.00 L 1965.00 2530.00 L 1985.00 2531.00 L 2085.00 2531.00 L 2105.00 2532.00 L 2185.00 2532.00 L 2205.00 2533.00 L 2305.00 2533.00 L 2325.00 2534.00 L 2405.00 2534.00 L 2425.00 2535.00 L 2525.00 2535.00 L 2545.00 2536.00 L 2565.00 2516.00 L 2625.00 2516.00 L 2645.00 2537.00 L 2745.00 2537.00 L 2765.00 2538.00 L 2845.00 2538.00 L 2865.00 2539.00 L 2965.00 2539.00 L 2985.00 2540.00 L 3025.90 2540.00 L 2958.00 2448.00 L 2817.00 2436.00 L 2818.07 2427.00 L 2745.00 2427.00 L 2725.00 2426.00 L 2625.00 2426.00 L 2605.00 2425.00 L 2505.00 2425.00 L 2485.00 2424.00 L 2405.00 2424.00 L 2385.00 2423.00 L 2285.00 2423.00 L 2265.00 2422.00 L 2225.00 2422.00 L 2205.00 2402.00 L 2185.00 2422.00 L 2165.00 2422.00 L 2145.00 2421.00 L 2045.00 2421.00 L 2025.00 2420.00 L 1945.00 2420.00 L 1925.00 2419.00 L 1825.00 2419.00 L 1805.00 2418.00 L 1705.00 2418.00 L 1685.00 2417.00 L 1585.00 2417.00 L 1565.00 2416.00 L 1465.00 2416.00 L 1445.00 2415.00 L 1365.00 2415.00 L 1345.00 2414.00 L 1245.00 2414.00 L 1225.00 2413.00 L 1125.00 2413.00 L 1105.00 2412.00 L 1005.00 2412.00 L 985.00 2411.00 L 965.00 2391.00 Z" />
<path id="csg562-046-16" fill="none" stroke="black" stroke-width="1" d="M 2565.00 2516.00 L 2545.00 2536.00 L 2525.00 2535.00 L 2425.00 2535.00 L 2405.00 2534.00 L 2325.00 2534.00 L 2305.00 2533.00 L 2205.00 2533.00 L 2185.00 2532.00 L 2105.00 2532.00 L 2085.00 2531.00 L 1985.00 2531.00 L 1965.00 2530.00 L 1885.00 2530.00 L 1865.00 2529.00 L 1765.00 2529.00 L 1745.00 2528.00 L 1665.00 2528.00 L 1645.00 2527.00 L 1545.00 2527.00 L 1525.00 2526.00 L 1445.00 2526.00 L 1425.00 2525.00 L 1325.00 2525.00 L 1305.00 2524.00 L 1225.00 2524.00 L 1205.00 2523.00 L 1105.00 2523.00 L 1085.00 2522.00 L 1005.00 2522.00 L 985.00 2521.00 L 905.00 2521.00 L 899.49 2523.76 L 897.84 2632.58 L 905.00 2629.00 L 985.00 2629.00 L 1005.00 2630.00 L 1085.00 2630.00 L 1105.00 2631.00 L 1185.00 2631.00 L 1205.00 2632.00 L 1285.00 2632.00 L 1305.00 2633.00 L 1385.00 2633.00 L 1405.00 2634.00 L 1485.00 2634.00 L 1505.00 2635.00 L 1585.00 2635.00 L 1605.00 2636.00 L 1685.00 2636.00 L 1705.00 2637.00 L 1785.00 2637.00 L 1805.00 2638.00 L 1885.00 2638.00 L 1905.00 2639.00 L 1985.00 2639.00 L 2005.00 2640.00 L 2045.00 2640.00 L 2065.00 2660.00 L 2085.00 2640.00 L 2105.00 2641.00 L 2185.00 2641.00 L 2205.00 2642.00 L 2285.00 2642.00 L 2305.00 2643.00 L 2385.00 2643.00 L 2405.00 2644.00 L 2485.00 2644.00 L 2505.00 2645.00 L 2585.00 2645.00 L 2605.00 2646.00 L 2685.00 2646.00 L 2705.00 2647.00 L 2785.00 2647.00 L 2805.00 2648.00 L 2885.00 2648.00 L 2905.00 2649.00 L 2985.00 2649.00 L 3005.00 2650.00 L 3034.66 2650.00 L 3051.00 2574.00 L 3025.90 2540.00 L 2985.00 2540.00 L 2965.00 2539.00 L 2865.00 2539.00 L 2845.00 2538.00 L 2765.00 2538.00 L 2745.00 2537.00 L 2645.00 2537.00 L 2625.00 2516.00 Z" />
<path id="csg562-046-17" fill="none" stroke="black" stroke-width="1" d="M 905.00 2629.00 L 897.84 2632.58 L 896.07 2749.47 L 905.00 2745.00 L 965.00 2745.00 L 985.00 2746.00 L 1045.00 2746.00 L 1065.00 2747.00 L 1125.00 2747.00 L 1145.00 2748.00 L 1205.00 2748.00 L 1225.00 2749.00 L 1285.00 2749.00 L 1305.00 2750.00 L 1365.00 2750.00 L 1385.00 2751.00 L 1425.00 2751.00 L 1445.00 2731.00 L 1465.00 2732.00 L 1485.00 2712.00 L 1505.00 2752.00 L 1525.00 2752.00 L 1545.00 2753.00 L 1605.00 2753.00 L 1625.00 2754.00 L 1685.00 2754.00 L 1705.00 2755.00 L 1765.00 2755.00 L 1785.00 2756.00 L 1845.00 2756.00 L 1865.00 2757.00 L 1925.00 2757.00 L 1945.00 2758.00 L 2005.00 2758.00 L 2025.00 2759.00 L 2085.00 2759.00 L 2105.00 2760.00 L 2165.00 2760.00 L 2185.00 2761.00 L 2245.00 2761.00 L 2265.00 2762.00 L 2325.00 2762.00 L 2345.00 2763.00 L 2405.00 2763.00 L 2425.00 2764.00 L 2485.00 2764.00 L 2505.00 2765.00 L 2565.00 2765.00 L 2585.00 2766.00 L 2645.00 2766.00 L 2665.00 2767.00 L 2725.00 2767.00 L 2745.00 2768.00 L 2805.00 2768.00 L 2825.00 2769.00 L 2885.00 2769.00 L 2905.00 2770.00 L 2965.00 2770.00 L 2985.00 2771.00 L 3008.65 2771.00 L 3034.66 2650.00 L 3005.00 2650.00 L 2985.00 2649.00 L 2905.00 2649.00 L 2885.00 2648.00 L 2805.00 2648.00 L 2785.00 2647.00 L 2705.00 2647.00 L 2685.00 2646.00 L 2605.00 2646.00 L 2585.00 2645.00 L 2505.00 2645.00 L 2485.00 2644.00 L 2405.00 2644.00 L 2385.00 2643.00 L 2305.00 2643.00 L 2285.00 2642.00 L 2205.00 2642.00 L 2185.00 2641.00 L 2105.00 2641.00 L 2085.00 2640.00 L 2065.00 2660.00 L 2045.00 2640.00 L 2005.00 2640.00 L 1985.00 2639.00 L 1905.00 2639.00 L 1885.00 2638.00 L 1805.00 2638.00 L 1785.00 2637.00 L 1705.00 2637.00 L 1685.00 2636.00 L 1605.00 2636.00 L 1585.00 2635.00 L 1505.00 2635.00 L 1485.00 2634.00 L 1405.00 2634.00 L 1385.00 2633.00 L 1305.00 2633.00 L 1285.00 2632.00 L 1205.00 2632.00 L 1185.00 2631.00 L 1105.00 2631.00 L 1085.00 2630.00 L 1005.00 2630.00 L 985.00 2629.00 Z" />
<path id="csg562-046-18" fill="none" stroke="black" stroke-width="1" d="M 1485.00 2712.00 L 1465.00 2732.00 L 1445.00 2731.00 L 1425.00 2751.00 L 1385.00 2751.00 L 1365.00 2750.00 L 1305.00 2750.00 L 1285.00 2749.00 L 1225.00 2749.00 L 1205.00 2748.00 L 1145.00 2748.00 L 1125.00 2747.00 L 1065.00 2747.00 L 1045.00 2746.00 L 985.00 2746.00 L 965.00 2745.00 L 905.00 2745.00 L 896.07 2749.47 L 894.57 2848.21 L 905.00 2843.00 L 965.00 2843.00 L 985.00 2844.00 L 1045.00 2844.00 L 1065.00 2845.00 L 1125.00 2845.00 L 1145.00 2846.00 L 1205.00 2846.00 L 1225.00 2847.00 L 1305.00 2847.00 L 1325.00 2848.00 L 1385.00 2848.00 L 1405.00 2849.00 L 1465.00 2849.00 L 1485.00 2850.00 L 1545.00 2850.00 L 1565.00 2851.00 L 1625.00 2851.00 L 1645.00 2852.00 L 1725.00 2852.00 L 1745.00 2853.00 L 1805.00 2853.00 L 1825.00 2854.00 L 1885.00 2854.00 L 1905.00 2855.00 L 1965.00 2855.00 L 1985.00 2856.00 L 2065.00 2856.00 L 2085.00 2857.00 L 2145.00 2857.00 L 2165.00 2858.00 L 2225.00 2858.00 L 2245.00 2859.00 L 2305.00 2859.00 L 2325.00 2860.00 L 2385.00 2860.00 L 2405.00 2861.00 L 2485.00 2861.00 L 2505.00 2862.00 L 2565.00 2862.00 L 2585.00 2863.00 L 2645.00 2863.00 L 2665.00 2864.00 L 2725.00 2864.00 L 2745.00 2865.00 L 2825.00 2865.00 L 2845.00 2866.00 L 2905.00 2866.00 L 2925.00 2867.00 L 2985.00 2867.00 L 2987.99 2867.15 L 3008.65 2771.00 L 2985.00 2771.00 L 2965.00 2770.00 L 2905.00 2770.00 L 2885.00 2769.00 L 2825.00 2769.00 L 2805.00 2768.00 L 2745.00 2768.00 L 2725.00 2767.00 L 2665.00 2767.00 L 2645.00 2766.00 L 2585.00 2766.00 L 2565.00 2765.00 L 2505.00 2765.00 L 2485.00 2764.00 L 2425.00 2764.00 L 2405.00 2763.00 L 2345.00 2763.00 L 2325.00 2762.00 L 2265.00 2762.00 L 2245.00 2761.00 L 2185.00 2761.00 L 2165.00 2760.00 L 2105.00 2760.00 L 2085.00 2759.00 L 2025.00 2759.00 L 2005.00 2758.00 L 1945.00 2758.00 L 1925.00 2757.00 L 1865.00 2757.00 L 1845.00 2756.00 L 1785.00 2756.00 L 1765.00 2755.00 L 1705.00 2755.00 L 1685.00 2754.00 L 1625.00 2754.00 L 1605.00 2753.00 L 1545.00 2753.00 L 1525.00 2752.00 L 1505.00 2752.00 L 1485.00 2712.00 Z" />
<path id="csg562-046-19" fill="none" stroke="black" stroke-width="1" d="M 905.00 2843.00 L 894.57 2848.21 L 892.66 2974.17 L 892.66 2974.17 L 905.00 2968.00 L 965.00 2968.00 L 985.00 2969.00 L 1065.00 2969.00 L 1085.00 2970.00 L 1145.00 2970.00 L 1165.00 2971.00 L 1245.00 2971.00 L 1265.00 2972.00 L 1325.00 2972.00 L 1345.00 2973.00 L 1425.00 2973.00 L 1445.00 2974.00 L 1505.00 2974.00 L 1525.00 2975.00 L 1565.00 2975.00 L 1585.00 2955.00 L 1605.00 2955.00 L 1625.00 2956.00 L 1645.00 2976.00 L 1705.00 2976.00 L 1725.00 2977.00 L 1785.00 2977.00 L 1805.00 2978.00 L 1885.00 2978.00 L 1905.00 2979.00 L 1965.00 2979.00 L 1985.00 2980.00 L 2065.00 2980.00 L 2085.00 2981.00 L 2145.00 2981.00 L 2165.00 2982.00 L 2245.00 2982.00 L 2265.00 2983.00 L 2345.00 2983.00 L 2365.00 2984.00 L 2425.00 2984.00 L 2445.00 2985.00 L 2525.00 2985.00 L 2545.00 2986.00 L 2605.00 2986.00 L 2625.00 2987.00 L 2705.00 2987.00 L 2725.00 2988.00 L 2785.00 2988.00 L 2805.00 2989.00 L 2885.00 2989.00 L 2905.00 2990.00 L 2965.00 2990.00 L 2968.58 2990.18 L 2982.00 2895.00 L 2987.99 2867.15 L 2985.00 2867.00 L 2925.00 2867.00 L 2905.00 2866.00 L 2845.00 2866.00 L 2825.00 2865.00 L 2745.00 2865.00 L 2725.00 2864.00 L 2665.00 2864.00 L 2645.00 2863.00 L 2585.00 2863.00 L 2565.00 2862.00 L 2505.00 2862.00 L 2485.00 2861.00 L 2405.00 2861.00 L 2385.00 2860.00 L 2325.00 2860.00 L 2305.00 2859.00 L 2245.00 2859.00 L 2225.00 2858.00 L 2165.00 2858.00 L 2145.00 2857.00 L 2085.00 2857.00 L 2065.00 2856.00 L 1985.00 2856.00 L 1965.00 2855.00 L 1905.00 2855.00 L 1885.00 2854.00 L 1825.00 2854.00 L 1805.00 2853.00 L 1745.00 2853.00 L 1725.00 2852.00 L 1645.00 2852.00 L 1625.00 2851.00 L 1565.00 2851.00 L 1545.00 2850.00 L 1485.00 2850.00 L 1465.00 2849.00 L 1405.00 2849.00 L 1385.00 2848.00 L 1325.00 2848.00 L 1305.00 2847.00 L 1225.00 2847.00 L 1205.00 2846.00 L 1145.00 2846.00 L 1125.00 2845.00 L 1065.00 2845.00 L 1045.00 2844.00 L 985.00 2844.00 L 965.00 2843.00 Z" />
<path id="csg562-046-20" fill="none" stroke="black" stroke-width="1" d="M 1585.00 2955.00 L 1565.00 2975.00 L 1525.00 2975.00 L 1505.00 2974.00 L 1445.00 2974.00 L 1425.00 2973.00 L 1345.00 2973.00 L 1325.00 2972.00 L 1265.00 2972.00 L 1245.00 2971.00 L 1165.00 2971.00 L 1145.00 2970.00 L 1085.00 2970.00 L 1065.00 2969.00 L 985.00 2969.00 L 965.00 2968.00 L 905.00 2968.00 L 892.66 2974.17 L 891.08 3078.96 L 905.00 3072.00 L 965.00 3072.00 L 985.00 3073.00 L 1045.00 3073.00 L 1065.00 3074.00 L 1125.00 3074.00 L 1145.00 3075.00 L 1205.00 3075.00 L 1225.00 3076.00 L 1285.00 3076.00 L 1305.00 3077.00 L 1365.00 3077.00 L 1385.00 3078.00 L 1445.00 3078.00 L 1465.00 3079.00 L 1525.00 3079.00 L 1545.00 3080.00 L 1605.00 3080.00 L 1625.00 3081.00 L 1685.00 3081.00 L 1705.00 3082.00 L 1765.00 3082.00 L 1785.00 3083.00 L 1845.00 3083.00 L 1865.00 3084.00 L 1925.00 3084.00 L 1945.00 3085.00 L 2005.00 3085.00 L 2025.00 3086.00 L 2085.00 3086.00 L 2105.00 3087.00 L 2165.00 3087.00 L 2185.00 3088.00 L 2245.00 3088.00 L 2265.00 3089.00 L 2325.00 3089.00 L 2345.00 3090.00 L 2405.00 3090.00 L 2425.00 3091.00 L 2485.00 3091.00 L 2505.00 3092.00 L 2565.00 3092.00 L 2585.00 3093.00 L 2645.00 3093.00 L 2665.00 3094.00 L 2725.00 3094.00 L 2745.00 3095.00 L 2805.00 3095.00 L 2825.00 3096.00 L 2885.00 3096.00 L 2905.00 3097.00 L 2953.51 3097.00 L 2968.58 2990.18 L 2965.00 2990.00 L 2905.00 2990.00 L 2885.00 2989.00 L 2805.00 2989.00 L 2785.00 2988.00 L 2725.00 2988.00 L 2705.00 2987.00 L 2625.00 2987.00 L 2605.00 2986.00 L 2545.00 2986.00 L 2525.00 2985.00 L 2445.00 2985.00 L 2425.00 2984.00 L 2365.00 2984.00 L 2345.00 2983.00 L 2265.00 2983.00 L 2245.00 2982.00 L 2165.00 2982.00 L 2145.00 2981.00 L 2085.00 2981.00 L 2065.00 2980.00 L 1985.00 2980.00 L 1965.00 2979.00 L 1905.00 2979.00 L 1885.00 2978.00 L 1805.00 2978.00 L 1785.00 2977.00 L 1725.00 2977.00 L 1705.00 2976.00 L 1645.00 2976.00 L 1625.00 2956.00 L 1605.00 2955.00 Z" />
<path id="csg562-046-21" fill="none" stroke="black" stroke-width="1" d="M 905.00 3072.00 L 891.08 3078.96 L 889.44 3186.78 L 905.00 3179.00 L 1005.00 3179.00 L 1025.00 3180.00 L 1125.00 3180.00 L 1145.00 3181.00 L 1245.00 3181.00 L 1265.00 3182.00 L 1365.00 3182.00 L 1385.00 3183.00 L 1485.00 3183.00 L 1505.00 3184.00 L 1605.00 3184.00 L 1625.00 3185.00 L 1725.00 3185.00 L 1745.00 3186.00 L 1845.00 3186.00 L 1865.00 3187.00 L 1965.00 3187.00 L 1985.00 3188.00 L 2085.00 3188.00 L 2105.00 3189.00 L 2205.00 3189.00 L 2225.00 3190.00 L 2325.00 3190.00 L 2345.00 3191.00 L 2445.00 3191.00 L 2465.00 3192.00 L 2565.00 3192.00 L 2585.00 3193.00 L 2685.00 3193.00 L 2705.00 3194.00 L 2725.00 3214.00 L 2745.00 3214.00 L 2765.00 3194.00 L 2805.00 3194.00 L 2825.00 3195.00 L 2925.00 3195.00 L 2945.00 3196.00 L 2951.94 3196.00 L 2949.00 3129.00 L 2953.51 3097.00 L 2905.00 3097.00 L 2885.00 3096.00 L 2825.00 3096.00 L 2805.00 3095.00 L 2745.00 3095.00 L 2725.00 3094.00 L 2665.00 3094.00 L 2645.00 3093.00 L 2585.00 3093.00 L 2565.00 3092.00 L 2505.00 3092.00 L 2485.00 3091.00 L 2425.00 3091.00 L 2405.00 3090.00 L 2345.00 3090.00 L 2325.00 3089.00 L 2265.00 3089.00 L 2245.00 3088.00 L 2185.00 3088.00 L 2165.00 3087.00 L 2105.00 3087.00 L 2085.00 3086.00 L 2025.00 3086.00 L 2005.00 3085.00 L 1945.00 3085.00 L 1925.00 3084.00 L 1865.00 3084.00 L 1845.00 3083.00 L 1785.00 3083.00 L 1765.00 3082.00 L 1705.00 3082.00 L 1685.00 3081.00 L 1625.00 3081.00 L 1605.00 3080.00 L 1545.00 3080.00 L 1525.00 3079.00 L 1465.00 3079.00 L 1445.00 3078.00 L 1385.00 3078.00 L 1365.00 3077.00 L 1305.00 3077.00 L 1285.00 3076.00 L 1225.00 3076.00 L 1205.00 3075.00 L 1145.00 3075.00 L 1125.00 3074.00 L 1065.00 3074.00 L 1045.00 3073.00 L 985.00 3073.00 L 965.00 3072.00 Z" />
<path id="csg562-046-22" fill="none" stroke="black" stroke-width="1" d="M 905.00 3179.00 L 889.44 3186.78 L 887.56 3310.72 L 905.00 3302.00 L 1005.00 3302.00 L 1025.00 3303.00 L 1145.00 3303.00 L 1165.00 3304.00 L 1285.00 3304.00 L 1305.00 3305.00 L 1425.00 3305.00 L 1445.00 3306.00 L 1565.00 3306.00 L 1585.00 3307.00 L 1705.00 3307.00 L 1725.00 3328.00 L 1745.00 3308.00 L 1845.00 3308.00 L 1865.00 3309.00 L 1985.00 3309.00 L 2005.00 3310.00 L 2125.00 3310.00 L 2145.00 3311.00 L 2265.00 3311.00 L 2285.00 3312.00 L 2405.00 3312.00 L 2425.00 3313.00 L 2545.00 3313.00 L 2565.00 3314.00 L 2685.00 3314.00 L 2705.00 3315.00 L 2825.00 3315.00 L 2845.00 3316.00 L 2957.20 3316.00 L 2951.94 3196.00 L 2945.00 3196.00 L 2925.00 3195.00 L 2825.00 3195.00 L 2805.00 3194.00 L 2765.00 3194.00 L 2745.00 3214.00 L 2725.00 3214.00 L 2705.00 3194.00 L 2685.00 3193.00 L 2585.00 3193.00 L 2565.00 3192.00 L 2465.00 3192.00 L 2445.00 3191.00 L 2345.00 3191.00 L 2325.00 3190.00 L 2225.00 3190.00 L 2205.00 3189.00 L 2105.00 3189.00 L 2085.00 3188.00 L 1985.00 3188.00 L 1965.00 3187.00 L 1865.00 3187.00 L 1845.00 3186.00 L 1745.00 3186.00 L 1725.00 3185.00 L 1625.00 3185.00 L 1605.00 3184.00 L 1505.00 3184.00 L 1485.00 3183.00 L 1385.00 3183.00 L 1365.00 3182.00 L 1265.00 3182.00 L 1245.00 3181.00 L 1145.00 3181.00 L 1125.00 3180.00 L 1025.00 3180.00 L 1005.00 3179.00 Z" />
<path id="csg562-046-23" fill="none" stroke="black" stroke-width="1" d="M 905.00 3302.00 L 887.56 3310.72 L 885.92 3419.54 L 905.00 3410.00 L 965.00 3410.00 L 985.00 3411.00 L 1045.00 3411.00 L 1065.00 3412.00 L 1125.00 3412.00 L 1145.00 3413.00 L 1225.00 3413.00 L 1245.00 3414.00 L 1305.00 3414.00 L 1325.00 3415.00 L 1385.00 3415.00 L 1405.00 3416.00 L 1465.00 3416.00 L 1485.00 3417.00 L 1565.00 3417.00 L 1585.00 3418.00 L 1645.00 3418.00 L 1665.00 3419.00 L 1725.00 3419.00 L 1745.00 3420.00 L 1805.00 3420.00 L 1825.00 3421.00 L 1905.00 3421.00 L 1925.00 3422.00 L 1985.00 3422.00 L 2005.00 3423.00 L 2065.00 3423.00 L 2085.00 3424.00 L 2145.00 3424.00 L 2165.00 3425.00 L 2245.00 3425.00 L 2265.00 3426.00 L 2303.50 3426.00 L 2376.00 3381.00 L 2442.00 3405.00 L 2439.12 3428.00 L 2505.00 3428.00 L 2525.00 3429.00 L 2585.00 3429.00 L 2605.00 3430.00 L 2665.00 3430.00 L 2685.00 3431.00 L 2745.00 3431.00 L 2765.00 3432.00 L 2845.00 3432.00 L 2865.00 3433.00 L 2925.00 3433.00 L 2945.00 3434.00 L 2962.38 3434.00 L 2957.20 3316.00 L 2845.00 3316.00 L 2825.00 3315.00 L 2705.00 3315.00 L 2685.00 3314.00 L 2565.00 3314.00 L 2545.00 3313.00 L 2425.00 3313.00 L 2405.00 3312.00 L 2285.00 3312.00 L 2265.00 3311.00 L 2145.00 3311.00 L 2125.00 3310.00 L 2005.00 3310.00 L 1985.00 3309.00 L 1865.00 3309.00 L 1845.00 3308.00 L 1745.00 3308.00 L 1725.00 3328.00 L 1705.00 3307.00 L 1585.00 3307.00 L 1565.00 3306.00 L 1445.00 3306.00 L 1425.00 3305.00 L 1305.00 3305.00 L 1285.00 3304.00 L 1165.00 3304.00 L 1145.00 3303.00 L 1025.00 3303.00 L 1005.00 3302.00 Z" />
<path id="csg562-046-24" fill="none" stroke="black" stroke-width="1" d="M 905.00 3410.00 L 885.92 3419.54 L 885.00 3480.00 L 1029.00 3522.00 L 2277.00 3528.00 L 2289.00 3435.00 L 2303.50 3426.00 L 2265.00 3426.00 L 2245.00 3425.00 L 2165.00 3425.00 L 2145.00 3424.00 L 2085.00 3424.00 L 2065.00 3423.00 L 2005.00 3423.00 L 1985.00 3422.00 L 1925.00 3422.00 L 1905.00 3421.00 L 1825.00 3421.00 L 1805.00 3420.00 L 1745.00 3420.00 L 1725.00 3419.00 L 1665.00 3419.00 L 1645.00 3418.00 L 1585.00 3418.00 L 1565.00 3417.00 L 1485.00 3417.00 L 1465.00 3416.00 L 1405.00 3416.00 L 1385.00 3415.00 L 1325.00 3415.00 L 1305.00 3414.00 L 1245.00 3414.00 L 1225.00 3413.00 L 1145.00 3413.00 L 1125.00 3412.00 L 1065.00 3412.00 L 1045.00 3411.00 L 985.00 3411.00 L 965.00 3410.00 Z" />
</svg>
