<?xml version="1.0" standalone="no"?>
<!DOCTYPE svg PUBLIC "-//W3C//DTD SVG 1.1//EN" "http://www.w3.org/Graphics/SVG/1.1/DTD/svg11.dtd">
<svg width="46.22222in" height="69.333336in" viewBox="0 0 3328 4992" xmlns="http://www.w3.org/2000/svg" version="1.1">
<path id="csg562-010-01" fill="none" stroke="black" stroke-width="1" d="M 1172.25 825.00 L 936.00 870.00 L 932.25 944.00 L 1576.00 944.00 L 1596.00 945.00 L 2276.00 945.00 L 2296.00 946.00 L 2996.00 946.00 L 3016.00 947.00 L 3053.02 947.00 L 3063.00 870.00 L 2814.00 825.00 L 2523.00 852.00 L 2238.00 837.00 L 1827.00 831.00 L 1431.00 858.00 L 1208.25 825.00 Z" />
<path id="csg562-010-02" fill="none" stroke="black" stroke-width="1" d="M 932.25 944.00 L 926.63 1055.00 L 1416.00 1055.00 L 1436.00 1056.00 L 1956.00 1056.00 L 1976.00 1057.00 L 2496.00 1057.00 L 2516.00 1058.00 L 2636.00 1058.00 L 2656.00 1078.00 L 2696.00 1078.00 L 2716.00 1058.00 L 2976.00 1058.00 L 2996.00 1078.00 L 3016.00 1058.00 L 3038.63 1058.00 L 3053.02 947.00 L 3016.00 947.00 L 2996.00 946.00 L 2296.00 946.00 L 2276.00 945.00 L 1596.00 945.00 L 1576.00 944.00 Z" />
<path id="csg562-010-03" fill="none" stroke="black" stroke-width="1" d="M 926.63 1055.00 L 924.00 1107.00 L 925.78 1180.00 L 1496.00 1180.00 L 1516.00 1181.00 L 2136.00 1181.00 L 2156.00 1182.00 L 2776.00 1182.00 L 2796.00 1183.00 L 3022.43 1183.00 L 3038.63 1058.00 L 3016.00 1058.00 L 2996.00 1078.00 L 2976.00 1058.00 L 2716.00 1058.00 L 2696.00 1078.00 L 2656.00 1078.00 L 2636.00 1058.00 L 2516.00 1058.00 L 2496.00 1057.00 L 1976.00 1057.00 L 1956.00 1056.00 L 1436.00 1056.00 L 1416.00 1055.00 Z" />
<path id="csg562-010-04" fill="none" stroke="black" stroke-width="1" d="M 925.78 1180.00 L 928.51 1292.00 L 1676.00 1292.00 L 1696.00 1312.00 L 1716.00 1312.00 L 1736.00 1292.00 L 1856.00 1292.00 L 1876.00 1272.00 L 1896.00 1292.00 L 2136.00 1292.00 L 2156.00 1293.00 L 2856.00 1293.00 L 2876.00 1333.00 L 2896.00 1293.00 L 3045.34 1293.00 L 3021.00 1194.00 L 3022.43 1183.00 L 2796.00 1183.00 L 2776.00 1182.00 L 2156.00 1182.00 L 2136.00 1181.00 L 1516.00 1181.00 L 1496.00 1180.00 Z" />
<path id="csg562-010-05" fill="none" stroke="black" stroke-width="1" d="M 1876.00 1272.00 L 1856.00 1292.00 L 1736.00 1292.00 L 1716.00 1312.00 L 1696.00 1312.00 L 1676.00 1292.00 L 928.51 1292.00 L 931.29 1406.00 L 1016.00 1406.00 L 1036.00 1426.00 L 1076.00 1426.00 L 1096.00 1406.00 L 1396.00 1406.00 L 1416.00 1407.00 L 1916.00 1407.00 L 1936.00 1408.00 L 2436.00 1408.00 L 2456.00 1409.00 L 2536.00 1409.00 L 2556.00 1429.00 L 2576.00 1429.00 L 2596.00 1409.00 L 2656.00 1409.00 L 2676.00 1429.00 L 2716.00 1429.00 L 2736.00 1409.00 L 2956.00 1409.00 L 2976.00 1410.00 L 3039.95 1410.00 L 3066.00 1377.00 L 3045.34 1293.00 L 2896.00 1293.00 L 2876.00 1333.00 L 2856.00 1293.00 L 2156.00 1293.00 L 2136.00 1292.00 L 1896.00 1292.00 L 1876.00 1272.00 Z" />
<path id="csg562-010-06" fill="none" stroke="black" stroke-width="1" d="M 931.29 1406.00 L 933.00 1476.00 L 901.33 1511.00 L 1136.00 1511.00 L 1156.00 1512.00 L 1396.00 1512.00 L 1416.00 1513.00 L 1676.00 1513.00 L 1696.00 1534.00 L 1716.00 1534.00 L 1736.00 1514.00 L 1936.00 1514.00 L 1956.00 1515.00 L 2216.00 1515.00 L 2236.00 1516.00 L 2476.00 1516.00 L 2496.00 1517.00 L 2736.00 1517.00 L 2756.00 1518.00 L 2976.00 1518.00 L 2996.00 1538.00 L 3016.00 1518.00 L 3029.01 1518.65 L 3021.00 1434.00 L 3039.95 1410.00 L 2976.00 1410.00 L 2956.00 1409.00 L 2736.00 1409.00 L 2716.00 1429.00 L 2676.00 1429.00 L 2656.00 1409.00 L 2596.00 1409.00 L 2576.00 1429.00 L 2556.00 1429.00 L 2536.00 1409.00 L 2456.00 1409.00 L 2436.00 1408.00 L 1936.00 1408.00 L 1916.00 1407.00 L 1416.00 1407.00 L 1396.00 1406.00 L 1096.00 1406.00 L 1076.00 1426.00 L 1036.00 1426.00 L 1016.00 1406.00 Z" />
<path id="csg562-010-07" fill="none" stroke="black" stroke-width="1" d="M 901.33 1511.00 L 876.00 1539.00 L 905.86 1627.00 L 1156.00 1627.00 L 1176.00 1628.00 L 1316.00 1628.00 L 1336.00 1608.00 L 1356.00 1608.00 L 1376.00 1628.00 L 1436.00 1628.00 L 1456.00 1629.00 L 1516.00 1629.00 L 1536.00 1649.00 L 1556.00 1629.00 L 1716.00 1629.00 L 1736.00 1630.00 L 1996.00 1630.00 L 2016.00 1631.00 L 2296.00 1631.00 L 2316.00 1632.00 L 2576.00 1632.00 L 2596.00 1633.00 L 2856.00 1633.00 L 2876.00 1634.00 L 3039.92 1634.00 L 3029.01 1518.65 L 3016.00 1518.00 L 2996.00 1538.00 L 2976.00 1518.00 L 2756.00 1518.00 L 2736.00 1517.00 L 2496.00 1517.00 L 2476.00 1516.00 L 2236.00 1516.00 L 2216.00 1515.00 L 1956.00 1515.00 L 1936.00 1514.00 L 1736.00 1514.00 L 1716.00 1534.00 L 1696.00 1534.00 L 1676.00 1513.00 L 1416.00 1513.00 L 1396.00 1512.00 L 1156.00 1512.00 L 1136.00 1511.00 Z" />
<path id="csg562-010-08" fill="none" stroke="black" stroke-width="1" d="M 1336.00 1608.00 L 1316.00 1628.00 L 1176.00 1628.00 L 1156.00 1627.00 L 905.86 1627.00 L 933.00 1707.00 L 931.95 1738.00 L 1056.00 1738.00 L 1076.00 1739.00 L 1236.00 1739.00 L 1256.00 1740.00 L 1436.00 1740.00 L 1456.00 1741.00 L 1616.00 1741.00 L 1636.00 1742.00 L 1796.00 1742.00 L 1816.00 1743.00 L 1996.00 1743.00 L 2016.00 1744.00 L 2176.00 1744.00 L 2196.00 1745.00 L 2356.00 1745.00 L 2376.00 1746.00 L 2556.00 1746.00 L 2576.00 1747.00 L 2736.00 1747.00 L 2756.00 1748.00 L 2936.00 1748.00 L 2956.00 1749.00 L 2980.70 1749.00 L 3042.00 1656.00 L 3039.92 1634.00 L 2876.00 1634.00 L 2856.00 1633.00 L 2596.00 1633.00 L 2576.00 1632.00 L 2316.00 1632.00 L 2296.00 1631.00 L 2016.00 1631.00 L 1996.00 1630.00 L 1736.00 1630.00 L 1716.00 1629.00 L 1556.00 1629.00 L 1536.00 1649.00 L 1516.00 1629.00 L 1456.00 1629.00 L 1436.00 1628.00 L 1376.00 1628.00 L 1356.00 1608.00 Z" />
<path id="csg562-010-09" fill="none" stroke="black" stroke-width="1" d="M 931.95 1738.00 L 928.17 1850.00 L 1296.00 1850.00 L 1316.00 1870.00 L 1336.00 1850.00 L 1396.00 1850.00 L 1416.00 1851.00 L 1816.00 1851.00 L 1836.00 1871.00 L 1856.00 1851.00 L 1936.00 1851.00 L 1956.00 1852.00 L 1976.00 1872.00 L 1996.00 1872.00 L 2016.00 1852.00 L 2036.00 1852.00 L 2056.00 1872.00 L 2076.00 1852.00 L 2456.00 1852.00 L 2476.00 1853.00 L 2995.00 1853.00 L 2955.00 1788.00 L 2980.70 1749.00 L 2956.00 1749.00 L 2936.00 1748.00 L 2756.00 1748.00 L 2736.00 1747.00 L 2576.00 1747.00 L 2556.00 1746.00 L 2376.00 1746.00 L 2356.00 1745.00 L 2196.00 1745.00 L 2176.00 1744.00 L 2016.00 1744.00 L 1996.00 1743.00 L 1816.00 1743.00 L 1796.00 1742.00 L 1636.00 1742.00 L 1616.00 1741.00 L 1456.00 1741.00 L 1436.00 1740.00 L 1256.00 1740.00 L 1236.00 1739.00 L 1076.00 1739.00 L 1056.00 1738.00 Z" />
<path id="csg562-010-10" fill="none" stroke="black" stroke-width="1" d="M 928.17 1850.00 L 924.35 1963.00 L 1056.00 1963.00 L 1076.00 1964.00 L 1256.00 1964.00 L 1276.00 1965.00 L 1456.00 1965.00 L 1476.00 1966.00 L 1656.00 1966.00 L 1676.00 1967.00 L 1856.00 1967.00 L 1876.00 1968.00 L 2056.00 1968.00 L 2076.00 1969.00 L 2256.00 1969.00 L 2276.00 1970.00 L 2456.00 1970.00 L 2476.00 1971.00 L 2656.00 1971.00 L 2676.00 1972.00 L 2856.00 1972.00 L 2876.00 1973.00 L 3056.00 1973.00 L 3069.28 1973.70 L 2995.00 1853.00 L 2476.00 1853.00 L 2456.00 1852.00 L 2076.00 1852.00 L 2056.00 1872.00 L 2036.00 1852.00 L 2016.00 1852.00 L 1996.00 1872.00 L 1976.00 1872.00 L 1956.00 1852.00 L 1936.00 1851.00 L 1856.00 1851.00 L 1836.00 1871.00 L 1816.00 1851.00 L 1416.00 1851.00 L 1396.00 1850.00 L 1336.00 1850.00 L 1316.00 1870.00 L 1296.00 1850.00 Z" />
<path id="csg562-010-11" fill="none" stroke="black" stroke-width="1" d="M 924.35 1963.00 L 920.50 2077.00 L 1076.00 2077.00 L 1096.00 2078.00 L 1296.00 2078.00 L 1316.00 2079.00 L 1516.00 2079.00 L 1536.00 2080.00 L 1716.00 2080.00 L 1736.00 2081.00 L 1936.00 2081.00 L 1956.00 2082.00 L 2156.00 2082.00 L 2176.00 2083.00 L 2376.00 2083.00 L 2396.00 2084.00 L 2576.00 2084.00 L 2596.00 2085.00 L 2796.00 2085.00 L 2816.00 2086.00 L 3016.00 2086.00 L 3036.00 2087.00 L 3060.14 2087.00 L 3075.00 1983.00 L 3069.28 1973.70 L 3056.00 1973.00 L 2876.00 1973.00 L 2856.00 1972.00 L 2676.00 1972.00 L 2656.00 1971.00 L 2476.00 1971.00 L 2456.00 1970.00 L 2276.00 1970.00 L 2256.00 1969.00 L 2076.00 1969.00 L 2056.00 1968.00 L 1876.00 1968.00 L 1856.00 1967.00 L 1676.00 1967.00 L 1656.00 1966.00 L 1476.00 1966.00 L 1456.00 1965.00 L 1276.00 1965.00 L 1256.00 1964.00 L 1076.00 1964.00 L 1056.00 1963.00 Z" />
<path id="csg562-010-12" fill="none" stroke="black" stroke-width="1" d="M 920.50 2077.00 L 918.00 2151.00 L 917.58 2184.00 L 1056.00 2184.00 L 1076.00 2204.00 L 1096.00 2184.00 L 1576.00 2184.00 L 1596.00 2185.00 L 1716.00 2185.00 L 1736.00 2205.00 L 1756.00 2185.00 L 1976.00 2185.00 L 1996.00 2205.00 L 2016.00 2185.00 L 2276.00 2185.00 L 2296.00 2186.00 L 2996.00 2186.00 L 2997.41 2186.07 L 2958.00 2103.00 L 3060.00 2088.00 L 3060.14 2087.00 L 3036.00 2087.00 L 3016.00 2086.00 L 2816.00 2086.00 L 2796.00 2085.00 L 2596.00 2085.00 L 2576.00 2084.00 L 2396.00 2084.00 L 2376.00 2083.00 L 2176.00 2083.00 L 2156.00 2082.00 L 1956.00 2082.00 L 1936.00 2081.00 L 1736.00 2081.00 L 1716.00 2080.00 L 1536.00 2080.00 L 1516.00 2079.00 L 1316.00 2079.00 L 1296.00 2078.00 L 1096.00 2078.00 L 1076.00 2077.00 Z" />
<path id="csg562-010-13" fill="none" stroke="black" stroke-width="1" d="M 917.58 2184.00 L 916.22 2290.00 L 1056.00 2290.00 L 1076.00 2291.00 L 1236.00 2291.00 L 1256.00 2292.00 L 1416.00 2292.00 L 1436.00 2293.00 L 1596.00 2293.00 L 1616.00 2294.00 L 1776.00 2294.00 L 1796.00 2295.00 L 1956.00 2295.00 L 1976.00 2296.00 L 2136.00 2296.00 L 2156.00 2297.00 L 2316.00 2297.00 L 2336.00 2298.00 L 2496.00 2298.00 L 2516.00 2299.00 L 2676.00 2299.00 L 2696.00 2300.00 L 2876.00 2300.00 L 2896.00 2301.00 L 3051.92 2301.00 L 2997.41 2186.07 L 2996.00 2186.00 L 2296.00 2186.00 L 2276.00 2185.00 L 2016.00 2185.00 L 1996.00 2205.00 L 1976.00 2185.00 L 1756.00 2185.00 L 1736.00 2205.00 L 1716.00 2185.00 L 1596.00 2185.00 L 1576.00 2184.00 L 1096.00 2184.00 L 1076.00 2204.00 L 1056.00 2184.00 Z" />
<path id="csg562-010-14" fill="none" stroke="black" stroke-width="1" d="M 916.22 2290.00 L 914.87 2395.00 L 996.00 2395.00 L 1016.00 2396.00 L 1136.00 2396.00 L 1156.00 2397.00 L 1276.00 2397.00 L 1296.00 2398.00 L 1416.00 2398.00 L 1436.00 2399.00 L 1556.00 2399.00 L 1576.00 2400.00 L 1676.00 2400.00 L 1696.00 2401.00 L 1816.00 2401.00 L 1836.00 2402.00 L 1956.00 2402.00 L 1976.00 2403.00 L 2096.00 2403.00 L 2116.00 2404.00 L 2236.00 2404.00 L 2256.00 2405.00 L 2376.00 2405.00 L 2396.00 2406.00 L 2496.00 2406.00 L 2516.00 2407.00 L 2556.00 2407.00 L 2576.00 2427.00 L 2596.00 2407.00 L 2636.00 2407.00 L 2656.00 2408.00 L 2776.00 2408.00 L 2796.00 2409.00 L 2916.00 2409.00 L 2936.00 2410.00 L 3056.00 2410.00 L 3057.76 2410.09 L 3069.00 2337.00 L 3051.92 2301.00 L 2896.00 2301.00 L 2876.00 2300.00 L 2696.00 2300.00 L 2676.00 2299.00 L 2516.00 2299.00 L 2496.00 2298.00 L 2336.00 2298.00 L 2316.00 2297.00 L 2156.00 2297.00 L 2136.00 2296.00 L 1976.00 2296.00 L 1956.00 2295.00 L 1796.00 2295.00 L 1776.00 2294.00 L 1616.00 2294.00 L 1596.00 2293.00 L 1436.00 2293.00 L 1416.00 2292.00 L 1256.00 2292.00 L 1236.00 2291.00 L 1076.00 2291.00 L 1056.00 2290.00 Z" />
<path id="csg562-010-15" fill="none" stroke="black" stroke-width="1" d="M 914.87 2395.00 L 913.24 2522.00 L 1196.00 2522.00 L 1216.00 2523.00 L 1516.00 2523.00 L 1536.00 2524.00 L 1836.00 2524.00 L 1856.00 2525.00 L 2156.00 2525.00 L 2176.00 2526.00 L 2476.00 2526.00 L 2496.00 2527.00 L 2796.00 2527.00 L 2816.00 2548.00 L 2836.00 2528.00 L 3024.00 2528.00 L 3045.00 2493.00 L 3057.76 2410.09 L 3056.00 2410.00 L 2936.00 2410.00 L 2916.00 2409.00 L 2796.00 2409.00 L 2776.00 2408.00 L 2656.00 2408.00 L 2636.00 2407.00 L 2596.00 2407.00 L 2576.00 2427.00 L 2556.00 2407.00 L 2516.00 2407.00 L 2496.00 2406.00 L 2396.00 2406.00 L 2376.00 2405.00 L 2256.00 2405.00 L 2236.00 2404.00 L 2116.00 2404.00 L 2096.00 2403.00 L 1976.00 2403.00 L 1956.00 2402.00 L 1836.00 2402.00 L 1816.00 2401.00 L 1696.00 2401.00 L 1676.00 2400.00 L 1576.00 2400.00 L 1556.00 2399.00 L 1436.00 2399.00 L 1416.00 2398.00 L 1296.00 2398.00 L 1276.00 2397.00 L 1156.00 2397.00 L 1136.00 2396.00 L 1016.00 2396.00 L 996.00 2395.00 Z" />
<path id="csg562-010-16" fill="none" stroke="black" stroke-width="1" d="M 913.24 2522.00 L 912.00 2619.00 L 910.24 2631.00 L 1236.00 2631.00 L 1256.00 2651.00 L 1276.00 2631.00 L 1396.00 2631.00 L 1416.00 2632.00 L 1936.00 2632.00 L 1956.00 2633.00 L 2476.00 2633.00 L 2496.00 2634.00 L 2960.40 2634.00 L 3024.00 2528.00 L 2836.00 2528.00 L 2816.00 2548.00 L 2796.00 2527.00 L 2496.00 2527.00 L 2476.00 2526.00 L 2176.00 2526.00 L 2156.00 2525.00 L 1856.00 2525.00 L 1836.00 2524.00 L 1536.00 2524.00 L 1516.00 2523.00 L 1216.00 2523.00 L 1196.00 2522.00 Z" />
<path id="csg562-010-17" fill="none" stroke="black" stroke-width="1" d="M 910.24 2631.00 L 893.64 2744.18 L 896.00 2743.00 L 1016.00 2743.00 L 1036.00 2744.00 L 1156.00 2744.00 L 1176.00 2745.00 L 1296.00 2745.00 L 1316.00 2746.00 L 1456.00 2746.00 L 1476.00 2747.00 L 1596.00 2747.00 L 1616.00 2748.00 L 1736.00 2748.00 L 1756.00 2749.00 L 1876.00 2749.00 L 1896.00 2750.00 L 2036.00 2750.00 L 2056.00 2751.00 L 2176.00 2751.00 L 2196.00 2752.00 L 2316.00 2752.00 L 2336.00 2753.00 L 2476.00 2753.00 L 2496.00 2754.00 L 2616.00 2754.00 L 2636.00 2755.00 L 2756.00 2755.00 L 2776.00 2756.00 L 2896.00 2756.00 L 2916.00 2757.00 L 3012.60 2757.00 L 2946.00 2658.00 L 2960.40 2634.00 L 2496.00 2634.00 L 2476.00 2633.00 L 1956.00 2633.00 L 1936.00 2632.00 L 1416.00 2632.00 L 1396.00 2631.00 L 1276.00 2631.00 L 1256.00 2651.00 L 1236.00 2631.00 Z" />
<path id="csg562-010-18" fill="none" stroke="black" stroke-width="1" d="M 896.00 2743.00 L 893.64 2744.18 L 879.00 2844.00 L 885.61 2855.19 L 896.00 2850.00 L 916.00 2850.00 L 936.00 2870.00 L 956.00 2870.00 L 976.00 2850.00 L 1076.00 2850.00 L 1096.00 2851.00 L 1276.00 2851.00 L 1296.00 2852.00 L 1496.00 2852.00 L 1516.00 2853.00 L 1696.00 2853.00 L 1716.00 2854.00 L 1896.00 2854.00 L 1916.00 2855.00 L 2096.00 2855.00 L 2116.00 2875.00 L 2136.00 2876.00 L 2176.00 2876.00 L 2196.00 2856.00 L 2216.00 2876.00 L 2236.00 2856.00 L 2316.00 2856.00 L 2336.00 2857.00 L 2536.00 2857.00 L 2556.00 2858.00 L 2736.00 2858.00 L 2756.00 2859.00 L 2936.00 2859.00 L 2956.00 2860.00 L 3024.83 2860.00 L 3057.00 2823.00 L 3012.60 2757.00 L 2916.00 2757.00 L 2896.00 2756.00 L 2776.00 2756.00 L 2756.00 2755.00 L 2636.00 2755.00 L 2616.00 2754.00 L 2496.00 2754.00 L 2476.00 2753.00 L 2336.00 2753.00 L 2316.00 2752.00 L 2196.00 2752.00 L 2176.00 2751.00 L 2056.00 2751.00 L 2036.00 2750.00 L 1896.00 2750.00 L 1876.00 2749.00 L 1756.00 2749.00 L 1736.00 2748.00 L 1616.00 2748.00 L 1596.00 2747.00 L 1476.00 2747.00 L 1456.00 2746.00 L 1316.00 2746.00 L 1296.00 2745.00 L 1176.00 2745.00 L 1156.00 2744.00 L 1036.00 2744.00 L 1016.00 2743.00 Z" />
<path id="csg562-010-19" fill="none" stroke="black" stroke-width="1" d="M 896.00 2850.00 L 885.61 2855.19 L 918.00 2910.00 L 917.15 2953.00 L 996.00 2953.00 L 1016.00 2954.00 L 1136.00 2954.00 L 1156.00 2955.00 L 1276.00 2955.00 L 1296.00 2956.00 L 1396.00 2956.00 L 1416.00 2957.00 L 1536.00 2957.00 L 1556.00 2958.00 L 1676.00 2958.00 L 1696.00 2959.00 L 1776.00 2959.00 L 1796.00 2979.00 L 1816.00 2979.00 L 1836.00 2960.00 L 1916.00 2960.00 L 1936.00 2980.00 L 1956.00 2961.00 L 2076.00 2961.00 L 2096.00 2962.00 L 2216.00 2962.00 L 2236.00 2963.00 L 2336.00 2963.00 L 2356.00 2964.00 L 2416.00 2964.00 L 2436.00 2984.00 L 2456.00 2964.00 L 2476.00 2964.00 L 2496.00 2965.00 L 2616.00 2965.00 L 2636.00 2966.00 L 2756.00 2966.00 L 2776.00 2967.00 L 2876.00 2967.00 L 2896.00 2968.00 L 2977.70 2968.00 L 2997.00 2892.00 L 3024.83 2860.00 L 2956.00 2860.00 L 2936.00 2859.00 L 2756.00 2859.00 L 2736.00 2858.00 L 2556.00 2858.00 L 2536.00 2857.00 L 2336.00 2857.00 L 2316.00 2856.00 L 2236.00 2856.00 L 2216.00 2876.00 L 2196.00 2856.00 L 2176.00 2876.00 L 2136.00 2876.00 L 2116.00 2875.00 L 2096.00 2855.00 L 1916.00 2855.00 L 1896.00 2854.00 L 1716.00 2854.00 L 1696.00 2853.00 L 1516.00 2853.00 L 1496.00 2852.00 L 1296.00 2852.00 L 1276.00 2851.00 L 1096.00 2851.00 L 1076.00 2850.00 L 976.00 2850.00 L 956.00 2870.00 L 936.00 2870.00 L 916.00 2850.00 Z" />
<path id="csg562-010-20" fill="none" stroke="black" stroke-width="1" d="M 917.15 2953.00 L 914.95 3065.00 L 976.00 3065.00 L 996.00 3066.00 L 1076.00 3066.00 L 1096.00 3067.00 L 1176.00 3067.00 L 1196.00 3068.00 L 1276.00 3068.00 L 1296.00 3069.00 L 1376.00 3069.00 L 1396.00 3070.00 L 1476.00 3070.00 L 1496.00 3071.00 L 1596.00 3071.00 L 1616.00 3072.00 L 1696.00 3072.00 L 1716.00 3073.00 L 1796.00 3073.00 L 1816.00 3074.00 L 1896.00 3074.00 L 1916.00 3075.00 L 1996.00 3075.00 L 2016.00 3076.00 L 2096.00 3076.00 L 2116.00 3077.00 L 2196.00 3077.00 L 2216.00 3078.00 L 2316.00 3078.00 L 2336.00 3079.00 L 2416.00 3079.00 L 2436.00 3080.00 L 2516.00 3080.00 L 2536.00 3081.00 L 2616.00 3081.00 L 2636.00 3082.00 L 2716.00 3082.00 L 2736.00 3083.00 L 2816.00 3083.00 L 2836.00 3084.00 L 2936.00 3084.00 L 2950.28 3084.71 L 2949.00 3081.00 L 2977.70 2968.00 L 2896.00 2968.00 L 2876.00 2967.00 L 2776.00 2967.00 L 2756.00 2966.00 L 2636.00 2966.00 L 2616.00 2965.00 L 2496.00 2965.00 L 2476.00 2964.00 L 2456.00 2964.00 L 2436.00 2984.00 L 2416.00 2964.00 L 2356.00 2964.00 L 2336.00 2963.00 L 2236.00 2963.00 L 2216.00 2962.00 L 2096.00 2962.00 L 2076.00 2961.00 L 1956.00 2961.00 L 1936.00 2980.00 L 1916.00 2960.00 L 1836.00 2960.00 L 1816.00 2979.00 L 1796.00 2979.00 L 1776.00 2959.00 L 1696.00 2959.00 L 1676.00 2958.00 L 1556.00 2958.00 L 1536.00 2957.00 L 1416.00 2957.00 L 1396.00 2956.00 L 1296.00 2956.00 L 1276.00 2955.00 L 1156.00 2955.00 L 1136.00 2954.00 L 1016.00 2954.00 L 996.00 2953.00 Z" />
<path id="csg562-010-21" fill="none" stroke="black" stroke-width="1" d="M 914.95 3065.00 L 912.60 3184.00 L 1036.00 3184.00 L 1056.00 3185.00 L 1216.00 3185.00 L 1236.00 3186.00 L 1396.00 3186.00 L 1416.00 3187.00 L 1556.00 3187.00 L 1576.00 3188.00 L 1736.00 3188.00 L 1756.00 3189.00 L 1916.00 3189.00 L 1936.00 3190.00 L 2076.00 3190.00 L 2096.00 3191.00 L 2256.00 3191.00 L 2276.00 3192.00 L 2436.00 3192.00 L 2456.00 3193.00 L 2596.00 3193.00 L 2616.00 3194.00 L 2776.00 3194.00 L 2796.00 3195.00 L 2956.00 3195.00 L 2976.00 3196.00 L 2988.73 3196.00 L 2950.28 3084.71 L 2936.00 3084.00 L 2836.00 3084.00 L 2816.00 3083.00 L 2736.00 3083.00 L 2716.00 3082.00 L 2636.00 3082.00 L 2616.00 3081.00 L 2536.00 3081.00 L 2516.00 3080.00 L 2436.00 3080.00 L 2416.00 3079.00 L 2336.00 3079.00 L 2316.00 3078.00 L 2216.00 3078.00 L 2196.00 3077.00 L 2116.00 3077.00 L 2096.00 3076.00 L 2016.00 3076.00 L 1996.00 3075.00 L 1916.00 3075.00 L 1896.00 3074.00 L 1816.00 3074.00 L 1796.00 3073.00 L 1716.00 3073.00 L 1696.00 3072.00 L 1616.00 3072.00 L 1596.00 3071.00 L 1496.00 3071.00 L 1476.00 3070.00 L 1396.00 3070.00 L 1376.00 3069.00 L 1296.00 3069.00 L 1276.00 3068.00 L 1196.00 3068.00 L 1176.00 3067.00 L 1096.00 3067.00 L 1076.00 3066.00 L 996.00 3066.00 L 976.00 3065.00 Z" />
<path id="csg562-010-22" fill="none" stroke="black" stroke-width="1" d="M 912.60 3184.00 L 910.41 3295.00 L 936.00 3295.00 L 956.00 3315.00 L 976.00 3295.00 L 1096.00 3295.00 L 1116.00 3296.00 L 1336.00 3296.00 L 1356.00 3297.00 L 1576.00 3297.00 L 1596.00 3298.00 L 1816.00 3298.00 L 1836.00 3299.00 L 2056.00 3299.00 L 2076.00 3300.00 L 2296.00 3300.00 L 2316.00 3301.00 L 2536.00 3301.00 L 2556.00 3302.00 L 2776.00 3302.00 L 2796.00 3303.00 L 2981.22 3303.00 L 3006.00 3246.00 L 2988.73 3196.00 L 2976.00 3196.00 L 2956.00 3195.00 L 2796.00 3195.00 L 2776.00 3194.00 L 2616.00 3194.00 L 2596.00 3193.00 L 2456.00 3193.00 L 2436.00 3192.00 L 2276.00 3192.00 L 2256.00 3191.00 L 2096.00 3191.00 L 2076.00 3190.00 L 1936.00 3190.00 L 1916.00 3189.00 L 1756.00 3189.00 L 1736.00 3188.00 L 1576.00 3188.00 L 1556.00 3187.00 L 1416.00 3187.00 L 1396.00 3186.00 L 1236.00 3186.00 L 1216.00 3185.00 L 1056.00 3185.00 L 1036.00 3184.00 Z" />
<path id="csg562-010-23" fill="none" stroke="black" stroke-width="1" d="M 910.41 3295.00 L 908.29 3403.00 L 1036.00 3403.00 L 1056.00 3404.00 L 1196.00 3404.00 L 1216.00 3405.00 L 1376.00 3405.00 L 1396.00 3406.00 L 1536.00 3406.00 L 1556.00 3407.00 L 1696.00 3407.00 L 1716.00 3408.00 L 1876.00 3408.00 L 1896.00 3409.00 L 2036.00 3409.00 L 2056.00 3410.00 L 2196.00 3410.00 L 2216.00 3411.00 L 2376.00 3411.00 L 2396.00 3412.00 L 2536.00 3412.00 L 2556.00 3413.00 L 2696.00 3413.00 L 2716.00 3414.00 L 2876.00 3414.00 L 2896.00 3415.00 L 3036.00 3415.00 L 3038.06 3415.10 L 2976.00 3315.00 L 2981.22 3303.00 L 2796.00 3303.00 L 2776.00 3302.00 L 2556.00 3302.00 L 2536.00 3301.00 L 2316.00 3301.00 L 2296.00 3300.00 L 2076.00 3300.00 L 2056.00 3299.00 L 1836.00 3299.00 L 1816.00 3298.00 L 1596.00 3298.00 L 1576.00 3297.00 L 1356.00 3297.00 L 1336.00 3296.00 L 1116.00 3296.00 L 1096.00 3295.00 L 976.00 3295.00 L 956.00 3315.00 L 936.00 3295.00 Z" />
<path id="csg562-010-24" fill="none" stroke="black" stroke-width="1" d="M 908.29 3403.00 L 906.00 3519.00 L 936.00 3524.00 L 1056.00 3524.00 L 1066.68 3524.53 L 1266.00 3510.00 L 1443.27 3526.36 L 1456.00 3527.00 L 1506.00 3527.00 L 1731.00 3522.00 L 2313.00 3528.00 L 2505.80 3532.00 L 2596.00 3532.00 L 2616.00 3533.00 L 2796.00 3533.00 L 2816.00 3534.00 L 2976.00 3534.00 L 2996.00 3535.00 L 3039.38 3535.00 L 3069.00 3465.00 L 3038.06 3415.10 L 3036.00 3415.00 L 2896.00 3415.00 L 2876.00 3414.00 L 2716.00 3414.00 L 2696.00 3413.00 L 2556.00 3413.00 L 2536.00 3412.00 L 2396.00 3412.00 L 2376.00 3411.00 L 2216.00 3411.00 L 2196.00 3410.00 L 2056.00 3410.00 L 2036.00 3409.00 L 1896.00 3409.00 L 1876.00 3408.00 L 1716.00 3408.00 L 1696.00 3407.00 L 1556.00 3407.00 L 1536.00 3406.00 L 1396.00 3406.00 L 1376.00 3405.00 L 1216.00 3405.00 L 1196.00 3404.00 L 1056.00 3404.00 L 1036.00 3403.00 Z" />
</svg>
