<?xml version="1.0" standalone="no"?>
<!DOCTYPE svg PUBLIC "-//W3C//DTD SVG 1.1//EN" "http://www.w3.org/Graphics/SVG/1.1/DTD/svg11.dtd">
<svg width="46.22222in" height="69.333336in" viewBox="0 0 3328 4992" xmlns="http://www.w3.org/2000/svg" version="1.1">
<path id="csg562-018-01" fill="none" stroke="black" stroke-width="1" d="M 2625.00 843.00 L 1965.00 879.00 L 1893.00 855.00 L 1446.00 894.00 L 1326.00 870.00 L 1023.00 870.00 L 867.00 906.00 L 867.54 976.27 L 873.00 976.00 L 913.00 976.00 L 933.00 975.00 L 953.00 975.00 L 973.00 974.00 L 1013.00 974.00 L 1033.00 973.00 L 1073.00 973.00 L 1093.00 972.00 L 1113.00 972.00 L 1133.00 971.00 L 1173.00 971.00 L 1193.00 970.00 L 1233.00 970.00 L 1253.00 969.00 L 1273.00 969.00 L 1293.00 968.00 L 1333.00 968.00 L 1353.00 967.00 L 1393.00 967.00 L 1413.00 966.00 L 1433.00 986.00 L 1453.00 985.00 L 1473.00 965.00 L 1493.00 965.00 L 1513.00 964.00 L 1553.00 964.00 L 1573.00 963.00 L 1593.00 963.00 L 1613.00 962.00 L 1653.00 962.00 L 1673.00 961.00 L 1713.00 961.00 L 1733.00 960.00 L 1753.00 960.00 L 1773.00 959.00 L 1813.00 959.00 L 1833.00 958.00 L 1873.00 958.00 L 1893.00 957.00 L 1913.00 957.00 L 1933.00 976.00 L 1973.00 976.00 L 1993.00 975.00 L 2013.00 955.00 L 2033.00 954.00 L 2073.00 954.00 L 2093.00 953.00 L 2133.00 953.00 L 2153.00 952.00 L 2173.00 952.00 L 2193.00 951.00 L 2233.00 951.00 L 2253.00 950.00 L 2293.00 950.00 L 2313.00 949.00 L 2333.00 949.00 L 2353.00 948.00 L 2393.00 948.00 L 2413.00 947.00 L 2453.00 947.00 L 2473.00 946.00 L 2493.00 946.00 L 2513.00 945.00 L 2553.00 945.00 L 2573.00 944.00 L 2613.00 944.00 L 2633.00 943.00 L 2653.00 943.00 L 2673.00 942.00 L 2713.00 942.00 L 2733.00 941.00 L 2773.00 941.00 L 2793.00 940.00 L 2813.00 940.00 L 2833.00 939.00 L 2873.00 939.00 L 2893.00 938.00 L 2933.00 938.00 L 2953.00 937.00 L 2972.00 937.00 L 2877.00 861.00 L 2625.00 843.00 Z" />
<path id="csg562-018-02" fill="none" stroke="black" stroke-width="1" d="M 2953.00 937.00 L 2933.00 938.00 L 2893.00 938.00 L 2873.00 939.00 L 2833.00 939.00 L 2813.00 940.00 L 2793.00 940.00 L 2773.00 941.00 L 2733.00 941.00 L 2713.00 942.00 L 2673.00 942.00 L 2653.00 943.00 L 2633.00 943.00 L 2613.00 944.00 L 2573.00 944.00 L 2553.00 945.00 L 2513.00 945.00 L 2493.00 946.00 L 2473.00 946.00 L 2453.00 947.00 L 2413.00 947.00 L 2393.00 948.00 L 2353.00 948.00 L 2333.00 949.00 L 2313.00 949.00 L 2293.00 950.00 L 2253.00 950.00 L 2233.00 951.00 L 2193.00 951.00 L 2173.00 952.00 L 2153.00 952.00 L 2133.00 953.00 L 2093.00 953.00 L 2073.00 954.00 L 2033.00 954.00 L 2013.00 955.00 L 1993.00 975.00 L 1973.00 976.00 L 1933.00 976.00 L 1913.00 957.00 L 1893.00 957.00 L 1873.00 958.00 L 1833.00 958.00 L 1813.00 959.00 L 1773.00 959.00 L 1753.00 960.00 L 1733.00 960.00 L 1713.00 961.00 L 1673.00 961.00 L 1653.00 962.00 L 1613.00 962.00 L 1593.00 963.00 L 1573.00 963.00 L 1553.00 964.00 L 1513.00 964.00 L 1493.00 965.00 L 1473.00 965.00 L 1453.00 985.00 L 1433.00 986.00 L 1413.00 966.00 L 1393.00 967.00 L 1353.00 967.00 L 1333.00 968.00 L 1293.00 968.00 L 1273.00 969.00 L 1253.00 969.00 L 1233.00 970.00 L 1193.00 970.00 L 1173.00 971.00 L 1133.00 971.00 L 1113.00 972.00 L 1093.00 972.00 L 1073.00 973.00 L 1033.00 973.00 L 1013.00 974.00 L 973.00 974.00 L 953.00 975.00 L 933.00 975.00 L 913.00 976.00 L 873.00 976.00 L 867.54 976.27 L 868.35 1083.23 L 873.00 1083.00 L 913.00 1083.00 L 933.00 1082.00 L 953.00 1082.00 L 973.00 1081.00 L 1013.00 1081.00 L 1033.00 1080.00 L 1053.00 1080.00 L 1073.00 1079.00 L 1113.00 1079.00 L 1133.00 1078.00 L 1153.00 1078.00 L 1173.00 1077.00 L 1213.00 1077.00 L 1233.00 1076.00 L 1273.00 1076.00 L 1293.00 1075.00 L 1313.00 1075.00 L 1333.00 1074.00 L 1373.00 1074.00 L 1393.00 1073.00 L 1413.00 1073.00 L 1433.00 1072.00 L 1473.00 1072.00 L 1493.00 1071.00 L 1513.00 1071.00 L 1533.00 1070.00 L 1573.00 1070.00 L 1593.00 1069.00 L 1633.00 1069.00 L 1653.00 1068.00 L 1673.00 1068.00 L 1693.00 1067.00 L 1733.00 1067.00 L 1753.00 1066.00 L 1773.00 1066.00 L 1793.00 1065.00 L 1833.00 1065.00 L 1853.00 1064.00 L 1873.00 1064.00 L 1893.00 1063.00 L 1933.00 1063.00 L 1953.00 1062.00 L 1993.00 1062.00 L 2013.00 1061.00 L 2033.00 1061.00 L 2053.00 1060.00 L 2093.00 1060.00 L 2113.00 1079.00 L 2133.00 1079.00 L 2153.00 1078.00 L 2173.00 1058.00 L 2193.00 1058.00 L 2213.00 1057.00 L 2233.00 1057.00 L 2253.00 1056.00 L 2293.00 1056.00 L 2313.00 1055.00 L 2353.00 1055.00 L 2373.00 1054.00 L 2393.00 1054.00 L 2413.00 1053.00 L 2453.00 1053.00 L 2473.00 1052.00 L 2493.00 1052.00 L 2513.00 1071.00 L 2533.00 1051.00 L 2553.00 1051.00 L 2573.00 1050.00 L 2593.00 1050.00 L 2613.00 1049.00 L 2653.00 1049.00 L 2673.00 1048.00 L 2713.00 1048.00 L 2733.00 1047.00 L 2753.00 1047.00 L 2773.00 1046.00 L 2813.00 1046.00 L 2833.00 1045.00 L 2853.00 1045.00 L 2873.00 1044.00 L 2913.00 1044.00 L 2933.00 1043.00 L 2953.00 1043.00 L 2954.32 1042.93 L 2982.00 945.00 L 2972.00 937.00 Z" />
<path id="csg562-018-03" fill="none" stroke="black" stroke-width="1" d="M 2954.32 1042.93 L 2953.00 1043.00 L 2933.00 1043.00 L 2913.00 1044.00 L 2873.00 1044.00 L 2853.00 1045.00 L 2833.00 1045.00 L 2813.00 1046.00 L 2773.00 1046.00 L 2753.00 1047.00 L 2733.00 1047.00 L 2713.00 1048.00 L 2673.00 1048.00 L 2653.00 1049.00 L 2613.00 1049.00 L 2593.00 1050.00 L 2573.00 1050.00 L 2553.00 1051.00 L 2533.00 1051.00 L 2513.00 1071.00 L 2493.00 1052.00 L 2473.00 1052.00 L 2453.00 1053.00 L 2413.00 1053.00 L 2393.00 1054.00 L 2373.00 1054.00 L 2353.00 1055.00 L 2313.00 1055.00 L 2293.00 1056.00 L 2253.00 1056.00 L 2233.00 1057.00 L 2213.00 1057.00 L 2193.00 1058.00 L 2173.00 1058.00 L 2153.00 1078.00 L 2133.00 1079.00 L 2113.00 1079.00 L 2093.00 1060.00 L 2053.00 1060.00 L 2033.00 1061.00 L 2013.00 1061.00 L 1993.00 1062.00 L 1953.00 1062.00 L 1933.00 1063.00 L 1893.00 1063.00 L 1873.00 1064.00 L 1853.00 1064.00 L 1833.00 1065.00 L 1793.00 1065.00 L 1773.00 1066.00 L 1753.00 1066.00 L 1733.00 1067.00 L 1693.00 1067.00 L 1673.00 1068.00 L 1653.00 1068.00 L 1633.00 1069.00 L 1593.00 1069.00 L 1573.00 1070.00 L 1533.00 1070.00 L 1513.00 1071.00 L 1493.00 1071.00 L 1473.00 1072.00 L 1433.00 1072.00 L 1413.00 1073.00 L 1393.00 1073.00 L 1373.00 1074.00 L 1333.00 1074.00 L 1313.00 1075.00 L 1293.00 1075.00 L 1273.00 1076.00 L 1233.00 1076.00 L 1213.00 1077.00 L 1173.00 1077.00 L 1153.00 1078.00 L 1133.00 1078.00 L 1113.00 1079.00 L 1073.00 1079.00 L 1053.00 1080.00 L 1033.00 1080.00 L 1013.00 1081.00 L 973.00 1081.00 L 953.00 1082.00 L 933.00 1082.00 L 913.00 1083.00 L 873.00 1083.00 L 868.35 1083.23 L 869.13 1185.00 L 873.00 1185.00 L 893.00 1205.00 L 913.00 1204.00 L 933.00 1204.00 L 953.00 1184.00 L 993.00 1184.00 L 1013.00 1183.00 L 1073.00 1183.00 L 1093.00 1182.00 L 1173.00 1182.00 L 1193.00 1181.00 L 1273.00 1181.00 L 1293.00 1180.00 L 1353.00 1180.00 L 1373.00 1179.00 L 1453.00 1179.00 L 1473.00 1178.00 L 1553.00 1178.00 L 1573.00 1177.00 L 1633.00 1177.00 L 1653.00 1176.00 L 1733.00 1176.00 L 1753.00 1175.00 L 1833.00 1175.00 L 1853.00 1174.00 L 1913.00 1174.00 L 1933.00 1173.00 L 1953.00 1193.00 L 1993.00 1193.00 L 2013.00 1173.00 L 2033.00 1172.00 L 2113.00 1172.00 L 2133.00 1171.00 L 2193.00 1171.00 L 2213.00 1170.00 L 2293.00 1170.00 L 2313.00 1169.00 L 2373.00 1169.00 L 2393.00 1168.00 L 2473.00 1168.00 L 2493.00 1167.00 L 2513.00 1187.00 L 2533.00 1187.00 L 2553.00 1167.00 L 2573.00 1167.00 L 2593.00 1166.00 L 2653.00 1166.00 L 2673.00 1165.00 L 2753.00 1165.00 L 2773.00 1164.00 L 2853.00 1164.00 L 2873.00 1163.00 L 2933.00 1163.00 L 2953.00 1162.00 L 2955.41 1162.00 L 2943.00 1083.00 L 2954.32 1042.93 Z" />
<path id="csg562-018-04" fill="none" stroke="black" stroke-width="1" d="M 2953.00 1162.00 L 2933.00 1163.00 L 2873.00 1163.00 L 2853.00 1164.00 L 2773.00 1164.00 L 2753.00 1165.00 L 2673.00 1165.00 L 2653.00 1166.00 L 2593.00 1166.00 L 2573.00 1167.00 L 2553.00 1167.00 L 2533.00 1187.00 L 2513.00 1187.00 L 2493.00 1167.00 L 2473.00 1168.00 L 2393.00 1168.00 L 2373.00 1169.00 L 2313.00 1169.00 L 2293.00 1170.00 L 2213.00 1170.00 L 2193.00 1171.00 L 2133.00 1171.00 L 2113.00 1172.00 L 2033.00 1172.00 L 2013.00 1173.00 L 1993.00 1193.00 L 1953.00 1193.00 L 1933.00 1173.00 L 1913.00 1174.00 L 1853.00 1174.00 L 1833.00 1175.00 L 1753.00 1175.00 L 1733.00 1176.00 L 1653.00 1176.00 L 1633.00 1177.00 L 1573.00 1177.00 L 1553.00 1178.00 L 1473.00 1178.00 L 1453.00 1179.00 L 1373.00 1179.00 L 1353.00 1180.00 L 1293.00 1180.00 L 1273.00 1181.00 L 1193.00 1181.00 L 1173.00 1182.00 L 1093.00 1182.00 L 1073.00 1183.00 L 1013.00 1183.00 L 993.00 1184.00 L 953.00 1184.00 L 933.00 1204.00 L 913.00 1204.00 L 893.00 1205.00 L 873.00 1185.00 L 869.13 1185.00 L 870.00 1299.00 L 862.76 1307.00 L 873.00 1307.00 L 893.00 1306.00 L 953.00 1306.00 L 973.00 1305.00 L 1033.00 1305.00 L 1053.00 1304.00 L 1113.00 1304.00 L 1133.00 1303.00 L 1173.00 1303.00 L 1193.00 1323.00 L 1213.00 1302.00 L 1273.00 1302.00 L 1293.00 1301.00 L 1353.00 1301.00 L 1373.00 1300.00 L 1433.00 1300.00 L 1453.00 1299.00 L 1513.00 1299.00 L 1533.00 1298.00 L 1593.00 1298.00 L 1613.00 1297.00 L 1673.00 1297.00 L 1693.00 1296.00 L 1753.00 1296.00 L 1773.00 1295.00 L 1833.00 1295.00 L 1853.00 1294.00 L 1913.00 1294.00 L 1933.00 1293.00 L 1993.00 1293.00 L 2013.00 1292.00 L 2073.00 1292.00 L 2093.00 1291.00 L 2153.00 1291.00 L 2173.00 1290.00 L 2233.00 1290.00 L 2253.00 1289.00 L 2313.00 1289.00 L 2333.00 1288.00 L 2353.00 1288.00 L 2373.00 1308.00 L 2393.00 1288.00 L 2413.00 1287.00 L 2473.00 1287.00 L 2493.00 1286.00 L 2553.00 1286.00 L 2573.00 1285.00 L 2633.00 1285.00 L 2653.00 1284.00 L 2713.00 1284.00 L 2733.00 1283.00 L 2793.00 1283.00 L 2813.00 1282.00 L 2873.00 1282.00 L 2893.00 1281.00 L 2953.00 1281.00 L 2973.00 1280.00 L 2973.96 1280.00 L 2955.41 1162.00 Z" />
<path id="csg562-018-05" fill="none" stroke="black" stroke-width="1" d="M 2973.00 1280.00 L 2953.00 1281.00 L 2893.00 1281.00 L 2873.00 1282.00 L 2813.00 1282.00 L 2793.00 1283.00 L 2733.00 1283.00 L 2713.00 1284.00 L 2653.00 1284.00 L 2633.00 1285.00 L 2573.00 1285.00 L 2553.00 1286.00 L 2493.00 1286.00 L 2473.00 1287.00 L 2413.00 1287.00 L 2393.00 1288.00 L 2373.00 1308.00 L 2353.00 1288.00 L 2333.00 1288.00 L 2313.00 1289.00 L 2253.00 1289.00 L 2233.00 1290.00 L 2173.00 1290.00 L 2153.00 1291.00 L 2093.00 1291.00 L 2073.00 1292.00 L 2013.00 1292.00 L 1993.00 1293.00 L 1933.00 1293.00 L 1913.00 1294.00 L 1853.00 1294.00 L 1833.00 1295.00 L 1773.00 1295.00 L 1753.00 1296.00 L 1693.00 1296.00 L 1673.00 1297.00 L 1613.00 1297.00 L 1593.00 1298.00 L 1533.00 1298.00 L 1513.00 1299.00 L 1453.00 1299.00 L 1433.00 1300.00 L 1373.00 1300.00 L 1353.00 1301.00 L 1293.00 1301.00 L 1273.00 1302.00 L 1213.00 1302.00 L 1193.00 1323.00 L 1173.00 1303.00 L 1133.00 1303.00 L 1113.00 1304.00 L 1053.00 1304.00 L 1033.00 1305.00 L 973.00 1305.00 L 953.00 1306.00 L 893.00 1306.00 L 873.00 1307.00 L 862.76 1307.00 L 813.00 1362.00 L 861.00 1398.00 L 861.93 1426.00 L 873.00 1426.00 L 893.00 1425.00 L 933.00 1425.00 L 953.00 1424.00 L 1013.00 1424.00 L 1033.00 1423.00 L 1073.00 1423.00 L 1093.00 1422.00 L 1153.00 1422.00 L 1173.00 1421.00 L 1213.00 1421.00 L 1233.00 1420.00 L 1253.00 1440.00 L 1273.00 1440.00 L 1293.00 1420.00 L 1313.00 1419.00 L 1353.00 1419.00 L 1373.00 1418.00 L 1393.00 1418.00 L 1413.00 1438.00 L 1433.00 1418.00 L 1453.00 1417.00 L 1493.00 1417.00 L 1513.00 1436.00 L 1533.00 1436.00 L 1553.00 1416.00 L 1573.00 1416.00 L 1593.00 1415.00 L 1633.00 1415.00 L 1653.00 1414.00 L 1713.00 1414.00 L 1733.00 1413.00 L 1773.00 1413.00 L 1793.00 1412.00 L 1853.00 1412.00 L 1873.00 1411.00 L 1913.00 1411.00 L 1933.00 1410.00 L 1993.00 1410.00 L 2013.00 1409.00 L 2053.00 1409.00 L 2073.00 1408.00 L 2133.00 1408.00 L 2153.00 1427.00 L 2173.00 1427.00 L 2193.00 1407.00 L 2213.00 1406.00 L 2273.00 1406.00 L 2293.00 1405.00 L 2333.00 1405.00 L 2353.00 1404.00 L 2413.00 1404.00 L 2433.00 1403.00 L 2473.00 1403.00 L 2493.00 1402.00 L 2553.00 1402.00 L 2573.00 1401.00 L 2613.00 1401.00 L 2633.00 1400.00 L 2693.00 1400.00 L 2713.00 1399.00 L 2753.00 1399.00 L 2773.00 1398.00 L 2833.00 1398.00 L 2853.00 1397.00 L 2893.00 1397.00 L 2913.00 1396.00 L 2973.00 1396.00 L 2993.00 1395.00 L 2994.93 1395.00 L 2976.00 1293.00 L 2973.96 1280.00 Z" />
<path id="csg562-018-06" fill="none" stroke="black" stroke-width="1" d="M 2993.00 1395.00 L 2973.00 1396.00 L 2913.00 1396.00 L 2893.00 1397.00 L 2853.00 1397.00 L 2833.00 1398.00 L 2773.00 1398.00 L 2753.00 1399.00 L 2713.00 1399.00 L 2693.00 1400.00 L 2633.00 1400.00 L 2613.00 1401.00 L 2573.00 1401.00 L 2553.00 1402.00 L 2493.00 1402.00 L 2473.00 1403.00 L 2433.00 1403.00 L 2413.00 1404.00 L 2353.00 1404.00 L 2333.00 1405.00 L 2293.00 1405.00 L 2273.00 1406.00 L 2213.00 1406.00 L 2193.00 1407.00 L 2173.00 1427.00 L 2153.00 1427.00 L 2133.00 1408.00 L 2073.00 1408.00 L 2053.00 1409.00 L 2013.00 1409.00 L 1993.00 1410.00 L 1933.00 1410.00 L 1913.00 1411.00 L 1873.00 1411.00 L 1853.00 1412.00 L 1793.00 1412.00 L 1773.00 1413.00 L 1733.00 1413.00 L 1713.00 1414.00 L 1653.00 1414.00 L 1633.00 1415.00 L 1593.00 1415.00 L 1573.00 1416.00 L 1553.00 1416.00 L 1533.00 1436.00 L 1513.00 1436.00 L 1493.00 1417.00 L 1453.00 1417.00 L 1433.00 1418.00 L 1413.00 1438.00 L 1393.00 1418.00 L 1373.00 1418.00 L 1353.00 1419.00 L 1313.00 1419.00 L 1293.00 1420.00 L 1273.00 1440.00 L 1253.00 1440.00 L 1233.00 1420.00 L 1213.00 1421.00 L 1173.00 1421.00 L 1153.00 1422.00 L 1093.00 1422.00 L 1073.00 1423.00 L 1033.00 1423.00 L 1013.00 1424.00 L 953.00 1424.00 L 933.00 1425.00 L 893.00 1425.00 L 873.00 1426.00 L 861.93 1426.00 L 865.57 1535.00 L 873.00 1535.00 L 893.00 1534.00 L 933.00 1534.00 L 953.00 1533.00 L 993.00 1533.00 L 1013.00 1532.00 L 1053.00 1532.00 L 1073.00 1531.00 L 1113.00 1531.00 L 1133.00 1530.00 L 1173.00 1530.00 L 1193.00 1529.00 L 1253.00 1529.00 L 1273.00 1528.00 L 1313.00 1528.00 L 1333.00 1527.00 L 1373.00 1527.00 L 1393.00 1526.00 L 1433.00 1526.00 L 1453.00 1525.00 L 1493.00 1525.00 L 1513.00 1524.00 L 1533.00 1524.00 L 1553.00 1544.00 L 1573.00 1543.00 L 1613.00 1543.00 L 1633.00 1522.00 L 1693.00 1522.00 L 1713.00 1521.00 L 1753.00 1521.00 L 1773.00 1520.00 L 1813.00 1520.00 L 1833.00 1519.00 L 1873.00 1519.00 L 1893.00 1518.00 L 1933.00 1518.00 L 1953.00 1517.00 L 1993.00 1517.00 L 2013.00 1516.00 L 2053.00 1516.00 L 2073.00 1515.00 L 2113.00 1515.00 L 2133.00 1535.00 L 2153.00 1514.00 L 2193.00 1514.00 L 2213.00 1513.00 L 2253.00 1513.00 L 2273.00 1512.00 L 2313.00 1512.00 L 2333.00 1511.00 L 2373.00 1511.00 L 2393.00 1510.00 L 2433.00 1510.00 L 2453.00 1509.00 L 2493.00 1509.00 L 2513.00 1508.00 L 2573.00 1508.00 L 2593.00 1507.00 L 2633.00 1507.00 L 2653.00 1506.00 L 2693.00 1506.00 L 2713.00 1505.00 L 2753.00 1505.00 L 2773.00 1504.00 L 2813.00 1504.00 L 2833.00 1503.00 L 2853.00 1523.00 L 2873.00 1523.00 L 2893.00 1502.00 L 2933.00 1502.00 L 2953.00 1501.00 L 3013.00 1501.00 L 3014.58 1500.92 L 2994.93 1395.00 Z" />
<path id="csg562-018-07" fill="none" stroke="black" stroke-width="1" d="M 3014.58 1500.92 L 3013.00 1501.00 L 2953.00 1501.00 L 2933.00 1502.00 L 2893.00 1502.00 L 2873.00 1523.00 L 2853.00 1523.00 L 2833.00 1503.00 L 2813.00 1504.00 L 2773.00 1504.00 L 2753.00 1505.00 L 2713.00 1505.00 L 2693.00 1506.00 L 2653.00 1506.00 L 2633.00 1507.00 L 2593.00 1507.00 L 2573.00 1508.00 L 2513.00 1508.00 L 2493.00 1509.00 L 2453.00 1509.00 L 2433.00 1510.00 L 2393.00 1510.00 L 2373.00 1511.00 L 2333.00 1511.00 L 2313.00 1512.00 L 2273.00 1512.00 L 2253.00 1513.00 L 2213.00 1513.00 L 2193.00 1514.00 L 2153.00 1514.00 L 2133.00 1535.00 L 2113.00 1515.00 L 2073.00 1515.00 L 2053.00 1516.00 L 2013.00 1516.00 L 1993.00 1517.00 L 1953.00 1517.00 L 1933.00 1518.00 L 1893.00 1518.00 L 1873.00 1519.00 L 1833.00 1519.00 L 1813.00 1520.00 L 1773.00 1520.00 L 1753.00 1521.00 L 1713.00 1521.00 L 1693.00 1522.00 L 1633.00 1522.00 L 1613.00 1543.00 L 1573.00 1543.00 L 1553.00 1544.00 L 1533.00 1524.00 L 1513.00 1524.00 L 1493.00 1525.00 L 1453.00 1525.00 L 1433.00 1526.00 L 1393.00 1526.00 L 1373.00 1527.00 L 1333.00 1527.00 L 1313.00 1528.00 L 1273.00 1528.00 L 1253.00 1529.00 L 1193.00 1529.00 L 1173.00 1530.00 L 1133.00 1530.00 L 1113.00 1531.00 L 1073.00 1531.00 L 1053.00 1532.00 L 1013.00 1532.00 L 993.00 1533.00 L 953.00 1533.00 L 933.00 1534.00 L 893.00 1534.00 L 873.00 1535.00 L 865.57 1535.00 L 869.67 1658.00 L 873.00 1658.00 L 893.00 1657.00 L 913.00 1677.00 L 933.00 1677.00 L 953.00 1656.00 L 993.00 1656.00 L 1013.00 1655.00 L 1053.00 1655.00 L 1073.00 1654.00 L 1133.00 1654.00 L 1153.00 1653.00 L 1193.00 1653.00 L 1213.00 1652.00 L 1253.00 1652.00 L 1273.00 1651.00 L 1313.00 1651.00 L 1333.00 1650.00 L 1393.00 1650.00 L 1413.00 1649.00 L 1453.00 1649.00 L 1473.00 1648.00 L 1513.00 1648.00 L 1533.00 1647.00 L 1573.00 1647.00 L 1593.00 1646.00 L 1653.00 1646.00 L 1673.00 1645.00 L 1713.00 1645.00 L 1733.00 1644.00 L 1773.00 1644.00 L 1793.00 1643.00 L 1833.00 1643.00 L 1853.00 1642.00 L 1913.00 1642.00 L 1933.00 1641.00 L 1973.00 1641.00 L 1993.00 1640.00 L 2033.00 1640.00 L 2053.00 1639.00 L 2073.00 1659.00 L 2093.00 1659.00 L 2113.00 1638.00 L 2173.00 1638.00 L 2193.00 1637.00 L 2233.00 1637.00 L 2253.00 1636.00 L 2293.00 1636.00 L 2313.00 1635.00 L 2353.00 1635.00 L 2373.00 1634.00 L 2433.00 1634.00 L 2453.00 1633.00 L 2493.00 1633.00 L 2513.00 1632.00 L 2553.00 1632.00 L 2573.00 1631.00 L 2613.00 1631.00 L 2633.00 1630.00 L 2693.00 1630.00 L 2713.00 1629.00 L 2753.00 1629.00 L 2773.00 1628.00 L 2813.00 1628.00 L 2833.00 1627.00 L 2873.00 1627.00 L 2893.00 1626.00 L 2933.00 1626.00 L 2953.00 1625.00 L 2977.61 1625.00 L 3030.00 1584.00 L 3014.58 1500.92 Z" />
<path id="csg562-018-08" fill="none" stroke="black" stroke-width="1" d="M 2953.00 1625.00 L 2933.00 1626.00 L 2893.00 1626.00 L 2873.00 1627.00 L 2833.00 1627.00 L 2813.00 1628.00 L 2773.00 1628.00 L 2753.00 1629.00 L 2713.00 1629.00 L 2693.00 1630.00 L 2633.00 1630.00 L 2613.00 1631.00 L 2573.00 1631.00 L 2553.00 1632.00 L 2513.00 1632.00 L 2493.00 1633.00 L 2453.00 1633.00 L 2433.00 1634.00 L 2373.00 1634.00 L 2353.00 1635.00 L 2313.00 1635.00 L 2293.00 1636.00 L 2253.00 1636.00 L 2233.00 1637.00 L 2193.00 1637.00 L 2173.00 1638.00 L 2113.00 1638.00 L 2093.00 1659.00 L 2073.00 1659.00 L 2053.00 1639.00 L 2033.00 1640.00 L 1993.00 1640.00 L 1973.00 1641.00 L 1933.00 1641.00 L 1913.00 1642.00 L 1853.00 1642.00 L 1833.00 1643.00 L 1793.00 1643.00 L 1773.00 1644.00 L 1733.00 1644.00 L 1713.00 1645.00 L 1673.00 1645.00 L 1653.00 1646.00 L 1593.00 1646.00 L 1573.00 1647.00 L 1533.00 1647.00 L 1513.00 1648.00 L 1473.00 1648.00 L 1453.00 1649.00 L 1413.00 1649.00 L 1393.00 1650.00 L 1333.00 1650.00 L 1313.00 1651.00 L 1273.00 1651.00 L 1253.00 1652.00 L 1213.00 1652.00 L 1193.00 1653.00 L 1153.00 1653.00 L 1133.00 1654.00 L 1073.00 1654.00 L 1053.00 1655.00 L 1013.00 1655.00 L 993.00 1656.00 L 953.00 1656.00 L 933.00 1677.00 L 913.00 1677.00 L 893.00 1657.00 L 873.00 1658.00 L 869.67 1658.00 L 873.50 1773.00 L 893.00 1773.00 L 913.00 1772.00 L 933.00 1772.00 L 953.00 1771.00 L 973.00 1771.00 L 993.00 1770.00 L 1013.00 1770.00 L 1033.00 1769.00 L 1053.00 1769.00 L 1073.00 1768.00 L 1113.00 1768.00 L 1133.00 1767.00 L 1153.00 1767.00 L 1173.00 1766.00 L 1193.00 1766.00 L 1213.00 1765.00 L 1233.00 1765.00 L 1253.00 1764.00 L 1273.00 1764.00 L 1293.00 1763.00 L 1313.00 1763.00 L 1333.00 1762.00 L 1353.00 1782.00 L 1373.00 1781.00 L 1393.00 1761.00 L 1413.00 1761.00 L 1433.00 1760.00 L 1453.00 1760.00 L 1473.00 1759.00 L 1493.00 1759.00 L 1513.00 1758.00 L 1533.00 1758.00 L 1553.00 1757.00 L 1573.00 1757.00 L 1593.00 1756.00 L 1613.00 1756.00 L 1633.00 1755.00 L 1653.00 1755.00 L 1673.00 1754.00 L 1713.00 1754.00 L 1733.00 1733.00 L 1753.00 1793.00 L 1773.00 1752.00 L 1793.00 1752.00 L 1813.00 1771.00 L 1833.00 1771.00 L 1853.00 1750.00 L 1873.00 1770.00 L 1893.00 1749.00 L 1913.00 1749.00 L 1933.00 1748.00 L 1953.00 1748.00 L 1973.00 1747.00 L 2013.00 1747.00 L 2033.00 1746.00 L 2053.00 1746.00 L 2073.00 1745.00 L 2093.00 1745.00 L 2113.00 1744.00 L 2133.00 1744.00 L 2153.00 1743.00 L 2173.00 1743.00 L 2193.00 1742.00 L 2213.00 1742.00 L 2233.00 1741.00 L 2253.00 1741.00 L 2273.00 1740.00 L 2313.00 1740.00 L 2333.00 1739.00 L 2353.00 1739.00 L 2373.00 1738.00 L 2393.00 1738.00 L 2413.00 1737.00 L 2433.00 1737.00 L 2453.00 1736.00 L 2473.00 1736.00 L 2493.00 1735.00 L 2513.00 1735.00 L 2533.00 1734.00 L 2553.00 1734.00 L 2573.00 1733.00 L 2613.00 1733.00 L 2633.00 1732.00 L 2653.00 1732.00 L 2673.00 1731.00 L 2693.00 1731.00 L 2713.00 1730.00 L 2733.00 1730.00 L 2753.00 1729.00 L 2773.00 1729.00 L 2793.00 1728.00 L 2813.00 1728.00 L 2833.00 1727.00 L 2873.00 1727.00 L 2893.00 1726.00 L 2913.00 1726.00 L 2933.00 1725.00 L 2953.00 1725.00 L 2973.00 1724.00 L 2977.17 1724.00 L 2961.00 1638.00 L 2977.61 1625.00 Z" />
<path id="csg562-018-09" fill="none" stroke="black" stroke-width="1" d="M 2973.00 1724.00 L 2953.00 1725.00 L 2933.00 1725.00 L 2913.00 1726.00 L 2893.00 1726.00 L 2873.00 1727.00 L 2833.00 1727.00 L 2813.00 1728.00 L 2793.00 1728.00 L 2773.00 1729.00 L 2753.00 1729.00 L 2733.00 1730.00 L 2713.00 1730.00 L 2693.00 1731.00 L 2673.00 1731.00 L 2653.00 1732.00 L 2633.00 1732.00 L 2613.00 1733.00 L 2573.00 1733.00 L 2553.00 1734.00 L 2533.00 1734.00 L 2513.00 1735.00 L 2493.00 1735.00 L 2473.00 1736.00 L 2453.00 1736.00 L 2433.00 1737.00 L 2413.00 1737.00 L 2393.00 1738.00 L 2373.00 1738.00 L 2353.00 1739.00 L 2333.00 1739.00 L 2313.00 1740.00 L 2273.00 1740.00 L 2253.00 1741.00 L 2233.00 1741.00 L 2213.00 1742.00 L 2193.00 1742.00 L 2173.00 1743.00 L 2153.00 1743.00 L 2133.00 1744.00 L 2113.00 1744.00 L 2093.00 1745.00 L 2073.00 1745.00 L 2053.00 1746.00 L 2033.00 1746.00 L 2013.00 1747.00 L 1973.00 1747.00 L 1953.00 1748.00 L 1933.00 1748.00 L 1913.00 1749.00 L 1893.00 1749.00 L 1873.00 1770.00 L 1853.00 1750.00 L 1833.00 1771.00 L 1813.00 1771.00 L 1793.00 1752.00 L 1773.00 1752.00 L 1753.00 1793.00 L 1733.00 1733.00 L 1713.00 1754.00 L 1673.00 1754.00 L 1653.00 1755.00 L 1633.00 1755.00 L 1613.00 1756.00 L 1593.00 1756.00 L 1573.00 1757.00 L 1553.00 1757.00 L 1533.00 1758.00 L 1513.00 1758.00 L 1493.00 1759.00 L 1473.00 1759.00 L 1453.00 1760.00 L 1433.00 1760.00 L 1413.00 1761.00 L 1393.00 1761.00 L 1373.00 1781.00 L 1353.00 1782.00 L 1333.00 1762.00 L 1313.00 1763.00 L 1293.00 1763.00 L 1273.00 1764.00 L 1253.00 1764.00 L 1233.00 1765.00 L 1213.00 1765.00 L 1193.00 1766.00 L 1173.00 1766.00 L 1153.00 1767.00 L 1133.00 1767.00 L 1113.00 1768.00 L 1073.00 1768.00 L 1053.00 1769.00 L 1033.00 1769.00 L 1013.00 1770.00 L 993.00 1770.00 L 973.00 1771.00 L 953.00 1771.00 L 933.00 1772.00 L 913.00 1772.00 L 893.00 1773.00 L 873.50 1773.00 L 876.00 1848.00 L 876.23 1871.00 L 893.00 1871.00 L 913.00 1870.00 L 933.00 1870.00 L 953.00 1869.00 L 973.00 1869.00 L 993.00 1868.00 L 1013.00 1868.00 L 1033.00 1867.00 L 1073.00 1867.00 L 1093.00 1866.00 L 1113.00 1886.00 L 1133.00 1885.00 L 1153.00 1865.00 L 1173.00 1864.00 L 1193.00 1864.00 L 1213.00 1863.00 L 1233.00 1863.00 L 1253.00 1862.00 L 1293.00 1862.00 L 1313.00 1861.00 L 1333.00 1861.00 L 1353.00 1860.00 L 1373.00 1860.00 L 1393.00 1859.00 L 1413.00 1859.00 L 1433.00 1858.00 L 1453.00 1858.00 L 1473.00 1857.00 L 1493.00 1857.00 L 1513.00 1856.00 L 1553.00 1856.00 L 1573.00 1855.00 L 1593.00 1855.00 L 1613.00 1874.00 L 1633.00 1874.00 L 1653.00 1853.00 L 1673.00 1873.00 L 1693.00 1872.00 L 1713.00 1872.00 L 1733.00 1851.00 L 1773.00 1851.00 L 1793.00 1850.00 L 1813.00 1850.00 L 1833.00 1849.00 L 1853.00 1849.00 L 1873.00 1848.00 L 1893.00 1848.00 L 1913.00 1847.00 L 1933.00 1847.00 L 1953.00 1846.00 L 1973.00 1846.00 L 1993.00 1845.00 L 2033.00 1845.00 L 2053.00 1844.00 L 2073.00 1844.00 L 2093.00 1843.00 L 2113.00 1843.00 L 2133.00 1842.00 L 2153.00 1842.00 L 2173.00 1841.00 L 2193.00 1841.00 L 2213.00 1840.00 L 2253.00 1840.00 L 2273.00 1839.00 L 2293.00 1839.00 L 2313.00 1838.00 L 2333.00 1838.00 L 2353.00 1837.00 L 2373.00 1837.00 L 2393.00 1836.00 L 2413.00 1836.00 L 2433.00 1835.00 L 2473.00 1835.00 L 2493.00 1834.00 L 2513.00 1834.00 L 2533.00 1833.00 L 2553.00 1833.00 L 2573.00 1832.00 L 2593.00 1832.00 L 2613.00 1831.00 L 2633.00 1831.00 L 2653.00 1830.00 L 2673.00 1830.00 L 2693.00 1829.00 L 2733.00 1829.00 L 2753.00 1828.00 L 2773.00 1828.00 L 2793.00 1827.00 L 2813.00 1827.00 L 2833.00 1826.00 L 2853.00 1826.00 L 2873.00 1825.00 L 2893.00 1825.00 L 2913.00 1824.00 L 2953.00 1824.00 L 2973.00 1823.00 L 2993.00 1823.00 L 2995.76 1822.86 L 2977.17 1724.00 Z" />
<path id="csg562-018-10" fill="none" stroke="black" stroke-width="1" d="M 2995.76 1822.86 L 2993.00 1823.00 L 2973.00 1823.00 L 2953.00 1824.00 L 2913.00 1824.00 L 2893.00 1825.00 L 2873.00 1825.00 L 2853.00 1826.00 L 2833.00 1826.00 L 2813.00 1827.00 L 2793.00 1827.00 L 2773.00 1828.00 L 2753.00 1828.00 L 2733.00 1829.00 L 2693.00 1829.00 L 2673.00 1830.00 L 2653.00 1830.00 L 2633.00 1831.00 L 2613.00 1831.00 L 2593.00 1832.00 L 2573.00 1832.00 L 2553.00 1833.00 L 2533.00 1833.00 L 2513.00 1834.00 L 2493.00 1834.00 L 2473.00 1835.00 L 2433.00 1835.00 L 2413.00 1836.00 L 2393.00 1836.00 L 2373.00 1837.00 L 2353.00 1837.00 L 2333.00 1838.00 L 2313.00 1838.00 L 2293.00 1839.00 L 2273.00 1839.00 L 2253.00 1840.00 L 2213.00 1840.00 L 2193.00 1841.00 L 2173.00 1841.00 L 2153.00 1842.00 L 2133.00 1842.00 L 2113.00 1843.00 L 2093.00 1843.00 L 2073.00 1844.00 L 2053.00 1844.00 L 2033.00 1845.00 L 1993.00 1845.00 L 1973.00 1846.00 L 1953.00 1846.00 L 1933.00 1847.00 L 1913.00 1847.00 L 1893.00 1848.00 L 1873.00 1848.00 L 1853.00 1849.00 L 1833.00 1849.00 L 1813.00 1850.00 L 1793.00 1850.00 L 1773.00 1851.00 L 1733.00 1851.00 L 1713.00 1872.00 L 1693.00 1872.00 L 1673.00 1873.00 L 1653.00 1853.00 L 1633.00 1874.00 L 1613.00 1874.00 L 1593.00 1855.00 L 1573.00 1855.00 L 1553.00 1856.00 L 1513.00 1856.00 L 1493.00 1857.00 L 1473.00 1857.00 L 1453.00 1858.00 L 1433.00 1858.00 L 1413.00 1859.00 L 1393.00 1859.00 L 1373.00 1860.00 L 1353.00 1860.00 L 1333.00 1861.00 L 1313.00 1861.00 L 1293.00 1862.00 L 1253.00 1862.00 L 1233.00 1863.00 L 1213.00 1863.00 L 1193.00 1864.00 L 1173.00 1864.00 L 1153.00 1865.00 L 1133.00 1885.00 L 1113.00 1886.00 L 1093.00 1866.00 L 1073.00 1867.00 L 1033.00 1867.00 L 1013.00 1868.00 L 993.00 1868.00 L 973.00 1869.00 L 953.00 1869.00 L 933.00 1870.00 L 913.00 1870.00 L 893.00 1871.00 L 876.23 1871.00 L 877.29 1980.00 L 913.00 1980.00 L 933.00 1979.00 L 953.00 1979.00 L 973.00 1978.00 L 1013.00 1978.00 L 1033.00 1977.00 L 1053.00 1977.00 L 1073.00 1976.00 L 1113.00 1976.00 L 1133.00 1975.00 L 1153.00 1975.00 L 1173.00 1974.00 L 1213.00 1974.00 L 1233.00 1973.00 L 1253.00 1973.00 L 1273.00 1972.00 L 1313.00 1972.00 L 1333.00 1971.00 L 1353.00 1971.00 L 1373.00 1970.00 L 1413.00 1970.00 L 1433.00 1969.00 L 1453.00 1969.00 L 1473.00 1968.00 L 1513.00 1968.00 L 1533.00 1987.00 L 1553.00 1987.00 L 1573.00 1967.00 L 1593.00 1966.00 L 1613.00 1966.00 L 1633.00 1965.00 L 1673.00 1965.00 L 1693.00 1964.00 L 1713.00 1964.00 L 1733.00 1963.00 L 1773.00 1963.00 L 1793.00 1962.00 L 1813.00 1962.00 L 1833.00 1961.00 L 1873.00 1961.00 L 1893.00 1960.00 L 1913.00 1960.00 L 1933.00 1959.00 L 1973.00 1959.00 L 1993.00 1958.00 L 2013.00 1958.00 L 2033.00 1957.00 L 2073.00 1957.00 L 2093.00 1956.00 L 2113.00 1976.00 L 2133.00 1975.00 L 2153.00 1975.00 L 2173.00 1955.00 L 2193.00 1954.00 L 2213.00 1954.00 L 2233.00 1953.00 L 2273.00 1953.00 L 2293.00 1952.00 L 2333.00 1952.00 L 2353.00 1951.00 L 2373.00 1951.00 L 2393.00 1950.00 L 2433.00 1950.00 L 2453.00 1949.00 L 2473.00 1949.00 L 2493.00 1948.00 L 2533.00 1948.00 L 2553.00 1947.00 L 2573.00 1947.00 L 2593.00 1946.00 L 2633.00 1946.00 L 2653.00 1945.00 L 2673.00 1945.00 L 2693.00 1944.00 L 2733.00 1944.00 L 2753.00 1943.00 L 2773.00 1943.00 L 2793.00 1942.00 L 2833.00 1942.00 L 2853.00 1941.00 L 2873.00 1941.00 L 2893.00 1940.00 L 2933.00 1940.00 L 2953.00 1939.00 L 2993.00 1939.00 L 3013.00 1938.00 L 3017.41 1938.00 L 2995.76 1822.86 Z" />
<path id="csg562-018-11" fill="none" stroke="black" stroke-width="1" d="M 3013.00 1938.00 L 2993.00 1939.00 L 2953.00 1939.00 L 2933.00 1940.00 L 2893.00 1940.00 L 2873.00 1941.00 L 2853.00 1941.00 L 2833.00 1942.00 L 2793.00 1942.00 L 2773.00 1943.00 L 2753.00 1943.00 L 2733.00 1944.00 L 2693.00 1944.00 L 2673.00 1945.00 L 2653.00 1945.00 L 2633.00 1946.00 L 2593.00 1946.00 L 2573.00 1947.00 L 2553.00 1947.00 L 2533.00 1948.00 L 2493.00 1948.00 L 2473.00 1949.00 L 2453.00 1949.00 L 2433.00 1950.00 L 2393.00 1950.00 L 2373.00 1951.00 L 2353.00 1951.00 L 2333.00 1952.00 L 2293.00 1952.00 L 2273.00 1953.00 L 2233.00 1953.00 L 2213.00 1954.00 L 2193.00 1954.00 L 2173.00 1955.00 L 2153.00 1975.00 L 2133.00 1975.00 L 2113.00 1976.00 L 2093.00 1956.00 L 2073.00 1957.00 L 2033.00 1957.00 L 2013.00 1958.00 L 1993.00 1958.00 L 1973.00 1959.00 L 1933.00 1959.00 L 1913.00 1960.00 L 1893.00 1960.00 L 1873.00 1961.00 L 1833.00 1961.00 L 1813.00 1962.00 L 1793.00 1962.00 L 1773.00 1963.00 L 1733.00 1963.00 L 1713.00 1964.00 L 1693.00 1964.00 L 1673.00 1965.00 L 1633.00 1965.00 L 1613.00 1966.00 L 1593.00 1966.00 L 1573.00 1967.00 L 1553.00 1987.00 L 1533.00 1987.00 L 1513.00 1968.00 L 1473.00 1968.00 L 1453.00 1969.00 L 1433.00 1969.00 L 1413.00 1970.00 L 1373.00 1970.00 L 1353.00 1971.00 L 1333.00 1971.00 L 1313.00 1972.00 L 1273.00 1972.00 L 1253.00 1973.00 L 1233.00 1973.00 L 1213.00 1974.00 L 1173.00 1974.00 L 1153.00 1975.00 L 1133.00 1975.00 L 1113.00 1976.00 L 1073.00 1976.00 L 1053.00 1977.00 L 1033.00 1977.00 L 1013.00 1978.00 L 973.00 1978.00 L 953.00 1979.00 L 933.00 1979.00 L 913.00 1980.00 L 877.29 1980.00 L 878.40 2093.00 L 913.00 2093.00 L 933.00 2092.00 L 973.00 2092.00 L 993.00 2091.00 L 1033.00 2091.00 L 1053.00 2090.00 L 1073.00 2110.00 L 1093.00 2090.00 L 1113.00 2089.00 L 1133.00 2089.00 L 1153.00 2088.00 L 1193.00 2088.00 L 1213.00 2087.00 L 1253.00 2087.00 L 1273.00 2086.00 L 1313.00 2086.00 L 1333.00 2085.00 L 1373.00 2085.00 L 1393.00 2084.00 L 1413.00 2084.00 L 1433.00 2083.00 L 1473.00 2083.00 L 1493.00 2082.00 L 1533.00 2082.00 L 1553.00 2081.00 L 1593.00 2081.00 L 1613.00 2080.00 L 1653.00 2080.00 L 1673.00 2079.00 L 1693.00 2079.00 L 1713.00 2078.00 L 1733.00 2078.00 L 1753.00 2098.00 L 1773.00 2097.00 L 1793.00 2077.00 L 1813.00 2077.00 L 1833.00 2076.00 L 1873.00 2076.00 L 1893.00 2075.00 L 1913.00 2075.00 L 1933.00 2095.00 L 1953.00 2094.00 L 1973.00 2094.00 L 1993.00 2073.00 L 2033.00 2073.00 L 2053.00 2072.00 L 2093.00 2072.00 L 2113.00 2071.00 L 2153.00 2071.00 L 2173.00 2070.00 L 2213.00 2070.00 L 2233.00 2069.00 L 2273.00 2069.00 L 2293.00 2068.00 L 2313.00 2068.00 L 2333.00 2067.00 L 2373.00 2067.00 L 2393.00 2066.00 L 2433.00 2066.00 L 2453.00 2065.00 L 2493.00 2065.00 L 2513.00 2064.00 L 2553.00 2064.00 L 2573.00 2063.00 L 2593.00 2063.00 L 2613.00 2062.00 L 2653.00 2062.00 L 2673.00 2061.00 L 2713.00 2061.00 L 2733.00 2060.00 L 2773.00 2060.00 L 2793.00 2059.00 L 2833.00 2059.00 L 2853.00 2058.00 L 2873.00 2058.00 L 2893.00 2057.00 L 2933.00 2057.00 L 2953.00 2056.00 L 2993.00 2056.00 L 3013.00 2055.00 L 3018.04 2055.00 L 3027.00 1989.00 L 3017.41 1938.00 Z" />
<path id="csg562-018-12" fill="none" stroke="black" stroke-width="1" d="M 3013.00 2055.00 L 2993.00 2056.00 L 2953.00 2056.00 L 2933.00 2057.00 L 2893.00 2057.00 L 2873.00 2058.00 L 2853.00 2058.00 L 2833.00 2059.00 L 2793.00 2059.00 L 2773.00 2060.00 L 2733.00 2060.00 L 2713.00 2061.00 L 2673.00 2061.00 L 2653.00 2062.00 L 2613.00 2062.00 L 2593.00 2063.00 L 2573.00 2063.00 L 2553.00 2064.00 L 2513.00 2064.00 L 2493.00 2065.00 L 2453.00 2065.00 L 2433.00 2066.00 L 2393.00 2066.00 L 2373.00 2067.00 L 2333.00 2067.00 L 2313.00 2068.00 L 2293.00 2068.00 L 2273.00 2069.00 L 2233.00 2069.00 L 2213.00 2070.00 L 2173.00 2070.00 L 2153.00 2071.00 L 2113.00 2071.00 L 2093.00 2072.00 L 2053.00 2072.00 L 2033.00 2073.00 L 1993.00 2073.00 L 1973.00 2094.00 L 1953.00 2094.00 L 1933.00 2095.00 L 1913.00 2075.00 L 1893.00 2075.00 L 1873.00 2076.00 L 1833.00 2076.00 L 1813.00 2077.00 L 1793.00 2077.00 L 1773.00 2097.00 L 1753.00 2098.00 L 1733.00 2078.00 L 1713.00 2078.00 L 1693.00 2079.00 L 1673.00 2079.00 L 1653.00 2080.00 L 1613.00 2080.00 L 1593.00 2081.00 L 1553.00 2081.00 L 1533.00 2082.00 L 1493.00 2082.00 L 1473.00 2083.00 L 1433.00 2083.00 L 1413.00 2084.00 L 1393.00 2084.00 L 1373.00 2085.00 L 1333.00 2085.00 L 1313.00 2086.00 L 1273.00 2086.00 L 1253.00 2087.00 L 1213.00 2087.00 L 1193.00 2088.00 L 1153.00 2088.00 L 1133.00 2089.00 L 1113.00 2089.00 L 1093.00 2090.00 L 1073.00 2110.00 L 1053.00 2090.00 L 1033.00 2091.00 L 993.00 2091.00 L 973.00 2092.00 L 933.00 2092.00 L 913.00 2093.00 L 878.40 2093.00 L 879.46 2201.00 L 913.00 2201.00 L 933.00 2200.00 L 973.00 2200.00 L 993.00 2199.00 L 1033.00 2199.00 L 1053.00 2198.00 L 1093.00 2198.00 L 1113.00 2197.00 L 1133.00 2197.00 L 1153.00 2196.00 L 1193.00 2196.00 L 1213.00 2195.00 L 1253.00 2195.00 L 1273.00 2194.00 L 1313.00 2194.00 L 1333.00 2193.00 L 1373.00 2193.00 L 1393.00 2192.00 L 1433.00 2192.00 L 1453.00 2191.00 L 1473.00 2191.00 L 1493.00 2190.00 L 1533.00 2190.00 L 1553.00 2189.00 L 1573.00 2209.00 L 1593.00 2209.00 L 1613.00 2208.00 L 1633.00 2188.00 L 1653.00 2188.00 L 1673.00 2187.00 L 1713.00 2187.00 L 1733.00 2186.00 L 1773.00 2186.00 L 1793.00 2185.00 L 1813.00 2185.00 L 1833.00 2184.00 L 1873.00 2184.00 L 1893.00 2183.00 L 1933.00 2183.00 L 1953.00 2182.00 L 1993.00 2182.00 L 2013.00 2181.00 L 2053.00 2181.00 L 2073.00 2180.00 L 2093.00 2180.00 L 2113.00 2179.00 L 2153.00 2179.00 L 2173.00 2178.00 L 2213.00 2178.00 L 2233.00 2177.00 L 2273.00 2177.00 L 2293.00 2176.00 L 2333.00 2176.00 L 2353.00 2175.00 L 2393.00 2175.00 L 2413.00 2174.00 L 2433.00 2174.00 L 2453.00 2173.00 L 2473.00 2173.00 L 2493.00 2193.00 L 2513.00 2172.00 L 2533.00 2172.00 L 2553.00 2192.00 L 2573.00 2171.00 L 2613.00 2171.00 L 2633.00 2170.00 L 2673.00 2170.00 L 2693.00 2169.00 L 2733.00 2169.00 L 2753.00 2168.00 L 2773.00 2168.00 L 2793.00 2167.00 L 2833.00 2167.00 L 2853.00 2166.00 L 2893.00 2166.00 L 2913.00 2165.00 L 2953.00 2165.00 L 2973.00 2164.00 L 3003.23 2164.00 L 3018.04 2055.00 Z" />
<path id="csg562-018-13" fill="none" stroke="black" stroke-width="1" d="M 2973.00 2164.00 L 2953.00 2165.00 L 2913.00 2165.00 L 2893.00 2166.00 L 2853.00 2166.00 L 2833.00 2167.00 L 2793.00 2167.00 L 2773.00 2168.00 L 2753.00 2168.00 L 2733.00 2169.00 L 2693.00 2169.00 L 2673.00 2170.00 L 2633.00 2170.00 L 2613.00 2171.00 L 2573.00 2171.00 L 2553.00 2192.00 L 2533.00 2172.00 L 2513.00 2172.00 L 2493.00 2193.00 L 2473.00 2173.00 L 2453.00 2173.00 L 2433.00 2174.00 L 2413.00 2174.00 L 2393.00 2175.00 L 2353.00 2175.00 L 2333.00 2176.00 L 2293.00 2176.00 L 2273.00 2177.00 L 2233.00 2177.00 L 2213.00 2178.00 L 2173.00 2178.00 L 2153.00 2179.00 L 2113.00 2179.00 L 2093.00 2180.00 L 2073.00 2180.00 L 2053.00 2181.00 L 2013.00 2181.00 L 1993.00 2182.00 L 1953.00 2182.00 L 1933.00 2183.00 L 1893.00 2183.00 L 1873.00 2184.00 L 1833.00 2184.00 L 1813.00 2185.00 L 1793.00 2185.00 L 1773.00 2186.00 L 1733.00 2186.00 L 1713.00 2187.00 L 1673.00 2187.00 L 1653.00 2188.00 L 1633.00 2188.00 L 1613.00 2208.00 L 1593.00 2209.00 L 1573.00 2209.00 L 1553.00 2189.00 L 1533.00 2190.00 L 1493.00 2190.00 L 1473.00 2191.00 L 1453.00 2191.00 L 1433.00 2192.00 L 1393.00 2192.00 L 1373.00 2193.00 L 1333.00 2193.00 L 1313.00 2194.00 L 1273.00 2194.00 L 1253.00 2195.00 L 1213.00 2195.00 L 1193.00 2196.00 L 1153.00 2196.00 L 1133.00 2197.00 L 1113.00 2197.00 L 1093.00 2198.00 L 1053.00 2198.00 L 1033.00 2199.00 L 993.00 2199.00 L 973.00 2200.00 L 933.00 2200.00 L 913.00 2201.00 L 879.46 2201.00 L 880.66 2323.62 L 893.00 2323.00 L 933.00 2323.00 L 953.00 2322.00 L 993.00 2322.00 L 1013.00 2321.00 L 1053.00 2321.00 L 1073.00 2320.00 L 1113.00 2320.00 L 1133.00 2319.00 L 1193.00 2319.00 L 1213.00 2318.00 L 1253.00 2318.00 L 1273.00 2317.00 L 1313.00 2317.00 L 1333.00 2316.00 L 1373.00 2316.00 L 1393.00 2315.00 L 1433.00 2315.00 L 1453.00 2314.00 L 1493.00 2314.00 L 1513.00 2313.00 L 1573.00 2313.00 L 1593.00 2312.00 L 1633.00 2312.00 L 1653.00 2311.00 L 1693.00 2311.00 L 1713.00 2310.00 L 1753.00 2310.00 L 1773.00 2309.00 L 1813.00 2309.00 L 1833.00 2308.00 L 1853.00 2328.00 L 1873.00 2328.00 L 1893.00 2327.00 L 1913.00 2327.00 L 1933.00 2307.00 L 1953.00 2307.00 L 1973.00 2306.00 L 2013.00 2306.00 L 2033.00 2305.00 L 2053.00 2325.00 L 2073.00 2305.00 L 2093.00 2304.00 L 2133.00 2304.00 L 2153.00 2303.00 L 2193.00 2303.00 L 2213.00 2302.00 L 2233.00 2322.00 L 2253.00 2322.00 L 2273.00 2301.00 L 2333.00 2301.00 L 2353.00 2300.00 L 2393.00 2300.00 L 2413.00 2299.00 L 2453.00 2299.00 L 2473.00 2298.00 L 2513.00 2298.00 L 2533.00 2297.00 L 2573.00 2297.00 L 2593.00 2296.00 L 2633.00 2296.00 L 2653.00 2295.00 L 2713.00 2295.00 L 2733.00 2294.00 L 2773.00 2294.00 L 2793.00 2293.00 L 2833.00 2293.00 L 2853.00 2292.00 L 2893.00 2292.00 L 2913.00 2291.00 L 2953.00 2291.00 L 2956.35 2290.83 L 2994.00 2232.00 L 3003.23 2164.00 Z" />
<path id="csg562-018-14" fill="none" stroke="black" stroke-width="1" d="M 2956.35 2290.83 L 2953.00 2291.00 L 2913.00 2291.00 L 2893.00 2292.00 L 2853.00 2292.00 L 2833.00 2293.00 L 2793.00 2293.00 L 2773.00 2294.00 L 2733.00 2294.00 L 2713.00 2295.00 L 2653.00 2295.00 L 2633.00 2296.00 L 2593.00 2296.00 L 2573.00 2297.00 L 2533.00 2297.00 L 2513.00 2298.00 L 2473.00 2298.00 L 2453.00 2299.00 L 2413.00 2299.00 L 2393.00 2300.00 L 2353.00 2300.00 L 2333.00 2301.00 L 2273.00 2301.00 L 2253.00 2322.00 L 2233.00 2322.00 L 2213.00 2302.00 L 2193.00 2303.00 L 2153.00 2303.00 L 2133.00 2304.00 L 2093.00 2304.00 L 2073.00 2305.00 L 2053.00 2325.00 L 2033.00 2305.00 L 2013.00 2306.00 L 1973.00 2306.00 L 1953.00 2307.00 L 1933.00 2307.00 L 1913.00 2327.00 L 1893.00 2327.00 L 1873.00 2328.00 L 1853.00 2328.00 L 1833.00 2308.00 L 1813.00 2309.00 L 1773.00 2309.00 L 1753.00 2310.00 L 1713.00 2310.00 L 1693.00 2311.00 L 1653.00 2311.00 L 1633.00 2312.00 L 1593.00 2312.00 L 1573.00 2313.00 L 1513.00 2313.00 L 1493.00 2314.00 L 1453.00 2314.00 L 1433.00 2315.00 L 1393.00 2315.00 L 1373.00 2316.00 L 1333.00 2316.00 L 1313.00 2317.00 L 1273.00 2317.00 L 1253.00 2318.00 L 1213.00 2318.00 L 1193.00 2319.00 L 1133.00 2319.00 L 1113.00 2320.00 L 1073.00 2320.00 L 1053.00 2321.00 L 1013.00 2321.00 L 993.00 2322.00 L 953.00 2322.00 L 933.00 2323.00 L 893.00 2323.00 L 880.66 2323.62 L 881.73 2432.56 L 893.00 2432.00 L 953.00 2432.00 L 973.00 2431.00 L 1033.00 2431.00 L 1053.00 2430.00 L 1093.00 2430.00 L 1113.00 2429.00 L 1173.00 2429.00 L 1193.00 2428.00 L 1253.00 2428.00 L 1273.00 2427.00 L 1313.00 2427.00 L 1333.00 2426.00 L 1393.00 2426.00 L 1413.00 2445.00 L 1433.00 2445.00 L 1453.00 2425.00 L 1473.00 2405.00 L 1493.00 2404.00 L 1513.00 2424.00 L 1533.00 2424.00 L 1553.00 2423.00 L 1613.00 2423.00 L 1633.00 2422.00 L 1693.00 2422.00 L 1713.00 2421.00 L 1753.00 2421.00 L 1773.00 2420.00 L 1833.00 2420.00 L 1853.00 2419.00 L 1913.00 2419.00 L 1933.00 2418.00 L 1973.00 2418.00 L 1993.00 2417.00 L 2053.00 2417.00 L 2073.00 2416.00 L 2133.00 2416.00 L 2153.00 2415.00 L 2193.00 2415.00 L 2213.00 2414.00 L 2273.00 2414.00 L 2293.00 2413.00 L 2353.00 2413.00 L 2373.00 2412.00 L 2413.00 2412.00 L 2433.00 2411.00 L 2453.00 2431.00 L 2473.00 2411.00 L 2493.00 2411.00 L 2513.00 2430.00 L 2533.00 2430.00 L 2553.00 2410.00 L 2573.00 2410.00 L 2593.00 2409.00 L 2633.00 2409.00 L 2653.00 2408.00 L 2713.00 2408.00 L 2733.00 2407.00 L 2793.00 2407.00 L 2813.00 2406.00 L 2853.00 2406.00 L 2873.00 2405.00 L 2933.00 2405.00 L 2953.00 2404.00 L 2988.07 2404.00 L 2946.00 2307.00 L 2956.35 2290.83 Z" />
<path id="csg562-018-15" fill="none" stroke="black" stroke-width="1" d="M 1493.00 2404.00 L 1473.00 2405.00 L 1453.00 2425.00 L 1433.00 2445.00 L 1413.00 2445.00 L 1393.00 2426.00 L 1333.00 2426.00 L 1313.00 2427.00 L 1273.00 2427.00 L 1253.00 2428.00 L 1193.00 2428.00 L 1173.00 2429.00 L 1113.00 2429.00 L 1093.00 2430.00 L 1053.00 2430.00 L 1033.00 2431.00 L 973.00 2431.00 L 953.00 2432.00 L 893.00 2432.00 L 881.73 2432.56 L 882.00 2460.00 L 883.03 2538.50 L 893.00 2538.00 L 933.00 2538.00 L 953.00 2537.00 L 993.00 2537.00 L 1013.00 2536.00 L 1053.00 2536.00 L 1073.00 2535.00 L 1113.00 2535.00 L 1133.00 2534.00 L 1173.00 2534.00 L 1193.00 2533.00 L 1233.00 2533.00 L 1253.00 2532.00 L 1293.00 2532.00 L 1313.00 2531.00 L 1373.00 2531.00 L 1393.00 2530.00 L 1413.00 2550.00 L 1433.00 2550.00 L 1453.00 2529.00 L 1493.00 2529.00 L 1513.00 2528.00 L 1553.00 2528.00 L 1573.00 2527.00 L 1613.00 2527.00 L 1633.00 2526.00 L 1673.00 2526.00 L 1693.00 2525.00 L 1733.00 2525.00 L 1753.00 2524.00 L 1793.00 2524.00 L 1813.00 2523.00 L 1873.00 2523.00 L 1893.00 2522.00 L 1933.00 2522.00 L 1953.00 2521.00 L 1993.00 2521.00 L 2013.00 2520.00 L 2053.00 2520.00 L 2073.00 2519.00 L 2113.00 2519.00 L 2133.00 2518.00 L 2173.00 2518.00 L 2193.00 2517.00 L 2233.00 2517.00 L 2253.00 2516.00 L 2293.00 2516.00 L 2313.00 2515.00 L 2373.00 2515.00 L 2393.00 2514.00 L 2433.00 2514.00 L 2453.00 2513.00 L 2493.00 2513.00 L 2513.00 2512.00 L 2553.00 2512.00 L 2573.00 2511.00 L 2613.00 2511.00 L 2633.00 2510.00 L 2673.00 2510.00 L 2693.00 2509.00 L 2733.00 2509.00 L 2753.00 2508.00 L 2793.00 2508.00 L 2813.00 2507.00 L 2873.00 2507.00 L 2893.00 2506.00 L 2933.00 2506.00 L 2953.00 2505.00 L 2993.00 2505.00 L 3013.00 2504.00 L 3031.45 2504.00 L 2988.07 2404.00 L 2953.00 2404.00 L 2933.00 2405.00 L 2873.00 2405.00 L 2853.00 2406.00 L 2813.00 2406.00 L 2793.00 2407.00 L 2733.00 2407.00 L 2713.00 2408.00 L 2653.00 2408.00 L 2633.00 2409.00 L 2593.00 2409.00 L 2573.00 2410.00 L 2553.00 2410.00 L 2533.00 2430.00 L 2513.00 2430.00 L 2493.00 2411.00 L 2473.00 2411.00 L 2453.00 2431.00 L 2433.00 2411.00 L 2413.00 2412.00 L 2373.00 2412.00 L 2353.00 2413.00 L 2293.00 2413.00 L 2273.00 2414.00 L 2213.00 2414.00 L 2193.00 2415.00 L 2153.00 2415.00 L 2133.00 2416.00 L 2073.00 2416.00 L 2053.00 2417.00 L 1993.00 2417.00 L 1973.00 2418.00 L 1933.00 2418.00 L 1913.00 2419.00 L 1853.00 2419.00 L 1833.00 2420.00 L 1773.00 2420.00 L 1753.00 2421.00 L 1713.00 2421.00 L 1693.00 2422.00 L 1633.00 2422.00 L 1613.00 2423.00 L 1553.00 2423.00 L 1533.00 2424.00 L 1513.00 2424.00 L 1493.00 2404.00 Z" />
<path id="csg562-018-16" fill="none" stroke="black" stroke-width="1" d="M 3013.00 2504.00 L 2993.00 2505.00 L 2953.00 2505.00 L 2933.00 2506.00 L 2893.00 2506.00 L 2873.00 2507.00 L 2813.00 2507.00 L 2793.00 2508.00 L 2753.00 2508.00 L 2733.00 2509.00 L 2693.00 2509.00 L 2673.00 2510.00 L 2633.00 2510.00 L 2613.00 2511.00 L 2573.00 2511.00 L 2553.00 2512.00 L 2513.00 2512.00 L 2493.00 2513.00 L 2453.00 2513.00 L 2433.00 2514.00 L 2393.00 2514.00 L 2373.00 2515.00 L 2313.00 2515.00 L 2293.00 2516.00 L 2253.00 2516.00 L 2233.00 2517.00 L 2193.00 2517.00 L 2173.00 2518.00 L 2133.00 2518.00 L 2113.00 2519.00 L 2073.00 2519.00 L 2053.00 2520.00 L 2013.00 2520.00 L 1993.00 2521.00 L 1953.00 2521.00 L 1933.00 2522.00 L 1893.00 2522.00 L 1873.00 2523.00 L 1813.00 2523.00 L 1793.00 2524.00 L 1753.00 2524.00 L 1733.00 2525.00 L 1693.00 2525.00 L 1673.00 2526.00 L 1633.00 2526.00 L 1613.00 2527.00 L 1573.00 2527.00 L 1553.00 2528.00 L 1513.00 2528.00 L 1493.00 2529.00 L 1453.00 2529.00 L 1433.00 2550.00 L 1413.00 2550.00 L 1393.00 2530.00 L 1373.00 2531.00 L 1313.00 2531.00 L 1293.00 2532.00 L 1253.00 2532.00 L 1233.00 2533.00 L 1193.00 2533.00 L 1173.00 2534.00 L 1133.00 2534.00 L 1113.00 2535.00 L 1073.00 2535.00 L 1053.00 2536.00 L 1013.00 2536.00 L 993.00 2537.00 L 953.00 2537.00 L 933.00 2538.00 L 893.00 2538.00 L 883.03 2538.50 L 884.48 2650.00 L 913.00 2650.00 L 933.00 2649.00 L 973.00 2649.00 L 993.00 2648.00 L 1013.00 2668.00 L 1033.00 2668.00 L 1053.00 2667.00 L 1073.00 2647.00 L 1093.00 2647.00 L 1113.00 2646.00 L 1133.00 2646.00 L 1153.00 2645.00 L 1193.00 2645.00 L 1213.00 2644.00 L 1253.00 2644.00 L 1273.00 2643.00 L 1313.00 2643.00 L 1333.00 2642.00 L 1353.00 2662.00 L 1373.00 2662.00 L 1393.00 2661.00 L 1413.00 2641.00 L 1433.00 2640.00 L 1473.00 2640.00 L 1493.00 2639.00 L 1533.00 2639.00 L 1553.00 2638.00 L 1593.00 2638.00 L 1613.00 2637.00 L 1653.00 2637.00 L 1673.00 2636.00 L 1693.00 2636.00 L 1713.00 2635.00 L 1753.00 2635.00 L 1773.00 2634.00 L 1813.00 2634.00 L 1833.00 2633.00 L 1873.00 2633.00 L 1893.00 2632.00 L 1933.00 2632.00 L 1953.00 2631.00 L 1973.00 2631.00 L 1993.00 2630.00 L 2033.00 2630.00 L 2053.00 2629.00 L 2093.00 2629.00 L 2113.00 2628.00 L 2153.00 2628.00 L 2173.00 2627.00 L 2213.00 2627.00 L 2233.00 2626.00 L 2253.00 2626.00 L 2273.00 2625.00 L 2313.00 2625.00 L 2333.00 2624.00 L 2373.00 2624.00 L 2393.00 2623.00 L 2433.00 2623.00 L 2453.00 2622.00 L 2493.00 2622.00 L 2513.00 2621.00 L 2533.00 2621.00 L 2553.00 2620.00 L 2593.00 2620.00 L 2613.00 2599.00 L 2633.00 2619.00 L 2653.00 2619.00 L 2673.00 2618.00 L 2713.00 2618.00 L 2733.00 2617.00 L 2753.00 2617.00 L 2773.00 2637.00 L 2793.00 2636.00 L 2813.00 2636.00 L 2833.00 2615.00 L 2873.00 2615.00 L 2893.00 2614.00 L 2933.00 2614.00 L 2953.00 2613.00 L 2993.00 2613.00 L 3004.83 2624.24 L 3020.38 2624.62 L 3033.00 2612.00 L 3039.39 2612.00 L 3054.00 2556.00 L 3031.45 2504.00 Z" />
<path id="csg562-018-17" fill="none" stroke="black" stroke-width="1" d="M 2613.00 2599.00 L 2593.00 2620.00 L 2553.00 2620.00 L 2533.00 2621.00 L 2513.00 2621.00 L 2493.00 2622.00 L 2453.00 2622.00 L 2433.00 2623.00 L 2393.00 2623.00 L 2373.00 2624.00 L 2333.00 2624.00 L 2313.00 2625.00 L 2273.00 2625.00 L 2253.00 2626.00 L 2233.00 2626.00 L 2213.00 2627.00 L 2173.00 2627.00 L 2153.00 2628.00 L 2113.00 2628.00 L 2093.00 2629.00 L 2053.00 2629.00 L 2033.00 2630.00 L 1993.00 2630.00 L 1973.00 2631.00 L 1953.00 2631.00 L 1933.00 2632.00 L 1893.00 2632.00 L 1873.00 2633.00 L 1833.00 2633.00 L 1813.00 2634.00 L 1773.00 2634.00 L 1753.00 2635.00 L 1713.00 2635.00 L 1693.00 2636.00 L 1673.00 2636.00 L 1653.00 2637.00 L 1613.00 2637.00 L 1593.00 2638.00 L 1553.00 2638.00 L 1533.00 2639.00 L 1493.00 2639.00 L 1473.00 2640.00 L 1433.00 2640.00 L 1413.00 2641.00 L 1393.00 2661.00 L 1373.00 2662.00 L 1353.00 2662.00 L 1333.00 2642.00 L 1313.00 2643.00 L 1273.00 2643.00 L 1253.00 2644.00 L 1213.00 2644.00 L 1193.00 2645.00 L 1153.00 2645.00 L 1133.00 2646.00 L 1113.00 2646.00 L 1093.00 2647.00 L 1073.00 2647.00 L 1053.00 2667.00 L 1033.00 2668.00 L 1013.00 2668.00 L 993.00 2648.00 L 973.00 2649.00 L 933.00 2649.00 L 913.00 2650.00 L 884.48 2650.00 L 886.02 2767.35 L 893.00 2767.00 L 933.00 2767.00 L 953.00 2766.00 L 993.00 2766.00 L 1013.00 2765.00 L 1073.00 2765.00 L 1093.00 2764.00 L 1133.00 2764.00 L 1153.00 2763.00 L 1193.00 2763.00 L 1213.00 2762.00 L 1273.00 2762.00 L 1293.00 2761.00 L 1333.00 2761.00 L 1353.00 2760.00 L 1393.00 2760.00 L 1413.00 2759.00 L 1473.00 2759.00 L 1493.00 2758.00 L 1533.00 2758.00 L 1553.00 2757.00 L 1593.00 2757.00 L 1613.00 2756.00 L 1673.00 2756.00 L 1693.00 2755.00 L 1733.00 2755.00 L 1753.00 2754.00 L 1793.00 2754.00 L 1813.00 2753.00 L 1873.00 2753.00 L 1893.00 2752.00 L 1933.00 2752.00 L 1953.00 2751.00 L 1993.00 2751.00 L 2013.00 2750.00 L 2053.00 2750.00 L 2073.00 2749.00 L 2133.00 2749.00 L 2153.00 2748.00 L 2193.00 2748.00 L 2213.00 2747.00 L 2253.00 2747.00 L 2273.00 2746.00 L 2333.00 2746.00 L 2353.00 2745.00 L 2393.00 2745.00 L 2413.00 2744.00 L 2453.00 2744.00 L 2473.00 2743.00 L 2513.00 2743.00 L 2533.00 2763.00 L 2553.00 2742.00 L 2593.00 2742.00 L 2613.00 2741.00 L 2653.00 2741.00 L 2673.00 2740.00 L 2733.00 2740.00 L 2753.00 2739.00 L 2793.00 2739.00 L 2813.00 2738.00 L 2853.00 2738.00 L 2873.00 2737.00 L 2933.00 2737.00 L 2944.32 2736.43 L 2913.00 2622.00 L 3004.83 2624.24 L 2993.00 2613.00 L 2953.00 2613.00 L 2933.00 2614.00 L 2893.00 2614.00 L 2873.00 2615.00 L 2833.00 2615.00 L 2813.00 2636.00 L 2793.00 2636.00 L 2773.00 2637.00 L 2753.00 2617.00 L 2733.00 2617.00 L 2713.00 2618.00 L 2673.00 2618.00 L 2653.00 2619.00 L 2633.00 2619.00 L 2613.00 2599.00 Z" />
<path id="csg562-018-18" fill="none" stroke="black" stroke-width="1" d="M 2944.32 2736.43 L 2933.00 2737.00 L 2873.00 2737.00 L 2853.00 2738.00 L 2813.00 2738.00 L 2793.00 2739.00 L 2753.00 2739.00 L 2733.00 2740.00 L 2673.00 2740.00 L 2653.00 2741.00 L 2613.00 2741.00 L 2593.00 2742.00 L 2553.00 2742.00 L 2533.00 2763.00 L 2513.00 2743.00 L 2473.00 2743.00 L 2453.00 2744.00 L 2413.00 2744.00 L 2393.00 2745.00 L 2353.00 2745.00 L 2333.00 2746.00 L 2273.00 2746.00 L 2253.00 2747.00 L 2213.00 2747.00 L 2193.00 2748.00 L 2153.00 2748.00 L 2133.00 2749.00 L 2073.00 2749.00 L 2053.00 2750.00 L 2013.00 2750.00 L 1993.00 2751.00 L 1953.00 2751.00 L 1933.00 2752.00 L 1893.00 2752.00 L 1873.00 2753.00 L 1813.00 2753.00 L 1793.00 2754.00 L 1753.00 2754.00 L 1733.00 2755.00 L 1693.00 2755.00 L 1673.00 2756.00 L 1613.00 2756.00 L 1593.00 2757.00 L 1553.00 2757.00 L 1533.00 2758.00 L 1493.00 2758.00 L 1473.00 2759.00 L 1413.00 2759.00 L 1393.00 2760.00 L 1353.00 2760.00 L 1333.00 2761.00 L 1293.00 2761.00 L 1273.00 2762.00 L 1213.00 2762.00 L 1193.00 2763.00 L 1153.00 2763.00 L 1133.00 2764.00 L 1093.00 2764.00 L 1073.00 2765.00 L 1013.00 2765.00 L 993.00 2766.00 L 953.00 2766.00 L 933.00 2767.00 L 893.00 2767.00 L 886.02 2767.35 L 887.45 2877.00 L 913.00 2877.00 L 933.00 2876.00 L 953.00 2876.00 L 973.00 2875.00 L 1013.00 2875.00 L 1033.00 2874.00 L 1073.00 2874.00 L 1093.00 2893.00 L 1113.00 2873.00 L 1133.00 2872.00 L 1153.00 2892.00 L 1173.00 2872.00 L 1193.00 2871.00 L 1213.00 2871.00 L 1233.00 2870.00 L 1273.00 2870.00 L 1293.00 2869.00 L 1333.00 2869.00 L 1353.00 2868.00 L 1373.00 2868.00 L 1393.00 2867.00 L 1433.00 2867.00 L 1453.00 2866.00 L 1473.00 2866.00 L 1493.00 2865.00 L 1533.00 2865.00 L 1553.00 2864.00 L 1593.00 2864.00 L 1613.00 2863.00 L 1633.00 2863.00 L 1653.00 2862.00 L 1693.00 2862.00 L 1713.00 2861.00 L 1753.00 2861.00 L 1773.00 2860.00 L 1793.00 2860.00 L 1813.00 2859.00 L 1853.00 2859.00 L 1873.00 2858.00 L 1893.00 2858.00 L 1913.00 2857.00 L 1953.00 2857.00 L 1973.00 2856.00 L 2013.00 2856.00 L 2033.00 2855.00 L 2053.00 2855.00 L 2073.00 2854.00 L 2093.00 2854.00 L 2113.00 2874.00 L 2133.00 2873.00 L 2153.00 2873.00 L 2173.00 2852.00 L 2213.00 2852.00 L 2233.00 2851.00 L 2273.00 2851.00 L 2293.00 2850.00 L 2313.00 2850.00 L 2333.00 2849.00 L 2373.00 2849.00 L 2393.00 2848.00 L 2433.00 2848.00 L 2453.00 2847.00 L 2473.00 2847.00 L 2493.00 2846.00 L 2533.00 2846.00 L 2553.00 2845.00 L 2573.00 2845.00 L 2593.00 2844.00 L 2633.00 2844.00 L 2653.00 2843.00 L 2693.00 2843.00 L 2713.00 2842.00 L 2733.00 2842.00 L 2753.00 2861.00 L 2793.00 2861.00 L 2813.00 2840.00 L 2833.00 2840.00 L 2853.00 2839.00 L 2893.00 2839.00 L 2913.00 2858.00 L 2933.00 2858.00 L 2953.00 2838.00 L 2971.86 2837.06 L 2944.32 2736.43 Z" />
<path id="csg562-018-19" fill="none" stroke="black" stroke-width="1" d="M 2971.86 2837.06 L 2953.00 2838.00 L 2933.00 2858.00 L 2913.00 2858.00 L 2893.00 2839.00 L 2853.00 2839.00 L 2833.00 2840.00 L 2813.00 2840.00 L 2793.00 2861.00 L 2753.00 2861.00 L 2733.00 2842.00 L 2713.00 2842.00 L 2693.00 2843.00 L 2653.00 2843.00 L 2633.00 2844.00 L 2593.00 2844.00 L 2573.00 2845.00 L 2553.00 2845.00 L 2533.00 2846.00 L 2493.00 2846.00 L 2473.00 2847.00 L 2453.00 2847.00 L 2433.00 2848.00 L 2393.00 2848.00 L 2373.00 2849.00 L 2333.00 2849.00 L 2313.00 2850.00 L 2293.00 2850.00 L 2273.00 2851.00 L 2233.00 2851.00 L 2213.00 2852.00 L 2173.00 2852.00 L 2153.00 2873.00 L 2133.00 2873.00 L 2113.00 2874.00 L 2093.00 2854.00 L 2073.00 2854.00 L 2053.00 2855.00 L 2033.00 2855.00 L 2013.00 2856.00 L 1973.00 2856.00 L 1953.00 2857.00 L 1913.00 2857.00 L 1893.00 2858.00 L 1873.00 2858.00 L 1853.00 2859.00 L 1813.00 2859.00 L 1793.00 2860.00 L 1773.00 2860.00 L 1753.00 2861.00 L 1713.00 2861.00 L 1693.00 2862.00 L 1653.00 2862.00 L 1633.00 2863.00 L 1613.00 2863.00 L 1593.00 2864.00 L 1553.00 2864.00 L 1533.00 2865.00 L 1493.00 2865.00 L 1473.00 2866.00 L 1453.00 2866.00 L 1433.00 2867.00 L 1393.00 2867.00 L 1373.00 2868.00 L 1353.00 2868.00 L 1333.00 2869.00 L 1293.00 2869.00 L 1273.00 2870.00 L 1233.00 2870.00 L 1213.00 2871.00 L 1193.00 2871.00 L 1173.00 2872.00 L 1153.00 2892.00 L 1133.00 2872.00 L 1113.00 2873.00 L 1093.00 2893.00 L 1073.00 2874.00 L 1033.00 2874.00 L 1013.00 2875.00 L 973.00 2875.00 L 953.00 2876.00 L 933.00 2876.00 L 913.00 2877.00 L 887.45 2877.00 L 888.00 2919.00 L 891.57 2985.07 L 893.00 2985.00 L 933.00 2985.00 L 953.00 2984.00 L 993.00 2984.00 L 1013.00 2983.00 L 1053.00 2983.00 L 1073.00 2982.00 L 1113.00 2982.00 L 1133.00 2981.00 L 1193.00 2981.00 L 1213.00 2980.00 L 1233.00 3000.00 L 1253.00 3000.00 L 1273.00 2979.00 L 1313.00 2979.00 L 1333.00 2978.00 L 1373.00 2978.00 L 1393.00 2977.00 L 1433.00 2977.00 L 1453.00 2976.00 L 1473.00 2996.00 L 1493.00 2976.00 L 1513.00 2975.00 L 1573.00 2975.00 L 1593.00 2974.00 L 1633.00 2974.00 L 1653.00 2973.00 L 1693.00 2973.00 L 1713.00 2972.00 L 1753.00 2972.00 L 1773.00 2951.00 L 1813.00 2951.00 L 1833.00 2970.00 L 1873.00 2970.00 L 1893.00 2969.00 L 1953.00 2969.00 L 1973.00 2968.00 L 2013.00 2968.00 L 2033.00 2967.00 L 2073.00 2967.00 L 2093.00 2966.00 L 2133.00 2966.00 L 2153.00 2965.00 L 2193.00 2965.00 L 2213.00 2964.00 L 2253.00 2964.00 L 2273.00 2963.00 L 2333.00 2963.00 L 2353.00 2962.00 L 2393.00 2962.00 L 2413.00 2961.00 L 2453.00 2961.00 L 2473.00 2960.00 L 2513.00 2960.00 L 2533.00 2959.00 L 2573.00 2959.00 L 2593.00 2958.00 L 2633.00 2958.00 L 2653.00 2957.00 L 2713.00 2957.00 L 2733.00 2956.00 L 2753.00 2976.00 L 2773.00 2976.00 L 2793.00 2975.00 L 2813.00 2955.00 L 2833.00 2955.00 L 2853.00 2954.00 L 2893.00 2954.00 L 2913.00 2953.00 L 2953.00 2953.00 L 2955.72 2952.86 L 2991.00 2907.00 L 2971.86 2837.06 Z" />
<path id="csg562-018-20" fill="none" stroke="black" stroke-width="1" d="M 1773.00 2951.00 L 1753.00 2972.00 L 1713.00 2972.00 L 1693.00 2973.00 L 1653.00 2973.00 L 1633.00 2974.00 L 1593.00 2974.00 L 1573.00 2975.00 L 1513.00 2975.00 L 1493.00 2976.00 L 1473.00 2996.00 L 1453.00 2976.00 L 1433.00 2977.00 L 1393.00 2977.00 L 1373.00 2978.00 L 1333.00 2978.00 L 1313.00 2979.00 L 1273.00 2979.00 L 1253.00 3000.00 L 1233.00 3000.00 L 1213.00 2980.00 L 1193.00 2981.00 L 1133.00 2981.00 L 1113.00 2982.00 L 1073.00 2982.00 L 1053.00 2983.00 L 1013.00 2983.00 L 993.00 2984.00 L 953.00 2984.00 L 933.00 2985.00 L 893.00 2985.00 L 891.57 2985.07 L 897.57 3096.00 L 913.00 3096.00 L 933.00 3095.00 L 973.00 3095.00 L 993.00 3094.00 L 1033.00 3094.00 L 1053.00 3093.00 L 1093.00 3093.00 L 1113.00 3092.00 L 1153.00 3092.00 L 1173.00 3091.00 L 1213.00 3091.00 L 1233.00 3090.00 L 1273.00 3090.00 L 1293.00 3109.00 L 1333.00 3109.00 L 1353.00 3088.00 L 1373.00 3088.00 L 1393.00 3087.00 L 1433.00 3087.00 L 1453.00 3086.00 L 1493.00 3086.00 L 1513.00 3085.00 L 1553.00 3085.00 L 1573.00 3084.00 L 1613.00 3084.00 L 1633.00 3083.00 L 1673.00 3083.00 L 1693.00 3102.00 L 1713.00 3102.00 L 1733.00 3082.00 L 1753.00 3081.00 L 1793.00 3081.00 L 1813.00 3080.00 L 1853.00 3080.00 L 1873.00 3079.00 L 1893.00 3079.00 L 1913.00 3078.00 L 1953.00 3078.00 L 1973.00 3077.00 L 2013.00 3077.00 L 2033.00 3076.00 L 2073.00 3076.00 L 2093.00 3075.00 L 2133.00 3075.00 L 2153.00 3074.00 L 2193.00 3074.00 L 2213.00 3093.00 L 2253.00 3093.00 L 2273.00 3072.00 L 2313.00 3072.00 L 2333.00 3071.00 L 2373.00 3071.00 L 2393.00 3070.00 L 2413.00 3070.00 L 2433.00 3069.00 L 2473.00 3069.00 L 2493.00 3068.00 L 2533.00 3068.00 L 2553.00 3067.00 L 2593.00 3067.00 L 2613.00 3066.00 L 2653.00 3066.00 L 2673.00 3065.00 L 2693.00 3065.00 L 2713.00 3085.00 L 2733.00 3084.00 L 2753.00 3064.00 L 2773.00 3064.00 L 2793.00 3063.00 L 2833.00 3063.00 L 2853.00 3062.00 L 2893.00 3062.00 L 2913.00 3061.00 L 2953.00 3061.00 L 2955.20 3060.89 L 2931.00 2985.00 L 2955.72 2952.86 L 2953.00 2953.00 L 2913.00 2953.00 L 2893.00 2954.00 L 2853.00 2954.00 L 2833.00 2955.00 L 2813.00 2955.00 L 2793.00 2975.00 L 2773.00 2976.00 L 2753.00 2976.00 L 2733.00 2956.00 L 2713.00 2957.00 L 2653.00 2957.00 L 2633.00 2958.00 L 2593.00 2958.00 L 2573.00 2959.00 L 2533.00 2959.00 L 2513.00 2960.00 L 2473.00 2960.00 L 2453.00 2961.00 L 2413.00 2961.00 L 2393.00 2962.00 L 2353.00 2962.00 L 2333.00 2963.00 L 2273.00 2963.00 L 2253.00 2964.00 L 2213.00 2964.00 L 2193.00 2965.00 L 2153.00 2965.00 L 2133.00 2966.00 L 2093.00 2966.00 L 2073.00 2967.00 L 2033.00 2967.00 L 2013.00 2968.00 L 1973.00 2968.00 L 1953.00 2969.00 L 1893.00 2969.00 L 1873.00 2970.00 L 1833.00 2970.00 L 1813.00 2951.00 Z" />
<path id="csg562-018-21" fill="none" stroke="black" stroke-width="1" d="M 2955.20 3060.89 L 2953.00 3061.00 L 2913.00 3061.00 L 2893.00 3062.00 L 2853.00 3062.00 L 2833.00 3063.00 L 2793.00 3063.00 L 2773.00 3064.00 L 2753.00 3064.00 L 2733.00 3084.00 L 2713.00 3085.00 L 2693.00 3065.00 L 2673.00 3065.00 L 2653.00 3066.00 L 2613.00 3066.00 L 2593.00 3067.00 L 2553.00 3067.00 L 2533.00 3068.00 L 2493.00 3068.00 L 2473.00 3069.00 L 2433.00 3069.00 L 2413.00 3070.00 L 2393.00 3070.00 L 2373.00 3071.00 L 2333.00 3071.00 L 2313.00 3072.00 L 2273.00 3072.00 L 2253.00 3093.00 L 2213.00 3093.00 L 2193.00 3074.00 L 2153.00 3074.00 L 2133.00 3075.00 L 2093.00 3075.00 L 2073.00 3076.00 L 2033.00 3076.00 L 2013.00 3077.00 L 1973.00 3077.00 L 1953.00 3078.00 L 1913.00 3078.00 L 1893.00 3079.00 L 1873.00 3079.00 L 1853.00 3080.00 L 1813.00 3080.00 L 1793.00 3081.00 L 1753.00 3081.00 L 1733.00 3082.00 L 1713.00 3102.00 L 1693.00 3102.00 L 1673.00 3083.00 L 1633.00 3083.00 L 1613.00 3084.00 L 1573.00 3084.00 L 1553.00 3085.00 L 1513.00 3085.00 L 1493.00 3086.00 L 1453.00 3086.00 L 1433.00 3087.00 L 1393.00 3087.00 L 1373.00 3088.00 L 1353.00 3088.00 L 1333.00 3109.00 L 1293.00 3109.00 L 1273.00 3090.00 L 1233.00 3090.00 L 1213.00 3091.00 L 1173.00 3091.00 L 1153.00 3092.00 L 1113.00 3092.00 L 1093.00 3093.00 L 1053.00 3093.00 L 1033.00 3094.00 L 993.00 3094.00 L 973.00 3095.00 L 933.00 3095.00 L 913.00 3096.00 L 897.57 3096.00 L 904.24 3219.44 L 913.00 3219.00 L 933.00 3219.00 L 953.00 3218.00 L 973.00 3218.00 L 993.00 3217.00 L 1013.00 3217.00 L 1033.00 3216.00 L 1053.00 3216.00 L 1073.00 3215.00 L 1113.00 3215.00 L 1133.00 3214.00 L 1153.00 3214.00 L 1173.00 3213.00 L 1193.00 3213.00 L 1213.00 3212.00 L 1233.00 3212.00 L 1253.00 3211.00 L 1273.00 3211.00 L 1293.00 3210.00 L 1313.00 3210.00 L 1333.00 3189.00 L 1353.00 3189.00 L 1373.00 3205.00 L 1393.00 3199.00 L 1413.00 3197.00 L 1433.00 3207.00 L 1453.00 3207.00 L 1473.00 3206.00 L 1493.00 3206.00 L 1513.00 3205.00 L 1533.00 3205.00 L 1553.00 3204.00 L 1573.00 3204.00 L 1593.00 3203.00 L 1613.00 3203.00 L 1633.00 3202.00 L 1653.00 3202.00 L 1673.00 3201.00 L 1713.00 3201.00 L 1733.00 3200.00 L 1753.00 3200.00 L 1773.00 3199.00 L 1793.00 3199.00 L 1813.00 3198.00 L 1833.00 3198.00 L 1853.00 3197.00 L 1873.00 3197.00 L 1893.00 3196.00 L 1913.00 3216.00 L 1933.00 3215.00 L 1953.00 3195.00 L 1973.00 3194.00 L 2013.00 3194.00 L 2033.00 3193.00 L 2053.00 3193.00 L 2073.00 3192.00 L 2093.00 3192.00 L 2113.00 3191.00 L 2133.00 3191.00 L 2153.00 3190.00 L 2173.00 3190.00 L 2193.00 3189.00 L 2213.00 3189.00 L 2233.00 3188.00 L 2253.00 3188.00 L 2273.00 3187.00 L 2293.00 3187.00 L 2313.00 3207.00 L 2333.00 3189.00 L 2353.00 3187.00 L 2373.00 3185.00 L 2393.00 3185.00 L 2413.00 3184.00 L 2433.00 3184.00 L 2453.00 3183.00 L 2473.00 3183.00 L 2493.00 3182.00 L 2513.00 3182.00 L 2533.00 3181.00 L 2573.00 3181.00 L 2593.00 3180.00 L 2613.00 3180.00 L 2633.00 3179.00 L 2653.00 3179.00 L 2673.00 3178.00 L 2693.00 3178.00 L 2713.00 3177.00 L 2733.00 3177.00 L 2753.00 3176.00 L 2773.00 3176.00 L 2793.00 3175.00 L 2813.00 3175.00 L 2833.00 3174.00 L 2873.00 3174.00 L 2893.00 3173.00 L 2913.00 3173.00 L 2933.00 3172.00 L 2953.00 3172.00 L 2973.00 3171.00 L 2990.30 3171.00 L 2955.20 3060.89 Z" />
<path id="csg562-018-22" fill="none" stroke="black" stroke-width="1" d="M 2973.00 3171.00 L 2953.00 3172.00 L 2933.00 3172.00 L 2913.00 3173.00 L 2893.00 3173.00 L 2873.00 3174.00 L 2833.00 3174.00 L 2813.00 3175.00 L 2793.00 3175.00 L 2773.00 3176.00 L 2753.00 3176.00 L 2733.00 3177.00 L 2713.00 3177.00 L 2693.00 3178.00 L 2673.00 3178.00 L 2653.00 3179.00 L 2633.00 3179.00 L 2613.00 3180.00 L 2593.00 3180.00 L 2573.00 3181.00 L 2533.00 3181.00 L 2513.00 3182.00 L 2493.00 3182.00 L 2473.00 3183.00 L 2453.00 3183.00 L 2433.00 3184.00 L 2413.00 3184.00 L 2393.00 3185.00 L 2373.00 3185.00 L 2353.00 3187.00 L 2333.00 3189.00 L 2313.00 3207.00 L 2293.00 3187.00 L 2273.00 3187.00 L 2253.00 3188.00 L 2233.00 3188.00 L 2213.00 3189.00 L 2193.00 3189.00 L 2173.00 3190.00 L 2153.00 3190.00 L 2133.00 3191.00 L 2113.00 3191.00 L 2093.00 3192.00 L 2073.00 3192.00 L 2053.00 3193.00 L 2033.00 3193.00 L 2013.00 3194.00 L 1973.00 3194.00 L 1953.00 3195.00 L 1933.00 3215.00 L 1913.00 3216.00 L 1893.00 3196.00 L 1873.00 3197.00 L 1853.00 3197.00 L 1833.00 3198.00 L 1813.00 3198.00 L 1793.00 3199.00 L 1773.00 3199.00 L 1753.00 3200.00 L 1733.00 3200.00 L 1713.00 3201.00 L 1673.00 3201.00 L 1653.00 3202.00 L 1633.00 3202.00 L 1613.00 3203.00 L 1593.00 3203.00 L 1573.00 3204.00 L 1553.00 3204.00 L 1533.00 3205.00 L 1513.00 3205.00 L 1493.00 3206.00 L 1473.00 3206.00 L 1453.00 3207.00 L 1433.00 3207.00 L 1413.00 3197.00 L 1393.00 3199.00 L 1373.00 3205.00 L 1353.00 3189.00 L 1333.00 3189.00 L 1313.00 3210.00 L 1293.00 3210.00 L 1273.00 3211.00 L 1253.00 3211.00 L 1233.00 3212.00 L 1213.00 3212.00 L 1193.00 3213.00 L 1173.00 3213.00 L 1153.00 3214.00 L 1133.00 3214.00 L 1113.00 3215.00 L 1073.00 3215.00 L 1053.00 3216.00 L 1033.00 3216.00 L 1013.00 3217.00 L 993.00 3217.00 L 973.00 3218.00 L 953.00 3218.00 L 933.00 3219.00 L 913.00 3219.00 L 904.24 3219.44 L 909.46 3316.00 L 913.00 3316.00 L 933.00 3355.00 L 953.00 3355.00 L 973.00 3315.00 L 993.00 3314.00 L 1033.00 3314.00 L 1053.00 3313.00 L 1093.00 3313.00 L 1113.00 3312.00 L 1153.00 3312.00 L 1173.00 3311.00 L 1213.00 3311.00 L 1233.00 3310.00 L 1273.00 3310.00 L 1293.00 3309.00 L 1333.00 3309.00 L 1353.00 3308.00 L 1393.00 3308.00 L 1413.00 3307.00 L 1453.00 3307.00 L 1473.00 3306.00 L 1513.00 3306.00 L 1533.00 3305.00 L 1553.00 3325.00 L 1573.00 3325.00 L 1593.00 3304.00 L 1633.00 3304.00 L 1653.00 3303.00 L 1693.00 3303.00 L 1713.00 3302.00 L 1753.00 3302.00 L 1773.00 3301.00 L 1813.00 3301.00 L 1833.00 3300.00 L 1873.00 3300.00 L 1893.00 3299.00 L 1913.00 3299.00 L 1933.00 3319.00 L 1953.00 3318.00 L 1973.00 3298.00 L 1993.00 3298.00 L 2013.00 3297.00 L 2033.00 3277.00 L 2053.00 3297.00 L 2073.00 3296.00 L 2113.00 3296.00 L 2133.00 3295.00 L 2153.00 3315.00 L 2173.00 3295.00 L 2193.00 3294.00 L 2233.00 3294.00 L 2253.00 3293.00 L 2293.00 3293.00 L 2313.00 3292.00 L 2353.00 3292.00 L 2373.00 3291.00 L 2413.00 3291.00 L 2433.00 3290.00 L 2473.00 3290.00 L 2493.00 3289.00 L 2533.00 3289.00 L 2553.00 3288.00 L 2593.00 3288.00 L 2613.00 3287.00 L 2653.00 3287.00 L 2673.00 3286.00 L 2713.00 3286.00 L 2733.00 3285.00 L 2773.00 3285.00 L 2793.00 3284.00 L 2833.00 3284.00 L 2853.00 3283.00 L 2893.00 3283.00 L 2913.00 3282.00 L 2953.00 3282.00 L 2973.00 3281.00 L 3013.00 3281.00 L 3021.50 3280.57 L 2997.00 3192.00 L 2990.30 3171.00 Z" />
<path id="csg562-018-23" fill="none" stroke="black" stroke-width="1" d="M 2033.00 3277.00 L 2013.00 3297.00 L 1993.00 3298.00 L 1973.00 3298.00 L 1953.00 3318.00 L 1933.00 3319.00 L 1913.00 3299.00 L 1893.00 3299.00 L 1873.00 3300.00 L 1833.00 3300.00 L 1813.00 3301.00 L 1773.00 3301.00 L 1753.00 3302.00 L 1713.00 3302.00 L 1693.00 3303.00 L 1653.00 3303.00 L 1633.00 3304.00 L 1593.00 3304.00 L 1573.00 3325.00 L 1553.00 3325.00 L 1533.00 3305.00 L 1513.00 3306.00 L 1473.00 3306.00 L 1453.00 3307.00 L 1413.00 3307.00 L 1393.00 3308.00 L 1353.00 3308.00 L 1333.00 3309.00 L 1293.00 3309.00 L 1273.00 3310.00 L 1233.00 3310.00 L 1213.00 3311.00 L 1173.00 3311.00 L 1153.00 3312.00 L 1113.00 3312.00 L 1093.00 3313.00 L 1053.00 3313.00 L 1033.00 3314.00 L 993.00 3314.00 L 973.00 3315.00 L 953.00 3355.00 L 933.00 3355.00 L 913.00 3316.00 L 909.46 3316.00 L 912.00 3363.00 L 916.93 3430.80 L 933.00 3430.00 L 973.00 3430.00 L 993.00 3429.00 L 1033.00 3429.00 L 1053.00 3428.00 L 1093.00 3428.00 L 1113.00 3427.00 L 1133.00 3447.00 L 1153.00 3446.00 L 1173.00 3426.00 L 1193.00 3426.00 L 1213.00 3425.00 L 1253.00 3425.00 L 1273.00 3424.00 L 1313.00 3424.00 L 1333.00 3423.00 L 1373.00 3423.00 L 1393.00 3422.00 L 1413.00 3422.00 L 1433.00 3421.00 L 1473.00 3421.00 L 1493.00 3420.00 L 1533.00 3420.00 L 1553.00 3419.00 L 1593.00 3419.00 L 1613.00 3418.00 L 1653.00 3418.00 L 1673.00 3417.00 L 1693.00 3417.00 L 1713.00 3416.00 L 1753.00 3416.00 L 1773.00 3415.00 L 1813.00 3415.00 L 1833.00 3414.00 L 1873.00 3414.00 L 1893.00 3413.00 L 1933.00 3413.00 L 1953.00 3412.00 L 1973.00 3412.00 L 1993.00 3411.00 L 2033.00 3411.00 L 2053.00 3410.00 L 2093.00 3410.00 L 2113.00 3409.00 L 2153.00 3409.00 L 2173.00 3408.00 L 2213.00 3408.00 L 2233.00 3407.00 L 2253.00 3447.00 L 2273.00 3406.00 L 2313.00 3406.00 L 2333.00 3405.00 L 2373.00 3405.00 L 2393.00 3404.00 L 2433.00 3404.00 L 2453.00 3403.00 L 2493.00 3403.00 L 2513.00 3402.00 L 2533.00 3402.00 L 2553.00 3401.00 L 2593.00 3401.00 L 2613.00 3400.00 L 2653.00 3400.00 L 2673.00 3399.00 L 2713.00 3399.00 L 2733.00 3398.00 L 2773.00 3398.00 L 2793.00 3397.00 L 2813.00 3397.00 L 2833.00 3396.00 L 2873.00 3396.00 L 2893.00 3395.00 L 2933.00 3395.00 L 2953.00 3394.00 L 2993.00 3394.00 L 3013.00 3393.00 L 3015.27 3393.00 L 3036.00 3333.00 L 3021.50 3280.57 L 3013.00 3281.00 L 2973.00 3281.00 L 2953.00 3282.00 L 2913.00 3282.00 L 2893.00 3283.00 L 2853.00 3283.00 L 2833.00 3284.00 L 2793.00 3284.00 L 2773.00 3285.00 L 2733.00 3285.00 L 2713.00 3286.00 L 2673.00 3286.00 L 2653.00 3287.00 L 2613.00 3287.00 L 2593.00 3288.00 L 2553.00 3288.00 L 2533.00 3289.00 L 2493.00 3289.00 L 2473.00 3290.00 L 2433.00 3290.00 L 2413.00 3291.00 L 2373.00 3291.00 L 2353.00 3292.00 L 2313.00 3292.00 L 2293.00 3293.00 L 2253.00 3293.00 L 2233.00 3294.00 L 2193.00 3294.00 L 2173.00 3295.00 L 2153.00 3315.00 L 2133.00 3295.00 L 2113.00 3296.00 L 2073.00 3296.00 L 2053.00 3297.00 L 2033.00 3277.00 Z" />
<path id="csg562-018-24" fill="none" stroke="black" stroke-width="1" d="M 3013.00 3393.00 L 2993.00 3394.00 L 2953.00 3394.00 L 2933.00 3395.00 L 2893.00 3395.00 L 2873.00 3396.00 L 2833.00 3396.00 L 2813.00 3397.00 L 2793.00 3397.00 L 2773.00 3398.00 L 2733.00 3398.00 L 2713.00 3399.00 L 2673.00 3399.00 L 2653.00 3400.00 L 2613.00 3400.00 L 2593.00 3401.00 L 2553.00 3401.00 L 2533.00 3402.00 L 2513.00 3402.00 L 2493.00 3403.00 L 2453.00 3403.00 L 2433.00 3404.00 L 2393.00 3404.00 L 2373.00 3405.00 L 2333.00 3405.00 L 2313.00 3406.00 L 2273.00 3406.00 L 2253.00 3447.00 L 2233.00 3407.00 L 2213.00 3408.00 L 2173.00 3408.00 L 2153.00 3409.00 L 2113.00 3409.00 L 2093.00 3410.00 L 2053.00 3410.00 L 2033.00 3411.00 L 1993.00 3411.00 L 1973.00 3412.00 L 1953.00 3412.00 L 1933.00 3413.00 L 1893.00 3413.00 L 1873.00 3414.00 L 1833.00 3414.00 L 1813.00 3415.00 L 1773.00 3415.00 L 1753.00 3416.00 L 1713.00 3416.00 L 1693.00 3417.00 L 1673.00 3417.00 L 1653.00 3418.00 L 1613.00 3418.00 L 1593.00 3419.00 L 1553.00 3419.00 L 1533.00 3420.00 L 1493.00 3420.00 L 1473.00 3421.00 L 1433.00 3421.00 L 1413.00 3422.00 L 1393.00 3422.00 L 1373.00 3423.00 L 1333.00 3423.00 L 1313.00 3424.00 L 1273.00 3424.00 L 1253.00 3425.00 L 1213.00 3425.00 L 1193.00 3426.00 L 1173.00 3426.00 L 1153.00 3446.00 L 1133.00 3447.00 L 1113.00 3427.00 L 1093.00 3428.00 L 1053.00 3428.00 L 1033.00 3429.00 L 993.00 3429.00 L 973.00 3430.00 L 933.00 3430.00 L 916.93 3430.80 L 924.00 3528.00 L 991.44 3538.08 L 993.00 3538.00 L 1033.00 3538.00 L 1053.00 3537.00 L 1093.00 3537.00 L 1113.00 3536.00 L 1133.00 3536.00 L 1153.00 3535.00 L 1173.00 3555.00 L 1193.00 3555.00 L 1213.00 3534.00 L 1253.00 3534.00 L 1273.00 3533.00 L 1313.00 3533.00 L 1333.00 3532.00 L 1373.00 3532.00 L 1393.00 3531.00 L 1413.00 3531.00 L 1433.00 3530.00 L 1473.00 3530.00 L 1493.00 3529.00 L 1533.00 3529.00 L 1553.00 3528.00 L 1593.00 3528.00 L 1613.00 3527.00 L 1653.00 3527.00 L 1673.00 3526.00 L 1693.00 3526.00 L 1713.00 3525.00 L 1753.00 3525.00 L 1773.00 3524.00 L 1813.00 3524.00 L 1833.00 3523.00 L 1873.00 3523.00 L 1893.00 3522.00 L 1933.00 3522.00 L 1953.00 3521.00 L 1973.00 3521.00 L 1993.00 3520.00 L 2033.00 3520.00 L 2053.00 3519.00 L 2093.00 3519.00 L 2113.00 3518.00 L 2153.00 3518.00 L 2173.00 3517.00 L 2213.00 3517.00 L 2233.00 3516.00 L 2253.00 3516.00 L 2273.00 3515.00 L 2313.00 3515.00 L 2333.00 3514.00 L 2373.00 3514.00 L 2393.00 3513.00 L 2433.00 3513.00 L 2453.00 3512.00 L 2493.00 3512.00 L 2513.00 3511.00 L 2533.00 3511.00 L 2553.00 3510.00 L 2589.00 3510.00 L 2599.40 3509.68 L 2613.00 3509.00 L 2621.50 3509.00 L 2979.00 3498.00 L 3015.27 3393.00 Z" />
</svg>
