<?xml version="1.0" standalone="no"?>
<!DOCTYPE svg PUBLIC "-//W3C//DTD SVG 1.1//EN" "http://www.w3.org/Graphics/SVG/1.1/DTD/svg11.dtd">
<svg width="46.22222in" height="69.333336in" viewBox="0 0 3328 4992" xmlns="http://www.w3.org/2000/svg" version="1.1">
<path id="csg562-023-01" fill="none" stroke="black" stroke-width="1" d="M 748.00 759.00 L 486.00 765.00 L 387.00 792.00 L 378.98 881.51 L 389.00 876.00 L 569.00 876.00 L 589.00 875.00 L 769.00 875.00 L 789.00 874.00 L 969.00 874.00 L 989.00 873.00 L 1169.00 873.00 L 1189.00 872.00 L 1369.00 872.00 L 1389.00 871.00 L 1569.00 871.00 L 1589.00 870.00 L 1629.00 870.00 L 1649.00 890.00 L 1689.00 890.00 L 1709.00 870.00 L 1769.00 870.00 L 1789.00 869.00 L 1829.00 869.00 L 1849.00 889.00 L 1869.00 889.00 L 1889.00 869.00 L 1989.00 869.00 L 2009.00 868.00 L 2189.00 868.00 L 2209.00 867.00 L 2389.00 867.00 L 2409.00 866.00 L 2472.67 866.00 L 2463.00 807.00 L 2148.00 765.00 L 1749.00 786.00 L 1584.00 774.00 L 1251.00 774.00 L 921.00 801.00 L 881.80 759.00 Z" />
<path id="csg562-023-02" fill="none" stroke="black" stroke-width="1" d="M 2409.00 866.00 L 2389.00 867.00 L 2209.00 867.00 L 2189.00 868.00 L 2009.00 868.00 L 1989.00 869.00 L 1889.00 869.00 L 1869.00 889.00 L 1849.00 889.00 L 1829.00 869.00 L 1789.00 869.00 L 1769.00 870.00 L 1709.00 870.00 L 1689.00 890.00 L 1649.00 890.00 L 1629.00 870.00 L 1589.00 870.00 L 1569.00 871.00 L 1389.00 871.00 L 1369.00 872.00 L 1189.00 872.00 L 1169.00 873.00 L 989.00 873.00 L 969.00 874.00 L 789.00 874.00 L 769.00 875.00 L 589.00 875.00 L 569.00 876.00 L 389.00 876.00 L 378.98 881.51 L 369.00 993.00 L 369.39 999.79 L 389.00 989.00 L 729.00 989.00 L 749.00 1009.00 L 769.00 989.00 L 889.00 989.00 L 909.00 988.00 L 1409.00 988.00 L 1429.00 987.00 L 1929.00 987.00 L 1949.00 986.00 L 2449.00 986.00 L 2469.00 985.00 L 2492.18 985.00 L 2472.67 866.00 Z" />
<path id="csg562-023-03" fill="none" stroke="black" stroke-width="1" d="M 2469.00 985.00 L 2449.00 986.00 L 1949.00 986.00 L 1929.00 987.00 L 1429.00 987.00 L 1409.00 988.00 L 909.00 988.00 L 889.00 989.00 L 769.00 989.00 L 749.00 1009.00 L 729.00 989.00 L 389.00 989.00 L 369.39 999.79 L 376.13 1118.44 L 389.00 1112.00 L 1389.00 1112.00 L 1409.00 1113.00 L 2069.00 1113.00 L 2089.00 1093.00 L 2109.00 1093.00 L 2129.00 1113.00 L 2429.00 1113.00 L 2449.00 1114.00 L 2513.33 1114.00 L 2492.18 985.00 Z" />
<path id="csg562-023-04" fill="none" stroke="black" stroke-width="1" d="M 2089.00 1093.00 L 2069.00 1113.00 L 1409.00 1113.00 L 1389.00 1112.00 L 389.00 1112.00 L 376.13 1118.44 L 382.20 1225.40 L 389.00 1222.00 L 1129.00 1222.00 L 1149.00 1242.00 L 1169.00 1222.00 L 1669.00 1222.00 L 1689.00 1223.00 L 2499.40 1223.00 L 2523.00 1173.00 L 2513.33 1114.00 L 2449.00 1114.00 L 2429.00 1113.00 L 2129.00 1113.00 L 2109.00 1093.00 Z" />
<path id="csg562-023-05" fill="none" stroke="black" stroke-width="1" d="M 389.00 1222.00 L 382.20 1225.40 L 388.17 1330.45 L 389.00 1330.00 L 1349.00 1330.00 L 1369.00 1350.00 L 1389.00 1330.00 L 2448.91 1330.00 L 2499.40 1223.00 L 1689.00 1223.00 L 1669.00 1222.00 L 1169.00 1222.00 L 1149.00 1242.00 L 1129.00 1222.00 Z" />
<path id="csg562-023-06" fill="none" stroke="black" stroke-width="1" d="M 389.00 1330.00 L 388.17 1330.45 L 394.34 1439.00 L 549.00 1439.00 L 569.00 1438.00 L 749.00 1438.00 L 769.00 1437.00 L 929.00 1437.00 L 949.00 1436.00 L 1129.00 1436.00 L 1149.00 1435.00 L 1329.00 1435.00 L 1349.00 1434.00 L 1509.00 1434.00 L 1529.00 1433.00 L 1609.00 1433.00 L 1629.00 1453.00 L 1649.00 1453.00 L 1669.00 1433.00 L 1709.00 1433.00 L 1729.00 1432.00 L 1849.00 1432.00 L 1869.00 1452.00 L 1889.00 1432.00 L 1909.00 1432.00 L 1929.00 1431.00 L 2089.00 1431.00 L 2109.00 1430.00 L 2289.00 1430.00 L 2309.00 1429.00 L 2402.19 1429.00 L 2448.91 1330.00 L 1389.00 1330.00 L 1369.00 1350.00 L 1349.00 1330.00 Z" />
<path id="csg562-023-07" fill="none" stroke="black" stroke-width="1" d="M 2309.00 1429.00 L 2289.00 1430.00 L 2109.00 1430.00 L 2089.00 1431.00 L 1929.00 1431.00 L 1909.00 1432.00 L 1889.00 1432.00 L 1869.00 1452.00 L 1849.00 1432.00 L 1729.00 1432.00 L 1709.00 1433.00 L 1669.00 1433.00 L 1649.00 1453.00 L 1629.00 1453.00 L 1609.00 1433.00 L 1529.00 1433.00 L 1509.00 1434.00 L 1349.00 1434.00 L 1329.00 1435.00 L 1149.00 1435.00 L 1129.00 1436.00 L 949.00 1436.00 L 929.00 1437.00 L 769.00 1437.00 L 749.00 1438.00 L 569.00 1438.00 L 549.00 1439.00 L 394.34 1439.00 L 399.00 1521.00 L 456.00 1542.00 L 455.84 1544.00 L 489.00 1544.00 L 509.00 1543.00 L 609.00 1543.00 L 629.00 1542.00 L 729.00 1542.00 L 749.00 1541.00 L 869.00 1541.00 L 889.00 1540.00 L 989.00 1540.00 L 1009.00 1539.00 L 1109.00 1539.00 L 1129.00 1538.00 L 1229.00 1538.00 L 1249.00 1537.00 L 1369.00 1537.00 L 1389.00 1536.00 L 1489.00 1536.00 L 1509.00 1535.00 L 1609.00 1535.00 L 1629.00 1534.00 L 1729.00 1534.00 L 1749.00 1533.00 L 1769.00 1553.00 L 1829.00 1553.00 L 1849.00 1533.00 L 1869.00 1533.00 L 1889.00 1532.00 L 1989.00 1532.00 L 2009.00 1531.00 L 2109.00 1531.00 L 2129.00 1530.00 L 2229.00 1530.00 L 2249.00 1529.00 L 2349.00 1529.00 L 2369.00 1549.00 L 2389.00 1548.00 L 2409.00 1528.00 L 2452.58 1528.00 L 2397.00 1440.00 L 2402.19 1429.00 Z" />
<path id="csg562-023-08" fill="none" stroke="black" stroke-width="1" d="M 2409.00 1528.00 L 2389.00 1548.00 L 2369.00 1549.00 L 2349.00 1529.00 L 2249.00 1529.00 L 2229.00 1530.00 L 2129.00 1530.00 L 2109.00 1531.00 L 2009.00 1531.00 L 1989.00 1532.00 L 1889.00 1532.00 L 1869.00 1533.00 L 1849.00 1533.00 L 1829.00 1553.00 L 1769.00 1553.00 L 1749.00 1533.00 L 1729.00 1534.00 L 1629.00 1534.00 L 1609.00 1535.00 L 1509.00 1535.00 L 1489.00 1536.00 L 1389.00 1536.00 L 1369.00 1537.00 L 1249.00 1537.00 L 1229.00 1538.00 L 1129.00 1538.00 L 1109.00 1539.00 L 1009.00 1539.00 L 989.00 1540.00 L 889.00 1540.00 L 869.00 1541.00 L 749.00 1541.00 L 729.00 1542.00 L 629.00 1542.00 L 609.00 1543.00 L 509.00 1543.00 L 489.00 1544.00 L 455.84 1544.00 L 445.33 1675.33 L 449.00 1679.00 L 489.00 1679.00 L 509.00 1659.00 L 789.00 1659.00 L 809.00 1658.00 L 1229.00 1658.00 L 1249.00 1657.00 L 1669.00 1657.00 L 1689.00 1676.00 L 1709.00 1656.00 L 1849.00 1656.00 L 1869.00 1676.00 L 1889.00 1656.00 L 2109.00 1656.00 L 2129.00 1655.00 L 2532.79 1655.00 L 2452.58 1528.00 Z" />
<path id="csg562-023-09" fill="none" stroke="black" stroke-width="1" d="M 2129.00 1655.00 L 2109.00 1656.00 L 1889.00 1656.00 L 1869.00 1676.00 L 1849.00 1656.00 L 1709.00 1656.00 L 1689.00 1676.00 L 1669.00 1657.00 L 1249.00 1657.00 L 1229.00 1658.00 L 809.00 1658.00 L 789.00 1659.00 L 509.00 1659.00 L 489.00 1679.00 L 449.00 1679.00 L 445.33 1675.33 L 444.00 1692.00 L 396.00 1734.00 L 396.28 1764.00 L 689.00 1764.00 L 709.00 1763.00 L 1009.00 1763.00 L 1029.00 1762.00 L 1349.00 1762.00 L 1369.00 1761.00 L 1669.00 1761.00 L 1689.00 1760.00 L 1729.00 1760.00 L 1749.00 1780.00 L 1789.00 1780.00 L 1809.00 1760.00 L 1909.00 1760.00 L 1929.00 1780.00 L 1949.00 1780.00 L 1969.00 1760.00 L 2009.00 1760.00 L 2029.00 1759.00 L 2329.00 1759.00 L 2349.00 1758.00 L 2597.84 1758.00 L 2532.79 1655.00 Z" />
<path id="csg562-023-10" fill="none" stroke="black" stroke-width="1" d="M 2349.00 1758.00 L 2329.00 1759.00 L 2029.00 1759.00 L 2009.00 1760.00 L 1969.00 1760.00 L 1949.00 1780.00 L 1929.00 1780.00 L 1909.00 1760.00 L 1809.00 1760.00 L 1789.00 1780.00 L 1749.00 1780.00 L 1729.00 1760.00 L 1689.00 1760.00 L 1669.00 1761.00 L 1369.00 1761.00 L 1349.00 1762.00 L 1029.00 1762.00 L 1009.00 1763.00 L 709.00 1763.00 L 689.00 1764.00 L 396.28 1764.00 L 397.32 1875.00 L 469.00 1875.00 L 489.00 1874.00 L 589.00 1874.00 L 609.00 1873.00 L 709.00 1873.00 L 729.00 1872.00 L 809.00 1872.00 L 829.00 1871.00 L 929.00 1871.00 L 949.00 1870.00 L 1049.00 1870.00 L 1069.00 1869.00 L 1089.00 1889.00 L 1109.00 1869.00 L 1169.00 1869.00 L 1189.00 1868.00 L 1269.00 1868.00 L 1289.00 1867.00 L 1389.00 1867.00 L 1409.00 1866.00 L 1509.00 1866.00 L 1529.00 1865.00 L 1629.00 1865.00 L 1649.00 1864.00 L 1729.00 1864.00 L 1749.00 1863.00 L 1829.00 1863.00 L 1849.00 1883.00 L 1869.00 1882.00 L 1889.00 1862.00 L 1969.00 1862.00 L 1989.00 1861.00 L 2069.00 1861.00 L 2089.00 1860.00 L 2189.00 1860.00 L 2209.00 1859.00 L 2309.00 1859.00 L 2329.00 1858.00 L 2429.00 1858.00 L 2449.00 1857.00 L 2529.00 1857.00 L 2549.00 1876.00 L 2569.00 1856.00 L 2569.06 1856.00 L 2613.00 1782.00 L 2597.84 1758.00 Z" />
<path id="csg562-023-11" fill="none" stroke="black" stroke-width="1" d="M 2569.00 1856.00 L 2549.00 1876.00 L 2529.00 1857.00 L 2449.00 1857.00 L 2429.00 1858.00 L 2329.00 1858.00 L 2309.00 1859.00 L 2209.00 1859.00 L 2189.00 1860.00 L 2089.00 1860.00 L 2069.00 1861.00 L 1989.00 1861.00 L 1969.00 1862.00 L 1889.00 1862.00 L 1869.00 1882.00 L 1849.00 1883.00 L 1829.00 1863.00 L 1749.00 1863.00 L 1729.00 1864.00 L 1649.00 1864.00 L 1629.00 1865.00 L 1529.00 1865.00 L 1509.00 1866.00 L 1409.00 1866.00 L 1389.00 1867.00 L 1289.00 1867.00 L 1269.00 1868.00 L 1189.00 1868.00 L 1169.00 1869.00 L 1109.00 1869.00 L 1089.00 1889.00 L 1069.00 1869.00 L 1049.00 1870.00 L 949.00 1870.00 L 929.00 1871.00 L 829.00 1871.00 L 809.00 1872.00 L 729.00 1872.00 L 709.00 1873.00 L 609.00 1873.00 L 589.00 1874.00 L 489.00 1874.00 L 469.00 1875.00 L 397.32 1875.00 L 398.48 1999.00 L 589.00 1999.00 L 609.00 2019.00 L 629.00 1999.00 L 689.00 1999.00 L 709.00 2019.00 L 729.00 1999.00 L 809.00 1999.00 L 829.00 1998.00 L 1249.00 1998.00 L 1269.00 1997.00 L 1389.00 1997.00 L 1409.00 1984.00 L 1429.00 1978.00 L 1449.00 1976.00 L 1469.00 1976.00 L 1489.00 1997.00 L 1549.00 1997.00 L 1569.00 1977.00 L 1609.00 1977.00 L 1629.00 1997.00 L 1709.00 1997.00 L 1729.00 1996.00 L 2149.00 1996.00 L 2169.00 1995.00 L 2469.00 1995.00 L 2489.00 1975.00 L 2509.00 1995.00 L 2542.56 1995.00 L 2481.00 1881.00 L 2556.00 1878.00 L 2569.06 1856.00 Z" />
<path id="csg562-023-12" fill="none" stroke="black" stroke-width="1" d="M 2489.00 1975.00 L 2469.00 1995.00 L 2169.00 1995.00 L 2149.00 1996.00 L 1729.00 1996.00 L 1709.00 1997.00 L 1629.00 1997.00 L 1609.00 1977.00 L 1569.00 1977.00 L 1549.00 1997.00 L 1489.00 1997.00 L 1469.00 1976.00 L 1449.00 1976.00 L 1429.00 1978.00 L 1409.00 1984.00 L 1389.00 1997.00 L 1269.00 1997.00 L 1249.00 1998.00 L 829.00 1998.00 L 809.00 1999.00 L 729.00 1999.00 L 709.00 2019.00 L 689.00 1999.00 L 629.00 1999.00 L 609.00 2019.00 L 589.00 1999.00 L 398.48 1999.00 L 399.00 2055.00 L 406.06 2095.00 L 489.00 2095.00 L 509.00 2094.00 L 629.00 2094.00 L 649.00 2093.00 L 769.00 2093.00 L 789.00 2092.00 L 909.00 2092.00 L 929.00 2091.00 L 1049.00 2091.00 L 1069.00 2090.00 L 1189.00 2090.00 L 1209.00 2089.00 L 1329.00 2089.00 L 1349.00 2088.00 L 1469.00 2088.00 L 1489.00 2087.00 L 1509.00 2087.00 L 1529.00 2107.00 L 1569.00 2107.00 L 1589.00 2087.00 L 1609.00 2087.00 L 1629.00 2106.00 L 1649.00 2106.00 L 1669.00 2086.00 L 1729.00 2086.00 L 1749.00 2085.00 L 1869.00 2085.00 L 1889.00 2084.00 L 2009.00 2084.00 L 2029.00 2103.00 L 2069.00 2103.00 L 2089.00 2083.00 L 2149.00 2083.00 L 2169.00 2082.00 L 2289.00 2082.00 L 2309.00 2081.00 L 2329.00 2081.00 L 2349.00 2121.00 L 2369.00 2081.00 L 2409.00 2081.00 L 2429.00 2101.00 L 2449.00 2100.00 L 2489.00 2100.00 L 2509.00 2080.00 L 2547.45 2080.00 L 2562.00 2031.00 L 2542.56 1995.00 L 2509.00 1995.00 L 2489.00 1975.00 Z" />
<path id="csg562-023-13" fill="none" stroke="black" stroke-width="1" d="M 2509.00 2080.00 L 2489.00 2100.00 L 2449.00 2100.00 L 2429.00 2101.00 L 2409.00 2081.00 L 2369.00 2081.00 L 2349.00 2121.00 L 2329.00 2081.00 L 2309.00 2081.00 L 2289.00 2082.00 L 2169.00 2082.00 L 2149.00 2083.00 L 2089.00 2083.00 L 2069.00 2103.00 L 2029.00 2103.00 L 2009.00 2084.00 L 1889.00 2084.00 L 1869.00 2085.00 L 1749.00 2085.00 L 1729.00 2086.00 L 1669.00 2086.00 L 1649.00 2106.00 L 1629.00 2106.00 L 1609.00 2087.00 L 1589.00 2087.00 L 1569.00 2107.00 L 1529.00 2107.00 L 1509.00 2087.00 L 1489.00 2087.00 L 1469.00 2088.00 L 1349.00 2088.00 L 1329.00 2089.00 L 1209.00 2089.00 L 1189.00 2090.00 L 1069.00 2090.00 L 1049.00 2091.00 L 929.00 2091.00 L 909.00 2092.00 L 789.00 2092.00 L 769.00 2093.00 L 649.00 2093.00 L 629.00 2094.00 L 509.00 2094.00 L 489.00 2095.00 L 406.06 2095.00 L 427.06 2214.00 L 609.00 2214.00 L 629.00 2213.00 L 849.00 2213.00 L 869.00 2212.00 L 1109.00 2212.00 L 1129.00 2211.00 L 1349.00 2211.00 L 1369.00 2210.00 L 1609.00 2210.00 L 1629.00 2209.00 L 1849.00 2209.00 L 1869.00 2208.00 L 2109.00 2208.00 L 2129.00 2207.00 L 2349.00 2207.00 L 2369.00 2206.00 L 2510.05 2206.00 L 2547.45 2080.00 Z" />
<path id="csg562-023-14" fill="none" stroke="black" stroke-width="1" d="M 2369.00 2206.00 L 2349.00 2207.00 L 2129.00 2207.00 L 2109.00 2208.00 L 1869.00 2208.00 L 1849.00 2209.00 L 1629.00 2209.00 L 1609.00 2210.00 L 1369.00 2210.00 L 1349.00 2211.00 L 1129.00 2211.00 L 1109.00 2212.00 L 869.00 2212.00 L 849.00 2213.00 L 629.00 2213.00 L 609.00 2214.00 L 427.06 2214.00 L 435.00 2259.00 L 387.00 2286.00 L 391.52 2324.00 L 469.00 2324.00 L 489.00 2323.00 L 569.00 2323.00 L 589.00 2322.00 L 689.00 2322.00 L 709.00 2321.00 L 769.00 2321.00 L 789.00 2301.00 L 809.00 2320.00 L 909.00 2320.00 L 929.00 2319.00 L 1009.00 2319.00 L 1029.00 2318.00 L 1129.00 2318.00 L 1149.00 2317.00 L 1229.00 2317.00 L 1249.00 2316.00 L 1349.00 2316.00 L 1369.00 2315.00 L 1449.00 2315.00 L 1469.00 2314.00 L 1569.00 2314.00 L 1589.00 2313.00 L 1669.00 2313.00 L 1689.00 2312.00 L 1709.00 2312.00 L 1729.00 2332.00 L 1749.00 2332.00 L 1769.00 2312.00 L 1789.00 2311.00 L 1889.00 2311.00 L 1909.00 2310.00 L 1989.00 2310.00 L 2009.00 2309.00 L 2109.00 2309.00 L 2129.00 2308.00 L 2209.00 2308.00 L 2229.00 2307.00 L 2329.00 2307.00 L 2349.00 2306.00 L 2429.00 2306.00 L 2449.00 2305.00 L 2525.08 2305.00 L 2505.00 2223.00 L 2510.05 2206.00 Z" />
<path id="csg562-023-15" fill="none" stroke="black" stroke-width="1" d="M 789.00 2301.00 L 769.00 2321.00 L 709.00 2321.00 L 689.00 2322.00 L 589.00 2322.00 L 569.00 2323.00 L 489.00 2323.00 L 469.00 2324.00 L 391.52 2324.00 L 405.10 2438.00 L 429.00 2438.00 L 449.00 2458.00 L 469.00 2457.00 L 489.00 2437.00 L 549.00 2437.00 L 569.00 2436.00 L 629.00 2436.00 L 649.00 2435.00 L 709.00 2435.00 L 729.00 2455.00 L 749.00 2454.00 L 769.00 2434.00 L 789.00 2434.00 L 809.00 2454.00 L 829.00 2434.00 L 849.00 2433.00 L 909.00 2433.00 L 929.00 2432.00 L 1009.00 2432.00 L 1029.00 2451.00 L 1049.00 2451.00 L 1069.00 2431.00 L 1089.00 2431.00 L 1109.00 2430.00 L 1189.00 2430.00 L 1209.00 2429.00 L 1289.00 2429.00 L 1309.00 2428.00 L 1369.00 2428.00 L 1389.00 2427.00 L 1469.00 2427.00 L 1489.00 2426.00 L 1569.00 2426.00 L 1589.00 2425.00 L 1609.00 2445.00 L 1629.00 2425.00 L 1649.00 2425.00 L 1669.00 2424.00 L 1749.00 2424.00 L 1769.00 2423.00 L 1829.00 2423.00 L 1849.00 2422.00 L 1909.00 2422.00 L 1929.00 2442.00 L 1949.00 2441.00 L 1969.00 2421.00 L 2029.00 2421.00 L 2049.00 2420.00 L 2109.00 2420.00 L 2129.00 2419.00 L 2209.00 2419.00 L 2229.00 2418.00 L 2309.00 2418.00 L 2329.00 2417.00 L 2389.00 2417.00 L 2409.00 2416.00 L 2489.00 2416.00 L 2509.00 2415.00 L 2552.02 2415.00 L 2525.08 2305.00 L 2449.00 2305.00 L 2429.00 2306.00 L 2349.00 2306.00 L 2329.00 2307.00 L 2229.00 2307.00 L 2209.00 2308.00 L 2129.00 2308.00 L 2109.00 2309.00 L 2009.00 2309.00 L 1989.00 2310.00 L 1909.00 2310.00 L 1889.00 2311.00 L 1789.00 2311.00 L 1769.00 2312.00 L 1749.00 2332.00 L 1729.00 2332.00 L 1709.00 2312.00 L 1689.00 2312.00 L 1669.00 2313.00 L 1589.00 2313.00 L 1569.00 2314.00 L 1469.00 2314.00 L 1449.00 2315.00 L 1369.00 2315.00 L 1349.00 2316.00 L 1249.00 2316.00 L 1229.00 2317.00 L 1149.00 2317.00 L 1129.00 2318.00 L 1029.00 2318.00 L 1009.00 2319.00 L 929.00 2319.00 L 909.00 2320.00 L 809.00 2320.00 L 789.00 2301.00 Z" />
<path id="csg562-023-16" fill="none" stroke="black" stroke-width="1" d="M 2509.00 2415.00 L 2489.00 2416.00 L 2409.00 2416.00 L 2389.00 2417.00 L 2329.00 2417.00 L 2309.00 2418.00 L 2229.00 2418.00 L 2209.00 2419.00 L 2129.00 2419.00 L 2109.00 2420.00 L 2049.00 2420.00 L 2029.00 2421.00 L 1969.00 2421.00 L 1949.00 2441.00 L 1929.00 2442.00 L 1909.00 2422.00 L 1849.00 2422.00 L 1829.00 2423.00 L 1769.00 2423.00 L 1749.00 2424.00 L 1669.00 2424.00 L 1649.00 2425.00 L 1629.00 2425.00 L 1609.00 2445.00 L 1589.00 2425.00 L 1569.00 2426.00 L 1489.00 2426.00 L 1469.00 2427.00 L 1389.00 2427.00 L 1369.00 2428.00 L 1309.00 2428.00 L 1289.00 2429.00 L 1209.00 2429.00 L 1189.00 2430.00 L 1109.00 2430.00 L 1089.00 2431.00 L 1069.00 2431.00 L 1049.00 2451.00 L 1029.00 2451.00 L 1009.00 2432.00 L 929.00 2432.00 L 909.00 2433.00 L 849.00 2433.00 L 829.00 2434.00 L 809.00 2454.00 L 789.00 2434.00 L 769.00 2434.00 L 749.00 2454.00 L 729.00 2455.00 L 709.00 2435.00 L 649.00 2435.00 L 629.00 2436.00 L 569.00 2436.00 L 549.00 2437.00 L 489.00 2437.00 L 469.00 2457.00 L 449.00 2458.00 L 429.00 2438.00 L 405.10 2438.00 L 417.48 2542.00 L 449.00 2542.00 L 469.00 2541.00 L 529.00 2541.00 L 549.00 2540.00 L 609.00 2540.00 L 629.00 2539.00 L 709.00 2539.00 L 729.00 2538.00 L 769.00 2538.00 L 789.00 2558.00 L 809.00 2537.00 L 869.00 2537.00 L 889.00 2536.00 L 969.00 2536.00 L 989.00 2535.00 L 1049.00 2535.00 L 1069.00 2534.00 L 1129.00 2534.00 L 1149.00 2533.00 L 1229.00 2533.00 L 1249.00 2532.00 L 1309.00 2532.00 L 1329.00 2531.00 L 1389.00 2531.00 L 1409.00 2530.00 L 1469.00 2530.00 L 1489.00 2529.00 L 1569.00 2529.00 L 1589.00 2528.00 L 1649.00 2528.00 L 1669.00 2527.00 L 1729.00 2527.00 L 1749.00 2526.00 L 1829.00 2526.00 L 1849.00 2525.00 L 1909.00 2525.00 L 1929.00 2524.00 L 1989.00 2524.00 L 2009.00 2523.00 L 2089.00 2523.00 L 2109.00 2522.00 L 2169.00 2522.00 L 2189.00 2541.00 L 2229.00 2541.00 L 2249.00 2521.00 L 2269.00 2520.00 L 2329.00 2520.00 L 2349.00 2519.00 L 2429.00 2519.00 L 2449.00 2518.00 L 2509.00 2518.00 L 2529.00 2517.00 L 2577.00 2517.00 L 2552.02 2415.00 Z" />
<path id="csg562-023-17" fill="none" stroke="black" stroke-width="1" d="M 2529.00 2517.00 L 2509.00 2518.00 L 2449.00 2518.00 L 2429.00 2519.00 L 2349.00 2519.00 L 2329.00 2520.00 L 2269.00 2520.00 L 2249.00 2521.00 L 2229.00 2541.00 L 2189.00 2541.00 L 2169.00 2522.00 L 2109.00 2522.00 L 2089.00 2523.00 L 2009.00 2523.00 L 1989.00 2524.00 L 1929.00 2524.00 L 1909.00 2525.00 L 1849.00 2525.00 L 1829.00 2526.00 L 1749.00 2526.00 L 1729.00 2527.00 L 1669.00 2527.00 L 1649.00 2528.00 L 1589.00 2528.00 L 1569.00 2529.00 L 1489.00 2529.00 L 1469.00 2530.00 L 1409.00 2530.00 L 1389.00 2531.00 L 1329.00 2531.00 L 1309.00 2532.00 L 1249.00 2532.00 L 1229.00 2533.00 L 1149.00 2533.00 L 1129.00 2534.00 L 1069.00 2534.00 L 1049.00 2535.00 L 989.00 2535.00 L 969.00 2536.00 L 889.00 2536.00 L 869.00 2537.00 L 809.00 2537.00 L 789.00 2558.00 L 769.00 2538.00 L 729.00 2538.00 L 709.00 2539.00 L 629.00 2539.00 L 609.00 2540.00 L 549.00 2540.00 L 529.00 2541.00 L 469.00 2541.00 L 449.00 2542.00 L 417.48 2542.00 L 430.80 2653.91 L 449.00 2653.00 L 509.00 2653.00 L 529.00 2652.00 L 589.00 2652.00 L 609.00 2651.00 L 669.00 2651.00 L 689.00 2650.00 L 749.00 2650.00 L 769.00 2649.00 L 829.00 2649.00 L 849.00 2648.00 L 909.00 2648.00 L 929.00 2667.00 L 949.00 2647.00 L 989.00 2647.00 L 1009.00 2646.00 L 1069.00 2646.00 L 1089.00 2645.00 L 1149.00 2645.00 L 1169.00 2644.00 L 1229.00 2644.00 L 1249.00 2643.00 L 1309.00 2643.00 L 1329.00 2642.00 L 1389.00 2642.00 L 1409.00 2641.00 L 1469.00 2641.00 L 1489.00 2640.00 L 1549.00 2640.00 L 1569.00 2639.00 L 1629.00 2639.00 L 1649.00 2638.00 L 1709.00 2638.00 L 1729.00 2637.00 L 1789.00 2637.00 L 1809.00 2636.00 L 1849.00 2636.00 L 1869.00 2656.00 L 1889.00 2655.00 L 1909.00 2635.00 L 1949.00 2635.00 L 1969.00 2634.00 L 2029.00 2634.00 L 2049.00 2633.00 L 2069.00 2633.00 L 2089.00 2653.00 L 2109.00 2633.00 L 2129.00 2632.00 L 2189.00 2632.00 L 2209.00 2631.00 L 2269.00 2631.00 L 2289.00 2630.00 L 2349.00 2630.00 L 2369.00 2629.00 L 2409.00 2629.00 L 2429.00 2669.00 L 2449.00 2648.00 L 2469.00 2628.00 L 2509.00 2628.00 L 2509.66 2627.97 L 2445.00 2550.00 L 2577.00 2517.00 Z" />
<path id="csg562-023-18" fill="none" stroke="black" stroke-width="1" d="M 2509.66 2627.97 L 2509.00 2628.00 L 2469.00 2628.00 L 2449.00 2648.00 L 2429.00 2669.00 L 2409.00 2629.00 L 2369.00 2629.00 L 2349.00 2630.00 L 2289.00 2630.00 L 2269.00 2631.00 L 2209.00 2631.00 L 2189.00 2632.00 L 2129.00 2632.00 L 2109.00 2633.00 L 2089.00 2653.00 L 2069.00 2633.00 L 2049.00 2633.00 L 2029.00 2634.00 L 1969.00 2634.00 L 1949.00 2635.00 L 1909.00 2635.00 L 1889.00 2655.00 L 1869.00 2656.00 L 1849.00 2636.00 L 1809.00 2636.00 L 1789.00 2637.00 L 1729.00 2637.00 L 1709.00 2638.00 L 1649.00 2638.00 L 1629.00 2639.00 L 1569.00 2639.00 L 1549.00 2640.00 L 1489.00 2640.00 L 1469.00 2641.00 L 1409.00 2641.00 L 1389.00 2642.00 L 1329.00 2642.00 L 1309.00 2643.00 L 1249.00 2643.00 L 1229.00 2644.00 L 1169.00 2644.00 L 1149.00 2645.00 L 1089.00 2645.00 L 1069.00 2646.00 L 1009.00 2646.00 L 989.00 2647.00 L 949.00 2647.00 L 929.00 2667.00 L 909.00 2648.00 L 849.00 2648.00 L 829.00 2649.00 L 769.00 2649.00 L 749.00 2650.00 L 689.00 2650.00 L 669.00 2651.00 L 609.00 2651.00 L 589.00 2652.00 L 529.00 2652.00 L 509.00 2653.00 L 449.00 2653.00 L 430.80 2653.91 L 432.00 2664.00 L 528.00 2655.00 L 534.00 2769.00 L 524.36 2772.00 L 549.00 2772.00 L 569.00 2771.00 L 629.00 2771.00 L 649.00 2770.00 L 729.00 2770.00 L 749.00 2769.00 L 809.00 2769.00 L 829.00 2768.00 L 849.00 2788.00 L 869.00 2788.00 L 889.00 2768.00 L 909.00 2768.00 L 929.00 2767.00 L 989.00 2767.00 L 1009.00 2766.00 L 1089.00 2766.00 L 1109.00 2765.00 L 1169.00 2765.00 L 1189.00 2764.00 L 1269.00 2764.00 L 1289.00 2763.00 L 1349.00 2763.00 L 1369.00 2762.00 L 1389.00 2762.00 L 1409.00 2782.00 L 1429.00 2782.00 L 1449.00 2762.00 L 1469.00 2761.00 L 1529.00 2761.00 L 1549.00 2760.00 L 1629.00 2760.00 L 1649.00 2759.00 L 1709.00 2759.00 L 1729.00 2758.00 L 1809.00 2758.00 L 1829.00 2757.00 L 1889.00 2757.00 L 1909.00 2756.00 L 1989.00 2756.00 L 2009.00 2755.00 L 2069.00 2755.00 L 2089.00 2754.00 L 2169.00 2754.00 L 2189.00 2753.00 L 2249.00 2753.00 L 2269.00 2752.00 L 2349.00 2752.00 L 2369.00 2751.00 L 2429.00 2751.00 L 2449.00 2750.00 L 2529.00 2750.00 L 2549.00 2749.00 L 2562.62 2749.00 L 2547.00 2673.00 L 2509.66 2627.97 Z" />
<path id="csg562-023-19" fill="none" stroke="black" stroke-width="1" d="M 2549.00 2749.00 L 2529.00 2750.00 L 2449.00 2750.00 L 2429.00 2751.00 L 2369.00 2751.00 L 2349.00 2752.00 L 2269.00 2752.00 L 2249.00 2753.00 L 2189.00 2753.00 L 2169.00 2754.00 L 2089.00 2754.00 L 2069.00 2755.00 L 2009.00 2755.00 L 1989.00 2756.00 L 1909.00 2756.00 L 1889.00 2757.00 L 1829.00 2757.00 L 1809.00 2758.00 L 1729.00 2758.00 L 1709.00 2759.00 L 1649.00 2759.00 L 1629.00 2760.00 L 1549.00 2760.00 L 1529.00 2761.00 L 1469.00 2761.00 L 1449.00 2762.00 L 1429.00 2782.00 L 1409.00 2782.00 L 1389.00 2762.00 L 1369.00 2762.00 L 1349.00 2763.00 L 1289.00 2763.00 L 1269.00 2764.00 L 1189.00 2764.00 L 1169.00 2765.00 L 1109.00 2765.00 L 1089.00 2766.00 L 1009.00 2766.00 L 989.00 2767.00 L 929.00 2767.00 L 909.00 2768.00 L 889.00 2768.00 L 869.00 2788.00 L 849.00 2788.00 L 829.00 2768.00 L 809.00 2769.00 L 749.00 2769.00 L 729.00 2770.00 L 649.00 2770.00 L 629.00 2771.00 L 569.00 2771.00 L 549.00 2772.00 L 524.36 2772.00 L 399.00 2811.00 L 418.47 2885.00 L 489.00 2885.00 L 509.00 2884.00 L 629.00 2884.00 L 649.00 2883.00 L 749.00 2883.00 L 769.00 2882.00 L 889.00 2882.00 L 909.00 2881.00 L 949.00 2881.00 L 969.00 2901.00 L 989.00 2881.00 L 1009.00 2881.00 L 1029.00 2880.00 L 1149.00 2880.00 L 1169.00 2879.00 L 1289.00 2879.00 L 1309.00 2878.00 L 1409.00 2878.00 L 1429.00 2877.00 L 1549.00 2877.00 L 1569.00 2876.00 L 1669.00 2876.00 L 1689.00 2875.00 L 1809.00 2875.00 L 1829.00 2874.00 L 1949.00 2874.00 L 1969.00 2873.00 L 2069.00 2873.00 L 2089.00 2872.00 L 2209.00 2872.00 L 2229.00 2871.00 L 2329.00 2871.00 L 2349.00 2870.00 L 2469.00 2870.00 L 2489.00 2869.00 L 2587.27 2869.00 L 2562.62 2749.00 Z" />
<path id="csg562-023-20" fill="none" stroke="black" stroke-width="1" d="M 2489.00 2869.00 L 2469.00 2870.00 L 2349.00 2870.00 L 2329.00 2871.00 L 2229.00 2871.00 L 2209.00 2872.00 L 2089.00 2872.00 L 2069.00 2873.00 L 1969.00 2873.00 L 1949.00 2874.00 L 1829.00 2874.00 L 1809.00 2875.00 L 1689.00 2875.00 L 1669.00 2876.00 L 1569.00 2876.00 L 1549.00 2877.00 L 1429.00 2877.00 L 1409.00 2878.00 L 1309.00 2878.00 L 1289.00 2879.00 L 1169.00 2879.00 L 1149.00 2880.00 L 1029.00 2880.00 L 1009.00 2881.00 L 989.00 2881.00 L 969.00 2901.00 L 949.00 2881.00 L 909.00 2881.00 L 889.00 2882.00 L 769.00 2882.00 L 749.00 2883.00 L 649.00 2883.00 L 629.00 2884.00 L 509.00 2884.00 L 489.00 2885.00 L 418.47 2885.00 L 444.00 2982.00 L 510.00 2976.00 L 509.25 2987.00 L 569.00 2987.00 L 589.00 2986.00 L 669.00 2986.00 L 689.00 2985.00 L 769.00 2985.00 L 789.00 2984.00 L 869.00 2984.00 L 889.00 2983.00 L 969.00 2983.00 L 989.00 2982.00 L 1069.00 2982.00 L 1089.00 2981.00 L 1169.00 2981.00 L 1189.00 2980.00 L 1269.00 2980.00 L 1289.00 2979.00 L 1369.00 2979.00 L 1389.00 2978.00 L 1469.00 2978.00 L 1489.00 2977.00 L 1569.00 2977.00 L 1589.00 2976.00 L 1669.00 2976.00 L 1689.00 2975.00 L 1769.00 2975.00 L 1789.00 2974.00 L 1869.00 2974.00 L 1889.00 2993.00 L 1909.00 2993.00 L 1929.00 2973.00 L 1989.00 2973.00 L 2009.00 2992.00 L 2049.00 2992.00 L 2069.00 2972.00 L 2089.00 2972.00 L 2109.00 2971.00 L 2189.00 2971.00 L 2209.00 2970.00 L 2289.00 2970.00 L 2309.00 2969.00 L 2389.00 2969.00 L 2409.00 2968.00 L 2489.00 2968.00 L 2509.00 2967.00 L 2573.25 2967.00 L 2592.00 2892.00 L 2587.27 2869.00 Z" />
<path id="csg562-023-21" fill="none" stroke="black" stroke-width="1" d="M 2509.00 2967.00 L 2489.00 2968.00 L 2409.00 2968.00 L 2389.00 2969.00 L 2309.00 2969.00 L 2289.00 2970.00 L 2209.00 2970.00 L 2189.00 2971.00 L 2109.00 2971.00 L 2089.00 2972.00 L 2069.00 2972.00 L 2049.00 2992.00 L 2009.00 2992.00 L 1989.00 2973.00 L 1929.00 2973.00 L 1909.00 2993.00 L 1889.00 2993.00 L 1869.00 2974.00 L 1789.00 2974.00 L 1769.00 2975.00 L 1689.00 2975.00 L 1669.00 2976.00 L 1589.00 2976.00 L 1569.00 2977.00 L 1489.00 2977.00 L 1469.00 2978.00 L 1389.00 2978.00 L 1369.00 2979.00 L 1289.00 2979.00 L 1269.00 2980.00 L 1189.00 2980.00 L 1169.00 2981.00 L 1089.00 2981.00 L 1069.00 2982.00 L 989.00 2982.00 L 969.00 2983.00 L 889.00 2983.00 L 869.00 2984.00 L 789.00 2984.00 L 769.00 2985.00 L 689.00 2985.00 L 669.00 2986.00 L 589.00 2986.00 L 569.00 2987.00 L 509.25 2987.00 L 501.48 3101.00 L 529.00 3101.00 L 549.00 3100.00 L 689.00 3100.00 L 709.00 3099.00 L 849.00 3099.00 L 869.00 3098.00 L 1009.00 3098.00 L 1029.00 3097.00 L 1169.00 3097.00 L 1189.00 3096.00 L 1269.00 3096.00 L 1289.00 3116.00 L 1309.00 3116.00 L 1329.00 3096.00 L 1349.00 3095.00 L 1489.00 3095.00 L 1509.00 3094.00 L 1649.00 3094.00 L 1669.00 3093.00 L 1809.00 3093.00 L 1829.00 3112.00 L 1849.00 3112.00 L 1869.00 3092.00 L 1969.00 3092.00 L 1989.00 3091.00 L 2129.00 3091.00 L 2149.00 3090.00 L 2289.00 3090.00 L 2309.00 3089.00 L 2449.00 3089.00 L 2469.00 3088.00 L 2558.05 3088.00 L 2562.00 3012.00 L 2573.25 2967.00 Z" />
<path id="csg562-023-22" fill="none" stroke="black" stroke-width="1" d="M 2469.00 3088.00 L 2449.00 3089.00 L 2309.00 3089.00 L 2289.00 3090.00 L 2149.00 3090.00 L 2129.00 3091.00 L 1989.00 3091.00 L 1969.00 3092.00 L 1869.00 3092.00 L 1849.00 3112.00 L 1829.00 3112.00 L 1809.00 3093.00 L 1669.00 3093.00 L 1649.00 3094.00 L 1509.00 3094.00 L 1489.00 3095.00 L 1349.00 3095.00 L 1329.00 3096.00 L 1309.00 3116.00 L 1289.00 3116.00 L 1269.00 3096.00 L 1189.00 3096.00 L 1169.00 3097.00 L 1029.00 3097.00 L 1009.00 3098.00 L 869.00 3098.00 L 849.00 3099.00 L 709.00 3099.00 L 689.00 3100.00 L 549.00 3100.00 L 529.00 3101.00 L 501.48 3101.00 L 501.00 3108.00 L 432.00 3150.00 L 437.78 3210.00 L 449.00 3210.00 L 469.00 3230.00 L 489.00 3230.00 L 509.00 3210.00 L 549.00 3210.00 L 569.00 3209.00 L 749.00 3209.00 L 769.00 3208.00 L 909.00 3208.00 L 929.00 3228.00 L 949.00 3208.00 L 969.00 3207.00 L 1129.00 3207.00 L 1149.00 3206.00 L 1329.00 3206.00 L 1349.00 3205.00 L 1529.00 3205.00 L 1549.00 3204.00 L 1709.00 3204.00 L 1729.00 3203.00 L 1909.00 3203.00 L 1929.00 3202.00 L 2109.00 3202.00 L 2129.00 3201.00 L 2209.00 3201.00 L 2229.00 3221.00 L 2249.00 3201.00 L 2289.00 3201.00 L 2309.00 3200.00 L 2489.00 3200.00 L 2509.00 3199.00 L 2552.29 3199.00 L 2558.05 3088.00 Z" />
<path id="csg562-023-23" fill="none" stroke="black" stroke-width="1" d="M 2509.00 3199.00 L 2489.00 3200.00 L 2309.00 3200.00 L 2289.00 3201.00 L 2249.00 3201.00 L 2229.00 3221.00 L 2209.00 3201.00 L 2129.00 3201.00 L 2109.00 3202.00 L 1929.00 3202.00 L 1909.00 3203.00 L 1729.00 3203.00 L 1709.00 3204.00 L 1549.00 3204.00 L 1529.00 3205.00 L 1349.00 3205.00 L 1329.00 3206.00 L 1149.00 3206.00 L 1129.00 3207.00 L 969.00 3207.00 L 949.00 3208.00 L 929.00 3228.00 L 909.00 3208.00 L 769.00 3208.00 L 749.00 3209.00 L 569.00 3209.00 L 549.00 3210.00 L 509.00 3210.00 L 489.00 3230.00 L 469.00 3230.00 L 449.00 3210.00 L 437.78 3210.00 L 447.90 3315.00 L 509.00 3315.00 L 529.00 3314.00 L 649.00 3314.00 L 669.00 3313.00 L 789.00 3313.00 L 809.00 3312.00 L 929.00 3312.00 L 949.00 3311.00 L 1069.00 3311.00 L 1089.00 3310.00 L 1209.00 3310.00 L 1229.00 3309.00 L 1349.00 3309.00 L 1369.00 3308.00 L 1449.00 3308.00 L 1469.00 3328.00 L 1489.00 3328.00 L 1509.00 3307.00 L 1629.00 3307.00 L 1649.00 3306.00 L 1769.00 3306.00 L 1789.00 3305.00 L 1809.00 3325.00 L 1829.00 3325.00 L 1849.00 3305.00 L 1909.00 3305.00 L 1929.00 3304.00 L 2049.00 3304.00 L 2069.00 3303.00 L 2189.00 3303.00 L 2209.00 3302.00 L 2349.00 3302.00 L 2369.00 3301.00 L 2489.00 3301.00 L 2509.00 3300.00 L 2526.59 3300.00 L 2550.00 3243.00 L 2552.29 3199.00 Z" />
<path id="csg562-023-24" fill="none" stroke="black" stroke-width="1" d="M 2509.00 3300.00 L 2489.00 3301.00 L 2369.00 3301.00 L 2349.00 3302.00 L 2209.00 3302.00 L 2189.00 3303.00 L 2069.00 3303.00 L 2049.00 3304.00 L 1929.00 3304.00 L 1909.00 3305.00 L 1849.00 3305.00 L 1829.00 3325.00 L 1809.00 3325.00 L 1789.00 3305.00 L 1769.00 3306.00 L 1649.00 3306.00 L 1629.00 3307.00 L 1509.00 3307.00 L 1489.00 3328.00 L 1469.00 3328.00 L 1449.00 3308.00 L 1369.00 3308.00 L 1349.00 3309.00 L 1229.00 3309.00 L 1209.00 3310.00 L 1089.00 3310.00 L 1069.00 3311.00 L 949.00 3311.00 L 929.00 3312.00 L 809.00 3312.00 L 789.00 3313.00 L 669.00 3313.00 L 649.00 3314.00 L 529.00 3314.00 L 509.00 3315.00 L 447.90 3315.00 L 456.00 3399.00 L 542.55 3416.00 L 629.00 3416.00 L 649.00 3415.00 L 749.00 3415.00 L 769.00 3414.00 L 889.00 3414.00 L 909.00 3413.00 L 1009.00 3413.00 L 1029.00 3412.00 L 1149.00 3412.00 L 1169.00 3411.00 L 1269.00 3411.00 L 1289.00 3410.00 L 1409.00 3410.00 L 1429.00 3409.00 L 1449.00 3429.00 L 1469.00 3409.00 L 1529.00 3409.00 L 1549.00 3408.00 L 1669.00 3408.00 L 1689.00 3407.00 L 1709.00 3427.00 L 1736.50 3427.00 L 1749.26 3426.74 L 1769.00 3407.00 L 1787.94 3425.94 L 1810.48 3425.45 L 1829.00 3406.00 L 1929.00 3406.00 L 1949.00 3405.00 L 2069.00 3405.00 L 2089.00 3404.00 L 2189.00 3404.00 L 2209.00 3403.00 L 2329.00 3403.00 L 2349.00 3402.00 L 2449.00 3402.00 L 2469.00 3401.00 L 2485.11 3401.00 L 2526.59 3300.00 Z" />
</svg>
