<?xml version="1.0" standalone="no"?>
<!DOCTYPE svg PUBLIC "-//W3C//DTD SVG 1.1//EN" "http://www.w3.org/Graphics/SVG/1.1/DTD/svg11.dtd">
<svg width="46.22222in" height="69.333336in" viewBox="0 0 3328 4992" xmlns="http://www.w3.org/2000/svg" version="1.1">
<path id="csg562-019-01" fill="none" stroke="black" stroke-width="1" d="M 1916.00 762.00 L 1802.00 784.00 L 1368.00 790.00 L 1324.00 770.00 L 1022.00 786.00 L 806.00 794.00 L 732.00 774.00 L 524.00 806.00 L 420.00 784.00 L 416.75 880.99 L 424.00 877.00 L 864.00 877.00 L 884.00 897.00 L 904.00 897.00 L 924.00 877.00 L 1024.00 877.00 L 1044.00 897.00 L 1064.00 877.00 L 1144.00 877.00 L 1164.00 876.00 L 1884.00 876.00 L 1904.00 875.00 L 2543.04 875.00 L 2490.00 798.00 L 1916.00 762.00 Z" />
<path id="csg562-019-02" fill="none" stroke="black" stroke-width="1" d="M 1904.00 875.00 L 1884.00 876.00 L 1164.00 876.00 L 1144.00 877.00 L 1064.00 877.00 L 1044.00 897.00 L 1024.00 877.00 L 924.00 877.00 L 904.00 897.00 L 884.00 897.00 L 864.00 877.00 L 424.00 877.00 L 416.75 880.99 L 413.12 988.98 L 424.00 983.00 L 1444.00 983.00 L 1464.00 1003.00 L 1504.00 1003.00 L 1524.00 983.00 L 1984.00 983.00 L 2004.00 963.00 L 2024.00 963.00 L 2044.00 983.00 L 2551.00 983.00 L 2552.00 888.00 L 2543.04 875.00 Z" />
<path id="csg562-019-03" fill="none" stroke="black" stroke-width="1" d="M 2004.00 963.00 L 1984.00 983.00 L 1524.00 983.00 L 1504.00 1003.00 L 1464.00 1003.00 L 1444.00 983.00 L 424.00 983.00 L 413.12 988.98 L 410.00 1082.00 L 410.00 1110.00 L 424.00 1103.00 L 624.00 1103.00 L 644.00 1123.00 L 664.00 1103.00 L 764.00 1103.00 L 784.00 1123.00 L 804.00 1123.00 L 824.00 1103.00 L 844.00 1123.00 L 864.00 1103.00 L 1144.00 1103.00 L 1164.00 1104.00 L 1904.00 1104.00 L 1924.00 1105.00 L 2304.00 1105.00 L 2324.00 1085.00 L 2344.00 1085.00 L 2364.00 1105.00 L 2478.53 1105.00 L 2550.00 1078.00 L 2551.00 983.00 L 2044.00 983.00 L 2024.00 963.00 Z" />
<path id="csg562-019-04" fill="none" stroke="black" stroke-width="1" d="M 2324.00 1085.00 L 2304.00 1105.00 L 1924.00 1105.00 L 1904.00 1104.00 L 1164.00 1104.00 L 1144.00 1103.00 L 864.00 1103.00 L 844.00 1123.00 L 824.00 1103.00 L 804.00 1123.00 L 784.00 1123.00 L 764.00 1103.00 L 664.00 1103.00 L 644.00 1123.00 L 624.00 1103.00 L 424.00 1103.00 L 410.00 1110.00 L 410.00 1216.00 L 424.00 1209.00 L 564.00 1209.00 L 584.00 1210.00 L 744.00 1210.00 L 764.00 1211.00 L 924.00 1211.00 L 944.00 1212.00 L 1104.00 1212.00 L 1124.00 1213.00 L 1284.00 1213.00 L 1304.00 1214.00 L 1464.00 1214.00 L 1484.00 1215.00 L 1644.00 1215.00 L 1664.00 1216.00 L 1824.00 1216.00 L 1844.00 1217.00 L 2004.00 1217.00 L 2024.00 1218.00 L 2184.00 1218.00 L 2204.00 1219.00 L 2244.00 1219.00 L 2264.00 1239.00 L 2284.00 1239.00 L 2304.00 1219.00 L 2364.00 1219.00 L 2384.00 1220.00 L 2480.57 1220.00 L 2460.00 1112.00 L 2478.53 1105.00 L 2364.00 1105.00 L 2344.00 1085.00 Z" />
<path id="csg562-019-05" fill="none" stroke="black" stroke-width="1" d="M 424.00 1209.00 L 410.00 1216.00 L 410.00 1333.00 L 424.00 1326.00 L 844.00 1326.00 L 864.00 1346.00 L 884.00 1327.00 L 1150.31 1327.00 L 1238.00 1312.00 L 1570.00 1320.00 L 2140.00 1328.00 L 2500.00 1322.00 L 2480.57 1220.00 L 2384.00 1220.00 L 2364.00 1219.00 L 2304.00 1219.00 L 2284.00 1239.00 L 2264.00 1239.00 L 2244.00 1219.00 L 2204.00 1219.00 L 2184.00 1218.00 L 2024.00 1218.00 L 2004.00 1217.00 L 1844.00 1217.00 L 1824.00 1216.00 L 1664.00 1216.00 L 1644.00 1215.00 L 1484.00 1215.00 L 1464.00 1214.00 L 1304.00 1214.00 L 1284.00 1213.00 L 1124.00 1213.00 L 1104.00 1212.00 L 944.00 1212.00 L 924.00 1211.00 L 764.00 1211.00 L 744.00 1210.00 L 584.00 1210.00 L 564.00 1209.00 Z" />
<path id="csg562-019-06" fill="none" stroke="black" stroke-width="1" d="M 424.00 1326.00 L 410.00 1333.00 L 410.00 1406.00 L 484.00 1418.00 L 600.00 1414.00 L 595.78 1452.00 L 604.00 1452.00 L 624.00 1453.00 L 824.00 1453.00 L 844.00 1454.00 L 1044.00 1454.00 L 1064.00 1455.00 L 1166.50 1455.00 L 1090.00 1454.00 L 1086.00 1338.00 L 1150.31 1327.00 L 884.00 1327.00 L 864.00 1346.00 L 844.00 1326.00 Z" />
<path id="csg562-019-07" fill="none" stroke="black" stroke-width="1" d="M 595.78 1452.00 L 588.00 1522.00 L 587.61 1551.00 L 744.00 1551.00 L 764.00 1550.00 L 1104.00 1550.00 L 1124.00 1549.00 L 1464.00 1549.00 L 1484.00 1548.00 L 1664.00 1548.00 L 1684.00 1528.00 L 1704.00 1548.00 L 1804.00 1548.00 L 1824.00 1547.00 L 2164.00 1547.00 L 2184.00 1546.00 L 2491.58 1546.00 L 2456.00 1464.00 L 2366.60 1461.00 L 2344.00 1461.00 L 2324.00 1460.00 L 2124.00 1460.00 L 2104.00 1459.00 L 1924.00 1459.00 L 1904.00 1458.00 L 1704.00 1458.00 L 1684.00 1457.00 L 1586.50 1457.00 L 1396.00 1458.00 L 1166.50 1455.00 L 1064.00 1455.00 L 1044.00 1454.00 L 844.00 1454.00 L 824.00 1453.00 L 624.00 1453.00 L 604.00 1452.00 Z" />
<path id="csg562-019-08" fill="none" stroke="black" stroke-width="1" d="M 1684.00 1528.00 L 1664.00 1548.00 L 1484.00 1548.00 L 1464.00 1549.00 L 1124.00 1549.00 L 1104.00 1550.00 L 764.00 1550.00 L 744.00 1551.00 L 587.61 1551.00 L 586.17 1659.00 L 984.00 1659.00 L 1004.00 1679.00 L 1024.00 1659.00 L 1584.00 1659.00 L 1604.00 1679.00 L 1624.00 1679.00 L 1644.00 1659.00 L 1984.00 1659.00 L 2004.00 1679.00 L 2024.00 1679.00 L 2044.00 1659.00 L 2492.25 1659.00 L 2502.00 1570.00 L 2491.58 1546.00 L 2184.00 1546.00 L 2164.00 1547.00 L 1824.00 1547.00 L 1804.00 1548.00 L 1704.00 1548.00 L 1684.00 1528.00 Z" />
<path id="csg562-019-09" fill="none" stroke="black" stroke-width="1" d="M 586.17 1659.00 L 586.00 1672.00 L 418.00 1710.00 L 418.84 1774.58 L 424.00 1772.00 L 824.00 1772.00 L 844.00 1812.00 L 864.00 1792.00 L 884.00 1792.00 L 904.00 1772.00 L 2486.28 1772.00 L 2486.00 1716.00 L 2492.25 1659.00 L 2044.00 1659.00 L 2024.00 1679.00 L 2004.00 1679.00 L 1984.00 1659.00 L 1644.00 1659.00 L 1624.00 1679.00 L 1604.00 1679.00 L 1584.00 1659.00 L 1024.00 1659.00 L 1004.00 1679.00 L 984.00 1659.00 Z" />
<path id="csg562-019-10" fill="none" stroke="black" stroke-width="1" d="M 424.00 1772.00 L 418.84 1774.58 L 420.31 1886.85 L 424.00 1885.00 L 884.00 1885.00 L 904.00 1905.00 L 924.00 1905.00 L 944.00 1885.00 L 1764.00 1885.00 L 1784.00 1865.00 L 1804.00 1885.00 L 2486.84 1885.00 L 2486.28 1772.00 L 904.00 1772.00 L 884.00 1792.00 L 864.00 1792.00 L 844.00 1812.00 L 824.00 1772.00 Z" />
<path id="csg562-019-11" fill="none" stroke="black" stroke-width="1" d="M 1784.00 1865.00 L 1764.00 1885.00 L 944.00 1885.00 L 924.00 1905.00 L 904.00 1905.00 L 884.00 1885.00 L 424.00 1885.00 L 420.31 1886.85 L 421.65 1990.17 L 424.00 1989.00 L 704.00 1989.00 L 724.00 1990.00 L 1004.00 1990.00 L 1024.00 1991.00 L 1324.00 1991.00 L 1344.00 1992.00 L 1624.00 1992.00 L 1644.00 1993.00 L 1664.00 2013.00 L 1684.00 1993.00 L 1944.00 1993.00 L 1964.00 1994.00 L 1984.00 1994.00 L 2004.00 2014.00 L 2024.00 1994.00 L 2084.00 1994.00 L 2104.00 1974.00 L 2124.00 1994.00 L 2224.00 1994.00 L 2244.00 2014.00 L 2264.00 2015.00 L 2284.00 1995.00 L 2364.00 1995.00 L 2384.00 2015.00 L 2404.00 2015.00 L 2424.00 1995.00 L 2487.39 1995.00 L 2486.84 1885.00 L 1804.00 1885.00 L 1784.00 1865.00 Z" />
<path id="csg562-019-12" fill="none" stroke="black" stroke-width="1" d="M 2104.00 1974.00 L 2084.00 1994.00 L 2024.00 1994.00 L 2004.00 2014.00 L 1984.00 1994.00 L 1964.00 1994.00 L 1944.00 1993.00 L 1684.00 1993.00 L 1664.00 2013.00 L 1644.00 1993.00 L 1624.00 1992.00 L 1344.00 1992.00 L 1324.00 1991.00 L 1024.00 1991.00 L 1004.00 1990.00 L 724.00 1990.00 L 704.00 1989.00 L 424.00 1989.00 L 421.65 1990.17 L 423.22 2110.39 L 424.00 2110.00 L 864.00 2110.00 L 884.00 2111.00 L 1324.00 2111.00 L 1344.00 2112.00 L 1804.00 2112.00 L 1824.00 2113.00 L 2264.00 2113.00 L 2284.00 2114.00 L 2487.98 2114.00 L 2487.39 1995.00 L 2424.00 1995.00 L 2404.00 2015.00 L 2384.00 2015.00 L 2364.00 1995.00 L 2284.00 1995.00 L 2264.00 2015.00 L 2244.00 2014.00 L 2224.00 1994.00 L 2124.00 1994.00 L 2104.00 1974.00 Z" />
<path id="csg562-019-13" fill="none" stroke="black" stroke-width="1" d="M 424.00 2110.00 L 423.22 2110.39 L 424.00 2170.00 L 417.83 2223.09 L 424.00 2220.00 L 884.00 2220.00 L 904.00 2221.00 L 1364.00 2221.00 L 1384.00 2222.00 L 1844.00 2222.00 L 1864.00 2223.00 L 2344.00 2223.00 L 2364.00 2224.00 L 2516.39 2224.00 L 2488.00 2118.00 L 2487.98 2114.00 L 2284.00 2114.00 L 2264.00 2113.00 L 1824.00 2113.00 L 1804.00 2112.00 L 1344.00 2112.00 L 1324.00 2111.00 L 884.00 2111.00 L 864.00 2110.00 Z" />
<path id="csg562-019-14" fill="none" stroke="black" stroke-width="1" d="M 424.00 2220.00 L 417.83 2223.09 L 404.00 2342.00 L 404.10 2342.95 L 424.00 2333.00 L 984.00 2333.00 L 1004.00 2353.00 L 1024.00 2333.00 L 1144.00 2333.00 L 1164.00 2334.00 L 1324.00 2334.00 L 1344.00 2354.00 L 1364.00 2334.00 L 1564.00 2334.00 L 1584.00 2314.00 L 1604.00 2334.00 L 1904.00 2334.00 L 1924.00 2335.00 L 2546.12 2335.00 L 2516.39 2224.00 L 2364.00 2224.00 L 2344.00 2223.00 L 1864.00 2223.00 L 1844.00 2222.00 L 1384.00 2222.00 L 1364.00 2221.00 L 904.00 2221.00 L 884.00 2220.00 Z" />
<path id="csg562-019-15" fill="none" stroke="black" stroke-width="1" d="M 1584.00 2314.00 L 1564.00 2334.00 L 1364.00 2334.00 L 1344.00 2354.00 L 1324.00 2334.00 L 1164.00 2334.00 L 1144.00 2333.00 L 1024.00 2333.00 L 1004.00 2353.00 L 984.00 2333.00 L 424.00 2333.00 L 404.10 2342.95 L 414.52 2443.22 L 424.00 2438.00 L 444.00 2438.00 L 464.00 2458.00 L 484.00 2458.00 L 504.00 2438.00 L 884.00 2438.00 L 904.00 2437.00 L 1364.00 2437.00 L 1384.00 2436.00 L 1504.00 2436.00 L 1524.00 2456.00 L 1544.00 2436.00 L 1844.00 2436.00 L 1864.00 2435.00 L 1964.00 2435.00 L 1984.00 2455.00 L 2004.00 2455.00 L 2024.00 2435.00 L 2224.00 2435.00 L 2244.00 2455.00 L 2264.00 2455.00 L 2284.00 2435.00 L 2324.00 2435.00 L 2344.00 2474.00 L 2364.00 2474.00 L 2384.00 2434.00 L 2548.00 2434.00 L 2548.00 2342.00 L 2546.12 2335.00 L 1924.00 2335.00 L 1904.00 2334.00 L 1604.00 2334.00 L 1584.00 2314.00 Z" />
<path id="csg562-019-16" fill="none" stroke="black" stroke-width="1" d="M 2384.00 2434.00 L 2364.00 2474.00 L 2344.00 2474.00 L 2324.00 2435.00 L 2284.00 2435.00 L 2264.00 2455.00 L 2244.00 2455.00 L 2224.00 2435.00 L 2024.00 2435.00 L 2004.00 2455.00 L 1984.00 2455.00 L 1964.00 2435.00 L 1864.00 2435.00 L 1844.00 2436.00 L 1544.00 2436.00 L 1524.00 2456.00 L 1504.00 2436.00 L 1384.00 2436.00 L 1364.00 2437.00 L 904.00 2437.00 L 884.00 2438.00 L 504.00 2438.00 L 484.00 2458.00 L 464.00 2458.00 L 444.00 2438.00 L 424.00 2438.00 L 414.52 2443.22 L 426.13 2555.00 L 824.00 2555.00 L 844.00 2575.00 L 864.00 2575.00 L 884.00 2555.00 L 1104.00 2555.00 L 1124.00 2575.00 L 1144.00 2555.00 L 2084.00 2555.00 L 2104.00 2556.00 L 2396.77 2556.00 L 2398.00 2548.00 L 2548.00 2530.00 L 2548.00 2434.00 Z" />
<path id="csg562-019-17" fill="none" stroke="black" stroke-width="1" d="M 426.13 2555.00 L 436.00 2650.00 L 435.58 2662.00 L 604.00 2662.00 L 624.00 2663.00 L 824.00 2663.00 L 844.00 2664.00 L 1044.00 2664.00 L 1064.00 2665.00 L 1084.00 2665.00 L 1104.00 2685.00 L 1124.00 2685.00 L 1144.00 2665.00 L 1264.00 2665.00 L 1284.00 2666.00 L 1484.00 2666.00 L 1504.00 2667.00 L 1564.00 2667.00 L 1584.00 2687.00 L 1604.00 2667.00 L 1684.00 2667.00 L 1704.00 2668.00 L 1904.00 2668.00 L 1924.00 2669.00 L 2124.00 2669.00 L 2144.00 2670.00 L 2344.00 2670.00 L 2364.00 2671.00 L 2379.08 2671.00 L 2396.77 2556.00 L 2104.00 2556.00 L 2084.00 2555.00 L 1144.00 2555.00 L 1124.00 2575.00 L 1104.00 2555.00 L 884.00 2555.00 L 864.00 2575.00 L 844.00 2575.00 L 824.00 2555.00 Z" />
<path id="csg562-019-18" fill="none" stroke="black" stroke-width="1" d="M 435.58 2662.00 L 431.40 2780.00 L 924.00 2780.00 L 944.00 2779.00 L 1084.00 2779.00 L 1104.00 2799.00 L 1124.00 2799.00 L 1144.00 2779.00 L 1464.00 2779.00 L 1484.00 2778.00 L 2004.00 2778.00 L 2024.00 2777.00 L 2502.31 2777.00 L 2488.13 2671.00 L 2474.25 2671.00 L 2378.00 2678.00 L 2379.08 2671.00 L 2364.00 2671.00 L 2344.00 2670.00 L 2144.00 2670.00 L 2124.00 2669.00 L 1924.00 2669.00 L 1904.00 2668.00 L 1704.00 2668.00 L 1684.00 2667.00 L 1604.00 2667.00 L 1584.00 2687.00 L 1564.00 2667.00 L 1504.00 2667.00 L 1484.00 2666.00 L 1284.00 2666.00 L 1264.00 2665.00 L 1144.00 2665.00 L 1124.00 2685.00 L 1104.00 2685.00 L 1084.00 2665.00 L 1064.00 2665.00 L 1044.00 2664.00 L 844.00 2664.00 L 824.00 2663.00 L 624.00 2663.00 L 604.00 2662.00 Z" />
<path id="csg562-019-19" fill="none" stroke="black" stroke-width="1" d="M 2024.00 2777.00 L 2004.00 2778.00 L 1484.00 2778.00 L 1464.00 2779.00 L 1144.00 2779.00 L 1124.00 2799.00 L 1104.00 2799.00 L 1084.00 2779.00 L 944.00 2779.00 L 924.00 2780.00 L 431.40 2780.00 L 428.00 2876.00 L 427.77 2888.00 L 644.00 2888.00 L 664.00 2908.00 L 684.00 2888.00 L 1304.00 2888.00 L 1324.00 2868.00 L 1364.00 2868.00 L 1384.00 2888.00 L 1744.00 2888.00 L 1764.00 2887.00 L 2517.03 2887.00 L 2502.31 2777.00 Z" />
<path id="csg562-019-20" fill="none" stroke="black" stroke-width="1" d="M 1324.00 2868.00 L 1304.00 2888.00 L 684.00 2888.00 L 664.00 2908.00 L 644.00 2888.00 L 427.77 2888.00 L 425.73 2993.00 L 1644.00 2993.00 L 1664.00 3013.00 L 1684.00 2993.00 L 2064.00 2993.00 L 2084.00 2994.00 L 2204.00 2994.00 L 2224.00 3014.00 L 2244.00 2994.00 L 2528.06 2994.00 L 2530.00 2984.00 L 2517.03 2887.00 L 1764.00 2887.00 L 1744.00 2888.00 L 1384.00 2888.00 L 1364.00 2868.00 Z" />
<path id="csg562-019-21" fill="none" stroke="black" stroke-width="1" d="M 425.73 2993.00 L 423.56 3105.24 L 424.00 3105.00 L 744.00 3105.00 L 764.00 3085.00 L 784.00 3085.00 L 804.00 3105.00 L 1204.00 3105.00 L 1224.00 3125.00 L 1244.00 3125.00 L 1264.00 3105.00 L 1844.00 3105.00 L 1864.00 3104.00 L 2506.77 3104.00 L 2528.06 2994.00 L 2244.00 2994.00 L 2224.00 3014.00 L 2204.00 2994.00 L 2084.00 2994.00 L 2064.00 2993.00 L 1684.00 2993.00 L 1664.00 3013.00 L 1644.00 2993.00 Z" />
<path id="csg562-019-22" fill="none" stroke="black" stroke-width="1" d="M 764.00 3085.00 L 744.00 3105.00 L 424.00 3105.00 L 423.56 3105.24 L 421.44 3214.41 L 424.00 3213.00 L 604.00 3213.00 L 624.00 3233.00 L 644.00 3233.00 L 664.00 3213.00 L 904.00 3213.00 L 924.00 3212.00 L 1404.00 3212.00 L 1424.00 3211.00 L 1904.00 3211.00 L 1924.00 3231.00 L 1944.00 3210.00 L 2424.00 3210.00 L 2444.00 3209.00 L 2486.45 3209.00 L 2506.77 3104.00 L 1864.00 3104.00 L 1844.00 3105.00 L 1264.00 3105.00 L 1244.00 3125.00 L 1224.00 3125.00 L 1204.00 3105.00 L 804.00 3105.00 L 784.00 3085.00 Z" />
<path id="csg562-019-23" fill="none" stroke="black" stroke-width="1" d="M 2444.00 3209.00 L 2424.00 3210.00 L 1944.00 3210.00 L 1924.00 3231.00 L 1904.00 3211.00 L 1424.00 3211.00 L 1404.00 3212.00 L 924.00 3212.00 L 904.00 3213.00 L 664.00 3213.00 L 644.00 3233.00 L 624.00 3233.00 L 604.00 3213.00 L 424.00 3213.00 L 421.44 3214.41 L 419.21 3329.64 L 424.00 3327.00 L 604.00 3327.00 L 624.00 3326.00 L 824.00 3326.00 L 844.00 3325.00 L 1044.00 3325.00 L 1064.00 3324.00 L 1124.00 3324.00 L 1144.00 3344.00 L 1164.00 3344.00 L 1184.00 3296.00 L 1204.00 3300.00 L 1224.00 3302.00 L 1244.00 3324.00 L 1264.00 3324.00 L 1284.00 3323.00 L 1464.00 3323.00 L 1484.00 3322.00 L 1684.00 3322.00 L 1704.00 3321.00 L 1904.00 3321.00 L 1924.00 3320.00 L 2124.00 3320.00 L 2144.00 3319.00 L 2204.00 3319.00 L 2224.00 3339.00 L 2244.00 3319.00 L 2264.00 3339.00 L 2284.00 3319.00 L 2344.00 3319.00 L 2364.00 3318.00 L 2491.35 3318.00 L 2482.00 3232.00 L 2486.45 3209.00 Z" />
<path id="csg562-019-24" fill="none" stroke="black" stroke-width="1" d="M 1184.00 3296.00 L 1164.00 3344.00 L 1144.00 3344.00 L 1124.00 3324.00 L 1064.00 3324.00 L 1044.00 3325.00 L 844.00 3325.00 L 824.00 3326.00 L 624.00 3326.00 L 604.00 3327.00 L 424.00 3327.00 L 419.21 3329.64 L 418.00 3392.00 L 462.00 3428.00 L 696.00 3440.00 L 1062.00 3432.00 L 1070.40 3438.00 L 1084.00 3438.00 L 1104.00 3458.00 L 1124.00 3438.00 L 1144.00 3438.00 L 1164.00 3437.00 L 1212.00 3437.00 L 1554.00 3428.00 L 1692.60 3435.00 L 1704.00 3435.00 L 1724.00 3434.00 L 1875.33 3434.00 L 2122.00 3426.00 L 2502.00 3416.00 L 2491.35 3318.00 L 2364.00 3318.00 L 2344.00 3319.00 L 2284.00 3319.00 L 2264.00 3339.00 L 2244.00 3319.00 L 2224.00 3339.00 L 2204.00 3319.00 L 2144.00 3319.00 L 2124.00 3320.00 L 1924.00 3320.00 L 1904.00 3321.00 L 1704.00 3321.00 L 1684.00 3322.00 L 1484.00 3322.00 L 1464.00 3323.00 L 1284.00 3323.00 L 1264.00 3324.00 L 1244.00 3324.00 L 1224.00 3302.00 L 1204.00 3300.00 L 1184.00 3296.00 Z" />
</svg>
