<?xml version="1.0" standalone="no"?>
<!DOCTYPE svg PUBLIC "-//W3C//DTD SVG 1.1//EN" "http://www.w3.org/Graphics/SVG/1.1/DTD/svg11.dtd">
<svg width="46.22222in" height="69.333336in" viewBox="0 0 3328 4992" xmlns="http://www.w3.org/2000/svg" version="1.1">
<path id="csg562-005-01" fill="none" stroke="black" stroke-width="1" d="M 382.24 774.00 L 354.00 870.00 L 357.64 889.00 L 374.00 880.00 L 414.00 880.00 L 434.00 900.00 L 474.00 900.00 L 494.00 880.00 L 1194.00 880.00 L 1214.00 879.00 L 2054.00 879.00 L 2074.00 878.00 L 2553.00 878.00 L 2466.00 849.00 L 2436.00 798.00 L 2175.00 780.00 L 1911.00 786.00 L 1851.60 777.00 L 1728.00 777.00 L 1476.00 795.00 L 1435.89 776.00 L 1176.43 776.00 L 1104.00 789.00 L 1035.00 777.00 L 845.00 775.00 L 754.00 775.00 L 734.00 774.00 Z" />
<path id="csg562-005-02" fill="none" stroke="black" stroke-width="1" d="M 2074.00 878.00 L 2054.00 879.00 L 1214.00 879.00 L 1194.00 880.00 L 494.00 880.00 L 474.00 900.00 L 434.00 900.00 L 414.00 880.00 L 374.00 880.00 L 357.64 889.00 L 376.21 986.00 L 1114.00 986.00 L 1134.00 987.00 L 1894.00 987.00 L 1914.00 988.00 L 2531.89 988.00 L 2583.00 888.00 L 2553.00 878.00 Z" />
<path id="csg562-005-03" fill="none" stroke="black" stroke-width="1" d="M 376.21 986.00 L 381.00 1011.00 L 373.74 1118.15 L 374.00 1118.00 L 854.00 1118.00 L 874.00 1117.00 L 1374.00 1117.00 L 1394.00 1116.00 L 1754.00 1116.00 L 1774.00 1096.00 L 1814.00 1096.00 L 1834.00 1116.00 L 1874.00 1116.00 L 1894.00 1115.00 L 2154.00 1115.00 L 2174.00 1135.00 L 2194.00 1135.00 L 2214.00 1115.00 L 2394.00 1115.00 L 2414.00 1114.00 L 2518.20 1114.00 L 2514.00 1023.00 L 2531.89 988.00 L 1914.00 988.00 L 1894.00 987.00 L 1134.00 987.00 L 1114.00 986.00 Z" />
<path id="csg562-005-04" fill="none" stroke="black" stroke-width="1" d="M 1774.00 1096.00 L 1754.00 1116.00 L 1394.00 1116.00 L 1374.00 1117.00 L 874.00 1117.00 L 854.00 1118.00 L 374.00 1118.00 L 373.74 1118.15 L 366.13 1230.33 L 374.00 1226.00 L 534.00 1226.00 L 554.00 1225.00 L 714.00 1225.00 L 734.00 1224.00 L 894.00 1224.00 L 914.00 1223.00 L 1094.00 1223.00 L 1114.00 1222.00 L 1274.00 1222.00 L 1294.00 1221.00 L 1454.00 1221.00 L 1474.00 1220.00 L 1654.00 1220.00 L 1674.00 1219.00 L 1834.00 1219.00 L 1854.00 1218.00 L 2014.00 1218.00 L 2034.00 1217.00 L 2214.00 1217.00 L 2234.00 1216.00 L 2374.00 1216.00 L 2394.00 1236.00 L 2414.00 1215.00 L 2522.86 1215.00 L 2518.20 1114.00 L 2414.00 1114.00 L 2394.00 1115.00 L 2214.00 1115.00 L 2194.00 1135.00 L 2174.00 1135.00 L 2154.00 1115.00 L 1894.00 1115.00 L 1874.00 1116.00 L 1834.00 1116.00 L 1814.00 1096.00 Z" />
<path id="csg562-005-05" fill="none" stroke="black" stroke-width="1" d="M 2414.00 1215.00 L 2394.00 1236.00 L 2374.00 1216.00 L 2234.00 1216.00 L 2214.00 1217.00 L 2034.00 1217.00 L 2014.00 1218.00 L 1854.00 1218.00 L 1834.00 1219.00 L 1674.00 1219.00 L 1654.00 1220.00 L 1474.00 1220.00 L 1454.00 1221.00 L 1294.00 1221.00 L 1274.00 1222.00 L 1114.00 1222.00 L 1094.00 1223.00 L 914.00 1223.00 L 894.00 1224.00 L 734.00 1224.00 L 714.00 1225.00 L 554.00 1225.00 L 534.00 1226.00 L 374.00 1226.00 L 366.13 1230.33 L 357.96 1350.86 L 374.00 1326.00 L 454.00 1326.00 L 474.00 1346.00 L 514.00 1346.00 L 534.00 1366.00 L 554.00 1346.00 L 594.00 1346.00 L 614.00 1345.00 L 854.00 1345.00 L 874.00 1344.00 L 1114.00 1344.00 L 1134.00 1343.00 L 1374.00 1343.00 L 1394.00 1342.00 L 1634.00 1342.00 L 1654.00 1341.00 L 1894.00 1341.00 L 1914.00 1340.00 L 2154.00 1340.00 L 2174.00 1339.00 L 2414.00 1339.00 L 2434.00 1338.00 L 2516.57 1338.00 L 2523.00 1218.00 L 2522.86 1215.00 Z" />
<path id="csg562-005-06" fill="none" stroke="black" stroke-width="1" d="M 374.00 1326.00 L 357.96 1350.86 L 357.00 1365.00 L 369.50 1452.48 L 374.00 1450.00 L 614.00 1450.00 L 634.00 1449.00 L 894.00 1449.00 L 914.00 1448.00 L 954.00 1448.00 L 974.00 1408.00 L 994.00 1428.00 L 1014.00 1448.00 L 1174.00 1448.00 L 1194.00 1447.00 L 1454.00 1447.00 L 1474.00 1446.00 L 1734.00 1446.00 L 1754.00 1445.00 L 2014.00 1445.00 L 2034.00 1444.00 L 2294.00 1444.00 L 2314.00 1443.00 L 2500.70 1443.00 L 2514.00 1386.00 L 2516.57 1338.00 L 2434.00 1338.00 L 2414.00 1339.00 L 2174.00 1339.00 L 2154.00 1340.00 L 1914.00 1340.00 L 1894.00 1341.00 L 1654.00 1341.00 L 1634.00 1342.00 L 1394.00 1342.00 L 1374.00 1343.00 L 1134.00 1343.00 L 1114.00 1344.00 L 874.00 1344.00 L 854.00 1345.00 L 614.00 1345.00 L 594.00 1346.00 L 554.00 1346.00 L 534.00 1366.00 L 514.00 1346.00 L 474.00 1346.00 L 454.00 1326.00 Z" />
<path id="csg562-005-07" fill="none" stroke="black" stroke-width="1" d="M 974.00 1408.00 L 954.00 1448.00 L 914.00 1448.00 L 894.00 1449.00 L 634.00 1449.00 L 614.00 1450.00 L 374.00 1450.00 L 369.50 1452.48 L 381.00 1533.00 L 380.42 1559.00 L 514.00 1559.00 L 534.00 1558.00 L 674.00 1558.00 L 694.00 1557.00 L 834.00 1557.00 L 854.00 1576.00 L 874.00 1556.00 L 994.00 1556.00 L 1014.00 1555.00 L 1154.00 1555.00 L 1174.00 1554.00 L 1314.00 1554.00 L 1334.00 1553.00 L 1474.00 1553.00 L 1494.00 1552.00 L 1634.00 1552.00 L 1654.00 1551.00 L 1794.00 1551.00 L 1814.00 1550.00 L 1954.00 1550.00 L 1974.00 1549.00 L 2114.00 1549.00 L 2134.00 1548.00 L 2154.00 1568.00 L 2194.00 1568.00 L 2214.00 1548.00 L 2234.00 1548.00 L 2254.00 1568.00 L 2274.00 1568.00 L 2294.00 1547.00 L 2434.00 1547.00 L 2454.00 1546.00 L 2476.67 1546.00 L 2500.70 1443.00 L 2314.00 1443.00 L 2294.00 1444.00 L 2034.00 1444.00 L 2014.00 1445.00 L 1754.00 1445.00 L 1734.00 1446.00 L 1474.00 1446.00 L 1454.00 1447.00 L 1194.00 1447.00 L 1174.00 1448.00 L 1014.00 1448.00 L 994.00 1428.00 L 974.00 1408.00 Z" />
<path id="csg562-005-08" fill="none" stroke="black" stroke-width="1" d="M 2454.00 1546.00 L 2434.00 1547.00 L 2294.00 1547.00 L 2274.00 1568.00 L 2254.00 1568.00 L 2234.00 1548.00 L 2214.00 1548.00 L 2194.00 1568.00 L 2154.00 1568.00 L 2134.00 1548.00 L 2114.00 1549.00 L 1974.00 1549.00 L 1954.00 1550.00 L 1814.00 1550.00 L 1794.00 1551.00 L 1654.00 1551.00 L 1634.00 1552.00 L 1494.00 1552.00 L 1474.00 1553.00 L 1334.00 1553.00 L 1314.00 1554.00 L 1174.00 1554.00 L 1154.00 1555.00 L 1014.00 1555.00 L 994.00 1556.00 L 874.00 1556.00 L 854.00 1576.00 L 834.00 1557.00 L 694.00 1557.00 L 674.00 1558.00 L 534.00 1558.00 L 514.00 1559.00 L 380.42 1559.00 L 377.71 1681.00 L 454.00 1681.00 L 474.00 1680.00 L 574.00 1680.00 L 594.00 1679.00 L 674.00 1679.00 L 694.00 1678.00 L 794.00 1678.00 L 814.00 1677.00 L 914.00 1677.00 L 934.00 1676.00 L 1014.00 1676.00 L 1034.00 1675.00 L 1134.00 1675.00 L 1154.00 1674.00 L 1234.00 1674.00 L 1254.00 1673.00 L 1274.00 1673.00 L 1294.00 1693.00 L 1314.00 1693.00 L 1334.00 1673.00 L 1354.00 1673.00 L 1374.00 1672.00 L 1434.00 1672.00 L 1454.00 1692.00 L 1474.00 1672.00 L 1494.00 1671.00 L 1574.00 1671.00 L 1594.00 1670.00 L 1694.00 1670.00 L 1714.00 1689.00 L 1734.00 1669.00 L 1814.00 1669.00 L 1834.00 1668.00 L 1914.00 1668.00 L 1934.00 1667.00 L 2014.00 1667.00 L 2034.00 1687.00 L 2054.00 1686.00 L 2074.00 1686.00 L 2094.00 1666.00 L 2134.00 1666.00 L 2154.00 1665.00 L 2174.00 1685.00 L 2194.00 1685.00 L 2214.00 1665.00 L 2254.00 1665.00 L 2274.00 1664.00 L 2374.00 1664.00 L 2394.00 1663.00 L 2474.00 1663.00 L 2494.00 1662.00 L 2509.12 1662.00 L 2472.00 1566.00 L 2476.67 1546.00 Z" />
<path id="csg562-005-09" fill="none" stroke="black" stroke-width="1" d="M 2494.00 1662.00 L 2474.00 1663.00 L 2394.00 1663.00 L 2374.00 1664.00 L 2274.00 1664.00 L 2254.00 1665.00 L 2214.00 1665.00 L 2194.00 1685.00 L 2174.00 1685.00 L 2154.00 1665.00 L 2134.00 1666.00 L 2094.00 1666.00 L 2074.00 1686.00 L 2054.00 1686.00 L 2034.00 1687.00 L 2014.00 1667.00 L 1934.00 1667.00 L 1914.00 1668.00 L 1834.00 1668.00 L 1814.00 1669.00 L 1734.00 1669.00 L 1714.00 1689.00 L 1694.00 1670.00 L 1594.00 1670.00 L 1574.00 1671.00 L 1494.00 1671.00 L 1474.00 1672.00 L 1454.00 1692.00 L 1434.00 1672.00 L 1374.00 1672.00 L 1354.00 1673.00 L 1334.00 1673.00 L 1314.00 1693.00 L 1294.00 1693.00 L 1274.00 1673.00 L 1254.00 1673.00 L 1234.00 1674.00 L 1154.00 1674.00 L 1134.00 1675.00 L 1034.00 1675.00 L 1014.00 1676.00 L 934.00 1676.00 L 914.00 1677.00 L 814.00 1677.00 L 794.00 1678.00 L 694.00 1678.00 L 674.00 1679.00 L 594.00 1679.00 L 574.00 1680.00 L 474.00 1680.00 L 454.00 1681.00 L 377.71 1681.00 L 375.31 1789.00 L 554.00 1789.00 L 574.00 1788.00 L 774.00 1788.00 L 794.00 1787.00 L 974.00 1787.00 L 994.00 1786.00 L 1134.00 1786.00 L 1154.00 1806.00 L 1174.00 1806.00 L 1194.00 1786.00 L 1214.00 1785.00 L 1354.00 1785.00 L 1374.00 1805.00 L 1394.00 1765.00 L 1414.00 1765.00 L 1434.00 1764.00 L 1454.00 1784.00 L 1614.00 1784.00 L 1634.00 1783.00 L 1834.00 1783.00 L 1854.00 1782.00 L 2054.00 1782.00 L 2074.00 1781.00 L 2254.00 1781.00 L 2274.00 1780.00 L 2334.00 1780.00 L 2354.00 1800.00 L 2414.00 1800.00 L 2434.00 1780.00 L 2474.00 1780.00 L 2494.00 1779.00 L 2554.36 1779.00 L 2509.12 1662.00 Z" />
<path id="csg562-005-10" fill="none" stroke="black" stroke-width="1" d="M 1434.00 1764.00 L 1414.00 1765.00 L 1394.00 1765.00 L 1374.00 1805.00 L 1354.00 1785.00 L 1214.00 1785.00 L 1194.00 1786.00 L 1174.00 1806.00 L 1154.00 1806.00 L 1134.00 1786.00 L 994.00 1786.00 L 974.00 1787.00 L 794.00 1787.00 L 774.00 1788.00 L 574.00 1788.00 L 554.00 1789.00 L 375.31 1789.00 L 372.94 1895.53 L 374.00 1895.00 L 1314.00 1895.00 L 1334.00 1915.00 L 1354.00 1915.00 L 1374.00 1895.00 L 2477.25 1895.00 L 2529.00 1872.00 L 2559.00 1791.00 L 2554.36 1779.00 L 2494.00 1779.00 L 2474.00 1780.00 L 2434.00 1780.00 L 2414.00 1800.00 L 2354.00 1800.00 L 2334.00 1780.00 L 2274.00 1780.00 L 2254.00 1781.00 L 2074.00 1781.00 L 2054.00 1782.00 L 1854.00 1782.00 L 1834.00 1783.00 L 1634.00 1783.00 L 1614.00 1784.00 L 1454.00 1784.00 L 1434.00 1764.00 Z" />
<path id="csg562-005-11" fill="none" stroke="black" stroke-width="1" d="M 374.00 1895.00 L 372.94 1895.53 L 370.47 2006.94 L 374.00 2005.00 L 574.00 2005.00 L 594.00 2004.00 L 794.00 2004.00 L 814.00 2003.00 L 854.00 2003.00 L 874.00 2023.00 L 894.00 2003.00 L 1014.00 2003.00 L 1034.00 2002.00 L 1254.00 2002.00 L 1274.00 2001.00 L 1474.00 2001.00 L 1494.00 2000.00 L 1694.00 2000.00 L 1714.00 2019.00 L 1774.00 2019.00 L 1794.00 1999.00 L 1934.00 1999.00 L 1954.00 1998.00 L 2154.00 1998.00 L 2174.00 1997.00 L 2374.00 1997.00 L 2394.00 1996.00 L 2478.85 1996.00 L 2448.00 1908.00 L 2477.25 1895.00 L 1374.00 1895.00 L 1354.00 1915.00 L 1334.00 1915.00 L 1314.00 1895.00 Z" />
<path id="csg562-005-12" fill="none" stroke="black" stroke-width="1" d="M 2394.00 1996.00 L 2374.00 1997.00 L 2174.00 1997.00 L 2154.00 1998.00 L 1954.00 1998.00 L 1934.00 1999.00 L 1794.00 1999.00 L 1774.00 2019.00 L 1714.00 2019.00 L 1694.00 2000.00 L 1494.00 2000.00 L 1474.00 2001.00 L 1274.00 2001.00 L 1254.00 2002.00 L 1034.00 2002.00 L 1014.00 2003.00 L 894.00 2003.00 L 874.00 2023.00 L 854.00 2003.00 L 814.00 2003.00 L 794.00 2004.00 L 594.00 2004.00 L 574.00 2005.00 L 374.00 2005.00 L 370.47 2006.94 L 367.90 2122.35 L 374.00 2119.00 L 1394.00 2119.00 L 1414.00 2118.00 L 2134.00 2118.00 L 2154.00 2138.00 L 2174.00 2138.00 L 2194.00 2118.00 L 2454.00 2118.00 L 2474.00 2117.00 L 2521.26 2117.00 L 2478.85 1996.00 Z" />
<path id="csg562-005-13" fill="none" stroke="black" stroke-width="1" d="M 2474.00 2117.00 L 2454.00 2118.00 L 2194.00 2118.00 L 2174.00 2138.00 L 2154.00 2138.00 L 2134.00 2118.00 L 1414.00 2118.00 L 1394.00 2119.00 L 374.00 2119.00 L 367.90 2122.35 L 366.00 2208.00 L 366.57 2224.09 L 374.00 2220.00 L 1334.00 2220.00 L 1354.00 2240.00 L 1374.00 2240.00 L 1394.00 2220.00 L 2506.76 2220.00 L 2550.00 2199.00 L 2521.26 2117.00 Z" />
<path id="csg562-005-14" fill="none" stroke="black" stroke-width="1" d="M 374.00 2220.00 L 366.57 2224.09 L 370.42 2332.79 L 374.00 2331.00 L 754.00 2331.00 L 774.00 2332.00 L 1154.00 2332.00 L 1174.00 2333.00 L 1554.00 2333.00 L 1574.00 2334.00 L 1954.00 2334.00 L 1974.00 2335.00 L 2374.00 2335.00 L 2394.00 2336.00 L 2463.28 2336.00 L 2445.00 2250.00 L 2506.76 2220.00 L 1394.00 2220.00 L 1374.00 2240.00 L 1354.00 2240.00 L 1334.00 2220.00 Z" />
<path id="csg562-005-15" fill="none" stroke="black" stroke-width="1" d="M 374.00 2331.00 L 370.42 2332.79 L 374.32 2443.00 L 2034.00 2443.00 L 2054.00 2444.00 L 2486.24 2444.00 L 2463.28 2336.00 L 2394.00 2336.00 L 2374.00 2335.00 L 1974.00 2335.00 L 1954.00 2334.00 L 1574.00 2334.00 L 1554.00 2333.00 L 1174.00 2333.00 L 1154.00 2332.00 L 774.00 2332.00 L 754.00 2331.00 Z" />
<path id="csg562-005-16" fill="none" stroke="black" stroke-width="1" d="M 374.32 2443.00 L 378.00 2547.00 L 378.03 2552.00 L 634.00 2552.00 L 654.00 2572.00 L 674.00 2571.00 L 694.00 2571.00 L 714.00 2551.00 L 954.00 2551.00 L 974.00 2550.00 L 1034.00 2550.00 L 1054.00 2570.00 L 1074.00 2570.00 L 1094.00 2550.00 L 1274.00 2550.00 L 1294.00 2549.00 L 1574.00 2549.00 L 1594.00 2548.00 L 1894.00 2548.00 L 1914.00 2547.00 L 2194.00 2547.00 L 2214.00 2546.00 L 2507.93 2546.00 L 2486.24 2444.00 L 2054.00 2444.00 L 2034.00 2443.00 Z" />
<path id="csg562-005-17" fill="none" stroke="black" stroke-width="1" d="M 2214.00 2546.00 L 2194.00 2547.00 L 1914.00 2547.00 L 1894.00 2548.00 L 1594.00 2548.00 L 1574.00 2549.00 L 1294.00 2549.00 L 1274.00 2550.00 L 1094.00 2550.00 L 1074.00 2570.00 L 1054.00 2570.00 L 1034.00 2550.00 L 974.00 2550.00 L 954.00 2551.00 L 714.00 2551.00 L 694.00 2571.00 L 674.00 2571.00 L 654.00 2572.00 L 634.00 2552.00 L 378.03 2552.00 L 378.61 2657.00 L 1174.00 2657.00 L 1194.00 2656.00 L 2014.00 2656.00 L 2034.00 2655.00 L 2414.00 2655.00 L 2434.00 2675.00 L 2454.00 2675.00 L 2474.00 2655.00 L 2514.00 2655.00 L 2526.00 2631.00 L 2507.93 2546.00 Z" />
<path id="csg562-005-18" fill="none" stroke="black" stroke-width="1" d="M 2034.00 2655.00 L 2014.00 2656.00 L 1194.00 2656.00 L 1174.00 2657.00 L 378.61 2657.00 L 379.22 2767.00 L 1314.00 2767.00 L 1334.00 2768.00 L 1554.00 2768.00 L 1574.00 2788.00 L 1594.00 2768.00 L 2294.00 2768.00 L 2314.00 2769.00 L 2457.00 2769.00 L 2514.00 2655.00 L 2474.00 2655.00 L 2454.00 2675.00 L 2434.00 2675.00 L 2414.00 2655.00 Z" />
<path id="csg562-005-19" fill="none" stroke="black" stroke-width="1" d="M 379.22 2767.00 L 379.85 2881.00 L 934.00 2881.00 L 954.00 2901.00 L 974.00 2881.00 L 1814.00 2881.00 L 1834.00 2901.00 L 1854.00 2881.00 L 2475.41 2881.00 L 2442.00 2799.00 L 2457.00 2769.00 L 2314.00 2769.00 L 2294.00 2768.00 L 1594.00 2768.00 L 1574.00 2788.00 L 1554.00 2768.00 L 1334.00 2768.00 L 1314.00 2767.00 Z" />
<path id="csg562-005-20" fill="none" stroke="black" stroke-width="1" d="M 379.85 2881.00 L 380.42 2985.00 L 554.00 2985.00 L 574.00 2984.00 L 754.00 2984.00 L 774.00 2983.00 L 974.00 2983.00 L 994.00 2982.00 L 1174.00 2982.00 L 1194.00 2981.00 L 1394.00 2981.00 L 1414.00 2980.00 L 1494.00 2980.00 L 1514.00 3000.00 L 1554.00 3000.00 L 1574.00 2980.00 L 1594.00 2980.00 L 1614.00 2979.00 L 1634.00 2979.00 L 1654.00 2980.00 L 1674.00 2964.00 L 1694.00 2964.00 L 1714.00 2979.00 L 1774.00 2979.00 L 1794.00 2999.00 L 1814.00 2998.00 L 1834.00 2978.00 L 2014.00 2978.00 L 2034.00 2977.00 L 2214.00 2977.00 L 2234.00 2976.00 L 2434.00 2976.00 L 2443.24 2975.54 L 2508.00 2961.00 L 2475.41 2881.00 L 1854.00 2881.00 L 1834.00 2901.00 L 1814.00 2881.00 L 974.00 2881.00 L 954.00 2901.00 L 934.00 2881.00 Z" />
<path id="csg562-005-21" fill="none" stroke="black" stroke-width="1" d="M 1674.00 2964.00 L 1654.00 2980.00 L 1634.00 2979.00 L 1614.00 2979.00 L 1594.00 2980.00 L 1574.00 2980.00 L 1554.00 3000.00 L 1514.00 3000.00 L 1494.00 2980.00 L 1414.00 2980.00 L 1394.00 2981.00 L 1194.00 2981.00 L 1174.00 2982.00 L 994.00 2982.00 L 974.00 2983.00 L 774.00 2983.00 L 754.00 2984.00 L 574.00 2984.00 L 554.00 2985.00 L 380.42 2985.00 L 381.00 3090.00 L 468.00 3090.00 L 573.00 3096.00 L 573.19 3099.00 L 574.00 3099.00 L 594.00 3098.00 L 694.00 3098.00 L 714.00 3097.00 L 814.00 3097.00 L 834.00 3096.00 L 934.00 3096.00 L 954.00 3095.00 L 1054.00 3095.00 L 1074.00 3094.00 L 1154.00 3094.00 L 1174.00 3093.00 L 1274.00 3093.00 L 1294.00 3092.00 L 1394.00 3092.00 L 1414.00 3091.00 L 1434.00 3131.00 L 1454.00 3091.00 L 1514.00 3091.00 L 1534.00 3090.00 L 1554.00 3090.00 L 1574.00 3110.00 L 1594.00 3110.00 L 1614.00 3090.00 L 1634.00 3090.00 L 1654.00 3089.00 L 1754.00 3089.00 L 1774.00 3088.00 L 1874.00 3088.00 L 1894.00 3087.00 L 1974.00 3087.00 L 1994.00 3086.00 L 2014.00 3086.00 L 2034.00 3106.00 L 2054.00 3126.00 L 2074.00 3086.00 L 2094.00 3086.00 L 2114.00 3085.00 L 2214.00 3085.00 L 2234.00 3084.00 L 2274.00 3084.00 L 2294.00 3124.00 L 2334.00 3124.00 L 2354.00 3083.00 L 2361.00 3083.00 L 2361.00 2994.00 L 2443.24 2975.54 L 2434.00 2976.00 L 2234.00 2976.00 L 2214.00 2977.00 L 2034.00 2977.00 L 2014.00 2978.00 L 1834.00 2978.00 L 1814.00 2998.00 L 1794.00 2999.00 L 1774.00 2979.00 L 1714.00 2979.00 L 1694.00 2964.00 Z" />
<path id="csg562-005-22" fill="none" stroke="black" stroke-width="1" d="M 2354.00 3083.00 L 2334.00 3124.00 L 2294.00 3124.00 L 2274.00 3084.00 L 2234.00 3084.00 L 2214.00 3085.00 L 2114.00 3085.00 L 2094.00 3086.00 L 2074.00 3086.00 L 2054.00 3126.00 L 2034.00 3106.00 L 2014.00 3086.00 L 1994.00 3086.00 L 1974.00 3087.00 L 1894.00 3087.00 L 1874.00 3088.00 L 1774.00 3088.00 L 1754.00 3089.00 L 1654.00 3089.00 L 1634.00 3090.00 L 1614.00 3090.00 L 1594.00 3110.00 L 1574.00 3110.00 L 1554.00 3090.00 L 1534.00 3090.00 L 1514.00 3091.00 L 1454.00 3091.00 L 1434.00 3131.00 L 1414.00 3091.00 L 1394.00 3092.00 L 1294.00 3092.00 L 1274.00 3093.00 L 1174.00 3093.00 L 1154.00 3094.00 L 1074.00 3094.00 L 1054.00 3095.00 L 954.00 3095.00 L 934.00 3096.00 L 834.00 3096.00 L 814.00 3097.00 L 714.00 3097.00 L 694.00 3098.00 L 594.00 3098.00 L 574.00 3099.00 L 573.19 3099.00 L 579.00 3189.00 L 572.19 3212.00 L 634.00 3212.00 L 654.00 3211.00 L 774.00 3211.00 L 794.00 3210.00 L 914.00 3210.00 L 934.00 3209.00 L 1074.00 3209.00 L 1094.00 3208.00 L 1214.00 3208.00 L 1234.00 3207.00 L 1354.00 3207.00 L 1374.00 3206.00 L 1494.00 3206.00 L 1514.00 3205.00 L 1654.00 3205.00 L 1674.00 3204.00 L 1794.00 3204.00 L 1814.00 3203.00 L 1934.00 3203.00 L 1954.00 3202.00 L 2074.00 3202.00 L 2094.00 3201.00 L 2134.00 3201.00 L 2154.00 3221.00 L 2174.00 3201.00 L 2234.00 3201.00 L 2254.00 3200.00 L 2374.00 3200.00 L 2394.00 3199.00 L 2500.70 3199.00 L 2481.00 3123.00 L 2361.00 3108.00 L 2361.00 3083.00 Z" />
<path id="csg562-005-23" fill="none" stroke="black" stroke-width="1" d="M 2394.00 3199.00 L 2374.00 3200.00 L 2254.00 3200.00 L 2234.00 3201.00 L 2174.00 3201.00 L 2154.00 3221.00 L 2134.00 3201.00 L 2094.00 3201.00 L 2074.00 3202.00 L 1954.00 3202.00 L 1934.00 3203.00 L 1814.00 3203.00 L 1794.00 3204.00 L 1674.00 3204.00 L 1654.00 3205.00 L 1514.00 3205.00 L 1494.00 3206.00 L 1374.00 3206.00 L 1354.00 3207.00 L 1234.00 3207.00 L 1214.00 3208.00 L 1094.00 3208.00 L 1074.00 3209.00 L 934.00 3209.00 L 914.00 3210.00 L 794.00 3210.00 L 774.00 3211.00 L 654.00 3211.00 L 634.00 3212.00 L 572.19 3212.00 L 555.00 3270.00 L 544.66 3334.66 L 554.00 3344.00 L 574.00 3344.00 L 594.00 3324.00 L 614.00 3324.00 L 634.00 3323.00 L 874.00 3323.00 L 894.00 3322.00 L 1014.00 3322.00 L 1034.00 3342.00 L 1054.00 3322.00 L 1134.00 3322.00 L 1154.00 3321.00 L 1394.00 3321.00 L 1414.00 3320.00 L 1534.00 3320.00 L 1554.00 3340.00 L 1574.00 3320.00 L 1654.00 3320.00 L 1674.00 3319.00 L 1914.00 3319.00 L 1934.00 3318.00 L 1954.00 3298.00 L 1974.00 3318.00 L 2174.00 3318.00 L 2194.00 3317.00 L 2434.00 3317.00 L 2444.05 3316.50 L 2439.00 3213.00 L 2502.00 3204.00 L 2500.70 3199.00 Z" />
<path id="csg562-005-24" fill="none" stroke="black" stroke-width="1" d="M 1954.00 3298.00 L 1934.00 3318.00 L 1914.00 3319.00 L 1674.00 3319.00 L 1654.00 3320.00 L 1574.00 3320.00 L 1554.00 3340.00 L 1534.00 3320.00 L 1414.00 3320.00 L 1394.00 3321.00 L 1154.00 3321.00 L 1134.00 3322.00 L 1054.00 3322.00 L 1034.00 3342.00 L 1014.00 3322.00 L 894.00 3322.00 L 874.00 3323.00 L 634.00 3323.00 L 614.00 3324.00 L 594.00 3324.00 L 574.00 3344.00 L 554.00 3344.00 L 544.66 3334.66 L 543.00 3345.00 L 417.00 3345.00 L 357.00 3378.00 L 396.00 3426.00 L 555.00 3432.00 L 579.67 3434.00 L 654.00 3434.00 L 674.00 3433.00 L 814.00 3433.00 L 834.00 3432.00 L 974.00 3432.00 L 994.00 3431.00 L 1134.00 3431.00 L 1154.00 3430.00 L 1274.00 3430.00 L 1294.00 3429.00 L 1434.00 3429.00 L 1454.00 3428.00 L 1594.00 3428.00 L 1614.00 3427.00 L 1754.00 3427.00 L 1774.00 3426.00 L 1874.00 3426.00 L 1894.00 3446.00 L 1914.00 3446.00 L 1934.00 3425.00 L 2054.00 3425.00 L 2074.00 3424.00 L 2194.00 3424.00 L 2214.00 3444.00 L 2234.00 3443.00 L 2254.00 3423.00 L 2374.00 3423.00 L 2394.00 3422.00 L 2481.00 3422.00 L 2541.00 3414.00 L 2547.00 3330.00 L 2445.00 3336.00 L 2444.05 3316.50 L 2434.00 3317.00 L 2194.00 3317.00 L 2174.00 3318.00 L 1974.00 3318.00 L 1954.00 3298.00 Z" />
</svg>
