<?xml version="1.0" standalone="no"?>
<!DOCTYPE svg PUBLIC "-//W3C//DTD SVG 1.1//EN" "http://www.w3.org/Graphics/SVG/1.1/DTD/svg11.dtd">
<svg width="46.22222in" height="69.333336in" viewBox="0 0 3328 4992" xmlns="http://www.w3.org/2000/svg" version="1.1">
<path id="csg562-004-01" fill="none" stroke="black" stroke-width="1" d="M 2034.00 837.00 L 1383.00 849.00 L 1188.00 885.00 L 1149.00 897.00 L 1077.00 864.00 L 870.00 882.00 L 868.48 958.24 L 878.00 953.00 L 1078.00 953.00 L 1098.00 973.00 L 1118.00 953.00 L 1158.00 953.00 L 1178.00 952.00 L 1398.00 952.00 L 1418.00 972.00 L 1438.00 972.00 L 1458.00 952.00 L 1478.00 951.00 L 1758.00 951.00 L 1778.00 950.00 L 2018.00 950.00 L 2038.00 970.00 L 2058.00 950.00 L 2078.00 950.00 L 2098.00 949.00 L 2378.00 949.00 L 2398.00 948.00 L 2618.00 948.00 L 2638.00 928.00 L 2658.00 933.00 L 2678.00 939.00 L 2698.00 949.00 L 2718.00 955.00 L 2818.00 955.00 L 2838.00 951.00 L 2858.00 945.00 L 2878.00 941.00 L 2896.69 946.61 L 2952.00 915.00 L 2916.00 858.00 L 2733.00 843.00 L 2655.00 873.00 L 2526.00 852.00 L 2331.00 867.00 L 2034.00 837.00 Z" />
<path id="csg562-004-02" fill="none" stroke="black" stroke-width="1" d="M 2638.00 928.00 L 2618.00 948.00 L 2398.00 948.00 L 2378.00 949.00 L 2098.00 949.00 L 2078.00 950.00 L 2058.00 950.00 L 2038.00 970.00 L 2018.00 950.00 L 1778.00 950.00 L 1758.00 951.00 L 1478.00 951.00 L 1458.00 952.00 L 1438.00 972.00 L 1418.00 972.00 L 1398.00 952.00 L 1178.00 952.00 L 1158.00 953.00 L 1118.00 953.00 L 1098.00 973.00 L 1078.00 953.00 L 878.00 953.00 L 868.48 958.24 L 866.29 1067.44 L 878.00 1061.00 L 1198.00 1061.00 L 1218.00 1040.00 L 1238.00 1067.00 L 1258.00 1067.00 L 1278.00 1057.00 L 1298.00 1057.00 L 1318.00 1060.00 L 1538.00 1060.00 L 1558.00 1059.00 L 1778.00 1059.00 L 1798.00 1079.00 L 1818.00 1079.00 L 1838.00 1059.00 L 1898.00 1059.00 L 1918.00 1058.00 L 2238.00 1058.00 L 2258.00 1057.00 L 2498.00 1057.00 L 2518.00 1097.00 L 2538.00 1077.00 L 2578.00 1077.00 L 2598.00 1057.00 L 2618.00 1056.00 L 2859.75 1056.00 L 2802.00 1014.00 L 2889.00 951.00 L 2896.69 946.61 L 2878.00 941.00 L 2858.00 945.00 L 2838.00 951.00 L 2818.00 955.00 L 2718.00 955.00 L 2698.00 949.00 L 2678.00 939.00 L 2658.00 933.00 L 2638.00 928.00 Z" />
<path id="csg562-004-03" fill="none" stroke="black" stroke-width="1" d="M 1218.00 1040.00 L 1198.00 1061.00 L 878.00 1061.00 L 866.29 1067.44 L 863.76 1193.83 L 878.00 1186.00 L 1058.00 1186.00 L 1078.00 1185.00 L 1278.00 1185.00 L 1298.00 1184.00 L 1498.00 1184.00 L 1518.00 1183.00 L 1698.00 1183.00 L 1718.00 1182.00 L 1918.00 1182.00 L 1938.00 1181.00 L 2138.00 1181.00 L 2158.00 1180.00 L 2358.00 1180.00 L 2378.00 1179.00 L 2558.00 1179.00 L 2578.00 1178.00 L 2618.00 1178.00 L 2638.00 1158.00 L 2658.00 1158.00 L 2678.00 1178.00 L 2698.00 1198.00 L 2718.00 1178.00 L 2778.00 1178.00 L 2798.00 1177.00 L 2898.00 1177.00 L 2918.00 1197.00 L 2938.00 1177.00 L 2969.64 1177.00 L 2976.00 1107.00 L 2901.00 1086.00 L 2859.75 1056.00 L 2618.00 1056.00 L 2598.00 1057.00 L 2578.00 1077.00 L 2538.00 1077.00 L 2518.00 1097.00 L 2498.00 1057.00 L 2258.00 1057.00 L 2238.00 1058.00 L 1918.00 1058.00 L 1898.00 1059.00 L 1838.00 1059.00 L 1818.00 1079.00 L 1798.00 1079.00 L 1778.00 1059.00 L 1558.00 1059.00 L 1538.00 1060.00 L 1318.00 1060.00 L 1298.00 1057.00 L 1278.00 1057.00 L 1258.00 1067.00 L 1238.00 1067.00 L 1218.00 1040.00 Z" />
<path id="csg562-004-04" fill="none" stroke="black" stroke-width="1" d="M 2638.00 1158.00 L 2618.00 1178.00 L 2578.00 1178.00 L 2558.00 1179.00 L 2378.00 1179.00 L 2358.00 1180.00 L 2158.00 1180.00 L 2138.00 1181.00 L 1938.00 1181.00 L 1918.00 1182.00 L 1718.00 1182.00 L 1698.00 1183.00 L 1518.00 1183.00 L 1498.00 1184.00 L 1298.00 1184.00 L 1278.00 1185.00 L 1078.00 1185.00 L 1058.00 1186.00 L 878.00 1186.00 L 863.76 1193.83 L 861.46 1309.10 L 878.00 1300.00 L 1258.00 1300.00 L 1278.00 1299.00 L 1658.00 1299.00 L 1678.00 1298.00 L 2058.00 1298.00 L 2078.00 1297.00 L 2098.00 1297.00 L 2118.00 1317.00 L 2138.00 1297.00 L 2378.00 1297.00 L 2398.00 1277.00 L 2418.00 1297.00 L 2458.00 1297.00 L 2478.00 1296.00 L 2858.00 1296.00 L 2878.00 1295.00 L 2973.32 1295.00 L 2961.00 1272.00 L 2969.64 1177.00 L 2938.00 1177.00 L 2918.00 1197.00 L 2898.00 1177.00 L 2798.00 1177.00 L 2778.00 1178.00 L 2718.00 1178.00 L 2698.00 1198.00 L 2678.00 1178.00 L 2658.00 1158.00 Z" />
<path id="csg562-004-05" fill="none" stroke="black" stroke-width="1" d="M 2398.00 1277.00 L 2378.00 1297.00 L 2138.00 1297.00 L 2118.00 1317.00 L 2098.00 1297.00 L 2078.00 1297.00 L 2058.00 1298.00 L 1678.00 1298.00 L 1658.00 1299.00 L 1278.00 1299.00 L 1258.00 1300.00 L 878.00 1300.00 L 861.46 1309.10 L 859.31 1416.28 L 859.31 1416.28 L 878.00 1406.00 L 1018.00 1406.00 L 1038.00 1405.00 L 1198.00 1405.00 L 1218.00 1404.00 L 1378.00 1404.00 L 1398.00 1403.00 L 1558.00 1403.00 L 1578.00 1402.00 L 1738.00 1402.00 L 1758.00 1401.00 L 1898.00 1401.00 L 1918.00 1400.00 L 2078.00 1400.00 L 2098.00 1399.00 L 2118.00 1419.00 L 2158.00 1419.00 L 2178.00 1399.00 L 2258.00 1399.00 L 2278.00 1398.00 L 2398.00 1398.00 L 2418.00 1418.00 L 2438.00 1398.00 L 2458.00 1397.00 L 2618.00 1397.00 L 2638.00 1416.00 L 2658.00 1416.00 L 2678.00 1396.00 L 2778.00 1396.00 L 2798.00 1395.00 L 2818.00 1415.00 L 2838.00 1395.00 L 2918.00 1395.00 L 2938.00 1415.00 L 2949.27 1415.00 L 3006.00 1356.00 L 2973.32 1295.00 L 2878.00 1295.00 L 2858.00 1296.00 L 2478.00 1296.00 L 2458.00 1297.00 L 2418.00 1297.00 L 2398.00 1277.00 Z" />
<path id="csg562-004-06" fill="none" stroke="black" stroke-width="1" d="M 2798.00 1395.00 L 2778.00 1396.00 L 2678.00 1396.00 L 2658.00 1416.00 L 2638.00 1416.00 L 2618.00 1397.00 L 2458.00 1397.00 L 2438.00 1398.00 L 2418.00 1418.00 L 2398.00 1398.00 L 2278.00 1398.00 L 2258.00 1399.00 L 2178.00 1399.00 L 2158.00 1419.00 L 2118.00 1419.00 L 2098.00 1399.00 L 2078.00 1400.00 L 1918.00 1400.00 L 1898.00 1401.00 L 1758.00 1401.00 L 1738.00 1402.00 L 1578.00 1402.00 L 1558.00 1403.00 L 1398.00 1403.00 L 1378.00 1404.00 L 1218.00 1404.00 L 1198.00 1405.00 L 1038.00 1405.00 L 1018.00 1406.00 L 878.00 1406.00 L 859.31 1416.28 L 858.00 1482.00 L 861.33 1532.17 L 878.00 1523.00 L 898.00 1563.00 L 918.00 1563.00 L 938.00 1543.00 L 958.00 1523.00 L 998.00 1523.00 L 1018.00 1522.00 L 1158.00 1522.00 L 1178.00 1521.00 L 1318.00 1521.00 L 1338.00 1520.00 L 1478.00 1520.00 L 1498.00 1519.00 L 1638.00 1519.00 L 1658.00 1518.00 L 1778.00 1518.00 L 1798.00 1517.00 L 1938.00 1517.00 L 1958.00 1516.00 L 2098.00 1516.00 L 2118.00 1515.00 L 2258.00 1515.00 L 2278.00 1514.00 L 2338.00 1514.00 L 2358.00 1494.00 L 2378.00 1494.00 L 2398.00 1514.00 L 2418.00 1514.00 L 2438.00 1513.00 L 2478.00 1513.00 L 2498.00 1493.00 L 2518.00 1513.00 L 2578.00 1513.00 L 2598.00 1532.00 L 2618.00 1532.00 L 2638.00 1512.00 L 2718.00 1512.00 L 2738.00 1511.00 L 2878.00 1511.00 L 2898.00 1510.00 L 2953.46 1510.00 L 2994.00 1479.00 L 2931.00 1434.00 L 2949.27 1415.00 L 2938.00 1415.00 L 2918.00 1395.00 L 2838.00 1395.00 L 2818.00 1415.00 L 2798.00 1395.00 Z" />
<path id="csg562-004-07" fill="none" stroke="black" stroke-width="1" d="M 2498.00 1493.00 L 2478.00 1513.00 L 2438.00 1513.00 L 2418.00 1514.00 L 2398.00 1514.00 L 2378.00 1494.00 L 2358.00 1494.00 L 2338.00 1514.00 L 2278.00 1514.00 L 2258.00 1515.00 L 2118.00 1515.00 L 2098.00 1516.00 L 1958.00 1516.00 L 1938.00 1517.00 L 1798.00 1517.00 L 1778.00 1518.00 L 1658.00 1518.00 L 1638.00 1519.00 L 1498.00 1519.00 L 1478.00 1520.00 L 1338.00 1520.00 L 1318.00 1521.00 L 1178.00 1521.00 L 1158.00 1522.00 L 1018.00 1522.00 L 998.00 1523.00 L 958.00 1523.00 L 938.00 1543.00 L 918.00 1563.00 L 898.00 1563.00 L 878.00 1523.00 L 861.33 1532.17 L 868.25 1636.36 L 878.00 1631.00 L 1038.00 1631.00 L 1058.00 1630.00 L 1218.00 1630.00 L 1238.00 1629.00 L 1418.00 1629.00 L 1438.00 1628.00 L 1598.00 1628.00 L 1618.00 1627.00 L 1798.00 1627.00 L 1818.00 1626.00 L 1978.00 1626.00 L 1998.00 1625.00 L 2178.00 1625.00 L 2198.00 1624.00 L 2358.00 1624.00 L 2378.00 1623.00 L 2418.00 1623.00 L 2438.00 1643.00 L 2458.00 1643.00 L 2478.00 1623.00 L 2558.00 1623.00 L 2578.00 1622.00 L 2618.00 1622.00 L 2638.00 1662.00 L 2658.00 1662.00 L 2678.00 1642.00 L 2698.00 1642.00 L 2718.00 1622.00 L 2738.00 1642.00 L 2758.00 1621.00 L 2898.00 1621.00 L 2918.00 1641.00 L 2938.00 1621.00 L 2958.00 1620.00 L 2983.75 1620.00 L 2970.00 1590.00 L 2943.00 1518.00 L 2953.46 1510.00 L 2898.00 1510.00 L 2878.00 1511.00 L 2738.00 1511.00 L 2718.00 1512.00 L 2638.00 1512.00 L 2618.00 1532.00 L 2598.00 1532.00 L 2578.00 1513.00 L 2518.00 1513.00 L 2498.00 1493.00 Z" />
<path id="csg562-004-08" fill="none" stroke="black" stroke-width="1" d="M 2958.00 1620.00 L 2938.00 1621.00 L 2918.00 1641.00 L 2898.00 1621.00 L 2758.00 1621.00 L 2738.00 1642.00 L 2718.00 1622.00 L 2698.00 1642.00 L 2678.00 1642.00 L 2658.00 1662.00 L 2638.00 1662.00 L 2618.00 1622.00 L 2578.00 1622.00 L 2558.00 1623.00 L 2478.00 1623.00 L 2458.00 1643.00 L 2438.00 1643.00 L 2418.00 1623.00 L 2378.00 1623.00 L 2358.00 1624.00 L 2198.00 1624.00 L 2178.00 1625.00 L 1998.00 1625.00 L 1978.00 1626.00 L 1818.00 1626.00 L 1798.00 1627.00 L 1618.00 1627.00 L 1598.00 1628.00 L 1438.00 1628.00 L 1418.00 1629.00 L 1238.00 1629.00 L 1218.00 1630.00 L 1058.00 1630.00 L 1038.00 1631.00 L 878.00 1631.00 L 868.25 1636.36 L 875.67 1748.28 L 878.00 1747.00 L 998.00 1747.00 L 1018.00 1746.00 L 1078.00 1746.00 L 1098.00 1766.00 L 1118.00 1746.00 L 1158.00 1746.00 L 1178.00 1745.00 L 1318.00 1745.00 L 1338.00 1744.00 L 1458.00 1744.00 L 1478.00 1743.00 L 1518.00 1743.00 L 1538.00 1763.00 L 1558.00 1763.00 L 1578.00 1743.00 L 1618.00 1743.00 L 1638.00 1742.00 L 1778.00 1742.00 L 1798.00 1741.00 L 1938.00 1741.00 L 1958.00 1740.00 L 2078.00 1740.00 L 2098.00 1739.00 L 2238.00 1739.00 L 2258.00 1738.00 L 2398.00 1738.00 L 2418.00 1737.00 L 2458.00 1737.00 L 2478.00 1717.00 L 2498.00 1737.00 L 2558.00 1737.00 L 2578.00 1736.00 L 2598.00 1716.00 L 2618.00 1736.00 L 2698.00 1736.00 L 2718.00 1715.00 L 2738.00 1715.00 L 2758.00 1735.00 L 2858.00 1735.00 L 2878.00 1734.00 L 2979.00 1734.00 L 3003.00 1662.00 L 2983.75 1620.00 Z" />
<path id="csg562-004-09" fill="none" stroke="black" stroke-width="1" d="M 2718.00 1715.00 L 2698.00 1736.00 L 2618.00 1736.00 L 2598.00 1716.00 L 2578.00 1736.00 L 2558.00 1737.00 L 2498.00 1737.00 L 2478.00 1717.00 L 2458.00 1737.00 L 2418.00 1737.00 L 2398.00 1738.00 L 2258.00 1738.00 L 2238.00 1739.00 L 2098.00 1739.00 L 2078.00 1740.00 L 1958.00 1740.00 L 1938.00 1741.00 L 1798.00 1741.00 L 1778.00 1742.00 L 1638.00 1742.00 L 1618.00 1743.00 L 1578.00 1743.00 L 1558.00 1763.00 L 1538.00 1763.00 L 1518.00 1743.00 L 1478.00 1743.00 L 1458.00 1744.00 L 1338.00 1744.00 L 1318.00 1745.00 L 1178.00 1745.00 L 1158.00 1746.00 L 1118.00 1746.00 L 1098.00 1766.00 L 1078.00 1746.00 L 1018.00 1746.00 L 998.00 1747.00 L 878.00 1747.00 L 875.67 1748.28 L 883.35 1864.00 L 958.00 1864.00 L 978.00 1884.00 L 998.00 1864.00 L 1018.00 1863.00 L 1158.00 1863.00 L 1178.00 1862.00 L 1238.00 1862.00 L 1258.00 1882.00 L 1278.00 1882.00 L 1298.00 1862.00 L 1318.00 1862.00 L 1338.00 1861.00 L 1478.00 1861.00 L 1498.00 1860.00 L 1598.00 1860.00 L 1618.00 1880.00 L 1638.00 1860.00 L 1658.00 1859.00 L 1798.00 1859.00 L 1818.00 1858.00 L 1958.00 1858.00 L 1978.00 1857.00 L 2118.00 1857.00 L 2138.00 1856.00 L 2258.00 1856.00 L 2278.00 1855.00 L 2438.00 1855.00 L 2458.00 1854.00 L 2578.00 1854.00 L 2598.00 1853.00 L 2638.00 1853.00 L 2658.00 1833.00 L 2678.00 1853.00 L 2738.00 1853.00 L 2758.00 1852.00 L 2778.00 1872.00 L 2838.00 1872.00 L 2858.00 1852.00 L 2898.00 1852.00 L 2918.00 1851.00 L 3017.00 1851.00 L 2961.00 1788.00 L 2979.00 1734.00 L 2878.00 1734.00 L 2858.00 1735.00 L 2758.00 1735.00 L 2738.00 1715.00 Z" />
<path id="csg562-004-10" fill="none" stroke="black" stroke-width="1" d="M 2658.00 1833.00 L 2638.00 1853.00 L 2598.00 1853.00 L 2578.00 1854.00 L 2458.00 1854.00 L 2438.00 1855.00 L 2278.00 1855.00 L 2258.00 1856.00 L 2138.00 1856.00 L 2118.00 1857.00 L 1978.00 1857.00 L 1958.00 1858.00 L 1818.00 1858.00 L 1798.00 1859.00 L 1658.00 1859.00 L 1638.00 1860.00 L 1618.00 1880.00 L 1598.00 1860.00 L 1498.00 1860.00 L 1478.00 1861.00 L 1338.00 1861.00 L 1318.00 1862.00 L 1298.00 1862.00 L 1278.00 1882.00 L 1258.00 1882.00 L 1238.00 1862.00 L 1178.00 1862.00 L 1158.00 1863.00 L 1018.00 1863.00 L 998.00 1864.00 L 978.00 1884.00 L 958.00 1864.00 L 883.35 1864.00 L 890.46 1971.00 L 958.00 1971.00 L 978.00 1970.00 L 1078.00 1970.00 L 1098.00 1969.00 L 1178.00 1969.00 L 1198.00 1968.00 L 1298.00 1968.00 L 1318.00 1967.00 L 1398.00 1967.00 L 1418.00 1986.00 L 1438.00 1986.00 L 1458.00 1966.00 L 1518.00 1966.00 L 1538.00 1965.00 L 1618.00 1965.00 L 1638.00 1964.00 L 1738.00 1964.00 L 1758.00 1979.00 L 1878.00 1979.00 L 1898.00 1981.00 L 1918.00 1979.00 L 1938.00 1977.00 L 1958.00 1975.00 L 1978.00 1975.00 L 1998.00 1973.00 L 2118.00 1973.00 L 2138.00 1960.00 L 2178.00 1960.00 L 2198.00 1959.00 L 2278.00 1959.00 L 2298.00 1958.00 L 2398.00 1958.00 L 2418.00 1957.00 L 2498.00 1957.00 L 2518.00 1936.00 L 2538.00 1941.00 L 2558.00 1941.00 L 2578.00 1937.00 L 2598.00 1956.00 L 2618.00 1956.00 L 2638.00 1955.00 L 2718.00 1955.00 L 2738.00 1954.00 L 2838.00 1954.00 L 2858.00 1953.00 L 2878.00 1973.00 L 2898.00 1973.00 L 2918.00 1953.00 L 2938.00 1953.00 L 2958.00 1952.00 L 3058.00 1952.00 L 3062.22 1951.79 L 3033.00 1869.00 L 3017.00 1851.00 L 2918.00 1851.00 L 2898.00 1852.00 L 2858.00 1852.00 L 2838.00 1872.00 L 2778.00 1872.00 L 2758.00 1852.00 L 2738.00 1853.00 L 2678.00 1853.00 L 2658.00 1833.00 Z" />
<path id="csg562-004-11" fill="none" stroke="black" stroke-width="1" d="M 2518.00 1936.00 L 2498.00 1957.00 L 2418.00 1957.00 L 2398.00 1958.00 L 2298.00 1958.00 L 2278.00 1959.00 L 2198.00 1959.00 L 2178.00 1960.00 L 2138.00 1960.00 L 2118.00 1973.00 L 1998.00 1973.00 L 1978.00 1975.00 L 1958.00 1975.00 L 1938.00 1977.00 L 1918.00 1979.00 L 1898.00 1981.00 L 1878.00 1979.00 L 1758.00 1979.00 L 1738.00 1964.00 L 1638.00 1964.00 L 1618.00 1965.00 L 1538.00 1965.00 L 1518.00 1966.00 L 1458.00 1966.00 L 1438.00 1986.00 L 1418.00 1986.00 L 1398.00 1967.00 L 1318.00 1967.00 L 1298.00 1968.00 L 1198.00 1968.00 L 1178.00 1969.00 L 1098.00 1969.00 L 1078.00 1970.00 L 978.00 1970.00 L 958.00 1971.00 L 890.46 1971.00 L 897.23 2073.00 L 1098.00 2073.00 L 1118.00 2093.00 L 1138.00 2073.00 L 1158.00 2072.00 L 1438.00 2072.00 L 1458.00 2071.00 L 1638.00 2071.00 L 1658.00 2111.00 L 1678.00 2071.00 L 1718.00 2071.00 L 1738.00 2070.00 L 2018.00 2070.00 L 2038.00 2069.00 L 2298.00 2069.00 L 2318.00 2088.00 L 2338.00 2088.00 L 2358.00 2068.00 L 2598.00 2068.00 L 2618.00 2067.00 L 2878.00 2067.00 L 2898.00 2066.00 L 3054.38 2066.00 L 3069.00 1971.00 L 3062.22 1951.79 L 3058.00 1952.00 L 2958.00 1952.00 L 2938.00 1953.00 L 2918.00 1953.00 L 2898.00 1973.00 L 2878.00 1973.00 L 2858.00 1953.00 L 2838.00 1954.00 L 2738.00 1954.00 L 2718.00 1955.00 L 2638.00 1955.00 L 2618.00 1956.00 L 2598.00 1956.00 L 2578.00 1937.00 L 2558.00 1941.00 L 2538.00 1941.00 L 2518.00 1936.00 Z" />
<path id="csg562-004-12" fill="none" stroke="black" stroke-width="1" d="M 2898.00 2066.00 L 2878.00 2067.00 L 2618.00 2067.00 L 2598.00 2068.00 L 2358.00 2068.00 L 2338.00 2088.00 L 2318.00 2088.00 L 2298.00 2069.00 L 2038.00 2069.00 L 2018.00 2070.00 L 1738.00 2070.00 L 1718.00 2071.00 L 1678.00 2071.00 L 1658.00 2111.00 L 1638.00 2071.00 L 1458.00 2071.00 L 1438.00 2072.00 L 1158.00 2072.00 L 1138.00 2073.00 L 1118.00 2093.00 L 1098.00 2073.00 L 897.23 2073.00 L 903.00 2160.00 L 955.93 2173.00 L 1198.00 2173.00 L 1218.00 2172.00 L 1558.00 2172.00 L 1578.00 2171.00 L 1918.00 2171.00 L 1938.00 2170.00 L 1998.00 2170.00 L 2018.00 2190.00 L 2058.00 2190.00 L 2078.00 2170.00 L 2278.00 2170.00 L 2298.00 2169.00 L 2638.00 2169.00 L 2658.00 2168.00 L 2667.41 2168.00 L 2673.00 2073.00 L 3051.00 2088.00 L 3054.38 2066.00 Z" />
<path id="csg562-004-13" fill="none" stroke="black" stroke-width="1" d="M 2658.00 2168.00 L 2638.00 2169.00 L 2298.00 2169.00 L 2278.00 2170.00 L 2078.00 2170.00 L 2058.00 2190.00 L 2018.00 2190.00 L 1998.00 2170.00 L 1938.00 2170.00 L 1918.00 2171.00 L 1578.00 2171.00 L 1558.00 2172.00 L 1218.00 2172.00 L 1198.00 2173.00 L 955.93 2173.00 L 1074.00 2202.00 L 1116.00 2277.00 L 1110.70 2296.00 L 1138.00 2296.00 L 1158.00 2295.00 L 1438.00 2295.00 L 1458.00 2294.00 L 1738.00 2294.00 L 1758.00 2293.00 L 2038.00 2293.00 L 2058.00 2292.00 L 2338.00 2292.00 L 2358.00 2291.00 L 2638.00 2291.00 L 2658.00 2290.00 L 2938.00 2290.00 L 2958.00 2289.00 L 3013.55 2289.00 L 2934.28 2168.00 L 2821.00 2168.00 L 2667.00 2175.00 L 2667.41 2168.00 Z" />
<path id="csg562-004-14" fill="none" stroke="black" stroke-width="1" d="M 2958.00 2289.00 L 2938.00 2290.00 L 2658.00 2290.00 L 2638.00 2291.00 L 2358.00 2291.00 L 2338.00 2292.00 L 2058.00 2292.00 L 2038.00 2293.00 L 1758.00 2293.00 L 1738.00 2294.00 L 1458.00 2294.00 L 1438.00 2295.00 L 1158.00 2295.00 L 1138.00 2296.00 L 1110.70 2296.00 L 1080.28 2405.00 L 1138.00 2405.00 L 1158.00 2404.00 L 1438.00 2404.00 L 1458.00 2403.00 L 1618.00 2403.00 L 1638.00 2423.00 L 1678.00 2423.00 L 1698.00 2403.00 L 1738.00 2403.00 L 1758.00 2402.00 L 1998.00 2402.00 L 2018.00 2422.00 L 2038.00 2422.00 L 2058.00 2401.00 L 2338.00 2401.00 L 2358.00 2400.00 L 2458.00 2400.00 L 2478.00 2420.00 L 2498.00 2420.00 L 2518.00 2400.00 L 2638.00 2400.00 L 2658.00 2399.00 L 2938.00 2399.00 L 2958.00 2398.00 L 2991.18 2398.00 L 3045.00 2337.00 L 3013.55 2289.00 Z" />
<path id="csg562-004-15" fill="none" stroke="black" stroke-width="1" d="M 2958.00 2398.00 L 2938.00 2399.00 L 2658.00 2399.00 L 2638.00 2400.00 L 2518.00 2400.00 L 2498.00 2420.00 L 2478.00 2420.00 L 2458.00 2400.00 L 2358.00 2400.00 L 2338.00 2401.00 L 2058.00 2401.00 L 2038.00 2422.00 L 2018.00 2422.00 L 1998.00 2402.00 L 1758.00 2402.00 L 1738.00 2403.00 L 1698.00 2403.00 L 1678.00 2423.00 L 1638.00 2423.00 L 1618.00 2403.00 L 1458.00 2403.00 L 1438.00 2404.00 L 1158.00 2404.00 L 1138.00 2405.00 L 1080.28 2405.00 L 1080.00 2406.00 L 909.00 2460.00 L 894.33 2516.00 L 1458.00 2516.00 L 1478.00 2515.00 L 2078.00 2515.00 L 2098.00 2514.00 L 2678.00 2514.00 L 2698.00 2513.00 L 2968.63 2513.00 L 2955.00 2439.00 L 2991.18 2398.00 Z" />
<path id="csg562-004-16" fill="none" stroke="black" stroke-width="1" d="M 2698.00 2513.00 L 2678.00 2514.00 L 2098.00 2514.00 L 2078.00 2515.00 L 1478.00 2515.00 L 1458.00 2516.00 L 894.33 2516.00 L 876.00 2586.00 L 878.47 2626.00 L 1378.00 2626.00 L 1398.00 2625.00 L 1918.00 2625.00 L 1938.00 2624.00 L 2458.00 2624.00 L 2478.00 2623.00 L 2658.00 2623.00 L 2678.00 2643.00 L 2698.00 2643.00 L 2718.00 2623.00 L 2988.89 2623.00 L 2968.63 2513.00 Z" />
<path id="csg562-004-17" fill="none" stroke="black" stroke-width="1" d="M 2478.00 2623.00 L 2458.00 2624.00 L 1938.00 2624.00 L 1918.00 2625.00 L 1398.00 2625.00 L 1378.00 2626.00 L 878.47 2626.00 L 885.26 2736.00 L 1638.00 2736.00 L 1658.00 2735.00 L 2418.00 2735.00 L 2438.00 2734.00 L 2974.67 2734.00 L 2997.00 2667.00 L 2988.89 2623.00 L 2718.00 2623.00 L 2698.00 2643.00 L 2678.00 2643.00 L 2658.00 2623.00 Z" />
<path id="csg562-004-18" fill="none" stroke="black" stroke-width="1" d="M 2438.00 2734.00 L 2418.00 2735.00 L 1658.00 2735.00 L 1638.00 2736.00 L 885.26 2736.00 L 891.99 2845.00 L 918.00 2845.00 L 938.00 2865.00 L 958.00 2845.00 L 1098.00 2845.00 L 1118.00 2844.00 L 1358.00 2844.00 L 1378.00 2843.00 L 1538.00 2843.00 L 1558.00 2863.00 L 1578.00 2843.00 L 1618.00 2843.00 L 1638.00 2842.00 L 1878.00 2842.00 L 1898.00 2841.00 L 2138.00 2841.00 L 2158.00 2840.00 L 2398.00 2840.00 L 2418.00 2839.00 L 2638.00 2839.00 L 2658.00 2838.00 L 2898.00 2838.00 L 2918.00 2837.00 L 3035.29 2837.00 L 2958.00 2784.00 L 2974.67 2734.00 Z" />
<path id="csg562-004-19" fill="none" stroke="black" stroke-width="1" d="M 2918.00 2837.00 L 2898.00 2838.00 L 2658.00 2838.00 L 2638.00 2839.00 L 2418.00 2839.00 L 2398.00 2840.00 L 2158.00 2840.00 L 2138.00 2841.00 L 1898.00 2841.00 L 1878.00 2842.00 L 1638.00 2842.00 L 1618.00 2843.00 L 1578.00 2843.00 L 1558.00 2863.00 L 1538.00 2843.00 L 1378.00 2843.00 L 1358.00 2844.00 L 1118.00 2844.00 L 1098.00 2845.00 L 958.00 2845.00 L 938.00 2865.00 L 918.00 2845.00 L 891.99 2845.00 L 898.90 2957.00 L 938.00 2957.00 L 958.00 2977.00 L 978.00 2977.00 L 998.00 2957.00 L 1018.00 2956.00 L 1158.00 2956.00 L 1178.00 2955.00 L 1278.00 2955.00 L 1298.00 2975.00 L 1318.00 2955.00 L 1338.00 2954.00 L 1478.00 2954.00 L 1498.00 2953.00 L 1638.00 2953.00 L 1658.00 2952.00 L 1678.00 2972.00 L 1698.00 2972.00 L 1718.00 2992.00 L 1738.00 2952.00 L 1778.00 2952.00 L 1798.00 2951.00 L 1938.00 2951.00 L 1958.00 2950.00 L 2098.00 2950.00 L 2118.00 2949.00 L 2258.00 2949.00 L 2278.00 2948.00 L 2418.00 2948.00 L 2438.00 2947.00 L 2578.00 2947.00 L 2598.00 2946.00 L 2718.00 2946.00 L 2738.00 2945.00 L 2878.00 2945.00 L 2898.00 2944.00 L 3038.00 2944.00 L 3058.00 2943.00 L 3092.00 2943.00 L 3063.00 2856.00 L 3035.29 2837.00 Z" />
<path id="csg562-004-20" fill="none" stroke="black" stroke-width="1" d="M 3058.00 2943.00 L 3038.00 2944.00 L 2898.00 2944.00 L 2878.00 2945.00 L 2738.00 2945.00 L 2718.00 2946.00 L 2598.00 2946.00 L 2578.00 2947.00 L 2438.00 2947.00 L 2418.00 2948.00 L 2278.00 2948.00 L 2258.00 2949.00 L 2118.00 2949.00 L 2098.00 2950.00 L 1958.00 2950.00 L 1938.00 2951.00 L 1798.00 2951.00 L 1778.00 2952.00 L 1738.00 2952.00 L 1718.00 2992.00 L 1698.00 2972.00 L 1678.00 2972.00 L 1658.00 2952.00 L 1638.00 2953.00 L 1498.00 2953.00 L 1478.00 2954.00 L 1338.00 2954.00 L 1318.00 2955.00 L 1298.00 2975.00 L 1278.00 2955.00 L 1178.00 2955.00 L 1158.00 2956.00 L 1018.00 2956.00 L 998.00 2957.00 L 978.00 2977.00 L 958.00 2977.00 L 938.00 2957.00 L 898.90 2957.00 L 905.69 3067.00 L 1098.00 3067.00 L 1118.00 3066.00 L 1358.00 3066.00 L 1378.00 3065.00 L 1618.00 3065.00 L 1638.00 3064.00 L 1778.00 3064.00 L 1798.00 3084.00 L 1818.00 3064.00 L 1878.00 3064.00 L 1898.00 3063.00 L 2118.00 3063.00 L 2138.00 3062.00 L 2378.00 3062.00 L 2398.00 3061.00 L 2598.00 3061.00 L 2618.00 3081.00 L 2638.00 3061.00 L 2658.00 3060.00 L 2791.42 3060.00 L 2727.00 3048.00 L 2715.00 2964.00 L 3093.00 2946.00 L 3092.00 2943.00 Z" />
<path id="csg562-004-21" fill="none" stroke="black" stroke-width="1" d="M 2658.00 3060.00 L 2638.00 3061.00 L 2618.00 3081.00 L 2598.00 3061.00 L 2398.00 3061.00 L 2378.00 3062.00 L 2138.00 3062.00 L 2118.00 3063.00 L 1898.00 3063.00 L 1878.00 3064.00 L 1818.00 3064.00 L 1798.00 3084.00 L 1778.00 3064.00 L 1638.00 3064.00 L 1618.00 3065.00 L 1378.00 3065.00 L 1358.00 3066.00 L 1118.00 3066.00 L 1098.00 3067.00 L 905.69 3067.00 L 906.00 3072.00 L 939.00 3105.00 L 926.79 3188.00 L 1078.00 3188.00 L 1098.00 3187.00 L 1298.00 3187.00 L 1318.00 3186.00 L 1538.00 3186.00 L 1558.00 3185.00 L 1578.00 3205.00 L 1598.00 3205.00 L 1618.00 3185.00 L 1758.00 3185.00 L 1778.00 3184.00 L 1998.00 3184.00 L 2018.00 3203.00 L 2038.00 3183.00 L 2218.00 3183.00 L 2238.00 3182.00 L 2438.00 3182.00 L 2458.00 3181.00 L 2478.00 3181.00 L 2498.00 3201.00 L 2518.00 3181.00 L 2678.00 3181.00 L 2698.00 3180.00 L 2898.00 3180.00 L 2918.00 3179.00 L 3022.43 3179.00 L 3033.00 3105.00 L 2791.42 3060.00 Z" />
<path id="csg562-004-22" fill="none" stroke="black" stroke-width="1" d="M 2918.00 3179.00 L 2898.00 3180.00 L 2698.00 3180.00 L 2678.00 3181.00 L 2518.00 3181.00 L 2498.00 3201.00 L 2478.00 3181.00 L 2458.00 3181.00 L 2438.00 3182.00 L 2238.00 3182.00 L 2218.00 3183.00 L 2038.00 3183.00 L 2018.00 3203.00 L 1998.00 3184.00 L 1778.00 3184.00 L 1758.00 3185.00 L 1618.00 3185.00 L 1598.00 3205.00 L 1578.00 3205.00 L 1558.00 3185.00 L 1538.00 3186.00 L 1318.00 3186.00 L 1298.00 3187.00 L 1098.00 3187.00 L 1078.00 3188.00 L 926.79 3188.00 L 924.00 3207.00 L 917.97 3294.00 L 978.00 3294.00 L 998.00 3313.00 L 1018.00 3313.00 L 1038.00 3293.00 L 1118.00 3293.00 L 1138.00 3292.00 L 1238.00 3292.00 L 1258.00 3291.00 L 1378.00 3291.00 L 1398.00 3290.00 L 1498.00 3290.00 L 1518.00 3289.00 L 1638.00 3289.00 L 1658.00 3288.00 L 1758.00 3288.00 L 1778.00 3287.00 L 1898.00 3287.00 L 1918.00 3286.00 L 2038.00 3286.00 L 2058.00 3285.00 L 2158.00 3285.00 L 2178.00 3284.00 L 2298.00 3284.00 L 2318.00 3283.00 L 2418.00 3283.00 L 2438.00 3282.00 L 2558.00 3282.00 L 2578.00 3281.00 L 2678.00 3281.00 L 2698.00 3280.00 L 2818.00 3280.00 L 2838.00 3279.00 L 2938.00 3279.00 L 2958.00 3278.00 L 3028.95 3278.00 L 3021.00 3189.00 L 3022.43 3179.00 Z" />
<path id="csg562-004-23" fill="none" stroke="black" stroke-width="1" d="M 2958.00 3278.00 L 2938.00 3279.00 L 2838.00 3279.00 L 2818.00 3280.00 L 2698.00 3280.00 L 2678.00 3281.00 L 2578.00 3281.00 L 2558.00 3282.00 L 2438.00 3282.00 L 2418.00 3283.00 L 2318.00 3283.00 L 2298.00 3284.00 L 2178.00 3284.00 L 2158.00 3285.00 L 2058.00 3285.00 L 2038.00 3286.00 L 1918.00 3286.00 L 1898.00 3287.00 L 1778.00 3287.00 L 1758.00 3288.00 L 1658.00 3288.00 L 1638.00 3289.00 L 1518.00 3289.00 L 1498.00 3290.00 L 1398.00 3290.00 L 1378.00 3291.00 L 1258.00 3291.00 L 1238.00 3292.00 L 1138.00 3292.00 L 1118.00 3293.00 L 1038.00 3293.00 L 1018.00 3313.00 L 998.00 3313.00 L 978.00 3294.00 L 917.97 3294.00 L 910.14 3407.00 L 1058.00 3407.00 L 1078.00 3406.00 L 1258.00 3406.00 L 1278.00 3405.00 L 1458.00 3405.00 L 1478.00 3404.00 L 1638.00 3404.00 L 1658.00 3424.00 L 1678.00 3423.00 L 1698.00 3423.00 L 1718.00 3403.00 L 1858.00 3403.00 L 1878.00 3402.00 L 2058.00 3402.00 L 2078.00 3401.00 L 2258.00 3401.00 L 2278.00 3400.00 L 2458.00 3400.00 L 2478.00 3399.00 L 2658.00 3399.00 L 2678.00 3398.00 L 2858.00 3398.00 L 2878.00 3397.00 L 3048.31 3397.00 L 3036.00 3357.00 L 3028.95 3278.00 Z" />
<path id="csg562-004-24" fill="none" stroke="black" stroke-width="1" d="M 2878.00 3397.00 L 2858.00 3398.00 L 2678.00 3398.00 L 2658.00 3399.00 L 2478.00 3399.00 L 2458.00 3400.00 L 2278.00 3400.00 L 2258.00 3401.00 L 2078.00 3401.00 L 2058.00 3402.00 L 1878.00 3402.00 L 1858.00 3403.00 L 1718.00 3403.00 L 1698.00 3423.00 L 1678.00 3423.00 L 1658.00 3424.00 L 1638.00 3404.00 L 1478.00 3404.00 L 1458.00 3405.00 L 1278.00 3405.00 L 1258.00 3406.00 L 1078.00 3406.00 L 1058.00 3407.00 L 910.14 3407.00 L 903.00 3510.00 L 964.71 3526.00 L 1638.00 3526.00 L 1642.97 3526.25 L 1671.00 3525.00 L 1689.43 3527.00 L 1998.00 3527.00 L 2018.00 3547.00 L 2038.00 3547.00 L 2058.00 3527.00 L 2078.00 3547.00 L 2098.00 3547.00 L 2118.00 3527.00 L 2418.00 3527.00 L 2438.00 3528.00 L 2998.00 3528.00 L 3009.55 3539.55 L 3026.17 3539.83 L 3038.00 3528.00 L 3042.55 3528.00 L 3072.00 3474.00 L 3048.31 3397.00 Z" />
</svg>
