<?xml version="1.0" standalone="no"?>
<!DOCTYPE svg PUBLIC "-//W3C//DTD SVG 1.1//EN" "http://www.w3.org/Graphics/SVG/1.1/DTD/svg11.dtd">
<svg width="46.22222in" height="69.333336in" viewBox="0 0 3328 4992" xmlns="http://www.w3.org/2000/svg" version="1.1">
<path id="csg562-016-01" fill="none" stroke="black" stroke-width="1" d="M 996.00 786.00 L 900.00 810.00 L 892.03 891.00 L 968.00 891.00 L 988.00 892.00 L 1068.00 892.00 L 1088.00 893.00 L 1168.00 893.00 L 1188.00 894.00 L 1268.00 894.00 L 1288.00 895.00 L 1368.00 895.00 L 1388.00 896.00 L 1448.00 896.00 L 1468.00 897.00 L 1548.00 897.00 L 1568.00 898.00 L 1648.00 898.00 L 1668.00 899.00 L 1748.00 899.00 L 1768.00 900.00 L 1848.00 900.00 L 1868.00 901.00 L 1948.00 901.00 L 1968.00 902.00 L 2048.00 902.00 L 2068.00 903.00 L 2128.00 903.00 L 2148.00 904.00 L 2228.00 904.00 L 2248.00 905.00 L 2328.00 905.00 L 2348.00 906.00 L 2428.00 906.00 L 2448.00 907.00 L 2528.00 907.00 L 2548.00 908.00 L 2628.00 908.00 L 2648.00 909.00 L 2728.00 909.00 L 2748.00 910.00 L 2808.00 910.00 L 2828.00 911.00 L 2908.00 911.00 L 2928.00 912.00 L 2968.00 892.00 L 2995.57 924.43 L 3008.00 912.00 L 3011.90 912.20 L 3040.00 856.00 L 2896.00 798.00 L 2484.00 822.00 L 2276.00 804.00 L 2028.00 810.00 L 1964.00 796.00 L 1666.00 822.00 L 1452.00 794.00 L 1112.00 808.00 L 996.00 786.00 Z" />
<path id="csg562-016-02" fill="none" stroke="black" stroke-width="1" d="M 892.03 891.00 L 880.52 1008.00 L 948.00 1008.00 L 968.00 1009.00 L 1108.00 1009.00 L 1128.00 1010.00 L 1268.00 1010.00 L 1288.00 1011.00 L 1448.00 1011.00 L 1468.00 1012.00 L 1608.00 1012.00 L 1628.00 1013.00 L 1768.00 1013.00 L 1788.00 1014.00 L 1948.00 1014.00 L 1968.00 1015.00 L 2108.00 1015.00 L 2128.00 1016.00 L 2268.00 1016.00 L 2288.00 1017.00 L 2448.00 1017.00 L 2468.00 1018.00 L 2608.00 1018.00 L 2628.00 1039.00 L 2648.00 1019.00 L 2768.00 1019.00 L 2788.00 1020.00 L 2928.00 1020.00 L 2948.00 1021.00 L 3011.74 1021.00 L 2928.00 912.00 L 2908.00 911.00 L 2828.00 911.00 L 2808.00 910.00 L 2748.00 910.00 L 2728.00 909.00 L 2648.00 909.00 L 2628.00 908.00 L 2548.00 908.00 L 2528.00 907.00 L 2448.00 907.00 L 2428.00 906.00 L 2348.00 906.00 L 2328.00 905.00 L 2248.00 905.00 L 2228.00 904.00 L 2148.00 904.00 L 2128.00 903.00 L 2068.00 903.00 L 2048.00 902.00 L 1968.00 902.00 L 1948.00 901.00 L 1868.00 901.00 L 1848.00 900.00 L 1768.00 900.00 L 1748.00 899.00 L 1668.00 899.00 L 1648.00 898.00 L 1568.00 898.00 L 1548.00 897.00 L 1468.00 897.00 L 1448.00 896.00 L 1388.00 896.00 L 1368.00 895.00 L 1288.00 895.00 L 1268.00 894.00 L 1188.00 894.00 L 1168.00 893.00 L 1088.00 893.00 L 1068.00 892.00 L 988.00 892.00 L 968.00 891.00 Z" />
<path id="csg562-016-03" fill="none" stroke="black" stroke-width="1" d="M 880.52 1008.00 L 876.00 1054.00 L 881.32 1120.00 L 888.00 1120.00 L 908.00 1121.00 L 1008.00 1121.00 L 1028.00 1122.00 L 1128.00 1122.00 L 1148.00 1123.00 L 1248.00 1123.00 L 1268.00 1124.00 L 1368.00 1124.00 L 1388.00 1125.00 L 1468.00 1125.00 L 1488.00 1126.00 L 1588.00 1126.00 L 1608.00 1127.00 L 1708.00 1127.00 L 1728.00 1128.00 L 1808.00 1128.00 L 1828.00 1108.00 L 1848.00 1089.00 L 1868.00 1129.00 L 1948.00 1129.00 L 1968.00 1130.00 L 2068.00 1130.00 L 2088.00 1131.00 L 2168.00 1131.00 L 2188.00 1132.00 L 2288.00 1132.00 L 2308.00 1133.00 L 2408.00 1133.00 L 2428.00 1134.00 L 2528.00 1134.00 L 2548.00 1135.00 L 2648.00 1135.00 L 2668.00 1136.00 L 2768.00 1136.00 L 2788.00 1137.00 L 2868.00 1137.00 L 2888.00 1138.00 L 2988.00 1138.00 L 3008.00 1139.00 L 3049.31 1139.00 L 3054.00 1076.00 L 3011.74 1021.00 L 2948.00 1021.00 L 2928.00 1020.00 L 2788.00 1020.00 L 2768.00 1019.00 L 2648.00 1019.00 L 2628.00 1039.00 L 2608.00 1018.00 L 2468.00 1018.00 L 2448.00 1017.00 L 2288.00 1017.00 L 2268.00 1016.00 L 2128.00 1016.00 L 2108.00 1015.00 L 1968.00 1015.00 L 1948.00 1014.00 L 1788.00 1014.00 L 1768.00 1013.00 L 1628.00 1013.00 L 1608.00 1012.00 L 1468.00 1012.00 L 1448.00 1011.00 L 1288.00 1011.00 L 1268.00 1010.00 L 1128.00 1010.00 L 1108.00 1009.00 L 968.00 1009.00 L 948.00 1008.00 Z" />
<path id="csg562-016-04" fill="none" stroke="black" stroke-width="1" d="M 1848.00 1089.00 L 1828.00 1108.00 L 1808.00 1128.00 L 1728.00 1128.00 L 1708.00 1127.00 L 1608.00 1127.00 L 1588.00 1126.00 L 1488.00 1126.00 L 1468.00 1125.00 L 1388.00 1125.00 L 1368.00 1124.00 L 1268.00 1124.00 L 1248.00 1123.00 L 1148.00 1123.00 L 1128.00 1122.00 L 1028.00 1122.00 L 1008.00 1121.00 L 908.00 1121.00 L 888.00 1120.00 L 881.32 1120.00 L 891.22 1243.00 L 908.00 1243.00 L 928.00 1244.00 L 1028.00 1244.00 L 1048.00 1245.00 L 1168.00 1245.00 L 1188.00 1246.00 L 1288.00 1246.00 L 1308.00 1247.00 L 1408.00 1247.00 L 1428.00 1248.00 L 1548.00 1248.00 L 1568.00 1249.00 L 1668.00 1249.00 L 1688.00 1250.00 L 1808.00 1250.00 L 1828.00 1251.00 L 1928.00 1251.00 L 1948.00 1252.00 L 2048.00 1252.00 L 2068.00 1253.00 L 2188.00 1253.00 L 2208.00 1254.00 L 2308.00 1254.00 L 2328.00 1255.00 L 2448.00 1255.00 L 2468.00 1256.00 L 2568.00 1256.00 L 2588.00 1257.00 L 2688.00 1257.00 L 2708.00 1258.00 L 2828.00 1258.00 L 2848.00 1259.00 L 2948.00 1259.00 L 2968.00 1260.00 L 3040.31 1260.00 L 3049.31 1139.00 L 3008.00 1139.00 L 2988.00 1138.00 L 2888.00 1138.00 L 2868.00 1137.00 L 2788.00 1137.00 L 2768.00 1136.00 L 2668.00 1136.00 L 2648.00 1135.00 L 2548.00 1135.00 L 2528.00 1134.00 L 2428.00 1134.00 L 2408.00 1133.00 L 2308.00 1133.00 L 2288.00 1132.00 L 2188.00 1132.00 L 2168.00 1131.00 L 2088.00 1131.00 L 2068.00 1130.00 L 1968.00 1130.00 L 1948.00 1129.00 L 1868.00 1129.00 L 1848.00 1089.00 Z" />
<path id="csg562-016-05" fill="none" stroke="black" stroke-width="1" d="M 891.22 1243.00 L 900.00 1352.00 L 899.55 1355.58 L 908.00 1356.00 L 988.00 1356.00 L 1008.00 1357.00 L 1108.00 1357.00 L 1128.00 1358.00 L 1208.00 1358.00 L 1228.00 1359.00 L 1308.00 1359.00 L 1328.00 1360.00 L 1428.00 1360.00 L 1448.00 1361.00 L 1528.00 1361.00 L 1548.00 1362.00 L 1628.00 1362.00 L 1648.00 1363.00 L 1748.00 1363.00 L 1768.00 1364.00 L 1848.00 1364.00 L 1868.00 1365.00 L 1968.00 1365.00 L 1988.00 1366.00 L 2068.00 1366.00 L 2088.00 1367.00 L 2168.00 1367.00 L 2188.00 1368.00 L 2288.00 1368.00 L 2308.00 1369.00 L 2388.00 1369.00 L 2408.00 1370.00 L 2468.00 1370.00 L 2488.00 1350.00 L 2508.00 1351.00 L 2548.00 1351.00 L 2568.00 1331.00 L 2588.00 1371.00 L 2608.00 1371.00 L 2628.00 1372.00 L 2708.00 1372.00 L 2728.00 1373.00 L 2828.00 1373.00 L 2848.00 1374.00 L 2928.00 1374.00 L 2948.00 1375.00 L 3000.28 1375.00 L 3036.00 1318.00 L 3040.31 1260.00 L 2968.00 1260.00 L 2948.00 1259.00 L 2848.00 1259.00 L 2828.00 1258.00 L 2708.00 1258.00 L 2688.00 1257.00 L 2588.00 1257.00 L 2568.00 1256.00 L 2468.00 1256.00 L 2448.00 1255.00 L 2328.00 1255.00 L 2308.00 1254.00 L 2208.00 1254.00 L 2188.00 1253.00 L 2068.00 1253.00 L 2048.00 1252.00 L 1948.00 1252.00 L 1928.00 1251.00 L 1828.00 1251.00 L 1808.00 1250.00 L 1688.00 1250.00 L 1668.00 1249.00 L 1568.00 1249.00 L 1548.00 1248.00 L 1428.00 1248.00 L 1408.00 1247.00 L 1308.00 1247.00 L 1288.00 1246.00 L 1188.00 1246.00 L 1168.00 1245.00 L 1048.00 1245.00 L 1028.00 1244.00 L 928.00 1244.00 L 908.00 1243.00 Z" />
<path id="csg562-016-06" fill="none" stroke="black" stroke-width="1" d="M 2568.00 1331.00 L 2548.00 1351.00 L 2508.00 1351.00 L 2488.00 1350.00 L 2468.00 1370.00 L 2408.00 1370.00 L 2388.00 1369.00 L 2308.00 1369.00 L 2288.00 1368.00 L 2188.00 1368.00 L 2168.00 1367.00 L 2088.00 1367.00 L 2068.00 1366.00 L 1988.00 1366.00 L 1968.00 1365.00 L 1868.00 1365.00 L 1848.00 1364.00 L 1768.00 1364.00 L 1748.00 1363.00 L 1648.00 1363.00 L 1628.00 1362.00 L 1548.00 1362.00 L 1528.00 1361.00 L 1448.00 1361.00 L 1428.00 1360.00 L 1328.00 1360.00 L 1308.00 1359.00 L 1228.00 1359.00 L 1208.00 1358.00 L 1128.00 1358.00 L 1108.00 1357.00 L 1008.00 1357.00 L 988.00 1356.00 L 908.00 1356.00 L 899.55 1355.58 L 886.67 1457.93 L 888.00 1458.00 L 948.00 1458.00 L 968.00 1459.00 L 1048.00 1459.00 L 1068.00 1460.00 L 1128.00 1460.00 L 1148.00 1461.00 L 1228.00 1461.00 L 1248.00 1462.00 L 1308.00 1462.00 L 1328.00 1463.00 L 1408.00 1463.00 L 1428.00 1464.00 L 1488.00 1464.00 L 1508.00 1465.00 L 1588.00 1465.00 L 1608.00 1466.00 L 1668.00 1466.00 L 1688.00 1467.00 L 1768.00 1467.00 L 1788.00 1468.00 L 1848.00 1468.00 L 1868.00 1469.00 L 1948.00 1469.00 L 1968.00 1470.00 L 2028.00 1470.00 L 2048.00 1471.00 L 2128.00 1471.00 L 2148.00 1472.00 L 2208.00 1472.00 L 2228.00 1473.00 L 2308.00 1473.00 L 2328.00 1474.00 L 2388.00 1474.00 L 2408.00 1475.00 L 2488.00 1475.00 L 2508.00 1476.00 L 2568.00 1476.00 L 2588.00 1477.00 L 2668.00 1477.00 L 2688.00 1478.00 L 2748.00 1478.00 L 2768.00 1479.00 L 2848.00 1479.00 L 2860.59 1479.63 L 2942.00 1468.00 L 3000.28 1375.00 L 2948.00 1375.00 L 2928.00 1374.00 L 2848.00 1374.00 L 2828.00 1373.00 L 2728.00 1373.00 L 2708.00 1372.00 L 2628.00 1372.00 L 2608.00 1371.00 L 2588.00 1371.00 L 2568.00 1331.00 Z" />
<path id="csg562-016-07" fill="none" stroke="black" stroke-width="1" d="M 886.67 1457.93 L 873.16 1565.26 L 888.00 1566.00 L 908.00 1546.00 L 928.00 1546.00 L 948.00 1566.00 L 968.00 1566.00 L 988.00 1567.00 L 1068.00 1567.00 L 1088.00 1568.00 L 1168.00 1568.00 L 1188.00 1569.00 L 1268.00 1569.00 L 1288.00 1570.00 L 1368.00 1570.00 L 1388.00 1571.00 L 1468.00 1571.00 L 1488.00 1572.00 L 1568.00 1572.00 L 1588.00 1573.00 L 1668.00 1573.00 L 1688.00 1574.00 L 1768.00 1574.00 L 1788.00 1575.00 L 1868.00 1575.00 L 1888.00 1576.00 L 1968.00 1576.00 L 1988.00 1577.00 L 2068.00 1577.00 L 2088.00 1578.00 L 2168.00 1578.00 L 2188.00 1579.00 L 2268.00 1579.00 L 2288.00 1580.00 L 2368.00 1580.00 L 2388.00 1581.00 L 2468.00 1581.00 L 2488.00 1582.00 L 2568.00 1582.00 L 2588.00 1583.00 L 2668.00 1583.00 L 2688.00 1584.00 L 2708.00 1604.00 L 2728.00 1584.00 L 2749.05 1584.00 L 2774.00 1492.00 L 2860.59 1479.63 L 2848.00 1479.00 L 2768.00 1479.00 L 2748.00 1478.00 L 2688.00 1478.00 L 2668.00 1477.00 L 2588.00 1477.00 L 2568.00 1476.00 L 2508.00 1476.00 L 2488.00 1475.00 L 2408.00 1475.00 L 2388.00 1474.00 L 2328.00 1474.00 L 2308.00 1473.00 L 2228.00 1473.00 L 2208.00 1472.00 L 2148.00 1472.00 L 2128.00 1471.00 L 2048.00 1471.00 L 2028.00 1470.00 L 1968.00 1470.00 L 1948.00 1469.00 L 1868.00 1469.00 L 1848.00 1468.00 L 1788.00 1468.00 L 1768.00 1467.00 L 1688.00 1467.00 L 1668.00 1466.00 L 1608.00 1466.00 L 1588.00 1465.00 L 1508.00 1465.00 L 1488.00 1464.00 L 1428.00 1464.00 L 1408.00 1463.00 L 1328.00 1463.00 L 1308.00 1462.00 L 1248.00 1462.00 L 1228.00 1461.00 L 1148.00 1461.00 L 1128.00 1460.00 L 1068.00 1460.00 L 1048.00 1459.00 L 968.00 1459.00 L 948.00 1458.00 L 888.00 1458.00 L 886.67 1457.93 Z" />
<path id="csg562-016-08" fill="none" stroke="black" stroke-width="1" d="M 908.00 1546.00 L 888.00 1566.00 L 873.16 1565.26 L 864.00 1638.00 L 864.51 1681.00 L 868.00 1681.00 L 888.00 1682.00 L 948.00 1682.00 L 968.00 1683.00 L 1028.00 1683.00 L 1048.00 1684.00 L 1108.00 1684.00 L 1128.00 1685.00 L 1208.00 1685.00 L 1228.00 1686.00 L 1288.00 1686.00 L 1308.00 1687.00 L 1368.00 1687.00 L 1388.00 1688.00 L 1448.00 1688.00 L 1468.00 1689.00 L 1528.00 1689.00 L 1548.00 1690.00 L 1628.00 1690.00 L 1648.00 1691.00 L 1708.00 1691.00 L 1728.00 1692.00 L 1788.00 1692.00 L 1808.00 1693.00 L 1868.00 1693.00 L 1888.00 1694.00 L 1948.00 1694.00 L 1968.00 1695.00 L 2048.00 1695.00 L 2068.00 1696.00 L 2128.00 1696.00 L 2148.00 1697.00 L 2208.00 1697.00 L 2228.00 1698.00 L 2288.00 1698.00 L 2308.00 1699.00 L 2368.00 1699.00 L 2388.00 1700.00 L 2468.00 1700.00 L 2488.00 1701.00 L 2548.00 1701.00 L 2568.00 1702.00 L 2628.00 1702.00 L 2648.00 1703.00 L 2708.00 1703.00 L 2728.00 1704.00 L 2788.00 1704.00 L 2808.00 1705.00 L 2888.00 1705.00 L 2908.00 1706.00 L 2968.00 1706.00 L 2984.87 1706.84 L 3016.00 1620.00 L 2906.00 1594.00 L 2742.00 1610.00 L 2749.05 1584.00 L 2728.00 1584.00 L 2708.00 1604.00 L 2688.00 1584.00 L 2668.00 1583.00 L 2588.00 1583.00 L 2568.00 1582.00 L 2488.00 1582.00 L 2468.00 1581.00 L 2388.00 1581.00 L 2368.00 1580.00 L 2288.00 1580.00 L 2268.00 1579.00 L 2188.00 1579.00 L 2168.00 1578.00 L 2088.00 1578.00 L 2068.00 1577.00 L 1988.00 1577.00 L 1968.00 1576.00 L 1888.00 1576.00 L 1868.00 1575.00 L 1788.00 1575.00 L 1768.00 1574.00 L 1688.00 1574.00 L 1668.00 1573.00 L 1588.00 1573.00 L 1568.00 1572.00 L 1488.00 1572.00 L 1468.00 1571.00 L 1388.00 1571.00 L 1368.00 1570.00 L 1288.00 1570.00 L 1268.00 1569.00 L 1188.00 1569.00 L 1168.00 1568.00 L 1088.00 1568.00 L 1068.00 1567.00 L 988.00 1567.00 L 968.00 1566.00 L 948.00 1566.00 L 928.00 1546.00 Z" />
<path id="csg562-016-09" fill="none" stroke="black" stroke-width="1" d="M 864.51 1681.00 L 865.89 1796.00 L 888.00 1796.00 L 908.00 1797.00 L 988.00 1797.00 L 1008.00 1798.00 L 1088.00 1798.00 L 1108.00 1799.00 L 1188.00 1799.00 L 1208.00 1800.00 L 1288.00 1800.00 L 1308.00 1801.00 L 1388.00 1801.00 L 1408.00 1802.00 L 1488.00 1802.00 L 1508.00 1803.00 L 1548.00 1803.00 L 1568.00 1783.00 L 1588.00 1803.00 L 1608.00 1803.00 L 1628.00 1824.00 L 1648.00 1804.00 L 1708.00 1804.00 L 1728.00 1805.00 L 1808.00 1805.00 L 1828.00 1806.00 L 1908.00 1806.00 L 1928.00 1807.00 L 2008.00 1807.00 L 2028.00 1808.00 L 2108.00 1808.00 L 2128.00 1809.00 L 2208.00 1809.00 L 2228.00 1810.00 L 2308.00 1810.00 L 2328.00 1811.00 L 2428.00 1811.00 L 2448.00 1812.00 L 2528.00 1812.00 L 2548.00 1813.00 L 2628.00 1813.00 L 2648.00 1814.00 L 2728.00 1814.00 L 2748.00 1815.00 L 2828.00 1815.00 L 2848.00 1816.00 L 2928.00 1816.00 L 2948.00 1817.00 L 2977.25 1817.00 L 2978.00 1726.00 L 2984.87 1706.84 L 2968.00 1706.00 L 2908.00 1706.00 L 2888.00 1705.00 L 2808.00 1705.00 L 2788.00 1704.00 L 2728.00 1704.00 L 2708.00 1703.00 L 2648.00 1703.00 L 2628.00 1702.00 L 2568.00 1702.00 L 2548.00 1701.00 L 2488.00 1701.00 L 2468.00 1700.00 L 2388.00 1700.00 L 2368.00 1699.00 L 2308.00 1699.00 L 2288.00 1698.00 L 2228.00 1698.00 L 2208.00 1697.00 L 2148.00 1697.00 L 2128.00 1696.00 L 2068.00 1696.00 L 2048.00 1695.00 L 1968.00 1695.00 L 1948.00 1694.00 L 1888.00 1694.00 L 1868.00 1693.00 L 1808.00 1693.00 L 1788.00 1692.00 L 1728.00 1692.00 L 1708.00 1691.00 L 1648.00 1691.00 L 1628.00 1690.00 L 1548.00 1690.00 L 1528.00 1689.00 L 1468.00 1689.00 L 1448.00 1688.00 L 1388.00 1688.00 L 1368.00 1687.00 L 1308.00 1687.00 L 1288.00 1686.00 L 1228.00 1686.00 L 1208.00 1685.00 L 1128.00 1685.00 L 1108.00 1684.00 L 1048.00 1684.00 L 1028.00 1683.00 L 968.00 1683.00 L 948.00 1682.00 L 888.00 1682.00 L 868.00 1681.00 Z" />
<path id="csg562-016-10" fill="none" stroke="black" stroke-width="1" d="M 1568.00 1783.00 L 1548.00 1803.00 L 1508.00 1803.00 L 1488.00 1802.00 L 1408.00 1802.00 L 1388.00 1801.00 L 1308.00 1801.00 L 1288.00 1800.00 L 1208.00 1800.00 L 1188.00 1799.00 L 1108.00 1799.00 L 1088.00 1798.00 L 1008.00 1798.00 L 988.00 1797.00 L 908.00 1797.00 L 888.00 1796.00 L 865.89 1796.00 L 867.32 1914.97 L 868.00 1915.00 L 928.00 1915.00 L 948.00 1916.00 L 988.00 1916.00 L 1008.00 1917.00 L 1068.00 1917.00 L 1088.00 1918.00 L 1128.00 1918.00 L 1148.00 1919.00 L 1208.00 1919.00 L 1228.00 1920.00 L 1288.00 1920.00 L 1308.00 1921.00 L 1348.00 1921.00 L 1368.00 1922.00 L 1428.00 1922.00 L 1448.00 1923.00 L 1488.00 1923.00 L 1508.00 1924.00 L 1568.00 1924.00 L 1588.00 1925.00 L 1628.00 1925.00 L 1648.00 1926.00 L 1708.00 1926.00 L 1728.00 1927.00 L 1788.00 1927.00 L 1808.00 1928.00 L 1848.00 1928.00 L 1868.00 1929.00 L 1928.00 1929.00 L 1948.00 1930.00 L 1988.00 1930.00 L 2008.00 1931.00 L 2068.00 1931.00 L 2088.00 1932.00 L 2148.00 1932.00 L 2168.00 1933.00 L 2208.00 1933.00 L 2228.00 1934.00 L 2248.00 1934.00 L 2268.00 1914.00 L 2288.00 1914.00 L 2308.00 1915.00 L 2328.00 1915.00 L 2348.00 1935.00 L 2368.00 1936.00 L 2428.00 1936.00 L 2448.00 1937.00 L 2488.00 1937.00 L 2508.00 1938.00 L 2568.00 1938.00 L 2588.00 1939.00 L 2648.00 1939.00 L 2668.00 1940.00 L 2708.00 1940.00 L 2728.00 1941.00 L 2788.00 1941.00 L 2808.00 1942.00 L 2848.00 1942.00 L 2868.00 1943.00 L 2928.00 1943.00 L 2948.00 1944.00 L 2976.21 1944.00 L 2977.25 1817.00 L 2948.00 1817.00 L 2928.00 1816.00 L 2848.00 1816.00 L 2828.00 1815.00 L 2748.00 1815.00 L 2728.00 1814.00 L 2648.00 1814.00 L 2628.00 1813.00 L 2548.00 1813.00 L 2528.00 1812.00 L 2448.00 1812.00 L 2428.00 1811.00 L 2328.00 1811.00 L 2308.00 1810.00 L 2228.00 1810.00 L 2208.00 1809.00 L 2128.00 1809.00 L 2108.00 1808.00 L 2028.00 1808.00 L 2008.00 1807.00 L 1928.00 1807.00 L 1908.00 1806.00 L 1828.00 1806.00 L 1808.00 1805.00 L 1728.00 1805.00 L 1708.00 1804.00 L 1648.00 1804.00 L 1628.00 1824.00 L 1608.00 1803.00 L 1588.00 1803.00 L 1568.00 1783.00 Z" />
<path id="csg562-016-11" fill="none" stroke="black" stroke-width="1" d="M 2268.00 1914.00 L 2248.00 1934.00 L 2228.00 1934.00 L 2208.00 1933.00 L 2168.00 1933.00 L 2148.00 1932.00 L 2088.00 1932.00 L 2068.00 1931.00 L 2008.00 1931.00 L 1988.00 1930.00 L 1948.00 1930.00 L 1928.00 1929.00 L 1868.00 1929.00 L 1848.00 1928.00 L 1808.00 1928.00 L 1788.00 1927.00 L 1728.00 1927.00 L 1708.00 1926.00 L 1648.00 1926.00 L 1628.00 1925.00 L 1588.00 1925.00 L 1568.00 1924.00 L 1508.00 1924.00 L 1488.00 1923.00 L 1448.00 1923.00 L 1428.00 1922.00 L 1368.00 1922.00 L 1348.00 1921.00 L 1308.00 1921.00 L 1288.00 1920.00 L 1228.00 1920.00 L 1208.00 1919.00 L 1148.00 1919.00 L 1128.00 1918.00 L 1088.00 1918.00 L 1068.00 1917.00 L 1008.00 1917.00 L 988.00 1916.00 L 948.00 1916.00 L 928.00 1915.00 L 868.00 1915.00 L 867.32 1914.97 L 868.00 1972.00 L 867.34 2015.00 L 868.00 2015.00 L 888.00 2016.00 L 948.00 2016.00 L 968.00 2017.00 L 1048.00 2017.00 L 1068.00 1998.00 L 1088.00 1998.00 L 1108.00 2018.00 L 1128.00 2018.00 L 1148.00 2019.00 L 1228.00 2019.00 L 1248.00 2020.00 L 1308.00 2020.00 L 1328.00 2021.00 L 1388.00 2021.00 L 1408.00 2022.00 L 1488.00 2022.00 L 1508.00 2023.00 L 1568.00 2023.00 L 1588.00 2024.00 L 1668.00 2024.00 L 1688.00 2025.00 L 1748.00 2025.00 L 1768.00 2026.00 L 1828.00 2026.00 L 1848.00 2027.00 L 1928.00 2027.00 L 1948.00 2028.00 L 2008.00 2028.00 L 2028.00 2029.00 L 2108.00 2029.00 L 2128.00 2030.00 L 2188.00 2030.00 L 2208.00 2031.00 L 2268.00 2031.00 L 2288.00 2032.00 L 2368.00 2032.00 L 2388.00 2033.00 L 2448.00 2033.00 L 2468.00 2034.00 L 2548.00 2034.00 L 2568.00 2035.00 L 2628.00 2035.00 L 2648.00 2036.00 L 2728.00 2036.00 L 2748.00 2037.00 L 2808.00 2037.00 L 2828.00 2038.00 L 2888.00 2038.00 L 2908.00 2039.00 L 2980.43 2039.00 L 2976.00 1970.00 L 2976.21 1944.00 L 2948.00 1944.00 L 2928.00 1943.00 L 2868.00 1943.00 L 2848.00 1942.00 L 2808.00 1942.00 L 2788.00 1941.00 L 2728.00 1941.00 L 2708.00 1940.00 L 2668.00 1940.00 L 2648.00 1939.00 L 2588.00 1939.00 L 2568.00 1938.00 L 2508.00 1938.00 L 2488.00 1937.00 L 2448.00 1937.00 L 2428.00 1936.00 L 2368.00 1936.00 L 2348.00 1935.00 L 2328.00 1915.00 L 2308.00 1915.00 L 2288.00 1914.00 Z" />
<path id="csg562-016-12" fill="none" stroke="black" stroke-width="1" d="M 1068.00 1998.00 L 1048.00 2017.00 L 968.00 2017.00 L 948.00 2016.00 L 888.00 2016.00 L 868.00 2015.00 L 867.34 2015.00 L 865.54 2131.00 L 868.00 2131.00 L 888.00 2132.00 L 948.00 2132.00 L 968.00 2133.00 L 1028.00 2133.00 L 1048.00 2134.00 L 1128.00 2134.00 L 1148.00 2135.00 L 1208.00 2135.00 L 1228.00 2136.00 L 1288.00 2136.00 L 1308.00 2137.00 L 1388.00 2137.00 L 1408.00 2138.00 L 1468.00 2138.00 L 1488.00 2139.00 L 1548.00 2139.00 L 1568.00 2140.00 L 1648.00 2140.00 L 1668.00 2141.00 L 1728.00 2141.00 L 1748.00 2142.00 L 1808.00 2142.00 L 1828.00 2143.00 L 1908.00 2143.00 L 1928.00 2144.00 L 1988.00 2144.00 L 2008.00 2145.00 L 2068.00 2145.00 L 2088.00 2146.00 L 2168.00 2146.00 L 2188.00 2147.00 L 2248.00 2147.00 L 2268.00 2148.00 L 2328.00 2148.00 L 2348.00 2149.00 L 2428.00 2149.00 L 2448.00 2150.00 L 2508.00 2150.00 L 2528.00 2151.00 L 2588.00 2151.00 L 2608.00 2152.00 L 2688.00 2152.00 L 2708.00 2153.00 L 2768.00 2153.00 L 2788.00 2154.00 L 2848.00 2154.00 L 2868.00 2155.00 L 2948.00 2155.00 L 2968.00 2156.00 L 2987.95 2156.00 L 2980.43 2039.00 L 2908.00 2039.00 L 2888.00 2038.00 L 2828.00 2038.00 L 2808.00 2037.00 L 2748.00 2037.00 L 2728.00 2036.00 L 2648.00 2036.00 L 2628.00 2035.00 L 2568.00 2035.00 L 2548.00 2034.00 L 2468.00 2034.00 L 2448.00 2033.00 L 2388.00 2033.00 L 2368.00 2032.00 L 2288.00 2032.00 L 2268.00 2031.00 L 2208.00 2031.00 L 2188.00 2030.00 L 2128.00 2030.00 L 2108.00 2029.00 L 2028.00 2029.00 L 2008.00 2028.00 L 1948.00 2028.00 L 1928.00 2027.00 L 1848.00 2027.00 L 1828.00 2026.00 L 1768.00 2026.00 L 1748.00 2025.00 L 1688.00 2025.00 L 1668.00 2024.00 L 1588.00 2024.00 L 1568.00 2023.00 L 1508.00 2023.00 L 1488.00 2022.00 L 1408.00 2022.00 L 1388.00 2021.00 L 1328.00 2021.00 L 1308.00 2020.00 L 1248.00 2020.00 L 1228.00 2019.00 L 1148.00 2019.00 L 1128.00 2018.00 L 1108.00 2018.00 L 1088.00 1998.00 Z" />
<path id="csg562-016-13" fill="none" stroke="black" stroke-width="1" d="M 865.54 2131.00 L 863.85 2240.79 L 868.00 2241.00 L 928.00 2241.00 L 948.00 2242.00 L 988.00 2242.00 L 1008.00 2243.00 L 1068.00 2243.00 L 1088.00 2244.00 L 1148.00 2244.00 L 1168.00 2245.00 L 1208.00 2245.00 L 1228.00 2246.00 L 1288.00 2246.00 L 1308.00 2247.00 L 1348.00 2247.00 L 1368.00 2248.00 L 1428.00 2248.00 L 1448.00 2249.00 L 1508.00 2249.00 L 1528.00 2250.00 L 1568.00 2250.00 L 1588.00 2251.00 L 1648.00 2251.00 L 1668.00 2252.00 L 1708.00 2252.00 L 1728.00 2253.00 L 1788.00 2253.00 L 1808.00 2254.00 L 1868.00 2254.00 L 1888.00 2255.00 L 1928.00 2255.00 L 1948.00 2256.00 L 2008.00 2256.00 L 2028.00 2257.00 L 2068.00 2257.00 L 2088.00 2258.00 L 2148.00 2258.00 L 2168.00 2259.00 L 2228.00 2259.00 L 2248.00 2260.00 L 2288.00 2260.00 L 2308.00 2261.00 L 2368.00 2261.00 L 2388.00 2262.00 L 2428.00 2262.00 L 2448.00 2263.00 L 2508.00 2263.00 L 2528.00 2264.00 L 2588.00 2264.00 L 2608.00 2265.00 L 2648.00 2265.00 L 2668.00 2266.00 L 2728.00 2266.00 L 2748.00 2267.00 L 2788.00 2267.00 L 2808.00 2268.00 L 2868.00 2268.00 L 2888.00 2269.00 L 2948.00 2269.00 L 2968.00 2270.00 L 2980.04 2270.00 L 2990.00 2188.00 L 2987.95 2156.00 L 2968.00 2156.00 L 2948.00 2155.00 L 2868.00 2155.00 L 2848.00 2154.00 L 2788.00 2154.00 L 2768.00 2153.00 L 2708.00 2153.00 L 2688.00 2152.00 L 2608.00 2152.00 L 2588.00 2151.00 L 2528.00 2151.00 L 2508.00 2150.00 L 2448.00 2150.00 L 2428.00 2149.00 L 2348.00 2149.00 L 2328.00 2148.00 L 2268.00 2148.00 L 2248.00 2147.00 L 2188.00 2147.00 L 2168.00 2146.00 L 2088.00 2146.00 L 2068.00 2145.00 L 2008.00 2145.00 L 1988.00 2144.00 L 1928.00 2144.00 L 1908.00 2143.00 L 1828.00 2143.00 L 1808.00 2142.00 L 1748.00 2142.00 L 1728.00 2141.00 L 1668.00 2141.00 L 1648.00 2140.00 L 1568.00 2140.00 L 1548.00 2139.00 L 1488.00 2139.00 L 1468.00 2138.00 L 1408.00 2138.00 L 1388.00 2137.00 L 1308.00 2137.00 L 1288.00 2136.00 L 1228.00 2136.00 L 1208.00 2135.00 L 1148.00 2135.00 L 1128.00 2134.00 L 1048.00 2134.00 L 1028.00 2133.00 L 968.00 2133.00 L 948.00 2132.00 L 888.00 2132.00 L 868.00 2131.00 Z" />
<path id="csg562-016-14" fill="none" stroke="black" stroke-width="1" d="M 863.85 2240.79 L 862.04 2357.70 L 868.00 2358.00 L 928.00 2358.00 L 948.00 2359.00 L 988.00 2359.00 L 1008.00 2360.00 L 1068.00 2360.00 L 1088.00 2361.00 L 1148.00 2361.00 L 1168.00 2362.00 L 1208.00 2362.00 L 1228.00 2363.00 L 1248.00 2363.00 L 1268.00 2343.00 L 1288.00 2323.00 L 1308.00 2344.00 L 1328.00 2364.00 L 1348.00 2344.00 L 1368.00 2345.00 L 1388.00 2365.00 L 1428.00 2365.00 L 1448.00 2366.00 L 1508.00 2366.00 L 1528.00 2367.00 L 1568.00 2367.00 L 1588.00 2368.00 L 1648.00 2368.00 L 1668.00 2369.00 L 1708.00 2369.00 L 1728.00 2370.00 L 1788.00 2370.00 L 1808.00 2371.00 L 1868.00 2371.00 L 1888.00 2372.00 L 1928.00 2372.00 L 1948.00 2373.00 L 2008.00 2373.00 L 2028.00 2374.00 L 2068.00 2374.00 L 2088.00 2375.00 L 2148.00 2375.00 L 2168.00 2376.00 L 2228.00 2376.00 L 2248.00 2377.00 L 2288.00 2377.00 L 2308.00 2378.00 L 2368.00 2378.00 L 2388.00 2379.00 L 2428.00 2379.00 L 2448.00 2380.00 L 2508.00 2380.00 L 2528.00 2381.00 L 2588.00 2381.00 L 2608.00 2382.00 L 2648.00 2382.00 L 2668.00 2383.00 L 2728.00 2383.00 L 2748.00 2384.00 L 2788.00 2384.00 L 2808.00 2385.00 L 2868.00 2385.00 L 2888.00 2386.00 L 2948.00 2386.00 L 2965.85 2386.89 L 2980.04 2270.00 L 2968.00 2270.00 L 2948.00 2269.00 L 2888.00 2269.00 L 2868.00 2268.00 L 2808.00 2268.00 L 2788.00 2267.00 L 2748.00 2267.00 L 2728.00 2266.00 L 2668.00 2266.00 L 2648.00 2265.00 L 2608.00 2265.00 L 2588.00 2264.00 L 2528.00 2264.00 L 2508.00 2263.00 L 2448.00 2263.00 L 2428.00 2262.00 L 2388.00 2262.00 L 2368.00 2261.00 L 2308.00 2261.00 L 2288.00 2260.00 L 2248.00 2260.00 L 2228.00 2259.00 L 2168.00 2259.00 L 2148.00 2258.00 L 2088.00 2258.00 L 2068.00 2257.00 L 2028.00 2257.00 L 2008.00 2256.00 L 1948.00 2256.00 L 1928.00 2255.00 L 1888.00 2255.00 L 1868.00 2254.00 L 1808.00 2254.00 L 1788.00 2253.00 L 1728.00 2253.00 L 1708.00 2252.00 L 1668.00 2252.00 L 1648.00 2251.00 L 1588.00 2251.00 L 1568.00 2250.00 L 1528.00 2250.00 L 1508.00 2249.00 L 1448.00 2249.00 L 1428.00 2248.00 L 1368.00 2248.00 L 1348.00 2247.00 L 1308.00 2247.00 L 1288.00 2246.00 L 1228.00 2246.00 L 1208.00 2245.00 L 1168.00 2245.00 L 1148.00 2244.00 L 1088.00 2244.00 L 1068.00 2243.00 L 1008.00 2243.00 L 988.00 2242.00 L 948.00 2242.00 L 928.00 2241.00 L 868.00 2241.00 L 863.85 2240.79 Z" />
<path id="csg562-016-15" fill="none" stroke="black" stroke-width="1" d="M 1288.00 2323.00 L 1268.00 2343.00 L 1248.00 2363.00 L 1228.00 2363.00 L 1208.00 2362.00 L 1168.00 2362.00 L 1148.00 2361.00 L 1088.00 2361.00 L 1068.00 2360.00 L 1008.00 2360.00 L 988.00 2359.00 L 948.00 2359.00 L 928.00 2358.00 L 868.00 2358.00 L 862.04 2357.70 L 860.43 2462.00 L 868.00 2462.00 L 888.00 2463.00 L 948.00 2463.00 L 968.00 2464.00 L 1048.00 2464.00 L 1068.00 2465.00 L 1128.00 2465.00 L 1148.00 2466.00 L 1228.00 2466.00 L 1248.00 2467.00 L 1308.00 2467.00 L 1328.00 2468.00 L 1408.00 2468.00 L 1428.00 2469.00 L 1488.00 2469.00 L 1508.00 2470.00 L 1568.00 2470.00 L 1588.00 2471.00 L 1668.00 2471.00 L 1688.00 2472.00 L 1748.00 2472.00 L 1768.00 2473.00 L 1848.00 2473.00 L 1868.00 2474.00 L 1928.00 2474.00 L 1948.00 2475.00 L 2028.00 2475.00 L 2048.00 2476.00 L 2108.00 2476.00 L 2128.00 2477.00 L 2148.00 2477.00 L 2168.00 2497.00 L 2188.00 2477.00 L 2208.00 2497.00 L 2228.00 2478.00 L 2288.00 2478.00 L 2308.00 2479.00 L 2368.00 2479.00 L 2388.00 2480.00 L 2468.00 2480.00 L 2488.00 2481.00 L 2548.00 2481.00 L 2568.00 2482.00 L 2648.00 2482.00 L 2668.00 2483.00 L 2728.00 2483.00 L 2748.00 2484.00 L 2828.00 2484.00 L 2848.00 2485.00 L 2908.00 2485.00 L 2928.00 2486.00 L 2958.96 2486.00 L 2956.00 2468.00 L 2965.85 2386.89 L 2948.00 2386.00 L 2888.00 2386.00 L 2868.00 2385.00 L 2808.00 2385.00 L 2788.00 2384.00 L 2748.00 2384.00 L 2728.00 2383.00 L 2668.00 2383.00 L 2648.00 2382.00 L 2608.00 2382.00 L 2588.00 2381.00 L 2528.00 2381.00 L 2508.00 2380.00 L 2448.00 2380.00 L 2428.00 2379.00 L 2388.00 2379.00 L 2368.00 2378.00 L 2308.00 2378.00 L 2288.00 2377.00 L 2248.00 2377.00 L 2228.00 2376.00 L 2168.00 2376.00 L 2148.00 2375.00 L 2088.00 2375.00 L 2068.00 2374.00 L 2028.00 2374.00 L 2008.00 2373.00 L 1948.00 2373.00 L 1928.00 2372.00 L 1888.00 2372.00 L 1868.00 2371.00 L 1808.00 2371.00 L 1788.00 2370.00 L 1728.00 2370.00 L 1708.00 2369.00 L 1668.00 2369.00 L 1648.00 2368.00 L 1588.00 2368.00 L 1568.00 2367.00 L 1528.00 2367.00 L 1508.00 2366.00 L 1448.00 2366.00 L 1428.00 2365.00 L 1388.00 2365.00 L 1368.00 2345.00 L 1348.00 2344.00 L 1328.00 2364.00 L 1308.00 2344.00 L 1288.00 2323.00 Z" />
<path id="csg562-016-16" fill="none" stroke="black" stroke-width="1" d="M 860.43 2462.00 L 860.00 2490.00 L 861.16 2570.66 L 868.00 2571.00 L 928.00 2571.00 L 948.00 2572.00 L 988.00 2572.00 L 1008.00 2573.00 L 1068.00 2573.00 L 1088.00 2574.00 L 1148.00 2574.00 L 1168.00 2575.00 L 1208.00 2575.00 L 1228.00 2576.00 L 1288.00 2576.00 L 1308.00 2577.00 L 1348.00 2577.00 L 1368.00 2578.00 L 1428.00 2578.00 L 1448.00 2579.00 L 1508.00 2579.00 L 1528.00 2580.00 L 1568.00 2580.00 L 1588.00 2581.00 L 1648.00 2581.00 L 1668.00 2582.00 L 1708.00 2582.00 L 1728.00 2583.00 L 1788.00 2583.00 L 1808.00 2584.00 L 1868.00 2584.00 L 1888.00 2585.00 L 1928.00 2585.00 L 1948.00 2586.00 L 2008.00 2586.00 L 2028.00 2587.00 L 2068.00 2587.00 L 2088.00 2588.00 L 2148.00 2588.00 L 2168.00 2589.00 L 2228.00 2589.00 L 2248.00 2590.00 L 2288.00 2590.00 L 2308.00 2591.00 L 2368.00 2591.00 L 2388.00 2592.00 L 2428.00 2592.00 L 2448.00 2593.00 L 2508.00 2593.00 L 2528.00 2594.00 L 2588.00 2594.00 L 2608.00 2595.00 L 2648.00 2595.00 L 2668.00 2596.00 L 2728.00 2596.00 L 2748.00 2597.00 L 2788.00 2597.00 L 2808.00 2598.00 L 2868.00 2598.00 L 2888.00 2599.00 L 2948.00 2599.00 L 2968.00 2600.00 L 2977.69 2600.00 L 2958.96 2486.00 L 2928.00 2486.00 L 2908.00 2485.00 L 2848.00 2485.00 L 2828.00 2484.00 L 2748.00 2484.00 L 2728.00 2483.00 L 2668.00 2483.00 L 2648.00 2482.00 L 2568.00 2482.00 L 2548.00 2481.00 L 2488.00 2481.00 L 2468.00 2480.00 L 2388.00 2480.00 L 2368.00 2479.00 L 2308.00 2479.00 L 2288.00 2478.00 L 2228.00 2478.00 L 2208.00 2497.00 L 2188.00 2477.00 L 2168.00 2497.00 L 2148.00 2477.00 L 2128.00 2477.00 L 2108.00 2476.00 L 2048.00 2476.00 L 2028.00 2475.00 L 1948.00 2475.00 L 1928.00 2474.00 L 1868.00 2474.00 L 1848.00 2473.00 L 1768.00 2473.00 L 1748.00 2472.00 L 1688.00 2472.00 L 1668.00 2471.00 L 1588.00 2471.00 L 1568.00 2470.00 L 1508.00 2470.00 L 1488.00 2469.00 L 1428.00 2469.00 L 1408.00 2468.00 L 1328.00 2468.00 L 1308.00 2467.00 L 1248.00 2467.00 L 1228.00 2466.00 L 1148.00 2466.00 L 1128.00 2465.00 L 1068.00 2465.00 L 1048.00 2464.00 L 968.00 2464.00 L 948.00 2463.00 L 888.00 2463.00 L 868.00 2462.00 Z" />
<path id="csg562-016-17" fill="none" stroke="black" stroke-width="1" d="M 861.16 2570.66 L 862.74 2681.00 L 868.00 2681.00 L 888.00 2682.00 L 948.00 2682.00 L 968.00 2683.00 L 1028.00 2683.00 L 1048.00 2684.00 L 1108.00 2684.00 L 1128.00 2685.00 L 1188.00 2685.00 L 1208.00 2666.00 L 1228.00 2666.00 L 1248.00 2686.00 L 1268.00 2686.00 L 1288.00 2687.00 L 1348.00 2687.00 L 1368.00 2688.00 L 1428.00 2688.00 L 1448.00 2689.00 L 1508.00 2689.00 L 1528.00 2690.00 L 1588.00 2690.00 L 1608.00 2691.00 L 1668.00 2691.00 L 1688.00 2692.00 L 1748.00 2692.00 L 1768.00 2693.00 L 1828.00 2693.00 L 1848.00 2694.00 L 1908.00 2694.00 L 1928.00 2695.00 L 1988.00 2695.00 L 2008.00 2696.00 L 2068.00 2696.00 L 2088.00 2697.00 L 2148.00 2697.00 L 2168.00 2698.00 L 2228.00 2698.00 L 2248.00 2699.00 L 2308.00 2699.00 L 2328.00 2700.00 L 2388.00 2700.00 L 2408.00 2701.00 L 2468.00 2701.00 L 2488.00 2702.00 L 2548.00 2702.00 L 2568.00 2703.00 L 2628.00 2703.00 L 2648.00 2704.00 L 2708.00 2704.00 L 2728.00 2705.00 L 2788.00 2705.00 L 2808.00 2706.00 L 2868.00 2706.00 L 2888.00 2707.00 L 2948.00 2707.00 L 2968.00 2708.00 L 2995.43 2708.00 L 2977.69 2600.00 L 2968.00 2600.00 L 2948.00 2599.00 L 2888.00 2599.00 L 2868.00 2598.00 L 2808.00 2598.00 L 2788.00 2597.00 L 2748.00 2597.00 L 2728.00 2596.00 L 2668.00 2596.00 L 2648.00 2595.00 L 2608.00 2595.00 L 2588.00 2594.00 L 2528.00 2594.00 L 2508.00 2593.00 L 2448.00 2593.00 L 2428.00 2592.00 L 2388.00 2592.00 L 2368.00 2591.00 L 2308.00 2591.00 L 2288.00 2590.00 L 2248.00 2590.00 L 2228.00 2589.00 L 2168.00 2589.00 L 2148.00 2588.00 L 2088.00 2588.00 L 2068.00 2587.00 L 2028.00 2587.00 L 2008.00 2586.00 L 1948.00 2586.00 L 1928.00 2585.00 L 1888.00 2585.00 L 1868.00 2584.00 L 1808.00 2584.00 L 1788.00 2583.00 L 1728.00 2583.00 L 1708.00 2582.00 L 1668.00 2582.00 L 1648.00 2581.00 L 1588.00 2581.00 L 1568.00 2580.00 L 1528.00 2580.00 L 1508.00 2579.00 L 1448.00 2579.00 L 1428.00 2578.00 L 1368.00 2578.00 L 1348.00 2577.00 L 1308.00 2577.00 L 1288.00 2576.00 L 1228.00 2576.00 L 1208.00 2575.00 L 1168.00 2575.00 L 1148.00 2574.00 L 1088.00 2574.00 L 1068.00 2573.00 L 1008.00 2573.00 L 988.00 2572.00 L 948.00 2572.00 L 928.00 2571.00 L 868.00 2571.00 L 861.16 2570.66 Z" />
<path id="csg562-016-18" fill="none" stroke="black" stroke-width="1" d="M 1208.00 2666.00 L 1188.00 2685.00 L 1128.00 2685.00 L 1108.00 2684.00 L 1048.00 2684.00 L 1028.00 2683.00 L 968.00 2683.00 L 948.00 2682.00 L 888.00 2682.00 L 868.00 2681.00 L 862.74 2681.00 L 864.36 2793.82 L 868.00 2794.00 L 928.00 2794.00 L 948.00 2795.00 L 1008.00 2795.00 L 1028.00 2796.00 L 1088.00 2796.00 L 1108.00 2797.00 L 1168.00 2797.00 L 1188.00 2798.00 L 1208.00 2798.00 L 1228.00 2818.00 L 1248.00 2798.00 L 1268.00 2799.00 L 1328.00 2799.00 L 1348.00 2800.00 L 1408.00 2800.00 L 1428.00 2801.00 L 1488.00 2801.00 L 1508.00 2802.00 L 1568.00 2802.00 L 1588.00 2803.00 L 1648.00 2803.00 L 1668.00 2804.00 L 1728.00 2804.00 L 1748.00 2805.00 L 1808.00 2805.00 L 1828.00 2806.00 L 1888.00 2806.00 L 1908.00 2807.00 L 1968.00 2807.00 L 1988.00 2808.00 L 2048.00 2808.00 L 2068.00 2809.00 L 2128.00 2809.00 L 2148.00 2810.00 L 2208.00 2810.00 L 2228.00 2811.00 L 2288.00 2811.00 L 2308.00 2812.00 L 2368.00 2812.00 L 2388.00 2813.00 L 2448.00 2813.00 L 2468.00 2814.00 L 2528.00 2814.00 L 2548.00 2815.00 L 2608.00 2815.00 L 2628.00 2816.00 L 2688.00 2816.00 L 2708.00 2817.00 L 2768.00 2817.00 L 2788.00 2818.00 L 2848.00 2818.00 L 2868.00 2819.00 L 2908.00 2819.00 L 2921.69 2832.69 L 2951.02 2836.98 L 2965.65 2822.35 L 3002.00 2748.00 L 2995.43 2708.00 L 2968.00 2708.00 L 2948.00 2707.00 L 2888.00 2707.00 L 2868.00 2706.00 L 2808.00 2706.00 L 2788.00 2705.00 L 2728.00 2705.00 L 2708.00 2704.00 L 2648.00 2704.00 L 2628.00 2703.00 L 2568.00 2703.00 L 2548.00 2702.00 L 2488.00 2702.00 L 2468.00 2701.00 L 2408.00 2701.00 L 2388.00 2700.00 L 2328.00 2700.00 L 2308.00 2699.00 L 2248.00 2699.00 L 2228.00 2698.00 L 2168.00 2698.00 L 2148.00 2697.00 L 2088.00 2697.00 L 2068.00 2696.00 L 2008.00 2696.00 L 1988.00 2695.00 L 1928.00 2695.00 L 1908.00 2694.00 L 1848.00 2694.00 L 1828.00 2693.00 L 1768.00 2693.00 L 1748.00 2692.00 L 1688.00 2692.00 L 1668.00 2691.00 L 1608.00 2691.00 L 1588.00 2690.00 L 1528.00 2690.00 L 1508.00 2689.00 L 1448.00 2689.00 L 1428.00 2688.00 L 1368.00 2688.00 L 1348.00 2687.00 L 1288.00 2687.00 L 1268.00 2686.00 L 1248.00 2686.00 L 1228.00 2666.00 Z" />
<path id="csg562-016-19" fill="none" stroke="black" stroke-width="1" d="M 864.36 2793.82 L 865.96 2904.90 L 868.00 2905.00 L 908.00 2905.00 L 928.00 2906.00 L 968.00 2906.00 L 988.00 2907.00 L 1048.00 2907.00 L 1068.00 2908.00 L 1108.00 2908.00 L 1128.00 2909.00 L 1168.00 2909.00 L 1188.00 2910.00 L 1248.00 2910.00 L 1268.00 2911.00 L 1308.00 2911.00 L 1328.00 2912.00 L 1368.00 2912.00 L 1388.00 2913.00 L 1448.00 2913.00 L 1468.00 2914.00 L 1508.00 2914.00 L 1528.00 2915.00 L 1568.00 2915.00 L 1588.00 2916.00 L 1628.00 2916.00 L 1648.00 2917.00 L 1708.00 2917.00 L 1728.00 2918.00 L 1768.00 2918.00 L 1788.00 2919.00 L 1828.00 2919.00 L 1848.00 2920.00 L 1908.00 2920.00 L 1928.00 2921.00 L 1968.00 2921.00 L 1988.00 2922.00 L 2028.00 2922.00 L 2048.00 2923.00 L 2108.00 2923.00 L 2128.00 2924.00 L 2168.00 2924.00 L 2188.00 2925.00 L 2228.00 2925.00 L 2248.00 2926.00 L 2288.00 2926.00 L 2308.00 2927.00 L 2368.00 2927.00 L 2388.00 2928.00 L 2428.00 2928.00 L 2448.00 2929.00 L 2488.00 2929.00 L 2508.00 2930.00 L 2568.00 2930.00 L 2588.00 2931.00 L 2628.00 2931.00 L 2648.00 2932.00 L 2688.00 2932.00 L 2708.00 2933.00 L 2768.00 2933.00 L 2788.00 2934.00 L 2800.73 2934.00 L 2876.00 2826.00 L 2921.69 2832.69 L 2908.00 2819.00 L 2868.00 2819.00 L 2848.00 2818.00 L 2788.00 2818.00 L 2768.00 2817.00 L 2708.00 2817.00 L 2688.00 2816.00 L 2628.00 2816.00 L 2608.00 2815.00 L 2548.00 2815.00 L 2528.00 2814.00 L 2468.00 2814.00 L 2448.00 2813.00 L 2388.00 2813.00 L 2368.00 2812.00 L 2308.00 2812.00 L 2288.00 2811.00 L 2228.00 2811.00 L 2208.00 2810.00 L 2148.00 2810.00 L 2128.00 2809.00 L 2068.00 2809.00 L 2048.00 2808.00 L 1988.00 2808.00 L 1968.00 2807.00 L 1908.00 2807.00 L 1888.00 2806.00 L 1828.00 2806.00 L 1808.00 2805.00 L 1748.00 2805.00 L 1728.00 2804.00 L 1668.00 2804.00 L 1648.00 2803.00 L 1588.00 2803.00 L 1568.00 2802.00 L 1508.00 2802.00 L 1488.00 2801.00 L 1428.00 2801.00 L 1408.00 2800.00 L 1348.00 2800.00 L 1328.00 2799.00 L 1268.00 2799.00 L 1248.00 2798.00 L 1228.00 2818.00 L 1208.00 2798.00 L 1188.00 2798.00 L 1168.00 2797.00 L 1108.00 2797.00 L 1088.00 2796.00 L 1028.00 2796.00 L 1008.00 2795.00 L 948.00 2795.00 L 928.00 2794.00 L 868.00 2794.00 L 864.36 2793.82 Z" />
<path id="csg562-016-20" fill="none" stroke="black" stroke-width="1" d="M 865.96 2904.90 L 866.00 2908.00 L 788.00 2946.00 L 872.00 3012.00 L 874.18 3026.00 L 928.00 3026.00 L 948.00 3027.00 L 988.00 3027.00 L 1008.00 3028.00 L 1068.00 3028.00 L 1088.00 3029.00 L 1128.00 3029.00 L 1148.00 3030.00 L 1208.00 3030.00 L 1228.00 3031.00 L 1288.00 3031.00 L 1308.00 3032.00 L 1348.00 3032.00 L 1368.00 3033.00 L 1428.00 3033.00 L 1448.00 3034.00 L 1488.00 3034.00 L 1508.00 3035.00 L 1568.00 3035.00 L 1588.00 3036.00 L 1628.00 3036.00 L 1648.00 3037.00 L 1708.00 3037.00 L 1728.00 3038.00 L 1788.00 3038.00 L 1808.00 3039.00 L 1848.00 3039.00 L 1868.00 3040.00 L 1928.00 3040.00 L 1948.00 3041.00 L 1988.00 3041.00 L 2008.00 3042.00 L 2068.00 3042.00 L 2088.00 3043.00 L 2128.00 3043.00 L 2148.00 3044.00 L 2208.00 3044.00 L 2214.33 3044.32 L 2214.00 3042.00 L 2274.00 3018.00 L 2402.00 3014.00 L 2826.00 3032.00 L 2948.00 3006.00 L 2942.00 2966.00 L 2870.00 2938.00 L 2848.00 2968.00 L 2784.00 2958.00 L 2800.73 2934.00 L 2788.00 2934.00 L 2768.00 2933.00 L 2708.00 2933.00 L 2688.00 2932.00 L 2648.00 2932.00 L 2628.00 2931.00 L 2588.00 2931.00 L 2568.00 2930.00 L 2508.00 2930.00 L 2488.00 2929.00 L 2448.00 2929.00 L 2428.00 2928.00 L 2388.00 2928.00 L 2368.00 2927.00 L 2308.00 2927.00 L 2288.00 2926.00 L 2248.00 2926.00 L 2228.00 2925.00 L 2188.00 2925.00 L 2168.00 2924.00 L 2128.00 2924.00 L 2108.00 2923.00 L 2048.00 2923.00 L 2028.00 2922.00 L 1988.00 2922.00 L 1968.00 2921.00 L 1928.00 2921.00 L 1908.00 2920.00 L 1848.00 2920.00 L 1828.00 2919.00 L 1788.00 2919.00 L 1768.00 2918.00 L 1728.00 2918.00 L 1708.00 2917.00 L 1648.00 2917.00 L 1628.00 2916.00 L 1588.00 2916.00 L 1568.00 2915.00 L 1528.00 2915.00 L 1508.00 2914.00 L 1468.00 2914.00 L 1448.00 2913.00 L 1388.00 2913.00 L 1368.00 2912.00 L 1328.00 2912.00 L 1308.00 2911.00 L 1268.00 2911.00 L 1248.00 2910.00 L 1188.00 2910.00 L 1168.00 2909.00 L 1128.00 2909.00 L 1108.00 2908.00 L 1068.00 2908.00 L 1048.00 2907.00 L 988.00 2907.00 L 968.00 2906.00 L 928.00 2906.00 L 908.00 2905.00 L 868.00 2905.00 L 865.96 2904.90 Z" />
<path id="csg562-016-21" fill="none" stroke="black" stroke-width="1" d="M 874.18 3026.00 L 886.00 3102.00 L 1010.00 3104.00 L 1064.00 3112.00 L 1067.22 3132.96 L 1068.00 3133.00 L 1128.00 3133.00 L 1148.00 3134.00 L 1228.00 3134.00 L 1248.00 3135.00 L 1268.00 3155.00 L 1288.00 3135.00 L 1308.00 3135.00 L 1328.00 3136.00 L 1408.00 3136.00 L 1428.00 3137.00 L 1488.00 3137.00 L 1508.00 3138.00 L 1568.00 3138.00 L 1588.00 3139.00 L 1668.00 3139.00 L 1688.00 3140.00 L 1748.00 3140.00 L 1768.00 3141.00 L 1788.00 3141.00 L 1808.00 3121.00 L 1828.00 3141.00 L 1848.00 3141.00 L 1868.00 3142.00 L 1928.00 3142.00 L 1948.00 3143.00 L 2028.00 3143.00 L 2048.00 3144.00 L 2108.00 3144.00 L 2128.00 3145.00 L 2188.00 3145.00 L 2208.00 3146.00 L 2228.86 3146.00 L 2214.33 3044.32 L 2208.00 3044.00 L 2148.00 3044.00 L 2128.00 3043.00 L 2088.00 3043.00 L 2068.00 3042.00 L 2008.00 3042.00 L 1988.00 3041.00 L 1948.00 3041.00 L 1928.00 3040.00 L 1868.00 3040.00 L 1848.00 3039.00 L 1808.00 3039.00 L 1788.00 3038.00 L 1728.00 3038.00 L 1708.00 3037.00 L 1648.00 3037.00 L 1628.00 3036.00 L 1588.00 3036.00 L 1568.00 3035.00 L 1508.00 3035.00 L 1488.00 3034.00 L 1448.00 3034.00 L 1428.00 3033.00 L 1368.00 3033.00 L 1348.00 3032.00 L 1308.00 3032.00 L 1288.00 3031.00 L 1228.00 3031.00 L 1208.00 3030.00 L 1148.00 3030.00 L 1128.00 3029.00 L 1088.00 3029.00 L 1068.00 3028.00 L 1008.00 3028.00 L 988.00 3027.00 L 948.00 3027.00 L 928.00 3026.00 Z" />
<path id="csg562-016-22" fill="none" stroke="black" stroke-width="1" d="M 1808.00 3121.00 L 1788.00 3141.00 L 1768.00 3141.00 L 1748.00 3140.00 L 1688.00 3140.00 L 1668.00 3139.00 L 1588.00 3139.00 L 1568.00 3138.00 L 1508.00 3138.00 L 1488.00 3137.00 L 1428.00 3137.00 L 1408.00 3136.00 L 1328.00 3136.00 L 1308.00 3135.00 L 1288.00 3135.00 L 1268.00 3155.00 L 1248.00 3135.00 L 1228.00 3134.00 L 1148.00 3134.00 L 1128.00 3133.00 L 1068.00 3133.00 L 1067.22 3132.96 L 1083.97 3241.80 L 1088.00 3242.00 L 1148.00 3242.00 L 1168.00 3243.00 L 1228.00 3243.00 L 1248.00 3244.00 L 1308.00 3244.00 L 1328.00 3245.00 L 1368.00 3245.00 L 1388.00 3246.00 L 1448.00 3246.00 L 1468.00 3247.00 L 1528.00 3247.00 L 1548.00 3248.00 L 1608.00 3248.00 L 1628.00 3249.00 L 1668.00 3249.00 L 1688.00 3250.00 L 1748.00 3250.00 L 1768.00 3251.00 L 1828.00 3251.00 L 1848.00 3252.00 L 1908.00 3252.00 L 1928.00 3253.00 L 1968.00 3253.00 L 1988.00 3254.00 L 2048.00 3254.00 L 2068.00 3255.00 L 2128.00 3255.00 L 2148.00 3256.00 L 2208.00 3256.00 L 2228.00 3257.00 L 2268.00 3257.00 L 2288.00 3258.00 L 2348.00 3258.00 L 2368.00 3259.00 L 2428.00 3259.00 L 2448.00 3260.00 L 2508.00 3260.00 L 2528.00 3261.00 L 2568.00 3261.00 L 2588.00 3262.00 L 2648.00 3262.00 L 2668.00 3263.00 L 2728.00 3263.00 L 2748.00 3264.00 L 2808.00 3264.00 L 2828.00 3265.00 L 2868.00 3265.00 L 2888.00 3266.00 L 2948.00 3266.00 L 2955.99 3266.40 L 2972.00 3214.00 L 2899.76 3153.00 L 2848.00 3153.00 L 2828.00 3152.00 L 2817.83 3152.00 L 2662.00 3186.00 L 2642.00 3170.00 L 2230.00 3154.00 L 2228.86 3146.00 L 2208.00 3146.00 L 2188.00 3145.00 L 2128.00 3145.00 L 2108.00 3144.00 L 2048.00 3144.00 L 2028.00 3143.00 L 1948.00 3143.00 L 1928.00 3142.00 L 1868.00 3142.00 L 1848.00 3141.00 L 1828.00 3141.00 L 1808.00 3121.00 Z" />
<path id="csg562-016-23" fill="none" stroke="black" stroke-width="1" d="M 1083.97 3241.80 L 1084.00 3242.00 L 1052.00 3294.00 L 1052.00 3347.00 L 1088.00 3347.00 L 1108.00 3348.00 L 1168.00 3348.00 L 1188.00 3349.00 L 1248.00 3349.00 L 1268.00 3350.00 L 1328.00 3350.00 L 1348.00 3351.00 L 1388.00 3351.00 L 1408.00 3352.00 L 1468.00 3352.00 L 1488.00 3353.00 L 1548.00 3353.00 L 1568.00 3354.00 L 1628.00 3354.00 L 1648.00 3355.00 L 1708.00 3355.00 L 1728.00 3356.00 L 1788.00 3356.00 L 1808.00 3357.00 L 1868.00 3357.00 L 1888.00 3358.00 L 1948.00 3358.00 L 1968.00 3359.00 L 2008.00 3359.00 L 2028.00 3360.00 L 2088.00 3360.00 L 2108.00 3361.00 L 2168.00 3361.00 L 2188.00 3362.00 L 2248.00 3362.00 L 2268.00 3363.00 L 2328.00 3363.00 L 2348.00 3364.00 L 2408.00 3364.00 L 2428.00 3365.00 L 2488.00 3365.00 L 2508.00 3366.00 L 2568.00 3366.00 L 2588.00 3367.00 L 2608.00 3347.00 L 2628.00 3367.00 L 2648.00 3368.00 L 2708.00 3368.00 L 2728.00 3369.00 L 2788.00 3369.00 L 2808.00 3370.00 L 2868.00 3370.00 L 2888.00 3371.00 L 2948.00 3371.00 L 2948.09 3371.00 L 2950.00 3286.00 L 2955.99 3266.40 L 2948.00 3266.00 L 2888.00 3266.00 L 2868.00 3265.00 L 2828.00 3265.00 L 2808.00 3264.00 L 2748.00 3264.00 L 2728.00 3263.00 L 2668.00 3263.00 L 2648.00 3262.00 L 2588.00 3262.00 L 2568.00 3261.00 L 2528.00 3261.00 L 2508.00 3260.00 L 2448.00 3260.00 L 2428.00 3259.00 L 2368.00 3259.00 L 2348.00 3258.00 L 2288.00 3258.00 L 2268.00 3257.00 L 2228.00 3257.00 L 2208.00 3256.00 L 2148.00 3256.00 L 2128.00 3255.00 L 2068.00 3255.00 L 2048.00 3254.00 L 1988.00 3254.00 L 1968.00 3253.00 L 1928.00 3253.00 L 1908.00 3252.00 L 1848.00 3252.00 L 1828.00 3251.00 L 1768.00 3251.00 L 1748.00 3250.00 L 1688.00 3250.00 L 1668.00 3249.00 L 1628.00 3249.00 L 1608.00 3248.00 L 1548.00 3248.00 L 1528.00 3247.00 L 1468.00 3247.00 L 1448.00 3246.00 L 1388.00 3246.00 L 1368.00 3245.00 L 1328.00 3245.00 L 1308.00 3244.00 L 1248.00 3244.00 L 1228.00 3243.00 L 1168.00 3243.00 L 1148.00 3242.00 L 1088.00 3242.00 L 1083.97 3241.80 Z" />
<path id="csg562-016-24" fill="none" stroke="black" stroke-width="1" d="M 1052.00 3347.00 L 1052.00 3358.00 L 866.00 3366.00 L 870.00 3446.00 L 914.00 3432.00 L 1172.00 3466.00 L 1574.00 3448.00 L 1702.00 3472.00 L 1812.00 3450.00 L 2120.00 3460.00 L 2222.00 3446.00 L 2288.21 3483.00 L 2292.64 3483.00 L 2364.00 3456.00 L 2542.00 3480.00 L 2628.00 3462.00 L 2946.00 3464.00 L 2948.09 3371.00 L 2948.00 3371.00 L 2888.00 3371.00 L 2868.00 3370.00 L 2808.00 3370.00 L 2788.00 3369.00 L 2728.00 3369.00 L 2708.00 3368.00 L 2648.00 3368.00 L 2628.00 3367.00 L 2608.00 3347.00 L 2588.00 3367.00 L 2568.00 3366.00 L 2508.00 3366.00 L 2488.00 3365.00 L 2428.00 3365.00 L 2408.00 3364.00 L 2348.00 3364.00 L 2328.00 3363.00 L 2268.00 3363.00 L 2248.00 3362.00 L 2188.00 3362.00 L 2168.00 3361.00 L 2108.00 3361.00 L 2088.00 3360.00 L 2028.00 3360.00 L 2008.00 3359.00 L 1968.00 3359.00 L 1948.00 3358.00 L 1888.00 3358.00 L 1868.00 3357.00 L 1808.00 3357.00 L 1788.00 3356.00 L 1728.00 3356.00 L 1708.00 3355.00 L 1648.00 3355.00 L 1628.00 3354.00 L 1568.00 3354.00 L 1548.00 3353.00 L 1488.00 3353.00 L 1468.00 3352.00 L 1408.00 3352.00 L 1388.00 3351.00 L 1348.00 3351.00 L 1328.00 3350.00 L 1268.00 3350.00 L 1248.00 3349.00 L 1188.00 3349.00 L 1168.00 3348.00 L 1108.00 3348.00 L 1088.00 3347.00 Z" />
</svg>
