<?xml version="1.0" standalone="no"?>
<!DOCTYPE svg PUBLIC "-//W3C//DTD SVG 1.1//EN" "http://www.w3.org/Graphics/SVG/1.1/DTD/svg11.dtd">
<svg width="46.22222in" height="69.333336in" viewBox="0 0 3328 4992" xmlns="http://www.w3.org/2000/svg" version="1.1">
<path id="csg562-034-01" fill="none" stroke="black" stroke-width="1" d="M 1844.18 880.00 L 1626.00 900.00 L 1482.00 885.00 L 1050.00 909.00 L 885.00 903.00 L 887.43 987.00 L 1609.00 987.00 L 1629.00 986.00 L 2369.00 986.00 L 2389.00 985.00 L 2948.90 985.00 L 2886.00 900.00 L 2688.22 880.00 L 2447.50 880.00 L 2178.00 891.00 L 2090.00 880.00 Z" />
<path id="csg562-034-02" fill="none" stroke="black" stroke-width="1" d="M 2389.00 985.00 L 2369.00 986.00 L 1629.00 986.00 L 1609.00 987.00 L 887.43 987.00 L 890.75 1102.00 L 2965.43 1102.00 L 2997.00 1050.00 L 2948.90 985.00 Z" />
<path id="csg562-034-03" fill="none" stroke="black" stroke-width="1" d="M 890.75 1102.00 L 893.90 1211.00 L 1649.00 1211.00 L 1669.00 1231.00 L 1689.00 1211.00 L 1929.00 1211.00 L 1949.00 1212.00 L 2269.00 1212.00 L 2289.00 1232.00 L 2309.00 1232.00 L 2329.00 1212.00 L 2999.11 1212.00 L 2946.00 1134.00 L 2965.43 1102.00 Z" />
<path id="csg562-034-04" fill="none" stroke="black" stroke-width="1" d="M 893.90 1211.00 L 897.31 1329.00 L 1609.00 1329.00 L 1629.00 1330.00 L 2389.00 1330.00 L 2409.00 1331.00 L 3017.65 1331.00 L 3042.00 1275.00 L 2999.11 1212.00 L 2329.00 1212.00 L 2309.00 1232.00 L 2289.00 1232.00 L 2269.00 1212.00 L 1949.00 1212.00 L 1929.00 1211.00 L 1689.00 1211.00 L 1669.00 1231.00 L 1649.00 1211.00 Z" />
<path id="csg562-034-05" fill="none" stroke="black" stroke-width="1" d="M 897.31 1329.00 L 900.00 1422.00 L 897.01 1438.00 L 1709.00 1438.00 L 1729.00 1439.00 L 2589.00 1439.00 L 2609.00 1440.00 L 2829.00 1440.00 L 2849.00 1460.00 L 2869.00 1460.00 L 2889.00 1440.00 L 2970.26 1440.00 L 3017.65 1331.00 L 2409.00 1331.00 L 2389.00 1330.00 L 1629.00 1330.00 L 1609.00 1329.00 Z" />
<path id="csg562-034-06" fill="none" stroke="black" stroke-width="1" d="M 897.01 1438.00 L 874.97 1556.00 L 909.00 1556.00 L 929.00 1576.00 L 949.00 1556.00 L 1609.00 1556.00 L 1629.00 1555.00 L 2369.00 1555.00 L 2389.00 1554.00 L 2976.75 1554.00 L 2952.00 1482.00 L 2970.26 1440.00 L 2889.00 1440.00 L 2869.00 1460.00 L 2849.00 1460.00 L 2829.00 1440.00 L 2609.00 1440.00 L 2589.00 1439.00 L 1729.00 1439.00 L 1709.00 1438.00 Z" />
<path id="csg562-034-07" fill="none" stroke="black" stroke-width="1" d="M 2389.00 1554.00 L 2369.00 1555.00 L 1629.00 1555.00 L 1609.00 1556.00 L 949.00 1556.00 L 929.00 1576.00 L 909.00 1556.00 L 874.97 1556.00 L 852.92 1674.04 L 869.00 1666.00 L 909.00 1666.00 L 929.00 1686.00 L 949.00 1666.00 L 1449.00 1666.00 L 1469.00 1667.00 L 2049.00 1667.00 L 2069.00 1668.00 L 2369.00 1668.00 L 2389.00 1688.00 L 2409.00 1668.00 L 2429.00 1688.00 L 2449.00 1668.00 L 2649.00 1668.00 L 2669.00 1669.00 L 2983.79 1669.00 L 2985.00 1578.00 L 2976.75 1554.00 Z" />
<path id="csg562-034-08" fill="none" stroke="black" stroke-width="1" d="M 869.00 1666.00 L 852.92 1674.04 L 849.00 1695.00 L 853.96 1777.52 L 869.00 1770.00 L 1169.00 1770.00 L 1189.00 1771.00 L 1449.00 1771.00 L 1469.00 1751.00 L 1489.00 1751.00 L 1509.00 1771.00 L 1529.00 1772.00 L 1849.00 1772.00 L 1869.00 1773.00 L 2189.00 1773.00 L 2209.00 1774.00 L 2509.00 1774.00 L 2529.00 1775.00 L 2729.00 1775.00 L 2749.00 1795.00 L 2769.00 1795.00 L 2789.00 1775.00 L 2849.00 1775.00 L 2869.00 1776.00 L 2982.36 1776.00 L 2983.79 1669.00 L 2669.00 1669.00 L 2649.00 1668.00 L 2449.00 1668.00 L 2429.00 1688.00 L 2409.00 1668.00 L 2389.00 1688.00 L 2369.00 1668.00 L 2069.00 1668.00 L 2049.00 1667.00 L 1469.00 1667.00 L 1449.00 1666.00 L 949.00 1666.00 L 929.00 1686.00 L 909.00 1666.00 Z" />
<path id="csg562-034-09" fill="none" stroke="black" stroke-width="1" d="M 1469.00 1751.00 L 1449.00 1771.00 L 1189.00 1771.00 L 1169.00 1770.00 L 869.00 1770.00 L 853.96 1777.52 L 860.26 1882.37 L 869.00 1878.00 L 969.00 1878.00 L 989.00 1879.00 L 1089.00 1879.00 L 1109.00 1880.00 L 1229.00 1880.00 L 1249.00 1881.00 L 1349.00 1881.00 L 1369.00 1882.00 L 1469.00 1882.00 L 1489.00 1883.00 L 1609.00 1883.00 L 1629.00 1884.00 L 1729.00 1884.00 L 1749.00 1885.00 L 1869.00 1885.00 L 1889.00 1886.00 L 1989.00 1886.00 L 2009.00 1887.00 L 2109.00 1887.00 L 2129.00 1888.00 L 2249.00 1888.00 L 2269.00 1889.00 L 2369.00 1889.00 L 2389.00 1890.00 L 2509.00 1890.00 L 2529.00 1891.00 L 2629.00 1891.00 L 2649.00 1892.00 L 2749.00 1892.00 L 2769.00 1893.00 L 2889.00 1893.00 L 2909.00 1894.00 L 2982.73 1894.00 L 2982.00 1803.00 L 2982.36 1776.00 L 2869.00 1776.00 L 2849.00 1775.00 L 2789.00 1775.00 L 2769.00 1795.00 L 2749.00 1795.00 L 2729.00 1775.00 L 2529.00 1775.00 L 2509.00 1774.00 L 2209.00 1774.00 L 2189.00 1773.00 L 1869.00 1773.00 L 1849.00 1772.00 L 1529.00 1772.00 L 1509.00 1771.00 L 1489.00 1751.00 Z" />
<path id="csg562-034-10" fill="none" stroke="black" stroke-width="1" d="M 869.00 1878.00 L 860.26 1882.37 L 866.73 1990.13 L 869.00 1989.00 L 969.00 1989.00 L 989.00 1990.00 L 1089.00 1990.00 L 1109.00 1991.00 L 1229.00 1991.00 L 1249.00 1992.00 L 1349.00 1992.00 L 1369.00 1993.00 L 1469.00 1993.00 L 1489.00 1994.00 L 1609.00 1994.00 L 1629.00 1995.00 L 1729.00 1995.00 L 1749.00 1996.00 L 1869.00 1996.00 L 1889.00 1997.00 L 1989.00 1997.00 L 2009.00 1998.00 L 2109.00 1998.00 L 2129.00 1999.00 L 2249.00 1999.00 L 2269.00 2000.00 L 2369.00 2000.00 L 2389.00 2001.00 L 2509.00 2001.00 L 2529.00 2002.00 L 2629.00 2002.00 L 2649.00 2003.00 L 2749.00 2003.00 L 2769.00 2004.00 L 2889.00 2004.00 L 2909.00 2005.00 L 2983.62 2005.00 L 2982.73 1894.00 L 2909.00 1894.00 L 2889.00 1893.00 L 2769.00 1893.00 L 2749.00 1892.00 L 2649.00 1892.00 L 2629.00 1891.00 L 2529.00 1891.00 L 2509.00 1890.00 L 2389.00 1890.00 L 2369.00 1889.00 L 2269.00 1889.00 L 2249.00 1888.00 L 2129.00 1888.00 L 2109.00 1887.00 L 2009.00 1887.00 L 1989.00 1886.00 L 1889.00 1886.00 L 1869.00 1885.00 L 1749.00 1885.00 L 1729.00 1884.00 L 1629.00 1884.00 L 1609.00 1883.00 L 1489.00 1883.00 L 1469.00 1882.00 L 1369.00 1882.00 L 1349.00 1881.00 L 1249.00 1881.00 L 1229.00 1880.00 L 1109.00 1880.00 L 1089.00 1879.00 L 989.00 1879.00 L 969.00 1878.00 Z" />
<path id="csg562-034-11" fill="none" stroke="black" stroke-width="1" d="M 869.00 1989.00 L 866.73 1990.13 L 873.64 2105.00 L 969.00 2105.00 L 989.00 2106.00 L 1089.00 2106.00 L 1109.00 2107.00 L 1229.00 2107.00 L 1249.00 2108.00 L 1349.00 2108.00 L 1369.00 2109.00 L 1469.00 2109.00 L 1489.00 2110.00 L 1609.00 2110.00 L 1629.00 2111.00 L 1729.00 2111.00 L 1749.00 2112.00 L 1869.00 2112.00 L 1889.00 2113.00 L 1989.00 2113.00 L 2009.00 2114.00 L 2109.00 2114.00 L 2129.00 2115.00 L 2249.00 2115.00 L 2269.00 2116.00 L 2369.00 2116.00 L 2389.00 2117.00 L 2509.00 2117.00 L 2529.00 2118.00 L 2629.00 2118.00 L 2649.00 2119.00 L 2749.00 2119.00 L 2769.00 2120.00 L 2889.00 2120.00 L 2909.00 2121.00 L 2984.54 2121.00 L 2983.62 2005.00 L 2909.00 2005.00 L 2889.00 2004.00 L 2769.00 2004.00 L 2749.00 2003.00 L 2649.00 2003.00 L 2629.00 2002.00 L 2529.00 2002.00 L 2509.00 2001.00 L 2389.00 2001.00 L 2369.00 2000.00 L 2269.00 2000.00 L 2249.00 1999.00 L 2129.00 1999.00 L 2109.00 1998.00 L 2009.00 1998.00 L 1989.00 1997.00 L 1889.00 1997.00 L 1869.00 1996.00 L 1749.00 1996.00 L 1729.00 1995.00 L 1629.00 1995.00 L 1609.00 1994.00 L 1489.00 1994.00 L 1469.00 1993.00 L 1369.00 1993.00 L 1349.00 1992.00 L 1249.00 1992.00 L 1229.00 1991.00 L 1109.00 1991.00 L 1089.00 1990.00 L 989.00 1990.00 L 969.00 1989.00 Z" />
<path id="csg562-034-12" fill="none" stroke="black" stroke-width="1" d="M 873.64 2105.00 L 881.03 2228.00 L 989.00 2228.00 L 1009.00 2229.00 L 1129.00 2229.00 L 1149.00 2230.00 L 1269.00 2230.00 L 1289.00 2231.00 L 1429.00 2231.00 L 1449.00 2232.00 L 1569.00 2232.00 L 1589.00 2233.00 L 1709.00 2233.00 L 1729.00 2234.00 L 1869.00 2234.00 L 1889.00 2235.00 L 2009.00 2235.00 L 2029.00 2236.00 L 2149.00 2236.00 L 2169.00 2237.00 L 2309.00 2237.00 L 2329.00 2238.00 L 2449.00 2238.00 L 2469.00 2239.00 L 2589.00 2239.00 L 2609.00 2240.00 L 2729.00 2240.00 L 2749.00 2241.00 L 2889.00 2241.00 L 2909.00 2242.00 L 2935.10 2242.00 L 2985.00 2178.00 L 2984.54 2121.00 L 2909.00 2121.00 L 2889.00 2120.00 L 2769.00 2120.00 L 2749.00 2119.00 L 2649.00 2119.00 L 2629.00 2118.00 L 2529.00 2118.00 L 2509.00 2117.00 L 2389.00 2117.00 L 2369.00 2116.00 L 2269.00 2116.00 L 2249.00 2115.00 L 2129.00 2115.00 L 2109.00 2114.00 L 2009.00 2114.00 L 1989.00 2113.00 L 1889.00 2113.00 L 1869.00 2112.00 L 1749.00 2112.00 L 1729.00 2111.00 L 1629.00 2111.00 L 1609.00 2110.00 L 1489.00 2110.00 L 1469.00 2109.00 L 1369.00 2109.00 L 1349.00 2108.00 L 1249.00 2108.00 L 1229.00 2107.00 L 1109.00 2107.00 L 1089.00 2106.00 L 989.00 2106.00 L 969.00 2105.00 Z" />
<path id="csg562-034-13" fill="none" stroke="black" stroke-width="1" d="M 881.03 2228.00 L 887.27 2332.00 L 909.00 2332.00 L 929.00 2312.00 L 949.00 2332.00 L 1289.00 2332.00 L 1309.00 2333.00 L 1709.00 2333.00 L 1729.00 2353.00 L 1749.00 2334.00 L 2189.00 2334.00 L 2209.00 2335.00 L 2629.00 2335.00 L 2649.00 2336.00 L 2861.81 2336.00 L 2935.10 2242.00 L 2909.00 2242.00 L 2889.00 2241.00 L 2749.00 2241.00 L 2729.00 2240.00 L 2609.00 2240.00 L 2589.00 2239.00 L 2469.00 2239.00 L 2449.00 2238.00 L 2329.00 2238.00 L 2309.00 2237.00 L 2169.00 2237.00 L 2149.00 2236.00 L 2029.00 2236.00 L 2009.00 2235.00 L 1889.00 2235.00 L 1869.00 2234.00 L 1729.00 2234.00 L 1709.00 2233.00 L 1589.00 2233.00 L 1569.00 2232.00 L 1449.00 2232.00 L 1429.00 2231.00 L 1289.00 2231.00 L 1269.00 2230.00 L 1149.00 2230.00 L 1129.00 2229.00 L 1009.00 2229.00 L 989.00 2228.00 Z" />
<path id="csg562-034-14" fill="none" stroke="black" stroke-width="1" d="M 929.00 2312.00 L 909.00 2332.00 L 887.27 2332.00 L 891.00 2394.00 L 900.61 2443.00 L 1169.00 2443.00 L 1189.00 2442.00 L 1509.00 2442.00 L 1529.00 2441.00 L 1549.00 2461.00 L 1569.00 2441.00 L 1829.00 2441.00 L 1849.00 2440.00 L 2169.00 2440.00 L 2189.00 2439.00 L 2329.00 2439.00 L 2349.00 2459.00 L 2369.00 2439.00 L 2509.00 2439.00 L 2529.00 2438.00 L 2829.00 2438.00 L 2849.00 2437.00 L 2998.83 2437.00 L 2937.00 2358.00 L 2847.00 2355.00 L 2861.81 2336.00 L 2649.00 2336.00 L 2629.00 2335.00 L 2209.00 2335.00 L 2189.00 2334.00 L 1749.00 2334.00 L 1729.00 2353.00 L 1709.00 2333.00 L 1309.00 2333.00 L 1289.00 2332.00 L 949.00 2332.00 L 929.00 2312.00 Z" />
<path id="csg562-034-15" fill="none" stroke="black" stroke-width="1" d="M 2849.00 2437.00 L 2829.00 2438.00 L 2529.00 2438.00 L 2509.00 2439.00 L 2369.00 2439.00 L 2349.00 2459.00 L 2329.00 2439.00 L 2189.00 2439.00 L 2169.00 2440.00 L 1849.00 2440.00 L 1829.00 2441.00 L 1569.00 2441.00 L 1549.00 2461.00 L 1529.00 2441.00 L 1509.00 2442.00 L 1189.00 2442.00 L 1169.00 2443.00 L 900.61 2443.00 L 921.00 2547.00 L 1086.00 2547.00 L 1085.72 2569.00 L 1129.00 2569.00 L 1149.00 2570.00 L 1409.00 2570.00 L 1429.00 2571.00 L 1709.00 2571.00 L 1729.00 2572.00 L 1989.00 2572.00 L 2009.00 2573.00 L 2289.00 2573.00 L 2309.00 2574.00 L 2569.00 2574.00 L 2589.00 2575.00 L 2869.00 2575.00 L 2889.00 2576.00 L 3001.27 2576.00 L 3045.00 2496.00 L 2998.83 2437.00 Z" />
<path id="csg562-034-16" fill="none" stroke="black" stroke-width="1" d="M 1085.72 2569.00 L 1084.41 2674.00 L 1209.00 2674.00 L 1229.00 2673.00 L 1569.00 2673.00 L 1589.00 2672.00 L 1929.00 2672.00 L 1949.00 2671.00 L 2289.00 2671.00 L 2309.00 2670.00 L 2649.00 2670.00 L 2669.00 2669.00 L 2950.43 2669.00 L 3001.27 2576.00 L 2889.00 2576.00 L 2869.00 2575.00 L 2589.00 2575.00 L 2569.00 2574.00 L 2309.00 2574.00 L 2289.00 2573.00 L 2009.00 2573.00 L 1989.00 2572.00 L 1729.00 2572.00 L 1709.00 2571.00 L 1429.00 2571.00 L 1409.00 2570.00 L 1149.00 2570.00 L 1129.00 2569.00 Z" />
<path id="csg562-034-17" fill="none" stroke="black" stroke-width="1" d="M 2669.00 2669.00 L 2649.00 2670.00 L 2309.00 2670.00 L 2289.00 2671.00 L 1949.00 2671.00 L 1929.00 2672.00 L 1589.00 2672.00 L 1569.00 2673.00 L 1229.00 2673.00 L 1209.00 2674.00 L 1084.41 2674.00 L 1083.11 2778.00 L 1109.00 2778.00 L 1129.00 2779.00 L 1369.00 2779.00 L 1389.00 2780.00 L 1629.00 2780.00 L 1649.00 2781.00 L 1909.00 2781.00 L 1929.00 2782.00 L 2169.00 2782.00 L 2189.00 2783.00 L 2249.00 2783.00 L 2269.00 2803.00 L 2289.00 2783.00 L 2429.00 2783.00 L 2449.00 2784.00 L 2689.00 2784.00 L 2709.00 2785.00 L 2943.13 2785.00 L 2922.00 2721.00 L 2950.43 2669.00 Z" />
<path id="csg562-034-18" fill="none" stroke="black" stroke-width="1" d="M 1083.11 2778.00 L 1083.00 2787.00 L 930.00 2838.00 L 927.57 2889.00 L 2189.00 2889.00 L 2209.00 2909.00 L 2229.00 2909.00 L 2249.00 2889.00 L 2649.00 2889.00 L 2669.00 2869.00 L 2689.00 2889.00 L 2977.47 2889.00 L 2943.13 2785.00 L 2709.00 2785.00 L 2689.00 2784.00 L 2449.00 2784.00 L 2429.00 2783.00 L 2289.00 2783.00 L 2269.00 2803.00 L 2249.00 2783.00 L 2189.00 2783.00 L 2169.00 2782.00 L 1929.00 2782.00 L 1909.00 2781.00 L 1649.00 2781.00 L 1629.00 2780.00 L 1389.00 2780.00 L 1369.00 2779.00 L 1129.00 2779.00 L 1109.00 2778.00 Z" />
<path id="csg562-034-19" fill="none" stroke="black" stroke-width="1" d="M 2669.00 2869.00 L 2649.00 2889.00 L 2249.00 2889.00 L 2229.00 2909.00 L 2209.00 2909.00 L 2189.00 2889.00 L 927.57 2889.00 L 922.43 2997.00 L 1229.00 2997.00 L 1249.00 2996.00 L 1609.00 2996.00 L 1629.00 2995.00 L 1929.00 2995.00 L 1949.00 3015.00 L 1969.00 2995.00 L 1989.00 2995.00 L 2009.00 2994.00 L 2369.00 2994.00 L 2389.00 2993.00 L 2769.00 2993.00 L 2789.00 2992.00 L 2969.00 2992.00 L 2989.00 2972.00 L 3009.00 2992.00 L 3011.48 2992.00 L 2977.47 2889.00 L 2689.00 2889.00 L 2669.00 2869.00 Z" />
<path id="csg562-034-20" fill="none" stroke="black" stroke-width="1" d="M 2989.00 2972.00 L 2969.00 2992.00 L 2789.00 2992.00 L 2769.00 2993.00 L 2389.00 2993.00 L 2369.00 2994.00 L 2009.00 2994.00 L 1989.00 2995.00 L 1969.00 2995.00 L 1949.00 3015.00 L 1929.00 2995.00 L 1629.00 2995.00 L 1609.00 2996.00 L 1249.00 2996.00 L 1229.00 2997.00 L 922.43 2997.00 L 916.90 3113.00 L 1509.00 3113.00 L 1529.00 3112.00 L 1929.00 3112.00 L 1949.00 3132.00 L 1969.00 3112.00 L 2169.00 3112.00 L 2189.00 3111.00 L 2829.00 3111.00 L 2849.00 3110.00 L 3009.01 3110.00 L 3027.00 3039.00 L 3011.48 2992.00 L 3009.00 2992.00 L 2989.00 2972.00 Z" />
<path id="csg562-034-21" fill="none" stroke="black" stroke-width="1" d="M 2849.00 3110.00 L 2829.00 3111.00 L 2189.00 3111.00 L 2169.00 3112.00 L 1969.00 3112.00 L 1949.00 3132.00 L 1929.00 3112.00 L 1529.00 3112.00 L 1509.00 3113.00 L 916.90 3113.00 L 911.38 3229.00 L 1169.00 3229.00 L 1189.00 3228.00 L 1489.00 3228.00 L 1509.00 3227.00 L 1809.00 3227.00 L 1829.00 3226.00 L 2129.00 3226.00 L 2149.00 3225.00 L 2449.00 3225.00 L 2469.00 3224.00 L 2769.00 3224.00 L 2789.00 3223.00 L 2980.39 3223.00 L 3009.01 3110.00 Z" />
<path id="csg562-034-22" fill="none" stroke="black" stroke-width="1" d="M 2789.00 3223.00 L 2769.00 3224.00 L 2469.00 3224.00 L 2449.00 3225.00 L 2149.00 3225.00 L 2129.00 3226.00 L 1829.00 3226.00 L 1809.00 3227.00 L 1509.00 3227.00 L 1489.00 3228.00 L 1189.00 3228.00 L 1169.00 3229.00 L 911.38 3229.00 L 906.33 3335.00 L 1049.00 3335.00 L 1069.00 3334.00 L 1249.00 3334.00 L 1269.00 3333.00 L 1449.00 3333.00 L 1469.00 3332.00 L 1649.00 3332.00 L 1669.00 3331.00 L 1869.00 3331.00 L 1889.00 3330.00 L 2069.00 3330.00 L 2089.00 3329.00 L 2269.00 3329.00 L 2289.00 3328.00 L 2469.00 3328.00 L 2489.00 3327.00 L 2669.00 3327.00 L 2689.00 3326.00 L 2889.00 3326.00 L 2909.00 3325.00 L 2977.96 3325.00 L 2970.00 3264.00 L 2980.39 3223.00 Z" />
<path id="csg562-034-23" fill="none" stroke="black" stroke-width="1" d="M 2909.00 3325.00 L 2889.00 3326.00 L 2689.00 3326.00 L 2669.00 3327.00 L 2489.00 3327.00 L 2469.00 3328.00 L 2289.00 3328.00 L 2269.00 3329.00 L 2089.00 3329.00 L 2069.00 3330.00 L 1889.00 3330.00 L 1869.00 3331.00 L 1669.00 3331.00 L 1649.00 3332.00 L 1469.00 3332.00 L 1449.00 3333.00 L 1269.00 3333.00 L 1249.00 3334.00 L 1069.00 3334.00 L 1049.00 3335.00 L 906.33 3335.00 L 900.62 3455.00 L 909.00 3455.00 L 929.00 3475.00 L 949.00 3455.00 L 1189.00 3455.00 L 1209.00 3454.00 L 1349.00 3454.00 L 1369.00 3474.00 L 1389.00 3454.00 L 1529.00 3454.00 L 1549.00 3453.00 L 1869.00 3453.00 L 1889.00 3452.00 L 2229.00 3452.00 L 2249.00 3451.00 L 2569.00 3451.00 L 2589.00 3450.00 L 2749.00 3450.00 L 2769.00 3470.00 L 2789.00 3450.00 L 2909.00 3450.00 L 2929.00 3449.00 L 2994.13 3449.00 L 2977.96 3325.00 Z" />
<path id="csg562-034-24" fill="none" stroke="black" stroke-width="1" d="M 2929.00 3449.00 L 2909.00 3450.00 L 2789.00 3450.00 L 2769.00 3470.00 L 2749.00 3450.00 L 2589.00 3450.00 L 2569.00 3451.00 L 2249.00 3451.00 L 2229.00 3452.00 L 1889.00 3452.00 L 1869.00 3453.00 L 1549.00 3453.00 L 1529.00 3454.00 L 1389.00 3454.00 L 1369.00 3474.00 L 1349.00 3454.00 L 1209.00 3454.00 L 1189.00 3455.00 L 949.00 3455.00 L 929.00 3475.00 L 909.00 3455.00 L 900.62 3455.00 L 897.00 3531.00 L 935.75 3562.00 L 989.00 3562.00 L 1009.00 3561.00 L 1149.00 3561.00 L 1169.00 3560.00 L 1209.00 3560.00 L 1225.02 3574.42 L 1253.52 3573.93 L 1269.00 3560.00 L 1309.00 3560.00 L 1329.00 3559.00 L 1409.00 3559.00 L 1425.74 3574.90 L 1451.68 3575.32 L 1469.00 3558.00 L 1609.00 3558.00 L 1629.00 3557.00 L 1769.00 3557.00 L 1789.00 3556.00 L 1909.00 3556.00 L 1929.00 3555.00 L 2069.00 3555.00 L 2089.00 3554.00 L 2224.33 3554.00 L 2231.60 3553.87 L 2249.00 3553.00 L 2280.17 3553.00 L 3006.00 3540.00 L 2994.13 3449.00 Z" />
</svg>
