<?xml version="1.0" standalone="no"?>
<!DOCTYPE svg PUBLIC "-//W3C//DTD SVG 1.1//EN" "http://www.w3.org/Graphics/SVG/1.1/DTD/svg11.dtd">
<svg width="46.22222in" height="69.333336in" viewBox="0 0 3328 4992" xmlns="http://www.w3.org/2000/svg" version="1.1">
<path id="csg562-003-01" fill="none" stroke="black" stroke-width="1" d="M 1575.00 2010.00 L 1404.00 2028.00 L 1200.00 2019.00 L 1065.00 2022.00 L 876.00 2037.00 L 633.00 2028.00 L 516.00 2031.00 L 399.00 2037.00 L 395.47 2113.00 L 468.00 2113.00 L 488.00 2112.00 L 608.00 2112.00 L 628.00 2111.00 L 708.00 2111.00 L 728.00 2131.00 L 748.00 2111.00 L 768.00 2110.00 L 888.00 2110.00 L 908.00 2109.00 L 1028.00 2109.00 L 1048.00 2108.00 L 1168.00 2108.00 L 1188.00 2107.00 L 1308.00 2107.00 L 1328.00 2106.00 L 1448.00 2106.00 L 1468.00 2105.00 L 1588.00 2105.00 L 1608.00 2104.00 L 1728.00 2104.00 L 1748.00 2103.00 L 1868.00 2103.00 L 1888.00 2102.00 L 1988.00 2102.00 L 2008.00 2101.00 L 2128.00 2101.00 L 2148.00 2100.00 L 2268.00 2100.00 L 2288.00 2099.00 L 2348.00 2099.00 L 2368.00 2119.00 L 2388.00 2099.00 L 2408.00 2099.00 L 2428.00 2098.00 L 2527.14 2098.00 L 2541.00 2052.00 L 2436.00 2019.00 L 2175.00 2016.00 L 1800.00 2019.00 L 1575.00 2010.00 Z" />
<path id="csg562-003-02" fill="none" stroke="black" stroke-width="1" d="M 2428.00 2098.00 L 2408.00 2099.00 L 2388.00 2099.00 L 2368.00 2119.00 L 2348.00 2099.00 L 2288.00 2099.00 L 2268.00 2100.00 L 2148.00 2100.00 L 2128.00 2101.00 L 2008.00 2101.00 L 1988.00 2102.00 L 1888.00 2102.00 L 1868.00 2103.00 L 1748.00 2103.00 L 1728.00 2104.00 L 1608.00 2104.00 L 1588.00 2105.00 L 1468.00 2105.00 L 1448.00 2106.00 L 1328.00 2106.00 L 1308.00 2107.00 L 1188.00 2107.00 L 1168.00 2108.00 L 1048.00 2108.00 L 1028.00 2109.00 L 908.00 2109.00 L 888.00 2110.00 L 768.00 2110.00 L 748.00 2111.00 L 728.00 2131.00 L 708.00 2111.00 L 628.00 2111.00 L 608.00 2112.00 L 488.00 2112.00 L 468.00 2113.00 L 395.47 2113.00 L 389.70 2237.00 L 428.00 2237.00 L 448.00 2236.00 L 528.00 2236.00 L 548.00 2235.00 L 628.00 2235.00 L 648.00 2234.00 L 728.00 2234.00 L 748.00 2233.00 L 828.00 2233.00 L 848.00 2232.00 L 928.00 2232.00 L 948.00 2231.00 L 1028.00 2231.00 L 1048.00 2230.00 L 1128.00 2230.00 L 1148.00 2229.00 L 1228.00 2229.00 L 1248.00 2228.00 L 1268.00 2228.00 L 1288.00 2248.00 L 1308.00 2248.00 L 1328.00 2228.00 L 1348.00 2227.00 L 1428.00 2227.00 L 1448.00 2226.00 L 1528.00 2226.00 L 1548.00 2225.00 L 1628.00 2225.00 L 1648.00 2224.00 L 1728.00 2224.00 L 1748.00 2223.00 L 1828.00 2223.00 L 1848.00 2222.00 L 1928.00 2222.00 L 1948.00 2221.00 L 2028.00 2221.00 L 2048.00 2220.00 L 2128.00 2220.00 L 2148.00 2219.00 L 2228.00 2219.00 L 2248.00 2218.00 L 2328.00 2218.00 L 2348.00 2217.00 L 2428.00 2217.00 L 2448.00 2216.00 L 2491.58 2216.00 L 2527.14 2098.00 Z" />
<path id="csg562-003-03" fill="none" stroke="black" stroke-width="1" d="M 2448.00 2216.00 L 2428.00 2217.00 L 2348.00 2217.00 L 2328.00 2218.00 L 2248.00 2218.00 L 2228.00 2219.00 L 2148.00 2219.00 L 2128.00 2220.00 L 2048.00 2220.00 L 2028.00 2221.00 L 1948.00 2221.00 L 1928.00 2222.00 L 1848.00 2222.00 L 1828.00 2223.00 L 1748.00 2223.00 L 1728.00 2224.00 L 1648.00 2224.00 L 1628.00 2225.00 L 1548.00 2225.00 L 1528.00 2226.00 L 1448.00 2226.00 L 1428.00 2227.00 L 1348.00 2227.00 L 1328.00 2228.00 L 1308.00 2248.00 L 1288.00 2248.00 L 1268.00 2228.00 L 1248.00 2228.00 L 1228.00 2229.00 L 1148.00 2229.00 L 1128.00 2230.00 L 1048.00 2230.00 L 1028.00 2231.00 L 948.00 2231.00 L 928.00 2232.00 L 848.00 2232.00 L 828.00 2233.00 L 748.00 2233.00 L 728.00 2234.00 L 648.00 2234.00 L 628.00 2235.00 L 548.00 2235.00 L 528.00 2236.00 L 448.00 2236.00 L 428.00 2237.00 L 389.70 2237.00 L 387.00 2295.00 L 385.12 2347.00 L 428.00 2347.00 L 448.00 2346.00 L 508.00 2346.00 L 528.00 2345.00 L 588.00 2345.00 L 608.00 2344.00 L 668.00 2344.00 L 688.00 2343.00 L 768.00 2343.00 L 788.00 2342.00 L 848.00 2342.00 L 868.00 2341.00 L 928.00 2341.00 L 948.00 2340.00 L 1008.00 2340.00 L 1028.00 2339.00 L 1108.00 2339.00 L 1128.00 2338.00 L 1188.00 2338.00 L 1208.00 2357.00 L 1228.00 2337.00 L 1268.00 2337.00 L 1288.00 2336.00 L 1348.00 2336.00 L 1368.00 2335.00 L 1428.00 2335.00 L 1448.00 2334.00 L 1528.00 2334.00 L 1548.00 2333.00 L 1608.00 2333.00 L 1628.00 2332.00 L 1688.00 2332.00 L 1708.00 2331.00 L 1768.00 2331.00 L 1788.00 2330.00 L 1868.00 2330.00 L 1888.00 2329.00 L 1928.00 2329.00 L 1948.00 2349.00 L 1968.00 2348.00 L 1988.00 2348.00 L 2008.00 2328.00 L 2028.00 2328.00 L 2048.00 2327.00 L 2108.00 2327.00 L 2128.00 2326.00 L 2208.00 2326.00 L 2228.00 2325.00 L 2288.00 2325.00 L 2308.00 2324.00 L 2368.00 2324.00 L 2388.00 2323.00 L 2448.00 2323.00 L 2468.00 2322.00 L 2491.32 2322.00 L 2475.00 2271.00 L 2491.58 2216.00 Z" />
<path id="csg562-003-04" fill="none" stroke="black" stroke-width="1" d="M 2468.00 2322.00 L 2448.00 2323.00 L 2388.00 2323.00 L 2368.00 2324.00 L 2308.00 2324.00 L 2288.00 2325.00 L 2228.00 2325.00 L 2208.00 2326.00 L 2128.00 2326.00 L 2108.00 2327.00 L 2048.00 2327.00 L 2028.00 2328.00 L 2008.00 2328.00 L 1988.00 2348.00 L 1968.00 2348.00 L 1948.00 2349.00 L 1928.00 2329.00 L 1888.00 2329.00 L 1868.00 2330.00 L 1788.00 2330.00 L 1768.00 2331.00 L 1708.00 2331.00 L 1688.00 2332.00 L 1628.00 2332.00 L 1608.00 2333.00 L 1548.00 2333.00 L 1528.00 2334.00 L 1448.00 2334.00 L 1428.00 2335.00 L 1368.00 2335.00 L 1348.00 2336.00 L 1288.00 2336.00 L 1268.00 2337.00 L 1228.00 2337.00 L 1208.00 2357.00 L 1188.00 2338.00 L 1128.00 2338.00 L 1108.00 2339.00 L 1028.00 2339.00 L 1008.00 2340.00 L 948.00 2340.00 L 928.00 2341.00 L 868.00 2341.00 L 848.00 2342.00 L 788.00 2342.00 L 768.00 2343.00 L 688.00 2343.00 L 668.00 2344.00 L 608.00 2344.00 L 588.00 2345.00 L 528.00 2345.00 L 508.00 2346.00 L 448.00 2346.00 L 428.00 2347.00 L 385.12 2347.00 L 380.78 2467.00 L 468.00 2467.00 L 488.00 2466.00 L 588.00 2466.00 L 608.00 2485.00 L 628.00 2485.00 L 648.00 2465.00 L 708.00 2465.00 L 728.00 2464.00 L 828.00 2464.00 L 848.00 2463.00 L 948.00 2463.00 L 968.00 2462.00 L 1068.00 2462.00 L 1088.00 2461.00 L 1148.00 2461.00 L 1168.00 2481.00 L 1188.00 2461.00 L 1208.00 2460.00 L 1308.00 2460.00 L 1328.00 2459.00 L 1428.00 2459.00 L 1448.00 2456.00 L 1468.00 2450.00 L 1488.00 2435.00 L 1508.00 2435.00 L 1528.00 2447.00 L 1548.00 2447.00 L 1568.00 2457.00 L 1688.00 2457.00 L 1708.00 2456.00 L 1808.00 2456.00 L 1828.00 2455.00 L 1928.00 2455.00 L 1948.00 2454.00 L 2048.00 2454.00 L 2068.00 2453.00 L 2168.00 2453.00 L 2188.00 2452.00 L 2288.00 2452.00 L 2308.00 2451.00 L 2408.00 2451.00 L 2428.00 2450.00 L 2516.56 2450.00 L 2523.00 2421.00 L 2491.32 2322.00 Z" />
<path id="csg562-003-05" fill="none" stroke="black" stroke-width="1" d="M 1488.00 2435.00 L 1468.00 2450.00 L 1448.00 2456.00 L 1428.00 2459.00 L 1328.00 2459.00 L 1308.00 2460.00 L 1208.00 2460.00 L 1188.00 2461.00 L 1168.00 2481.00 L 1148.00 2461.00 L 1088.00 2461.00 L 1068.00 2462.00 L 968.00 2462.00 L 948.00 2463.00 L 848.00 2463.00 L 828.00 2464.00 L 728.00 2464.00 L 708.00 2465.00 L 648.00 2465.00 L 628.00 2485.00 L 608.00 2485.00 L 588.00 2466.00 L 488.00 2466.00 L 468.00 2467.00 L 380.78 2467.00 L 377.31 2563.00 L 428.00 2563.00 L 448.00 2562.00 L 528.00 2562.00 L 548.00 2561.00 L 628.00 2561.00 L 648.00 2560.00 L 728.00 2560.00 L 748.00 2559.00 L 828.00 2559.00 L 848.00 2558.00 L 908.00 2558.00 L 928.00 2557.00 L 1008.00 2557.00 L 1028.00 2556.00 L 1108.00 2556.00 L 1128.00 2555.00 L 1208.00 2555.00 L 1228.00 2554.00 L 1308.00 2554.00 L 1328.00 2553.00 L 1388.00 2553.00 L 1408.00 2552.00 L 1488.00 2552.00 L 1508.00 2551.00 L 1588.00 2551.00 L 1608.00 2550.00 L 1688.00 2550.00 L 1708.00 2549.00 L 1788.00 2549.00 L 1808.00 2548.00 L 1888.00 2548.00 L 1908.00 2547.00 L 1948.00 2547.00 L 1968.00 2567.00 L 1988.00 2586.00 L 2008.00 2566.00 L 2028.00 2566.00 L 2048.00 2546.00 L 2068.00 2546.00 L 2088.00 2545.00 L 2168.00 2545.00 L 2188.00 2544.00 L 2268.00 2544.00 L 2288.00 2543.00 L 2368.00 2543.00 L 2388.00 2542.00 L 2448.00 2542.00 L 2468.00 2541.00 L 2517.70 2541.00 L 2505.00 2502.00 L 2516.56 2450.00 L 2428.00 2450.00 L 2408.00 2451.00 L 2308.00 2451.00 L 2288.00 2452.00 L 2188.00 2452.00 L 2168.00 2453.00 L 2068.00 2453.00 L 2048.00 2454.00 L 1948.00 2454.00 L 1928.00 2455.00 L 1828.00 2455.00 L 1808.00 2456.00 L 1708.00 2456.00 L 1688.00 2457.00 L 1568.00 2457.00 L 1548.00 2447.00 L 1528.00 2447.00 L 1508.00 2435.00 Z" />
<path id="csg562-003-06" fill="none" stroke="black" stroke-width="1" d="M 2468.00 2541.00 L 2448.00 2542.00 L 2388.00 2542.00 L 2368.00 2543.00 L 2288.00 2543.00 L 2268.00 2544.00 L 2188.00 2544.00 L 2168.00 2545.00 L 2088.00 2545.00 L 2068.00 2546.00 L 2048.00 2546.00 L 2028.00 2566.00 L 2008.00 2566.00 L 1988.00 2586.00 L 1968.00 2567.00 L 1948.00 2547.00 L 1908.00 2547.00 L 1888.00 2548.00 L 1808.00 2548.00 L 1788.00 2549.00 L 1708.00 2549.00 L 1688.00 2550.00 L 1608.00 2550.00 L 1588.00 2551.00 L 1508.00 2551.00 L 1488.00 2552.00 L 1408.00 2552.00 L 1388.00 2553.00 L 1328.00 2553.00 L 1308.00 2554.00 L 1228.00 2554.00 L 1208.00 2555.00 L 1128.00 2555.00 L 1108.00 2556.00 L 1028.00 2556.00 L 1008.00 2557.00 L 928.00 2557.00 L 908.00 2558.00 L 848.00 2558.00 L 828.00 2559.00 L 748.00 2559.00 L 728.00 2560.00 L 648.00 2560.00 L 628.00 2561.00 L 548.00 2561.00 L 528.00 2562.00 L 448.00 2562.00 L 428.00 2563.00 L 377.31 2563.00 L 373.37 2672.00 L 488.00 2672.00 L 508.00 2671.00 L 528.00 2691.00 L 548.00 2691.00 L 568.00 2671.00 L 628.00 2671.00 L 648.00 2670.00 L 768.00 2670.00 L 788.00 2669.00 L 908.00 2669.00 L 928.00 2668.00 L 1068.00 2668.00 L 1088.00 2667.00 L 1208.00 2667.00 L 1228.00 2666.00 L 1348.00 2666.00 L 1368.00 2665.00 L 1488.00 2665.00 L 1508.00 2664.00 L 1628.00 2664.00 L 1648.00 2663.00 L 1788.00 2663.00 L 1808.00 2662.00 L 1928.00 2662.00 L 1948.00 2661.00 L 2068.00 2661.00 L 2088.00 2660.00 L 2108.00 2660.00 L 2128.00 2680.00 L 2148.00 2680.00 L 2168.00 2660.00 L 2208.00 2660.00 L 2228.00 2659.00 L 2368.00 2659.00 L 2388.00 2658.00 L 2508.00 2658.00 L 2528.00 2657.00 L 2528.80 2657.00 L 2547.00 2631.00 L 2517.70 2541.00 Z" />
<path id="csg562-003-07" fill="none" stroke="black" stroke-width="1" d="M 2528.00 2657.00 L 2508.00 2658.00 L 2388.00 2658.00 L 2368.00 2659.00 L 2228.00 2659.00 L 2208.00 2660.00 L 2168.00 2660.00 L 2148.00 2680.00 L 2128.00 2680.00 L 2108.00 2660.00 L 2088.00 2660.00 L 2068.00 2661.00 L 1948.00 2661.00 L 1928.00 2662.00 L 1808.00 2662.00 L 1788.00 2663.00 L 1648.00 2663.00 L 1628.00 2664.00 L 1508.00 2664.00 L 1488.00 2665.00 L 1368.00 2665.00 L 1348.00 2666.00 L 1228.00 2666.00 L 1208.00 2667.00 L 1088.00 2667.00 L 1068.00 2668.00 L 928.00 2668.00 L 908.00 2669.00 L 788.00 2669.00 L 768.00 2670.00 L 648.00 2670.00 L 628.00 2671.00 L 568.00 2671.00 L 548.00 2691.00 L 528.00 2691.00 L 508.00 2671.00 L 488.00 2672.00 L 373.37 2672.00 L 369.43 2781.00 L 568.00 2781.00 L 588.00 2780.00 L 788.00 2780.00 L 808.00 2779.00 L 1008.00 2779.00 L 1028.00 2778.00 L 1228.00 2778.00 L 1248.00 2777.00 L 1448.00 2777.00 L 1468.00 2776.00 L 1668.00 2776.00 L 1688.00 2775.00 L 1888.00 2775.00 L 1908.00 2774.00 L 2108.00 2774.00 L 2128.00 2773.00 L 2328.00 2773.00 L 2348.00 2772.00 L 2487.09 2772.00 L 2484.00 2721.00 L 2528.80 2657.00 Z" />
<path id="csg562-003-08" fill="none" stroke="black" stroke-width="1" d="M 2348.00 2772.00 L 2328.00 2773.00 L 2128.00 2773.00 L 2108.00 2774.00 L 1908.00 2774.00 L 1888.00 2775.00 L 1688.00 2775.00 L 1668.00 2776.00 L 1468.00 2776.00 L 1448.00 2777.00 L 1248.00 2777.00 L 1228.00 2778.00 L 1028.00 2778.00 L 1008.00 2779.00 L 808.00 2779.00 L 788.00 2780.00 L 588.00 2780.00 L 568.00 2781.00 L 369.43 2781.00 L 369.00 2793.00 L 365.67 2897.28 L 368.00 2896.00 L 388.00 2896.00 L 408.00 2916.00 L 428.00 2916.00 L 448.00 2896.00 L 528.00 2896.00 L 548.00 2895.00 L 728.00 2895.00 L 748.00 2894.00 L 928.00 2894.00 L 948.00 2893.00 L 1108.00 2893.00 L 1128.00 2892.00 L 1308.00 2892.00 L 1328.00 2891.00 L 1508.00 2891.00 L 1528.00 2890.00 L 1608.00 2890.00 L 1628.00 2910.00 L 1648.00 2890.00 L 1708.00 2890.00 L 1728.00 2889.00 L 1888.00 2889.00 L 1908.00 2888.00 L 2088.00 2888.00 L 2108.00 2907.00 L 2128.00 2907.00 L 2148.00 2887.00 L 2288.00 2887.00 L 2308.00 2886.00 L 2488.00 2886.00 L 2508.00 2885.00 L 2512.16 2885.00 L 2490.00 2820.00 L 2487.09 2772.00 Z" />
<path id="csg562-003-09" fill="none" stroke="black" stroke-width="1" d="M 2508.00 2885.00 L 2488.00 2886.00 L 2308.00 2886.00 L 2288.00 2887.00 L 2148.00 2887.00 L 2128.00 2907.00 L 2108.00 2907.00 L 2088.00 2888.00 L 1908.00 2888.00 L 1888.00 2889.00 L 1728.00 2889.00 L 1708.00 2890.00 L 1648.00 2890.00 L 1628.00 2910.00 L 1608.00 2890.00 L 1528.00 2890.00 L 1508.00 2891.00 L 1328.00 2891.00 L 1308.00 2892.00 L 1128.00 2892.00 L 1108.00 2893.00 L 948.00 2893.00 L 928.00 2894.00 L 748.00 2894.00 L 728.00 2895.00 L 548.00 2895.00 L 528.00 2896.00 L 448.00 2896.00 L 428.00 2916.00 L 408.00 2916.00 L 388.00 2896.00 L 368.00 2896.00 L 365.67 2897.28 L 361.70 3021.47 L 368.00 3018.00 L 528.00 3018.00 L 548.00 3017.00 L 728.00 3017.00 L 748.00 3016.00 L 928.00 3016.00 L 948.00 3015.00 L 1128.00 3015.00 L 1148.00 3014.00 L 1328.00 3014.00 L 1348.00 3013.00 L 1528.00 3013.00 L 1548.00 3012.00 L 1728.00 3012.00 L 1748.00 3011.00 L 1928.00 3011.00 L 1948.00 3010.00 L 2128.00 3010.00 L 2148.00 3009.00 L 2328.00 3009.00 L 2348.00 3008.00 L 2513.81 3008.00 L 2535.00 2952.00 L 2512.16 2885.00 Z" />
<path id="csg562-003-10" fill="none" stroke="black" stroke-width="1" d="M 2348.00 3008.00 L 2328.00 3009.00 L 2148.00 3009.00 L 2128.00 3010.00 L 1948.00 3010.00 L 1928.00 3011.00 L 1748.00 3011.00 L 1728.00 3012.00 L 1548.00 3012.00 L 1528.00 3013.00 L 1348.00 3013.00 L 1328.00 3014.00 L 1148.00 3014.00 L 1128.00 3015.00 L 948.00 3015.00 L 928.00 3016.00 L 748.00 3016.00 L 728.00 3017.00 L 548.00 3017.00 L 528.00 3018.00 L 368.00 3018.00 L 361.70 3021.47 L 358.28 3128.35 L 368.00 3123.00 L 508.00 3123.00 L 528.00 3122.00 L 688.00 3122.00 L 708.00 3121.00 L 848.00 3121.00 L 868.00 3120.00 L 1028.00 3120.00 L 1048.00 3119.00 L 1068.00 3139.00 L 1088.00 3119.00 L 1168.00 3119.00 L 1188.00 3139.00 L 1208.00 3118.00 L 1368.00 3118.00 L 1388.00 3117.00 L 1528.00 3117.00 L 1548.00 3116.00 L 1708.00 3116.00 L 1728.00 3115.00 L 1868.00 3115.00 L 1888.00 3114.00 L 1988.00 3114.00 L 2008.00 3134.00 L 2028.00 3114.00 L 2048.00 3114.00 L 2068.00 3113.00 L 2208.00 3113.00 L 2228.00 3112.00 L 2388.00 3112.00 L 2408.00 3111.00 L 2428.00 3131.00 L 2448.00 3111.00 L 2508.00 3111.00 L 2493.00 3063.00 L 2513.81 3008.00 Z" />
<path id="csg562-003-11" fill="none" stroke="black" stroke-width="1" d="M 2408.00 3111.00 L 2388.00 3112.00 L 2228.00 3112.00 L 2208.00 3113.00 L 2068.00 3113.00 L 2048.00 3114.00 L 2028.00 3114.00 L 2008.00 3134.00 L 1988.00 3114.00 L 1888.00 3114.00 L 1868.00 3115.00 L 1728.00 3115.00 L 1708.00 3116.00 L 1548.00 3116.00 L 1528.00 3117.00 L 1388.00 3117.00 L 1368.00 3118.00 L 1208.00 3118.00 L 1188.00 3139.00 L 1168.00 3119.00 L 1088.00 3119.00 L 1068.00 3139.00 L 1048.00 3119.00 L 1028.00 3120.00 L 868.00 3120.00 L 848.00 3121.00 L 708.00 3121.00 L 688.00 3122.00 L 528.00 3122.00 L 508.00 3123.00 L 368.00 3123.00 L 358.28 3128.35 L 354.73 3239.30 L 368.00 3232.00 L 548.00 3232.00 L 568.00 3231.00 L 768.00 3231.00 L 788.00 3230.00 L 988.00 3230.00 L 1008.00 3229.00 L 1188.00 3229.00 L 1208.00 3228.00 L 1408.00 3228.00 L 1428.00 3227.00 L 1628.00 3227.00 L 1648.00 3226.00 L 1848.00 3226.00 L 1868.00 3225.00 L 1968.00 3225.00 L 1988.00 3245.00 L 2008.00 3225.00 L 2048.00 3225.00 L 2068.00 3224.00 L 2268.00 3224.00 L 2288.00 3223.00 L 2488.00 3223.00 L 2508.00 3222.00 L 2518.08 3222.00 L 2523.00 3159.00 L 2508.00 3111.00 L 2448.00 3111.00 L 2428.00 3131.00 L 2408.00 3111.00 Z" />
<path id="csg562-003-12" fill="none" stroke="black" stroke-width="1" d="M 2508.00 3222.00 L 2488.00 3223.00 L 2288.00 3223.00 L 2268.00 3224.00 L 2068.00 3224.00 L 2048.00 3225.00 L 2008.00 3225.00 L 1988.00 3245.00 L 1968.00 3225.00 L 1868.00 3225.00 L 1848.00 3226.00 L 1648.00 3226.00 L 1628.00 3227.00 L 1428.00 3227.00 L 1408.00 3228.00 L 1208.00 3228.00 L 1188.00 3229.00 L 1008.00 3229.00 L 988.00 3230.00 L 788.00 3230.00 L 768.00 3231.00 L 568.00 3231.00 L 548.00 3232.00 L 368.00 3232.00 L 354.73 3239.30 L 350.93 3358.39 L 368.00 3349.00 L 448.00 3349.00 L 468.00 3348.00 L 548.00 3348.00 L 568.00 3347.00 L 648.00 3347.00 L 668.00 3346.00 L 708.00 3346.00 L 728.00 3366.00 L 748.00 3366.00 L 768.00 3346.00 L 788.00 3345.00 L 868.00 3345.00 L 888.00 3344.00 L 968.00 3344.00 L 988.00 3343.00 L 1088.00 3343.00 L 1108.00 3342.00 L 1188.00 3342.00 L 1208.00 3341.00 L 1288.00 3341.00 L 1308.00 3340.00 L 1388.00 3340.00 L 1408.00 3339.00 L 1508.00 3339.00 L 1528.00 3338.00 L 1608.00 3338.00 L 1628.00 3337.00 L 1668.00 3337.00 L 1688.00 3357.00 L 1708.00 3337.00 L 1728.00 3336.00 L 1828.00 3336.00 L 1848.00 3335.00 L 1928.00 3335.00 L 1948.00 3334.00 L 1968.00 3334.00 L 1988.00 3354.00 L 2008.00 3334.00 L 2028.00 3334.00 L 2048.00 3333.00 L 2128.00 3333.00 L 2148.00 3332.00 L 2248.00 3332.00 L 2268.00 3331.00 L 2348.00 3331.00 L 2368.00 3330.00 L 2448.00 3330.00 L 2468.00 3329.00 L 2509.72 3329.00 L 2518.08 3222.00 Z" />
<path id="csg562-003-13" fill="none" stroke="black" stroke-width="1" d="M 2468.00 3329.00 L 2448.00 3330.00 L 2368.00 3330.00 L 2348.00 3331.00 L 2268.00 3331.00 L 2248.00 3332.00 L 2148.00 3332.00 L 2128.00 3333.00 L 2048.00 3333.00 L 2028.00 3334.00 L 2008.00 3334.00 L 1988.00 3354.00 L 1968.00 3334.00 L 1948.00 3334.00 L 1928.00 3335.00 L 1848.00 3335.00 L 1828.00 3336.00 L 1728.00 3336.00 L 1708.00 3337.00 L 1688.00 3357.00 L 1668.00 3337.00 L 1628.00 3337.00 L 1608.00 3338.00 L 1528.00 3338.00 L 1508.00 3339.00 L 1408.00 3339.00 L 1388.00 3340.00 L 1308.00 3340.00 L 1288.00 3341.00 L 1208.00 3341.00 L 1188.00 3342.00 L 1108.00 3342.00 L 1088.00 3343.00 L 988.00 3343.00 L 968.00 3344.00 L 888.00 3344.00 L 868.00 3345.00 L 788.00 3345.00 L 768.00 3346.00 L 748.00 3366.00 L 728.00 3366.00 L 708.00 3346.00 L 668.00 3346.00 L 648.00 3347.00 L 568.00 3347.00 L 548.00 3348.00 L 468.00 3348.00 L 448.00 3349.00 L 368.00 3349.00 L 350.93 3358.39 L 348.00 3450.00 L 448.64 3459.00 L 488.00 3459.00 L 508.00 3458.00 L 568.00 3458.00 L 588.00 3457.00 L 648.00 3457.00 L 668.00 3456.00 L 728.00 3456.00 L 748.00 3455.00 L 808.00 3455.00 L 828.00 3454.00 L 868.00 3454.00 L 888.00 3453.00 L 948.00 3453.00 L 968.00 3452.00 L 1028.00 3452.00 L 1048.00 3451.00 L 1108.00 3451.00 L 1128.00 3450.00 L 1168.00 3450.00 L 1188.00 3470.00 L 1208.00 3469.00 L 1228.00 3449.00 L 1268.00 3449.00 L 1288.00 3448.00 L 1348.00 3448.00 L 1368.00 3447.00 L 1408.00 3447.00 L 1428.00 3446.00 L 1488.00 3446.00 L 1508.00 3445.00 L 1568.00 3445.00 L 1588.00 3444.00 L 1648.00 3444.00 L 1668.00 3443.00 L 1728.00 3443.00 L 1748.00 3442.00 L 1808.00 3442.00 L 1828.00 3441.00 L 1888.00 3441.00 L 1908.00 3440.00 L 1948.00 3440.00 L 1968.00 3439.00 L 2028.00 3439.00 L 2048.00 3438.00 L 2108.00 3438.00 L 2128.00 3437.00 L 2188.00 3437.00 L 2208.00 3436.00 L 2268.00 3436.00 L 2288.00 3435.00 L 2348.00 3435.00 L 2368.00 3434.00 L 2398.00 3434.00 L 2493.00 3429.00 L 2508.00 3351.00 L 2509.72 3329.00 Z" />
</svg>
