<?xml version="1.0" standalone="no"?>
<!DOCTYPE svg PUBLIC "-//W3C//DTD SVG 1.1//EN" "http://www.w3.org/Graphics/SVG/1.1/DTD/svg11.dtd">
<svg width="46.22222in" height="69.333336in" viewBox="0 0 3328 4992" xmlns="http://www.w3.org/2000/svg" version="1.1">
<path id="csg562-013-01" fill="none" stroke="black" stroke-width="1" d="M 429.00 894.00 L 390.00 990.00 L 387.71 1010.00 L 435.00 1010.00 L 455.00 1011.00 L 575.00 1011.00 L 595.00 1012.00 L 695.00 1012.00 L 715.00 1013.00 L 835.00 1013.00 L 855.00 1014.00 L 955.00 1014.00 L 975.00 1015.00 L 1095.00 1015.00 L 1115.00 1016.00 L 1215.00 1016.00 L 1235.00 1017.00 L 1355.00 1017.00 L 1375.00 1018.00 L 1475.00 1018.00 L 1495.00 1019.00 L 1615.00 1019.00 L 1635.00 1020.00 L 1735.00 1020.00 L 1755.00 1021.00 L 1875.00 1021.00 L 1895.00 1022.00 L 1995.00 1022.00 L 2015.00 1023.00 L 2135.00 1023.00 L 2155.00 1024.00 L 2255.00 1024.00 L 2275.00 1025.00 L 2395.00 1025.00 L 2415.00 1026.00 L 2481.00 1026.00 L 2496.00 921.00 L 2337.00 918.00 L 1926.00 909.00 L 1329.00 915.00 L 1035.00 900.00 L 603.00 918.00 L 429.00 894.00 Z" />
<path id="csg562-013-02" fill="none" stroke="black" stroke-width="1" d="M 387.71 1010.00 L 374.57 1125.00 L 395.00 1125.00 L 415.00 1126.00 L 475.00 1126.00 L 495.00 1127.00 L 575.00 1127.00 L 595.00 1128.00 L 655.00 1128.00 L 675.00 1129.00 L 755.00 1129.00 L 775.00 1130.00 L 835.00 1130.00 L 855.00 1131.00 L 915.00 1131.00 L 935.00 1132.00 L 1015.00 1132.00 L 1035.00 1133.00 L 1095.00 1133.00 L 1115.00 1134.00 L 1195.00 1134.00 L 1215.00 1135.00 L 1275.00 1135.00 L 1295.00 1136.00 L 1375.00 1136.00 L 1395.00 1137.00 L 1455.00 1137.00 L 1475.00 1138.00 L 1535.00 1138.00 L 1555.00 1139.00 L 1635.00 1139.00 L 1655.00 1140.00 L 1715.00 1140.00 L 1735.00 1141.00 L 1815.00 1141.00 L 1835.00 1142.00 L 1895.00 1142.00 L 1915.00 1143.00 L 1995.00 1143.00 L 2015.00 1144.00 L 2075.00 1144.00 L 2095.00 1145.00 L 2155.00 1145.00 L 2175.00 1146.00 L 2255.00 1146.00 L 2275.00 1147.00 L 2335.00 1147.00 L 2355.00 1148.00 L 2435.00 1148.00 L 2455.00 1149.00 L 2515.00 1149.00 L 2523.37 1149.42 L 2481.00 1026.00 L 2415.00 1026.00 L 2395.00 1025.00 L 2275.00 1025.00 L 2255.00 1024.00 L 2155.00 1024.00 L 2135.00 1023.00 L 2015.00 1023.00 L 1995.00 1022.00 L 1895.00 1022.00 L 1875.00 1021.00 L 1755.00 1021.00 L 1735.00 1020.00 L 1635.00 1020.00 L 1615.00 1019.00 L 1495.00 1019.00 L 1475.00 1018.00 L 1375.00 1018.00 L 1355.00 1017.00 L 1235.00 1017.00 L 1215.00 1016.00 L 1115.00 1016.00 L 1095.00 1015.00 L 975.00 1015.00 L 955.00 1014.00 L 855.00 1014.00 L 835.00 1013.00 L 715.00 1013.00 L 695.00 1012.00 L 595.00 1012.00 L 575.00 1011.00 L 455.00 1011.00 L 435.00 1010.00 Z" />
<path id="csg562-013-03" fill="none" stroke="black" stroke-width="1" d="M 374.57 1125.00 L 366.00 1200.00 L 366.00 1234.00 L 395.00 1234.00 L 415.00 1235.00 L 475.00 1235.00 L 495.00 1236.00 L 555.00 1236.00 L 575.00 1237.00 L 655.00 1237.00 L 675.00 1238.00 L 735.00 1238.00 L 755.00 1239.00 L 815.00 1239.00 L 835.00 1240.00 L 915.00 1240.00 L 935.00 1241.00 L 995.00 1241.00 L 1015.00 1242.00 L 1075.00 1242.00 L 1095.00 1243.00 L 1175.00 1243.00 L 1195.00 1244.00 L 1255.00 1244.00 L 1275.00 1245.00 L 1335.00 1245.00 L 1355.00 1246.00 L 1435.00 1246.00 L 1455.00 1247.00 L 1515.00 1247.00 L 1535.00 1248.00 L 1595.00 1248.00 L 1615.00 1249.00 L 1695.00 1249.00 L 1715.00 1250.00 L 1775.00 1250.00 L 1795.00 1251.00 L 1855.00 1251.00 L 1875.00 1252.00 L 1955.00 1252.00 L 1975.00 1253.00 L 2035.00 1253.00 L 2055.00 1254.00 L 2115.00 1254.00 L 2135.00 1255.00 L 2215.00 1255.00 L 2235.00 1256.00 L 2295.00 1256.00 L 2315.00 1257.00 L 2375.00 1257.00 L 2395.00 1258.00 L 2435.96 1258.00 L 2433.00 1254.00 L 2550.00 1227.00 L 2523.37 1149.42 L 2515.00 1149.00 L 2455.00 1149.00 L 2435.00 1148.00 L 2355.00 1148.00 L 2335.00 1147.00 L 2275.00 1147.00 L 2255.00 1146.00 L 2175.00 1146.00 L 2155.00 1145.00 L 2095.00 1145.00 L 2075.00 1144.00 L 2015.00 1144.00 L 1995.00 1143.00 L 1915.00 1143.00 L 1895.00 1142.00 L 1835.00 1142.00 L 1815.00 1141.00 L 1735.00 1141.00 L 1715.00 1140.00 L 1655.00 1140.00 L 1635.00 1139.00 L 1555.00 1139.00 L 1535.00 1138.00 L 1475.00 1138.00 L 1455.00 1137.00 L 1395.00 1137.00 L 1375.00 1136.00 L 1295.00 1136.00 L 1275.00 1135.00 L 1215.00 1135.00 L 1195.00 1134.00 L 1115.00 1134.00 L 1095.00 1133.00 L 1035.00 1133.00 L 1015.00 1132.00 L 935.00 1132.00 L 915.00 1131.00 L 855.00 1131.00 L 835.00 1130.00 L 775.00 1130.00 L 755.00 1129.00 L 675.00 1129.00 L 655.00 1128.00 L 595.00 1128.00 L 575.00 1127.00 L 495.00 1127.00 L 475.00 1126.00 L 415.00 1126.00 L 395.00 1125.00 Z" />
<path id="csg562-013-04" fill="none" stroke="black" stroke-width="1" d="M 366.00 1234.00 L 366.00 1344.00 L 395.00 1344.00 L 415.00 1345.00 L 455.00 1345.00 L 475.00 1365.00 L 495.00 1366.00 L 515.00 1346.00 L 575.00 1346.00 L 595.00 1347.00 L 655.00 1347.00 L 675.00 1348.00 L 735.00 1348.00 L 755.00 1349.00 L 835.00 1349.00 L 855.00 1350.00 L 915.00 1350.00 L 935.00 1351.00 L 995.00 1351.00 L 1015.00 1352.00 L 1095.00 1352.00 L 1115.00 1353.00 L 1175.00 1353.00 L 1195.00 1354.00 L 1255.00 1354.00 L 1275.00 1355.00 L 1355.00 1355.00 L 1375.00 1356.00 L 1435.00 1356.00 L 1455.00 1357.00 L 1535.00 1357.00 L 1555.00 1358.00 L 1615.00 1358.00 L 1635.00 1359.00 L 1695.00 1359.00 L 1715.00 1360.00 L 1795.00 1360.00 L 1815.00 1361.00 L 1875.00 1361.00 L 1895.00 1362.00 L 1955.00 1362.00 L 1975.00 1363.00 L 2055.00 1363.00 L 2075.00 1364.00 L 2095.00 1384.00 L 2115.00 1364.00 L 2135.00 1364.00 L 2155.00 1365.00 L 2215.00 1365.00 L 2235.00 1366.00 L 2315.00 1366.00 L 2335.00 1367.00 L 2395.00 1367.00 L 2415.00 1368.00 L 2475.00 1368.00 L 2495.00 1369.00 L 2518.19 1369.00 L 2435.96 1258.00 L 2395.00 1258.00 L 2375.00 1257.00 L 2315.00 1257.00 L 2295.00 1256.00 L 2235.00 1256.00 L 2215.00 1255.00 L 2135.00 1255.00 L 2115.00 1254.00 L 2055.00 1254.00 L 2035.00 1253.00 L 1975.00 1253.00 L 1955.00 1252.00 L 1875.00 1252.00 L 1855.00 1251.00 L 1795.00 1251.00 L 1775.00 1250.00 L 1715.00 1250.00 L 1695.00 1249.00 L 1615.00 1249.00 L 1595.00 1248.00 L 1535.00 1248.00 L 1515.00 1247.00 L 1455.00 1247.00 L 1435.00 1246.00 L 1355.00 1246.00 L 1335.00 1245.00 L 1275.00 1245.00 L 1255.00 1244.00 L 1195.00 1244.00 L 1175.00 1243.00 L 1095.00 1243.00 L 1075.00 1242.00 L 1015.00 1242.00 L 995.00 1241.00 L 935.00 1241.00 L 915.00 1240.00 L 835.00 1240.00 L 815.00 1239.00 L 755.00 1239.00 L 735.00 1238.00 L 675.00 1238.00 L 655.00 1237.00 L 575.00 1237.00 L 555.00 1236.00 L 495.00 1236.00 L 475.00 1235.00 L 415.00 1235.00 L 395.00 1234.00 Z" />
<path id="csg562-013-05" fill="none" stroke="black" stroke-width="1" d="M 366.00 1344.00 L 366.00 1434.00 L 365.53 1454.00 L 415.00 1454.00 L 435.00 1455.00 L 515.00 1455.00 L 535.00 1456.00 L 615.00 1456.00 L 635.00 1457.00 L 715.00 1457.00 L 735.00 1478.00 L 755.00 1458.00 L 775.00 1478.00 L 795.00 1478.00 L 815.00 1458.00 L 835.00 1459.00 L 915.00 1459.00 L 935.00 1460.00 L 1015.00 1460.00 L 1035.00 1461.00 L 1115.00 1461.00 L 1135.00 1462.00 L 1235.00 1462.00 L 1255.00 1463.00 L 1335.00 1463.00 L 1355.00 1464.00 L 1435.00 1464.00 L 1455.00 1465.00 L 1535.00 1465.00 L 1555.00 1466.00 L 1635.00 1466.00 L 1655.00 1487.00 L 1675.00 1467.00 L 1735.00 1467.00 L 1755.00 1468.00 L 1835.00 1468.00 L 1855.00 1469.00 L 1935.00 1469.00 L 1955.00 1470.00 L 2055.00 1470.00 L 2075.00 1471.00 L 2155.00 1471.00 L 2175.00 1472.00 L 2255.00 1472.00 L 2275.00 1473.00 L 2355.00 1473.00 L 2375.00 1474.00 L 2455.00 1474.00 L 2475.00 1475.00 L 2498.54 1475.00 L 2553.00 1416.00 L 2518.19 1369.00 L 2495.00 1369.00 L 2475.00 1368.00 L 2415.00 1368.00 L 2395.00 1367.00 L 2335.00 1367.00 L 2315.00 1366.00 L 2235.00 1366.00 L 2215.00 1365.00 L 2155.00 1365.00 L 2135.00 1364.00 L 2115.00 1364.00 L 2095.00 1384.00 L 2075.00 1364.00 L 2055.00 1363.00 L 1975.00 1363.00 L 1955.00 1362.00 L 1895.00 1362.00 L 1875.00 1361.00 L 1815.00 1361.00 L 1795.00 1360.00 L 1715.00 1360.00 L 1695.00 1359.00 L 1635.00 1359.00 L 1615.00 1358.00 L 1555.00 1358.00 L 1535.00 1357.00 L 1455.00 1357.00 L 1435.00 1356.00 L 1375.00 1356.00 L 1355.00 1355.00 L 1275.00 1355.00 L 1255.00 1354.00 L 1195.00 1354.00 L 1175.00 1353.00 L 1115.00 1353.00 L 1095.00 1352.00 L 1015.00 1352.00 L 995.00 1351.00 L 935.00 1351.00 L 915.00 1350.00 L 855.00 1350.00 L 835.00 1349.00 L 755.00 1349.00 L 735.00 1348.00 L 675.00 1348.00 L 655.00 1347.00 L 595.00 1347.00 L 575.00 1346.00 L 515.00 1346.00 L 495.00 1366.00 L 475.00 1365.00 L 455.00 1345.00 L 415.00 1345.00 L 395.00 1344.00 Z" />
<path id="csg562-013-06" fill="none" stroke="black" stroke-width="1" d="M 365.53 1454.00 L 362.86 1568.00 L 395.00 1568.00 L 415.00 1588.00 L 455.00 1588.00 L 475.00 1569.00 L 595.00 1569.00 L 615.00 1570.00 L 735.00 1570.00 L 755.00 1571.00 L 875.00 1571.00 L 895.00 1572.00 L 1015.00 1572.00 L 1035.00 1573.00 L 1155.00 1573.00 L 1175.00 1574.00 L 1295.00 1574.00 L 1315.00 1575.00 L 1395.00 1575.00 L 1415.00 1555.00 L 1435.00 1555.00 L 1455.00 1576.00 L 1575.00 1576.00 L 1595.00 1577.00 L 1715.00 1577.00 L 1735.00 1578.00 L 1855.00 1578.00 L 1875.00 1579.00 L 1995.00 1579.00 L 2015.00 1580.00 L 2135.00 1580.00 L 2155.00 1581.00 L 2295.00 1581.00 L 2315.00 1582.00 L 2435.00 1582.00 L 2455.00 1583.00 L 2459.32 1583.00 L 2427.00 1491.00 L 2481.00 1494.00 L 2498.54 1475.00 L 2475.00 1475.00 L 2455.00 1474.00 L 2375.00 1474.00 L 2355.00 1473.00 L 2275.00 1473.00 L 2255.00 1472.00 L 2175.00 1472.00 L 2155.00 1471.00 L 2075.00 1471.00 L 2055.00 1470.00 L 1955.00 1470.00 L 1935.00 1469.00 L 1855.00 1469.00 L 1835.00 1468.00 L 1755.00 1468.00 L 1735.00 1467.00 L 1675.00 1467.00 L 1655.00 1487.00 L 1635.00 1466.00 L 1555.00 1466.00 L 1535.00 1465.00 L 1455.00 1465.00 L 1435.00 1464.00 L 1355.00 1464.00 L 1335.00 1463.00 L 1255.00 1463.00 L 1235.00 1462.00 L 1135.00 1462.00 L 1115.00 1461.00 L 1035.00 1461.00 L 1015.00 1460.00 L 935.00 1460.00 L 915.00 1459.00 L 835.00 1459.00 L 815.00 1458.00 L 795.00 1478.00 L 775.00 1478.00 L 755.00 1458.00 L 735.00 1478.00 L 715.00 1457.00 L 635.00 1457.00 L 615.00 1456.00 L 535.00 1456.00 L 515.00 1455.00 L 435.00 1455.00 L 415.00 1454.00 Z" />
<path id="csg562-013-07" fill="none" stroke="black" stroke-width="1" d="M 1415.00 1555.00 L 1395.00 1575.00 L 1315.00 1575.00 L 1295.00 1574.00 L 1175.00 1574.00 L 1155.00 1573.00 L 1035.00 1573.00 L 1015.00 1572.00 L 895.00 1572.00 L 875.00 1571.00 L 755.00 1571.00 L 735.00 1570.00 L 615.00 1570.00 L 595.00 1569.00 L 475.00 1569.00 L 455.00 1588.00 L 415.00 1588.00 L 395.00 1568.00 L 362.86 1568.00 L 360.26 1679.00 L 435.00 1679.00 L 455.00 1680.00 L 575.00 1680.00 L 595.00 1681.00 L 715.00 1681.00 L 735.00 1682.00 L 855.00 1682.00 L 875.00 1683.00 L 995.00 1683.00 L 1015.00 1684.00 L 1135.00 1684.00 L 1155.00 1685.00 L 1275.00 1685.00 L 1295.00 1686.00 L 1415.00 1686.00 L 1435.00 1687.00 L 1555.00 1687.00 L 1575.00 1688.00 L 1695.00 1688.00 L 1715.00 1689.00 L 1835.00 1689.00 L 1855.00 1690.00 L 1975.00 1690.00 L 1995.00 1691.00 L 2115.00 1691.00 L 2135.00 1692.00 L 2255.00 1692.00 L 2275.00 1693.00 L 2395.00 1693.00 L 2415.00 1694.00 L 2498.32 1694.00 L 2459.32 1583.00 L 2455.00 1583.00 L 2435.00 1582.00 L 2315.00 1582.00 L 2295.00 1581.00 L 2155.00 1581.00 L 2135.00 1580.00 L 2015.00 1580.00 L 1995.00 1579.00 L 1875.00 1579.00 L 1855.00 1578.00 L 1735.00 1578.00 L 1715.00 1577.00 L 1595.00 1577.00 L 1575.00 1576.00 L 1455.00 1576.00 L 1435.00 1555.00 Z" />
<path id="csg562-013-08" fill="none" stroke="black" stroke-width="1" d="M 360.26 1679.00 L 357.82 1783.00 L 395.00 1783.00 L 415.00 1784.00 L 495.00 1784.00 L 515.00 1785.00 L 595.00 1785.00 L 615.00 1786.00 L 695.00 1786.00 L 715.00 1787.00 L 795.00 1787.00 L 815.00 1788.00 L 895.00 1788.00 L 915.00 1789.00 L 995.00 1789.00 L 1015.00 1790.00 L 1095.00 1790.00 L 1115.00 1791.00 L 1195.00 1791.00 L 1215.00 1792.00 L 1275.00 1792.00 L 1295.00 1793.00 L 1375.00 1793.00 L 1395.00 1794.00 L 1475.00 1794.00 L 1495.00 1795.00 L 1575.00 1795.00 L 1595.00 1796.00 L 1675.00 1796.00 L 1695.00 1797.00 L 1775.00 1797.00 L 1795.00 1798.00 L 1875.00 1798.00 L 1895.00 1799.00 L 1975.00 1799.00 L 1995.00 1800.00 L 2075.00 1800.00 L 2095.00 1801.00 L 2155.00 1801.00 L 2175.00 1802.00 L 2255.00 1802.00 L 2275.00 1803.00 L 2355.00 1803.00 L 2375.00 1804.00 L 2455.00 1804.00 L 2462.01 1804.35 L 2505.00 1713.00 L 2498.32 1694.00 L 2415.00 1694.00 L 2395.00 1693.00 L 2275.00 1693.00 L 2255.00 1692.00 L 2135.00 1692.00 L 2115.00 1691.00 L 1995.00 1691.00 L 1975.00 1690.00 L 1855.00 1690.00 L 1835.00 1689.00 L 1715.00 1689.00 L 1695.00 1688.00 L 1575.00 1688.00 L 1555.00 1687.00 L 1435.00 1687.00 L 1415.00 1686.00 L 1295.00 1686.00 L 1275.00 1685.00 L 1155.00 1685.00 L 1135.00 1684.00 L 1015.00 1684.00 L 995.00 1683.00 L 875.00 1683.00 L 855.00 1682.00 L 735.00 1682.00 L 715.00 1681.00 L 595.00 1681.00 L 575.00 1680.00 L 455.00 1680.00 L 435.00 1679.00 Z" />
<path id="csg562-013-09" fill="none" stroke="black" stroke-width="1" d="M 357.82 1783.00 L 357.00 1818.00 L 351.00 1905.00 L 415.00 1905.00 L 435.00 1906.00 L 515.00 1906.00 L 535.00 1907.00 L 615.00 1907.00 L 635.00 1908.00 L 715.00 1908.00 L 735.00 1909.00 L 815.00 1909.00 L 835.00 1910.00 L 915.00 1910.00 L 935.00 1911.00 L 1015.00 1911.00 L 1035.00 1912.00 L 1115.00 1912.00 L 1135.00 1913.00 L 1215.00 1913.00 L 1235.00 1914.00 L 1315.00 1914.00 L 1335.00 1915.00 L 1415.00 1915.00 L 1435.00 1916.00 L 1515.00 1916.00 L 1535.00 1917.00 L 1615.00 1917.00 L 1635.00 1918.00 L 1715.00 1918.00 L 1735.00 1919.00 L 1815.00 1919.00 L 1835.00 1920.00 L 1915.00 1920.00 L 1935.00 1921.00 L 2015.00 1921.00 L 2035.00 1922.00 L 2115.00 1922.00 L 2135.00 1923.00 L 2215.00 1923.00 L 2235.00 1924.00 L 2335.00 1924.00 L 2355.00 1925.00 L 2435.00 1925.00 L 2455.00 1926.00 L 2477.61 1926.00 L 2457.00 1815.00 L 2462.01 1804.35 L 2455.00 1804.00 L 2375.00 1804.00 L 2355.00 1803.00 L 2275.00 1803.00 L 2255.00 1802.00 L 2175.00 1802.00 L 2155.00 1801.00 L 2095.00 1801.00 L 2075.00 1800.00 L 1995.00 1800.00 L 1975.00 1799.00 L 1895.00 1799.00 L 1875.00 1798.00 L 1795.00 1798.00 L 1775.00 1797.00 L 1695.00 1797.00 L 1675.00 1796.00 L 1595.00 1796.00 L 1575.00 1795.00 L 1495.00 1795.00 L 1475.00 1794.00 L 1395.00 1794.00 L 1375.00 1793.00 L 1295.00 1793.00 L 1275.00 1792.00 L 1215.00 1792.00 L 1195.00 1791.00 L 1115.00 1791.00 L 1095.00 1790.00 L 1015.00 1790.00 L 995.00 1789.00 L 915.00 1789.00 L 895.00 1788.00 L 815.00 1788.00 L 795.00 1787.00 L 715.00 1787.00 L 695.00 1786.00 L 615.00 1786.00 L 595.00 1785.00 L 515.00 1785.00 L 495.00 1784.00 L 415.00 1784.00 L 395.00 1783.00 Z" />
<path id="csg562-013-10" fill="none" stroke="black" stroke-width="1" d="M 351.00 1905.00 L 344.10 2005.00 L 415.00 2005.00 L 435.00 2006.00 L 535.00 2006.00 L 555.00 2007.00 L 655.00 2007.00 L 675.00 2008.00 L 775.00 2008.00 L 795.00 2009.00 L 855.00 2009.00 L 875.00 2029.00 L 895.00 2029.00 L 915.00 2010.00 L 1015.00 2010.00 L 1035.00 2011.00 L 1135.00 2011.00 L 1155.00 2012.00 L 1255.00 2012.00 L 1275.00 2013.00 L 1375.00 2013.00 L 1395.00 1994.00 L 1415.00 1994.00 L 1435.00 2014.00 L 1475.00 2014.00 L 1495.00 2015.00 L 1595.00 2015.00 L 1615.00 2016.00 L 1715.00 2016.00 L 1735.00 2017.00 L 1835.00 2017.00 L 1855.00 2018.00 L 1955.00 2018.00 L 1975.00 2019.00 L 2075.00 2019.00 L 2095.00 2020.00 L 2195.00 2020.00 L 2215.00 2021.00 L 2315.00 2021.00 L 2335.00 2022.00 L 2435.00 2022.00 L 2455.00 2023.00 L 2495.63 2023.00 L 2477.61 1926.00 L 2455.00 1926.00 L 2435.00 1925.00 L 2355.00 1925.00 L 2335.00 1924.00 L 2235.00 1924.00 L 2215.00 1923.00 L 2135.00 1923.00 L 2115.00 1922.00 L 2035.00 1922.00 L 2015.00 1921.00 L 1935.00 1921.00 L 1915.00 1920.00 L 1835.00 1920.00 L 1815.00 1919.00 L 1735.00 1919.00 L 1715.00 1918.00 L 1635.00 1918.00 L 1615.00 1917.00 L 1535.00 1917.00 L 1515.00 1916.00 L 1435.00 1916.00 L 1415.00 1915.00 L 1335.00 1915.00 L 1315.00 1914.00 L 1235.00 1914.00 L 1215.00 1913.00 L 1135.00 1913.00 L 1115.00 1912.00 L 1035.00 1912.00 L 1015.00 1911.00 L 935.00 1911.00 L 915.00 1910.00 L 835.00 1910.00 L 815.00 1909.00 L 735.00 1909.00 L 715.00 1908.00 L 635.00 1908.00 L 615.00 1907.00 L 535.00 1907.00 L 515.00 1906.00 L 435.00 1906.00 L 415.00 1905.00 Z" />
<path id="csg562-013-11" fill="none" stroke="black" stroke-width="1" d="M 1395.00 1994.00 L 1375.00 2013.00 L 1275.00 2013.00 L 1255.00 2012.00 L 1155.00 2012.00 L 1135.00 2011.00 L 1035.00 2011.00 L 1015.00 2010.00 L 915.00 2010.00 L 895.00 2029.00 L 875.00 2029.00 L 855.00 2009.00 L 795.00 2009.00 L 775.00 2008.00 L 675.00 2008.00 L 655.00 2007.00 L 555.00 2007.00 L 535.00 2006.00 L 435.00 2006.00 L 415.00 2005.00 L 344.10 2005.00 L 339.00 2079.00 L 341.55 2114.00 L 455.00 2114.00 L 475.00 2115.00 L 595.00 2115.00 L 615.00 2116.00 L 735.00 2116.00 L 755.00 2117.00 L 875.00 2117.00 L 895.00 2118.00 L 1015.00 2118.00 L 1035.00 2119.00 L 1155.00 2119.00 L 1175.00 2120.00 L 1295.00 2120.00 L 1315.00 2121.00 L 1435.00 2121.00 L 1455.00 2122.00 L 1595.00 2122.00 L 1615.00 2123.00 L 1735.00 2123.00 L 1755.00 2124.00 L 1875.00 2124.00 L 1895.00 2125.00 L 2015.00 2125.00 L 2035.00 2126.00 L 2095.00 2126.00 L 2115.00 2106.00 L 2155.00 2106.00 L 2175.00 2127.00 L 2295.00 2127.00 L 2315.00 2128.00 L 2435.00 2128.00 L 2455.00 2129.00 L 2466.29 2129.00 L 2496.00 2025.00 L 2495.63 2023.00 L 2455.00 2023.00 L 2435.00 2022.00 L 2335.00 2022.00 L 2315.00 2021.00 L 2215.00 2021.00 L 2195.00 2020.00 L 2095.00 2020.00 L 2075.00 2019.00 L 1975.00 2019.00 L 1955.00 2018.00 L 1855.00 2018.00 L 1835.00 2017.00 L 1735.00 2017.00 L 1715.00 2016.00 L 1615.00 2016.00 L 1595.00 2015.00 L 1495.00 2015.00 L 1475.00 2014.00 L 1435.00 2014.00 L 1415.00 1994.00 Z" />
<path id="csg562-013-12" fill="none" stroke="black" stroke-width="1" d="M 2115.00 2106.00 L 2095.00 2126.00 L 2035.00 2126.00 L 2015.00 2125.00 L 1895.00 2125.00 L 1875.00 2124.00 L 1755.00 2124.00 L 1735.00 2123.00 L 1615.00 2123.00 L 1595.00 2122.00 L 1455.00 2122.00 L 1435.00 2121.00 L 1315.00 2121.00 L 1295.00 2120.00 L 1175.00 2120.00 L 1155.00 2119.00 L 1035.00 2119.00 L 1015.00 2118.00 L 895.00 2118.00 L 875.00 2117.00 L 755.00 2117.00 L 735.00 2116.00 L 615.00 2116.00 L 595.00 2115.00 L 475.00 2115.00 L 455.00 2114.00 L 341.55 2114.00 L 348.99 2216.00 L 455.00 2216.00 L 475.00 2217.00 L 595.00 2217.00 L 615.00 2218.00 L 735.00 2218.00 L 755.00 2219.00 L 875.00 2219.00 L 895.00 2220.00 L 1035.00 2220.00 L 1055.00 2221.00 L 1175.00 2221.00 L 1195.00 2222.00 L 1315.00 2222.00 L 1335.00 2223.00 L 1455.00 2223.00 L 1475.00 2224.00 L 1615.00 2224.00 L 1635.00 2225.00 L 1755.00 2225.00 L 1775.00 2226.00 L 1895.00 2226.00 L 1915.00 2227.00 L 2035.00 2227.00 L 2055.00 2228.00 L 2175.00 2228.00 L 2195.00 2229.00 L 2335.00 2229.00 L 2355.00 2230.00 L 2460.00 2230.00 L 2460.00 2151.00 L 2466.29 2129.00 L 2455.00 2129.00 L 2435.00 2128.00 L 2315.00 2128.00 L 2295.00 2127.00 L 2175.00 2127.00 L 2155.00 2106.00 Z" />
<path id="csg562-013-13" fill="none" stroke="black" stroke-width="1" d="M 348.99 2216.00 L 357.96 2338.96 L 375.00 2356.00 L 395.00 2336.00 L 455.00 2336.00 L 475.00 2337.00 L 595.00 2337.00 L 615.00 2338.00 L 735.00 2338.00 L 755.00 2339.00 L 875.00 2339.00 L 895.00 2340.00 L 1035.00 2340.00 L 1055.00 2341.00 L 1175.00 2341.00 L 1195.00 2342.00 L 1315.00 2342.00 L 1335.00 2343.00 L 1455.00 2343.00 L 1475.00 2344.00 L 1615.00 2344.00 L 1635.00 2345.00 L 1695.00 2345.00 L 1715.00 2325.00 L 1755.00 2325.00 L 1775.00 2326.00 L 1795.00 2346.00 L 1895.00 2346.00 L 1915.00 2347.00 L 1955.00 2347.00 L 1975.00 2327.00 L 1995.00 2327.00 L 2015.00 2347.00 L 2035.00 2347.00 L 2055.00 2348.00 L 2195.00 2348.00 L 2215.00 2349.00 L 2335.00 2349.00 L 2355.00 2350.00 L 2460.00 2350.00 L 2460.00 2230.00 L 2355.00 2230.00 L 2335.00 2229.00 L 2195.00 2229.00 L 2175.00 2228.00 L 2055.00 2228.00 L 2035.00 2227.00 L 1915.00 2227.00 L 1895.00 2226.00 L 1775.00 2226.00 L 1755.00 2225.00 L 1635.00 2225.00 L 1615.00 2224.00 L 1475.00 2224.00 L 1455.00 2223.00 L 1335.00 2223.00 L 1315.00 2222.00 L 1195.00 2222.00 L 1175.00 2221.00 L 1055.00 2221.00 L 1035.00 2220.00 L 895.00 2220.00 L 875.00 2219.00 L 755.00 2219.00 L 735.00 2218.00 L 615.00 2218.00 L 595.00 2217.00 L 475.00 2217.00 L 455.00 2216.00 Z" />
<path id="csg562-013-14" fill="none" stroke="black" stroke-width="1" d="M 1715.00 2325.00 L 1695.00 2345.00 L 1635.00 2345.00 L 1615.00 2344.00 L 1475.00 2344.00 L 1455.00 2343.00 L 1335.00 2343.00 L 1315.00 2342.00 L 1195.00 2342.00 L 1175.00 2341.00 L 1055.00 2341.00 L 1035.00 2340.00 L 895.00 2340.00 L 875.00 2339.00 L 755.00 2339.00 L 735.00 2338.00 L 615.00 2338.00 L 595.00 2337.00 L 475.00 2337.00 L 455.00 2336.00 L 395.00 2336.00 L 375.00 2356.00 L 357.96 2338.96 L 357.96 2338.96 L 360.00 2367.00 L 360.00 2448.00 L 455.00 2448.00 L 475.00 2449.00 L 595.00 2449.00 L 615.00 2450.00 L 755.00 2450.00 L 775.00 2451.00 L 895.00 2451.00 L 915.00 2452.00 L 1055.00 2452.00 L 1075.00 2453.00 L 1195.00 2453.00 L 1215.00 2454.00 L 1335.00 2454.00 L 1355.00 2455.00 L 1495.00 2455.00 L 1515.00 2456.00 L 1635.00 2456.00 L 1655.00 2457.00 L 1795.00 2457.00 L 1815.00 2458.00 L 1935.00 2458.00 L 1955.00 2459.00 L 2095.00 2459.00 L 2115.00 2460.00 L 2235.00 2460.00 L 2255.00 2461.00 L 2375.00 2461.00 L 2395.00 2462.00 L 2460.00 2462.00 L 2460.00 2350.00 L 2355.00 2350.00 L 2335.00 2349.00 L 2215.00 2349.00 L 2195.00 2348.00 L 2055.00 2348.00 L 2035.00 2347.00 L 2015.00 2347.00 L 1995.00 2327.00 L 1975.00 2327.00 L 1955.00 2347.00 L 1915.00 2347.00 L 1895.00 2346.00 L 1795.00 2346.00 L 1775.00 2326.00 L 1755.00 2325.00 Z" />
<path id="csg562-013-15" fill="none" stroke="black" stroke-width="1" d="M 360.00 2448.00 L 360.00 2557.00 L 555.00 2557.00 L 575.00 2558.00 L 795.00 2558.00 L 815.00 2559.00 L 1055.00 2559.00 L 1075.00 2560.00 L 1295.00 2560.00 L 1315.00 2561.00 L 1435.00 2561.00 L 1455.00 2541.00 L 1475.00 2536.00 L 1495.00 2541.00 L 1515.00 2561.00 L 1535.00 2561.00 L 1555.00 2562.00 L 1795.00 2562.00 L 1815.00 2563.00 L 2035.00 2563.00 L 2055.00 2564.00 L 2295.00 2564.00 L 2315.00 2565.00 L 2484.17 2565.00 L 2460.00 2478.00 L 2460.00 2462.00 L 2395.00 2462.00 L 2375.00 2461.00 L 2255.00 2461.00 L 2235.00 2460.00 L 2115.00 2460.00 L 2095.00 2459.00 L 1955.00 2459.00 L 1935.00 2458.00 L 1815.00 2458.00 L 1795.00 2457.00 L 1655.00 2457.00 L 1635.00 2456.00 L 1515.00 2456.00 L 1495.00 2455.00 L 1355.00 2455.00 L 1335.00 2454.00 L 1215.00 2454.00 L 1195.00 2453.00 L 1075.00 2453.00 L 1055.00 2452.00 L 915.00 2452.00 L 895.00 2451.00 L 775.00 2451.00 L 755.00 2450.00 L 615.00 2450.00 L 595.00 2449.00 L 475.00 2449.00 L 455.00 2448.00 Z" />
<path id="csg562-013-16" fill="none" stroke="black" stroke-width="1" d="M 1475.00 2536.00 L 1455.00 2541.00 L 1435.00 2561.00 L 1315.00 2561.00 L 1295.00 2560.00 L 1075.00 2560.00 L 1055.00 2559.00 L 815.00 2559.00 L 795.00 2558.00 L 575.00 2558.00 L 555.00 2557.00 L 360.00 2557.00 L 360.00 2664.00 L 835.00 2664.00 L 855.00 2665.00 L 1035.00 2665.00 L 1055.00 2685.00 L 1075.00 2685.00 L 1095.00 2665.00 L 1235.00 2665.00 L 1255.00 2685.00 L 1275.00 2685.00 L 1295.00 2665.00 L 1375.00 2665.00 L 1395.00 2666.00 L 1515.00 2666.00 L 1535.00 2686.00 L 1555.00 2666.00 L 1895.00 2666.00 L 1915.00 2667.00 L 2075.00 2667.00 L 2095.00 2687.00 L 2115.00 2667.00 L 2435.00 2667.00 L 2455.00 2668.00 L 2512.78 2668.00 L 2484.17 2565.00 L 2315.00 2565.00 L 2295.00 2564.00 L 2055.00 2564.00 L 2035.00 2563.00 L 1815.00 2563.00 L 1795.00 2562.00 L 1555.00 2562.00 L 1535.00 2561.00 L 1515.00 2561.00 L 1495.00 2541.00 L 1475.00 2536.00 Z" />
<path id="csg562-013-17" fill="none" stroke="black" stroke-width="1" d="M 360.00 2664.00 L 360.00 2786.00 L 695.00 2786.00 L 715.00 2787.00 L 1095.00 2787.00 L 1115.00 2788.00 L 1495.00 2788.00 L 1515.00 2789.00 L 1895.00 2789.00 L 1915.00 2790.00 L 2295.00 2790.00 L 2315.00 2791.00 L 2464.23 2791.00 L 2520.00 2694.00 L 2512.78 2668.00 L 2455.00 2668.00 L 2435.00 2667.00 L 2115.00 2667.00 L 2095.00 2687.00 L 2075.00 2667.00 L 1915.00 2667.00 L 1895.00 2666.00 L 1555.00 2666.00 L 1535.00 2686.00 L 1515.00 2666.00 L 1395.00 2666.00 L 1375.00 2665.00 L 1295.00 2665.00 L 1275.00 2685.00 L 1255.00 2685.00 L 1235.00 2665.00 L 1095.00 2665.00 L 1075.00 2685.00 L 1055.00 2685.00 L 1035.00 2665.00 L 855.00 2665.00 L 835.00 2664.00 Z" />
<path id="csg562-013-18" fill="none" stroke="black" stroke-width="1" d="M 360.00 2786.00 L 360.00 2889.00 L 475.00 2889.00 L 495.00 2909.00 L 515.00 2909.00 L 535.00 2889.00 L 555.00 2889.00 L 575.00 2909.00 L 595.00 2909.00 L 615.00 2889.00 L 695.00 2889.00 L 715.00 2890.00 L 1095.00 2890.00 L 1115.00 2891.00 L 1135.00 2911.00 L 1155.00 2891.00 L 1475.00 2891.00 L 1495.00 2892.00 L 1875.00 2892.00 L 1895.00 2893.00 L 2135.00 2893.00 L 2155.00 2913.00 L 2175.00 2913.00 L 2195.00 2893.00 L 2255.00 2893.00 L 2275.00 2894.00 L 2437.67 2894.00 L 2451.00 2814.00 L 2464.23 2791.00 L 2315.00 2791.00 L 2295.00 2790.00 L 1915.00 2790.00 L 1895.00 2789.00 L 1515.00 2789.00 L 1495.00 2788.00 L 1115.00 2788.00 L 1095.00 2787.00 L 715.00 2787.00 L 695.00 2786.00 Z" />
<path id="csg562-013-19" fill="none" stroke="black" stroke-width="1" d="M 360.00 2889.00 L 360.00 2961.00 L 348.31 3007.00 L 355.00 3007.00 L 375.00 2987.00 L 395.00 2987.00 L 415.00 3007.00 L 835.00 3007.00 L 855.00 3008.00 L 1355.00 3008.00 L 1375.00 3009.00 L 1875.00 3009.00 L 1895.00 3010.00 L 2395.00 3010.00 L 2415.00 3011.00 L 2418.17 3011.00 L 2437.67 2894.00 L 2275.00 2894.00 L 2255.00 2893.00 L 2195.00 2893.00 L 2175.00 2913.00 L 2155.00 2913.00 L 2135.00 2893.00 L 1895.00 2893.00 L 1875.00 2892.00 L 1495.00 2892.00 L 1475.00 2891.00 L 1155.00 2891.00 L 1135.00 2911.00 L 1115.00 2891.00 L 1095.00 2890.00 L 715.00 2890.00 L 695.00 2889.00 L 615.00 2889.00 L 595.00 2909.00 L 575.00 2909.00 L 555.00 2889.00 L 535.00 2889.00 L 515.00 2909.00 L 495.00 2909.00 L 475.00 2889.00 Z" />
<path id="csg562-013-20" fill="none" stroke="black" stroke-width="1" d="M 375.00 2987.00 L 355.00 3007.00 L 348.31 3007.00 L 318.25 3125.21 L 335.00 3116.00 L 355.00 3136.00 L 375.00 3116.00 L 795.00 3116.00 L 815.00 3115.00 L 1295.00 3115.00 L 1315.00 3114.00 L 1595.00 3114.00 L 1615.00 3134.00 L 1635.00 3114.00 L 1795.00 3114.00 L 1815.00 3113.00 L 1935.00 3113.00 L 1955.00 3133.00 L 1975.00 3133.00 L 1995.00 3113.00 L 2295.00 3113.00 L 2315.00 3112.00 L 2428.23 3112.00 L 2412.00 3048.00 L 2418.17 3011.00 L 2415.00 3011.00 L 2395.00 3010.00 L 1895.00 3010.00 L 1875.00 3009.00 L 1375.00 3009.00 L 1355.00 3008.00 L 855.00 3008.00 L 835.00 3007.00 L 415.00 3007.00 L 395.00 2987.00 Z" />
<path id="csg562-013-21" fill="none" stroke="black" stroke-width="1" d="M 2315.00 3112.00 L 2295.00 3113.00 L 1995.00 3113.00 L 1975.00 3133.00 L 1955.00 3133.00 L 1935.00 3113.00 L 1815.00 3113.00 L 1795.00 3114.00 L 1635.00 3114.00 L 1615.00 3134.00 L 1595.00 3114.00 L 1315.00 3114.00 L 1295.00 3115.00 L 815.00 3115.00 L 795.00 3116.00 L 375.00 3116.00 L 355.00 3136.00 L 335.00 3116.00 L 318.25 3125.21 L 315.00 3138.00 L 331.78 3231.61 L 335.00 3230.00 L 375.00 3230.00 L 395.00 3210.00 L 415.00 3210.00 L 435.00 3230.00 L 615.00 3230.00 L 635.00 3231.00 L 915.00 3231.00 L 935.00 3232.00 L 1215.00 3232.00 L 1235.00 3233.00 L 1515.00 3233.00 L 1535.00 3234.00 L 1815.00 3234.00 L 1835.00 3235.00 L 2115.00 3235.00 L 2135.00 3236.00 L 2275.00 3236.00 L 2295.00 3256.00 L 2335.00 3256.00 L 2355.00 3236.00 L 2415.00 3236.00 L 2435.00 3237.00 L 2459.92 3237.00 L 2428.23 3112.00 Z" />
<path id="csg562-013-22" fill="none" stroke="black" stroke-width="1" d="M 395.00 3210.00 L 375.00 3230.00 L 335.00 3230.00 L 331.78 3231.61 L 351.21 3340.00 L 835.00 3340.00 L 855.00 3341.00 L 1355.00 3341.00 L 1375.00 3342.00 L 1555.00 3342.00 L 1575.00 3322.00 L 1595.00 3322.00 L 1615.00 3342.00 L 1755.00 3342.00 L 1775.00 3362.00 L 1795.00 3342.00 L 1875.00 3342.00 L 1895.00 3343.00 L 2395.00 3343.00 L 2415.00 3344.00 L 2454.68 3344.00 L 2466.00 3261.00 L 2459.92 3237.00 L 2435.00 3237.00 L 2415.00 3236.00 L 2355.00 3236.00 L 2335.00 3256.00 L 2295.00 3256.00 L 2275.00 3236.00 L 2135.00 3236.00 L 2115.00 3235.00 L 1835.00 3235.00 L 1815.00 3234.00 L 1535.00 3234.00 L 1515.00 3233.00 L 1235.00 3233.00 L 1215.00 3232.00 L 935.00 3232.00 L 915.00 3231.00 L 635.00 3231.00 L 615.00 3230.00 L 435.00 3230.00 L 415.00 3210.00 Z" />
<path id="csg562-013-23" fill="none" stroke="black" stroke-width="1" d="M 1575.00 3322.00 L 1555.00 3342.00 L 1375.00 3342.00 L 1355.00 3341.00 L 855.00 3341.00 L 835.00 3340.00 L 351.21 3340.00 L 372.00 3456.00 L 558.00 3450.00 L 652.22 3458.00 L 1097.67 3458.00 L 1191.00 3450.00 L 1272.60 3458.00 L 1547.00 3458.00 L 1572.00 3447.00 L 1779.62 3458.00 L 2439.14 3458.00 L 2454.68 3344.00 L 2415.00 3344.00 L 2395.00 3343.00 L 1895.00 3343.00 L 1875.00 3342.00 L 1795.00 3342.00 L 1775.00 3362.00 L 1755.00 3342.00 L 1615.00 3342.00 L 1595.00 3322.00 Z" />
</svg>
