<?xml version="1.0" standalone="no"?>
<!DOCTYPE svg PUBLIC "-//W3C//DTD SVG 1.1//EN" "http://www.w3.org/Graphics/SVG/1.1/DTD/svg11.dtd">
<svg width="46.22222in" height="69.333336in" viewBox="0 0 3328 4992" xmlns="http://www.w3.org/2000/svg" version="1.1">
<path id="csg562-060-01" fill="none" stroke="black" stroke-width="1" d="M 2114.18 743.54 L 2096.00 749.00 L 2076.00 760.00 L 2056.00 780.00 L 2036.00 800.00 L 2016.00 801.00 L 1944.09 801.00 L 1875.00 831.00 L 1809.00 813.00 L 1074.00 822.00 L 903.00 846.00 L 898.47 930.00 L 956.00 930.00 L 976.00 929.00 L 1056.00 929.00 L 1076.00 928.00 L 1156.00 928.00 L 1176.00 927.00 L 1256.00 927.00 L 1276.00 926.00 L 1336.00 926.00 L 1356.00 925.00 L 1436.00 925.00 L 1456.00 924.00 L 1536.00 924.00 L 1556.00 923.00 L 1636.00 923.00 L 1656.00 922.00 L 1736.00 922.00 L 1756.00 921.00 L 1816.00 921.00 L 1836.00 920.00 L 1916.00 920.00 L 1936.00 919.00 L 2016.00 919.00 L 2036.00 918.00 L 2056.00 938.00 L 2076.00 918.00 L 2116.00 918.00 L 2136.00 917.00 L 2216.00 917.00 L 2236.00 916.00 L 2296.00 916.00 L 2316.00 915.00 L 2396.00 915.00 L 2416.00 934.00 L 2436.00 934.00 L 2456.00 914.00 L 2496.00 914.00 L 2516.00 913.00 L 2596.00 913.00 L 2616.00 912.00 L 2696.00 912.00 L 2716.00 911.00 L 2776.00 911.00 L 2796.00 910.00 L 2876.00 910.00 L 2896.00 909.00 L 2916.00 929.00 L 2936.00 909.00 L 2976.00 909.00 L 2991.42 908.23 L 3022.07 790.00 L 2996.00 790.00 L 2976.00 791.00 L 2896.00 791.00 L 2876.00 792.00 L 2796.00 792.00 L 2776.00 793.00 L 2716.00 793.00 L 2696.00 794.00 L 2691.68 794.00 L 2196.00 828.00 L 2114.18 743.54 Z" />
<path id="csg562-060-02" fill="none" stroke="black" stroke-width="1" d="M 2991.42 908.23 L 2976.00 909.00 L 2936.00 909.00 L 2916.00 929.00 L 2896.00 909.00 L 2876.00 910.00 L 2796.00 910.00 L 2776.00 911.00 L 2716.00 911.00 L 2696.00 912.00 L 2616.00 912.00 L 2596.00 913.00 L 2516.00 913.00 L 2496.00 914.00 L 2456.00 914.00 L 2436.00 934.00 L 2416.00 934.00 L 2396.00 915.00 L 2316.00 915.00 L 2296.00 916.00 L 2236.00 916.00 L 2216.00 917.00 L 2136.00 917.00 L 2116.00 918.00 L 2076.00 918.00 L 2056.00 938.00 L 2036.00 918.00 L 2016.00 919.00 L 1936.00 919.00 L 1916.00 920.00 L 1836.00 920.00 L 1816.00 921.00 L 1756.00 921.00 L 1736.00 922.00 L 1656.00 922.00 L 1636.00 923.00 L 1556.00 923.00 L 1536.00 924.00 L 1456.00 924.00 L 1436.00 925.00 L 1356.00 925.00 L 1336.00 926.00 L 1276.00 926.00 L 1256.00 927.00 L 1176.00 927.00 L 1156.00 928.00 L 1076.00 928.00 L 1056.00 929.00 L 976.00 929.00 L 956.00 930.00 L 898.47 930.00 L 892.22 1046.08 L 896.00 1044.00 L 976.00 1044.00 L 996.00 1043.00 L 1076.00 1043.00 L 1096.00 1042.00 L 1196.00 1042.00 L 1216.00 1041.00 L 1296.00 1041.00 L 1316.00 1040.00 L 1416.00 1040.00 L 1436.00 1039.00 L 1516.00 1039.00 L 1536.00 1038.00 L 1616.00 1038.00 L 1636.00 1037.00 L 1696.00 1037.00 L 1716.00 1057.00 L 1736.00 1037.00 L 1756.00 1036.00 L 1836.00 1036.00 L 1856.00 1035.00 L 1956.00 1035.00 L 1976.00 1034.00 L 2056.00 1034.00 L 2076.00 1033.00 L 2176.00 1033.00 L 2196.00 1032.00 L 2276.00 1032.00 L 2296.00 1031.00 L 2376.00 1031.00 L 2396.00 1030.00 L 2496.00 1030.00 L 2516.00 1029.00 L 2536.00 1029.00 L 2556.00 1009.00 L 2576.00 1029.00 L 2596.00 1029.00 L 2616.00 1028.00 L 2716.00 1028.00 L 2736.00 1027.00 L 2816.00 1027.00 L 2836.00 1026.00 L 2936.00 1026.00 L 2956.00 1025.00 L 3035.69 1025.00 L 2985.00 933.00 L 2991.42 908.23 Z" />
<path id="csg562-060-03" fill="none" stroke="black" stroke-width="1" d="M 2556.00 1009.00 L 2536.00 1029.00 L 2516.00 1029.00 L 2496.00 1030.00 L 2396.00 1030.00 L 2376.00 1031.00 L 2296.00 1031.00 L 2276.00 1032.00 L 2196.00 1032.00 L 2176.00 1033.00 L 2076.00 1033.00 L 2056.00 1034.00 L 1976.00 1034.00 L 1956.00 1035.00 L 1856.00 1035.00 L 1836.00 1036.00 L 1756.00 1036.00 L 1736.00 1037.00 L 1716.00 1057.00 L 1696.00 1037.00 L 1636.00 1037.00 L 1616.00 1038.00 L 1536.00 1038.00 L 1516.00 1039.00 L 1436.00 1039.00 L 1416.00 1040.00 L 1316.00 1040.00 L 1296.00 1041.00 L 1216.00 1041.00 L 1196.00 1042.00 L 1096.00 1042.00 L 1076.00 1043.00 L 996.00 1043.00 L 976.00 1044.00 L 896.00 1044.00 L 892.22 1046.08 L 886.11 1159.44 L 896.00 1154.00 L 1016.00 1154.00 L 1036.00 1153.00 L 1176.00 1153.00 L 1196.00 1152.00 L 1336.00 1152.00 L 1356.00 1151.00 L 1476.00 1151.00 L 1496.00 1150.00 L 1636.00 1150.00 L 1656.00 1149.00 L 1796.00 1149.00 L 1816.00 1148.00 L 1836.00 1148.00 L 1856.00 1168.00 L 1896.00 1168.00 L 1916.00 1148.00 L 1936.00 1168.00 L 1956.00 1147.00 L 2096.00 1147.00 L 2116.00 1146.00 L 2256.00 1146.00 L 2276.00 1145.00 L 2396.00 1145.00 L 2416.00 1144.00 L 2556.00 1144.00 L 2576.00 1143.00 L 2716.00 1143.00 L 2736.00 1142.00 L 2856.00 1142.00 L 2876.00 1141.00 L 3016.00 1141.00 L 3036.00 1140.00 L 3061.00 1140.00 L 3066.00 1080.00 L 3035.69 1025.00 L 2956.00 1025.00 L 2936.00 1026.00 L 2836.00 1026.00 L 2816.00 1027.00 L 2736.00 1027.00 L 2716.00 1028.00 L 2616.00 1028.00 L 2596.00 1029.00 L 2576.00 1029.00 L 2556.00 1009.00 Z" />
<path id="csg562-060-04" fill="none" stroke="black" stroke-width="1" d="M 3036.00 1140.00 L 3016.00 1141.00 L 2876.00 1141.00 L 2856.00 1142.00 L 2736.00 1142.00 L 2716.00 1143.00 L 2576.00 1143.00 L 2556.00 1144.00 L 2416.00 1144.00 L 2396.00 1145.00 L 2276.00 1145.00 L 2256.00 1146.00 L 2116.00 1146.00 L 2096.00 1147.00 L 1956.00 1147.00 L 1936.00 1168.00 L 1916.00 1148.00 L 1896.00 1168.00 L 1856.00 1168.00 L 1836.00 1148.00 L 1816.00 1148.00 L 1796.00 1149.00 L 1656.00 1149.00 L 1636.00 1150.00 L 1496.00 1150.00 L 1476.00 1151.00 L 1356.00 1151.00 L 1336.00 1152.00 L 1196.00 1152.00 L 1176.00 1153.00 L 1036.00 1153.00 L 1016.00 1154.00 L 896.00 1154.00 L 886.11 1159.44 L 879.89 1274.86 L 896.00 1266.00 L 1056.00 1266.00 L 1076.00 1265.00 L 1256.00 1265.00 L 1276.00 1264.00 L 1436.00 1264.00 L 1456.00 1263.00 L 1636.00 1263.00 L 1656.00 1262.00 L 1816.00 1262.00 L 1836.00 1261.00 L 2016.00 1261.00 L 2036.00 1260.00 L 2196.00 1260.00 L 2216.00 1259.00 L 2396.00 1259.00 L 2416.00 1258.00 L 2576.00 1258.00 L 2596.00 1257.00 L 2776.00 1257.00 L 2796.00 1256.00 L 2956.00 1256.00 L 2976.00 1255.00 L 3051.42 1255.00 L 3061.00 1140.00 Z" />
<path id="csg562-060-05" fill="none" stroke="black" stroke-width="1" d="M 2976.00 1255.00 L 2956.00 1256.00 L 2796.00 1256.00 L 2776.00 1257.00 L 2596.00 1257.00 L 2576.00 1258.00 L 2416.00 1258.00 L 2396.00 1259.00 L 2216.00 1259.00 L 2196.00 1260.00 L 2036.00 1260.00 L 2016.00 1261.00 L 1836.00 1261.00 L 1816.00 1262.00 L 1656.00 1262.00 L 1636.00 1263.00 L 1456.00 1263.00 L 1436.00 1264.00 L 1276.00 1264.00 L 1256.00 1265.00 L 1076.00 1265.00 L 1056.00 1266.00 L 896.00 1266.00 L 879.89 1274.86 L 876.00 1347.00 L 877.68 1392.08 L 896.00 1382.00 L 996.00 1382.00 L 1016.00 1402.00 L 1036.00 1382.00 L 1196.00 1382.00 L 1216.00 1381.00 L 1536.00 1381.00 L 1556.00 1380.00 L 1856.00 1380.00 L 1876.00 1379.00 L 2196.00 1379.00 L 2216.00 1378.00 L 2516.00 1378.00 L 2536.00 1377.00 L 2716.00 1377.00 L 2736.00 1397.00 L 2756.00 1397.00 L 2776.00 1377.00 L 2856.00 1377.00 L 2876.00 1376.00 L 2995.83 1376.00 L 3048.00 1296.00 L 3051.42 1255.00 Z" />
<path id="csg562-060-06" fill="none" stroke="black" stroke-width="1" d="M 2876.00 1376.00 L 2856.00 1377.00 L 2776.00 1377.00 L 2756.00 1397.00 L 2736.00 1397.00 L 2716.00 1377.00 L 2536.00 1377.00 L 2516.00 1378.00 L 2216.00 1378.00 L 2196.00 1379.00 L 1876.00 1379.00 L 1856.00 1380.00 L 1556.00 1380.00 L 1536.00 1381.00 L 1216.00 1381.00 L 1196.00 1382.00 L 1036.00 1382.00 L 1016.00 1402.00 L 996.00 1382.00 L 896.00 1382.00 L 877.68 1392.08 L 881.57 1496.93 L 896.00 1489.00 L 1016.00 1489.00 L 1036.00 1488.00 L 1176.00 1488.00 L 1196.00 1487.00 L 1336.00 1487.00 L 1356.00 1486.00 L 1476.00 1486.00 L 1496.00 1485.00 L 1636.00 1485.00 L 1656.00 1484.00 L 1796.00 1484.00 L 1816.00 1483.00 L 1936.00 1483.00 L 1956.00 1482.00 L 1976.00 1482.00 L 1996.00 1502.00 L 2016.00 1502.00 L 2036.00 1482.00 L 2096.00 1482.00 L 2116.00 1481.00 L 2256.00 1481.00 L 2276.00 1480.00 L 2396.00 1480.00 L 2416.00 1479.00 L 2556.00 1479.00 L 2576.00 1478.00 L 2716.00 1478.00 L 2736.00 1477.00 L 2856.00 1477.00 L 2876.00 1476.00 L 2930.61 1476.00 L 2995.83 1376.00 Z" />
<path id="csg562-060-07" fill="none" stroke="black" stroke-width="1" d="M 2876.00 1476.00 L 2856.00 1477.00 L 2736.00 1477.00 L 2716.00 1478.00 L 2576.00 1478.00 L 2556.00 1479.00 L 2416.00 1479.00 L 2396.00 1480.00 L 2276.00 1480.00 L 2256.00 1481.00 L 2116.00 1481.00 L 2096.00 1482.00 L 2036.00 1482.00 L 2016.00 1502.00 L 1996.00 1502.00 L 1976.00 1482.00 L 1956.00 1482.00 L 1936.00 1483.00 L 1816.00 1483.00 L 1796.00 1484.00 L 1656.00 1484.00 L 1636.00 1485.00 L 1496.00 1485.00 L 1476.00 1486.00 L 1356.00 1486.00 L 1336.00 1487.00 L 1196.00 1487.00 L 1176.00 1488.00 L 1036.00 1488.00 L 1016.00 1489.00 L 896.00 1489.00 L 881.57 1496.93 L 885.76 1609.63 L 896.00 1604.00 L 916.00 1624.00 L 936.00 1624.00 L 956.00 1604.00 L 996.00 1604.00 L 1016.00 1603.00 L 1136.00 1603.00 L 1156.00 1602.00 L 1276.00 1602.00 L 1296.00 1601.00 L 1416.00 1601.00 L 1436.00 1600.00 L 1556.00 1600.00 L 1576.00 1599.00 L 1696.00 1599.00 L 1716.00 1598.00 L 1836.00 1598.00 L 1856.00 1597.00 L 1936.00 1597.00 L 1956.00 1617.00 L 1976.00 1597.00 L 1996.00 1596.00 L 2116.00 1596.00 L 2136.00 1595.00 L 2256.00 1595.00 L 2276.00 1594.00 L 2396.00 1594.00 L 2416.00 1593.00 L 2536.00 1593.00 L 2556.00 1592.00 L 2676.00 1592.00 L 2696.00 1591.00 L 2736.00 1591.00 L 2756.00 1611.00 L 2776.00 1611.00 L 2796.00 1591.00 L 2816.00 1591.00 L 2836.00 1590.00 L 2956.00 1590.00 L 2976.00 1589.00 L 3016.74 1589.00 L 3003.00 1530.00 L 2913.00 1503.00 L 2930.61 1476.00 Z" />
<path id="csg562-060-08" fill="none" stroke="black" stroke-width="1" d="M 2976.00 1589.00 L 2956.00 1590.00 L 2836.00 1590.00 L 2816.00 1591.00 L 2796.00 1591.00 L 2776.00 1611.00 L 2756.00 1611.00 L 2736.00 1591.00 L 2696.00 1591.00 L 2676.00 1592.00 L 2556.00 1592.00 L 2536.00 1593.00 L 2416.00 1593.00 L 2396.00 1594.00 L 2276.00 1594.00 L 2256.00 1595.00 L 2136.00 1595.00 L 2116.00 1596.00 L 1996.00 1596.00 L 1976.00 1597.00 L 1956.00 1617.00 L 1936.00 1597.00 L 1856.00 1597.00 L 1836.00 1598.00 L 1716.00 1598.00 L 1696.00 1599.00 L 1576.00 1599.00 L 1556.00 1600.00 L 1436.00 1600.00 L 1416.00 1601.00 L 1296.00 1601.00 L 1276.00 1602.00 L 1156.00 1602.00 L 1136.00 1603.00 L 1016.00 1603.00 L 996.00 1604.00 L 956.00 1604.00 L 936.00 1624.00 L 916.00 1624.00 L 896.00 1604.00 L 885.76 1609.63 L 889.81 1718.41 L 896.00 1715.00 L 1096.00 1715.00 L 1116.00 1714.00 L 1336.00 1714.00 L 1356.00 1713.00 L 1556.00 1713.00 L 1576.00 1732.00 L 1596.00 1712.00 L 1796.00 1712.00 L 1816.00 1711.00 L 2036.00 1711.00 L 2056.00 1710.00 L 2256.00 1710.00 L 2276.00 1709.00 L 2496.00 1709.00 L 2516.00 1728.00 L 2536.00 1708.00 L 2736.00 1708.00 L 2756.00 1707.00 L 2956.00 1707.00 L 2976.00 1706.00 L 3043.99 1706.00 L 3016.74 1589.00 Z" />
<path id="csg562-060-09" fill="none" stroke="black" stroke-width="1" d="M 2976.00 1706.00 L 2956.00 1707.00 L 2756.00 1707.00 L 2736.00 1708.00 L 2536.00 1708.00 L 2516.00 1728.00 L 2496.00 1709.00 L 2276.00 1709.00 L 2256.00 1710.00 L 2056.00 1710.00 L 2036.00 1711.00 L 1816.00 1711.00 L 1796.00 1712.00 L 1596.00 1712.00 L 1576.00 1732.00 L 1556.00 1713.00 L 1356.00 1713.00 L 1336.00 1714.00 L 1116.00 1714.00 L 1096.00 1715.00 L 896.00 1715.00 L 889.81 1718.41 L 893.56 1819.34 L 896.00 1818.00 L 1236.00 1818.00 L 1256.00 1838.00 L 1276.00 1838.00 L 1296.00 1818.00 L 1356.00 1818.00 L 1376.00 1817.00 L 1836.00 1817.00 L 1856.00 1816.00 L 2316.00 1816.00 L 2336.00 1815.00 L 2796.00 1815.00 L 2816.00 1814.00 L 2876.00 1814.00 L 2896.00 1834.00 L 2916.00 1834.00 L 2936.00 1814.00 L 3032.04 1814.00 L 3054.00 1749.00 L 3043.99 1706.00 Z" />
<path id="csg562-060-10" fill="none" stroke="black" stroke-width="1" d="M 1456.00 1818.00 L 1436.00 1819.00 L 1356.00 1819.00 L 1336.00 1839.00 L 896.00 1839.00 L 894.32 1839.92 L 897.71 1931.00 L 936.00 1931.00 L 956.00 1951.00 L 976.00 1931.00 L 1176.00 1931.00 L 1196.00 1930.00 L 1496.00 1930.00 L 1516.00 1929.00 L 1796.00 1929.00 L 1816.00 1928.00 L 2116.00 1928.00 L 2136.00 1927.00 L 2416.00 1927.00 L 2436.00 1926.00 L 2536.00 1926.00 L 2556.00 1946.00 L 2576.00 1926.00 L 2736.00 1926.00 L 2756.00 1925.00 L 2994.54 1925.00 L 3024.61 1836.00 L 2596.00 1836.00 L 2576.00 1837.00 L 2016.00 1837.00 L 1996.00 1838.00 L 1476.00 1838.00 L 1456.00 1818.00 Z" />
<path id="csg562-060-11" fill="none" stroke="black" stroke-width="1" d="M 2756.00 1925.00 L 2736.00 1926.00 L 2576.00 1926.00 L 2556.00 1946.00 L 2536.00 1926.00 L 2436.00 1926.00 L 2416.00 1927.00 L 2136.00 1927.00 L 2116.00 1928.00 L 1816.00 1928.00 L 1796.00 1929.00 L 1516.00 1929.00 L 1496.00 1930.00 L 1196.00 1930.00 L 1176.00 1931.00 L 976.00 1931.00 L 956.00 1951.00 L 936.00 1931.00 L 897.71 1931.00 L 901.65 2037.00 L 1216.00 2037.00 L 1236.00 2036.00 L 1556.00 2036.00 L 1576.00 2035.00 L 1896.00 2035.00 L 1916.00 2034.00 L 1976.00 2034.00 L 1996.00 2054.00 L 2016.00 2034.00 L 2256.00 2034.00 L 2276.00 2033.00 L 2476.00 2033.00 L 2496.00 2053.00 L 2516.00 2033.00 L 2536.00 2053.00 L 2556.00 2033.00 L 2596.00 2033.00 L 2616.00 2032.00 L 2896.00 2032.00 L 2916.00 2052.00 L 2936.00 2032.00 L 2956.00 2031.00 L 2986.96 2031.00 L 2979.00 1971.00 L 2994.54 1925.00 Z" />
<path id="csg562-060-12" fill="none" stroke="black" stroke-width="1" d="M 2956.00 2031.00 L 2936.00 2032.00 L 2916.00 2052.00 L 2896.00 2032.00 L 2616.00 2032.00 L 2596.00 2033.00 L 2556.00 2033.00 L 2536.00 2053.00 L 2516.00 2033.00 L 2496.00 2053.00 L 2476.00 2033.00 L 2276.00 2033.00 L 2256.00 2034.00 L 2016.00 2034.00 L 1996.00 2054.00 L 1976.00 2034.00 L 1916.00 2034.00 L 1896.00 2035.00 L 1576.00 2035.00 L 1556.00 2036.00 L 1236.00 2036.00 L 1216.00 2037.00 L 901.65 2037.00 L 906.00 2154.00 L 905.90 2163.00 L 1176.00 2163.00 L 1196.00 2162.00 L 1336.00 2162.00 L 1356.00 2142.00 L 1396.00 2142.00 L 1416.00 2162.00 L 1476.00 2162.00 L 1496.00 2161.00 L 1776.00 2161.00 L 1796.00 2160.00 L 2076.00 2160.00 L 2096.00 2159.00 L 2376.00 2159.00 L 2396.00 2178.00 L 2416.00 2158.00 L 2676.00 2158.00 L 2696.00 2157.00 L 2856.00 2157.00 L 2876.00 2177.00 L 2896.00 2157.00 L 2976.00 2157.00 L 2996.00 2156.00 L 3003.56 2156.00 L 2986.96 2031.00 Z" />
<path id="csg562-060-13" fill="none" stroke="black" stroke-width="1" d="M 1356.00 2142.00 L 1336.00 2162.00 L 1196.00 2162.00 L 1176.00 2163.00 L 905.90 2163.00 L 904.67 2276.00 L 1356.00 2276.00 L 1376.00 2296.00 L 1396.00 2276.00 L 1416.00 2275.00 L 1936.00 2275.00 L 1956.00 2274.00 L 2096.00 2274.00 L 2116.00 2254.00 L 2136.00 2254.00 L 2156.00 2274.00 L 2176.00 2254.00 L 2196.00 2254.00 L 2216.00 2274.00 L 2456.00 2274.00 L 2476.00 2273.00 L 2996.00 2273.00 L 3016.00 2272.00 L 3018.96 2272.00 L 3003.56 2156.00 L 2996.00 2156.00 L 2976.00 2157.00 L 2896.00 2157.00 L 2876.00 2177.00 L 2856.00 2157.00 L 2696.00 2157.00 L 2676.00 2158.00 L 2416.00 2158.00 L 2396.00 2178.00 L 2376.00 2159.00 L 2096.00 2159.00 L 2076.00 2160.00 L 1796.00 2160.00 L 1776.00 2161.00 L 1496.00 2161.00 L 1476.00 2162.00 L 1416.00 2162.00 L 1396.00 2142.00 Z" />
<path id="csg562-060-14" fill="none" stroke="black" stroke-width="1" d="M 2116.00 2254.00 L 2096.00 2274.00 L 1956.00 2274.00 L 1936.00 2275.00 L 1416.00 2275.00 L 1396.00 2276.00 L 1376.00 2296.00 L 1356.00 2276.00 L 904.67 2276.00 L 903.41 2391.00 L 1696.00 2391.00 L 1716.00 2411.00 L 1736.00 2391.00 L 3009.51 2391.00 L 3024.00 2310.00 L 3018.96 2272.00 L 3016.00 2272.00 L 2996.00 2273.00 L 2476.00 2273.00 L 2456.00 2274.00 L 2216.00 2274.00 L 2196.00 2254.00 L 2176.00 2254.00 L 2156.00 2274.00 L 2136.00 2254.00 Z" />
<path id="csg562-060-15" fill="none" stroke="black" stroke-width="1" d="M 903.41 2391.00 L 902.12 2509.00 L 1916.00 2509.00 L 1936.00 2488.00 L 1976.00 2488.00 L 1996.00 2508.00 L 2976.00 2508.00 L 2988.68 2507.37 L 3009.51 2391.00 L 1736.00 2391.00 L 1716.00 2411.00 L 1696.00 2391.00 Z" />
<path id="csg562-060-16" fill="none" stroke="black" stroke-width="1" d="M 1936.00 2488.00 L 1916.00 2509.00 L 902.12 2509.00 L 900.95 2616.00 L 1056.00 2616.00 L 1076.00 2615.00 L 1096.00 2635.00 L 1116.00 2615.00 L 1256.00 2615.00 L 1276.00 2614.00 L 1336.00 2614.00 L 1356.00 2634.00 L 1376.00 2634.00 L 1396.00 2614.00 L 1436.00 2614.00 L 1456.00 2613.00 L 1556.00 2613.00 L 1576.00 2633.00 L 1596.00 2633.00 L 1616.00 2613.00 L 1636.00 2613.00 L 1656.00 2612.00 L 1836.00 2612.00 L 1856.00 2611.00 L 2016.00 2611.00 L 2036.00 2610.00 L 2216.00 2610.00 L 2236.00 2609.00 L 2396.00 2609.00 L 2416.00 2608.00 L 2456.00 2608.00 L 2476.00 2588.00 L 2516.00 2588.00 L 2536.00 2608.00 L 2596.00 2608.00 L 2616.00 2607.00 L 2773.00 2607.00 L 2973.00 2595.00 L 2988.68 2507.37 L 2976.00 2508.00 L 1996.00 2508.00 L 1976.00 2488.00 Z" />
<path id="csg562-060-17" fill="none" stroke="black" stroke-width="1" d="M 2476.00 2588.00 L 2456.00 2608.00 L 2416.00 2608.00 L 2396.00 2609.00 L 2236.00 2609.00 L 2216.00 2610.00 L 2036.00 2610.00 L 2016.00 2611.00 L 1856.00 2611.00 L 1836.00 2612.00 L 1656.00 2612.00 L 1636.00 2613.00 L 1616.00 2613.00 L 1596.00 2633.00 L 1576.00 2633.00 L 1556.00 2613.00 L 1456.00 2613.00 L 1436.00 2614.00 L 1396.00 2614.00 L 1376.00 2634.00 L 1356.00 2634.00 L 1336.00 2614.00 L 1276.00 2614.00 L 1256.00 2615.00 L 1116.00 2615.00 L 1096.00 2635.00 L 1076.00 2615.00 L 1056.00 2616.00 L 900.95 2616.00 L 900.00 2703.00 L 1104.00 2712.00 L 1194.52 2713.48 L 1196.00 2712.00 L 1256.00 2712.00 L 1276.00 2711.00 L 1336.00 2711.00 L 1356.00 2710.00 L 1436.00 2710.00 L 1456.00 2709.00 L 1536.00 2709.00 L 1556.00 2708.00 L 1636.00 2708.00 L 1656.00 2707.00 L 1696.00 2707.00 L 1710.73 2721.73 L 1740.66 2722.11 L 1756.00 2706.00 L 1816.00 2706.00 L 1836.00 2705.00 L 1916.00 2705.00 L 1936.00 2704.00 L 1956.00 2704.00 L 1970.93 2724.90 L 1993.12 2725.15 L 1996.00 2724.00 L 2016.00 2704.00 L 2036.00 2703.00 L 2116.00 2703.00 L 2136.00 2702.00 L 2216.00 2702.00 L 2236.00 2701.00 L 2296.00 2701.00 L 2316.00 2700.00 L 2396.00 2700.00 L 2416.00 2699.00 L 2496.00 2699.00 L 2516.00 2698.00 L 2596.00 2698.00 L 2616.00 2697.00 L 2656.00 2697.00 L 2676.00 2717.00 L 2696.00 2717.00 L 2716.00 2696.00 L 2731.53 2696.00 L 2739.00 2688.00 L 2673.00 2613.00 L 2773.00 2607.00 L 2616.00 2607.00 L 2596.00 2608.00 L 2536.00 2608.00 L 2516.00 2588.00 Z" />
<path id="csg562-060-18" fill="none" stroke="black" stroke-width="1" d="M 2979.00 2832.00 L 2172.00 2841.00 L 1065.00 2862.00 L 1046.49 2943.00 L 1300.00 2943.00 L 1320.00 2942.00 L 1720.00 2942.00 L 1740.00 2941.00 L 1760.00 2941.00 L 1780.00 2961.00 L 1800.00 2961.00 L 1820.00 2941.00 L 2140.00 2941.00 L 2160.00 2940.00 L 2260.00 2940.00 L 2280.00 2960.00 L 2300.00 2960.00 L 2320.00 2940.00 L 2560.00 2940.00 L 2580.00 2939.00 L 2980.00 2939.00 L 3000.00 2938.00 L 3030.87 2938.00 L 2979.00 2832.00 Z" />
<path id="csg562-060-19" fill="none" stroke="black" stroke-width="1" d="M 3000.00 2938.00 L 2980.00 2939.00 L 2580.00 2939.00 L 2560.00 2940.00 L 2320.00 2940.00 L 2300.00 2960.00 L 2280.00 2960.00 L 2260.00 2940.00 L 2160.00 2940.00 L 2140.00 2941.00 L 1820.00 2941.00 L 1800.00 2961.00 L 1780.00 2961.00 L 1760.00 2941.00 L 1740.00 2941.00 L 1720.00 2942.00 L 1320.00 2942.00 L 1300.00 2943.00 L 1046.49 2943.00 L 1041.00 2967.00 L 903.00 2985.00 L 902.53 3064.74 L 920.00 3056.00 L 2220.00 3056.00 L 2240.00 3076.00 L 2260.00 3056.00 L 2540.00 3056.00 L 2560.00 3057.00 L 3033.60 3057.00 L 3048.00 2973.00 L 3030.87 2938.00 Z" />
<path id="csg562-060-20" fill="none" stroke="black" stroke-width="1" d="M 920.00 3056.00 L 902.53 3064.74 L 901.86 3178.07 L 920.00 3169.00 L 1280.00 3169.00 L 1300.00 3189.00 L 1320.00 3189.00 L 1340.00 3169.00 L 1360.00 3169.00 L 1380.00 3170.00 L 1840.00 3170.00 L 1860.00 3171.00 L 2320.00 3171.00 L 2340.00 3172.00 L 2800.00 3172.00 L 2820.00 3173.00 L 3013.71 3173.00 L 3033.60 3057.00 L 2560.00 3057.00 L 2540.00 3056.00 L 2260.00 3056.00 L 2240.00 3076.00 L 2220.00 3056.00 Z" />
<path id="csg562-060-21" fill="none" stroke="black" stroke-width="1" d="M 920.00 3169.00 L 901.86 3178.07 L 901.18 3292.41 L 920.00 3283.00 L 1180.00 3283.00 L 1200.00 3284.00 L 1480.00 3284.00 L 1500.00 3285.00 L 1760.00 3285.00 L 1780.00 3266.00 L 1800.00 3286.00 L 2060.00 3286.00 L 2080.00 3287.00 L 2340.00 3287.00 L 2360.00 3288.00 L 2640.00 3288.00 L 2660.00 3289.00 L 2920.00 3289.00 L 2940.00 3290.00 L 3003.08 3290.00 L 3012.00 3183.00 L 3013.71 3173.00 L 2820.00 3173.00 L 2800.00 3172.00 L 2340.00 3172.00 L 2320.00 3171.00 L 1860.00 3171.00 L 1840.00 3170.00 L 1380.00 3170.00 L 1360.00 3169.00 L 1340.00 3169.00 L 1320.00 3189.00 L 1300.00 3189.00 L 1280.00 3169.00 Z" />
<path id="csg562-060-22" fill="none" stroke="black" stroke-width="1" d="M 1780.00 3266.00 L 1760.00 3285.00 L 1500.00 3285.00 L 1480.00 3284.00 L 1200.00 3284.00 L 1180.00 3283.00 L 920.00 3283.00 L 901.18 3292.41 L 900.55 3399.70 L 920.00 3389.00 L 1180.00 3389.00 L 1200.00 3388.00 L 1460.00 3388.00 L 1480.00 3387.00 L 1740.00 3387.00 L 1760.00 3386.00 L 2040.00 3386.00 L 2060.00 3385.00 L 2320.00 3385.00 L 2340.00 3384.00 L 2480.00 3384.00 L 2500.00 3404.00 L 2520.00 3384.00 L 2600.00 3384.00 L 2620.00 3383.00 L 2900.00 3383.00 L 2920.00 3382.00 L 2995.42 3382.00 L 3003.08 3290.00 L 2940.00 3290.00 L 2920.00 3289.00 L 2660.00 3289.00 L 2640.00 3288.00 L 2360.00 3288.00 L 2340.00 3287.00 L 2080.00 3287.00 L 2060.00 3286.00 L 1800.00 3286.00 L 1780.00 3266.00 Z" />
<path id="csg562-060-23" fill="none" stroke="black" stroke-width="1" d="M 2920.00 3382.00 L 2900.00 3383.00 L 2620.00 3383.00 L 2600.00 3384.00 L 2520.00 3384.00 L 2500.00 3404.00 L 2480.00 3384.00 L 2340.00 3384.00 L 2320.00 3385.00 L 2060.00 3385.00 L 2040.00 3386.00 L 1760.00 3386.00 L 1740.00 3387.00 L 1480.00 3387.00 L 1460.00 3388.00 L 1200.00 3388.00 L 1180.00 3389.00 L 920.00 3389.00 L 900.55 3399.70 L 900.00 3492.00 L 946.28 3492.29 L 960.00 3482.00 L 1140.00 3482.00 L 1160.00 3483.00 L 1400.00 3483.00 L 1420.00 3484.00 L 1640.00 3484.00 L 1660.00 3485.00 L 1900.00 3485.00 L 1920.00 3486.00 L 2140.00 3486.00 L 2160.00 3487.00 L 2316.00 3487.00 L 2988.00 3471.00 L 2995.42 3382.00 Z" />
</svg>
