<?xml version="1.0" standalone="no"?>
<!DOCTYPE svg PUBLIC "-//W3C//DTD SVG 1.1//EN" "http://www.w3.org/Graphics/SVG/1.1/DTD/svg11.dtd">
<svg width="46.22222in" height="69.333336in" viewBox="0 0 3328 4992" xmlns="http://www.w3.org/2000/svg" version="1.1">
<path id="csg562-043-01" fill="none" stroke="black" stroke-width="1" d="M 975.00 819.00 L 537.00 837.00 L 342.00 834.00 L 340.58 932.53 L 347.00 929.00 L 1827.00 929.00 L 1847.00 928.00 L 2470.66 928.00 L 2463.07 823.00 L 2400.67 823.00 L 1902.00 831.00 L 1853.25 821.00 L 1593.20 821.00 L 1374.00 837.00 L 975.00 819.00 Z" />
<path id="csg562-043-02" fill="none" stroke="black" stroke-width="1" d="M 1847.00 928.00 L 1827.00 929.00 L 347.00 929.00 L 340.58 932.53 L 339.06 1038.37 L 347.00 1034.00 L 587.00 1034.00 L 607.00 1033.00 L 847.00 1033.00 L 867.00 1032.00 L 1127.00 1032.00 L 1147.00 1031.00 L 1387.00 1031.00 L 1407.00 1030.00 L 1647.00 1030.00 L 1667.00 1029.00 L 1927.00 1029.00 L 1947.00 1028.00 L 2187.00 1028.00 L 2207.00 1027.00 L 2447.00 1027.00 L 2467.00 1026.00 L 2477.75 1026.00 L 2470.66 928.00 Z" />
<path id="csg562-043-03" fill="none" stroke="black" stroke-width="1" d="M 2467.00 1026.00 L 2447.00 1027.00 L 2207.00 1027.00 L 2187.00 1028.00 L 1947.00 1028.00 L 1927.00 1029.00 L 1667.00 1029.00 L 1647.00 1030.00 L 1407.00 1030.00 L 1387.00 1031.00 L 1147.00 1031.00 L 1127.00 1032.00 L 867.00 1032.00 L 847.00 1033.00 L 607.00 1033.00 L 587.00 1034.00 L 347.00 1034.00 L 339.06 1038.37 L 337.48 1148.24 L 347.00 1143.00 L 467.00 1143.00 L 487.00 1142.00 L 627.00 1142.00 L 647.00 1141.00 L 787.00 1141.00 L 807.00 1140.00 L 947.00 1140.00 L 967.00 1139.00 L 1107.00 1139.00 L 1127.00 1138.00 L 1147.00 1158.00 L 1167.00 1158.00 L 1187.00 1138.00 L 1267.00 1138.00 L 1287.00 1137.00 L 1427.00 1137.00 L 1447.00 1136.00 L 1567.00 1136.00 L 1587.00 1135.00 L 1707.00 1135.00 L 1727.00 1155.00 L 1747.00 1154.00 L 1767.00 1134.00 L 1887.00 1134.00 L 1907.00 1133.00 L 2047.00 1133.00 L 2067.00 1132.00 L 2207.00 1132.00 L 2227.00 1131.00 L 2367.00 1131.00 L 2387.00 1130.00 L 2428.32 1130.00 L 2481.00 1071.00 L 2477.75 1026.00 Z" />
<path id="csg562-043-04" fill="none" stroke="black" stroke-width="1" d="M 2387.00 1130.00 L 2367.00 1131.00 L 2227.00 1131.00 L 2207.00 1132.00 L 2067.00 1132.00 L 2047.00 1133.00 L 1907.00 1133.00 L 1887.00 1134.00 L 1767.00 1134.00 L 1747.00 1154.00 L 1727.00 1155.00 L 1707.00 1135.00 L 1587.00 1135.00 L 1567.00 1136.00 L 1447.00 1136.00 L 1427.00 1137.00 L 1287.00 1137.00 L 1267.00 1138.00 L 1187.00 1138.00 L 1167.00 1158.00 L 1147.00 1158.00 L 1127.00 1138.00 L 1107.00 1139.00 L 967.00 1139.00 L 947.00 1140.00 L 807.00 1140.00 L 787.00 1141.00 L 647.00 1141.00 L 627.00 1142.00 L 487.00 1142.00 L 467.00 1143.00 L 347.00 1143.00 L 337.48 1148.24 L 336.00 1251.00 L 336.22 1261.93 L 347.00 1256.00 L 607.00 1256.00 L 627.00 1255.00 L 887.00 1255.00 L 907.00 1254.00 L 1167.00 1254.00 L 1187.00 1253.00 L 1427.00 1253.00 L 1447.00 1273.00 L 1467.00 1253.00 L 1487.00 1252.00 L 1747.00 1252.00 L 1767.00 1251.00 L 2027.00 1251.00 L 2047.00 1250.00 L 2327.00 1250.00 L 2347.00 1249.00 L 2445.27 1249.00 L 2406.00 1155.00 L 2428.32 1130.00 Z" />
<path id="csg562-043-05" fill="none" stroke="black" stroke-width="1" d="M 2347.00 1249.00 L 2327.00 1250.00 L 2047.00 1250.00 L 2027.00 1251.00 L 1767.00 1251.00 L 1747.00 1252.00 L 1487.00 1252.00 L 1467.00 1253.00 L 1447.00 1273.00 L 1427.00 1253.00 L 1187.00 1253.00 L 1167.00 1254.00 L 907.00 1254.00 L 887.00 1255.00 L 627.00 1255.00 L 607.00 1256.00 L 347.00 1256.00 L 336.22 1261.93 L 338.46 1375.70 L 347.00 1371.00 L 507.00 1371.00 L 527.00 1370.00 L 687.00 1370.00 L 707.00 1369.00 L 867.00 1369.00 L 887.00 1368.00 L 927.00 1368.00 L 947.00 1348.00 L 987.00 1348.00 L 1007.00 1368.00 L 1047.00 1368.00 L 1067.00 1367.00 L 1227.00 1367.00 L 1247.00 1366.00 L 1407.00 1366.00 L 1427.00 1365.00 L 1587.00 1365.00 L 1607.00 1364.00 L 1767.00 1364.00 L 1787.00 1363.00 L 1947.00 1363.00 L 1967.00 1362.00 L 2147.00 1362.00 L 2167.00 1361.00 L 2287.00 1361.00 L 2307.00 1381.00 L 2327.00 1381.00 L 2347.00 1360.00 L 2491.63 1360.00 L 2445.27 1249.00 Z" />
<path id="csg562-043-06" fill="none" stroke="black" stroke-width="1" d="M 947.00 1348.00 L 927.00 1368.00 L 887.00 1368.00 L 867.00 1369.00 L 707.00 1369.00 L 687.00 1370.00 L 527.00 1370.00 L 507.00 1371.00 L 347.00 1371.00 L 338.46 1375.70 L 340.67 1488.16 L 347.00 1485.00 L 367.00 1505.00 L 387.00 1505.00 L 407.00 1485.00 L 947.00 1485.00 L 967.00 1505.00 L 987.00 1485.00 L 1487.00 1485.00 L 1507.00 1486.00 L 1707.00 1486.00 L 1727.00 1466.00 L 1747.00 1466.00 L 1767.00 1486.00 L 2456.73 1486.00 L 2505.00 1392.00 L 2491.63 1360.00 L 2347.00 1360.00 L 2327.00 1381.00 L 2307.00 1381.00 L 2287.00 1361.00 L 2167.00 1361.00 L 2147.00 1362.00 L 1967.00 1362.00 L 1947.00 1363.00 L 1787.00 1363.00 L 1767.00 1364.00 L 1607.00 1364.00 L 1587.00 1365.00 L 1427.00 1365.00 L 1407.00 1366.00 L 1247.00 1366.00 L 1227.00 1367.00 L 1067.00 1367.00 L 1047.00 1368.00 L 1007.00 1368.00 L 987.00 1348.00 Z" />
<path id="csg562-043-07" fill="none" stroke="black" stroke-width="1" d="M 1727.00 1466.00 L 1707.00 1486.00 L 1507.00 1486.00 L 1487.00 1485.00 L 987.00 1485.00 L 967.00 1505.00 L 947.00 1485.00 L 407.00 1485.00 L 387.00 1505.00 L 367.00 1505.00 L 347.00 1485.00 L 340.67 1488.16 L 342.77 1594.33 L 347.00 1592.00 L 1887.00 1592.00 L 1907.00 1591.00 L 1927.00 1591.00 L 1947.00 1611.00 L 1967.00 1591.00 L 2450.32 1591.00 L 2448.00 1503.00 L 2456.73 1486.00 L 1767.00 1486.00 L 1747.00 1466.00 Z" />
<path id="csg562-043-08" fill="none" stroke="black" stroke-width="1" d="M 1907.00 1591.00 L 1887.00 1592.00 L 347.00 1592.00 L 342.77 1594.33 L 344.95 1705.13 L 347.00 1704.00 L 447.00 1704.00 L 467.00 1724.00 L 487.00 1704.00 L 827.00 1704.00 L 847.00 1703.00 L 1207.00 1703.00 L 1227.00 1683.00 L 1247.00 1703.00 L 1347.00 1703.00 L 1367.00 1702.00 L 1867.00 1702.00 L 1887.00 1701.00 L 2367.00 1701.00 L 2387.00 1700.00 L 2453.18 1700.00 L 2450.32 1591.00 L 1967.00 1591.00 L 1947.00 1611.00 L 1927.00 1591.00 Z" />
<path id="csg562-043-09" fill="none" stroke="black" stroke-width="1" d="M 1227.00 1683.00 L 1207.00 1703.00 L 847.00 1703.00 L 827.00 1704.00 L 487.00 1704.00 L 467.00 1724.00 L 447.00 1704.00 L 347.00 1704.00 L 344.95 1705.13 L 347.01 1810.00 L 1407.00 1810.00 L 1427.00 1809.00 L 2147.00 1809.00 L 2167.00 1829.00 L 2207.00 1829.00 L 2227.00 1809.00 L 2403.41 1809.00 L 2454.00 1731.00 L 2453.18 1700.00 L 2387.00 1700.00 L 2367.00 1701.00 L 1887.00 1701.00 L 1867.00 1702.00 L 1367.00 1702.00 L 1347.00 1703.00 L 1247.00 1703.00 L 1227.00 1683.00 Z" />
<path id="csg562-043-10" fill="none" stroke="black" stroke-width="1" d="M 1427.00 1809.00 L 1407.00 1810.00 L 347.01 1810.00 L 348.00 1860.00 L 337.96 1925.97 L 347.00 1921.00 L 367.00 1921.00 L 387.00 1901.00 L 407.00 1901.00 L 427.00 1921.00 L 1067.00 1921.00 L 1087.00 1920.00 L 1807.00 1920.00 L 1827.00 1919.00 L 2418.24 1919.00 L 2382.00 1842.00 L 2403.41 1809.00 L 2227.00 1809.00 L 2207.00 1829.00 L 2167.00 1829.00 L 2147.00 1809.00 Z" />
<path id="csg562-043-11" fill="none" stroke="black" stroke-width="1" d="M 387.00 1901.00 L 367.00 1921.00 L 347.00 1921.00 L 337.96 1925.97 L 327.00 1998.00 L 329.49 2053.75 L 347.00 2045.00 L 947.00 2045.00 L 967.00 2065.00 L 987.00 2045.00 L 1687.00 2045.00 L 1707.00 2046.00 L 1847.00 2046.00 L 1867.00 2026.00 L 1887.00 2026.00 L 1907.00 2046.00 L 2430.00 2046.00 L 2430.00 1944.00 L 2418.24 1919.00 L 1827.00 1919.00 L 1807.00 1920.00 L 1087.00 1920.00 L 1067.00 1921.00 L 427.00 1921.00 L 407.00 1901.00 Z" />
<path id="csg562-043-12" fill="none" stroke="black" stroke-width="1" d="M 1867.00 2026.00 L 1847.00 2046.00 L 1707.00 2046.00 L 1687.00 2045.00 L 987.00 2045.00 L 967.00 2065.00 L 947.00 2045.00 L 347.00 2045.00 L 329.49 2053.75 L 334.43 2164.28 L 347.00 2158.00 L 647.00 2158.00 L 667.00 2159.00 L 967.00 2159.00 L 987.00 2160.00 L 1307.00 2160.00 L 1327.00 2161.00 L 1627.00 2161.00 L 1647.00 2162.00 L 1947.00 2162.00 L 1967.00 2163.00 L 2287.00 2163.00 L 2307.00 2164.00 L 2518.92 2164.00 L 2430.00 2094.00 L 2430.00 2046.00 L 1907.00 2046.00 L 1887.00 2026.00 Z" />
<path id="csg562-043-13" fill="none" stroke="black" stroke-width="1" d="M 347.00 2158.00 L 334.43 2164.28 L 339.20 2270.90 L 347.00 2267.00 L 607.00 2267.00 L 627.00 2268.00 L 907.00 2268.00 L 927.00 2269.00 L 1207.00 2269.00 L 1227.00 2270.00 L 1507.00 2270.00 L 1527.00 2271.00 L 1807.00 2271.00 L 1827.00 2272.00 L 2107.00 2272.00 L 2127.00 2273.00 L 2395.77 2273.00 L 2571.00 2205.00 L 2518.92 2164.00 L 2307.00 2164.00 L 2287.00 2163.00 L 1967.00 2163.00 L 1947.00 2162.00 L 1647.00 2162.00 L 1627.00 2161.00 L 1327.00 2161.00 L 1307.00 2160.00 L 987.00 2160.00 L 967.00 2159.00 L 667.00 2159.00 L 647.00 2158.00 Z" />
<path id="csg562-043-14" fill="none" stroke="black" stroke-width="1" d="M 347.00 2267.00 L 339.20 2270.90 L 343.92 2376.54 L 347.00 2375.00 L 2417.02 2375.00 L 2370.00 2283.00 L 2395.77 2273.00 L 2127.00 2273.00 L 2107.00 2272.00 L 1827.00 2272.00 L 1807.00 2271.00 L 1527.00 2271.00 L 1507.00 2270.00 L 1227.00 2270.00 L 1207.00 2269.00 L 927.00 2269.00 L 907.00 2268.00 L 627.00 2268.00 L 607.00 2267.00 Z" />
<path id="csg562-043-15" fill="none" stroke="black" stroke-width="1" d="M 347.00 2375.00 L 343.92 2376.54 L 348.68 2483.00 L 367.00 2483.00 L 387.00 2503.00 L 407.00 2483.00 L 707.00 2483.00 L 727.00 2463.00 L 747.00 2483.00 L 1027.00 2483.00 L 1047.00 2484.00 L 1727.00 2484.00 L 1747.00 2485.00 L 1847.00 2485.00 L 1867.00 2505.00 L 1887.00 2485.00 L 2412.41 2485.00 L 2439.00 2418.00 L 2417.02 2375.00 Z" />
<path id="csg562-043-16" fill="none" stroke="black" stroke-width="1" d="M 727.00 2463.00 L 707.00 2483.00 L 407.00 2483.00 L 387.00 2503.00 L 367.00 2483.00 L 348.68 2483.00 L 351.00 2535.00 L 351.00 2599.00 L 367.00 2599.00 L 387.00 2619.00 L 407.00 2599.00 L 707.00 2599.00 L 727.00 2600.00 L 1107.00 2600.00 L 1127.00 2601.00 L 1487.00 2601.00 L 1507.00 2602.00 L 1887.00 2602.00 L 1907.00 2603.00 L 2287.00 2603.00 L 2307.00 2604.00 L 2365.19 2604.00 L 2412.41 2485.00 L 1887.00 2485.00 L 1867.00 2505.00 L 1847.00 2485.00 L 1747.00 2485.00 L 1727.00 2484.00 L 1047.00 2484.00 L 1027.00 2483.00 L 747.00 2483.00 L 727.00 2463.00 Z" />
<path id="csg562-043-17" fill="none" stroke="black" stroke-width="1" d="M 351.00 2599.00 L 351.00 2711.00 L 367.00 2711.00 L 387.00 2731.00 L 407.00 2711.00 L 847.00 2711.00 L 867.00 2712.00 L 1367.00 2712.00 L 1387.00 2713.00 L 1647.00 2713.00 L 1667.00 2693.00 L 1687.00 2693.00 L 1707.00 2713.00 L 1887.00 2713.00 L 1907.00 2714.00 L 2407.00 2714.00 L 2427.00 2715.00 L 2470.06 2715.00 L 2475.00 2622.00 L 2364.00 2607.00 L 2365.19 2604.00 L 2307.00 2604.00 L 2287.00 2603.00 L 1907.00 2603.00 L 1887.00 2602.00 L 1507.00 2602.00 L 1487.00 2601.00 L 1127.00 2601.00 L 1107.00 2600.00 L 727.00 2600.00 L 707.00 2599.00 L 407.00 2599.00 L 387.00 2619.00 L 367.00 2599.00 Z" />
<path id="csg562-043-18" fill="none" stroke="black" stroke-width="1" d="M 1667.00 2693.00 L 1647.00 2713.00 L 1387.00 2713.00 L 1367.00 2712.00 L 867.00 2712.00 L 847.00 2711.00 L 407.00 2711.00 L 387.00 2731.00 L 367.00 2711.00 L 351.00 2711.00 L 351.00 2824.00 L 707.00 2824.00 L 727.00 2825.00 L 1107.00 2825.00 L 1127.00 2826.00 L 1487.00 2826.00 L 1507.00 2827.00 L 1887.00 2827.00 L 1907.00 2828.00 L 2287.00 2828.00 L 2307.00 2829.00 L 2464.01 2829.00 L 2470.06 2715.00 L 2427.00 2715.00 L 2407.00 2714.00 L 1907.00 2714.00 L 1887.00 2713.00 L 1707.00 2713.00 L 1687.00 2693.00 Z" />
<path id="csg562-043-19" fill="none" stroke="black" stroke-width="1" d="M 351.00 2824.00 L 351.00 2938.00 L 967.00 2938.00 L 987.00 2918.00 L 1007.00 2918.00 L 1027.00 2919.00 L 1047.00 2939.00 L 1687.00 2939.00 L 1707.00 2940.00 L 2367.00 2940.00 L 2387.00 2941.00 L 2458.06 2941.00 L 2464.01 2829.00 L 2307.00 2829.00 L 2287.00 2828.00 L 1907.00 2828.00 L 1887.00 2827.00 L 1507.00 2827.00 L 1487.00 2826.00 L 1127.00 2826.00 L 1107.00 2825.00 L 727.00 2825.00 L 707.00 2824.00 Z" />
<path id="csg562-043-20" fill="none" stroke="black" stroke-width="1" d="M 987.00 2918.00 L 967.00 2938.00 L 351.00 2938.00 L 351.00 3051.00 L 587.00 3051.00 L 607.00 3050.00 L 847.00 3050.00 L 867.00 3049.00 L 1107.00 3049.00 L 1127.00 3048.00 L 1367.00 3048.00 L 1387.00 3047.00 L 1627.00 3047.00 L 1647.00 3046.00 L 1887.00 3046.00 L 1907.00 3045.00 L 2147.00 3045.00 L 2167.00 3044.00 L 2407.00 3044.00 L 2427.00 3043.00 L 2429.67 3043.00 L 2457.00 2961.00 L 2458.06 2941.00 L 2387.00 2941.00 L 2367.00 2940.00 L 1707.00 2940.00 L 1687.00 2939.00 L 1047.00 2939.00 L 1027.00 2919.00 L 1007.00 2918.00 Z" />
<path id="csg562-043-21" fill="none" stroke="black" stroke-width="1" d="M 2427.00 3043.00 L 2407.00 3044.00 L 2167.00 3044.00 L 2147.00 3045.00 L 1907.00 3045.00 L 1887.00 3046.00 L 1647.00 3046.00 L 1627.00 3047.00 L 1387.00 3047.00 L 1367.00 3048.00 L 1127.00 3048.00 L 1107.00 3049.00 L 867.00 3049.00 L 847.00 3050.00 L 607.00 3050.00 L 587.00 3051.00 L 351.00 3051.00 L 351.00 3148.00 L 587.00 3148.00 L 607.00 3147.00 L 847.00 3147.00 L 867.00 3146.00 L 1107.00 3146.00 L 1127.00 3145.00 L 1327.00 3145.00 L 1347.00 3165.00 L 1367.00 3165.00 L 1387.00 3144.00 L 1627.00 3144.00 L 1647.00 3143.00 L 1887.00 3143.00 L 1907.00 3142.00 L 2147.00 3142.00 L 2167.00 3141.00 L 2367.00 3141.00 L 2387.00 3161.00 L 2407.00 3141.00 L 2425.28 3140.09 L 2421.00 3069.00 L 2429.67 3043.00 Z" />
<path id="csg562-043-22" fill="none" stroke="black" stroke-width="1" d="M 407.00 3155.00 L 387.00 3175.00 L 351.00 3175.00 L 351.00 3216.00 L 346.62 3269.21 L 347.00 3269.00 L 727.00 3269.00 L 747.00 3268.00 L 1127.00 3268.00 L 1147.00 3267.00 L 1527.00 3267.00 L 1547.00 3266.00 L 1887.00 3266.00 L 1907.00 3286.00 L 1927.00 3266.00 L 1947.00 3285.00 L 1967.00 3265.00 L 2327.00 3265.00 L 2347.00 3264.00 L 2432.75 3264.00 L 2426.90 3167.00 L 2407.00 3168.00 L 2167.00 3168.00 L 2147.00 3169.00 L 1907.00 3169.00 L 1887.00 3170.00 L 1647.00 3170.00 L 1627.00 3171.00 L 1387.00 3171.00 L 1367.00 3172.00 L 1127.00 3172.00 L 1107.00 3173.00 L 867.00 3173.00 L 847.00 3174.00 L 607.00 3174.00 L 587.00 3175.00 L 507.00 3175.00 L 487.00 3155.00 Z" />
<path id="csg562-043-23" fill="none" stroke="black" stroke-width="1" d="M 2347.00 3264.00 L 2327.00 3265.00 L 1967.00 3265.00 L 1947.00 3285.00 L 1927.00 3266.00 L 1907.00 3286.00 L 1887.00 3266.00 L 1547.00 3266.00 L 1527.00 3267.00 L 1147.00 3267.00 L 1127.00 3268.00 L 747.00 3268.00 L 727.00 3269.00 L 347.00 3269.00 L 346.62 3269.21 L 336.74 3389.13 L 347.00 3384.00 L 867.00 3384.00 L 887.00 3385.00 L 1427.00 3385.00 L 1447.00 3386.00 L 1987.00 3386.00 L 2007.00 3387.00 L 2404.64 3387.00 L 2436.00 3318.00 L 2432.75 3264.00 Z" />
<path id="csg562-043-24" fill="none" stroke="black" stroke-width="1" d="M 347.00 3384.00 L 336.74 3389.13 L 330.00 3471.00 L 402.50 3486.00 L 507.00 3486.00 L 527.00 3487.00 L 707.00 3487.00 L 727.00 3488.00 L 907.00 3488.00 L 927.00 3489.00 L 1027.00 3489.00 L 1047.00 3503.00 L 1067.00 3489.00 L 1107.00 3489.00 L 1127.00 3490.00 L 1307.00 3490.00 L 1327.00 3491.00 L 1387.00 3491.00 L 1401.08 3499.45 L 1413.18 3499.29 L 1427.00 3491.00 L 1487.00 3491.00 L 1507.00 3492.00 L 1687.00 3492.00 L 1707.00 3493.00 L 1887.00 3493.00 L 1907.00 3494.00 L 2087.00 3494.00 L 2107.00 3495.00 L 2159.40 3495.00 L 2361.00 3483.00 L 2404.64 3387.00 L 2007.00 3387.00 L 1987.00 3386.00 L 1447.00 3386.00 L 1427.00 3385.00 L 887.00 3385.00 L 867.00 3384.00 Z" />
</svg>
