<?xml version="1.0" standalone="no"?>
<!DOCTYPE svg PUBLIC "-//W3C//DTD SVG 1.1//EN" "http://www.w3.org/Graphics/SVG/1.1/DTD/svg11.dtd">
<svg width="46.22222in" height="69.333336in" viewBox="0 0 3328 4992" xmlns="http://www.w3.org/2000/svg" version="1.1">
<path id="csg562-017-01" fill="none" stroke="black" stroke-width="1" d="M 982.08 790.00 L 933.82 819.18 L 924.00 829.00 L 918.07 828.70 L 906.00 836.00 L 762.00 842.00 L 678.00 834.00 L 452.00 832.00 L 454.85 926.00 L 464.00 926.00 L 484.00 927.00 L 504.00 927.00 L 524.00 928.00 L 564.00 928.00 L 584.00 929.00 L 604.00 929.00 L 624.00 930.00 L 664.00 930.00 L 684.00 931.00 L 704.00 931.00 L 724.00 932.00 L 764.00 932.00 L 784.00 933.00 L 804.00 933.00 L 824.00 934.00 L 864.00 934.00 L 884.00 935.00 L 904.00 935.00 L 924.00 936.00 L 944.00 936.00 L 964.00 937.00 L 1004.00 937.00 L 1024.00 938.00 L 1044.00 938.00 L 1064.00 939.00 L 1104.00 939.00 L 1124.00 940.00 L 1144.00 940.00 L 1164.00 941.00 L 1204.00 941.00 L 1224.00 942.00 L 1244.00 942.00 L 1264.00 943.00 L 1304.00 943.00 L 1324.00 944.00 L 1344.00 944.00 L 1364.00 945.00 L 1404.00 945.00 L 1424.00 946.00 L 1444.00 946.00 L 1464.00 947.00 L 1484.00 947.00 L 1504.00 968.00 L 1524.00 948.00 L 1544.00 948.00 L 1564.00 949.00 L 1584.00 949.00 L 1604.00 950.00 L 1644.00 950.00 L 1664.00 951.00 L 1684.00 951.00 L 1704.00 952.00 L 1744.00 952.00 L 1764.00 953.00 L 1784.00 953.00 L 1804.00 954.00 L 1844.00 954.00 L 1864.00 955.00 L 1884.00 955.00 L 1904.00 956.00 L 1944.00 956.00 L 1964.00 957.00 L 1984.00 957.00 L 2004.00 958.00 L 2024.00 958.00 L 2044.00 959.00 L 2084.00 959.00 L 2104.00 960.00 L 2124.00 960.00 L 2144.00 961.00 L 2184.00 961.00 L 2204.00 962.00 L 2224.00 962.00 L 2244.00 963.00 L 2284.00 963.00 L 2304.00 964.00 L 2324.00 964.00 L 2344.00 965.00 L 2384.00 965.00 L 2404.00 966.00 L 2424.00 966.00 L 2444.00 967.00 L 2484.00 967.00 L 2504.00 968.00 L 2524.00 968.00 L 2538.12 968.71 L 2598.00 938.00 L 2600.00 874.00 L 2484.00 864.00 L 2206.00 856.00 L 2161.14 854.00 L 2144.00 854.00 L 2124.00 853.00 L 2104.00 853.00 L 2084.00 852.00 L 2044.00 852.00 L 2024.00 851.00 L 2004.00 851.00 L 1984.00 850.00 L 1964.00 850.00 L 1944.00 849.00 L 1904.00 849.00 L 1884.00 848.00 L 1864.00 848.00 L 1844.00 847.00 L 1804.00 847.00 L 1784.00 846.00 L 1764.00 846.00 L 1744.00 845.00 L 1704.00 845.00 L 1684.00 844.00 L 1664.00 844.00 L 1644.00 843.00 L 1604.00 843.00 L 1584.00 842.00 L 1564.00 842.00 L 1544.00 841.00 L 1504.00 841.00 L 1484.00 840.00 L 1464.00 840.00 L 1451.78 839.39 L 1314.00 848.00 L 1266.00 836.00 L 1264.00 836.00 L 1244.00 835.00 L 1224.00 835.00 L 1204.00 834.00 L 1164.00 834.00 L 1144.00 833.00 L 1124.00 833.00 L 1104.00 832.00 L 1064.00 832.00 L 1044.00 831.00 L 1024.00 811.00 L 1004.00 790.00 Z" />
<path id="csg562-017-02" fill="none" stroke="black" stroke-width="1" d="M 454.85 926.00 L 458.30 1040.00 L 464.00 1040.00 L 484.00 1041.00 L 504.00 1041.00 L 524.00 1042.00 L 544.00 1042.00 L 564.00 1043.00 L 584.00 1043.00 L 604.00 1044.00 L 644.00 1044.00 L 664.00 1045.00 L 684.00 1045.00 L 704.00 1046.00 L 724.00 1046.00 L 744.00 1047.00 L 764.00 1047.00 L 784.00 1048.00 L 804.00 1048.00 L 824.00 1049.00 L 864.00 1049.00 L 884.00 1050.00 L 904.00 1050.00 L 924.00 1051.00 L 944.00 1051.00 L 964.00 1052.00 L 984.00 1052.00 L 1004.00 1053.00 L 1024.00 1053.00 L 1044.00 1054.00 L 1084.00 1054.00 L 1104.00 1055.00 L 1124.00 1055.00 L 1144.00 1056.00 L 1164.00 1056.00 L 1184.00 1057.00 L 1204.00 1057.00 L 1224.00 1058.00 L 1244.00 1058.00 L 1264.00 1059.00 L 1304.00 1059.00 L 1324.00 1060.00 L 1344.00 1040.00 L 1364.00 1041.00 L 1384.00 1041.00 L 1404.00 1042.00 L 1424.00 1062.00 L 1444.00 1063.00 L 1464.00 1063.00 L 1484.00 1064.00 L 1524.00 1064.00 L 1544.00 1065.00 L 1564.00 1065.00 L 1584.00 1066.00 L 1604.00 1066.00 L 1624.00 1067.00 L 1644.00 1067.00 L 1664.00 1068.00 L 1684.00 1068.00 L 1704.00 1069.00 L 1744.00 1069.00 L 1764.00 1070.00 L 1784.00 1070.00 L 1804.00 1071.00 L 1824.00 1071.00 L 1844.00 1072.00 L 1864.00 1072.00 L 1884.00 1073.00 L 1904.00 1073.00 L 1924.00 1074.00 L 1964.00 1074.00 L 1984.00 1075.00 L 2004.00 1075.00 L 2024.00 1076.00 L 2044.00 1076.00 L 2064.00 1077.00 L 2084.00 1077.00 L 2104.00 1078.00 L 2124.00 1078.00 L 2144.00 1079.00 L 2184.00 1079.00 L 2204.00 1080.00 L 2224.00 1080.00 L 2244.00 1081.00 L 2264.00 1081.00 L 2284.00 1082.00 L 2304.00 1082.00 L 2324.00 1083.00 L 2344.00 1083.00 L 2364.00 1084.00 L 2404.00 1084.00 L 2424.00 1085.00 L 2444.00 1085.00 L 2464.00 1086.00 L 2484.00 1086.00 L 2504.00 1087.00 L 2524.00 1087.00 L 2544.00 1088.00 L 2564.00 1088.00 L 2584.00 1089.00 L 2624.00 1089.00 L 2644.00 1090.00 L 2660.97 1090.00 L 2520.00 978.00 L 2538.12 968.71 L 2524.00 968.00 L 2504.00 968.00 L 2484.00 967.00 L 2444.00 967.00 L 2424.00 966.00 L 2404.00 966.00 L 2384.00 965.00 L 2344.00 965.00 L 2324.00 964.00 L 2304.00 964.00 L 2284.00 963.00 L 2244.00 963.00 L 2224.00 962.00 L 2204.00 962.00 L 2184.00 961.00 L 2144.00 961.00 L 2124.00 960.00 L 2104.00 960.00 L 2084.00 959.00 L 2044.00 959.00 L 2024.00 958.00 L 2004.00 958.00 L 1984.00 957.00 L 1964.00 957.00 L 1944.00 956.00 L 1904.00 956.00 L 1884.00 955.00 L 1864.00 955.00 L 1844.00 954.00 L 1804.00 954.00 L 1784.00 953.00 L 1764.00 953.00 L 1744.00 952.00 L 1704.00 952.00 L 1684.00 951.00 L 1664.00 951.00 L 1644.00 950.00 L 1604.00 950.00 L 1584.00 949.00 L 1564.00 949.00 L 1544.00 948.00 L 1524.00 948.00 L 1504.00 968.00 L 1484.00 947.00 L 1464.00 947.00 L 1444.00 946.00 L 1424.00 946.00 L 1404.00 945.00 L 1364.00 945.00 L 1344.00 944.00 L 1324.00 944.00 L 1304.00 943.00 L 1264.00 943.00 L 1244.00 942.00 L 1224.00 942.00 L 1204.00 941.00 L 1164.00 941.00 L 1144.00 940.00 L 1124.00 940.00 L 1104.00 939.00 L 1064.00 939.00 L 1044.00 938.00 L 1024.00 938.00 L 1004.00 937.00 L 964.00 937.00 L 944.00 936.00 L 924.00 936.00 L 904.00 935.00 L 884.00 935.00 L 864.00 934.00 L 824.00 934.00 L 804.00 933.00 L 784.00 933.00 L 764.00 932.00 L 724.00 932.00 L 704.00 931.00 L 684.00 931.00 L 664.00 930.00 L 624.00 930.00 L 604.00 929.00 L 584.00 929.00 L 564.00 928.00 L 524.00 928.00 L 504.00 927.00 L 484.00 927.00 L 464.00 926.00 Z" />
<path id="csg562-017-03" fill="none" stroke="black" stroke-width="1" d="M 458.30 1040.00 L 460.00 1096.00 L 460.00 1158.00 L 464.00 1158.00 L 484.00 1159.00 L 504.00 1159.00 L 524.00 1160.00 L 564.00 1160.00 L 584.00 1161.00 L 604.00 1161.00 L 624.00 1162.00 L 644.00 1162.00 L 664.00 1163.00 L 684.00 1143.00 L 704.00 1163.00 L 724.00 1164.00 L 744.00 1164.00 L 764.00 1165.00 L 784.00 1165.00 L 804.00 1166.00 L 844.00 1166.00 L 864.00 1167.00 L 884.00 1167.00 L 904.00 1168.00 L 944.00 1168.00 L 964.00 1169.00 L 984.00 1169.00 L 1004.00 1170.00 L 1024.00 1170.00 L 1044.00 1171.00 L 1084.00 1171.00 L 1104.00 1172.00 L 1124.00 1172.00 L 1144.00 1173.00 L 1164.00 1173.00 L 1184.00 1174.00 L 1224.00 1174.00 L 1244.00 1175.00 L 1264.00 1175.00 L 1284.00 1176.00 L 1324.00 1176.00 L 1344.00 1177.00 L 1364.00 1177.00 L 1384.00 1178.00 L 1404.00 1178.00 L 1424.00 1179.00 L 1464.00 1179.00 L 1484.00 1180.00 L 1504.00 1180.00 L 1524.00 1181.00 L 1544.00 1181.00 L 1564.00 1182.00 L 1604.00 1182.00 L 1624.00 1183.00 L 1644.00 1163.00 L 1664.00 1144.00 L 1684.00 1144.00 L 1704.00 1185.00 L 1744.00 1185.00 L 1764.00 1186.00 L 1784.00 1186.00 L 1804.00 1187.00 L 1844.00 1187.00 L 1864.00 1188.00 L 1884.00 1188.00 L 1904.00 1189.00 L 1924.00 1189.00 L 1944.00 1190.00 L 1984.00 1190.00 L 2004.00 1191.00 L 2024.00 1191.00 L 2044.00 1192.00 L 2064.00 1192.00 L 2084.00 1193.00 L 2124.00 1193.00 L 2144.00 1194.00 L 2164.00 1194.00 L 2184.00 1195.00 L 2224.00 1195.00 L 2244.00 1196.00 L 2264.00 1196.00 L 2284.00 1197.00 L 2304.00 1197.00 L 2324.00 1198.00 L 2364.00 1198.00 L 2384.00 1199.00 L 2404.00 1199.00 L 2424.00 1200.00 L 2444.00 1200.00 L 2464.00 1201.00 L 2504.00 1201.00 L 2524.00 1202.00 L 2536.00 1202.00 L 2536.00 1184.00 L 2618.00 1168.00 L 2666.00 1094.00 L 2660.97 1090.00 L 2644.00 1090.00 L 2624.00 1089.00 L 2584.00 1089.00 L 2564.00 1088.00 L 2544.00 1088.00 L 2524.00 1087.00 L 2504.00 1087.00 L 2484.00 1086.00 L 2464.00 1086.00 L 2444.00 1085.00 L 2424.00 1085.00 L 2404.00 1084.00 L 2364.00 1084.00 L 2344.00 1083.00 L 2324.00 1083.00 L 2304.00 1082.00 L 2284.00 1082.00 L 2264.00 1081.00 L 2244.00 1081.00 L 2224.00 1080.00 L 2204.00 1080.00 L 2184.00 1079.00 L 2144.00 1079.00 L 2124.00 1078.00 L 2104.00 1078.00 L 2084.00 1077.00 L 2064.00 1077.00 L 2044.00 1076.00 L 2024.00 1076.00 L 2004.00 1075.00 L 1984.00 1075.00 L 1964.00 1074.00 L 1924.00 1074.00 L 1904.00 1073.00 L 1884.00 1073.00 L 1864.00 1072.00 L 1844.00 1072.00 L 1824.00 1071.00 L 1804.00 1071.00 L 1784.00 1070.00 L 1764.00 1070.00 L 1744.00 1069.00 L 1704.00 1069.00 L 1684.00 1068.00 L 1664.00 1068.00 L 1644.00 1067.00 L 1624.00 1067.00 L 1604.00 1066.00 L 1584.00 1066.00 L 1564.00 1065.00 L 1544.00 1065.00 L 1524.00 1064.00 L 1484.00 1064.00 L 1464.00 1063.00 L 1444.00 1063.00 L 1424.00 1062.00 L 1404.00 1042.00 L 1384.00 1041.00 L 1364.00 1041.00 L 1344.00 1040.00 L 1324.00 1060.00 L 1304.00 1059.00 L 1264.00 1059.00 L 1244.00 1058.00 L 1224.00 1058.00 L 1204.00 1057.00 L 1184.00 1057.00 L 1164.00 1056.00 L 1144.00 1056.00 L 1124.00 1055.00 L 1104.00 1055.00 L 1084.00 1054.00 L 1044.00 1054.00 L 1024.00 1053.00 L 1004.00 1053.00 L 984.00 1052.00 L 964.00 1052.00 L 944.00 1051.00 L 924.00 1051.00 L 904.00 1050.00 L 884.00 1050.00 L 864.00 1049.00 L 824.00 1049.00 L 804.00 1048.00 L 784.00 1048.00 L 764.00 1047.00 L 744.00 1047.00 L 724.00 1046.00 L 704.00 1046.00 L 684.00 1045.00 L 664.00 1045.00 L 644.00 1044.00 L 604.00 1044.00 L 584.00 1043.00 L 564.00 1043.00 L 544.00 1042.00 L 524.00 1042.00 L 504.00 1041.00 L 484.00 1041.00 L 464.00 1040.00 Z" />
<path id="csg562-017-04" fill="none" stroke="black" stroke-width="1" d="M 684.00 1143.00 L 664.00 1163.00 L 644.00 1162.00 L 624.00 1162.00 L 604.00 1161.00 L 584.00 1161.00 L 564.00 1160.00 L 524.00 1160.00 L 504.00 1159.00 L 484.00 1159.00 L 464.00 1158.00 L 460.00 1158.00 L 460.00 1266.00 L 484.00 1266.00 L 504.00 1267.00 L 544.00 1267.00 L 564.00 1268.00 L 624.00 1268.00 L 644.00 1269.00 L 684.00 1269.00 L 704.00 1270.00 L 764.00 1270.00 L 784.00 1271.00 L 824.00 1271.00 L 844.00 1272.00 L 904.00 1272.00 L 924.00 1273.00 L 964.00 1273.00 L 984.00 1274.00 L 1044.00 1274.00 L 1064.00 1275.00 L 1104.00 1275.00 L 1124.00 1276.00 L 1184.00 1276.00 L 1204.00 1277.00 L 1244.00 1277.00 L 1264.00 1278.00 L 1324.00 1278.00 L 1344.00 1279.00 L 1384.00 1279.00 L 1404.00 1280.00 L 1464.00 1280.00 L 1484.00 1281.00 L 1524.00 1281.00 L 1544.00 1282.00 L 1604.00 1282.00 L 1624.00 1283.00 L 1664.00 1283.00 L 1684.00 1284.00 L 1744.00 1284.00 L 1764.00 1285.00 L 1804.00 1285.00 L 1824.00 1286.00 L 1884.00 1286.00 L 1904.00 1287.00 L 1944.00 1287.00 L 1964.00 1288.00 L 2024.00 1288.00 L 2044.00 1289.00 L 2084.00 1289.00 L 2104.00 1290.00 L 2164.00 1290.00 L 2184.00 1291.00 L 2224.00 1291.00 L 2244.00 1292.00 L 2304.00 1292.00 L 2324.00 1293.00 L 2364.00 1293.00 L 2384.00 1294.00 L 2444.00 1294.00 L 2464.00 1295.00 L 2504.00 1295.00 L 2524.00 1296.00 L 2536.00 1296.00 L 2536.00 1202.00 L 2524.00 1202.00 L 2504.00 1201.00 L 2464.00 1201.00 L 2444.00 1200.00 L 2424.00 1200.00 L 2404.00 1199.00 L 2384.00 1199.00 L 2364.00 1198.00 L 2324.00 1198.00 L 2304.00 1197.00 L 2284.00 1197.00 L 2264.00 1196.00 L 2244.00 1196.00 L 2224.00 1195.00 L 2184.00 1195.00 L 2164.00 1194.00 L 2144.00 1194.00 L 2124.00 1193.00 L 2084.00 1193.00 L 2064.00 1192.00 L 2044.00 1192.00 L 2024.00 1191.00 L 2004.00 1191.00 L 1984.00 1190.00 L 1944.00 1190.00 L 1924.00 1189.00 L 1904.00 1189.00 L 1884.00 1188.00 L 1864.00 1188.00 L 1844.00 1187.00 L 1804.00 1187.00 L 1784.00 1186.00 L 1764.00 1186.00 L 1744.00 1185.00 L 1704.00 1185.00 L 1684.00 1144.00 L 1664.00 1144.00 L 1644.00 1163.00 L 1624.00 1183.00 L 1604.00 1182.00 L 1564.00 1182.00 L 1544.00 1181.00 L 1524.00 1181.00 L 1504.00 1180.00 L 1484.00 1180.00 L 1464.00 1179.00 L 1424.00 1179.00 L 1404.00 1178.00 L 1384.00 1178.00 L 1364.00 1177.00 L 1344.00 1177.00 L 1324.00 1176.00 L 1284.00 1176.00 L 1264.00 1175.00 L 1244.00 1175.00 L 1224.00 1174.00 L 1184.00 1174.00 L 1164.00 1173.00 L 1144.00 1173.00 L 1124.00 1172.00 L 1104.00 1172.00 L 1084.00 1171.00 L 1044.00 1171.00 L 1024.00 1170.00 L 1004.00 1170.00 L 984.00 1169.00 L 964.00 1169.00 L 944.00 1168.00 L 904.00 1168.00 L 884.00 1167.00 L 864.00 1167.00 L 844.00 1166.00 L 804.00 1166.00 L 784.00 1165.00 L 764.00 1165.00 L 744.00 1164.00 L 724.00 1164.00 L 704.00 1163.00 L 684.00 1143.00 Z" />
<path id="csg562-017-05" fill="none" stroke="black" stroke-width="1" d="M 460.00 1266.00 L 460.00 1379.00 L 504.00 1379.00 L 524.00 1380.00 L 584.00 1380.00 L 604.00 1381.00 L 664.00 1381.00 L 684.00 1382.00 L 744.00 1382.00 L 764.00 1383.00 L 824.00 1383.00 L 844.00 1384.00 L 904.00 1384.00 L 924.00 1385.00 L 984.00 1385.00 L 1004.00 1386.00 L 1064.00 1386.00 L 1084.00 1387.00 L 1144.00 1387.00 L 1164.00 1388.00 L 1244.00 1388.00 L 1264.00 1389.00 L 1324.00 1389.00 L 1344.00 1390.00 L 1404.00 1390.00 L 1424.00 1391.00 L 1484.00 1391.00 L 1504.00 1392.00 L 1564.00 1392.00 L 1584.00 1393.00 L 1644.00 1393.00 L 1664.00 1394.00 L 1724.00 1394.00 L 1744.00 1395.00 L 1804.00 1395.00 L 1824.00 1396.00 L 1884.00 1396.00 L 1904.00 1377.00 L 1944.00 1377.00 L 1964.00 1397.00 L 1984.00 1398.00 L 2064.00 1398.00 L 2084.00 1399.00 L 2144.00 1399.00 L 2164.00 1400.00 L 2224.00 1400.00 L 2244.00 1401.00 L 2304.00 1401.00 L 2324.00 1402.00 L 2384.00 1402.00 L 2404.00 1403.00 L 2444.00 1403.00 L 2464.00 1423.00 L 2484.00 1404.00 L 2544.00 1404.00 L 2553.94 1404.50 L 2536.00 1336.00 L 2536.00 1296.00 L 2524.00 1296.00 L 2504.00 1295.00 L 2464.00 1295.00 L 2444.00 1294.00 L 2384.00 1294.00 L 2364.00 1293.00 L 2324.00 1293.00 L 2304.00 1292.00 L 2244.00 1292.00 L 2224.00 1291.00 L 2184.00 1291.00 L 2164.00 1290.00 L 2104.00 1290.00 L 2084.00 1289.00 L 2044.00 1289.00 L 2024.00 1288.00 L 1964.00 1288.00 L 1944.00 1287.00 L 1904.00 1287.00 L 1884.00 1286.00 L 1824.00 1286.00 L 1804.00 1285.00 L 1764.00 1285.00 L 1744.00 1284.00 L 1684.00 1284.00 L 1664.00 1283.00 L 1624.00 1283.00 L 1604.00 1282.00 L 1544.00 1282.00 L 1524.00 1281.00 L 1484.00 1281.00 L 1464.00 1280.00 L 1404.00 1280.00 L 1384.00 1279.00 L 1344.00 1279.00 L 1324.00 1278.00 L 1264.00 1278.00 L 1244.00 1277.00 L 1204.00 1277.00 L 1184.00 1276.00 L 1124.00 1276.00 L 1104.00 1275.00 L 1064.00 1275.00 L 1044.00 1274.00 L 984.00 1274.00 L 964.00 1273.00 L 924.00 1273.00 L 904.00 1272.00 L 844.00 1272.00 L 824.00 1271.00 L 784.00 1271.00 L 764.00 1270.00 L 704.00 1270.00 L 684.00 1269.00 L 644.00 1269.00 L 624.00 1268.00 L 564.00 1268.00 L 544.00 1267.00 L 504.00 1267.00 L 484.00 1266.00 Z" />
<path id="csg562-017-06" fill="none" stroke="black" stroke-width="1" d="M 1904.00 1377.00 L 1884.00 1396.00 L 1824.00 1396.00 L 1804.00 1395.00 L 1744.00 1395.00 L 1724.00 1394.00 L 1664.00 1394.00 L 1644.00 1393.00 L 1584.00 1393.00 L 1564.00 1392.00 L 1504.00 1392.00 L 1484.00 1391.00 L 1424.00 1391.00 L 1404.00 1390.00 L 1344.00 1390.00 L 1324.00 1389.00 L 1264.00 1389.00 L 1244.00 1388.00 L 1164.00 1388.00 L 1144.00 1387.00 L 1084.00 1387.00 L 1064.00 1386.00 L 1004.00 1386.00 L 984.00 1385.00 L 924.00 1385.00 L 904.00 1384.00 L 844.00 1384.00 L 824.00 1383.00 L 764.00 1383.00 L 744.00 1382.00 L 684.00 1382.00 L 664.00 1381.00 L 604.00 1381.00 L 584.00 1380.00 L 524.00 1380.00 L 504.00 1379.00 L 460.00 1379.00 L 460.00 1446.00 L 516.00 1478.00 L 568.00 1472.00 L 540.63 1505.00 L 604.00 1505.00 L 624.00 1506.00 L 684.00 1506.00 L 704.00 1507.00 L 784.00 1507.00 L 804.00 1508.00 L 884.00 1508.00 L 904.00 1509.00 L 964.00 1509.00 L 984.00 1510.00 L 1064.00 1510.00 L 1084.00 1511.00 L 1164.00 1511.00 L 1184.00 1512.00 L 1244.00 1512.00 L 1264.00 1513.00 L 1344.00 1513.00 L 1364.00 1514.00 L 1444.00 1514.00 L 1464.00 1515.00 L 1524.00 1515.00 L 1544.00 1516.00 L 1624.00 1516.00 L 1644.00 1517.00 L 1724.00 1517.00 L 1744.00 1518.00 L 1804.00 1518.00 L 1824.00 1519.00 L 1904.00 1519.00 L 1924.00 1520.00 L 1984.00 1520.00 L 2004.00 1521.00 L 2084.00 1521.00 L 2104.00 1522.00 L 2184.00 1522.00 L 2204.00 1523.00 L 2264.00 1523.00 L 2284.00 1524.00 L 2364.00 1524.00 L 2384.00 1525.00 L 2464.00 1525.00 L 2484.00 1526.00 L 2544.00 1526.00 L 2552.35 1526.42 L 2580.00 1504.00 L 2553.94 1404.50 L 2544.00 1404.00 L 2484.00 1404.00 L 2464.00 1423.00 L 2444.00 1403.00 L 2404.00 1403.00 L 2384.00 1402.00 L 2324.00 1402.00 L 2304.00 1401.00 L 2244.00 1401.00 L 2224.00 1400.00 L 2164.00 1400.00 L 2144.00 1399.00 L 2084.00 1399.00 L 2064.00 1398.00 L 1984.00 1398.00 L 1964.00 1397.00 L 1944.00 1377.00 Z" />
<path id="csg562-017-07" fill="none" stroke="black" stroke-width="1" d="M 540.63 1505.00 L 500.00 1554.00 L 504.00 1608.00 L 524.00 1608.00 L 544.00 1609.00 L 564.00 1609.00 L 584.00 1610.00 L 624.00 1610.00 L 644.00 1611.00 L 684.00 1611.00 L 704.00 1612.00 L 724.00 1612.00 L 744.00 1613.00 L 784.00 1613.00 L 804.00 1614.00 L 824.00 1614.00 L 844.00 1615.00 L 884.00 1615.00 L 904.00 1616.00 L 944.00 1616.00 L 964.00 1617.00 L 984.00 1617.00 L 1004.00 1618.00 L 1044.00 1618.00 L 1064.00 1619.00 L 1084.00 1619.00 L 1104.00 1620.00 L 1144.00 1620.00 L 1164.00 1621.00 L 1204.00 1621.00 L 1224.00 1622.00 L 1244.00 1622.00 L 1264.00 1623.00 L 1304.00 1623.00 L 1324.00 1624.00 L 1344.00 1624.00 L 1364.00 1625.00 L 1404.00 1625.00 L 1424.00 1626.00 L 1464.00 1626.00 L 1484.00 1627.00 L 1504.00 1627.00 L 1524.00 1628.00 L 1564.00 1628.00 L 1584.00 1629.00 L 1604.00 1629.00 L 1624.00 1630.00 L 1664.00 1630.00 L 1684.00 1611.00 L 1704.00 1631.00 L 1724.00 1631.00 L 1744.00 1632.00 L 1764.00 1632.00 L 1784.00 1633.00 L 1824.00 1633.00 L 1844.00 1634.00 L 1884.00 1634.00 L 1904.00 1635.00 L 1924.00 1635.00 L 1944.00 1636.00 L 1984.00 1636.00 L 2004.00 1637.00 L 2024.00 1637.00 L 2044.00 1638.00 L 2084.00 1638.00 L 2104.00 1639.00 L 2144.00 1639.00 L 2164.00 1640.00 L 2184.00 1640.00 L 2204.00 1641.00 L 2244.00 1641.00 L 2264.00 1642.00 L 2284.00 1642.00 L 2304.00 1643.00 L 2344.00 1643.00 L 2364.00 1644.00 L 2404.00 1644.00 L 2424.00 1645.00 L 2444.00 1645.00 L 2464.00 1646.00 L 2504.00 1646.00 L 2508.49 1646.22 L 2506.00 1564.00 L 2552.35 1526.42 L 2544.00 1526.00 L 2484.00 1526.00 L 2464.00 1525.00 L 2384.00 1525.00 L 2364.00 1524.00 L 2284.00 1524.00 L 2264.00 1523.00 L 2204.00 1523.00 L 2184.00 1522.00 L 2104.00 1522.00 L 2084.00 1521.00 L 2004.00 1521.00 L 1984.00 1520.00 L 1924.00 1520.00 L 1904.00 1519.00 L 1824.00 1519.00 L 1804.00 1518.00 L 1744.00 1518.00 L 1724.00 1517.00 L 1644.00 1517.00 L 1624.00 1516.00 L 1544.00 1516.00 L 1524.00 1515.00 L 1464.00 1515.00 L 1444.00 1514.00 L 1364.00 1514.00 L 1344.00 1513.00 L 1264.00 1513.00 L 1244.00 1512.00 L 1184.00 1512.00 L 1164.00 1511.00 L 1084.00 1511.00 L 1064.00 1510.00 L 984.00 1510.00 L 964.00 1509.00 L 904.00 1509.00 L 884.00 1508.00 L 804.00 1508.00 L 784.00 1507.00 L 704.00 1507.00 L 684.00 1506.00 L 624.00 1506.00 L 604.00 1505.00 Z" />
<path id="csg562-017-08" fill="none" stroke="black" stroke-width="1" d="M 504.00 1608.00 L 458.00 1642.00 L 456.49 1707.00 L 464.00 1707.00 L 484.00 1708.00 L 504.00 1708.00 L 524.00 1709.00 L 564.00 1709.00 L 584.00 1710.00 L 604.00 1710.00 L 624.00 1711.00 L 644.00 1711.00 L 664.00 1712.00 L 704.00 1712.00 L 724.00 1713.00 L 744.00 1713.00 L 764.00 1714.00 L 784.00 1714.00 L 804.00 1715.00 L 844.00 1715.00 L 864.00 1716.00 L 884.00 1716.00 L 904.00 1717.00 L 924.00 1717.00 L 944.00 1718.00 L 984.00 1718.00 L 1004.00 1699.00 L 1024.00 1719.00 L 1044.00 1720.00 L 1064.00 1720.00 L 1084.00 1721.00 L 1124.00 1721.00 L 1144.00 1722.00 L 1164.00 1722.00 L 1184.00 1723.00 L 1204.00 1723.00 L 1224.00 1724.00 L 1264.00 1724.00 L 1284.00 1725.00 L 1304.00 1725.00 L 1324.00 1726.00 L 1344.00 1726.00 L 1364.00 1727.00 L 1404.00 1727.00 L 1424.00 1728.00 L 1444.00 1728.00 L 1464.00 1729.00 L 1484.00 1729.00 L 1504.00 1730.00 L 1544.00 1730.00 L 1564.00 1731.00 L 1584.00 1731.00 L 1604.00 1732.00 L 1624.00 1732.00 L 1644.00 1733.00 L 1684.00 1733.00 L 1704.00 1734.00 L 1724.00 1734.00 L 1744.00 1735.00 L 1764.00 1735.00 L 1784.00 1736.00 L 1824.00 1736.00 L 1844.00 1737.00 L 1864.00 1737.00 L 1884.00 1738.00 L 1904.00 1738.00 L 1924.00 1739.00 L 1964.00 1739.00 L 1984.00 1740.00 L 2004.00 1740.00 L 2024.00 1741.00 L 2044.00 1741.00 L 2064.00 1742.00 L 2104.00 1742.00 L 2124.00 1743.00 L 2144.00 1743.00 L 2164.00 1744.00 L 2184.00 1744.00 L 2204.00 1745.00 L 2244.00 1745.00 L 2264.00 1746.00 L 2284.00 1746.00 L 2304.00 1747.00 L 2324.00 1747.00 L 2344.00 1748.00 L 2384.00 1748.00 L 2404.00 1749.00 L 2424.00 1749.00 L 2444.00 1750.00 L 2464.00 1750.00 L 2484.00 1751.00 L 2511.67 1751.00 L 2508.49 1646.22 L 2504.00 1646.00 L 2464.00 1646.00 L 2444.00 1645.00 L 2424.00 1645.00 L 2404.00 1644.00 L 2364.00 1644.00 L 2344.00 1643.00 L 2304.00 1643.00 L 2284.00 1642.00 L 2264.00 1642.00 L 2244.00 1641.00 L 2204.00 1641.00 L 2184.00 1640.00 L 2164.00 1640.00 L 2144.00 1639.00 L 2104.00 1639.00 L 2084.00 1638.00 L 2044.00 1638.00 L 2024.00 1637.00 L 2004.00 1637.00 L 1984.00 1636.00 L 1944.00 1636.00 L 1924.00 1635.00 L 1904.00 1635.00 L 1884.00 1634.00 L 1844.00 1634.00 L 1824.00 1633.00 L 1784.00 1633.00 L 1764.00 1632.00 L 1744.00 1632.00 L 1724.00 1631.00 L 1704.00 1631.00 L 1684.00 1611.00 L 1664.00 1630.00 L 1624.00 1630.00 L 1604.00 1629.00 L 1584.00 1629.00 L 1564.00 1628.00 L 1524.00 1628.00 L 1504.00 1627.00 L 1484.00 1627.00 L 1464.00 1626.00 L 1424.00 1626.00 L 1404.00 1625.00 L 1364.00 1625.00 L 1344.00 1624.00 L 1324.00 1624.00 L 1304.00 1623.00 L 1264.00 1623.00 L 1244.00 1622.00 L 1224.00 1622.00 L 1204.00 1621.00 L 1164.00 1621.00 L 1144.00 1620.00 L 1104.00 1620.00 L 1084.00 1619.00 L 1064.00 1619.00 L 1044.00 1618.00 L 1004.00 1618.00 L 984.00 1617.00 L 964.00 1617.00 L 944.00 1616.00 L 904.00 1616.00 L 884.00 1615.00 L 844.00 1615.00 L 824.00 1614.00 L 804.00 1614.00 L 784.00 1613.00 L 744.00 1613.00 L 724.00 1612.00 L 704.00 1612.00 L 684.00 1611.00 L 644.00 1611.00 L 624.00 1610.00 L 584.00 1610.00 L 564.00 1609.00 L 544.00 1609.00 L 524.00 1608.00 Z" />
<path id="csg562-017-09" fill="none" stroke="black" stroke-width="1" d="M 1004.00 1699.00 L 984.00 1718.00 L 944.00 1718.00 L 924.00 1717.00 L 904.00 1717.00 L 884.00 1716.00 L 864.00 1716.00 L 844.00 1715.00 L 804.00 1715.00 L 784.00 1714.00 L 764.00 1714.00 L 744.00 1713.00 L 724.00 1713.00 L 704.00 1712.00 L 664.00 1712.00 L 644.00 1711.00 L 624.00 1711.00 L 604.00 1710.00 L 584.00 1710.00 L 564.00 1709.00 L 524.00 1709.00 L 504.00 1708.00 L 484.00 1708.00 L 464.00 1707.00 L 456.49 1707.00 L 453.84 1821.00 L 484.00 1821.00 L 504.00 1822.00 L 564.00 1822.00 L 584.00 1823.00 L 624.00 1823.00 L 644.00 1824.00 L 704.00 1824.00 L 724.00 1825.00 L 764.00 1825.00 L 784.00 1826.00 L 844.00 1826.00 L 864.00 1827.00 L 904.00 1827.00 L 924.00 1828.00 L 984.00 1828.00 L 1004.00 1829.00 L 1044.00 1829.00 L 1064.00 1830.00 L 1124.00 1830.00 L 1144.00 1831.00 L 1164.00 1831.00 L 1184.00 1811.00 L 1204.00 1832.00 L 1264.00 1832.00 L 1284.00 1833.00 L 1324.00 1833.00 L 1344.00 1834.00 L 1404.00 1834.00 L 1424.00 1835.00 L 1464.00 1835.00 L 1484.00 1836.00 L 1544.00 1836.00 L 1564.00 1837.00 L 1604.00 1837.00 L 1624.00 1838.00 L 1684.00 1838.00 L 1704.00 1839.00 L 1744.00 1839.00 L 1764.00 1840.00 L 1824.00 1840.00 L 1844.00 1841.00 L 1884.00 1841.00 L 1904.00 1842.00 L 1964.00 1842.00 L 1984.00 1843.00 L 2024.00 1843.00 L 2044.00 1844.00 L 2104.00 1844.00 L 2124.00 1845.00 L 2164.00 1845.00 L 2184.00 1846.00 L 2244.00 1846.00 L 2264.00 1847.00 L 2304.00 1847.00 L 2324.00 1848.00 L 2384.00 1848.00 L 2404.00 1849.00 L 2444.00 1849.00 L 2464.00 1850.00 L 2524.00 1850.00 L 2529.66 1850.28 L 2512.00 1762.00 L 2511.67 1751.00 L 2484.00 1751.00 L 2464.00 1750.00 L 2444.00 1750.00 L 2424.00 1749.00 L 2404.00 1749.00 L 2384.00 1748.00 L 2344.00 1748.00 L 2324.00 1747.00 L 2304.00 1747.00 L 2284.00 1746.00 L 2264.00 1746.00 L 2244.00 1745.00 L 2204.00 1745.00 L 2184.00 1744.00 L 2164.00 1744.00 L 2144.00 1743.00 L 2124.00 1743.00 L 2104.00 1742.00 L 2064.00 1742.00 L 2044.00 1741.00 L 2024.00 1741.00 L 2004.00 1740.00 L 1984.00 1740.00 L 1964.00 1739.00 L 1924.00 1739.00 L 1904.00 1738.00 L 1884.00 1738.00 L 1864.00 1737.00 L 1844.00 1737.00 L 1824.00 1736.00 L 1784.00 1736.00 L 1764.00 1735.00 L 1744.00 1735.00 L 1724.00 1734.00 L 1704.00 1734.00 L 1684.00 1733.00 L 1644.00 1733.00 L 1624.00 1732.00 L 1604.00 1732.00 L 1584.00 1731.00 L 1564.00 1731.00 L 1544.00 1730.00 L 1504.00 1730.00 L 1484.00 1729.00 L 1464.00 1729.00 L 1444.00 1728.00 L 1424.00 1728.00 L 1404.00 1727.00 L 1364.00 1727.00 L 1344.00 1726.00 L 1324.00 1726.00 L 1304.00 1725.00 L 1284.00 1725.00 L 1264.00 1724.00 L 1224.00 1724.00 L 1204.00 1723.00 L 1184.00 1723.00 L 1164.00 1722.00 L 1144.00 1722.00 L 1124.00 1721.00 L 1084.00 1721.00 L 1064.00 1720.00 L 1044.00 1720.00 L 1024.00 1719.00 L 1004.00 1699.00 Z" />
<path id="csg562-017-10" fill="none" stroke="black" stroke-width="1" d="M 1184.00 1811.00 L 1164.00 1831.00 L 1144.00 1831.00 L 1124.00 1830.00 L 1064.00 1830.00 L 1044.00 1829.00 L 1004.00 1829.00 L 984.00 1828.00 L 924.00 1828.00 L 904.00 1827.00 L 864.00 1827.00 L 844.00 1826.00 L 784.00 1826.00 L 764.00 1825.00 L 724.00 1825.00 L 704.00 1824.00 L 644.00 1824.00 L 624.00 1823.00 L 584.00 1823.00 L 564.00 1822.00 L 504.00 1822.00 L 484.00 1821.00 L 453.84 1821.00 L 451.12 1938.00 L 484.00 1938.00 L 504.00 1939.00 L 544.00 1939.00 L 564.00 1940.00 L 624.00 1940.00 L 644.00 1941.00 L 684.00 1941.00 L 704.00 1942.00 L 744.00 1942.00 L 764.00 1943.00 L 824.00 1943.00 L 844.00 1944.00 L 884.00 1944.00 L 904.00 1945.00 L 944.00 1945.00 L 964.00 1946.00 L 1024.00 1946.00 L 1044.00 1947.00 L 1084.00 1947.00 L 1104.00 1948.00 L 1144.00 1948.00 L 1164.00 1949.00 L 1224.00 1949.00 L 1244.00 1950.00 L 1284.00 1950.00 L 1304.00 1951.00 L 1344.00 1951.00 L 1364.00 1952.00 L 1424.00 1952.00 L 1444.00 1953.00 L 1464.00 1933.00 L 1484.00 1953.00 L 1504.00 1954.00 L 1544.00 1954.00 L 1564.00 1955.00 L 1624.00 1955.00 L 1644.00 1956.00 L 1684.00 1956.00 L 1704.00 1957.00 L 1744.00 1957.00 L 1764.00 1958.00 L 1824.00 1958.00 L 1844.00 1959.00 L 1884.00 1959.00 L 1904.00 1960.00 L 1964.00 1960.00 L 1984.00 1961.00 L 2004.00 1961.00 L 2024.00 1981.00 L 2044.00 1962.00 L 2084.00 1962.00 L 2104.00 1963.00 L 2164.00 1963.00 L 2184.00 1964.00 L 2224.00 1964.00 L 2244.00 1965.00 L 2284.00 1965.00 L 2304.00 1966.00 L 2364.00 1966.00 L 2384.00 1967.00 L 2424.00 1967.00 L 2444.00 1968.00 L 2484.00 1968.00 L 2504.00 1969.00 L 2523.11 1969.00 L 2544.00 1922.00 L 2529.66 1850.28 L 2524.00 1850.00 L 2464.00 1850.00 L 2444.00 1849.00 L 2404.00 1849.00 L 2384.00 1848.00 L 2324.00 1848.00 L 2304.00 1847.00 L 2264.00 1847.00 L 2244.00 1846.00 L 2184.00 1846.00 L 2164.00 1845.00 L 2124.00 1845.00 L 2104.00 1844.00 L 2044.00 1844.00 L 2024.00 1843.00 L 1984.00 1843.00 L 1964.00 1842.00 L 1904.00 1842.00 L 1884.00 1841.00 L 1844.00 1841.00 L 1824.00 1840.00 L 1764.00 1840.00 L 1744.00 1839.00 L 1704.00 1839.00 L 1684.00 1838.00 L 1624.00 1838.00 L 1604.00 1837.00 L 1564.00 1837.00 L 1544.00 1836.00 L 1484.00 1836.00 L 1464.00 1835.00 L 1424.00 1835.00 L 1404.00 1834.00 L 1344.00 1834.00 L 1324.00 1833.00 L 1284.00 1833.00 L 1264.00 1832.00 L 1204.00 1832.00 L 1184.00 1811.00 Z" />
<path id="csg562-017-11" fill="none" stroke="black" stroke-width="1" d="M 1464.00 1933.00 L 1444.00 1953.00 L 1424.00 1952.00 L 1364.00 1952.00 L 1344.00 1951.00 L 1304.00 1951.00 L 1284.00 1950.00 L 1244.00 1950.00 L 1224.00 1949.00 L 1164.00 1949.00 L 1144.00 1948.00 L 1104.00 1948.00 L 1084.00 1947.00 L 1044.00 1947.00 L 1024.00 1946.00 L 964.00 1946.00 L 944.00 1945.00 L 904.00 1945.00 L 884.00 1944.00 L 844.00 1944.00 L 824.00 1943.00 L 764.00 1943.00 L 744.00 1942.00 L 704.00 1942.00 L 684.00 1941.00 L 644.00 1941.00 L 624.00 1940.00 L 564.00 1940.00 L 544.00 1939.00 L 504.00 1939.00 L 484.00 1938.00 L 451.12 1938.00 L 450.00 1986.00 L 484.00 2034.00 L 526.00 2028.00 L 520.56 2056.00 L 524.00 2056.00 L 544.00 2057.00 L 564.00 2057.00 L 584.00 2058.00 L 624.00 2058.00 L 644.00 2059.00 L 664.00 2059.00 L 684.00 2060.00 L 724.00 2060.00 L 744.00 2061.00 L 764.00 2061.00 L 784.00 2062.00 L 824.00 2062.00 L 844.00 2063.00 L 864.00 2063.00 L 884.00 2064.00 L 924.00 2064.00 L 944.00 2065.00 L 964.00 2065.00 L 984.00 2066.00 L 1024.00 2066.00 L 1044.00 2067.00 L 1064.00 2067.00 L 1084.00 2068.00 L 1124.00 2068.00 L 1144.00 2069.00 L 1164.00 2069.00 L 1184.00 2070.00 L 1224.00 2070.00 L 1244.00 2071.00 L 1264.00 2071.00 L 1284.00 2072.00 L 1324.00 2072.00 L 1344.00 2073.00 L 1364.00 2073.00 L 1384.00 2074.00 L 1424.00 2074.00 L 1444.00 2075.00 L 1464.00 2075.00 L 1484.00 2076.00 L 1524.00 2076.00 L 1544.00 2077.00 L 1564.00 2077.00 L 1584.00 2078.00 L 1624.00 2078.00 L 1644.00 2079.00 L 1664.00 2079.00 L 1684.00 2080.00 L 1724.00 2080.00 L 1744.00 2081.00 L 1764.00 2081.00 L 1784.00 2082.00 L 1824.00 2082.00 L 1844.00 2083.00 L 1864.00 2083.00 L 1884.00 2084.00 L 1924.00 2084.00 L 1944.00 2085.00 L 1964.00 2085.00 L 1984.00 2086.00 L 2024.00 2086.00 L 2044.00 2087.00 L 2064.00 2087.00 L 2084.00 2088.00 L 2124.00 2088.00 L 2144.00 2089.00 L 2164.00 2089.00 L 2184.00 2090.00 L 2224.00 2090.00 L 2244.00 2091.00 L 2264.00 2091.00 L 2284.00 2092.00 L 2324.00 2092.00 L 2344.00 2093.00 L 2364.00 2093.00 L 2384.00 2094.00 L 2424.00 2094.00 L 2444.00 2095.00 L 2484.00 2095.00 L 2504.00 2096.00 L 2524.00 2096.00 L 2544.00 2097.00 L 2584.00 2097.00 L 2604.00 2098.00 L 2620.40 2098.00 L 2624.00 2090.00 L 2600.00 2012.00 L 2512.00 1994.00 L 2523.11 1969.00 L 2504.00 1969.00 L 2484.00 1968.00 L 2444.00 1968.00 L 2424.00 1967.00 L 2384.00 1967.00 L 2364.00 1966.00 L 2304.00 1966.00 L 2284.00 1965.00 L 2244.00 1965.00 L 2224.00 1964.00 L 2184.00 1964.00 L 2164.00 1963.00 L 2104.00 1963.00 L 2084.00 1962.00 L 2044.00 1962.00 L 2024.00 1981.00 L 2004.00 1961.00 L 1984.00 1961.00 L 1964.00 1960.00 L 1904.00 1960.00 L 1884.00 1959.00 L 1844.00 1959.00 L 1824.00 1958.00 L 1764.00 1958.00 L 1744.00 1957.00 L 1704.00 1957.00 L 1684.00 1956.00 L 1644.00 1956.00 L 1624.00 1955.00 L 1564.00 1955.00 L 1544.00 1954.00 L 1504.00 1954.00 L 1484.00 1953.00 L 1464.00 1933.00 Z" />
<path id="csg562-017-12" fill="none" stroke="black" stroke-width="1" d="M 520.56 2056.00 L 500.53 2159.00 L 504.00 2159.00 L 524.00 2160.00 L 564.00 2160.00 L 584.00 2161.00 L 604.00 2161.00 L 624.00 2162.00 L 664.00 2162.00 L 684.00 2163.00 L 704.00 2163.00 L 724.00 2164.00 L 744.00 2164.00 L 764.00 2165.00 L 804.00 2165.00 L 824.00 2166.00 L 844.00 2166.00 L 864.00 2167.00 L 904.00 2167.00 L 924.00 2168.00 L 944.00 2168.00 L 964.00 2169.00 L 984.00 2169.00 L 1004.00 2170.00 L 1044.00 2170.00 L 1064.00 2171.00 L 1084.00 2171.00 L 1104.00 2172.00 L 1144.00 2172.00 L 1164.00 2173.00 L 1184.00 2173.00 L 1204.00 2174.00 L 1224.00 2174.00 L 1244.00 2175.00 L 1284.00 2175.00 L 1304.00 2176.00 L 1324.00 2176.00 L 1344.00 2177.00 L 1384.00 2177.00 L 1404.00 2178.00 L 1424.00 2178.00 L 1444.00 2179.00 L 1464.00 2179.00 L 1484.00 2160.00 L 1504.00 2160.00 L 1524.00 2180.00 L 1544.00 2181.00 L 1564.00 2181.00 L 1584.00 2182.00 L 1624.00 2182.00 L 1644.00 2183.00 L 1664.00 2183.00 L 1684.00 2184.00 L 1704.00 2184.00 L 1724.00 2185.00 L 1764.00 2185.00 L 1784.00 2186.00 L 1804.00 2186.00 L 1824.00 2187.00 L 1864.00 2187.00 L 1884.00 2188.00 L 1904.00 2188.00 L 1924.00 2189.00 L 1944.00 2189.00 L 1964.00 2190.00 L 2004.00 2190.00 L 2024.00 2191.00 L 2044.00 2191.00 L 2064.00 2192.00 L 2104.00 2192.00 L 2124.00 2193.00 L 2144.00 2193.00 L 2164.00 2194.00 L 2184.00 2194.00 L 2204.00 2195.00 L 2244.00 2195.00 L 2264.00 2196.00 L 2284.00 2196.00 L 2304.00 2197.00 L 2344.00 2197.00 L 2364.00 2198.00 L 2384.00 2198.00 L 2404.00 2199.00 L 2424.00 2199.00 L 2444.00 2200.00 L 2484.00 2200.00 L 2504.00 2201.00 L 2524.00 2201.00 L 2544.00 2202.00 L 2573.60 2202.00 L 2620.40 2098.00 L 2604.00 2098.00 L 2584.00 2097.00 L 2544.00 2097.00 L 2524.00 2096.00 L 2504.00 2096.00 L 2484.00 2095.00 L 2444.00 2095.00 L 2424.00 2094.00 L 2384.00 2094.00 L 2364.00 2093.00 L 2344.00 2093.00 L 2324.00 2092.00 L 2284.00 2092.00 L 2264.00 2091.00 L 2244.00 2091.00 L 2224.00 2090.00 L 2184.00 2090.00 L 2164.00 2089.00 L 2144.00 2089.00 L 2124.00 2088.00 L 2084.00 2088.00 L 2064.00 2087.00 L 2044.00 2087.00 L 2024.00 2086.00 L 1984.00 2086.00 L 1964.00 2085.00 L 1944.00 2085.00 L 1924.00 2084.00 L 1884.00 2084.00 L 1864.00 2083.00 L 1844.00 2083.00 L 1824.00 2082.00 L 1784.00 2082.00 L 1764.00 2081.00 L 1744.00 2081.00 L 1724.00 2080.00 L 1684.00 2080.00 L 1664.00 2079.00 L 1644.00 2079.00 L 1624.00 2078.00 L 1584.00 2078.00 L 1564.00 2077.00 L 1544.00 2077.00 L 1524.00 2076.00 L 1484.00 2076.00 L 1464.00 2075.00 L 1444.00 2075.00 L 1424.00 2074.00 L 1384.00 2074.00 L 1364.00 2073.00 L 1344.00 2073.00 L 1324.00 2072.00 L 1284.00 2072.00 L 1264.00 2071.00 L 1244.00 2071.00 L 1224.00 2070.00 L 1184.00 2070.00 L 1164.00 2069.00 L 1144.00 2069.00 L 1124.00 2068.00 L 1084.00 2068.00 L 1064.00 2067.00 L 1044.00 2067.00 L 1024.00 2066.00 L 984.00 2066.00 L 964.00 2065.00 L 944.00 2065.00 L 924.00 2064.00 L 884.00 2064.00 L 864.00 2063.00 L 844.00 2063.00 L 824.00 2062.00 L 784.00 2062.00 L 764.00 2061.00 L 744.00 2061.00 L 724.00 2060.00 L 684.00 2060.00 L 664.00 2059.00 L 644.00 2059.00 L 624.00 2058.00 L 584.00 2058.00 L 564.00 2057.00 L 544.00 2057.00 L 524.00 2056.00 Z" />
<path id="csg562-017-13" fill="none" stroke="black" stroke-width="1" d="M 500.53 2159.00 L 498.00 2172.00 L 426.00 2194.00 L 426.28 2293.86 L 444.00 2285.00 L 464.00 2285.00 L 484.00 2286.00 L 524.00 2286.00 L 544.00 2287.00 L 584.00 2287.00 L 604.00 2288.00 L 644.00 2288.00 L 664.00 2289.00 L 704.00 2289.00 L 724.00 2290.00 L 744.00 2290.00 L 764.00 2291.00 L 804.00 2291.00 L 824.00 2292.00 L 864.00 2292.00 L 884.00 2293.00 L 924.00 2293.00 L 944.00 2294.00 L 984.00 2294.00 L 1004.00 2295.00 L 1024.00 2295.00 L 1044.00 2296.00 L 1084.00 2296.00 L 1104.00 2297.00 L 1144.00 2297.00 L 1164.00 2298.00 L 1204.00 2298.00 L 1224.00 2299.00 L 1264.00 2299.00 L 1284.00 2300.00 L 1304.00 2300.00 L 1324.00 2301.00 L 1364.00 2301.00 L 1384.00 2302.00 L 1424.00 2302.00 L 1444.00 2303.00 L 1484.00 2303.00 L 1504.00 2304.00 L 1544.00 2304.00 L 1564.00 2305.00 L 1584.00 2305.00 L 1604.00 2306.00 L 1644.00 2306.00 L 1664.00 2307.00 L 1704.00 2307.00 L 1724.00 2308.00 L 1764.00 2308.00 L 1784.00 2309.00 L 1824.00 2309.00 L 1844.00 2310.00 L 1864.00 2310.00 L 1884.00 2311.00 L 1924.00 2311.00 L 1944.00 2312.00 L 1984.00 2312.00 L 2004.00 2313.00 L 2044.00 2313.00 L 2064.00 2314.00 L 2104.00 2314.00 L 2124.00 2315.00 L 2144.00 2315.00 L 2164.00 2316.00 L 2204.00 2316.00 L 2224.00 2317.00 L 2264.00 2317.00 L 2284.00 2318.00 L 2324.00 2318.00 L 2344.00 2319.00 L 2384.00 2319.00 L 2404.00 2320.00 L 2424.00 2320.00 L 2444.00 2321.00 L 2484.00 2321.00 L 2504.00 2322.00 L 2505.00 2322.00 L 2504.00 2306.00 L 2570.00 2210.00 L 2573.60 2202.00 L 2544.00 2202.00 L 2524.00 2201.00 L 2504.00 2201.00 L 2484.00 2200.00 L 2444.00 2200.00 L 2424.00 2199.00 L 2404.00 2199.00 L 2384.00 2198.00 L 2364.00 2198.00 L 2344.00 2197.00 L 2304.00 2197.00 L 2284.00 2196.00 L 2264.00 2196.00 L 2244.00 2195.00 L 2204.00 2195.00 L 2184.00 2194.00 L 2164.00 2194.00 L 2144.00 2193.00 L 2124.00 2193.00 L 2104.00 2192.00 L 2064.00 2192.00 L 2044.00 2191.00 L 2024.00 2191.00 L 2004.00 2190.00 L 1964.00 2190.00 L 1944.00 2189.00 L 1924.00 2189.00 L 1904.00 2188.00 L 1884.00 2188.00 L 1864.00 2187.00 L 1824.00 2187.00 L 1804.00 2186.00 L 1784.00 2186.00 L 1764.00 2185.00 L 1724.00 2185.00 L 1704.00 2184.00 L 1684.00 2184.00 L 1664.00 2183.00 L 1644.00 2183.00 L 1624.00 2182.00 L 1584.00 2182.00 L 1564.00 2181.00 L 1544.00 2181.00 L 1524.00 2180.00 L 1504.00 2160.00 L 1484.00 2160.00 L 1464.00 2179.00 L 1444.00 2179.00 L 1424.00 2178.00 L 1404.00 2178.00 L 1384.00 2177.00 L 1344.00 2177.00 L 1324.00 2176.00 L 1304.00 2176.00 L 1284.00 2175.00 L 1244.00 2175.00 L 1224.00 2174.00 L 1204.00 2174.00 L 1184.00 2173.00 L 1164.00 2173.00 L 1144.00 2172.00 L 1104.00 2172.00 L 1084.00 2171.00 L 1064.00 2171.00 L 1044.00 2170.00 L 1004.00 2170.00 L 984.00 2169.00 L 964.00 2169.00 L 944.00 2168.00 L 924.00 2168.00 L 904.00 2167.00 L 864.00 2167.00 L 844.00 2166.00 L 824.00 2166.00 L 804.00 2165.00 L 764.00 2165.00 L 744.00 2164.00 L 724.00 2164.00 L 704.00 2163.00 L 684.00 2163.00 L 664.00 2162.00 L 624.00 2162.00 L 604.00 2161.00 L 584.00 2161.00 L 564.00 2160.00 L 524.00 2160.00 L 504.00 2159.00 Z" />
<path id="csg562-017-14" fill="none" stroke="black" stroke-width="1" d="M 444.00 2285.00 L 426.28 2293.86 L 426.56 2395.72 L 444.00 2387.00 L 484.00 2387.00 L 504.00 2388.00 L 544.00 2388.00 L 564.00 2389.00 L 624.00 2389.00 L 644.00 2390.00 L 684.00 2390.00 L 704.00 2391.00 L 764.00 2391.00 L 784.00 2392.00 L 824.00 2392.00 L 844.00 2393.00 L 884.00 2393.00 L 904.00 2394.00 L 964.00 2394.00 L 984.00 2395.00 L 1024.00 2395.00 L 1044.00 2396.00 L 1104.00 2396.00 L 1124.00 2397.00 L 1164.00 2397.00 L 1184.00 2398.00 L 1224.00 2398.00 L 1244.00 2399.00 L 1304.00 2399.00 L 1324.00 2400.00 L 1364.00 2400.00 L 1384.00 2401.00 L 1444.00 2401.00 L 1464.00 2402.00 L 1504.00 2402.00 L 1524.00 2403.00 L 1564.00 2403.00 L 1584.00 2404.00 L 1644.00 2404.00 L 1664.00 2405.00 L 1704.00 2405.00 L 1724.00 2406.00 L 1784.00 2406.00 L 1804.00 2407.00 L 1844.00 2407.00 L 1864.00 2408.00 L 1904.00 2408.00 L 1924.00 2409.00 L 1984.00 2409.00 L 2004.00 2410.00 L 2044.00 2410.00 L 2064.00 2411.00 L 2124.00 2411.00 L 2144.00 2412.00 L 2184.00 2412.00 L 2204.00 2413.00 L 2244.00 2413.00 L 2264.00 2414.00 L 2324.00 2414.00 L 2344.00 2415.00 L 2384.00 2415.00 L 2404.00 2416.00 L 2464.00 2416.00 L 2484.00 2417.00 L 2510.94 2417.00 L 2505.00 2322.00 L 2504.00 2322.00 L 2484.00 2321.00 L 2444.00 2321.00 L 2424.00 2320.00 L 2404.00 2320.00 L 2384.00 2319.00 L 2344.00 2319.00 L 2324.00 2318.00 L 2284.00 2318.00 L 2264.00 2317.00 L 2224.00 2317.00 L 2204.00 2316.00 L 2164.00 2316.00 L 2144.00 2315.00 L 2124.00 2315.00 L 2104.00 2314.00 L 2064.00 2314.00 L 2044.00 2313.00 L 2004.00 2313.00 L 1984.00 2312.00 L 1944.00 2312.00 L 1924.00 2311.00 L 1884.00 2311.00 L 1864.00 2310.00 L 1844.00 2310.00 L 1824.00 2309.00 L 1784.00 2309.00 L 1764.00 2308.00 L 1724.00 2308.00 L 1704.00 2307.00 L 1664.00 2307.00 L 1644.00 2306.00 L 1604.00 2306.00 L 1584.00 2305.00 L 1564.00 2305.00 L 1544.00 2304.00 L 1504.00 2304.00 L 1484.00 2303.00 L 1444.00 2303.00 L 1424.00 2302.00 L 1384.00 2302.00 L 1364.00 2301.00 L 1324.00 2301.00 L 1304.00 2300.00 L 1284.00 2300.00 L 1264.00 2299.00 L 1224.00 2299.00 L 1204.00 2298.00 L 1164.00 2298.00 L 1144.00 2297.00 L 1104.00 2297.00 L 1084.00 2296.00 L 1044.00 2296.00 L 1024.00 2295.00 L 1004.00 2295.00 L 984.00 2294.00 L 944.00 2294.00 L 924.00 2293.00 L 884.00 2293.00 L 864.00 2292.00 L 824.00 2292.00 L 804.00 2291.00 L 764.00 2291.00 L 744.00 2290.00 L 724.00 2290.00 L 704.00 2289.00 L 664.00 2289.00 L 644.00 2288.00 L 604.00 2288.00 L 584.00 2287.00 L 544.00 2287.00 L 524.00 2286.00 L 484.00 2286.00 L 464.00 2285.00 Z" />
<path id="csg562-017-15" fill="none" stroke="black" stroke-width="1" d="M 444.00 2387.00 L 426.56 2395.72 L 426.87 2508.56 L 444.00 2500.00 L 504.00 2500.00 L 524.00 2501.00 L 604.00 2501.00 L 624.00 2502.00 L 684.00 2502.00 L 704.00 2503.00 L 784.00 2503.00 L 804.00 2504.00 L 844.00 2504.00 L 864.00 2474.00 L 884.00 2458.00 L 904.00 2456.00 L 924.00 2505.00 L 964.00 2505.00 L 984.00 2506.00 L 1064.00 2506.00 L 1084.00 2507.00 L 1144.00 2507.00 L 1164.00 2508.00 L 1244.00 2508.00 L 1264.00 2509.00 L 1344.00 2509.00 L 1364.00 2510.00 L 1424.00 2510.00 L 1444.00 2511.00 L 1524.00 2511.00 L 1544.00 2512.00 L 1604.00 2512.00 L 1624.00 2513.00 L 1704.00 2513.00 L 1724.00 2514.00 L 1804.00 2514.00 L 1824.00 2515.00 L 1884.00 2515.00 L 1904.00 2516.00 L 1984.00 2516.00 L 2004.00 2517.00 L 2064.00 2517.00 L 2084.00 2518.00 L 2164.00 2518.00 L 2184.00 2519.00 L 2264.00 2519.00 L 2284.00 2520.00 L 2344.00 2520.00 L 2364.00 2521.00 L 2444.00 2521.00 L 2464.00 2522.00 L 2517.50 2522.00 L 2510.94 2417.00 L 2484.00 2417.00 L 2464.00 2416.00 L 2404.00 2416.00 L 2384.00 2415.00 L 2344.00 2415.00 L 2324.00 2414.00 L 2264.00 2414.00 L 2244.00 2413.00 L 2204.00 2413.00 L 2184.00 2412.00 L 2144.00 2412.00 L 2124.00 2411.00 L 2064.00 2411.00 L 2044.00 2410.00 L 2004.00 2410.00 L 1984.00 2409.00 L 1924.00 2409.00 L 1904.00 2408.00 L 1864.00 2408.00 L 1844.00 2407.00 L 1804.00 2407.00 L 1784.00 2406.00 L 1724.00 2406.00 L 1704.00 2405.00 L 1664.00 2405.00 L 1644.00 2404.00 L 1584.00 2404.00 L 1564.00 2403.00 L 1524.00 2403.00 L 1504.00 2402.00 L 1464.00 2402.00 L 1444.00 2401.00 L 1384.00 2401.00 L 1364.00 2400.00 L 1324.00 2400.00 L 1304.00 2399.00 L 1244.00 2399.00 L 1224.00 2398.00 L 1184.00 2398.00 L 1164.00 2397.00 L 1124.00 2397.00 L 1104.00 2396.00 L 1044.00 2396.00 L 1024.00 2395.00 L 984.00 2395.00 L 964.00 2394.00 L 904.00 2394.00 L 884.00 2393.00 L 844.00 2393.00 L 824.00 2392.00 L 784.00 2392.00 L 764.00 2391.00 L 704.00 2391.00 L 684.00 2390.00 L 644.00 2390.00 L 624.00 2389.00 L 564.00 2389.00 L 544.00 2388.00 L 504.00 2388.00 L 484.00 2387.00 Z" />
<path id="csg562-017-16" fill="none" stroke="black" stroke-width="1" d="M 904.00 2456.00 L 884.00 2458.00 L 864.00 2474.00 L 844.00 2504.00 L 804.00 2504.00 L 784.00 2503.00 L 704.00 2503.00 L 684.00 2502.00 L 624.00 2502.00 L 604.00 2501.00 L 524.00 2501.00 L 504.00 2500.00 L 444.00 2500.00 L 426.87 2508.56 L 427.17 2617.41 L 444.00 2609.00 L 544.00 2609.00 L 564.00 2610.00 L 664.00 2610.00 L 684.00 2611.00 L 784.00 2611.00 L 804.00 2612.00 L 904.00 2612.00 L 924.00 2613.00 L 1024.00 2613.00 L 1044.00 2614.00 L 1144.00 2614.00 L 1164.00 2615.00 L 1264.00 2615.00 L 1284.00 2616.00 L 1364.00 2616.00 L 1384.00 2596.00 L 1404.00 2597.00 L 1424.00 2597.00 L 1444.00 2617.00 L 1504.00 2617.00 L 1524.00 2618.00 L 1624.00 2618.00 L 1644.00 2619.00 L 1744.00 2619.00 L 1764.00 2620.00 L 1864.00 2620.00 L 1884.00 2621.00 L 1984.00 2621.00 L 2004.00 2622.00 L 2104.00 2622.00 L 2124.00 2623.00 L 2224.00 2623.00 L 2244.00 2624.00 L 2344.00 2624.00 L 2364.00 2625.00 L 2464.00 2625.00 L 2484.00 2626.00 L 2507.38 2626.00 L 2520.00 2562.00 L 2517.50 2522.00 L 2464.00 2522.00 L 2444.00 2521.00 L 2364.00 2521.00 L 2344.00 2520.00 L 2284.00 2520.00 L 2264.00 2519.00 L 2184.00 2519.00 L 2164.00 2518.00 L 2084.00 2518.00 L 2064.00 2517.00 L 2004.00 2517.00 L 1984.00 2516.00 L 1904.00 2516.00 L 1884.00 2515.00 L 1824.00 2515.00 L 1804.00 2514.00 L 1724.00 2514.00 L 1704.00 2513.00 L 1624.00 2513.00 L 1604.00 2512.00 L 1544.00 2512.00 L 1524.00 2511.00 L 1444.00 2511.00 L 1424.00 2510.00 L 1364.00 2510.00 L 1344.00 2509.00 L 1264.00 2509.00 L 1244.00 2508.00 L 1164.00 2508.00 L 1144.00 2507.00 L 1084.00 2507.00 L 1064.00 2506.00 L 984.00 2506.00 L 964.00 2505.00 L 924.00 2505.00 L 904.00 2456.00 Z" />
<path id="csg562-017-17" fill="none" stroke="black" stroke-width="1" d="M 1384.00 2596.00 L 1364.00 2616.00 L 1284.00 2616.00 L 1264.00 2615.00 L 1164.00 2615.00 L 1144.00 2614.00 L 1044.00 2614.00 L 1024.00 2613.00 L 924.00 2613.00 L 904.00 2612.00 L 804.00 2612.00 L 784.00 2611.00 L 684.00 2611.00 L 664.00 2610.00 L 564.00 2610.00 L 544.00 2609.00 L 444.00 2609.00 L 427.17 2617.41 L 427.49 2731.26 L 444.00 2723.00 L 524.00 2723.00 L 544.00 2724.00 L 624.00 2724.00 L 644.00 2725.00 L 724.00 2725.00 L 744.00 2726.00 L 824.00 2726.00 L 844.00 2727.00 L 944.00 2727.00 L 964.00 2728.00 L 1044.00 2728.00 L 1064.00 2729.00 L 1144.00 2729.00 L 1164.00 2730.00 L 1244.00 2730.00 L 1264.00 2731.00 L 1344.00 2731.00 L 1364.00 2732.00 L 1464.00 2732.00 L 1484.00 2733.00 L 1564.00 2733.00 L 1584.00 2734.00 L 1664.00 2734.00 L 1684.00 2735.00 L 1764.00 2735.00 L 1784.00 2736.00 L 1884.00 2736.00 L 1904.00 2737.00 L 1984.00 2737.00 L 2004.00 2738.00 L 2084.00 2738.00 L 2104.00 2739.00 L 2184.00 2739.00 L 2204.00 2740.00 L 2284.00 2740.00 L 2304.00 2741.00 L 2404.00 2741.00 L 2424.00 2742.00 L 2484.51 2742.00 L 2507.38 2626.00 L 2484.00 2626.00 L 2464.00 2625.00 L 2364.00 2625.00 L 2344.00 2624.00 L 2244.00 2624.00 L 2224.00 2623.00 L 2124.00 2623.00 L 2104.00 2622.00 L 2004.00 2622.00 L 1984.00 2621.00 L 1884.00 2621.00 L 1864.00 2620.00 L 1764.00 2620.00 L 1744.00 2619.00 L 1644.00 2619.00 L 1624.00 2618.00 L 1524.00 2618.00 L 1504.00 2617.00 L 1444.00 2617.00 L 1424.00 2597.00 L 1404.00 2597.00 L 1384.00 2596.00 Z" />
<path id="csg562-017-18" fill="none" stroke="black" stroke-width="1" d="M 444.00 2723.00 L 427.49 2731.26 L 427.78 2835.11 L 444.00 2827.00 L 504.00 2827.00 L 524.00 2828.00 L 604.00 2828.00 L 624.00 2829.00 L 704.00 2829.00 L 724.00 2830.00 L 804.00 2830.00 L 824.00 2831.00 L 904.00 2831.00 L 924.00 2832.00 L 1004.00 2832.00 L 1024.00 2833.00 L 1104.00 2833.00 L 1124.00 2834.00 L 1204.00 2834.00 L 1224.00 2835.00 L 1304.00 2835.00 L 1324.00 2836.00 L 1384.00 2836.00 L 1404.00 2837.00 L 1484.00 2837.00 L 1504.00 2838.00 L 1584.00 2838.00 L 1604.00 2839.00 L 1684.00 2839.00 L 1704.00 2840.00 L 1784.00 2840.00 L 1804.00 2841.00 L 1884.00 2841.00 L 1904.00 2842.00 L 1984.00 2842.00 L 2004.00 2843.00 L 2084.00 2843.00 L 2104.00 2844.00 L 2184.00 2844.00 L 2204.00 2845.00 L 2224.00 2865.00 L 2244.00 2845.00 L 2264.00 2845.00 L 2284.00 2846.00 L 2364.00 2846.00 L 2384.00 2847.00 L 2451.00 2847.00 L 2464.00 2846.00 L 2484.51 2742.00 L 2424.00 2742.00 L 2404.00 2741.00 L 2304.00 2741.00 L 2284.00 2740.00 L 2204.00 2740.00 L 2184.00 2739.00 L 2104.00 2739.00 L 2084.00 2738.00 L 2004.00 2738.00 L 1984.00 2737.00 L 1904.00 2737.00 L 1884.00 2736.00 L 1784.00 2736.00 L 1764.00 2735.00 L 1684.00 2735.00 L 1664.00 2734.00 L 1584.00 2734.00 L 1564.00 2733.00 L 1484.00 2733.00 L 1464.00 2732.00 L 1364.00 2732.00 L 1344.00 2731.00 L 1264.00 2731.00 L 1244.00 2730.00 L 1164.00 2730.00 L 1144.00 2729.00 L 1064.00 2729.00 L 1044.00 2728.00 L 964.00 2728.00 L 944.00 2727.00 L 844.00 2727.00 L 824.00 2726.00 L 744.00 2726.00 L 724.00 2725.00 L 644.00 2725.00 L 624.00 2724.00 L 544.00 2724.00 L 524.00 2723.00 Z" />
<path id="csg562-017-19" fill="none" stroke="black" stroke-width="1" d="M 444.00 2827.00 L 427.78 2835.11 L 428.00 2916.00 L 427.55 2939.22 L 444.00 2931.00 L 464.00 2931.00 L 484.00 2932.00 L 524.00 2932.00 L 544.00 2933.00 L 564.00 2933.00 L 584.00 2934.00 L 624.00 2934.00 L 644.00 2935.00 L 684.00 2935.00 L 704.00 2936.00 L 724.00 2936.00 L 744.00 2937.00 L 784.00 2937.00 L 804.00 2938.00 L 844.00 2938.00 L 864.00 2939.00 L 884.00 2939.00 L 904.00 2940.00 L 944.00 2940.00 L 964.00 2941.00 L 1004.00 2941.00 L 1024.00 2942.00 L 1044.00 2942.00 L 1064.00 2943.00 L 1104.00 2943.00 L 1124.00 2944.00 L 1144.00 2944.00 L 1164.00 2945.00 L 1204.00 2945.00 L 1224.00 2946.00 L 1264.00 2946.00 L 1284.00 2947.00 L 1304.00 2947.00 L 1324.00 2948.00 L 1364.00 2948.00 L 1384.00 2949.00 L 1424.00 2949.00 L 1444.00 2950.00 L 1464.00 2950.00 L 1484.00 2951.00 L 1524.00 2951.00 L 1544.00 2952.00 L 1584.00 2952.00 L 1604.00 2953.00 L 1624.00 2953.00 L 1644.00 2954.00 L 1684.00 2954.00 L 1704.00 2955.00 L 1744.00 2955.00 L 1764.00 2956.00 L 1784.00 2956.00 L 1804.00 2957.00 L 1844.00 2957.00 L 1864.00 2958.00 L 1884.00 2958.00 L 1904.00 2959.00 L 1944.00 2959.00 L 1964.00 2960.00 L 2004.00 2960.00 L 2024.00 2961.00 L 2044.00 2961.00 L 2064.00 2962.00 L 2104.00 2962.00 L 2124.00 2963.00 L 2164.00 2963.00 L 2184.00 2964.00 L 2204.00 2964.00 L 2224.00 2965.00 L 2264.00 2965.00 L 2281.60 2965.88 L 2334.00 2856.00 L 2451.00 2847.00 L 2384.00 2847.00 L 2364.00 2846.00 L 2284.00 2846.00 L 2264.00 2845.00 L 2244.00 2845.00 L 2224.00 2865.00 L 2204.00 2845.00 L 2184.00 2844.00 L 2104.00 2844.00 L 2084.00 2843.00 L 2004.00 2843.00 L 1984.00 2842.00 L 1904.00 2842.00 L 1884.00 2841.00 L 1804.00 2841.00 L 1784.00 2840.00 L 1704.00 2840.00 L 1684.00 2839.00 L 1604.00 2839.00 L 1584.00 2838.00 L 1504.00 2838.00 L 1484.00 2837.00 L 1404.00 2837.00 L 1384.00 2836.00 L 1324.00 2836.00 L 1304.00 2835.00 L 1224.00 2835.00 L 1204.00 2834.00 L 1124.00 2834.00 L 1104.00 2833.00 L 1024.00 2833.00 L 1004.00 2832.00 L 924.00 2832.00 L 904.00 2831.00 L 824.00 2831.00 L 804.00 2830.00 L 724.00 2830.00 L 704.00 2829.00 L 624.00 2829.00 L 604.00 2828.00 L 524.00 2828.00 L 504.00 2827.00 Z" />
<path id="csg562-017-20" fill="none" stroke="black" stroke-width="1" d="M 444.00 2931.00 L 427.55 2939.22 L 425.32 3055.34 L 444.00 3046.00 L 464.00 3046.00 L 484.00 3047.00 L 504.00 3047.00 L 524.00 3048.00 L 544.00 3048.00 L 564.00 3049.00 L 584.00 3049.00 L 604.00 3050.00 L 624.00 3050.00 L 644.00 3051.00 L 664.00 3051.00 L 684.00 3052.00 L 704.00 3052.00 L 724.00 3053.00 L 744.00 3053.00 L 764.00 3054.00 L 784.00 3054.00 L 804.00 3055.00 L 824.00 3055.00 L 844.00 3056.00 L 864.00 3056.00 L 884.00 3057.00 L 904.00 3057.00 L 924.00 3058.00 L 944.00 3058.00 L 964.00 3059.00 L 984.00 3059.00 L 1004.00 3060.00 L 1024.00 3060.00 L 1044.00 3061.00 L 1084.00 3061.00 L 1104.00 3062.00 L 1124.00 3062.00 L 1144.00 3063.00 L 1164.00 3063.00 L 1184.00 3064.00 L 1204.00 3064.00 L 1224.00 3065.00 L 1244.00 3065.00 L 1264.00 3066.00 L 1284.00 3066.00 L 1304.00 3067.00 L 1324.00 3067.00 L 1344.00 3068.00 L 1364.00 3068.00 L 1384.00 3069.00 L 1404.00 3069.00 L 1424.00 3070.00 L 1444.00 3070.00 L 1464.00 3071.00 L 1484.00 3071.00 L 1504.00 3072.00 L 1524.00 3072.00 L 1544.00 3073.00 L 1564.00 3073.00 L 1584.00 3074.00 L 1604.00 3074.00 L 1624.00 3075.00 L 1644.00 3075.00 L 1664.00 3076.00 L 1704.00 3076.00 L 1724.00 3077.00 L 1744.00 3077.00 L 1764.00 3078.00 L 1784.00 3078.00 L 1804.00 3059.00 L 1824.00 3059.00 L 1844.00 3040.00 L 1864.00 3040.00 L 1884.00 3081.00 L 1904.00 3081.00 L 1924.00 3082.00 L 1944.00 3082.00 L 1964.00 3083.00 L 1984.00 3083.00 L 2004.00 3084.00 L 2024.00 3084.00 L 2044.00 3085.00 L 2064.00 3085.00 L 2084.00 3086.00 L 2104.00 3086.00 L 2124.00 3087.00 L 2144.00 3087.00 L 2164.00 3088.00 L 2184.00 3088.00 L 2204.00 3089.00 L 2224.00 3089.00 L 2244.00 3090.00 L 2264.00 3090.00 L 2284.00 3091.00 L 2324.00 3091.00 L 2344.00 3092.00 L 2364.00 3092.00 L 2384.00 3093.00 L 2404.00 3093.00 L 2424.00 3094.00 L 2444.00 3094.00 L 2464.00 3095.00 L 2484.00 3095.00 L 2493.66 3095.48 L 2530.00 3044.00 L 2522.78 2970.00 L 2504.00 2970.00 L 2484.00 2969.00 L 2444.00 2969.00 L 2424.00 2968.00 L 2384.00 2968.00 L 2367.56 2967.18 L 2272.00 2986.00 L 2281.60 2965.88 L 2264.00 2965.00 L 2224.00 2965.00 L 2204.00 2964.00 L 2184.00 2964.00 L 2164.00 2963.00 L 2124.00 2963.00 L 2104.00 2962.00 L 2064.00 2962.00 L 2044.00 2961.00 L 2024.00 2961.00 L 2004.00 2960.00 L 1964.00 2960.00 L 1944.00 2959.00 L 1904.00 2959.00 L 1884.00 2958.00 L 1864.00 2958.00 L 1844.00 2957.00 L 1804.00 2957.00 L 1784.00 2956.00 L 1764.00 2956.00 L 1744.00 2955.00 L 1704.00 2955.00 L 1684.00 2954.00 L 1644.00 2954.00 L 1624.00 2953.00 L 1604.00 2953.00 L 1584.00 2952.00 L 1544.00 2952.00 L 1524.00 2951.00 L 1484.00 2951.00 L 1464.00 2950.00 L 1444.00 2950.00 L 1424.00 2949.00 L 1384.00 2949.00 L 1364.00 2948.00 L 1324.00 2948.00 L 1304.00 2947.00 L 1284.00 2947.00 L 1264.00 2946.00 L 1224.00 2946.00 L 1204.00 2945.00 L 1164.00 2945.00 L 1144.00 2944.00 L 1124.00 2944.00 L 1104.00 2943.00 L 1064.00 2943.00 L 1044.00 2942.00 L 1024.00 2942.00 L 1004.00 2941.00 L 964.00 2941.00 L 944.00 2940.00 L 904.00 2940.00 L 884.00 2939.00 L 864.00 2939.00 L 844.00 2938.00 L 804.00 2938.00 L 784.00 2937.00 L 744.00 2937.00 L 724.00 2936.00 L 704.00 2936.00 L 684.00 2935.00 L 644.00 2935.00 L 624.00 2934.00 L 584.00 2934.00 L 564.00 2933.00 L 544.00 2933.00 L 524.00 2932.00 L 484.00 2932.00 L 464.00 2931.00 Z" />
<path id="csg562-017-21" fill="none" stroke="black" stroke-width="1" d="M 1844.00 3040.00 L 1824.00 3059.00 L 1804.00 3059.00 L 1784.00 3078.00 L 1764.00 3078.00 L 1744.00 3077.00 L 1724.00 3077.00 L 1704.00 3076.00 L 1664.00 3076.00 L 1644.00 3075.00 L 1624.00 3075.00 L 1604.00 3074.00 L 1584.00 3074.00 L 1564.00 3073.00 L 1544.00 3073.00 L 1524.00 3072.00 L 1504.00 3072.00 L 1484.00 3071.00 L 1464.00 3071.00 L 1444.00 3070.00 L 1424.00 3070.00 L 1404.00 3069.00 L 1384.00 3069.00 L 1364.00 3068.00 L 1344.00 3068.00 L 1324.00 3067.00 L 1304.00 3067.00 L 1284.00 3066.00 L 1264.00 3066.00 L 1244.00 3065.00 L 1224.00 3065.00 L 1204.00 3064.00 L 1184.00 3064.00 L 1164.00 3063.00 L 1144.00 3063.00 L 1124.00 3062.00 L 1104.00 3062.00 L 1084.00 3061.00 L 1044.00 3061.00 L 1024.00 3060.00 L 1004.00 3060.00 L 984.00 3059.00 L 964.00 3059.00 L 944.00 3058.00 L 924.00 3058.00 L 904.00 3057.00 L 884.00 3057.00 L 864.00 3056.00 L 844.00 3056.00 L 824.00 3055.00 L 804.00 3055.00 L 784.00 3054.00 L 764.00 3054.00 L 744.00 3053.00 L 724.00 3053.00 L 704.00 3052.00 L 684.00 3052.00 L 664.00 3051.00 L 644.00 3051.00 L 624.00 3050.00 L 604.00 3050.00 L 584.00 3049.00 L 564.00 3049.00 L 544.00 3048.00 L 524.00 3048.00 L 504.00 3047.00 L 484.00 3047.00 L 464.00 3046.00 L 444.00 3046.00 L 425.32 3055.34 L 424.00 3124.00 L 424.78 3168.61 L 444.00 3159.00 L 464.00 3159.00 L 484.00 3160.00 L 504.00 3160.00 L 524.00 3161.00 L 544.00 3161.00 L 564.00 3162.00 L 604.00 3162.00 L 624.00 3163.00 L 644.00 3163.00 L 664.00 3164.00 L 684.00 3164.00 L 704.00 3165.00 L 724.00 3165.00 L 744.00 3166.00 L 784.00 3166.00 L 804.00 3167.00 L 824.00 3167.00 L 844.00 3168.00 L 864.00 3168.00 L 884.00 3169.00 L 904.00 3169.00 L 924.00 3170.00 L 964.00 3170.00 L 984.00 3171.00 L 1004.00 3171.00 L 1024.00 3172.00 L 1044.00 3172.00 L 1064.00 3173.00 L 1084.00 3173.00 L 1104.00 3174.00 L 1144.00 3174.00 L 1164.00 3175.00 L 1184.00 3175.00 L 1204.00 3176.00 L 1224.00 3176.00 L 1244.00 3177.00 L 1264.00 3177.00 L 1284.00 3178.00 L 1324.00 3178.00 L 1344.00 3179.00 L 1364.00 3179.00 L 1384.00 3180.00 L 1404.00 3180.00 L 1424.00 3181.00 L 1444.00 3181.00 L 1464.00 3182.00 L 1504.00 3182.00 L 1524.00 3183.00 L 1544.00 3183.00 L 1564.00 3184.00 L 1584.00 3184.00 L 1604.00 3185.00 L 1624.00 3185.00 L 1644.00 3186.00 L 1684.00 3186.00 L 1704.00 3187.00 L 1724.00 3187.00 L 1744.00 3188.00 L 1764.00 3188.00 L 1784.00 3189.00 L 1804.00 3189.00 L 1824.00 3190.00 L 1864.00 3190.00 L 1884.00 3171.00 L 1904.00 3171.00 L 1924.00 3172.00 L 1944.00 3192.00 L 1964.00 3193.00 L 1984.00 3193.00 L 2004.00 3194.00 L 2044.00 3194.00 L 2064.00 3195.00 L 2084.00 3195.00 L 2104.00 3196.00 L 2124.00 3196.00 L 2144.00 3197.00 L 2164.00 3197.00 L 2184.00 3198.00 L 2224.00 3198.00 L 2244.00 3199.00 L 2264.00 3199.00 L 2284.00 3200.00 L 2304.00 3200.00 L 2324.00 3201.00 L 2344.00 3201.00 L 2364.00 3202.00 L 2404.00 3202.00 L 2424.00 3203.00 L 2444.00 3203.00 L 2464.00 3204.00 L 2484.00 3204.00 L 2504.00 3205.00 L 2504.29 3205.00 L 2482.00 3112.00 L 2493.66 3095.48 L 2484.00 3095.00 L 2464.00 3095.00 L 2444.00 3094.00 L 2424.00 3094.00 L 2404.00 3093.00 L 2384.00 3093.00 L 2364.00 3092.00 L 2344.00 3092.00 L 2324.00 3091.00 L 2284.00 3091.00 L 2264.00 3090.00 L 2244.00 3090.00 L 2224.00 3089.00 L 2204.00 3089.00 L 2184.00 3088.00 L 2164.00 3088.00 L 2144.00 3087.00 L 2124.00 3087.00 L 2104.00 3086.00 L 2084.00 3086.00 L 2064.00 3085.00 L 2044.00 3085.00 L 2024.00 3084.00 L 2004.00 3084.00 L 1984.00 3083.00 L 1964.00 3083.00 L 1944.00 3082.00 L 1924.00 3082.00 L 1904.00 3081.00 L 1884.00 3081.00 L 1864.00 3040.00 Z" />
<path id="csg562-017-22" fill="none" stroke="black" stroke-width="1" d="M 444.00 3159.00 L 424.78 3168.61 L 426.80 3283.60 L 444.00 3275.00 L 464.00 3275.00 L 484.00 3276.00 L 524.00 3276.00 L 544.00 3277.00 L 564.00 3277.00 L 584.00 3278.00 L 624.00 3278.00 L 644.00 3279.00 L 664.00 3279.00 L 684.00 3280.00 L 724.00 3280.00 L 744.00 3281.00 L 764.00 3281.00 L 784.00 3282.00 L 824.00 3282.00 L 844.00 3283.00 L 864.00 3283.00 L 884.00 3284.00 L 924.00 3284.00 L 944.00 3285.00 L 964.00 3285.00 L 984.00 3286.00 L 1024.00 3286.00 L 1044.00 3287.00 L 1064.00 3287.00 L 1084.00 3288.00 L 1124.00 3288.00 L 1144.00 3289.00 L 1164.00 3289.00 L 1184.00 3290.00 L 1224.00 3290.00 L 1244.00 3291.00 L 1284.00 3291.00 L 1304.00 3292.00 L 1324.00 3292.00 L 1344.00 3293.00 L 1384.00 3293.00 L 1404.00 3294.00 L 1424.00 3294.00 L 1444.00 3295.00 L 1484.00 3295.00 L 1504.00 3296.00 L 1524.00 3296.00 L 1544.00 3297.00 L 1584.00 3297.00 L 1604.00 3298.00 L 1624.00 3298.00 L 1644.00 3299.00 L 1684.00 3299.00 L 1704.00 3300.00 L 1724.00 3300.00 L 1744.00 3301.00 L 1784.00 3301.00 L 1804.00 3302.00 L 1824.00 3302.00 L 1844.00 3303.00 L 1884.00 3303.00 L 1904.00 3304.00 L 1924.00 3304.00 L 1944.00 3305.00 L 1984.00 3305.00 L 2004.00 3306.00 L 2044.00 3306.00 L 2064.00 3307.00 L 2084.00 3307.00 L 2104.00 3308.00 L 2144.00 3308.00 L 2164.00 3309.00 L 2184.00 3309.00 L 2204.00 3310.00 L 2244.00 3310.00 L 2264.00 3311.00 L 2284.00 3311.00 L 2304.00 3312.00 L 2344.00 3312.00 L 2364.00 3313.00 L 2384.00 3313.00 L 2404.00 3314.00 L 2444.00 3314.00 L 2464.00 3315.00 L 2484.00 3315.00 L 2504.00 3316.00 L 2530.89 3316.00 L 2504.29 3205.00 L 2504.00 3205.00 L 2484.00 3204.00 L 2464.00 3204.00 L 2444.00 3203.00 L 2424.00 3203.00 L 2404.00 3202.00 L 2364.00 3202.00 L 2344.00 3201.00 L 2324.00 3201.00 L 2304.00 3200.00 L 2284.00 3200.00 L 2264.00 3199.00 L 2244.00 3199.00 L 2224.00 3198.00 L 2184.00 3198.00 L 2164.00 3197.00 L 2144.00 3197.00 L 2124.00 3196.00 L 2104.00 3196.00 L 2084.00 3195.00 L 2064.00 3195.00 L 2044.00 3194.00 L 2004.00 3194.00 L 1984.00 3193.00 L 1964.00 3193.00 L 1944.00 3192.00 L 1924.00 3172.00 L 1904.00 3171.00 L 1884.00 3171.00 L 1864.00 3190.00 L 1824.00 3190.00 L 1804.00 3189.00 L 1784.00 3189.00 L 1764.00 3188.00 L 1744.00 3188.00 L 1724.00 3187.00 L 1704.00 3187.00 L 1684.00 3186.00 L 1644.00 3186.00 L 1624.00 3185.00 L 1604.00 3185.00 L 1584.00 3184.00 L 1564.00 3184.00 L 1544.00 3183.00 L 1524.00 3183.00 L 1504.00 3182.00 L 1464.00 3182.00 L 1444.00 3181.00 L 1424.00 3181.00 L 1404.00 3180.00 L 1384.00 3180.00 L 1364.00 3179.00 L 1344.00 3179.00 L 1324.00 3178.00 L 1284.00 3178.00 L 1264.00 3177.00 L 1244.00 3177.00 L 1224.00 3176.00 L 1204.00 3176.00 L 1184.00 3175.00 L 1164.00 3175.00 L 1144.00 3174.00 L 1104.00 3174.00 L 1084.00 3173.00 L 1064.00 3173.00 L 1044.00 3172.00 L 1024.00 3172.00 L 1004.00 3171.00 L 984.00 3171.00 L 964.00 3170.00 L 924.00 3170.00 L 904.00 3169.00 L 884.00 3169.00 L 864.00 3168.00 L 844.00 3168.00 L 824.00 3167.00 L 804.00 3167.00 L 784.00 3166.00 L 744.00 3166.00 L 724.00 3165.00 L 704.00 3165.00 L 684.00 3164.00 L 664.00 3164.00 L 644.00 3163.00 L 624.00 3163.00 L 604.00 3162.00 L 564.00 3162.00 L 544.00 3161.00 L 524.00 3161.00 L 504.00 3160.00 L 484.00 3160.00 L 464.00 3159.00 Z" />
<path id="csg562-017-23" fill="none" stroke="black" stroke-width="1" d="M 444.00 3275.00 L 426.80 3283.60 L 428.63 3387.69 L 444.00 3380.00 L 464.00 3380.00 L 484.00 3381.00 L 504.00 3381.00 L 524.00 3382.00 L 564.00 3382.00 L 584.00 3383.00 L 604.00 3383.00 L 624.00 3384.00 L 644.00 3384.00 L 664.00 3385.00 L 704.00 3385.00 L 724.00 3386.00 L 744.00 3386.00 L 764.00 3387.00 L 784.00 3387.00 L 804.00 3368.00 L 844.00 3368.00 L 864.00 3369.00 L 884.00 3369.00 L 904.00 3390.00 L 924.00 3390.00 L 944.00 3391.00 L 984.00 3391.00 L 1004.00 3392.00 L 1024.00 3392.00 L 1044.00 3393.00 L 1064.00 3393.00 L 1084.00 3394.00 L 1124.00 3394.00 L 1144.00 3395.00 L 1164.00 3395.00 L 1184.00 3396.00 L 1204.00 3396.00 L 1224.00 3397.00 L 1264.00 3397.00 L 1284.00 3398.00 L 1304.00 3398.00 L 1324.00 3399.00 L 1344.00 3399.00 L 1364.00 3400.00 L 1404.00 3400.00 L 1424.00 3401.00 L 1444.00 3401.00 L 1464.00 3402.00 L 1484.00 3402.00 L 1504.00 3403.00 L 1544.00 3403.00 L 1564.00 3404.00 L 1584.00 3404.00 L 1604.00 3405.00 L 1644.00 3405.00 L 1664.00 3406.00 L 1684.00 3406.00 L 1704.00 3407.00 L 1724.00 3407.00 L 1744.00 3408.00 L 1784.00 3408.00 L 1804.00 3409.00 L 1824.00 3409.00 L 1844.00 3410.00 L 1864.00 3410.00 L 1884.00 3411.00 L 1924.00 3411.00 L 1944.00 3412.00 L 1964.00 3412.00 L 1984.00 3413.00 L 2004.00 3413.00 L 2024.00 3414.00 L 2064.00 3414.00 L 2084.00 3415.00 L 2104.00 3415.00 L 2124.00 3416.00 L 2144.00 3416.00 L 2164.00 3417.00 L 2204.00 3417.00 L 2224.00 3418.00 L 2244.00 3418.00 L 2264.00 3419.00 L 2284.00 3419.00 L 2304.00 3420.00 L 2344.00 3420.00 L 2364.00 3421.00 L 2384.00 3421.00 L 2404.00 3422.00 L 2424.00 3422.00 L 2444.00 3423.00 L 2484.00 3423.00 L 2504.00 3424.00 L 2524.00 3424.00 L 2543.69 3424.98 L 2540.00 3354.00 L 2530.89 3316.00 L 2504.00 3316.00 L 2484.00 3315.00 L 2464.00 3315.00 L 2444.00 3314.00 L 2404.00 3314.00 L 2384.00 3313.00 L 2364.00 3313.00 L 2344.00 3312.00 L 2304.00 3312.00 L 2284.00 3311.00 L 2264.00 3311.00 L 2244.00 3310.00 L 2204.00 3310.00 L 2184.00 3309.00 L 2164.00 3309.00 L 2144.00 3308.00 L 2104.00 3308.00 L 2084.00 3307.00 L 2064.00 3307.00 L 2044.00 3306.00 L 2004.00 3306.00 L 1984.00 3305.00 L 1944.00 3305.00 L 1924.00 3304.00 L 1904.00 3304.00 L 1884.00 3303.00 L 1844.00 3303.00 L 1824.00 3302.00 L 1804.00 3302.00 L 1784.00 3301.00 L 1744.00 3301.00 L 1724.00 3300.00 L 1704.00 3300.00 L 1684.00 3299.00 L 1644.00 3299.00 L 1624.00 3298.00 L 1604.00 3298.00 L 1584.00 3297.00 L 1544.00 3297.00 L 1524.00 3296.00 L 1504.00 3296.00 L 1484.00 3295.00 L 1444.00 3295.00 L 1424.00 3294.00 L 1404.00 3294.00 L 1384.00 3293.00 L 1344.00 3293.00 L 1324.00 3292.00 L 1304.00 3292.00 L 1284.00 3291.00 L 1244.00 3291.00 L 1224.00 3290.00 L 1184.00 3290.00 L 1164.00 3289.00 L 1144.00 3289.00 L 1124.00 3288.00 L 1084.00 3288.00 L 1064.00 3287.00 L 1044.00 3287.00 L 1024.00 3286.00 L 984.00 3286.00 L 964.00 3285.00 L 944.00 3285.00 L 924.00 3284.00 L 884.00 3284.00 L 864.00 3283.00 L 844.00 3283.00 L 824.00 3282.00 L 784.00 3282.00 L 764.00 3281.00 L 744.00 3281.00 L 724.00 3280.00 L 684.00 3280.00 L 664.00 3279.00 L 644.00 3279.00 L 624.00 3278.00 L 584.00 3278.00 L 564.00 3277.00 L 544.00 3277.00 L 524.00 3276.00 L 484.00 3276.00 L 464.00 3275.00 Z" />
<path id="csg562-017-24" fill="none" stroke="black" stroke-width="1" d="M 804.00 3368.00 L 784.00 3387.00 L 764.00 3387.00 L 744.00 3386.00 L 724.00 3386.00 L 704.00 3385.00 L 664.00 3385.00 L 644.00 3384.00 L 624.00 3384.00 L 604.00 3383.00 L 584.00 3383.00 L 564.00 3382.00 L 524.00 3382.00 L 504.00 3381.00 L 484.00 3381.00 L 464.00 3380.00 L 444.00 3380.00 L 428.63 3387.69 L 430.00 3466.00 L 780.00 3490.00 L 1218.00 3474.00 L 1284.00 3502.00 L 1328.00 3486.00 L 1921.53 3515.00 L 1947.12 3515.00 L 2024.00 3500.00 L 2548.00 3508.00 L 2543.69 3424.98 L 2524.00 3424.00 L 2504.00 3424.00 L 2484.00 3423.00 L 2444.00 3423.00 L 2424.00 3422.00 L 2404.00 3422.00 L 2384.00 3421.00 L 2364.00 3421.00 L 2344.00 3420.00 L 2304.00 3420.00 L 2284.00 3419.00 L 2264.00 3419.00 L 2244.00 3418.00 L 2224.00 3418.00 L 2204.00 3417.00 L 2164.00 3417.00 L 2144.00 3416.00 L 2124.00 3416.00 L 2104.00 3415.00 L 2084.00 3415.00 L 2064.00 3414.00 L 2024.00 3414.00 L 2004.00 3413.00 L 1984.00 3413.00 L 1964.00 3412.00 L 1944.00 3412.00 L 1924.00 3411.00 L 1884.00 3411.00 L 1864.00 3410.00 L 1844.00 3410.00 L 1824.00 3409.00 L 1804.00 3409.00 L 1784.00 3408.00 L 1744.00 3408.00 L 1724.00 3407.00 L 1704.00 3407.00 L 1684.00 3406.00 L 1664.00 3406.00 L 1644.00 3405.00 L 1604.00 3405.00 L 1584.00 3404.00 L 1564.00 3404.00 L 1544.00 3403.00 L 1504.00 3403.00 L 1484.00 3402.00 L 1464.00 3402.00 L 1444.00 3401.00 L 1424.00 3401.00 L 1404.00 3400.00 L 1364.00 3400.00 L 1344.00 3399.00 L 1324.00 3399.00 L 1304.00 3398.00 L 1284.00 3398.00 L 1264.00 3397.00 L 1224.00 3397.00 L 1204.00 3396.00 L 1184.00 3396.00 L 1164.00 3395.00 L 1144.00 3395.00 L 1124.00 3394.00 L 1084.00 3394.00 L 1064.00 3393.00 L 1044.00 3393.00 L 1024.00 3392.00 L 1004.00 3392.00 L 984.00 3391.00 L 944.00 3391.00 L 924.00 3390.00 L 904.00 3390.00 L 884.00 3369.00 L 864.00 3369.00 L 844.00 3368.00 Z" />
</svg>
