<?xml version="1.0" standalone="no"?>
<!DOCTYPE svg PUBLIC "-//W3C//DTD SVG 1.1//EN" "http://www.w3.org/Graphics/SVG/1.1/DTD/svg11.dtd">
<svg width="46.22222in" height="69.333336in" viewBox="0 0 3328 4992" xmlns="http://www.w3.org/2000/svg" version="1.1">
<path id="csg562-050-01" fill="none" stroke="black" stroke-width="1" d="M 2158.00 814.00 L 1638.00 834.00 L 1233.00 831.00 L 1158.00 852.00 L 1026.00 822.00 L 846.00 852.00 L 843.19 926.00 L 2336.00 926.00 L 2356.00 906.00 L 2376.00 906.00 L 2396.00 926.00 L 2476.00 926.00 L 2496.00 927.00 L 2756.00 927.00 L 2776.00 947.00 L 2796.00 927.00 L 2944.90 927.00 L 2934.00 861.00 L 2286.00 840.00 L 2187.78 814.00 Z" />
<path id="csg562-050-02" fill="none" stroke="black" stroke-width="1" d="M 2356.00 906.00 L 2336.00 926.00 L 843.19 926.00 L 838.59 1047.00 L 1156.00 1047.00 L 1176.00 1048.00 L 1516.00 1048.00 L 1536.00 1049.00 L 1876.00 1049.00 L 1896.00 1050.00 L 2216.00 1050.00 L 2236.00 1051.00 L 2576.00 1051.00 L 2596.00 1052.00 L 2936.00 1052.00 L 2956.00 1053.00 L 2965.71 1053.00 L 2944.90 927.00 L 2796.00 927.00 L 2776.00 947.00 L 2756.00 927.00 L 2496.00 927.00 L 2476.00 926.00 L 2396.00 926.00 L 2376.00 906.00 Z" />
<path id="csg562-050-03" fill="none" stroke="black" stroke-width="1" d="M 838.59 1047.00 L 834.50 1154.75 L 836.00 1154.00 L 1636.00 1154.00 L 1656.00 1155.00 L 1676.00 1135.00 L 1696.00 1135.00 L 1716.00 1155.00 L 2456.00 1155.00 L 2476.00 1156.00 L 2982.72 1156.00 L 2965.71 1053.00 L 2956.00 1053.00 L 2936.00 1052.00 L 2596.00 1052.00 L 2576.00 1051.00 L 2236.00 1051.00 L 2216.00 1050.00 L 1896.00 1050.00 L 1876.00 1049.00 L 1536.00 1049.00 L 1516.00 1048.00 L 1176.00 1048.00 L 1156.00 1047.00 Z" />
<path id="csg562-050-04" fill="none" stroke="black" stroke-width="1" d="M 1676.00 1135.00 L 1656.00 1155.00 L 1636.00 1154.00 L 836.00 1154.00 L 834.50 1154.75 L 829.82 1278.09 L 836.00 1275.00 L 1036.00 1275.00 L 1056.00 1276.00 L 1256.00 1276.00 L 1276.00 1277.00 L 1476.00 1277.00 L 1496.00 1278.00 L 1696.00 1278.00 L 1716.00 1279.00 L 1936.00 1279.00 L 1956.00 1280.00 L 2156.00 1280.00 L 2176.00 1281.00 L 2376.00 1281.00 L 2396.00 1282.00 L 2596.00 1282.00 L 2616.00 1283.00 L 2816.00 1283.00 L 2836.00 1284.00 L 2921.94 1284.00 L 2922.00 1278.00 L 2988.00 1188.00 L 2982.72 1156.00 L 2476.00 1156.00 L 2456.00 1155.00 L 1716.00 1155.00 L 1696.00 1135.00 Z" />
<path id="csg562-050-05" fill="none" stroke="black" stroke-width="1" d="M 836.00 1275.00 L 829.82 1278.09 L 825.75 1385.12 L 836.00 1380.00 L 856.00 1400.00 L 876.00 1400.00 L 896.00 1380.00 L 1056.00 1380.00 L 1076.00 1381.00 L 1316.00 1381.00 L 1336.00 1382.00 L 1556.00 1382.00 L 1576.00 1383.00 L 1816.00 1383.00 L 1836.00 1384.00 L 2076.00 1384.00 L 2096.00 1385.00 L 2316.00 1385.00 L 2336.00 1386.00 L 2576.00 1386.00 L 2596.00 1387.00 L 2836.00 1387.00 L 2856.00 1388.00 L 2920.96 1388.00 L 2921.94 1284.00 L 2836.00 1284.00 L 2816.00 1283.00 L 2616.00 1283.00 L 2596.00 1282.00 L 2396.00 1282.00 L 2376.00 1281.00 L 2176.00 1281.00 L 2156.00 1280.00 L 1956.00 1280.00 L 1936.00 1279.00 L 1716.00 1279.00 L 1696.00 1278.00 L 1496.00 1278.00 L 1476.00 1277.00 L 1276.00 1277.00 L 1256.00 1276.00 L 1056.00 1276.00 L 1036.00 1275.00 Z" />
<path id="csg562-050-06" fill="none" stroke="black" stroke-width="1" d="M 836.00 1380.00 L 825.75 1385.12 L 821.77 1490.12 L 836.00 1483.00 L 1196.00 1483.00 L 1216.00 1484.00 L 1596.00 1484.00 L 1616.00 1485.00 L 1976.00 1485.00 L 1996.00 1486.00 L 2376.00 1486.00 L 2396.00 1487.00 L 2776.00 1487.00 L 2796.00 1488.00 L 2920.02 1488.00 L 2920.96 1388.00 L 2856.00 1388.00 L 2836.00 1387.00 L 2596.00 1387.00 L 2576.00 1386.00 L 2336.00 1386.00 L 2316.00 1385.00 L 2096.00 1385.00 L 2076.00 1384.00 L 1836.00 1384.00 L 1816.00 1383.00 L 1576.00 1383.00 L 1556.00 1382.00 L 1336.00 1382.00 L 1316.00 1381.00 L 1076.00 1381.00 L 1056.00 1380.00 L 896.00 1380.00 L 876.00 1400.00 L 856.00 1400.00 L 836.00 1380.00 Z" />
<path id="csg562-050-07" fill="none" stroke="black" stroke-width="1" d="M 836.00 1483.00 L 821.77 1490.12 L 819.00 1563.00 L 820.28 1613.86 L 836.00 1606.00 L 1316.00 1606.00 L 1336.00 1607.00 L 1396.00 1607.00 L 1416.00 1627.00 L 1436.00 1607.00 L 1816.00 1607.00 L 1836.00 1608.00 L 2316.00 1608.00 L 2336.00 1609.00 L 2816.00 1609.00 L 2836.00 1610.00 L 2847.60 1610.00 L 2919.00 1596.00 L 2920.02 1488.00 L 2796.00 1488.00 L 2776.00 1487.00 L 2396.00 1487.00 L 2376.00 1486.00 L 1996.00 1486.00 L 1976.00 1485.00 L 1616.00 1485.00 L 1596.00 1484.00 L 1216.00 1484.00 L 1196.00 1483.00 Z" />
<path id="csg562-050-08" fill="none" stroke="black" stroke-width="1" d="M 836.00 1606.00 L 820.28 1613.86 L 822.96 1720.52 L 836.00 1714.00 L 1016.00 1714.00 L 1036.00 1715.00 L 1216.00 1715.00 L 1236.00 1736.00 L 1256.00 1736.00 L 1276.00 1716.00 L 1416.00 1716.00 L 1436.00 1717.00 L 1636.00 1717.00 L 1656.00 1718.00 L 1836.00 1718.00 L 1856.00 1719.00 L 2036.00 1719.00 L 2056.00 1720.00 L 2236.00 1720.00 L 2256.00 1721.00 L 2456.00 1721.00 L 2476.00 1722.00 L 2656.00 1722.00 L 2676.00 1723.00 L 2729.62 1723.00 L 2766.00 1626.00 L 2847.60 1610.00 L 2836.00 1610.00 L 2816.00 1609.00 L 2336.00 1609.00 L 2316.00 1608.00 L 1836.00 1608.00 L 1816.00 1607.00 L 1436.00 1607.00 L 1416.00 1627.00 L 1396.00 1607.00 L 1336.00 1607.00 L 1316.00 1606.00 Z" />
<path id="csg562-050-09" fill="none" stroke="black" stroke-width="1" d="M 836.00 1714.00 L 822.96 1720.52 L 825.94 1839.03 L 836.00 1834.00 L 2316.00 1834.00 L 2336.00 1835.00 L 2836.00 1835.00 L 2856.00 1855.00 L 2876.00 1835.00 L 2881.00 1835.00 L 2904.00 1812.00 L 2823.00 1728.00 L 2721.00 1746.00 L 2729.62 1723.00 L 2676.00 1723.00 L 2656.00 1722.00 L 2476.00 1722.00 L 2456.00 1721.00 L 2256.00 1721.00 L 2236.00 1720.00 L 2056.00 1720.00 L 2036.00 1719.00 L 1856.00 1719.00 L 1836.00 1718.00 L 1656.00 1718.00 L 1636.00 1717.00 L 1436.00 1717.00 L 1416.00 1716.00 L 1276.00 1716.00 L 1256.00 1736.00 L 1236.00 1736.00 L 1216.00 1715.00 L 1036.00 1715.00 L 1016.00 1714.00 Z" />
<path id="csg562-050-10" fill="none" stroke="black" stroke-width="1" d="M 836.00 1834.00 L 825.94 1839.03 L 828.81 1952.95 L 836.00 1949.00 L 1596.00 1949.00 L 1616.00 1948.00 L 2376.00 1948.00 L 2396.00 1947.00 L 2868.27 1947.00 L 2847.00 1869.00 L 2881.00 1835.00 L 2876.00 1835.00 L 2856.00 1855.00 L 2836.00 1835.00 L 2336.00 1835.00 L 2316.00 1834.00 Z" />
<path id="csg562-050-11" fill="none" stroke="black" stroke-width="1" d="M 2396.00 1947.00 L 2376.00 1948.00 L 1616.00 1948.00 L 1596.00 1949.00 L 836.00 1949.00 L 828.81 1952.95 L 831.00 2040.00 L 830.64 2060.68 L 836.00 2058.00 L 2056.00 2058.00 L 2076.00 2038.00 L 2096.00 2058.00 L 2855.56 2058.00 L 2883.00 2001.00 L 2868.27 1947.00 Z" />
<path id="csg562-050-12" fill="none" stroke="black" stroke-width="1" d="M 2076.00 2038.00 L 2056.00 2058.00 L 836.00 2058.00 L 830.64 2060.68 L 828.89 2161.56 L 836.00 2158.00 L 1516.00 2158.00 L 1536.00 2138.00 L 1556.00 2138.00 L 1576.00 2158.00 L 1636.00 2158.00 L 1656.00 2178.00 L 1676.00 2158.00 L 2096.00 2158.00 L 2116.00 2178.00 L 2136.00 2158.00 L 2516.00 2158.00 L 2536.00 2159.00 L 2882.98 2159.00 L 2844.00 2082.00 L 2855.56 2058.00 L 2096.00 2058.00 L 2076.00 2038.00 Z" />
<path id="csg562-050-13" fill="none" stroke="black" stroke-width="1" d="M 1536.00 2138.00 L 1516.00 2158.00 L 836.00 2158.00 L 828.89 2161.56 L 826.86 2278.57 L 836.00 2274.00 L 856.00 2294.00 L 876.00 2294.00 L 896.00 2274.00 L 1036.00 2274.00 L 1056.00 2294.00 L 1076.00 2274.00 L 2156.00 2274.00 L 2176.00 2254.00 L 2196.00 2274.00 L 2376.00 2274.00 L 2396.00 2275.00 L 2941.69 2275.00 L 2882.98 2159.00 L 2536.00 2159.00 L 2516.00 2158.00 L 2136.00 2158.00 L 2116.00 2178.00 L 2096.00 2158.00 L 1676.00 2158.00 L 1656.00 2178.00 L 1636.00 2158.00 L 1576.00 2158.00 L 1556.00 2138.00 Z" />
<path id="csg562-050-14" fill="none" stroke="black" stroke-width="1" d="M 2176.00 2254.00 L 2156.00 2274.00 L 1076.00 2274.00 L 1056.00 2294.00 L 1036.00 2274.00 L 896.00 2274.00 L 876.00 2294.00 L 856.00 2294.00 L 836.00 2274.00 L 826.86 2278.57 L 824.90 2391.10 L 836.00 2385.00 L 2276.00 2385.00 L 2296.00 2384.00 L 2941.46 2384.00 L 2967.00 2325.00 L 2941.69 2275.00 L 2396.00 2275.00 L 2376.00 2274.00 L 2196.00 2274.00 L 2176.00 2254.00 Z" />
<path id="csg562-050-15" fill="none" stroke="black" stroke-width="1" d="M 2296.00 2384.00 L 2276.00 2385.00 L 836.00 2385.00 L 824.90 2391.10 L 823.03 2499.13 L 823.03 2499.13 L 836.00 2492.00 L 1436.00 2492.00 L 1456.00 2491.00 L 1516.00 2491.00 L 1536.00 2471.00 L 1556.00 2471.00 L 1576.00 2491.00 L 2056.00 2491.00 L 2076.00 2490.00 L 2676.00 2490.00 L 2696.00 2489.00 L 2896.01 2489.00 L 2941.46 2384.00 Z" />
<path id="csg562-050-16" fill="none" stroke="black" stroke-width="1" d="M 1536.00 2471.00 L 1516.00 2491.00 L 1456.00 2491.00 L 1436.00 2492.00 L 836.00 2492.00 L 823.03 2499.13 L 820.89 2622.31 L 820.89 2622.31 L 836.00 2614.00 L 1176.00 2614.00 L 1196.00 2613.00 L 1556.00 2613.00 L 1576.00 2612.00 L 1916.00 2612.00 L 1936.00 2611.00 L 2296.00 2611.00 L 2316.00 2610.00 L 2576.00 2610.00 L 2596.00 2630.00 L 2616.00 2610.00 L 2656.00 2610.00 L 2676.00 2609.00 L 2905.34 2609.00 L 2880.00 2526.00 L 2896.01 2489.00 L 2696.00 2489.00 L 2676.00 2490.00 L 2076.00 2490.00 L 2056.00 2491.00 L 1576.00 2491.00 L 1556.00 2471.00 Z" />
<path id="csg562-050-17" fill="none" stroke="black" stroke-width="1" d="M 2676.00 2609.00 L 2656.00 2610.00 L 2616.00 2610.00 L 2596.00 2630.00 L 2576.00 2610.00 L 2316.00 2610.00 L 2296.00 2611.00 L 1936.00 2611.00 L 1916.00 2612.00 L 1576.00 2612.00 L 1556.00 2613.00 L 1196.00 2613.00 L 1176.00 2614.00 L 836.00 2614.00 L 820.89 2622.31 L 818.94 2734.53 L 836.00 2726.00 L 916.00 2726.00 L 936.00 2727.00 L 1036.00 2727.00 L 1056.00 2728.00 L 1156.00 2728.00 L 1176.00 2729.00 L 1256.00 2729.00 L 1276.00 2730.00 L 1376.00 2730.00 L 1396.00 2731.00 L 1496.00 2731.00 L 1516.00 2732.00 L 1596.00 2732.00 L 1616.00 2733.00 L 1716.00 2733.00 L 1736.00 2734.00 L 1836.00 2734.00 L 1856.00 2735.00 L 1956.00 2735.00 L 1976.00 2736.00 L 2056.00 2736.00 L 2059.72 2736.19 L 2055.00 2721.00 L 2211.00 2694.00 L 2222.65 2738.00 L 2296.00 2738.00 L 2316.00 2739.00 L 2396.00 2739.00 L 2416.00 2740.00 L 2516.00 2740.00 L 2536.00 2741.00 L 2636.00 2741.00 L 2656.00 2742.00 L 2756.00 2742.00 L 2776.00 2743.00 L 2856.00 2743.00 L 2876.00 2744.00 L 2946.55 2744.00 L 2905.34 2609.00 Z" />
<path id="csg562-050-18" fill="none" stroke="black" stroke-width="1" d="M 836.00 2726.00 L 818.94 2734.53 L 817.14 2838.43 L 836.00 2829.00 L 1196.00 2829.00 L 1216.00 2830.00 L 1596.00 2830.00 L 1616.00 2831.00 L 1996.00 2831.00 L 2016.00 2832.00 L 2089.53 2832.00 L 2059.72 2736.19 L 2056.00 2736.00 L 1976.00 2736.00 L 1956.00 2735.00 L 1856.00 2735.00 L 1836.00 2734.00 L 1736.00 2734.00 L 1716.00 2733.00 L 1616.00 2733.00 L 1596.00 2732.00 L 1516.00 2732.00 L 1496.00 2731.00 L 1396.00 2731.00 L 1376.00 2730.00 L 1276.00 2730.00 L 1256.00 2729.00 L 1176.00 2729.00 L 1156.00 2728.00 L 1056.00 2728.00 L 1036.00 2727.00 L 936.00 2727.00 L 916.00 2726.00 Z" />
<path id="csg562-050-19" fill="none" stroke="black" stroke-width="1" d="M 836.00 2829.00 L 817.14 2838.43 L 816.00 2904.00 L 817.02 2955.49 L 836.00 2946.00 L 1096.00 2946.00 L 1116.00 2947.00 L 1396.00 2947.00 L 1416.00 2948.00 L 1696.00 2948.00 L 1716.00 2949.00 L 1996.00 2949.00 L 2016.00 2950.00 L 2296.00 2950.00 L 2316.00 2951.00 L 2596.00 2951.00 L 2616.00 2952.00 L 2896.00 2952.00 L 2916.00 2953.00 L 2960.49 2953.00 L 2958.00 2847.00 L 2622.00 2853.00 L 2367.00 2868.00 L 2097.00 2856.00 L 2089.53 2832.00 L 2016.00 2832.00 L 1996.00 2831.00 L 1616.00 2831.00 L 1596.00 2830.00 L 1216.00 2830.00 L 1196.00 2829.00 Z" />
<path id="csg562-050-20" fill="none" stroke="black" stroke-width="1" d="M 836.00 2946.00 L 817.02 2955.49 L 819.15 3062.27 L 836.00 3053.00 L 856.00 3073.00 L 876.00 3053.00 L 1056.00 3053.00 L 1076.00 3052.00 L 1316.00 3052.00 L 1336.00 3051.00 L 1356.00 3051.00 L 1376.00 3071.00 L 1396.00 3051.00 L 1576.00 3051.00 L 1596.00 3050.00 L 1816.00 3050.00 L 1836.00 3049.00 L 2076.00 3049.00 L 2096.00 3048.00 L 2176.00 3048.00 L 2196.00 3068.00 L 2216.00 3068.00 L 2236.00 3048.00 L 2336.00 3048.00 L 2356.00 3047.00 L 2496.00 3047.00 L 2516.00 3067.00 L 2536.00 3067.00 L 2556.00 3047.00 L 2576.00 3047.00 L 2596.00 3046.00 L 2616.00 3026.00 L 2636.00 3026.00 L 2656.00 3046.00 L 2836.00 3046.00 L 2856.00 3045.00 L 2962.66 3045.00 L 2960.49 2953.00 L 2916.00 2953.00 L 2896.00 2952.00 L 2616.00 2952.00 L 2596.00 2951.00 L 2316.00 2951.00 L 2296.00 2950.00 L 2016.00 2950.00 L 1996.00 2949.00 L 1716.00 2949.00 L 1696.00 2948.00 L 1416.00 2948.00 L 1396.00 2947.00 L 1116.00 2947.00 L 1096.00 2946.00 Z" />
<path id="csg562-050-21" fill="none" stroke="black" stroke-width="1" d="M 2616.00 3026.00 L 2596.00 3046.00 L 2576.00 3047.00 L 2556.00 3047.00 L 2536.00 3067.00 L 2516.00 3067.00 L 2496.00 3047.00 L 2356.00 3047.00 L 2336.00 3048.00 L 2236.00 3048.00 L 2216.00 3068.00 L 2196.00 3068.00 L 2176.00 3048.00 L 2096.00 3048.00 L 2076.00 3049.00 L 1836.00 3049.00 L 1816.00 3050.00 L 1596.00 3050.00 L 1576.00 3051.00 L 1396.00 3051.00 L 1376.00 3071.00 L 1356.00 3051.00 L 1336.00 3051.00 L 1316.00 3052.00 L 1076.00 3052.00 L 1056.00 3053.00 L 876.00 3053.00 L 856.00 3073.00 L 836.00 3053.00 L 819.15 3062.27 L 821.36 3173.32 L 836.00 3166.00 L 2939.66 3166.00 L 2964.00 3102.00 L 2962.66 3045.00 L 2856.00 3045.00 L 2836.00 3046.00 L 2656.00 3046.00 L 2636.00 3026.00 Z" />
<path id="csg562-050-22" fill="none" stroke="black" stroke-width="1" d="M 836.00 3166.00 L 821.36 3173.32 L 823.53 3282.24 L 836.00 3276.00 L 1056.00 3276.00 L 1076.00 3277.00 L 1316.00 3277.00 L 1336.00 3278.00 L 1556.00 3278.00 L 1576.00 3279.00 L 1816.00 3279.00 L 1836.00 3280.00 L 2076.00 3280.00 L 2096.00 3281.00 L 2316.00 3281.00 L 2336.00 3282.00 L 2576.00 3282.00 L 2596.00 3283.00 L 2816.00 3283.00 L 2836.00 3284.00 L 2894.79 3284.00 L 2939.66 3166.00 Z" />
<path id="csg562-050-23" fill="none" stroke="black" stroke-width="1" d="M 836.00 3276.00 L 823.53 3282.24 L 825.67 3390.16 L 836.00 3385.00 L 1176.00 3385.00 L 1196.00 3406.00 L 1216.00 3386.00 L 1556.00 3386.00 L 1576.00 3387.00 L 1736.00 3387.00 L 1756.00 3420.00 L 1776.00 3426.00 L 1796.00 3416.00 L 1816.00 3367.00 L 1856.00 3367.00 L 1876.00 3387.00 L 1936.00 3387.00 L 1956.00 3388.00 L 2316.00 3388.00 L 2336.00 3389.00 L 2356.00 3409.00 L 2376.00 3389.00 L 2696.00 3389.00 L 2716.00 3390.00 L 2756.00 3390.00 L 2776.00 3410.00 L 2836.00 3410.00 L 2856.00 3390.00 L 2895.69 3390.00 L 2883.00 3315.00 L 2894.79 3284.00 L 2836.00 3284.00 L 2816.00 3283.00 L 2596.00 3283.00 L 2576.00 3282.00 L 2336.00 3282.00 L 2316.00 3281.00 L 2096.00 3281.00 L 2076.00 3280.00 L 1836.00 3280.00 L 1816.00 3279.00 L 1576.00 3279.00 L 1556.00 3278.00 L 1336.00 3278.00 L 1316.00 3277.00 L 1076.00 3277.00 L 1056.00 3276.00 Z" />
<path id="csg562-050-24" fill="none" stroke="black" stroke-width="1" d="M 1816.00 3367.00 L 1796.00 3416.00 L 1776.00 3426.00 L 1756.00 3420.00 L 1736.00 3387.00 L 1576.00 3387.00 L 1556.00 3386.00 L 1216.00 3386.00 L 1196.00 3406.00 L 1176.00 3385.00 L 836.00 3385.00 L 825.67 3390.16 L 827.84 3499.08 L 836.00 3495.00 L 1176.00 3495.00 L 1196.00 3496.00 L 1556.00 3496.00 L 1576.00 3497.00 L 1936.00 3497.00 L 1956.00 3498.00 L 2316.00 3498.00 L 2336.00 3499.00 L 2456.00 3499.00 L 2470.70 3506.35 L 2481.13 3506.44 L 2496.00 3499.00 L 2616.00 3499.00 L 2633.37 3507.68 L 2638.55 3507.73 L 2656.00 3499.00 L 2696.00 3499.00 L 2716.00 3500.00 L 2914.31 3500.00 L 2895.69 3390.00 L 2856.00 3390.00 L 2836.00 3410.00 L 2776.00 3410.00 L 2756.00 3390.00 L 2716.00 3390.00 L 2696.00 3389.00 L 2376.00 3389.00 L 2356.00 3409.00 L 2336.00 3389.00 L 2316.00 3388.00 L 1956.00 3388.00 L 1936.00 3387.00 L 1876.00 3387.00 L 1856.00 3367.00 Z" />
</svg>
