<?xml version="1.0" standalone="no"?>
<!DOCTYPE svg PUBLIC "-//W3C//DTD SVG 1.1//EN" "http://www.w3.org/Graphics/SVG/1.1/DTD/svg11.dtd">
<svg width="46.22222in" height="69.333336in" viewBox="0 0 3328 4992" xmlns="http://www.w3.org/2000/svg" version="1.1">
<path id="csg562-056-01" fill="none" stroke="black" stroke-width="1" d="M 2694.00 824.00 L 2116.00 832.00 L 1622.00 838.00 L 1062.00 836.00 L 824.00 868.00 L 827.05 939.32 L 844.00 930.00 L 904.00 930.00 L 924.00 929.00 L 984.00 929.00 L 1004.00 928.00 L 1064.00 928.00 L 1084.00 927.00 L 1144.00 927.00 L 1164.00 926.00 L 1224.00 926.00 L 1244.00 925.00 L 1304.00 925.00 L 1324.00 924.00 L 1384.00 924.00 L 1404.00 923.00 L 1464.00 923.00 L 1484.00 922.00 L 1544.00 922.00 L 1564.00 921.00 L 1624.00 921.00 L 1644.00 920.00 L 1724.00 920.00 L 1744.00 919.00 L 1804.00 919.00 L 1824.00 918.00 L 1884.00 918.00 L 1904.00 917.00 L 1964.00 917.00 L 1984.00 916.00 L 2044.00 916.00 L 2064.00 915.00 L 2084.00 935.00 L 2104.00 915.00 L 2124.00 915.00 L 2144.00 914.00 L 2204.00 914.00 L 2224.00 913.00 L 2284.00 913.00 L 2304.00 912.00 L 2364.00 912.00 L 2384.00 911.00 L 2444.00 911.00 L 2464.00 910.00 L 2524.00 910.00 L 2544.00 909.00 L 2564.00 909.00 L 2584.00 894.00 L 2604.00 906.00 L 2644.00 906.00 L 2664.00 908.00 L 2704.00 908.00 L 2724.00 907.00 L 2784.00 907.00 L 2804.00 906.00 L 2864.00 906.00 L 2884.00 905.00 L 2904.46 905.00 L 2896.00 832.00 L 2694.00 824.00 Z" />
<path id="csg562-056-02" fill="none" stroke="black" stroke-width="1" d="M 2584.00 894.00 L 2564.00 909.00 L 2544.00 909.00 L 2524.00 910.00 L 2464.00 910.00 L 2444.00 911.00 L 2384.00 911.00 L 2364.00 912.00 L 2304.00 912.00 L 2284.00 913.00 L 2224.00 913.00 L 2204.00 914.00 L 2144.00 914.00 L 2124.00 915.00 L 2104.00 915.00 L 2084.00 935.00 L 2064.00 915.00 L 2044.00 916.00 L 1984.00 916.00 L 1964.00 917.00 L 1904.00 917.00 L 1884.00 918.00 L 1824.00 918.00 L 1804.00 919.00 L 1744.00 919.00 L 1724.00 920.00 L 1644.00 920.00 L 1624.00 921.00 L 1564.00 921.00 L 1544.00 922.00 L 1484.00 922.00 L 1464.00 923.00 L 1404.00 923.00 L 1384.00 924.00 L 1324.00 924.00 L 1304.00 925.00 L 1244.00 925.00 L 1224.00 926.00 L 1164.00 926.00 L 1144.00 927.00 L 1084.00 927.00 L 1064.00 928.00 L 1004.00 928.00 L 984.00 929.00 L 924.00 929.00 L 904.00 930.00 L 844.00 930.00 L 827.05 939.32 L 832.07 1056.56 L 844.00 1050.00 L 904.00 1050.00 L 924.00 1049.00 L 1004.00 1049.00 L 1024.00 1048.00 L 1104.00 1048.00 L 1124.00 1047.00 L 1204.00 1047.00 L 1224.00 1046.00 L 1304.00 1046.00 L 1324.00 1045.00 L 1404.00 1045.00 L 1424.00 1044.00 L 1504.00 1044.00 L 1524.00 1043.00 L 1604.00 1043.00 L 1624.00 1042.00 L 1704.00 1042.00 L 1724.00 1041.00 L 1804.00 1041.00 L 1824.00 1040.00 L 1904.00 1040.00 L 1924.00 1039.00 L 1984.00 1039.00 L 2004.00 1038.00 L 2084.00 1038.00 L 2104.00 1037.00 L 2184.00 1037.00 L 2204.00 1036.00 L 2284.00 1036.00 L 2304.00 1035.00 L 2384.00 1035.00 L 2404.00 1034.00 L 2484.00 1034.00 L 2504.00 1033.00 L 2584.00 1033.00 L 2604.00 1032.00 L 2684.00 1032.00 L 2704.00 1031.00 L 2784.00 1031.00 L 2804.00 1030.00 L 2884.00 1030.00 L 2904.00 1029.00 L 2918.84 1029.00 L 2904.46 905.00 L 2884.00 905.00 L 2864.00 906.00 L 2804.00 906.00 L 2784.00 907.00 L 2724.00 907.00 L 2704.00 908.00 L 2664.00 908.00 L 2644.00 906.00 L 2604.00 906.00 L 2584.00 894.00 Z" />
<path id="csg562-056-03" fill="none" stroke="black" stroke-width="1" d="M 2904.00 1029.00 L 2884.00 1030.00 L 2804.00 1030.00 L 2784.00 1031.00 L 2704.00 1031.00 L 2684.00 1032.00 L 2604.00 1032.00 L 2584.00 1033.00 L 2504.00 1033.00 L 2484.00 1034.00 L 2404.00 1034.00 L 2384.00 1035.00 L 2304.00 1035.00 L 2284.00 1036.00 L 2204.00 1036.00 L 2184.00 1037.00 L 2104.00 1037.00 L 2084.00 1038.00 L 2004.00 1038.00 L 1984.00 1039.00 L 1924.00 1039.00 L 1904.00 1040.00 L 1824.00 1040.00 L 1804.00 1041.00 L 1724.00 1041.00 L 1704.00 1042.00 L 1624.00 1042.00 L 1604.00 1043.00 L 1524.00 1043.00 L 1504.00 1044.00 L 1424.00 1044.00 L 1404.00 1045.00 L 1324.00 1045.00 L 1304.00 1046.00 L 1224.00 1046.00 L 1204.00 1047.00 L 1124.00 1047.00 L 1104.00 1048.00 L 1024.00 1048.00 L 1004.00 1049.00 L 924.00 1049.00 L 904.00 1050.00 L 844.00 1050.00 L 832.07 1056.56 L 836.54 1161.10 L 844.00 1157.00 L 904.00 1157.00 L 924.00 1156.00 L 944.00 1176.00 L 964.00 1176.00 L 984.00 1156.00 L 1004.00 1155.00 L 1064.00 1155.00 L 1084.00 1154.00 L 1144.00 1154.00 L 1164.00 1174.00 L 1184.00 1153.00 L 1244.00 1153.00 L 1264.00 1152.00 L 1324.00 1152.00 L 1344.00 1151.00 L 1424.00 1151.00 L 1444.00 1150.00 L 1504.00 1150.00 L 1524.00 1149.00 L 1584.00 1149.00 L 1604.00 1148.00 L 1684.00 1148.00 L 1704.00 1147.00 L 1764.00 1147.00 L 1784.00 1146.00 L 1844.00 1146.00 L 1864.00 1145.00 L 1944.00 1145.00 L 1964.00 1144.00 L 2024.00 1144.00 L 2044.00 1143.00 L 2104.00 1143.00 L 2124.00 1142.00 L 2204.00 1142.00 L 2224.00 1141.00 L 2284.00 1141.00 L 2304.00 1140.00 L 2324.00 1160.00 L 2344.00 1140.00 L 2364.00 1140.00 L 2384.00 1139.00 L 2404.00 1139.00 L 2424.00 1159.00 L 2464.00 1159.00 L 2484.00 1138.00 L 2544.00 1138.00 L 2564.00 1137.00 L 2584.00 1157.00 L 2604.00 1157.00 L 2624.00 1137.00 L 2644.00 1136.00 L 2704.00 1136.00 L 2724.00 1135.00 L 2804.00 1135.00 L 2824.00 1134.00 L 2857.70 1134.00 L 2928.00 1108.00 L 2918.84 1029.00 Z" />
<path id="csg562-056-04" fill="none" stroke="black" stroke-width="1" d="M 2824.00 1134.00 L 2804.00 1135.00 L 2724.00 1135.00 L 2704.00 1136.00 L 2644.00 1136.00 L 2624.00 1137.00 L 2604.00 1157.00 L 2584.00 1157.00 L 2564.00 1137.00 L 2544.00 1138.00 L 2484.00 1138.00 L 2464.00 1159.00 L 2424.00 1159.00 L 2404.00 1139.00 L 2384.00 1139.00 L 2364.00 1140.00 L 2344.00 1140.00 L 2324.00 1160.00 L 2304.00 1140.00 L 2284.00 1141.00 L 2224.00 1141.00 L 2204.00 1142.00 L 2124.00 1142.00 L 2104.00 1143.00 L 2044.00 1143.00 L 2024.00 1144.00 L 1964.00 1144.00 L 1944.00 1145.00 L 1864.00 1145.00 L 1844.00 1146.00 L 1784.00 1146.00 L 1764.00 1147.00 L 1704.00 1147.00 L 1684.00 1148.00 L 1604.00 1148.00 L 1584.00 1149.00 L 1524.00 1149.00 L 1504.00 1150.00 L 1444.00 1150.00 L 1424.00 1151.00 L 1344.00 1151.00 L 1324.00 1152.00 L 1264.00 1152.00 L 1244.00 1153.00 L 1184.00 1153.00 L 1164.00 1174.00 L 1144.00 1154.00 L 1084.00 1154.00 L 1064.00 1155.00 L 1004.00 1155.00 L 984.00 1156.00 L 964.00 1176.00 L 944.00 1176.00 L 924.00 1156.00 L 904.00 1157.00 L 844.00 1157.00 L 836.54 1161.10 L 840.00 1242.00 L 932.00 1252.00 L 1047.00 1259.00 L 1064.00 1259.00 L 1084.00 1239.00 L 1104.00 1258.00 L 1184.00 1258.00 L 1204.00 1257.00 L 1244.00 1257.00 L 1264.00 1237.00 L 1284.00 1257.00 L 1304.00 1256.00 L 1364.00 1256.00 L 1384.00 1255.00 L 1404.00 1255.00 L 1424.00 1235.00 L 1444.00 1255.00 L 1464.00 1255.00 L 1484.00 1254.00 L 1544.00 1254.00 L 1564.00 1253.00 L 1624.00 1253.00 L 1644.00 1233.00 L 1664.00 1232.00 L 1684.00 1232.00 L 1704.00 1252.00 L 1744.00 1252.00 L 1764.00 1251.00 L 1784.00 1251.00 L 1804.00 1231.00 L 1824.00 1251.00 L 1844.00 1250.00 L 1924.00 1250.00 L 1944.00 1249.00 L 1964.00 1249.00 L 1984.00 1229.00 L 2004.00 1229.00 L 2024.00 1248.00 L 2104.00 1248.00 L 2124.00 1247.00 L 2204.00 1247.00 L 2224.00 1246.00 L 2244.00 1246.00 L 2264.00 1226.00 L 2284.00 1246.00 L 2304.00 1245.00 L 2384.00 1245.00 L 2404.00 1244.00 L 2464.00 1244.00 L 2484.00 1243.00 L 2564.00 1243.00 L 2584.00 1222.00 L 2604.00 1262.00 L 2624.00 1242.00 L 2664.00 1242.00 L 2684.00 1241.00 L 2724.00 1241.00 L 2744.00 1261.00 L 2764.00 1260.00 L 2784.00 1260.00 L 2802.31 1241.69 L 2782.00 1162.00 L 2857.70 1134.00 Z" />
<path id="csg562-056-05" fill="none" stroke="black" stroke-width="1" d="M 2844.00 1374.00 L 2498.00 1392.00 L 2234.00 1378.00 L 1834.00 1406.00 L 1736.00 1388.00 L 1346.00 1390.00 L 992.00 1428.00 L 1007.36 1492.00 L 1022.00 1492.00 L 1042.00 1491.00 L 1102.00 1491.00 L 1122.00 1490.00 L 1162.00 1490.00 L 1182.00 1489.00 L 1242.00 1489.00 L 1262.00 1488.00 L 1322.00 1488.00 L 1342.00 1487.00 L 1382.00 1487.00 L 1402.00 1486.00 L 1462.00 1486.00 L 1482.00 1485.00 L 1522.00 1485.00 L 1542.00 1484.00 L 1602.00 1484.00 L 1622.00 1483.00 L 1682.00 1483.00 L 1702.00 1482.00 L 1742.00 1482.00 L 1762.00 1481.00 L 1822.00 1481.00 L 1842.00 1480.00 L 1882.00 1480.00 L 1902.00 1479.00 L 1962.00 1479.00 L 1982.00 1478.00 L 2022.00 1478.00 L 2042.00 1477.00 L 2102.00 1477.00 L 2122.00 1476.00 L 2182.00 1476.00 L 2202.00 1475.00 L 2242.00 1475.00 L 2262.00 1474.00 L 2322.00 1474.00 L 2342.00 1473.00 L 2382.00 1473.00 L 2402.00 1472.00 L 2462.00 1472.00 L 2482.00 1471.00 L 2542.00 1471.00 L 2562.00 1470.00 L 2602.00 1470.00 L 2622.00 1469.00 L 2682.00 1469.00 L 2702.00 1468.00 L 2742.00 1468.00 L 2762.00 1467.00 L 2822.00 1467.00 L 2842.00 1466.00 L 2862.00 1486.00 L 2882.00 1466.00 L 2902.00 1466.00 L 2922.00 1465.00 L 2941.58 1465.00 L 2926.00 1388.00 L 2844.00 1374.00 Z" />
<path id="csg562-056-06" fill="none" stroke="black" stroke-width="1" d="M 2922.00 1465.00 L 2902.00 1466.00 L 2882.00 1466.00 L 2862.00 1486.00 L 2842.00 1466.00 L 2822.00 1467.00 L 2762.00 1467.00 L 2742.00 1468.00 L 2702.00 1468.00 L 2682.00 1469.00 L 2622.00 1469.00 L 2602.00 1470.00 L 2562.00 1470.00 L 2542.00 1471.00 L 2482.00 1471.00 L 2462.00 1472.00 L 2402.00 1472.00 L 2382.00 1473.00 L 2342.00 1473.00 L 2322.00 1474.00 L 2262.00 1474.00 L 2242.00 1475.00 L 2202.00 1475.00 L 2182.00 1476.00 L 2122.00 1476.00 L 2102.00 1477.00 L 2042.00 1477.00 L 2022.00 1478.00 L 1982.00 1478.00 L 1962.00 1479.00 L 1902.00 1479.00 L 1882.00 1480.00 L 1842.00 1480.00 L 1822.00 1481.00 L 1762.00 1481.00 L 1742.00 1482.00 L 1702.00 1482.00 L 1682.00 1483.00 L 1622.00 1483.00 L 1602.00 1484.00 L 1542.00 1484.00 L 1522.00 1485.00 L 1482.00 1485.00 L 1462.00 1486.00 L 1402.00 1486.00 L 1382.00 1487.00 L 1342.00 1487.00 L 1322.00 1488.00 L 1262.00 1488.00 L 1242.00 1489.00 L 1182.00 1489.00 L 1162.00 1490.00 L 1122.00 1490.00 L 1102.00 1491.00 L 1042.00 1491.00 L 1022.00 1492.00 L 1007.36 1492.00 L 1016.00 1528.00 L 852.00 1528.00 L 842.78 1611.00 L 882.00 1611.00 L 902.00 1610.00 L 962.00 1610.00 L 982.00 1609.00 L 1042.00 1609.00 L 1062.00 1608.00 L 1082.00 1608.00 L 1102.00 1628.00 L 1122.00 1608.00 L 1142.00 1607.00 L 1202.00 1607.00 L 1222.00 1606.00 L 1282.00 1606.00 L 1302.00 1605.00 L 1362.00 1605.00 L 1382.00 1604.00 L 1442.00 1604.00 L 1462.00 1603.00 L 1522.00 1603.00 L 1542.00 1602.00 L 1602.00 1602.00 L 1622.00 1601.00 L 1682.00 1601.00 L 1702.00 1600.00 L 1762.00 1600.00 L 1782.00 1599.00 L 1822.00 1599.00 L 1842.00 1619.00 L 1862.00 1598.00 L 1922.00 1598.00 L 1942.00 1597.00 L 2002.00 1597.00 L 2022.00 1596.00 L 2082.00 1596.00 L 2102.00 1595.00 L 2162.00 1595.00 L 2182.00 1594.00 L 2242.00 1594.00 L 2262.00 1593.00 L 2322.00 1593.00 L 2342.00 1592.00 L 2402.00 1592.00 L 2422.00 1591.00 L 2482.00 1591.00 L 2502.00 1590.00 L 2562.00 1590.00 L 2582.00 1589.00 L 2642.00 1589.00 L 2662.00 1588.00 L 2722.00 1588.00 L 2742.00 1587.00 L 2802.00 1587.00 L 2822.00 1586.00 L 2882.00 1586.00 L 2902.00 1585.00 L 2908.30 1585.00 L 2960.00 1556.00 L 2941.58 1465.00 Z" />
<path id="csg562-056-07" fill="none" stroke="black" stroke-width="1" d="M 2902.00 1585.00 L 2882.00 1586.00 L 2822.00 1586.00 L 2802.00 1587.00 L 2742.00 1587.00 L 2722.00 1588.00 L 2662.00 1588.00 L 2642.00 1589.00 L 2582.00 1589.00 L 2562.00 1590.00 L 2502.00 1590.00 L 2482.00 1591.00 L 2422.00 1591.00 L 2402.00 1592.00 L 2342.00 1592.00 L 2322.00 1593.00 L 2262.00 1593.00 L 2242.00 1594.00 L 2182.00 1594.00 L 2162.00 1595.00 L 2102.00 1595.00 L 2082.00 1596.00 L 2022.00 1596.00 L 2002.00 1597.00 L 1942.00 1597.00 L 1922.00 1598.00 L 1862.00 1598.00 L 1842.00 1619.00 L 1822.00 1599.00 L 1782.00 1599.00 L 1762.00 1600.00 L 1702.00 1600.00 L 1682.00 1601.00 L 1622.00 1601.00 L 1602.00 1602.00 L 1542.00 1602.00 L 1522.00 1603.00 L 1462.00 1603.00 L 1442.00 1604.00 L 1382.00 1604.00 L 1362.00 1605.00 L 1302.00 1605.00 L 1282.00 1606.00 L 1222.00 1606.00 L 1202.00 1607.00 L 1142.00 1607.00 L 1122.00 1608.00 L 1102.00 1628.00 L 1082.00 1608.00 L 1062.00 1608.00 L 1042.00 1609.00 L 982.00 1609.00 L 962.00 1610.00 L 902.00 1610.00 L 882.00 1611.00 L 842.78 1611.00 L 830.17 1724.51 L 842.00 1718.00 L 882.00 1718.00 L 902.00 1717.00 L 962.00 1717.00 L 982.00 1716.00 L 1022.00 1716.00 L 1042.00 1715.00 L 1102.00 1715.00 L 1122.00 1714.00 L 1162.00 1714.00 L 1182.00 1713.00 L 1242.00 1713.00 L 1262.00 1712.00 L 1302.00 1712.00 L 1322.00 1711.00 L 1382.00 1711.00 L 1402.00 1710.00 L 1442.00 1710.00 L 1462.00 1709.00 L 1502.00 1709.00 L 1522.00 1729.00 L 1542.00 1728.00 L 1562.00 1708.00 L 1582.00 1708.00 L 1602.00 1707.00 L 1662.00 1707.00 L 1682.00 1706.00 L 1722.00 1706.00 L 1742.00 1705.00 L 1802.00 1705.00 L 1822.00 1704.00 L 1842.00 1724.00 L 1862.00 1704.00 L 1882.00 1704.00 L 1902.00 1703.00 L 1942.00 1703.00 L 1962.00 1702.00 L 2022.00 1702.00 L 2042.00 1701.00 L 2082.00 1701.00 L 2102.00 1700.00 L 2162.00 1700.00 L 2182.00 1699.00 L 2222.00 1699.00 L 2242.00 1698.00 L 2302.00 1698.00 L 2322.00 1697.00 L 2362.00 1697.00 L 2382.00 1696.00 L 2442.00 1696.00 L 2462.00 1695.00 L 2502.00 1695.00 L 2522.00 1694.00 L 2582.00 1694.00 L 2602.00 1693.00 L 2642.00 1693.00 L 2662.00 1692.00 L 2702.00 1692.00 L 2722.00 1712.00 L 2742.00 1711.00 L 2762.00 1691.00 L 2802.00 1691.00 L 2822.00 1690.00 L 2862.00 1690.00 L 2874.13 1689.39 L 2878.00 1602.00 L 2908.30 1585.00 Z" />
<path id="csg562-056-08" fill="none" stroke="black" stroke-width="1" d="M 2874.13 1689.39 L 2862.00 1690.00 L 2822.00 1690.00 L 2802.00 1691.00 L 2762.00 1691.00 L 2742.00 1711.00 L 2722.00 1712.00 L 2702.00 1692.00 L 2662.00 1692.00 L 2642.00 1693.00 L 2602.00 1693.00 L 2582.00 1694.00 L 2522.00 1694.00 L 2502.00 1695.00 L 2462.00 1695.00 L 2442.00 1696.00 L 2382.00 1696.00 L 2362.00 1697.00 L 2322.00 1697.00 L 2302.00 1698.00 L 2242.00 1698.00 L 2222.00 1699.00 L 2182.00 1699.00 L 2162.00 1700.00 L 2102.00 1700.00 L 2082.00 1701.00 L 2042.00 1701.00 L 2022.00 1702.00 L 1962.00 1702.00 L 1942.00 1703.00 L 1902.00 1703.00 L 1882.00 1704.00 L 1862.00 1704.00 L 1842.00 1724.00 L 1822.00 1704.00 L 1802.00 1705.00 L 1742.00 1705.00 L 1722.00 1706.00 L 1682.00 1706.00 L 1662.00 1707.00 L 1602.00 1707.00 L 1582.00 1708.00 L 1562.00 1708.00 L 1542.00 1728.00 L 1522.00 1729.00 L 1502.00 1709.00 L 1462.00 1709.00 L 1442.00 1710.00 L 1402.00 1710.00 L 1382.00 1711.00 L 1322.00 1711.00 L 1302.00 1712.00 L 1262.00 1712.00 L 1242.00 1713.00 L 1182.00 1713.00 L 1162.00 1714.00 L 1122.00 1714.00 L 1102.00 1715.00 L 1042.00 1715.00 L 1022.00 1716.00 L 982.00 1716.00 L 962.00 1717.00 L 902.00 1717.00 L 882.00 1718.00 L 842.00 1718.00 L 830.17 1724.51 L 822.00 1798.00 L 822.51 1834.72 L 842.00 1824.00 L 882.00 1824.00 L 902.00 1823.00 L 962.00 1823.00 L 982.00 1822.00 L 1022.00 1822.00 L 1042.00 1821.00 L 1102.00 1821.00 L 1122.00 1820.00 L 1162.00 1820.00 L 1182.00 1819.00 L 1242.00 1819.00 L 1262.00 1818.00 L 1322.00 1818.00 L 1342.00 1817.00 L 1382.00 1817.00 L 1402.00 1816.00 L 1462.00 1816.00 L 1482.00 1815.00 L 1522.00 1815.00 L 1542.00 1814.00 L 1602.00 1814.00 L 1622.00 1813.00 L 1662.00 1813.00 L 1682.00 1812.00 L 1742.00 1812.00 L 1762.00 1811.00 L 1822.00 1811.00 L 1842.00 1810.00 L 1882.00 1810.00 L 1902.00 1809.00 L 1962.00 1809.00 L 1982.00 1808.00 L 2022.00 1808.00 L 2042.00 1807.00 L 2102.00 1807.00 L 2122.00 1806.00 L 2162.00 1806.00 L 2182.00 1805.00 L 2242.00 1805.00 L 2262.00 1804.00 L 2322.00 1804.00 L 2342.00 1803.00 L 2382.00 1803.00 L 2402.00 1802.00 L 2462.00 1802.00 L 2482.00 1801.00 L 2522.00 1801.00 L 2542.00 1800.00 L 2602.00 1800.00 L 2622.00 1799.00 L 2662.00 1799.00 L 2682.00 1798.00 L 2742.00 1798.00 L 2762.00 1797.00 L 2822.00 1797.00 L 2842.00 1796.00 L 2869.42 1796.00 L 2874.13 1689.39 Z" />
<path id="csg562-056-09" fill="none" stroke="black" stroke-width="1" d="M 2842.00 1796.00 L 2822.00 1797.00 L 2762.00 1797.00 L 2742.00 1798.00 L 2682.00 1798.00 L 2662.00 1799.00 L 2622.00 1799.00 L 2602.00 1800.00 L 2542.00 1800.00 L 2522.00 1801.00 L 2482.00 1801.00 L 2462.00 1802.00 L 2402.00 1802.00 L 2382.00 1803.00 L 2342.00 1803.00 L 2322.00 1804.00 L 2262.00 1804.00 L 2242.00 1805.00 L 2182.00 1805.00 L 2162.00 1806.00 L 2122.00 1806.00 L 2102.00 1807.00 L 2042.00 1807.00 L 2022.00 1808.00 L 1982.00 1808.00 L 1962.00 1809.00 L 1902.00 1809.00 L 1882.00 1810.00 L 1842.00 1810.00 L 1822.00 1811.00 L 1762.00 1811.00 L 1742.00 1812.00 L 1682.00 1812.00 L 1662.00 1813.00 L 1622.00 1813.00 L 1602.00 1814.00 L 1542.00 1814.00 L 1522.00 1815.00 L 1482.00 1815.00 L 1462.00 1816.00 L 1402.00 1816.00 L 1382.00 1817.00 L 1342.00 1817.00 L 1322.00 1818.00 L 1262.00 1818.00 L 1242.00 1819.00 L 1182.00 1819.00 L 1162.00 1820.00 L 1122.00 1820.00 L 1102.00 1821.00 L 1042.00 1821.00 L 1022.00 1822.00 L 982.00 1822.00 L 962.00 1823.00 L 902.00 1823.00 L 882.00 1824.00 L 842.00 1824.00 L 822.51 1834.72 L 824.12 1950.83 L 842.00 1941.00 L 902.00 1941.00 L 922.00 1940.00 L 1002.00 1940.00 L 1022.00 1939.00 L 1102.00 1939.00 L 1122.00 1958.00 L 1142.00 1938.00 L 1202.00 1938.00 L 1222.00 1937.00 L 1302.00 1937.00 L 1322.00 1936.00 L 1402.00 1936.00 L 1422.00 1935.00 L 1502.00 1935.00 L 1522.00 1934.00 L 1602.00 1934.00 L 1622.00 1933.00 L 1702.00 1933.00 L 1722.00 1932.00 L 1802.00 1932.00 L 1822.00 1931.00 L 1902.00 1931.00 L 1922.00 1930.00 L 2002.00 1930.00 L 2022.00 1929.00 L 2102.00 1929.00 L 2122.00 1928.00 L 2202.00 1928.00 L 2222.00 1927.00 L 2302.00 1927.00 L 2322.00 1926.00 L 2382.00 1926.00 L 2402.00 1925.00 L 2482.00 1925.00 L 2502.00 1924.00 L 2582.00 1924.00 L 2602.00 1923.00 L 2682.00 1923.00 L 2702.00 1922.00 L 2782.00 1922.00 L 2802.00 1921.00 L 2862.00 1921.00 L 2882.00 1941.00 L 2902.00 1940.00 L 2922.00 1940.00 L 2929.73 1932.27 L 2928.00 1866.00 L 2868.00 1828.00 L 2869.42 1796.00 Z" />
<path id="csg562-056-10" fill="none" stroke="black" stroke-width="1" d="M 2802.00 1921.00 L 2782.00 1922.00 L 2702.00 1922.00 L 2682.00 1923.00 L 2602.00 1923.00 L 2582.00 1924.00 L 2502.00 1924.00 L 2482.00 1925.00 L 2402.00 1925.00 L 2382.00 1926.00 L 2322.00 1926.00 L 2302.00 1927.00 L 2222.00 1927.00 L 2202.00 1928.00 L 2122.00 1928.00 L 2102.00 1929.00 L 2022.00 1929.00 L 2002.00 1930.00 L 1922.00 1930.00 L 1902.00 1931.00 L 1822.00 1931.00 L 1802.00 1932.00 L 1722.00 1932.00 L 1702.00 1933.00 L 1622.00 1933.00 L 1602.00 1934.00 L 1522.00 1934.00 L 1502.00 1935.00 L 1422.00 1935.00 L 1402.00 1936.00 L 1322.00 1936.00 L 1302.00 1937.00 L 1222.00 1937.00 L 1202.00 1938.00 L 1142.00 1938.00 L 1122.00 1958.00 L 1102.00 1939.00 L 1022.00 1939.00 L 1002.00 1940.00 L 922.00 1940.00 L 902.00 1941.00 L 842.00 1941.00 L 824.12 1950.83 L 825.58 2056.03 L 842.00 2047.00 L 922.00 2047.00 L 942.00 2046.00 L 1022.00 2046.00 L 1042.00 2045.00 L 1142.00 2045.00 L 1162.00 2044.00 L 1242.00 2044.00 L 1262.00 2043.00 L 1342.00 2043.00 L 1362.00 2042.00 L 1462.00 2042.00 L 1482.00 2041.00 L 1562.00 2041.00 L 1582.00 2040.00 L 1662.00 2040.00 L 1682.00 2039.00 L 1782.00 2039.00 L 1802.00 2038.00 L 1882.00 2038.00 L 1902.00 2037.00 L 1982.00 2037.00 L 2002.00 2036.00 L 2102.00 2036.00 L 2122.00 2035.00 L 2202.00 2035.00 L 2222.00 2034.00 L 2302.00 2034.00 L 2322.00 2033.00 L 2362.00 2033.00 L 2382.00 2013.00 L 2422.00 2013.00 L 2442.00 2032.00 L 2522.00 2032.00 L 2542.00 2031.00 L 2622.00 2031.00 L 2642.00 2030.00 L 2742.00 2030.00 L 2762.00 2029.00 L 2842.00 2029.00 L 2862.00 2028.00 L 2932.24 2028.00 L 2929.73 1932.27 L 2922.00 1940.00 L 2902.00 1940.00 L 2882.00 1941.00 L 2862.00 1921.00 Z" />
<path id="csg562-056-11" fill="none" stroke="black" stroke-width="1" d="M 2382.00 2013.00 L 2362.00 2033.00 L 2322.00 2033.00 L 2302.00 2034.00 L 2222.00 2034.00 L 2202.00 2035.00 L 2122.00 2035.00 L 2102.00 2036.00 L 2002.00 2036.00 L 1982.00 2037.00 L 1902.00 2037.00 L 1882.00 2038.00 L 1802.00 2038.00 L 1782.00 2039.00 L 1682.00 2039.00 L 1662.00 2040.00 L 1582.00 2040.00 L 1562.00 2041.00 L 1482.00 2041.00 L 1462.00 2042.00 L 1362.00 2042.00 L 1342.00 2043.00 L 1262.00 2043.00 L 1242.00 2044.00 L 1162.00 2044.00 L 1142.00 2045.00 L 1042.00 2045.00 L 1022.00 2046.00 L 942.00 2046.00 L 922.00 2047.00 L 842.00 2047.00 L 825.58 2056.03 L 827.24 2175.12 L 842.00 2167.00 L 962.00 2167.00 L 982.00 2166.00 L 1122.00 2166.00 L 1142.00 2165.00 L 1282.00 2165.00 L 1302.00 2164.00 L 1422.00 2164.00 L 1442.00 2163.00 L 1582.00 2163.00 L 1602.00 2162.00 L 1742.00 2162.00 L 1762.00 2161.00 L 1882.00 2161.00 L 1902.00 2160.00 L 2042.00 2160.00 L 2062.00 2159.00 L 2202.00 2159.00 L 2222.00 2158.00 L 2362.00 2158.00 L 2382.00 2157.00 L 2502.00 2157.00 L 2522.00 2156.00 L 2546.00 2156.00 L 2576.00 2150.00 L 2577.43 2156.00 L 2662.00 2156.00 L 2682.00 2155.00 L 2822.00 2155.00 L 2842.00 2154.00 L 2935.53 2154.00 L 2932.24 2028.00 L 2862.00 2028.00 L 2842.00 2029.00 L 2762.00 2029.00 L 2742.00 2030.00 L 2642.00 2030.00 L 2622.00 2031.00 L 2542.00 2031.00 L 2522.00 2032.00 L 2442.00 2032.00 L 2422.00 2013.00 Z" />
<path id="csg562-056-12" fill="none" stroke="black" stroke-width="1" d="M 2522.00 2156.00 L 2502.00 2157.00 L 2382.00 2157.00 L 2362.00 2158.00 L 2222.00 2158.00 L 2202.00 2159.00 L 2062.00 2159.00 L 2042.00 2160.00 L 1902.00 2160.00 L 1882.00 2161.00 L 1762.00 2161.00 L 1742.00 2162.00 L 1602.00 2162.00 L 1582.00 2163.00 L 1442.00 2163.00 L 1422.00 2164.00 L 1302.00 2164.00 L 1282.00 2165.00 L 1142.00 2165.00 L 1122.00 2166.00 L 982.00 2166.00 L 962.00 2167.00 L 842.00 2167.00 L 827.24 2175.12 L 828.69 2279.32 L 842.00 2272.00 L 962.00 2272.00 L 982.00 2271.00 L 1102.00 2271.00 L 1122.00 2270.00 L 1262.00 2270.00 L 1282.00 2269.00 L 1402.00 2269.00 L 1422.00 2268.00 L 1562.00 2268.00 L 1582.00 2267.00 L 1702.00 2267.00 L 1722.00 2266.00 L 1862.00 2266.00 L 1882.00 2265.00 L 1942.00 2265.00 L 1962.00 2245.00 L 2002.00 2245.00 L 2022.00 2264.00 L 2162.00 2264.00 L 2182.00 2263.00 L 2302.00 2263.00 L 2322.00 2262.00 L 2462.00 2262.00 L 2482.00 2261.00 L 2522.39 2261.00 L 2496.00 2166.00 L 2546.00 2156.00 Z" />
<path id="csg562-056-13" fill="none" stroke="black" stroke-width="1" d="M 1962.00 2245.00 L 1942.00 2265.00 L 1882.00 2265.00 L 1862.00 2266.00 L 1722.00 2266.00 L 1702.00 2267.00 L 1582.00 2267.00 L 1562.00 2268.00 L 1422.00 2268.00 L 1402.00 2269.00 L 1282.00 2269.00 L 1262.00 2270.00 L 1122.00 2270.00 L 1102.00 2271.00 L 982.00 2271.00 L 962.00 2272.00 L 842.00 2272.00 L 828.69 2279.32 L 830.27 2393.45 L 842.00 2387.00 L 862.00 2407.00 L 882.00 2387.00 L 922.00 2387.00 L 942.00 2386.00 L 1022.00 2386.00 L 1042.00 2385.00 L 1122.00 2385.00 L 1142.00 2384.00 L 1222.00 2384.00 L 1242.00 2383.00 L 1342.00 2383.00 L 1362.00 2382.00 L 1442.00 2382.00 L 1462.00 2381.00 L 1542.00 2381.00 L 1562.00 2380.00 L 1642.00 2380.00 L 1662.00 2379.00 L 1742.00 2379.00 L 1762.00 2378.00 L 1862.00 2378.00 L 1882.00 2357.00 L 1902.00 2357.00 L 1922.00 2377.00 L 1962.00 2377.00 L 1982.00 2376.00 L 2062.00 2376.00 L 2082.00 2375.00 L 2162.00 2375.00 L 2182.00 2374.00 L 2262.00 2374.00 L 2282.00 2373.00 L 2382.00 2373.00 L 2402.00 2372.00 L 2482.00 2372.00 L 2502.00 2371.00 L 2582.00 2371.00 L 2602.00 2370.00 L 2682.00 2370.00 L 2702.00 2369.00 L 2782.00 2369.00 L 2802.00 2368.00 L 2882.38 2368.00 L 2918.00 2330.00 L 2752.00 2276.00 L 2536.00 2310.00 L 2522.39 2261.00 L 2482.00 2261.00 L 2462.00 2262.00 L 2322.00 2262.00 L 2302.00 2263.00 L 2182.00 2263.00 L 2162.00 2264.00 L 2022.00 2264.00 L 2002.00 2245.00 Z" />
<path id="csg562-056-14" fill="none" stroke="black" stroke-width="1" d="M 1882.00 2357.00 L 1862.00 2378.00 L 1762.00 2378.00 L 1742.00 2379.00 L 1662.00 2379.00 L 1642.00 2380.00 L 1562.00 2380.00 L 1542.00 2381.00 L 1462.00 2381.00 L 1442.00 2382.00 L 1362.00 2382.00 L 1342.00 2383.00 L 1242.00 2383.00 L 1222.00 2384.00 L 1142.00 2384.00 L 1122.00 2385.00 L 1042.00 2385.00 L 1022.00 2386.00 L 942.00 2386.00 L 922.00 2387.00 L 882.00 2387.00 L 862.00 2407.00 L 842.00 2387.00 L 830.27 2393.45 L 831.73 2498.65 L 842.00 2493.00 L 982.00 2493.00 L 1002.00 2492.00 L 1162.00 2492.00 L 1182.00 2491.00 L 1342.00 2491.00 L 1362.00 2490.00 L 1522.00 2490.00 L 1542.00 2489.00 L 1622.00 2489.00 L 1642.00 2469.00 L 1682.00 2469.00 L 1702.00 2489.00 L 1722.00 2488.00 L 1882.00 2488.00 L 1902.00 2487.00 L 2042.00 2487.00 L 2062.00 2486.00 L 2222.00 2486.00 L 2242.00 2485.00 L 2402.00 2485.00 L 2422.00 2484.00 L 2582.00 2484.00 L 2602.00 2483.00 L 2762.00 2483.00 L 2782.00 2482.00 L 2865.86 2482.00 L 2858.00 2394.00 L 2882.38 2368.00 L 2802.00 2368.00 L 2782.00 2369.00 L 2702.00 2369.00 L 2682.00 2370.00 L 2602.00 2370.00 L 2582.00 2371.00 L 2502.00 2371.00 L 2482.00 2372.00 L 2402.00 2372.00 L 2382.00 2373.00 L 2282.00 2373.00 L 2262.00 2374.00 L 2182.00 2374.00 L 2162.00 2375.00 L 2082.00 2375.00 L 2062.00 2376.00 L 1982.00 2376.00 L 1962.00 2377.00 L 1922.00 2377.00 L 1902.00 2357.00 Z" />
<path id="csg562-056-15" fill="none" stroke="black" stroke-width="1" d="M 1642.00 2469.00 L 1622.00 2489.00 L 1542.00 2489.00 L 1522.00 2490.00 L 1362.00 2490.00 L 1342.00 2491.00 L 1182.00 2491.00 L 1162.00 2492.00 L 1002.00 2492.00 L 982.00 2493.00 L 842.00 2493.00 L 831.73 2498.65 L 833.47 2623.69 L 842.00 2619.00 L 1042.00 2619.00 L 1062.00 2618.00 L 1282.00 2618.00 L 1302.00 2617.00 L 1522.00 2617.00 L 1542.00 2616.00 L 1762.00 2616.00 L 1782.00 2615.00 L 2002.00 2615.00 L 2022.00 2614.00 L 2242.00 2614.00 L 2262.00 2613.00 L 2482.00 2613.00 L 2502.00 2612.00 L 2722.00 2612.00 L 2742.00 2611.00 L 2782.00 2611.00 L 2802.00 2591.00 L 2822.00 2611.00 L 2877.38 2611.00 L 2865.86 2482.00 L 2782.00 2482.00 L 2762.00 2483.00 L 2602.00 2483.00 L 2582.00 2484.00 L 2422.00 2484.00 L 2402.00 2485.00 L 2242.00 2485.00 L 2222.00 2486.00 L 2062.00 2486.00 L 2042.00 2487.00 L 1902.00 2487.00 L 1882.00 2488.00 L 1722.00 2488.00 L 1702.00 2489.00 L 1682.00 2469.00 Z" />
<path id="csg562-056-16" fill="none" stroke="black" stroke-width="1" d="M 2802.00 2591.00 L 2782.00 2611.00 L 2742.00 2611.00 L 2722.00 2612.00 L 2502.00 2612.00 L 2482.00 2613.00 L 2262.00 2613.00 L 2242.00 2614.00 L 2022.00 2614.00 L 2002.00 2615.00 L 1782.00 2615.00 L 1762.00 2616.00 L 1542.00 2616.00 L 1522.00 2617.00 L 1302.00 2617.00 L 1282.00 2618.00 L 1062.00 2618.00 L 1042.00 2619.00 L 842.00 2619.00 L 833.47 2623.69 L 834.00 2662.00 L 836.19 2722.19 L 842.00 2719.00 L 982.00 2719.00 L 1002.00 2718.00 L 1162.00 2718.00 L 1182.00 2717.00 L 1262.00 2717.00 L 1282.00 2737.00 L 1302.00 2737.00 L 1322.00 2717.00 L 1342.00 2717.00 L 1362.00 2716.00 L 1522.00 2716.00 L 1542.00 2715.00 L 1702.00 2715.00 L 1722.00 2714.00 L 1882.00 2714.00 L 1902.00 2713.00 L 2062.00 2713.00 L 2082.00 2712.00 L 2242.00 2712.00 L 2262.00 2711.00 L 2422.00 2711.00 L 2442.00 2710.00 L 2602.00 2710.00 L 2622.00 2709.00 L 2782.00 2709.00 L 2802.00 2708.00 L 2911.75 2708.00 L 2878.00 2618.00 L 2877.38 2611.00 L 2822.00 2611.00 L 2802.00 2591.00 Z" />
<path id="csg562-056-17" fill="none" stroke="black" stroke-width="1" d="M 2802.00 2708.00 L 2782.00 2709.00 L 2622.00 2709.00 L 2602.00 2710.00 L 2442.00 2710.00 L 2422.00 2711.00 L 2262.00 2711.00 L 2242.00 2712.00 L 2082.00 2712.00 L 2062.00 2713.00 L 1902.00 2713.00 L 1882.00 2714.00 L 1722.00 2714.00 L 1702.00 2715.00 L 1542.00 2715.00 L 1522.00 2716.00 L 1362.00 2716.00 L 1342.00 2717.00 L 1322.00 2717.00 L 1302.00 2737.00 L 1282.00 2737.00 L 1262.00 2717.00 L 1182.00 2717.00 L 1162.00 2718.00 L 1002.00 2718.00 L 982.00 2719.00 L 842.00 2719.00 L 836.19 2722.19 L 840.02 2827.09 L 842.00 2826.00 L 942.00 2826.00 L 962.00 2825.00 L 982.00 2825.00 L 1002.00 2845.00 L 1022.00 2845.00 L 1042.00 2825.00 L 1062.00 2825.00 L 1082.00 2824.00 L 1182.00 2824.00 L 1202.00 2823.00 L 1222.00 2803.00 L 1242.00 2823.00 L 1302.00 2823.00 L 1322.00 2822.00 L 1422.00 2822.00 L 1442.00 2821.00 L 1542.00 2821.00 L 1562.00 2820.00 L 1662.00 2820.00 L 1682.00 2819.00 L 1802.00 2819.00 L 1822.00 2818.00 L 1922.00 2818.00 L 1942.00 2817.00 L 2042.00 2817.00 L 2062.00 2816.00 L 2162.00 2816.00 L 2182.00 2815.00 L 2282.00 2815.00 L 2302.00 2814.00 L 2402.00 2814.00 L 2422.00 2813.00 L 2522.00 2813.00 L 2542.00 2812.00 L 2642.00 2812.00 L 2662.00 2811.00 L 2782.00 2811.00 L 2802.00 2810.00 L 2902.00 2810.00 L 2919.75 2809.11 L 2938.00 2778.00 L 2911.75 2708.00 Z" />
<path id="csg562-056-18" fill="none" stroke="black" stroke-width="1" d="M 1222.00 2803.00 L 1202.00 2823.00 L 1182.00 2824.00 L 1082.00 2824.00 L 1062.00 2825.00 L 1042.00 2825.00 L 1022.00 2845.00 L 1002.00 2845.00 L 982.00 2825.00 L 962.00 2825.00 L 942.00 2826.00 L 842.00 2826.00 L 840.02 2827.09 L 844.35 2946.00 L 942.00 2946.00 L 962.00 2945.00 L 1062.00 2945.00 L 1082.00 2944.00 L 1202.00 2944.00 L 1222.00 2943.00 L 1322.00 2943.00 L 1342.00 2942.00 L 1442.00 2942.00 L 1462.00 2941.00 L 1582.00 2941.00 L 1602.00 2940.00 L 1702.00 2940.00 L 1722.00 2939.00 L 1842.00 2939.00 L 1862.00 2938.00 L 1962.00 2938.00 L 1982.00 2937.00 L 2082.00 2937.00 L 2102.00 2936.00 L 2222.00 2936.00 L 2242.00 2935.00 L 2292.45 2935.00 L 2292.00 2930.00 L 2850.00 2928.00 L 2919.75 2809.11 L 2902.00 2810.00 L 2802.00 2810.00 L 2782.00 2811.00 L 2662.00 2811.00 L 2642.00 2812.00 L 2542.00 2812.00 L 2522.00 2813.00 L 2422.00 2813.00 L 2402.00 2814.00 L 2302.00 2814.00 L 2282.00 2815.00 L 2182.00 2815.00 L 2162.00 2816.00 L 2062.00 2816.00 L 2042.00 2817.00 L 1942.00 2817.00 L 1922.00 2818.00 L 1822.00 2818.00 L 1802.00 2819.00 L 1682.00 2819.00 L 1662.00 2820.00 L 1562.00 2820.00 L 1542.00 2821.00 L 1442.00 2821.00 L 1422.00 2822.00 L 1322.00 2822.00 L 1302.00 2823.00 L 1242.00 2823.00 L 1222.00 2803.00 Z" />
<path id="csg562-056-19" fill="none" stroke="black" stroke-width="1" d="M 2242.00 2935.00 L 2222.00 2936.00 L 2102.00 2936.00 L 2082.00 2937.00 L 1982.00 2937.00 L 1962.00 2938.00 L 1862.00 2938.00 L 1842.00 2939.00 L 1722.00 2939.00 L 1702.00 2940.00 L 1602.00 2940.00 L 1582.00 2941.00 L 1462.00 2941.00 L 1442.00 2942.00 L 1342.00 2942.00 L 1322.00 2943.00 L 1222.00 2943.00 L 1202.00 2944.00 L 1082.00 2944.00 L 1062.00 2945.00 L 962.00 2945.00 L 942.00 2946.00 L 844.35 2946.00 L 848.00 3046.00 L 969.50 3049.00 L 1002.00 3049.00 L 1022.00 3048.00 L 1102.00 3048.00 L 1122.00 3047.00 L 1162.00 3047.00 L 1182.00 3061.00 L 1202.00 3046.00 L 1282.00 3046.00 L 1302.00 3045.00 L 1382.00 3045.00 L 1402.00 3044.00 L 1462.00 3044.00 L 1482.00 3043.00 L 1542.00 3043.00 L 1559.36 3058.62 L 1564.56 3058.57 L 1582.00 3042.00 L 1662.00 3042.00 L 1682.00 3041.00 L 1698.58 3057.58 L 1725.58 3057.42 L 1742.00 3041.00 L 1762.00 3040.00 L 1842.00 3040.00 L 1862.00 3039.00 L 1942.00 3039.00 L 1962.00 3038.00 L 2022.00 3038.00 L 2042.00 3037.00 L 2122.00 3037.00 L 2142.00 3036.00 L 2222.00 3036.00 L 2229.85 3043.46 L 2275.74 3041.26 L 2282.00 3035.00 L 2301.55 3035.00 L 2292.45 2935.00 Z" />
<path id="csg562-056-20" fill="none" stroke="black" stroke-width="1" d="M 2426.00 3158.00 L 1884.00 3188.00 L 1282.00 3194.00 L 1132.00 3182.00 L 980.00 3212.00 L 977.07 3272.00 L 1020.00 3272.00 L 1040.00 3271.00 L 1120.00 3271.00 L 1140.00 3270.00 L 1220.00 3270.00 L 1240.00 3269.00 L 1320.00 3269.00 L 1340.00 3268.00 L 1420.00 3268.00 L 1440.00 3267.00 L 1520.00 3267.00 L 1540.00 3266.00 L 1620.00 3266.00 L 1640.00 3265.00 L 1720.00 3265.00 L 1740.00 3264.00 L 1760.00 3284.00 L 1780.00 3264.00 L 1820.00 3264.00 L 1840.00 3263.00 L 1920.00 3263.00 L 1940.00 3262.00 L 2020.00 3262.00 L 2040.00 3261.00 L 2120.00 3261.00 L 2140.00 3260.00 L 2220.00 3260.00 L 2240.00 3259.00 L 2320.00 3259.00 L 2340.00 3258.00 L 2420.00 3258.00 L 2440.00 3257.00 L 2520.00 3257.00 L 2540.00 3256.00 L 2620.00 3256.00 L 2640.00 3255.00 L 2720.00 3255.00 L 2740.00 3254.00 L 2760.00 3254.00 L 2780.00 3274.00 L 2800.00 3254.00 L 2840.00 3254.00 L 2860.00 3253.00 L 2882.73 3253.00 L 2904.00 3226.00 L 2832.00 3174.00 L 2426.00 3158.00 Z" />
<path id="csg562-056-21" fill="none" stroke="black" stroke-width="1" d="M 2860.00 3253.00 L 2840.00 3254.00 L 2800.00 3254.00 L 2780.00 3274.00 L 2760.00 3254.00 L 2740.00 3254.00 L 2720.00 3255.00 L 2640.00 3255.00 L 2620.00 3256.00 L 2540.00 3256.00 L 2520.00 3257.00 L 2440.00 3257.00 L 2420.00 3258.00 L 2340.00 3258.00 L 2320.00 3259.00 L 2240.00 3259.00 L 2220.00 3260.00 L 2140.00 3260.00 L 2120.00 3261.00 L 2040.00 3261.00 L 2020.00 3262.00 L 1940.00 3262.00 L 1920.00 3263.00 L 1840.00 3263.00 L 1820.00 3264.00 L 1780.00 3264.00 L 1760.00 3284.00 L 1740.00 3264.00 L 1720.00 3265.00 L 1640.00 3265.00 L 1620.00 3266.00 L 1540.00 3266.00 L 1520.00 3267.00 L 1440.00 3267.00 L 1420.00 3268.00 L 1340.00 3268.00 L 1320.00 3269.00 L 1240.00 3269.00 L 1220.00 3270.00 L 1140.00 3270.00 L 1120.00 3271.00 L 1040.00 3271.00 L 1020.00 3272.00 L 977.07 3272.00 L 976.00 3294.00 L 890.00 3334.00 L 867.66 3381.23 L 880.00 3380.00 L 900.00 3390.00 L 920.00 3392.00 L 940.00 3383.00 L 1040.00 3383.00 L 1060.00 3382.00 L 1160.00 3382.00 L 1180.00 3381.00 L 1280.00 3381.00 L 1300.00 3380.00 L 1380.00 3380.00 L 1400.00 3379.00 L 1500.00 3379.00 L 1520.00 3378.00 L 1620.00 3378.00 L 1640.00 3377.00 L 1740.00 3377.00 L 1760.00 3376.00 L 1860.00 3376.00 L 1880.00 3375.00 L 1960.00 3375.00 L 1980.00 3374.00 L 2080.00 3374.00 L 2100.00 3373.00 L 2200.00 3373.00 L 2220.00 3372.00 L 2320.00 3372.00 L 2340.00 3371.00 L 2420.00 3371.00 L 2440.00 3370.00 L 2540.00 3370.00 L 2560.00 3369.00 L 2660.00 3369.00 L 2680.00 3368.00 L 2720.00 3368.00 L 2740.00 3388.00 L 2760.00 3368.00 L 2780.00 3368.00 L 2800.00 3367.00 L 2836.45 3367.00 L 2800.00 3358.00 L 2882.73 3253.00 Z" />
<path id="csg562-056-22" fill="none" stroke="black" stroke-width="1" d="M 2800.00 3367.00 L 2780.00 3368.00 L 2760.00 3368.00 L 2740.00 3388.00 L 2720.00 3368.00 L 2680.00 3368.00 L 2660.00 3369.00 L 2560.00 3369.00 L 2540.00 3370.00 L 2440.00 3370.00 L 2420.00 3371.00 L 2340.00 3371.00 L 2320.00 3372.00 L 2220.00 3372.00 L 2200.00 3373.00 L 2100.00 3373.00 L 2080.00 3374.00 L 1980.00 3374.00 L 1960.00 3375.00 L 1880.00 3375.00 L 1860.00 3376.00 L 1760.00 3376.00 L 1740.00 3377.00 L 1640.00 3377.00 L 1620.00 3378.00 L 1520.00 3378.00 L 1500.00 3379.00 L 1400.00 3379.00 L 1380.00 3380.00 L 1300.00 3380.00 L 1280.00 3381.00 L 1180.00 3381.00 L 1160.00 3382.00 L 1060.00 3382.00 L 1040.00 3383.00 L 940.00 3383.00 L 920.00 3392.00 L 900.00 3390.00 L 880.00 3380.00 L 867.66 3381.23 L 820.00 3482.00 L 935.41 3498.23 L 940.00 3498.00 L 1020.00 3498.00 L 1040.00 3497.00 L 1140.00 3497.00 L 1160.00 3496.00 L 1240.00 3496.00 L 1260.00 3495.00 L 1340.00 3495.00 L 1360.00 3494.00 L 1460.00 3494.00 L 1480.00 3493.00 L 1560.00 3493.00 L 1580.00 3492.00 L 1609.76 3492.00 L 1774.00 3484.00 L 1890.00 3489.50 L 1900.00 3489.00 L 2000.00 3489.00 L 2020.00 3488.00 L 2100.00 3488.00 L 2120.00 3487.00 L 2200.00 3487.00 L 2220.00 3486.00 L 2320.00 3486.00 L 2340.00 3485.00 L 2420.00 3485.00 L 2440.00 3484.00 L 2520.00 3484.00 L 2540.00 3483.00 L 2640.00 3483.00 L 2660.00 3502.00 L 2680.00 3522.00 L 2700.00 3522.00 L 2720.00 3502.00 L 2740.00 3482.00 L 2760.00 3481.00 L 2860.00 3481.00 L 2880.00 3480.00 L 2895.45 3480.00 L 2968.00 3462.00 L 2962.00 3398.00 L 2836.45 3367.00 Z" />
</svg>
