<?xml version="1.0" standalone="no"?>
<!DOCTYPE svg PUBLIC "-//W3C//DTD SVG 1.1//EN" "http://www.w3.org/Graphics/SVG/1.1/DTD/svg11.dtd">
<svg width="46.22222in" height="69.333336in" viewBox="0 0 3328 4992" xmlns="http://www.w3.org/2000/svg" version="1.1">
<path id="csg562-055-01" fill="none" stroke="black" stroke-width="1" d="M 602.00 776.00 L 408.00 782.00 L 400.71 884.00 L 436.00 884.00 L 456.00 885.00 L 496.00 885.00 L 516.00 886.00 L 576.00 886.00 L 596.00 887.00 L 636.00 887.00 L 656.00 888.00 L 716.00 888.00 L 736.00 889.00 L 776.00 889.00 L 796.00 890.00 L 856.00 890.00 L 876.00 891.00 L 916.00 891.00 L 936.00 892.00 L 996.00 892.00 L 1016.00 893.00 L 1056.00 893.00 L 1076.00 894.00 L 1136.00 894.00 L 1156.00 895.00 L 1196.00 895.00 L 1216.00 896.00 L 1256.00 896.00 L 1276.00 876.00 L 1296.00 877.00 L 1316.00 857.00 L 1336.00 877.00 L 1356.00 898.00 L 1416.00 898.00 L 1436.00 899.00 L 1476.00 899.00 L 1496.00 900.00 L 1556.00 900.00 L 1576.00 901.00 L 1616.00 901.00 L 1636.00 902.00 L 1696.00 902.00 L 1716.00 883.00 L 1736.00 863.00 L 1756.00 883.00 L 1776.00 904.00 L 1836.00 904.00 L 1856.00 905.00 L 1896.00 905.00 L 1916.00 906.00 L 1976.00 906.00 L 1996.00 907.00 L 2036.00 907.00 L 2056.00 908.00 L 2116.00 908.00 L 2136.00 909.00 L 2176.00 909.00 L 2196.00 910.00 L 2256.00 910.00 L 2276.00 911.00 L 2316.00 911.00 L 2336.00 912.00 L 2396.00 912.00 L 2416.00 913.00 L 2456.00 913.00 L 2476.00 914.00 L 2500.70 914.00 L 2502.00 838.00 L 2362.58 795.00 L 2336.00 795.00 L 2316.00 794.00 L 2276.00 794.00 L 2256.00 793.00 L 2196.00 793.00 L 2176.00 792.00 L 2136.00 792.00 L 2116.00 791.00 L 2056.00 791.00 L 2036.00 790.00 L 2031.20 790.00 L 1860.00 802.00 L 1348.00 792.00 L 602.00 776.00 Z" />
<path id="csg562-055-02" fill="none" stroke="black" stroke-width="1" d="M 1316.00 857.00 L 1296.00 877.00 L 1276.00 876.00 L 1256.00 896.00 L 1216.00 896.00 L 1196.00 895.00 L 1156.00 895.00 L 1136.00 894.00 L 1076.00 894.00 L 1056.00 893.00 L 1016.00 893.00 L 996.00 892.00 L 936.00 892.00 L 916.00 891.00 L 876.00 891.00 L 856.00 890.00 L 796.00 890.00 L 776.00 889.00 L 736.00 889.00 L 716.00 888.00 L 656.00 888.00 L 636.00 887.00 L 596.00 887.00 L 576.00 886.00 L 516.00 886.00 L 496.00 885.00 L 456.00 885.00 L 436.00 884.00 L 400.71 884.00 L 393.11 990.44 L 396.00 989.00 L 496.00 989.00 L 516.00 990.00 L 636.00 990.00 L 656.00 991.00 L 756.00 991.00 L 776.00 992.00 L 896.00 992.00 L 916.00 993.00 L 1016.00 993.00 L 1036.00 994.00 L 1156.00 994.00 L 1176.00 995.00 L 1276.00 995.00 L 1296.00 996.00 L 1416.00 996.00 L 1436.00 997.00 L 1556.00 997.00 L 1576.00 998.00 L 1676.00 998.00 L 1696.00 999.00 L 1816.00 999.00 L 1836.00 1000.00 L 1936.00 1000.00 L 1956.00 1001.00 L 2076.00 1001.00 L 2096.00 1002.00 L 2196.00 1002.00 L 2216.00 1003.00 L 2336.00 1003.00 L 2356.00 1004.00 L 2456.00 1004.00 L 2476.00 1005.00 L 2499.15 1005.00 L 2500.70 914.00 L 2476.00 914.00 L 2456.00 913.00 L 2416.00 913.00 L 2396.00 912.00 L 2336.00 912.00 L 2316.00 911.00 L 2276.00 911.00 L 2256.00 910.00 L 2196.00 910.00 L 2176.00 909.00 L 2136.00 909.00 L 2116.00 908.00 L 2056.00 908.00 L 2036.00 907.00 L 1996.00 907.00 L 1976.00 906.00 L 1916.00 906.00 L 1896.00 905.00 L 1856.00 905.00 L 1836.00 904.00 L 1776.00 904.00 L 1756.00 883.00 L 1736.00 863.00 L 1716.00 883.00 L 1696.00 902.00 L 1636.00 902.00 L 1616.00 901.00 L 1576.00 901.00 L 1556.00 900.00 L 1496.00 900.00 L 1476.00 899.00 L 1436.00 899.00 L 1416.00 898.00 L 1356.00 898.00 L 1336.00 877.00 L 1316.00 857.00 Z" />
<path id="csg562-055-03" fill="none" stroke="black" stroke-width="1" d="M 396.00 989.00 L 393.11 990.44 L 384.00 1118.00 L 396.00 1112.00 L 516.00 1112.00 L 536.00 1113.00 L 676.00 1113.00 L 696.00 1114.00 L 836.00 1114.00 L 856.00 1115.00 L 976.00 1115.00 L 996.00 1116.00 L 1136.00 1116.00 L 1156.00 1117.00 L 1296.00 1117.00 L 1316.00 1118.00 L 1436.00 1118.00 L 1456.00 1119.00 L 1596.00 1119.00 L 1616.00 1120.00 L 1756.00 1120.00 L 1776.00 1121.00 L 1896.00 1121.00 L 1916.00 1122.00 L 2056.00 1122.00 L 2076.00 1123.00 L 2216.00 1123.00 L 2236.00 1124.00 L 2356.00 1124.00 L 2376.00 1125.00 L 2480.90 1125.00 L 2498.00 1072.00 L 2499.15 1005.00 L 2476.00 1005.00 L 2456.00 1004.00 L 2356.00 1004.00 L 2336.00 1003.00 L 2216.00 1003.00 L 2196.00 1002.00 L 2096.00 1002.00 L 2076.00 1001.00 L 1956.00 1001.00 L 1936.00 1000.00 L 1836.00 1000.00 L 1816.00 999.00 L 1696.00 999.00 L 1676.00 998.00 L 1576.00 998.00 L 1556.00 997.00 L 1436.00 997.00 L 1416.00 996.00 L 1296.00 996.00 L 1276.00 995.00 L 1176.00 995.00 L 1156.00 994.00 L 1036.00 994.00 L 1016.00 993.00 L 916.00 993.00 L 896.00 992.00 L 776.00 992.00 L 756.00 991.00 L 656.00 991.00 L 636.00 990.00 L 516.00 990.00 L 496.00 989.00 Z" />
<path id="csg562-055-04" fill="none" stroke="black" stroke-width="1" d="M 396.00 1112.00 L 384.00 1118.00 L 380.00 1174.00 L 381.19 1227.40 L 396.00 1220.00 L 516.00 1220.00 L 536.00 1221.00 L 656.00 1221.00 L 676.00 1222.00 L 796.00 1222.00 L 816.00 1223.00 L 936.00 1223.00 L 956.00 1224.00 L 1076.00 1224.00 L 1096.00 1225.00 L 1216.00 1225.00 L 1236.00 1226.00 L 1356.00 1226.00 L 1376.00 1227.00 L 1496.00 1227.00 L 1516.00 1228.00 L 1636.00 1228.00 L 1656.00 1229.00 L 1776.00 1229.00 L 1796.00 1230.00 L 1916.00 1230.00 L 1936.00 1231.00 L 2056.00 1231.00 L 2076.00 1232.00 L 2196.00 1232.00 L 2216.00 1233.00 L 2356.00 1233.00 L 2376.00 1234.00 L 2445.74 1234.00 L 2480.90 1125.00 L 2376.00 1125.00 L 2356.00 1124.00 L 2236.00 1124.00 L 2216.00 1123.00 L 2076.00 1123.00 L 2056.00 1122.00 L 1916.00 1122.00 L 1896.00 1121.00 L 1776.00 1121.00 L 1756.00 1120.00 L 1616.00 1120.00 L 1596.00 1119.00 L 1456.00 1119.00 L 1436.00 1118.00 L 1316.00 1118.00 L 1296.00 1117.00 L 1156.00 1117.00 L 1136.00 1116.00 L 996.00 1116.00 L 976.00 1115.00 L 856.00 1115.00 L 836.00 1114.00 L 696.00 1114.00 L 676.00 1113.00 L 536.00 1113.00 L 516.00 1112.00 Z" />
<path id="csg562-055-05" fill="none" stroke="black" stroke-width="1" d="M 396.00 1220.00 L 381.19 1227.40 L 383.60 1335.20 L 396.00 1329.00 L 656.00 1329.00 L 676.00 1330.00 L 956.00 1330.00 L 976.00 1331.00 L 996.00 1331.00 L 1016.00 1311.00 L 1036.00 1331.00 L 1056.00 1311.00 L 1076.00 1311.00 L 1096.00 1331.00 L 1256.00 1331.00 L 1276.00 1332.00 L 1396.00 1332.00 L 1416.00 1352.00 L 1436.00 1332.00 L 1536.00 1332.00 L 1556.00 1333.00 L 1836.00 1333.00 L 1856.00 1334.00 L 2136.00 1334.00 L 2156.00 1335.00 L 2436.00 1335.00 L 2437.56 1335.08 L 2438.00 1258.00 L 2445.74 1234.00 L 2376.00 1234.00 L 2356.00 1233.00 L 2216.00 1233.00 L 2196.00 1232.00 L 2076.00 1232.00 L 2056.00 1231.00 L 1936.00 1231.00 L 1916.00 1230.00 L 1796.00 1230.00 L 1776.00 1229.00 L 1656.00 1229.00 L 1636.00 1228.00 L 1516.00 1228.00 L 1496.00 1227.00 L 1376.00 1227.00 L 1356.00 1226.00 L 1236.00 1226.00 L 1216.00 1225.00 L 1096.00 1225.00 L 1076.00 1224.00 L 956.00 1224.00 L 936.00 1223.00 L 816.00 1223.00 L 796.00 1222.00 L 676.00 1222.00 L 656.00 1221.00 L 536.00 1221.00 L 516.00 1220.00 Z" />
<path id="csg562-055-06" fill="none" stroke="black" stroke-width="1" d="M 1016.00 1311.00 L 996.00 1331.00 L 976.00 1331.00 L 956.00 1330.00 L 676.00 1330.00 L 656.00 1329.00 L 396.00 1329.00 L 383.60 1335.20 L 386.17 1450.40 L 396.00 1445.00 L 756.00 1445.00 L 776.00 1444.00 L 1136.00 1444.00 L 1156.00 1443.00 L 1216.00 1443.00 L 1236.00 1463.00 L 1256.00 1443.00 L 1516.00 1443.00 L 1536.00 1442.00 L 1896.00 1442.00 L 1916.00 1441.00 L 2236.00 1441.00 L 2256.00 1461.00 L 2276.00 1461.00 L 2296.00 1460.00 L 2316.00 1440.00 L 2436.95 1440.00 L 2437.56 1335.08 L 2436.00 1335.00 L 2156.00 1335.00 L 2136.00 1334.00 L 1856.00 1334.00 L 1836.00 1333.00 L 1556.00 1333.00 L 1536.00 1332.00 L 1436.00 1332.00 L 1416.00 1352.00 L 1396.00 1332.00 L 1276.00 1332.00 L 1256.00 1331.00 L 1096.00 1331.00 L 1076.00 1311.00 L 1056.00 1311.00 L 1036.00 1331.00 L 1016.00 1311.00 Z" />
<path id="csg562-055-07" fill="none" stroke="black" stroke-width="1" d="M 2316.00 1440.00 L 2296.00 1460.00 L 2276.00 1461.00 L 2256.00 1461.00 L 2236.00 1441.00 L 1916.00 1441.00 L 1896.00 1442.00 L 1536.00 1442.00 L 1516.00 1443.00 L 1256.00 1443.00 L 1236.00 1463.00 L 1216.00 1443.00 L 1156.00 1443.00 L 1136.00 1444.00 L 776.00 1444.00 L 756.00 1445.00 L 396.00 1445.00 L 386.17 1450.40 L 388.46 1552.77 L 396.00 1549.00 L 596.00 1549.00 L 616.00 1550.00 L 816.00 1550.00 L 836.00 1551.00 L 1056.00 1551.00 L 1076.00 1552.00 L 1276.00 1552.00 L 1296.00 1553.00 L 1516.00 1553.00 L 1536.00 1554.00 L 1736.00 1554.00 L 1756.00 1555.00 L 1976.00 1555.00 L 1996.00 1556.00 L 2196.00 1556.00 L 2216.00 1557.00 L 2436.00 1557.00 L 2436.28 1557.01 L 2436.95 1440.00 Z" />
<path id="csg562-055-08" fill="none" stroke="black" stroke-width="1" d="M 396.00 1549.00 L 388.46 1552.77 L 391.25 1677.61 L 396.00 1675.00 L 2442.07 1675.00 L 2436.00 1606.00 L 2436.28 1557.01 L 2436.00 1557.00 L 2216.00 1557.00 L 2196.00 1556.00 L 1996.00 1556.00 L 1976.00 1555.00 L 1756.00 1555.00 L 1736.00 1554.00 L 1536.00 1554.00 L 1516.00 1553.00 L 1296.00 1553.00 L 1276.00 1552.00 L 1076.00 1552.00 L 1056.00 1551.00 L 836.00 1551.00 L 816.00 1550.00 L 616.00 1550.00 L 596.00 1549.00 Z" />
<path id="csg562-055-09" fill="none" stroke="black" stroke-width="1" d="M 396.00 1675.00 L 391.25 1677.61 L 393.60 1783.20 L 396.00 1782.00 L 476.00 1782.00 L 496.00 1783.00 L 576.00 1783.00 L 596.00 1784.00 L 676.00 1784.00 L 696.00 1785.00 L 796.00 1785.00 L 816.00 1786.00 L 896.00 1786.00 L 916.00 1787.00 L 996.00 1787.00 L 1016.00 1788.00 L 1116.00 1788.00 L 1136.00 1789.00 L 1216.00 1789.00 L 1236.00 1790.00 L 1316.00 1790.00 L 1336.00 1791.00 L 1436.00 1791.00 L 1456.00 1792.00 L 1536.00 1792.00 L 1556.00 1793.00 L 1636.00 1793.00 L 1656.00 1794.00 L 1756.00 1794.00 L 1776.00 1795.00 L 1856.00 1795.00 L 1876.00 1796.00 L 1956.00 1796.00 L 1976.00 1797.00 L 2076.00 1797.00 L 2096.00 1798.00 L 2176.00 1798.00 L 2196.00 1799.00 L 2276.00 1799.00 L 2296.00 1800.00 L 2396.00 1800.00 L 2416.00 1801.00 L 2453.16 1801.00 L 2442.07 1675.00 Z" />
<path id="csg562-055-10" fill="none" stroke="black" stroke-width="1" d="M 396.00 1782.00 L 393.60 1783.20 L 396.06 1893.00 L 516.00 1893.00 L 536.00 1894.00 L 656.00 1894.00 L 676.00 1895.00 L 796.00 1895.00 L 816.00 1896.00 L 936.00 1896.00 L 956.00 1897.00 L 1096.00 1897.00 L 1116.00 1898.00 L 1236.00 1898.00 L 1256.00 1899.00 L 1376.00 1899.00 L 1396.00 1900.00 L 1516.00 1900.00 L 1536.00 1901.00 L 1676.00 1901.00 L 1696.00 1902.00 L 1816.00 1902.00 L 1836.00 1903.00 L 1956.00 1903.00 L 1976.00 1904.00 L 2096.00 1904.00 L 2116.00 1905.00 L 2256.00 1905.00 L 2276.00 1906.00 L 2336.00 1906.00 L 2356.00 1926.00 L 2376.00 1906.00 L 2396.00 1906.00 L 2416.00 1907.00 L 2444.44 1907.00 L 2458.00 1856.00 L 2453.16 1801.00 L 2416.00 1801.00 L 2396.00 1800.00 L 2296.00 1800.00 L 2276.00 1799.00 L 2196.00 1799.00 L 2176.00 1798.00 L 2096.00 1798.00 L 2076.00 1797.00 L 1976.00 1797.00 L 1956.00 1796.00 L 1876.00 1796.00 L 1856.00 1795.00 L 1776.00 1795.00 L 1756.00 1794.00 L 1656.00 1794.00 L 1636.00 1793.00 L 1556.00 1793.00 L 1536.00 1792.00 L 1456.00 1792.00 L 1436.00 1791.00 L 1336.00 1791.00 L 1316.00 1790.00 L 1236.00 1790.00 L 1216.00 1789.00 L 1136.00 1789.00 L 1116.00 1788.00 L 1016.00 1788.00 L 996.00 1787.00 L 916.00 1787.00 L 896.00 1786.00 L 816.00 1786.00 L 796.00 1785.00 L 696.00 1785.00 L 676.00 1784.00 L 596.00 1784.00 L 576.00 1783.00 L 496.00 1783.00 L 476.00 1782.00 Z" />
<path id="csg562-055-11" fill="none" stroke="black" stroke-width="1" d="M 396.06 1893.00 L 398.00 1980.00 L 392.26 2004.87 L 396.00 2003.00 L 576.00 2003.00 L 596.00 2004.00 L 776.00 2004.00 L 796.00 2005.00 L 996.00 2005.00 L 1016.00 2006.00 L 1036.00 2006.00 L 1056.00 2026.00 L 1076.00 2006.00 L 1196.00 2006.00 L 1216.00 2007.00 L 1416.00 2007.00 L 1436.00 2008.00 L 1616.00 2008.00 L 1636.00 2009.00 L 1676.00 2009.00 L 1696.00 2029.00 L 1716.00 2009.00 L 1836.00 2009.00 L 1856.00 2010.00 L 1956.00 2010.00 L 1976.00 1990.00 L 1996.00 1990.00 L 2016.00 2010.00 L 2036.00 2010.00 L 2056.00 2011.00 L 2116.00 2011.00 L 2136.00 2031.00 L 2156.00 2031.00 L 2176.00 2011.00 L 2256.00 2011.00 L 2276.00 2012.00 L 2416.51 2012.00 L 2444.44 1907.00 L 2416.00 1907.00 L 2396.00 1906.00 L 2376.00 1906.00 L 2356.00 1926.00 L 2336.00 1906.00 L 2276.00 1906.00 L 2256.00 1905.00 L 2116.00 1905.00 L 2096.00 1904.00 L 1976.00 1904.00 L 1956.00 1903.00 L 1836.00 1903.00 L 1816.00 1902.00 L 1696.00 1902.00 L 1676.00 1901.00 L 1536.00 1901.00 L 1516.00 1900.00 L 1396.00 1900.00 L 1376.00 1899.00 L 1256.00 1899.00 L 1236.00 1898.00 L 1116.00 1898.00 L 1096.00 1897.00 L 956.00 1897.00 L 936.00 1896.00 L 816.00 1896.00 L 796.00 1895.00 L 676.00 1895.00 L 656.00 1894.00 L 536.00 1894.00 L 516.00 1893.00 Z" />
<path id="csg562-055-12" fill="none" stroke="black" stroke-width="1" d="M 1976.00 1990.00 L 1956.00 2010.00 L 1856.00 2010.00 L 1836.00 2009.00 L 1716.00 2009.00 L 1696.00 2029.00 L 1676.00 2009.00 L 1636.00 2009.00 L 1616.00 2008.00 L 1436.00 2008.00 L 1416.00 2007.00 L 1216.00 2007.00 L 1196.00 2006.00 L 1076.00 2006.00 L 1056.00 2026.00 L 1036.00 2006.00 L 1016.00 2006.00 L 996.00 2005.00 L 796.00 2005.00 L 776.00 2004.00 L 596.00 2004.00 L 576.00 2003.00 L 396.00 2003.00 L 392.26 2004.87 L 380.00 2058.00 L 379.59 2117.21 L 396.00 2109.00 L 556.00 2109.00 L 576.00 2110.00 L 756.00 2110.00 L 776.00 2111.00 L 936.00 2111.00 L 956.00 2112.00 L 1136.00 2112.00 L 1156.00 2113.00 L 1316.00 2113.00 L 1336.00 2114.00 L 1516.00 2114.00 L 1536.00 2115.00 L 1716.00 2115.00 L 1736.00 2116.00 L 1896.00 2116.00 L 1916.00 2117.00 L 2096.00 2117.00 L 2116.00 2118.00 L 2276.00 2118.00 L 2296.00 2119.00 L 2356.00 2119.00 L 2376.00 2139.00 L 2396.00 2139.00 L 2416.00 2119.00 L 2476.00 2119.00 L 2496.00 2120.00 L 2533.66 2120.00 L 2504.00 2044.00 L 2408.00 2044.00 L 2416.51 2012.00 L 2276.00 2012.00 L 2256.00 2011.00 L 2176.00 2011.00 L 2156.00 2031.00 L 2136.00 2031.00 L 2116.00 2011.00 L 2056.00 2011.00 L 2036.00 2010.00 L 2016.00 2010.00 L 1996.00 1990.00 Z" />
<path id="csg562-055-13" fill="none" stroke="black" stroke-width="1" d="M 396.00 2109.00 L 379.59 2117.21 L 378.74 2238.63 L 396.00 2230.00 L 496.00 2230.00 L 516.00 2231.00 L 636.00 2231.00 L 656.00 2232.00 L 676.00 2232.00 L 696.00 2272.00 L 756.00 2272.00 L 776.00 2232.00 L 796.00 2233.00 L 916.00 2233.00 L 936.00 2234.00 L 1036.00 2234.00 L 1056.00 2214.00 L 1076.00 2215.00 L 1096.00 2215.00 L 1116.00 2195.00 L 1136.00 2235.00 L 1196.00 2235.00 L 1216.00 2236.00 L 1336.00 2236.00 L 1356.00 2237.00 L 1476.00 2237.00 L 1496.00 2238.00 L 1596.00 2238.00 L 1616.00 2239.00 L 1736.00 2239.00 L 1756.00 2240.00 L 1876.00 2240.00 L 1896.00 2241.00 L 2016.00 2241.00 L 2036.00 2242.00 L 2156.00 2242.00 L 2176.00 2243.00 L 2296.00 2243.00 L 2316.00 2244.00 L 2436.00 2244.00 L 2456.00 2245.00 L 2514.97 2245.00 L 2568.00 2208.00 L 2533.66 2120.00 L 2496.00 2120.00 L 2476.00 2119.00 L 2416.00 2119.00 L 2396.00 2139.00 L 2376.00 2139.00 L 2356.00 2119.00 L 2296.00 2119.00 L 2276.00 2118.00 L 2116.00 2118.00 L 2096.00 2117.00 L 1916.00 2117.00 L 1896.00 2116.00 L 1736.00 2116.00 L 1716.00 2115.00 L 1536.00 2115.00 L 1516.00 2114.00 L 1336.00 2114.00 L 1316.00 2113.00 L 1156.00 2113.00 L 1136.00 2112.00 L 956.00 2112.00 L 936.00 2111.00 L 776.00 2111.00 L 756.00 2110.00 L 576.00 2110.00 L 556.00 2109.00 Z" />
<path id="csg562-055-14" fill="none" stroke="black" stroke-width="1" d="M 1116.00 2195.00 L 1096.00 2215.00 L 1076.00 2215.00 L 1056.00 2214.00 L 1036.00 2234.00 L 936.00 2234.00 L 916.00 2233.00 L 796.00 2233.00 L 776.00 2232.00 L 756.00 2272.00 L 696.00 2272.00 L 676.00 2232.00 L 656.00 2232.00 L 636.00 2231.00 L 516.00 2231.00 L 496.00 2230.00 L 396.00 2230.00 L 378.74 2238.63 L 377.96 2349.02 L 396.00 2340.00 L 416.00 2340.00 L 436.00 2360.00 L 456.00 2340.00 L 476.00 2360.00 L 496.00 2360.00 L 516.00 2340.00 L 596.00 2340.00 L 616.00 2341.00 L 816.00 2341.00 L 836.00 2342.00 L 1056.00 2342.00 L 1076.00 2343.00 L 1276.00 2343.00 L 1296.00 2344.00 L 1516.00 2344.00 L 1536.00 2345.00 L 1736.00 2345.00 L 1756.00 2346.00 L 1976.00 2346.00 L 1996.00 2347.00 L 2196.00 2347.00 L 2216.00 2348.00 L 2436.00 2348.00 L 2456.00 2349.00 L 2492.98 2349.00 L 2482.00 2268.00 L 2514.97 2245.00 L 2456.00 2245.00 L 2436.00 2244.00 L 2316.00 2244.00 L 2296.00 2243.00 L 2176.00 2243.00 L 2156.00 2242.00 L 2036.00 2242.00 L 2016.00 2241.00 L 1896.00 2241.00 L 1876.00 2240.00 L 1756.00 2240.00 L 1736.00 2239.00 L 1616.00 2239.00 L 1596.00 2238.00 L 1496.00 2238.00 L 1476.00 2237.00 L 1356.00 2237.00 L 1336.00 2236.00 L 1216.00 2236.00 L 1196.00 2235.00 L 1136.00 2235.00 L 1116.00 2195.00 Z" />
<path id="csg562-055-15" fill="none" stroke="black" stroke-width="1" d="M 396.00 2340.00 L 377.96 2349.02 L 377.13 2468.44 L 396.00 2459.00 L 876.00 2459.00 L 896.00 2460.00 L 1396.00 2460.00 L 1416.00 2461.00 L 1916.00 2461.00 L 1936.00 2462.00 L 2436.00 2462.00 L 2456.00 2463.00 L 2508.44 2463.00 L 2492.98 2349.00 L 2456.00 2349.00 L 2436.00 2348.00 L 2216.00 2348.00 L 2196.00 2347.00 L 1996.00 2347.00 L 1976.00 2346.00 L 1756.00 2346.00 L 1736.00 2345.00 L 1536.00 2345.00 L 1516.00 2344.00 L 1296.00 2344.00 L 1276.00 2343.00 L 1076.00 2343.00 L 1056.00 2342.00 L 836.00 2342.00 L 816.00 2341.00 L 616.00 2341.00 L 596.00 2340.00 L 516.00 2340.00 L 496.00 2360.00 L 476.00 2360.00 L 456.00 2340.00 L 436.00 2360.00 L 416.00 2340.00 Z" />
<path id="csg562-055-16" fill="none" stroke="black" stroke-width="1" d="M 396.00 2459.00 L 377.13 2468.44 L 376.40 2572.80 L 396.00 2563.00 L 436.00 2563.00 L 456.00 2543.00 L 476.00 2563.00 L 516.00 2563.00 L 536.00 2564.00 L 656.00 2564.00 L 676.00 2565.00 L 796.00 2565.00 L 816.00 2566.00 L 936.00 2566.00 L 956.00 2567.00 L 1076.00 2567.00 L 1096.00 2568.00 L 1136.00 2568.00 L 1156.00 2588.00 L 1176.00 2568.00 L 1236.00 2568.00 L 1256.00 2569.00 L 1376.00 2569.00 L 1396.00 2570.00 L 1516.00 2570.00 L 1536.00 2571.00 L 1656.00 2571.00 L 1676.00 2572.00 L 1796.00 2572.00 L 1816.00 2573.00 L 1836.00 2593.00 L 1856.00 2573.00 L 1936.00 2573.00 L 1956.00 2574.00 L 2096.00 2574.00 L 2116.00 2575.00 L 2236.00 2575.00 L 2256.00 2576.00 L 2376.00 2576.00 L 2396.00 2577.00 L 2490.57 2577.00 L 2514.00 2504.00 L 2508.44 2463.00 L 2456.00 2463.00 L 2436.00 2462.00 L 1936.00 2462.00 L 1916.00 2461.00 L 1416.00 2461.00 L 1396.00 2460.00 L 896.00 2460.00 L 876.00 2459.00 Z" />
<path id="csg562-055-17" fill="none" stroke="black" stroke-width="1" d="M 456.00 2543.00 L 436.00 2563.00 L 396.00 2563.00 L 376.40 2572.80 L 376.00 2630.00 L 378.24 2681.88 L 396.00 2673.00 L 456.00 2673.00 L 476.00 2674.00 L 536.00 2674.00 L 556.00 2675.00 L 616.00 2675.00 L 636.00 2676.00 L 716.00 2676.00 L 736.00 2677.00 L 796.00 2677.00 L 816.00 2678.00 L 876.00 2678.00 L 896.00 2679.00 L 976.00 2679.00 L 996.00 2680.00 L 1056.00 2680.00 L 1076.00 2681.00 L 1136.00 2681.00 L 1156.00 2682.00 L 1236.00 2682.00 L 1256.00 2683.00 L 1316.00 2683.00 L 1336.00 2684.00 L 1396.00 2684.00 L 1416.00 2685.00 L 1476.00 2685.00 L 1496.00 2686.00 L 1576.00 2686.00 L 1596.00 2687.00 L 1656.00 2687.00 L 1676.00 2688.00 L 1736.00 2688.00 L 1756.00 2689.00 L 1836.00 2689.00 L 1856.00 2690.00 L 1916.00 2690.00 L 1936.00 2691.00 L 1996.00 2691.00 L 2016.00 2692.00 L 2096.00 2692.00 L 2116.00 2693.00 L 2176.00 2693.00 L 2196.00 2694.00 L 2256.00 2694.00 L 2276.00 2695.00 L 2336.00 2695.00 L 2356.00 2696.00 L 2436.00 2696.00 L 2456.00 2697.00 L 2479.13 2697.00 L 2462.00 2666.00 L 2490.57 2577.00 L 2396.00 2577.00 L 2376.00 2576.00 L 2256.00 2576.00 L 2236.00 2575.00 L 2116.00 2575.00 L 2096.00 2574.00 L 1956.00 2574.00 L 1936.00 2573.00 L 1856.00 2573.00 L 1836.00 2593.00 L 1816.00 2573.00 L 1796.00 2572.00 L 1676.00 2572.00 L 1656.00 2571.00 L 1536.00 2571.00 L 1516.00 2570.00 L 1396.00 2570.00 L 1376.00 2569.00 L 1256.00 2569.00 L 1236.00 2568.00 L 1176.00 2568.00 L 1156.00 2588.00 L 1136.00 2568.00 L 1096.00 2568.00 L 1076.00 2567.00 L 956.00 2567.00 L 936.00 2566.00 L 816.00 2566.00 L 796.00 2565.00 L 676.00 2565.00 L 656.00 2564.00 L 536.00 2564.00 L 516.00 2563.00 L 476.00 2563.00 L 456.00 2543.00 Z" />
<path id="csg562-055-18" fill="none" stroke="black" stroke-width="1" d="M 396.00 2673.00 L 378.24 2681.88 L 383.54 2804.23 L 396.00 2798.00 L 476.00 2798.00 L 496.00 2799.00 L 596.00 2799.00 L 616.00 2800.00 L 696.00 2800.00 L 716.00 2801.00 L 816.00 2801.00 L 836.00 2802.00 L 936.00 2802.00 L 956.00 2803.00 L 1036.00 2803.00 L 1056.00 2804.00 L 1156.00 2804.00 L 1176.00 2805.00 L 1276.00 2805.00 L 1296.00 2806.00 L 1376.00 2806.00 L 1396.00 2807.00 L 1496.00 2807.00 L 1516.00 2808.00 L 1616.00 2808.00 L 1636.00 2809.00 L 1716.00 2809.00 L 1736.00 2810.00 L 1836.00 2810.00 L 1856.00 2811.00 L 1956.00 2811.00 L 1976.00 2812.00 L 2056.00 2812.00 L 2076.00 2813.00 L 2176.00 2813.00 L 2196.00 2814.00 L 2276.00 2814.00 L 2296.00 2815.00 L 2396.00 2815.00 L 2416.00 2816.00 L 2471.32 2816.00 L 2476.00 2790.00 L 2504.00 2742.00 L 2479.13 2697.00 L 2456.00 2697.00 L 2436.00 2696.00 L 2356.00 2696.00 L 2336.00 2695.00 L 2276.00 2695.00 L 2256.00 2694.00 L 2196.00 2694.00 L 2176.00 2693.00 L 2116.00 2693.00 L 2096.00 2692.00 L 2016.00 2692.00 L 1996.00 2691.00 L 1936.00 2691.00 L 1916.00 2690.00 L 1856.00 2690.00 L 1836.00 2689.00 L 1756.00 2689.00 L 1736.00 2688.00 L 1676.00 2688.00 L 1656.00 2687.00 L 1596.00 2687.00 L 1576.00 2686.00 L 1496.00 2686.00 L 1476.00 2685.00 L 1416.00 2685.00 L 1396.00 2684.00 L 1336.00 2684.00 L 1316.00 2683.00 L 1256.00 2683.00 L 1236.00 2682.00 L 1156.00 2682.00 L 1136.00 2681.00 L 1076.00 2681.00 L 1056.00 2680.00 L 996.00 2680.00 L 976.00 2679.00 L 896.00 2679.00 L 876.00 2678.00 L 816.00 2678.00 L 796.00 2677.00 L 736.00 2677.00 L 716.00 2676.00 L 636.00 2676.00 L 616.00 2675.00 L 556.00 2675.00 L 536.00 2674.00 L 476.00 2674.00 L 456.00 2673.00 Z" />
<path id="csg562-055-19" fill="none" stroke="black" stroke-width="1" d="M 396.00 2798.00 L 383.54 2804.23 L 387.86 2904.07 L 396.00 2900.00 L 416.00 2920.00 L 436.00 2920.00 L 456.00 2900.00 L 956.00 2900.00 L 976.00 2880.00 L 996.00 2880.00 L 1016.00 2900.00 L 1056.00 2900.00 L 1076.00 2901.00 L 1676.00 2901.00 L 1696.00 2921.00 L 1716.00 2901.00 L 1756.00 2901.00 L 1776.00 2902.00 L 2436.00 2902.00 L 2455.67 2902.98 L 2471.32 2816.00 L 2416.00 2816.00 L 2396.00 2815.00 L 2296.00 2815.00 L 2276.00 2814.00 L 2196.00 2814.00 L 2176.00 2813.00 L 2076.00 2813.00 L 2056.00 2812.00 L 1976.00 2812.00 L 1956.00 2811.00 L 1856.00 2811.00 L 1836.00 2810.00 L 1736.00 2810.00 L 1716.00 2809.00 L 1636.00 2809.00 L 1616.00 2808.00 L 1516.00 2808.00 L 1496.00 2807.00 L 1396.00 2807.00 L 1376.00 2806.00 L 1296.00 2806.00 L 1276.00 2805.00 L 1176.00 2805.00 L 1156.00 2804.00 L 1056.00 2804.00 L 1036.00 2803.00 L 956.00 2803.00 L 936.00 2802.00 L 836.00 2802.00 L 816.00 2801.00 L 716.00 2801.00 L 696.00 2800.00 L 616.00 2800.00 L 596.00 2799.00 L 496.00 2799.00 L 476.00 2798.00 Z" />
<path id="csg562-055-20" fill="none" stroke="black" stroke-width="1" d="M 976.00 2880.00 L 956.00 2900.00 L 456.00 2900.00 L 436.00 2920.00 L 416.00 2920.00 L 396.00 2900.00 L 387.86 2904.07 L 392.52 3011.74 L 396.00 3010.00 L 576.00 3010.00 L 596.00 3011.00 L 776.00 3011.00 L 796.00 3012.00 L 976.00 3012.00 L 996.00 3013.00 L 1196.00 3013.00 L 1216.00 3014.00 L 1396.00 3014.00 L 1416.00 3015.00 L 1596.00 3015.00 L 1616.00 3016.00 L 1816.00 3016.00 L 1836.00 3017.00 L 2016.00 3017.00 L 2036.00 3018.00 L 2216.00 3018.00 L 2236.00 3019.00 L 2416.00 3019.00 L 2434.64 3019.93 L 2455.67 2902.98 L 2436.00 2902.00 L 1776.00 2902.00 L 1756.00 2901.00 L 1716.00 2901.00 L 1696.00 2921.00 L 1676.00 2901.00 L 1076.00 2901.00 L 1056.00 2900.00 L 1016.00 2900.00 L 996.00 2880.00 Z" />
<path id="csg562-055-21" fill="none" stroke="black" stroke-width="1" d="M 396.00 3010.00 L 392.52 3011.74 L 394.00 3046.00 L 395.62 3128.19 L 396.00 3128.00 L 616.00 3128.00 L 636.00 3129.00 L 876.00 3129.00 L 896.00 3130.00 L 1136.00 3130.00 L 1156.00 3111.00 L 1176.00 3131.00 L 1396.00 3131.00 L 1416.00 3132.00 L 1436.00 3152.00 L 1456.00 3132.00 L 1636.00 3132.00 L 1656.00 3133.00 L 1896.00 3133.00 L 1916.00 3134.00 L 2156.00 3134.00 L 2176.00 3135.00 L 2413.94 3135.00 L 2434.64 3019.93 L 2416.00 3019.00 L 2236.00 3019.00 L 2216.00 3018.00 L 2036.00 3018.00 L 2016.00 3017.00 L 1836.00 3017.00 L 1816.00 3016.00 L 1616.00 3016.00 L 1596.00 3015.00 L 1416.00 3015.00 L 1396.00 3014.00 L 1216.00 3014.00 L 1196.00 3013.00 L 996.00 3013.00 L 976.00 3012.00 L 796.00 3012.00 L 776.00 3011.00 L 596.00 3011.00 L 576.00 3010.00 Z" />
<path id="csg562-055-22" fill="none" stroke="black" stroke-width="1" d="M 1156.00 3111.00 L 1136.00 3130.00 L 896.00 3130.00 L 876.00 3129.00 L 636.00 3129.00 L 616.00 3128.00 L 396.00 3128.00 L 395.62 3128.19 L 397.65 3231.00 L 996.00 3231.00 L 1016.00 3232.00 L 1616.00 3232.00 L 1636.00 3233.00 L 2236.00 3233.00 L 2256.00 3234.00 L 2336.00 3234.00 L 2356.00 3254.00 L 2376.00 3254.00 L 2396.00 3234.00 L 2433.93 3234.00 L 2408.00 3168.00 L 2413.94 3135.00 L 2176.00 3135.00 L 2156.00 3134.00 L 1916.00 3134.00 L 1896.00 3133.00 L 1656.00 3133.00 L 1636.00 3132.00 L 1456.00 3132.00 L 1436.00 3152.00 L 1416.00 3132.00 L 1396.00 3131.00 L 1176.00 3131.00 L 1156.00 3111.00 Z" />
<path id="csg562-055-23" fill="none" stroke="black" stroke-width="1" d="M 397.65 3231.00 L 400.01 3351.00 L 1476.00 3351.00 L 1496.00 3348.00 L 1516.00 3338.00 L 1536.00 3338.00 L 1556.00 3336.00 L 1576.00 3328.00 L 1596.00 3326.00 L 1616.00 3351.00 L 2443.55 3351.00 L 2452.00 3280.00 L 2433.93 3234.00 L 2396.00 3234.00 L 2376.00 3254.00 L 2356.00 3254.00 L 2336.00 3234.00 L 2256.00 3234.00 L 2236.00 3233.00 L 1636.00 3233.00 L 1616.00 3232.00 L 1016.00 3232.00 L 996.00 3231.00 Z" />
<path id="csg562-055-24" fill="none" stroke="black" stroke-width="1" d="M 1596.00 3326.00 L 1576.00 3328.00 L 1556.00 3336.00 L 1536.00 3338.00 L 1516.00 3338.00 L 1496.00 3348.00 L 1476.00 3351.00 L 400.01 3351.00 L 402.00 3452.00 L 555.18 3457.00 L 1036.00 3457.00 L 1056.00 3473.00 L 1076.00 3457.00 L 1136.00 3457.00 L 1156.00 3456.00 L 1332.91 3456.00 L 1390.00 3452.00 L 1407.45 3456.00 L 1456.00 3456.00 L 1473.92 3471.23 L 1477.20 3471.98 L 1496.00 3456.00 L 1796.00 3456.00 L 1810.77 3468.56 L 1821.44 3468.38 L 1836.00 3456.00 L 1876.00 3456.00 L 1888.34 3466.49 L 1903.82 3465.97 L 1916.00 3455.00 L 2226.20 3455.00 L 2432.00 3448.00 L 2443.55 3351.00 L 1616.00 3351.00 L 1596.00 3326.00 Z" />
</svg>
