<?xml version="1.0" standalone="no"?>
<!DOCTYPE svg PUBLIC "-//W3C//DTD SVG 1.1//EN" "http://www.w3.org/Graphics/SVG/1.1/DTD/svg11.dtd">
<svg width="46.22222in" height="69.333336in" viewBox="0 0 3328 4992" xmlns="http://www.w3.org/2000/svg" version="1.1">
<path id="csg562-008-01" fill="none" stroke="black" stroke-width="1" d="M 1413.00 783.00 L 1380.00 864.00 L 1320.00 828.00 L 933.00 846.00 L 921.71 946.00 L 1144.00 946.00 L 1164.00 947.00 L 1424.00 947.00 L 1444.00 948.00 L 1704.00 948.00 L 1724.00 949.00 L 1984.00 949.00 L 2004.00 950.00 L 2284.00 950.00 L 2304.00 951.00 L 2564.00 951.00 L 2584.00 952.00 L 2844.00 952.00 L 2864.00 953.00 L 3020.88 953.00 L 3033.00 894.00 L 2964.00 822.00 L 2748.00 825.00 L 2454.00 822.00 L 1956.00 834.00 L 1521.00 840.00 L 1413.00 783.00 Z" />
<path id="csg562-008-02" fill="none" stroke="black" stroke-width="1" d="M 921.71 946.00 L 912.00 1032.00 L 912.00 1062.00 L 924.00 1062.00 L 944.00 1082.00 L 964.00 1062.00 L 1304.00 1062.00 L 1324.00 1063.00 L 1764.00 1063.00 L 1784.00 1064.00 L 2224.00 1064.00 L 2244.00 1065.00 L 2664.00 1065.00 L 2684.00 1066.00 L 2997.66 1066.00 L 3020.88 953.00 L 2864.00 953.00 L 2844.00 952.00 L 2584.00 952.00 L 2564.00 951.00 L 2304.00 951.00 L 2284.00 950.00 L 2004.00 950.00 L 1984.00 949.00 L 1724.00 949.00 L 1704.00 948.00 L 1444.00 948.00 L 1424.00 947.00 L 1164.00 947.00 L 1144.00 946.00 Z" />
<path id="csg562-008-03" fill="none" stroke="black" stroke-width="1" d="M 912.00 1062.00 L 912.00 1176.00 L 1084.00 1176.00 L 1104.00 1177.00 L 1324.00 1177.00 L 1344.00 1178.00 L 1564.00 1178.00 L 1584.00 1179.00 L 1784.00 1179.00 L 1804.00 1180.00 L 2024.00 1180.00 L 2044.00 1181.00 L 2264.00 1181.00 L 2284.00 1182.00 L 2484.00 1182.00 L 2504.00 1183.00 L 2724.00 1183.00 L 2744.00 1184.00 L 2964.00 1184.00 L 2984.00 1185.00 L 2990.25 1185.00 L 2988.00 1113.00 L 2997.66 1066.00 L 2684.00 1066.00 L 2664.00 1065.00 L 2244.00 1065.00 L 2224.00 1064.00 L 1784.00 1064.00 L 1764.00 1063.00 L 1324.00 1063.00 L 1304.00 1062.00 L 964.00 1062.00 L 944.00 1082.00 L 924.00 1062.00 Z" />
<path id="csg562-008-04" fill="none" stroke="black" stroke-width="1" d="M 912.00 1176.00 L 912.00 1295.00 L 1044.00 1295.00 L 1064.00 1296.00 L 1224.00 1296.00 L 1244.00 1297.00 L 1404.00 1297.00 L 1424.00 1298.00 L 1584.00 1298.00 L 1604.00 1299.00 L 1764.00 1299.00 L 1784.00 1300.00 L 1944.00 1300.00 L 1964.00 1301.00 L 2144.00 1301.00 L 2164.00 1302.00 L 2324.00 1302.00 L 2344.00 1303.00 L 2504.00 1303.00 L 2524.00 1304.00 L 2684.00 1304.00 L 2704.00 1305.00 L 2864.00 1305.00 L 2884.00 1306.00 L 3044.00 1306.00 L 3064.00 1307.00 L 3096.88 1307.00 L 3099.00 1290.00 L 2994.00 1305.00 L 2990.25 1185.00 L 2984.00 1185.00 L 2964.00 1184.00 L 2744.00 1184.00 L 2724.00 1183.00 L 2504.00 1183.00 L 2484.00 1182.00 L 2284.00 1182.00 L 2264.00 1181.00 L 2044.00 1181.00 L 2024.00 1180.00 L 1804.00 1180.00 L 1784.00 1179.00 L 1584.00 1179.00 L 1564.00 1178.00 L 1344.00 1178.00 L 1324.00 1177.00 L 1104.00 1177.00 L 1084.00 1176.00 Z" />
<path id="csg562-008-05" fill="none" stroke="black" stroke-width="1" d="M 912.00 1295.00 L 912.00 1383.00 L 910.89 1398.00 L 1244.00 1398.00 L 1264.00 1399.00 L 1624.00 1399.00 L 1644.00 1400.00 L 1944.00 1400.00 L 1964.00 1420.00 L 1984.00 1420.00 L 2004.00 1400.00 L 2024.00 1401.00 L 2224.00 1401.00 L 2244.00 1421.00 L 2264.00 1421.00 L 2284.00 1401.00 L 2384.00 1401.00 L 2404.00 1402.00 L 2764.00 1402.00 L 2784.00 1403.00 L 3084.88 1403.00 L 3096.88 1307.00 L 3064.00 1307.00 L 3044.00 1306.00 L 2884.00 1306.00 L 2864.00 1305.00 L 2704.00 1305.00 L 2684.00 1304.00 L 2524.00 1304.00 L 2504.00 1303.00 L 2344.00 1303.00 L 2324.00 1302.00 L 2164.00 1302.00 L 2144.00 1301.00 L 1964.00 1301.00 L 1944.00 1300.00 L 1784.00 1300.00 L 1764.00 1299.00 L 1604.00 1299.00 L 1584.00 1298.00 L 1424.00 1298.00 L 1404.00 1297.00 L 1244.00 1297.00 L 1224.00 1296.00 L 1064.00 1296.00 L 1044.00 1295.00 Z" />
<path id="csg562-008-06" fill="none" stroke="black" stroke-width="1" d="M 910.89 1398.00 L 902.34 1514.00 L 1664.00 1514.00 L 1684.00 1515.00 L 1964.00 1515.00 L 1984.00 1495.00 L 2004.00 1495.00 L 2024.00 1515.00 L 2484.00 1515.00 L 2504.00 1516.00 L 3052.92 1516.00 L 3078.00 1458.00 L 3084.88 1403.00 L 2784.00 1403.00 L 2764.00 1402.00 L 2404.00 1402.00 L 2384.00 1401.00 L 2284.00 1401.00 L 2264.00 1421.00 L 2244.00 1421.00 L 2224.00 1401.00 L 2024.00 1401.00 L 2004.00 1400.00 L 1984.00 1420.00 L 1964.00 1420.00 L 1944.00 1400.00 L 1644.00 1400.00 L 1624.00 1399.00 L 1264.00 1399.00 L 1244.00 1398.00 Z" />
<path id="csg562-008-07" fill="none" stroke="black" stroke-width="1" d="M 1984.00 1495.00 L 1964.00 1515.00 L 1684.00 1515.00 L 1664.00 1514.00 L 902.34 1514.00 L 893.94 1628.00 L 1404.00 1628.00 L 1424.00 1629.00 L 1444.00 1629.00 L 1464.00 1649.00 L 1484.00 1629.00 L 1964.00 1629.00 L 1984.00 1630.00 L 2524.00 1630.00 L 2544.00 1631.00 L 2764.00 1631.00 L 2784.00 1651.00 L 2804.00 1651.00 L 2824.00 1631.00 L 3014.50 1631.00 L 3030.00 1569.00 L 3052.92 1516.00 L 2504.00 1516.00 L 2484.00 1515.00 L 2024.00 1515.00 L 2004.00 1495.00 Z" />
<path id="csg562-008-08" fill="none" stroke="black" stroke-width="1" d="M 893.94 1628.00 L 886.19 1733.00 L 1224.00 1733.00 L 1244.00 1734.00 L 1604.00 1734.00 L 1624.00 1735.00 L 1984.00 1735.00 L 2004.00 1736.00 L 2344.00 1736.00 L 2364.00 1737.00 L 2724.00 1737.00 L 2744.00 1738.00 L 2987.95 1738.00 L 2988.00 1737.00 L 3014.50 1631.00 L 2824.00 1631.00 L 2804.00 1651.00 L 2784.00 1651.00 L 2764.00 1631.00 L 2544.00 1631.00 L 2524.00 1630.00 L 1984.00 1630.00 L 1964.00 1629.00 L 1484.00 1629.00 L 1464.00 1649.00 L 1444.00 1629.00 L 1424.00 1629.00 L 1404.00 1628.00 Z" />
<path id="csg562-008-09" fill="none" stroke="black" stroke-width="1" d="M 886.19 1733.00 L 876.94 1858.53 L 884.00 1855.00 L 1844.00 1855.00 L 1864.00 1856.00 L 2824.00 1856.00 L 2844.00 1857.00 L 2982.15 1857.00 L 2987.95 1738.00 L 2744.00 1738.00 L 2724.00 1737.00 L 2364.00 1737.00 L 2344.00 1736.00 L 2004.00 1736.00 L 1984.00 1735.00 L 1624.00 1735.00 L 1604.00 1734.00 L 1244.00 1734.00 L 1224.00 1733.00 Z" />
<path id="csg562-008-10" fill="none" stroke="black" stroke-width="1" d="M 884.00 1855.00 L 876.94 1858.53 L 868.59 1971.70 L 884.00 1964.00 L 1244.00 1964.00 L 1264.00 1965.00 L 1644.00 1965.00 L 1664.00 1966.00 L 2044.00 1966.00 L 2064.00 1967.00 L 2364.00 1967.00 L 2384.00 1927.00 L 2404.00 1947.00 L 2424.00 1967.00 L 2444.00 1967.00 L 2464.00 1968.00 L 2844.00 1968.00 L 2864.00 1969.00 L 2976.68 1969.00 L 2982.15 1857.00 L 2844.00 1857.00 L 2824.00 1856.00 L 1864.00 1856.00 L 1844.00 1855.00 Z" />
<path id="csg562-008-11" fill="none" stroke="black" stroke-width="1" d="M 2384.00 1927.00 L 2364.00 1967.00 L 2064.00 1967.00 L 2044.00 1966.00 L 1664.00 1966.00 L 1644.00 1965.00 L 1264.00 1965.00 L 1244.00 1964.00 L 884.00 1964.00 L 868.59 1971.70 L 864.00 2034.00 L 868.25 2085.87 L 884.00 2078.00 L 1084.00 2078.00 L 1104.00 2079.00 L 1304.00 2079.00 L 1324.00 2080.00 L 1544.00 2080.00 L 1564.00 2081.00 L 1764.00 2081.00 L 1784.00 2082.00 L 1864.00 2082.00 L 1884.00 2102.00 L 1904.00 2082.00 L 1984.00 2082.00 L 2004.00 2083.00 L 2224.00 2083.00 L 2244.00 2084.00 L 2444.00 2084.00 L 2464.00 2085.00 L 2664.00 2085.00 L 2684.00 2086.00 L 2904.00 2086.00 L 2924.00 2087.00 L 3013.70 2087.00 L 2976.00 1983.00 L 2976.68 1969.00 L 2864.00 1969.00 L 2844.00 1968.00 L 2464.00 1968.00 L 2444.00 1967.00 L 2424.00 1967.00 L 2404.00 1947.00 L 2384.00 1927.00 Z" />
<path id="csg562-008-12" fill="none" stroke="black" stroke-width="1" d="M 884.00 2078.00 L 868.25 2085.87 L 876.36 2184.82 L 884.00 2181.00 L 1064.00 2181.00 L 1084.00 2201.00 L 1104.00 2201.00 L 1124.00 2181.00 L 1724.00 2181.00 L 1744.00 2182.00 L 1844.00 2182.00 L 1864.00 2162.00 L 1924.00 2162.00 L 1944.00 2182.00 L 2284.00 2182.00 L 2304.00 2202.00 L 2324.00 2202.00 L 2344.00 2182.00 L 2584.00 2182.00 L 2604.00 2183.00 L 3048.50 2183.00 L 3013.70 2087.00 L 2924.00 2087.00 L 2904.00 2086.00 L 2684.00 2086.00 L 2664.00 2085.00 L 2464.00 2085.00 L 2444.00 2084.00 L 2244.00 2084.00 L 2224.00 2083.00 L 2004.00 2083.00 L 1984.00 2082.00 L 1904.00 2082.00 L 1884.00 2102.00 L 1864.00 2082.00 L 1784.00 2082.00 L 1764.00 2081.00 L 1564.00 2081.00 L 1544.00 2080.00 L 1324.00 2080.00 L 1304.00 2079.00 L 1104.00 2079.00 L 1084.00 2078.00 Z" />
<path id="csg562-008-13" fill="none" stroke="black" stroke-width="1" d="M 1864.00 2162.00 L 1844.00 2182.00 L 1744.00 2182.00 L 1724.00 2181.00 L 1124.00 2181.00 L 1104.00 2201.00 L 1084.00 2201.00 L 1064.00 2181.00 L 884.00 2181.00 L 876.36 2184.82 L 885.39 2295.00 L 904.00 2295.00 L 924.00 2315.00 L 944.00 2295.00 L 1924.00 2295.00 L 1944.00 2294.00 L 2935.05 2294.00 L 2934.00 2292.00 L 3069.00 2277.00 L 3063.00 2223.00 L 3048.50 2183.00 L 2604.00 2183.00 L 2584.00 2182.00 L 2344.00 2182.00 L 2324.00 2202.00 L 2304.00 2202.00 L 2284.00 2182.00 L 1944.00 2182.00 L 1924.00 2162.00 Z" />
<path id="csg562-008-14" fill="none" stroke="black" stroke-width="1" d="M 1944.00 2294.00 L 1924.00 2295.00 L 944.00 2295.00 L 924.00 2315.00 L 904.00 2295.00 L 885.39 2295.00 L 893.92 2399.00 L 1364.00 2399.00 L 1384.00 2400.00 L 1864.00 2400.00 L 1884.00 2401.00 L 2004.00 2401.00 L 2024.00 2421.00 L 2044.00 2421.00 L 2064.00 2401.00 L 2284.00 2401.00 L 2304.00 2381.00 L 2324.00 2381.00 L 2344.00 2401.00 L 2364.00 2381.00 L 2384.00 2381.00 L 2404.00 2402.00 L 2884.00 2402.00 L 2904.00 2403.00 L 2924.00 2423.00 L 2944.00 2403.00 L 2992.14 2403.00 L 2935.05 2294.00 Z" />
<path id="csg562-008-15" fill="none" stroke="black" stroke-width="1" d="M 2304.00 2381.00 L 2284.00 2401.00 L 2064.00 2401.00 L 2044.00 2421.00 L 2024.00 2421.00 L 2004.00 2401.00 L 1884.00 2401.00 L 1864.00 2400.00 L 1384.00 2400.00 L 1364.00 2399.00 L 893.92 2399.00 L 903.10 2511.00 L 1164.00 2511.00 L 1184.00 2512.00 L 1464.00 2512.00 L 1484.00 2513.00 L 1524.00 2513.00 L 1544.00 2533.00 L 1564.00 2513.00 L 1784.00 2513.00 L 1804.00 2514.00 L 2084.00 2514.00 L 2104.00 2515.00 L 2404.00 2515.00 L 2424.00 2516.00 L 2704.00 2516.00 L 2724.00 2517.00 L 2994.26 2517.00 L 3000.00 2418.00 L 2992.14 2403.00 L 2944.00 2403.00 L 2924.00 2423.00 L 2904.00 2403.00 L 2884.00 2402.00 L 2404.00 2402.00 L 2384.00 2381.00 L 2364.00 2381.00 L 2344.00 2401.00 L 2324.00 2381.00 Z" />
<path id="csg562-008-16" fill="none" stroke="black" stroke-width="1" d="M 903.10 2511.00 L 909.00 2583.00 L 907.27 2622.00 L 2988.17 2622.00 L 2994.26 2517.00 L 2724.00 2517.00 L 2704.00 2516.00 L 2424.00 2516.00 L 2404.00 2515.00 L 2104.00 2515.00 L 2084.00 2514.00 L 1804.00 2514.00 L 1784.00 2513.00 L 1564.00 2513.00 L 1544.00 2533.00 L 1524.00 2513.00 L 1484.00 2513.00 L 1464.00 2512.00 L 1184.00 2512.00 L 1164.00 2511.00 Z" />
<path id="csg562-008-17" fill="none" stroke="black" stroke-width="1" d="M 907.27 2622.00 L 903.00 2718.00 L 1032.00 2727.00 L 1067.45 2742.00 L 1184.00 2742.00 L 1204.00 2743.00 L 1364.00 2743.00 L 1384.00 2744.00 L 1524.00 2744.00 L 1544.00 2745.00 L 1684.00 2745.00 L 1704.00 2746.00 L 1864.00 2746.00 L 1884.00 2747.00 L 2024.00 2747.00 L 2044.00 2748.00 L 2184.00 2748.00 L 2204.00 2749.00 L 2364.00 2749.00 L 2384.00 2750.00 L 2524.00 2750.00 L 2544.00 2751.00 L 2652.00 2751.00 L 2556.00 2748.00 L 2256.00 2748.00 L 2310.00 2646.00 L 2586.00 2622.00 Z" />
<path id="csg562-008-18" fill="none" stroke="black" stroke-width="1" d="M 1067.45 2742.00 L 1110.00 2760.00 L 1105.98 2843.00 L 1224.00 2843.00 L 1244.00 2844.00 L 1584.00 2844.00 L 1604.00 2845.00 L 1944.00 2845.00 L 1964.00 2846.00 L 2324.00 2846.00 L 2344.00 2847.00 L 2504.00 2847.00 L 2524.00 2867.00 L 2544.00 2847.00 L 2684.00 2847.00 L 2704.00 2848.00 L 2961.66 2848.00 L 2940.00 2760.00 L 2652.00 2751.00 L 2544.00 2751.00 L 2524.00 2750.00 L 2384.00 2750.00 L 2364.00 2749.00 L 2204.00 2749.00 L 2184.00 2748.00 L 2044.00 2748.00 L 2024.00 2747.00 L 1884.00 2747.00 L 1864.00 2746.00 L 1704.00 2746.00 L 1684.00 2745.00 L 1544.00 2745.00 L 1524.00 2744.00 L 1384.00 2744.00 L 1364.00 2743.00 L 1204.00 2743.00 L 1184.00 2742.00 Z" />
<path id="csg562-008-19" fill="none" stroke="black" stroke-width="1" d="M 1105.98 2843.00 L 1101.00 2946.00 L 1088.18 2949.00 L 1724.00 2949.00 L 1744.00 2968.00 L 1764.00 2948.00 L 2204.00 2948.00 L 2224.00 2968.00 L 2244.00 2968.00 L 2264.00 2948.00 L 2584.00 2948.00 L 2604.00 2947.00 L 2986.03 2947.00 L 2961.66 2848.00 L 2704.00 2848.00 L 2684.00 2847.00 L 2544.00 2847.00 L 2524.00 2867.00 L 2504.00 2847.00 L 2344.00 2847.00 L 2324.00 2846.00 L 1964.00 2846.00 L 1944.00 2845.00 L 1604.00 2845.00 L 1584.00 2844.00 L 1244.00 2844.00 L 1224.00 2843.00 Z" />
<path id="csg562-008-20" fill="none" stroke="black" stroke-width="1" d="M 2604.00 2947.00 L 2584.00 2948.00 L 2264.00 2948.00 L 2244.00 2968.00 L 2224.00 2968.00 L 2204.00 2948.00 L 1764.00 2948.00 L 1744.00 2968.00 L 1724.00 2949.00 L 1088.18 2949.00 L 960.00 2979.00 L 977.94 3061.00 L 1364.00 3061.00 L 1384.00 3062.00 L 1884.00 3062.00 L 1904.00 3063.00 L 2384.00 3063.00 L 2404.00 3064.00 L 2904.00 3064.00 L 2924.00 3065.00 L 2981.82 3065.00 L 2988.00 2955.00 L 2986.03 2947.00 Z" />
<path id="csg562-008-21" fill="none" stroke="black" stroke-width="1" d="M 977.94 3061.00 L 981.00 3075.00 L 915.00 3123.00 L 915.00 3181.00 L 1244.00 3181.00 L 1264.00 3182.00 L 1644.00 3182.00 L 1664.00 3183.00 L 1944.00 3183.00 L 1964.00 3163.00 L 1984.00 3163.00 L 2004.00 3143.00 L 2024.00 3183.00 L 2044.00 3184.00 L 2424.00 3184.00 L 2444.00 3185.00 L 2804.00 3185.00 L 2824.00 3186.00 L 2975.02 3186.00 L 2981.82 3065.00 L 2924.00 3065.00 L 2904.00 3064.00 L 2404.00 3064.00 L 2384.00 3063.00 L 1904.00 3063.00 L 1884.00 3062.00 L 1384.00 3062.00 L 1364.00 3061.00 Z" />
<path id="csg562-008-22" fill="none" stroke="black" stroke-width="1" d="M 2004.00 3143.00 L 1984.00 3163.00 L 1964.00 3163.00 L 1944.00 3183.00 L 1664.00 3183.00 L 1644.00 3182.00 L 1264.00 3182.00 L 1244.00 3181.00 L 915.00 3181.00 L 915.00 3288.00 L 924.00 3288.00 L 944.00 3308.00 L 964.00 3288.00 L 1244.00 3288.00 L 1264.00 3289.00 L 1544.00 3289.00 L 1564.00 3309.00 L 1584.00 3289.00 L 1644.00 3289.00 L 1664.00 3290.00 L 1864.00 3290.00 L 1884.00 3310.00 L 1924.00 3310.00 L 1944.00 3290.00 L 2024.00 3290.00 L 2044.00 3291.00 L 2424.00 3291.00 L 2444.00 3292.00 L 2804.00 3292.00 L 2824.00 3293.00 L 2972.12 3293.00 L 2973.00 3222.00 L 2975.02 3186.00 L 2824.00 3186.00 L 2804.00 3185.00 L 2444.00 3185.00 L 2424.00 3184.00 L 2044.00 3184.00 L 2024.00 3183.00 L 2004.00 3143.00 Z" />
<path id="csg562-008-23" fill="none" stroke="black" stroke-width="1" d="M 915.00 3288.00 L 915.00 3390.00 L 924.00 3390.00 L 944.00 3410.00 L 964.00 3390.00 L 2970.93 3390.00 L 2972.12 3293.00 L 2824.00 3293.00 L 2804.00 3292.00 L 2444.00 3292.00 L 2424.00 3291.00 L 2044.00 3291.00 L 2024.00 3290.00 L 1944.00 3290.00 L 1924.00 3310.00 L 1884.00 3310.00 L 1864.00 3290.00 L 1664.00 3290.00 L 1644.00 3289.00 L 1584.00 3289.00 L 1564.00 3309.00 L 1544.00 3289.00 L 1264.00 3289.00 L 1244.00 3288.00 L 964.00 3288.00 L 944.00 3308.00 L 924.00 3288.00 Z" />
<path id="csg562-008-24" fill="none" stroke="black" stroke-width="1" d="M 915.00 3390.00 L 915.00 3495.00 L 1146.00 3506.00 L 1244.00 3506.00 L 1264.00 3505.00 L 1644.00 3505.00 L 1664.00 3504.00 L 2024.00 3504.00 L 2044.00 3503.00 L 2424.00 3503.00 L 2444.00 3502.00 L 2804.00 3502.00 L 2824.00 3501.00 L 2884.00 3501.00 L 2904.00 3521.00 L 2924.00 3521.00 L 2944.00 3501.00 L 2952.00 3501.00 L 2970.00 3465.00 L 2970.93 3390.00 L 964.00 3390.00 L 944.00 3410.00 L 924.00 3390.00 Z" />
</svg>
