<?xml version="1.0" standalone="no"?>
<!DOCTYPE svg PUBLIC "-//W3C//DTD SVG 1.1//EN" "http://www.w3.org/Graphics/SVG/1.1/DTD/svg11.dtd">
<svg width="46.22222in" height="69.333336in" viewBox="0 0 3328 4992" xmlns="http://www.w3.org/2000/svg" version="1.1">
<path id="csg562-006-01" fill="none" stroke="black" stroke-width="1" d="M 1269.00 819.00 L 864.00 861.00 L 857.16 931.98 L 860.00 929.00 L 880.00 923.00 L 900.00 923.00 L 920.00 925.00 L 940.00 931.00 L 960.00 940.00 L 980.00 940.00 L 1000.00 960.00 L 1020.00 940.00 L 1560.00 940.00 L 1580.00 960.00 L 1600.00 940.00 L 2300.00 940.00 L 2320.00 941.00 L 2380.00 941.00 L 2400.00 961.00 L 2420.00 941.00 L 2800.00 941.00 L 2820.00 961.00 L 2840.00 961.00 L 2860.00 941.00 L 2943.39 941.00 L 2835.00 828.00 L 2490.00 855.00 L 2130.00 819.00 L 1902.00 846.00 L 1506.00 843.00 L 1269.00 819.00 Z" />
<path id="csg562-006-02" fill="none" stroke="black" stroke-width="1" d="M 880.00 923.00 L 860.00 929.00 L 857.16 931.98 L 845.47 1053.27 L 860.00 1046.00 L 1620.00 1046.00 L 1640.00 1047.00 L 1960.00 1047.00 L 1980.00 1027.00 L 2020.00 1027.00 L 2040.00 1047.00 L 2400.00 1047.00 L 2420.00 1048.00 L 2560.00 1048.00 L 2580.00 1088.00 L 2620.00 1088.00 L 2640.00 1048.00 L 2970.20 1048.00 L 2970.00 1044.00 L 2976.00 975.00 L 2943.39 941.00 L 2860.00 941.00 L 2840.00 961.00 L 2820.00 961.00 L 2800.00 941.00 L 2420.00 941.00 L 2400.00 961.00 L 2380.00 941.00 L 2320.00 941.00 L 2300.00 940.00 L 1600.00 940.00 L 1580.00 960.00 L 1560.00 940.00 L 1020.00 940.00 L 1000.00 960.00 L 980.00 940.00 L 960.00 940.00 L 940.00 931.00 L 920.00 925.00 L 900.00 923.00 Z" />
<path id="csg562-006-03" fill="none" stroke="black" stroke-width="1" d="M 1980.00 1027.00 L 1960.00 1047.00 L 1640.00 1047.00 L 1620.00 1046.00 L 860.00 1046.00 L 845.47 1053.27 L 840.00 1110.00 L 844.39 1175.81 L 860.00 1168.00 L 1040.00 1168.00 L 1060.00 1169.00 L 1260.00 1169.00 L 1280.00 1170.00 L 1460.00 1170.00 L 1480.00 1171.00 L 1680.00 1171.00 L 1700.00 1172.00 L 1900.00 1172.00 L 1920.00 1173.00 L 2100.00 1173.00 L 2120.00 1174.00 L 2200.00 1174.00 L 2220.00 1194.00 L 2240.00 1174.00 L 2320.00 1174.00 L 2340.00 1175.00 L 2400.00 1175.00 L 2420.00 1195.00 L 2440.00 1175.00 L 2520.00 1175.00 L 2540.00 1176.00 L 2740.00 1176.00 L 2760.00 1177.00 L 2960.00 1177.00 L 2976.63 1177.83 L 2970.20 1048.00 L 2640.00 1048.00 L 2620.00 1088.00 L 2580.00 1088.00 L 2560.00 1048.00 L 2420.00 1048.00 L 2400.00 1047.00 L 2040.00 1047.00 L 2020.00 1027.00 Z" />
<path id="csg562-006-04" fill="none" stroke="black" stroke-width="1" d="M 860.00 1168.00 L 844.39 1175.81 L 852.06 1290.97 L 860.00 1287.00 L 1020.00 1287.00 L 1040.00 1307.00 L 1060.00 1287.00 L 1220.00 1287.00 L 1240.00 1288.00 L 1380.00 1288.00 L 1400.00 1308.00 L 1420.00 1308.00 L 1440.00 1288.00 L 1600.00 1288.00 L 1620.00 1289.00 L 2000.00 1289.00 L 2020.00 1290.00 L 2380.00 1290.00 L 2400.00 1291.00 L 2680.00 1291.00 L 2700.00 1311.00 L 2720.00 1311.00 L 2740.00 1291.00 L 2760.00 1291.00 L 2780.00 1292.00 L 2982.28 1292.00 L 2976.63 1177.83 L 2960.00 1177.00 L 2760.00 1177.00 L 2740.00 1176.00 L 2540.00 1176.00 L 2520.00 1175.00 L 2440.00 1175.00 L 2420.00 1195.00 L 2400.00 1175.00 L 2340.00 1175.00 L 2320.00 1174.00 L 2240.00 1174.00 L 2220.00 1194.00 L 2200.00 1174.00 L 2120.00 1174.00 L 2100.00 1173.00 L 1920.00 1173.00 L 1900.00 1172.00 L 1700.00 1172.00 L 1680.00 1171.00 L 1480.00 1171.00 L 1460.00 1170.00 L 1280.00 1170.00 L 1260.00 1169.00 L 1060.00 1169.00 L 1040.00 1168.00 Z" />
<path id="csg562-006-05" fill="none" stroke="black" stroke-width="1" d="M 860.00 1287.00 L 852.06 1290.97 L 859.48 1402.26 L 860.00 1402.00 L 1180.00 1402.00 L 1200.00 1403.00 L 1220.00 1423.00 L 1240.00 1403.00 L 1520.00 1403.00 L 1540.00 1404.00 L 1880.00 1404.00 L 1900.00 1425.00 L 1920.00 1425.00 L 1940.00 1405.00 L 2220.00 1405.00 L 2240.00 1406.00 L 2580.00 1406.00 L 2600.00 1407.00 L 2920.00 1407.00 L 2940.00 1408.00 L 2996.24 1408.00 L 2985.00 1347.00 L 2982.28 1292.00 L 2780.00 1292.00 L 2760.00 1291.00 L 2740.00 1291.00 L 2720.00 1311.00 L 2700.00 1311.00 L 2680.00 1291.00 L 2400.00 1291.00 L 2380.00 1290.00 L 2020.00 1290.00 L 2000.00 1289.00 L 1620.00 1289.00 L 1600.00 1288.00 L 1440.00 1288.00 L 1420.00 1308.00 L 1400.00 1308.00 L 1380.00 1288.00 L 1240.00 1288.00 L 1220.00 1287.00 L 1060.00 1287.00 L 1040.00 1307.00 L 1020.00 1287.00 Z" />
<path id="csg562-006-06" fill="none" stroke="black" stroke-width="1" d="M 860.00 1402.00 L 859.48 1402.26 L 867.20 1518.00 L 1000.00 1518.00 L 1020.00 1519.00 L 1160.00 1519.00 L 1180.00 1520.00 L 1340.00 1520.00 L 1360.00 1521.00 L 1500.00 1521.00 L 1520.00 1522.00 L 1680.00 1522.00 L 1700.00 1523.00 L 1840.00 1523.00 L 1860.00 1524.00 L 2020.00 1524.00 L 2040.00 1525.00 L 2180.00 1525.00 L 2200.00 1526.00 L 2360.00 1526.00 L 2380.00 1527.00 L 2520.00 1527.00 L 2540.00 1528.00 L 2700.00 1528.00 L 2720.00 1529.00 L 2860.00 1529.00 L 2880.00 1530.00 L 3018.71 1530.00 L 2996.24 1408.00 L 2940.00 1408.00 L 2920.00 1407.00 L 2600.00 1407.00 L 2580.00 1406.00 L 2240.00 1406.00 L 2220.00 1405.00 L 1940.00 1405.00 L 1920.00 1425.00 L 1900.00 1425.00 L 1880.00 1404.00 L 1540.00 1404.00 L 1520.00 1403.00 L 1240.00 1403.00 L 1220.00 1423.00 L 1200.00 1403.00 L 1180.00 1402.00 Z" />
<path id="csg562-006-07" fill="none" stroke="black" stroke-width="1" d="M 867.20 1518.00 L 870.00 1560.00 L 871.22 1620.00 L 1220.00 1620.00 L 1240.00 1640.00 L 1260.00 1640.00 L 1280.00 1620.00 L 1800.00 1620.00 L 1820.00 1640.00 L 1840.00 1620.00 L 2380.00 1620.00 L 2400.00 1640.00 L 2420.00 1640.00 L 2440.00 1620.00 L 2720.00 1620.00 L 2740.00 1640.00 L 2780.00 1640.00 L 2800.00 1620.00 L 3007.38 1620.00 L 3027.00 1575.00 L 3018.71 1530.00 L 2880.00 1530.00 L 2860.00 1529.00 L 2720.00 1529.00 L 2700.00 1528.00 L 2540.00 1528.00 L 2520.00 1527.00 L 2380.00 1527.00 L 2360.00 1526.00 L 2200.00 1526.00 L 2180.00 1525.00 L 2040.00 1525.00 L 2020.00 1524.00 L 1860.00 1524.00 L 1840.00 1523.00 L 1700.00 1523.00 L 1680.00 1522.00 L 1520.00 1522.00 L 1500.00 1521.00 L 1360.00 1521.00 L 1340.00 1520.00 L 1180.00 1520.00 L 1160.00 1519.00 L 1020.00 1519.00 L 1000.00 1518.00 Z" />
<path id="csg562-006-08" fill="none" stroke="black" stroke-width="1" d="M 871.22 1620.00 L 873.59 1736.00 L 1080.00 1736.00 L 1100.00 1756.00 L 1120.00 1756.00 L 1140.00 1736.00 L 2660.00 1736.00 L 2680.00 1756.00 L 2700.00 1736.00 L 2905.60 1736.00 L 2976.00 1692.00 L 3007.38 1620.00 L 2800.00 1620.00 L 2780.00 1640.00 L 2740.00 1640.00 L 2720.00 1620.00 L 2440.00 1620.00 L 2420.00 1640.00 L 2400.00 1640.00 L 2380.00 1620.00 L 1840.00 1620.00 L 1820.00 1640.00 L 1800.00 1620.00 L 1280.00 1620.00 L 1260.00 1640.00 L 1240.00 1640.00 L 1220.00 1620.00 Z" />
<path id="csg562-006-09" fill="none" stroke="black" stroke-width="1" d="M 873.59 1736.00 L 875.65 1837.00 L 2400.00 1837.00 L 2420.00 1857.00 L 2440.00 1857.00 L 2460.00 1837.00 L 2780.00 1837.00 L 2800.00 1857.00 L 2820.00 1856.00 L 2840.00 1836.00 L 2950.88 1836.00 L 2856.00 1767.00 L 2905.60 1736.00 L 2700.00 1736.00 L 2680.00 1756.00 L 2660.00 1736.00 L 1140.00 1736.00 L 1120.00 1756.00 L 1100.00 1756.00 L 1080.00 1736.00 Z" />
<path id="csg562-006-10" fill="none" stroke="black" stroke-width="1" d="M 2840.00 1836.00 L 2820.00 1856.00 L 2800.00 1857.00 L 2780.00 1837.00 L 2460.00 1837.00 L 2440.00 1857.00 L 2420.00 1857.00 L 2400.00 1837.00 L 875.65 1837.00 L 876.00 1854.00 L 868.05 1960.05 L 880.00 1972.00 L 900.00 1952.00 L 1080.00 1952.00 L 1100.00 1953.00 L 1340.00 1953.00 L 1360.00 1954.00 L 1600.00 1954.00 L 1620.00 1955.00 L 1860.00 1955.00 L 1880.00 1956.00 L 2120.00 1956.00 L 2140.00 1957.00 L 2380.00 1957.00 L 2400.00 1958.00 L 2640.00 1958.00 L 2660.00 1959.00 L 2900.00 1959.00 L 2920.00 1960.00 L 2997.84 1960.00 L 2988.00 1863.00 L 2950.88 1836.00 Z" />
<path id="csg562-006-11" fill="none" stroke="black" stroke-width="1" d="M 900.00 1952.00 L 880.00 1972.00 L 868.05 1960.05 L 867.00 1974.00 L 867.68 2059.00 L 940.00 2059.00 L 960.00 2060.00 L 1060.00 2060.00 L 1080.00 2061.00 L 1160.00 2061.00 L 1180.00 2062.00 L 1280.00 2062.00 L 1300.00 2063.00 L 1380.00 2063.00 L 1400.00 2064.00 L 1500.00 2064.00 L 1520.00 2065.00 L 1600.00 2065.00 L 1620.00 2066.00 L 1720.00 2066.00 L 1740.00 2067.00 L 1820.00 2067.00 L 1840.00 2068.00 L 1860.00 2068.00 L 1880.00 2048.00 L 1900.00 2028.00 L 1920.00 2048.00 L 1940.00 2028.00 L 1960.00 2049.00 L 1980.00 2069.00 L 2040.00 2069.00 L 2060.00 2070.00 L 2160.00 2070.00 L 2180.00 2071.00 L 2260.00 2071.00 L 2280.00 2072.00 L 2380.00 2072.00 L 2400.00 2073.00 L 2480.00 2073.00 L 2500.00 2074.00 L 2600.00 2074.00 L 2620.00 2075.00 L 2700.00 2075.00 L 2720.00 2076.00 L 2820.00 2076.00 L 2840.00 2077.00 L 2940.00 2077.00 L 2960.00 2078.00 L 3007.97 2078.00 L 3009.00 2070.00 L 2997.84 1960.00 L 2920.00 1960.00 L 2900.00 1959.00 L 2660.00 1959.00 L 2640.00 1958.00 L 2400.00 1958.00 L 2380.00 1957.00 L 2140.00 1957.00 L 2120.00 1956.00 L 1880.00 1956.00 L 1860.00 1955.00 L 1620.00 1955.00 L 1600.00 1954.00 L 1360.00 1954.00 L 1340.00 1953.00 L 1100.00 1953.00 L 1080.00 1952.00 Z" />
<path id="csg562-006-12" fill="none" stroke="black" stroke-width="1" d="M 1900.00 2028.00 L 1880.00 2048.00 L 1860.00 2068.00 L 1840.00 2068.00 L 1820.00 2067.00 L 1740.00 2067.00 L 1720.00 2066.00 L 1620.00 2066.00 L 1600.00 2065.00 L 1520.00 2065.00 L 1500.00 2064.00 L 1400.00 2064.00 L 1380.00 2063.00 L 1300.00 2063.00 L 1280.00 2062.00 L 1180.00 2062.00 L 1160.00 2061.00 L 1080.00 2061.00 L 1060.00 2060.00 L 960.00 2060.00 L 940.00 2059.00 L 867.68 2059.00 L 868.50 2161.00 L 920.00 2161.00 L 940.00 2162.00 L 1000.00 2162.00 L 1020.00 2163.00 L 1080.00 2163.00 L 1100.00 2164.00 L 1160.00 2164.00 L 1180.00 2165.00 L 1260.00 2165.00 L 1280.00 2166.00 L 1340.00 2166.00 L 1360.00 2167.00 L 1420.00 2167.00 L 1440.00 2168.00 L 1500.00 2168.00 L 1520.00 2169.00 L 1580.00 2169.00 L 1600.00 2170.00 L 1680.00 2170.00 L 1700.00 2171.00 L 1760.00 2171.00 L 1780.00 2183.00 L 1800.00 2183.00 L 1820.00 2177.00 L 1840.00 2172.00 L 1860.00 2173.00 L 1920.00 2173.00 L 1940.00 2174.00 L 2020.00 2174.00 L 2040.00 2175.00 L 2100.00 2175.00 L 2120.00 2176.00 L 2180.00 2176.00 L 2200.00 2177.00 L 2260.00 2177.00 L 2280.00 2178.00 L 2340.00 2178.00 L 2360.00 2179.00 L 2440.00 2179.00 L 2460.00 2180.00 L 2520.00 2180.00 L 2540.00 2181.00 L 2600.00 2181.00 L 2620.00 2182.00 L 2680.00 2182.00 L 2700.00 2183.00 L 2780.00 2183.00 L 2800.00 2184.00 L 2860.00 2184.00 L 2880.00 2185.00 L 2940.00 2185.00 L 2960.00 2186.00 L 3000.44 2186.00 L 2997.00 2163.00 L 3007.97 2078.00 L 2960.00 2078.00 L 2940.00 2077.00 L 2840.00 2077.00 L 2820.00 2076.00 L 2720.00 2076.00 L 2700.00 2075.00 L 2620.00 2075.00 L 2600.00 2074.00 L 2500.00 2074.00 L 2480.00 2073.00 L 2400.00 2073.00 L 2380.00 2072.00 L 2280.00 2072.00 L 2260.00 2071.00 L 2180.00 2071.00 L 2160.00 2070.00 L 2060.00 2070.00 L 2040.00 2069.00 L 1980.00 2069.00 L 1960.00 2049.00 L 1940.00 2028.00 L 1920.00 2048.00 L 1900.00 2028.00 Z" />
<path id="csg562-006-13" fill="none" stroke="black" stroke-width="1" d="M 868.50 2161.00 L 869.38 2272.00 L 900.00 2272.00 L 920.00 2273.00 L 980.00 2273.00 L 1000.00 2274.00 L 1060.00 2274.00 L 1080.00 2275.00 L 1140.00 2275.00 L 1160.00 2276.00 L 1220.00 2276.00 L 1240.00 2277.00 L 1300.00 2277.00 L 1320.00 2278.00 L 1380.00 2278.00 L 1400.00 2279.00 L 1460.00 2279.00 L 1480.00 2280.00 L 1540.00 2280.00 L 1560.00 2281.00 L 1620.00 2281.00 L 1640.00 2282.00 L 1700.00 2282.00 L 1720.00 2283.00 L 1780.00 2283.00 L 1800.00 2284.00 L 1860.00 2284.00 L 1880.00 2285.00 L 1940.00 2285.00 L 1960.00 2286.00 L 2000.00 2286.00 L 2020.00 2287.00 L 2080.00 2287.00 L 2100.00 2288.00 L 2160.00 2288.00 L 2180.00 2289.00 L 2240.00 2289.00 L 2260.00 2290.00 L 2280.00 2290.00 L 2300.00 2270.00 L 2320.00 2270.00 L 2340.00 2291.00 L 2400.00 2291.00 L 2420.00 2292.00 L 2480.00 2292.00 L 2500.00 2293.00 L 2560.00 2293.00 L 2580.00 2294.00 L 2640.00 2294.00 L 2660.00 2295.00 L 2720.00 2295.00 L 2740.00 2296.00 L 2800.00 2296.00 L 2820.00 2297.00 L 2880.00 2297.00 L 2900.00 2298.00 L 2960.00 2298.00 L 2980.00 2299.00 L 3017.32 2299.00 L 3000.44 2186.00 L 2960.00 2186.00 L 2940.00 2185.00 L 2880.00 2185.00 L 2860.00 2184.00 L 2800.00 2184.00 L 2780.00 2183.00 L 2700.00 2183.00 L 2680.00 2182.00 L 2620.00 2182.00 L 2600.00 2181.00 L 2540.00 2181.00 L 2520.00 2180.00 L 2460.00 2180.00 L 2440.00 2179.00 L 2360.00 2179.00 L 2340.00 2178.00 L 2280.00 2178.00 L 2260.00 2177.00 L 2200.00 2177.00 L 2180.00 2176.00 L 2120.00 2176.00 L 2100.00 2175.00 L 2040.00 2175.00 L 2020.00 2174.00 L 1940.00 2174.00 L 1920.00 2173.00 L 1860.00 2173.00 L 1840.00 2172.00 L 1820.00 2177.00 L 1800.00 2183.00 L 1780.00 2183.00 L 1760.00 2171.00 L 1700.00 2171.00 L 1680.00 2170.00 L 1600.00 2170.00 L 1580.00 2169.00 L 1520.00 2169.00 L 1500.00 2168.00 L 1440.00 2168.00 L 1420.00 2167.00 L 1360.00 2167.00 L 1340.00 2166.00 L 1280.00 2166.00 L 1260.00 2165.00 L 1180.00 2165.00 L 1160.00 2164.00 L 1100.00 2164.00 L 1080.00 2163.00 L 1020.00 2163.00 L 1000.00 2162.00 L 940.00 2162.00 L 920.00 2161.00 Z" />
<path id="csg562-006-14" fill="none" stroke="black" stroke-width="1" d="M 2300.00 2270.00 L 2280.00 2290.00 L 2260.00 2290.00 L 2240.00 2289.00 L 2180.00 2289.00 L 2160.00 2288.00 L 2100.00 2288.00 L 2080.00 2287.00 L 2020.00 2287.00 L 2000.00 2286.00 L 1960.00 2286.00 L 1940.00 2285.00 L 1880.00 2285.00 L 1860.00 2284.00 L 1800.00 2284.00 L 1780.00 2283.00 L 1720.00 2283.00 L 1700.00 2282.00 L 1640.00 2282.00 L 1620.00 2281.00 L 1560.00 2281.00 L 1540.00 2280.00 L 1480.00 2280.00 L 1460.00 2279.00 L 1400.00 2279.00 L 1380.00 2278.00 L 1320.00 2278.00 L 1300.00 2277.00 L 1240.00 2277.00 L 1220.00 2276.00 L 1160.00 2276.00 L 1140.00 2275.00 L 1080.00 2275.00 L 1060.00 2274.00 L 1000.00 2274.00 L 980.00 2273.00 L 920.00 2273.00 L 900.00 2272.00 L 869.38 2272.00 L 870.00 2349.00 L 870.46 2386.00 L 1040.00 2386.00 L 1060.00 2387.00 L 1240.00 2387.00 L 1260.00 2388.00 L 1440.00 2388.00 L 1460.00 2389.00 L 1640.00 2389.00 L 1660.00 2390.00 L 1840.00 2390.00 L 1860.00 2391.00 L 2040.00 2391.00 L 2060.00 2392.00 L 2140.00 2392.00 L 2160.00 2412.00 L 2180.00 2412.00 L 2200.00 2392.00 L 2240.00 2392.00 L 2260.00 2393.00 L 2320.00 2393.00 L 2340.00 2413.00 L 2360.00 2413.00 L 2380.00 2393.00 L 2440.00 2393.00 L 2460.00 2394.00 L 2640.00 2394.00 L 2660.00 2395.00 L 2840.00 2395.00 L 2860.00 2396.00 L 3031.82 2396.00 L 3017.32 2299.00 L 2980.00 2299.00 L 2960.00 2298.00 L 2900.00 2298.00 L 2880.00 2297.00 L 2820.00 2297.00 L 2800.00 2296.00 L 2740.00 2296.00 L 2720.00 2295.00 L 2660.00 2295.00 L 2640.00 2294.00 L 2580.00 2294.00 L 2560.00 2293.00 L 2500.00 2293.00 L 2480.00 2292.00 L 2420.00 2292.00 L 2400.00 2291.00 L 2340.00 2291.00 L 2320.00 2270.00 Z" />
<path id="csg562-006-15" fill="none" stroke="black" stroke-width="1" d="M 870.46 2386.00 L 871.91 2502.00 L 1160.00 2502.00 L 1180.00 2503.00 L 1480.00 2503.00 L 1500.00 2504.00 L 1820.00 2504.00 L 1840.00 2505.00 L 1940.00 2505.00 L 1960.00 2525.00 L 1980.00 2505.00 L 2140.00 2505.00 L 2160.00 2506.00 L 2460.00 2506.00 L 2480.00 2507.00 L 2580.00 2507.00 L 2600.00 2527.00 L 2620.00 2507.00 L 2800.00 2507.00 L 2820.00 2508.00 L 3012.00 2508.00 L 3036.00 2424.00 L 3031.82 2396.00 L 2860.00 2396.00 L 2840.00 2395.00 L 2660.00 2395.00 L 2640.00 2394.00 L 2460.00 2394.00 L 2440.00 2393.00 L 2380.00 2393.00 L 2360.00 2413.00 L 2340.00 2413.00 L 2320.00 2393.00 L 2260.00 2393.00 L 2240.00 2392.00 L 2200.00 2392.00 L 2180.00 2412.00 L 2160.00 2412.00 L 2140.00 2392.00 L 2060.00 2392.00 L 2040.00 2391.00 L 1860.00 2391.00 L 1840.00 2390.00 L 1660.00 2390.00 L 1640.00 2389.00 L 1460.00 2389.00 L 1440.00 2388.00 L 1260.00 2388.00 L 1240.00 2387.00 L 1060.00 2387.00 L 1040.00 2386.00 Z" />
<path id="csg562-006-16" fill="none" stroke="black" stroke-width="1" d="M 871.91 2502.00 L 873.31 2614.00 L 2180.00 2614.00 L 2200.00 2634.00 L 2220.00 2614.00 L 3012.36 2614.00 L 3000.00 2550.00 L 3012.00 2508.00 L 2820.00 2508.00 L 2800.00 2507.00 L 2620.00 2507.00 L 2600.00 2527.00 L 2580.00 2507.00 L 2480.00 2507.00 L 2460.00 2506.00 L 2160.00 2506.00 L 2140.00 2505.00 L 1980.00 2505.00 L 1960.00 2525.00 L 1940.00 2505.00 L 1840.00 2505.00 L 1820.00 2504.00 L 1500.00 2504.00 L 1480.00 2503.00 L 1180.00 2503.00 L 1160.00 2502.00 Z" />
<path id="csg562-006-17" fill="none" stroke="black" stroke-width="1" d="M 873.31 2614.00 L 874.58 2715.00 L 1080.00 2715.00 L 1100.00 2716.00 L 1340.00 2716.00 L 1360.00 2717.00 L 1580.00 2717.00 L 1600.00 2718.00 L 1840.00 2718.00 L 1860.00 2719.00 L 2080.00 2719.00 L 2100.00 2720.00 L 2340.00 2720.00 L 2360.00 2721.00 L 2600.00 2721.00 L 2620.00 2722.00 L 2780.00 2722.00 L 2800.00 2742.00 L 2820.00 2742.00 L 2840.00 2722.00 L 2860.00 2723.00 L 3033.42 2723.00 L 3012.36 2614.00 L 2220.00 2614.00 L 2200.00 2634.00 L 2180.00 2614.00 Z" />
<path id="csg562-006-18" fill="none" stroke="black" stroke-width="1" d="M 874.58 2715.00 L 875.97 2827.00 L 1220.00 2827.00 L 1240.00 2828.00 L 1620.00 2828.00 L 1640.00 2829.00 L 2020.00 2829.00 L 2040.00 2830.00 L 2420.00 2830.00 L 2440.00 2831.00 L 2788.71 2831.00 L 3051.00 2814.00 L 3033.42 2723.00 L 2860.00 2723.00 L 2840.00 2722.00 L 2820.00 2742.00 L 2800.00 2742.00 L 2780.00 2722.00 L 2620.00 2722.00 L 2600.00 2721.00 L 2360.00 2721.00 L 2340.00 2720.00 L 2100.00 2720.00 L 2080.00 2719.00 L 1860.00 2719.00 L 1840.00 2718.00 L 1600.00 2718.00 L 1580.00 2717.00 L 1360.00 2717.00 L 1340.00 2716.00 L 1100.00 2716.00 L 1080.00 2715.00 Z" />
<path id="csg562-006-19" fill="none" stroke="black" stroke-width="1" d="M 875.97 2827.00 L 876.00 2829.00 L 861.00 2904.00 L 863.56 2930.00 L 1700.00 2930.00 L 1720.00 2950.00 L 1740.00 2950.00 L 1760.00 2930.00 L 2080.00 2930.00 L 2100.00 2950.00 L 2120.00 2950.00 L 2140.00 2930.00 L 2640.00 2930.00 L 2660.00 2950.00 L 2680.00 2950.00 L 2700.00 2930.00 L 2727.00 2930.00 L 2727.00 2835.00 L 2788.71 2831.00 L 2440.00 2831.00 L 2420.00 2830.00 L 2040.00 2830.00 L 2020.00 2829.00 L 1640.00 2829.00 L 1620.00 2828.00 L 1240.00 2828.00 L 1220.00 2827.00 Z" />
<path id="csg562-006-20" fill="none" stroke="black" stroke-width="1" d="M 863.56 2930.00 L 874.90 3045.00 L 980.00 3045.00 L 1000.00 3046.00 L 1140.00 3046.00 L 1160.00 3047.00 L 1280.00 3047.00 L 1300.00 3048.00 L 1440.00 3048.00 L 1460.00 3049.00 L 1580.00 3049.00 L 1600.00 3050.00 L 1740.00 3050.00 L 1760.00 3051.00 L 1880.00 3051.00 L 1900.00 3052.00 L 2040.00 3052.00 L 2060.00 3053.00 L 2180.00 3053.00 L 2200.00 3054.00 L 2340.00 3054.00 L 2360.00 3055.00 L 2480.00 3055.00 L 2500.00 3056.00 L 2640.00 3056.00 L 2660.00 3057.00 L 2800.00 3057.00 L 2820.00 3058.00 L 2940.00 3058.00 L 2960.00 3059.00 L 3003.53 3059.00 L 2994.00 2937.00 L 2727.00 2952.00 L 2727.00 2930.00 L 2700.00 2930.00 L 2680.00 2950.00 L 2660.00 2950.00 L 2640.00 2930.00 L 2140.00 2930.00 L 2120.00 2950.00 L 2100.00 2950.00 L 2080.00 2930.00 L 1760.00 2930.00 L 1740.00 2950.00 L 1720.00 2950.00 L 1700.00 2930.00 Z" />
<path id="csg562-006-21" fill="none" stroke="black" stroke-width="1" d="M 874.90 3045.00 L 882.00 3117.00 L 882.47 3174.00 L 940.00 3174.00 L 960.00 3175.00 L 1060.00 3175.00 L 1080.00 3176.00 L 1180.00 3176.00 L 1200.00 3177.00 L 1300.00 3177.00 L 1320.00 3178.00 L 1420.00 3178.00 L 1440.00 3179.00 L 1520.00 3179.00 L 1540.00 3159.00 L 1560.00 3180.00 L 1660.00 3180.00 L 1680.00 3181.00 L 1780.00 3181.00 L 1800.00 3182.00 L 1860.00 3182.00 L 1880.00 3202.00 L 1900.00 3183.00 L 2000.00 3183.00 L 2020.00 3184.00 L 2120.00 3184.00 L 2140.00 3185.00 L 2240.00 3185.00 L 2260.00 3186.00 L 2360.00 3186.00 L 2380.00 3187.00 L 2420.00 3187.00 L 2440.00 3167.00 L 2460.00 3187.00 L 2480.00 3187.00 L 2500.00 3168.00 L 2520.00 3188.00 L 2600.00 3188.00 L 2620.00 3189.00 L 2680.00 3189.00 L 2700.00 3169.00 L 2720.00 3189.00 L 2740.00 3190.00 L 2760.00 3150.00 L 2780.00 3170.00 L 2800.00 3190.00 L 2840.00 3190.00 L 2860.00 3191.00 L 2940.00 3191.00 L 2960.00 3192.00 L 2972.07 3192.00 L 3009.00 3129.00 L 3003.53 3059.00 L 2960.00 3059.00 L 2940.00 3058.00 L 2820.00 3058.00 L 2800.00 3057.00 L 2660.00 3057.00 L 2640.00 3056.00 L 2500.00 3056.00 L 2480.00 3055.00 L 2360.00 3055.00 L 2340.00 3054.00 L 2200.00 3054.00 L 2180.00 3053.00 L 2060.00 3053.00 L 2040.00 3052.00 L 1900.00 3052.00 L 1880.00 3051.00 L 1760.00 3051.00 L 1740.00 3050.00 L 1600.00 3050.00 L 1580.00 3049.00 L 1460.00 3049.00 L 1440.00 3048.00 L 1300.00 3048.00 L 1280.00 3047.00 L 1160.00 3047.00 L 1140.00 3046.00 L 1000.00 3046.00 L 980.00 3045.00 Z" />
<path id="csg562-006-22" fill="none" stroke="black" stroke-width="1" d="M 2760.00 3150.00 L 2740.00 3190.00 L 2720.00 3189.00 L 2700.00 3169.00 L 2680.00 3189.00 L 2620.00 3189.00 L 2600.00 3188.00 L 2520.00 3188.00 L 2500.00 3168.00 L 2480.00 3187.00 L 2460.00 3187.00 L 2440.00 3167.00 L 2420.00 3187.00 L 2380.00 3187.00 L 2360.00 3186.00 L 2260.00 3186.00 L 2240.00 3185.00 L 2140.00 3185.00 L 2120.00 3184.00 L 2020.00 3184.00 L 2000.00 3183.00 L 1900.00 3183.00 L 1880.00 3202.00 L 1860.00 3182.00 L 1800.00 3182.00 L 1780.00 3181.00 L 1680.00 3181.00 L 1660.00 3180.00 L 1560.00 3180.00 L 1540.00 3159.00 L 1520.00 3179.00 L 1440.00 3179.00 L 1420.00 3178.00 L 1320.00 3178.00 L 1300.00 3177.00 L 1200.00 3177.00 L 1180.00 3176.00 L 1080.00 3176.00 L 1060.00 3175.00 L 960.00 3175.00 L 940.00 3174.00 L 882.47 3174.00 L 883.33 3276.00 L 900.00 3276.00 L 920.00 3296.00 L 940.00 3276.00 L 1080.00 3276.00 L 1100.00 3277.00 L 1320.00 3277.00 L 1340.00 3278.00 L 1580.00 3278.00 L 1600.00 3279.00 L 1820.00 3279.00 L 1840.00 3280.00 L 2080.00 3280.00 L 2100.00 3281.00 L 2320.00 3281.00 L 2340.00 3282.00 L 2580.00 3282.00 L 2600.00 3283.00 L 2820.00 3283.00 L 2840.00 3284.00 L 2959.42 3284.00 L 2958.00 3216.00 L 2972.07 3192.00 L 2960.00 3192.00 L 2940.00 3191.00 L 2860.00 3191.00 L 2840.00 3190.00 L 2800.00 3190.00 L 2780.00 3170.00 L 2760.00 3150.00 Z" />
<path id="csg562-006-23" fill="none" stroke="black" stroke-width="1" d="M 883.33 3276.00 L 884.22 3383.00 L 1640.00 3383.00 L 1660.00 3384.00 L 2280.00 3384.00 L 2300.00 3404.00 L 2320.00 3404.00 L 2340.00 3384.00 L 2360.00 3384.00 L 2380.00 3424.00 L 2400.00 3424.00 L 2420.00 3384.00 L 2460.00 3384.00 L 2480.00 3385.00 L 2952.07 3385.00 L 2961.00 3360.00 L 2959.42 3284.00 L 2840.00 3284.00 L 2820.00 3283.00 L 2600.00 3283.00 L 2580.00 3282.00 L 2340.00 3282.00 L 2320.00 3281.00 L 2100.00 3281.00 L 2080.00 3280.00 L 1840.00 3280.00 L 1820.00 3279.00 L 1600.00 3279.00 L 1580.00 3278.00 L 1340.00 3278.00 L 1320.00 3277.00 L 1100.00 3277.00 L 1080.00 3276.00 L 940.00 3276.00 L 920.00 3296.00 L 900.00 3276.00 Z" />
<path id="csg562-006-24" fill="none" stroke="black" stroke-width="1" d="M 884.22 3383.00 L 885.00 3477.00 L 973.80 3489.00 L 1080.00 3489.00 L 1100.00 3490.00 L 1340.00 3490.00 L 1360.00 3491.00 L 1600.00 3491.00 L 1615.65 3491.78 L 1803.00 3486.00 L 2055.00 3492.00 L 2415.00 3492.00 L 2916.00 3486.00 L 2952.07 3385.00 L 2480.00 3385.00 L 2460.00 3384.00 L 2420.00 3384.00 L 2400.00 3424.00 L 2380.00 3424.00 L 2360.00 3384.00 L 2340.00 3384.00 L 2320.00 3404.00 L 2300.00 3404.00 L 2280.00 3384.00 L 1660.00 3384.00 L 1640.00 3383.00 Z" />
</svg>
