<?xml version="1.0" standalone="no"?>
<!DOCTYPE svg PUBLIC "-//W3C//DTD SVG 1.1//EN" "http://www.w3.org/Graphics/SVG/1.1/DTD/svg11.dtd">
<svg width="46.22222in" height="69.333336in" viewBox="0 0 3328 4992" xmlns="http://www.w3.org/2000/svg" version="1.1">
<path id="csg562-030-01" fill="none" stroke="black" stroke-width="1" d="M 1105.33 838.00 L 906.00 864.00 L 896.30 960.00 L 1127.00 960.00 L 1147.00 961.00 L 1407.00 961.00 L 1427.00 962.00 L 1687.00 962.00 L 1707.00 963.00 L 1967.00 963.00 L 1987.00 964.00 L 2247.00 964.00 L 2267.00 965.00 L 2527.00 965.00 L 2547.00 966.00 L 2807.00 966.00 L 2827.00 967.00 L 2949.80 967.00 L 3018.00 945.00 L 3009.00 852.00 L 2581.50 842.00 L 2479.27 842.00 L 2220.00 873.00 L 2139.00 852.00 L 1521.00 867.00 L 1126.60 838.00 Z" />
<path id="csg562-030-02" fill="none" stroke="black" stroke-width="1" d="M 896.30 960.00 L 886.37 1058.31 L 887.00 1058.00 L 1227.00 1058.00 L 1247.00 1059.00 L 1347.00 1059.00 L 1367.00 1039.00 L 1387.00 1039.00 L 1407.00 1059.00 L 1607.00 1059.00 L 1627.00 1060.00 L 1987.00 1060.00 L 2007.00 1061.00 L 2347.00 1061.00 L 2367.00 1062.00 L 2727.00 1062.00 L 2747.00 1063.00 L 2937.41 1063.00 L 2925.00 975.00 L 2949.80 967.00 L 2827.00 967.00 L 2807.00 966.00 L 2547.00 966.00 L 2527.00 965.00 L 2267.00 965.00 L 2247.00 964.00 L 1987.00 964.00 L 1967.00 963.00 L 1707.00 963.00 L 1687.00 962.00 L 1427.00 962.00 L 1407.00 961.00 L 1147.00 961.00 L 1127.00 960.00 Z" />
<path id="csg562-030-03" fill="none" stroke="black" stroke-width="1" d="M 1367.00 1039.00 L 1347.00 1059.00 L 1247.00 1059.00 L 1227.00 1058.00 L 887.00 1058.00 L 886.37 1058.31 L 876.00 1161.00 L 875.60 1179.70 L 887.00 1174.00 L 927.00 1174.00 L 947.00 1194.00 L 967.00 1174.00 L 1247.00 1174.00 L 1267.00 1175.00 L 1627.00 1175.00 L 1647.00 1176.00 L 2007.00 1176.00 L 2027.00 1177.00 L 2387.00 1177.00 L 2407.00 1178.00 L 2607.00 1178.00 L 2627.00 1198.00 L 2647.00 1178.00 L 2767.00 1178.00 L 2787.00 1179.00 L 2953.77 1179.00 L 2937.41 1063.00 L 2747.00 1063.00 L 2727.00 1062.00 L 2367.00 1062.00 L 2347.00 1061.00 L 2007.00 1061.00 L 1987.00 1060.00 L 1627.00 1060.00 L 1607.00 1059.00 L 1407.00 1059.00 L 1387.00 1039.00 Z" />
<path id="csg562-030-04" fill="none" stroke="black" stroke-width="1" d="M 887.00 1174.00 L 875.60 1179.70 L 873.09 1297.96 L 887.00 1291.00 L 1307.00 1291.00 L 1327.00 1292.00 L 1747.00 1292.00 L 1767.00 1293.00 L 2187.00 1293.00 L 2207.00 1294.00 L 2627.00 1294.00 L 2647.00 1295.00 L 2979.74 1295.00 L 2958.00 1209.00 L 2953.77 1179.00 L 2787.00 1179.00 L 2767.00 1178.00 L 2647.00 1178.00 L 2627.00 1198.00 L 2607.00 1178.00 L 2407.00 1178.00 L 2387.00 1177.00 L 2027.00 1177.00 L 2007.00 1176.00 L 1647.00 1176.00 L 1627.00 1175.00 L 1267.00 1175.00 L 1247.00 1174.00 L 967.00 1174.00 L 947.00 1194.00 L 927.00 1174.00 Z" />
<path id="csg562-030-05" fill="none" stroke="black" stroke-width="1" d="M 887.00 1291.00 L 873.09 1297.96 L 870.87 1402.06 L 887.00 1394.00 L 1347.00 1394.00 L 1367.00 1395.00 L 1847.00 1395.00 L 1867.00 1396.00 L 1887.00 1416.00 L 1907.00 1396.00 L 2067.00 1396.00 L 2087.00 1416.00 L 2107.00 1396.00 L 2327.00 1396.00 L 2347.00 1397.00 L 2507.00 1397.00 L 2527.00 1417.00 L 2547.00 1417.00 L 2567.00 1397.00 L 2687.00 1397.00 L 2707.00 1417.00 L 2727.00 1397.00 L 2827.00 1397.00 L 2847.00 1398.00 L 3005.77 1398.00 L 2979.74 1295.00 L 2647.00 1295.00 L 2627.00 1294.00 L 2207.00 1294.00 L 2187.00 1293.00 L 1767.00 1293.00 L 1747.00 1292.00 L 1327.00 1292.00 L 1307.00 1291.00 Z" />
<path id="csg562-030-06" fill="none" stroke="black" stroke-width="1" d="M 887.00 1394.00 L 870.87 1402.06 L 868.23 1526.39 L 868.23 1526.39 L 887.00 1517.00 L 1247.00 1517.00 L 1267.00 1497.00 L 1287.00 1517.00 L 1307.00 1517.00 L 1327.00 1518.00 L 1767.00 1518.00 L 1787.00 1519.00 L 2227.00 1519.00 L 2247.00 1520.00 L 2467.00 1520.00 L 2487.00 1540.00 L 2507.00 1540.00 L 2527.00 1520.00 L 2687.00 1520.00 L 2707.00 1521.00 L 2993.32 1521.00 L 3027.00 1482.00 L 3005.77 1398.00 L 2847.00 1398.00 L 2827.00 1397.00 L 2727.00 1397.00 L 2707.00 1417.00 L 2687.00 1397.00 L 2567.00 1397.00 L 2547.00 1417.00 L 2527.00 1417.00 L 2507.00 1397.00 L 2347.00 1397.00 L 2327.00 1396.00 L 2107.00 1396.00 L 2087.00 1416.00 L 2067.00 1396.00 L 1907.00 1396.00 L 1887.00 1416.00 L 1867.00 1396.00 L 1847.00 1395.00 L 1367.00 1395.00 L 1347.00 1394.00 Z" />
<path id="csg562-030-07" fill="none" stroke="black" stroke-width="1" d="M 1267.00 1497.00 L 1247.00 1517.00 L 887.00 1517.00 L 868.23 1526.39 L 867.00 1584.00 L 871.20 1638.90 L 887.00 1631.00 L 1367.00 1631.00 L 1387.00 1632.00 L 1887.00 1632.00 L 1907.00 1633.00 L 2047.00 1633.00 L 2067.00 1628.00 L 2087.00 1628.00 L 2107.00 1630.00 L 2127.00 1632.00 L 2147.00 1633.00 L 2407.00 1633.00 L 2427.00 1634.00 L 2927.00 1634.00 L 2947.00 1635.00 L 2964.16 1635.00 L 2970.00 1548.00 L 2993.32 1521.00 L 2707.00 1521.00 L 2687.00 1520.00 L 2527.00 1520.00 L 2507.00 1540.00 L 2487.00 1540.00 L 2467.00 1520.00 L 2247.00 1520.00 L 2227.00 1519.00 L 1787.00 1519.00 L 1767.00 1518.00 L 1327.00 1518.00 L 1307.00 1517.00 L 1287.00 1517.00 L 1267.00 1497.00 Z" />
<path id="csg562-030-08" fill="none" stroke="black" stroke-width="1" d="M 2067.00 1628.00 L 2047.00 1633.00 L 1907.00 1633.00 L 1887.00 1632.00 L 1387.00 1632.00 L 1367.00 1631.00 L 887.00 1631.00 L 871.20 1638.90 L 878.78 1738.11 L 887.00 1734.00 L 1287.00 1734.00 L 1307.00 1735.00 L 1707.00 1735.00 L 1727.00 1736.00 L 2007.00 1736.00 L 2027.00 1716.00 L 2047.00 1736.00 L 2147.00 1736.00 L 2167.00 1737.00 L 2287.00 1737.00 L 2307.00 1757.00 L 2327.00 1737.00 L 2567.00 1737.00 L 2587.00 1758.00 L 2627.00 1758.00 L 2647.00 1738.00 L 2957.24 1738.00 L 2964.16 1635.00 L 2947.00 1635.00 L 2927.00 1634.00 L 2427.00 1634.00 L 2407.00 1633.00 L 2147.00 1633.00 L 2127.00 1632.00 L 2107.00 1630.00 L 2087.00 1628.00 Z" />
<path id="csg562-030-09" fill="none" stroke="black" stroke-width="1" d="M 2027.00 1716.00 L 2007.00 1736.00 L 1727.00 1736.00 L 1707.00 1735.00 L 1307.00 1735.00 L 1287.00 1734.00 L 887.00 1734.00 L 878.78 1738.11 L 887.87 1857.00 L 1167.00 1857.00 L 1187.00 1858.00 L 1487.00 1858.00 L 1507.00 1859.00 L 1807.00 1859.00 L 1827.00 1860.00 L 2127.00 1860.00 L 2147.00 1861.00 L 2447.00 1861.00 L 2467.00 1862.00 L 2767.00 1862.00 L 2787.00 1863.00 L 2948.84 1863.00 L 2957.24 1738.00 L 2647.00 1738.00 L 2627.00 1758.00 L 2587.00 1758.00 L 2567.00 1737.00 L 2327.00 1737.00 L 2307.00 1757.00 L 2287.00 1737.00 L 2167.00 1737.00 L 2147.00 1736.00 L 2047.00 1736.00 L 2027.00 1716.00 Z" />
<path id="csg562-030-10" fill="none" stroke="black" stroke-width="1" d="M 887.87 1857.00 L 896.66 1972.00 L 1247.00 1972.00 L 1267.00 1973.00 L 1627.00 1973.00 L 1647.00 1974.00 L 2007.00 1974.00 L 2027.00 1975.00 L 2387.00 1975.00 L 2407.00 1976.00 L 2767.00 1976.00 L 2787.00 1977.00 L 2800.98 1977.00 L 2802.00 1974.00 L 2943.00 1950.00 L 2948.84 1863.00 L 2787.00 1863.00 L 2767.00 1862.00 L 2467.00 1862.00 L 2447.00 1861.00 L 2147.00 1861.00 L 2127.00 1860.00 L 1827.00 1860.00 L 1807.00 1859.00 L 1507.00 1859.00 L 1487.00 1858.00 L 1187.00 1858.00 L 1167.00 1857.00 Z" />
<path id="csg562-030-11" fill="none" stroke="black" stroke-width="1" d="M 896.66 1972.00 L 903.00 2055.00 L 1002.00 2052.00 L 1022.00 2074.00 L 1067.00 2074.00 L 1087.00 2075.00 L 1287.00 2075.00 L 1307.00 2076.00 L 1507.00 2076.00 L 1527.00 2077.00 L 1727.00 2077.00 L 1747.00 2078.00 L 1947.00 2078.00 L 1967.00 2079.00 L 2167.00 2079.00 L 2187.00 2080.00 L 2387.00 2080.00 L 2407.00 2081.00 L 2587.00 2081.00 L 2607.00 2082.00 L 2765.12 2082.00 L 2800.98 1977.00 L 2787.00 1977.00 L 2767.00 1976.00 L 2407.00 1976.00 L 2387.00 1975.00 L 2027.00 1975.00 L 2007.00 1974.00 L 1647.00 1974.00 L 1627.00 1973.00 L 1267.00 1973.00 L 1247.00 1972.00 Z" />
<path id="csg562-030-12" fill="none" stroke="black" stroke-width="1" d="M 1022.00 2074.00 L 1032.00 2085.00 L 921.00 2187.00 L 1387.00 2187.00 L 1407.00 2188.00 L 1907.00 2188.00 L 1927.00 2189.00 L 2427.00 2189.00 L 2447.00 2190.00 L 2909.69 2190.00 L 2856.00 2112.00 L 2760.00 2097.00 L 2765.12 2082.00 L 2607.00 2082.00 L 2587.00 2081.00 L 2407.00 2081.00 L 2387.00 2080.00 L 2187.00 2080.00 L 2167.00 2079.00 L 1967.00 2079.00 L 1947.00 2078.00 L 1747.00 2078.00 L 1727.00 2077.00 L 1527.00 2077.00 L 1507.00 2076.00 L 1307.00 2076.00 L 1287.00 2075.00 L 1087.00 2075.00 L 1067.00 2074.00 Z" />
<path id="csg562-030-13" fill="none" stroke="black" stroke-width="1" d="M 921.00 2187.00 L 911.84 2287.00 L 1087.00 2287.00 L 1107.00 2288.00 L 1327.00 2288.00 L 1347.00 2289.00 L 1567.00 2289.00 L 1587.00 2290.00 L 1807.00 2290.00 L 1827.00 2291.00 L 2027.00 2291.00 L 2047.00 2292.00 L 2267.00 2292.00 L 2287.00 2293.00 L 2307.00 2313.00 L 2347.00 2313.00 L 2367.00 2293.00 L 2387.00 2293.00 L 2407.00 2313.00 L 2427.00 2293.00 L 2507.00 2293.00 L 2527.00 2294.00 L 2547.00 2294.00 L 2567.00 2314.00 L 2587.00 2294.00 L 2747.00 2294.00 L 2767.00 2295.00 L 2867.00 2295.00 L 2887.00 2315.00 L 2907.00 2315.00 L 2927.00 2295.00 L 2967.00 2295.00 L 2982.49 2295.77 L 2909.69 2190.00 L 2447.00 2190.00 L 2427.00 2189.00 L 1927.00 2189.00 L 1907.00 2188.00 L 1407.00 2188.00 L 1387.00 2187.00 Z" />
<path id="csg562-030-14" fill="none" stroke="black" stroke-width="1" d="M 911.84 2287.00 L 900.66 2409.00 L 1247.00 2409.00 L 1267.00 2410.00 L 1627.00 2410.00 L 1647.00 2411.00 L 2027.00 2411.00 L 2047.00 2412.00 L 2167.00 2412.00 L 2187.00 2432.00 L 2207.00 2412.00 L 2407.00 2412.00 L 2427.00 2413.00 L 2807.00 2413.00 L 2827.00 2414.00 L 2991.33 2414.00 L 3015.00 2343.00 L 2982.49 2295.77 L 2967.00 2295.00 L 2927.00 2295.00 L 2907.00 2315.00 L 2887.00 2315.00 L 2867.00 2295.00 L 2767.00 2295.00 L 2747.00 2294.00 L 2587.00 2294.00 L 2567.00 2314.00 L 2547.00 2294.00 L 2527.00 2294.00 L 2507.00 2293.00 L 2427.00 2293.00 L 2407.00 2313.00 L 2387.00 2293.00 L 2367.00 2293.00 L 2347.00 2313.00 L 2307.00 2313.00 L 2287.00 2293.00 L 2267.00 2292.00 L 2047.00 2292.00 L 2027.00 2291.00 L 1827.00 2291.00 L 1807.00 2290.00 L 1587.00 2290.00 L 1567.00 2289.00 L 1347.00 2289.00 L 1327.00 2288.00 L 1107.00 2288.00 L 1087.00 2287.00 Z" />
<path id="csg562-030-15" fill="none" stroke="black" stroke-width="1" d="M 900.66 2409.00 L 891.41 2510.00 L 2227.00 2510.00 L 2247.00 2509.00 L 2549.00 2509.00 L 2961.00 2505.00 L 2991.33 2414.00 L 2827.00 2414.00 L 2807.00 2413.00 L 2427.00 2413.00 L 2407.00 2412.00 L 2207.00 2412.00 L 2187.00 2432.00 L 2167.00 2412.00 L 2047.00 2412.00 L 2027.00 2411.00 L 1647.00 2411.00 L 1627.00 2410.00 L 1267.00 2410.00 L 1247.00 2409.00 Z" />
<path id="csg562-030-16" fill="none" stroke="black" stroke-width="1" d="M 2247.00 2509.00 L 2227.00 2510.00 L 891.41 2510.00 L 885.00 2580.00 L 1023.00 2604.00 L 1026.66 2627.00 L 2247.00 2627.00 L 2267.00 2626.00 L 2320.00 2626.00 L 2343.00 2511.00 L 2549.00 2509.00 Z" />
<path id="csg562-030-17" fill="none" stroke="black" stroke-width="1" d="M 2267.00 2626.00 L 2247.00 2627.00 L 1026.66 2627.00 L 1044.00 2736.00 L 1107.00 2736.00 L 1127.00 2756.00 L 1147.00 2736.00 L 1427.00 2736.00 L 1447.00 2737.00 L 2007.00 2737.00 L 2027.00 2738.00 L 2587.00 2738.00 L 2607.00 2739.00 L 3001.43 2739.00 L 2967.00 2640.00 L 2319.00 2631.00 L 2320.00 2626.00 Z" />
<path id="csg562-030-18" fill="none" stroke="black" stroke-width="1" d="M 1044.00 2736.00 L 1006.90 2842.00 L 2067.00 2842.00 L 2087.00 2862.00 L 2107.00 2842.00 L 3037.26 2842.00 L 3001.43 2739.00 L 2607.00 2739.00 L 2587.00 2738.00 L 2027.00 2738.00 L 2007.00 2737.00 L 1447.00 2737.00 L 1427.00 2736.00 L 1147.00 2736.00 L 1127.00 2756.00 L 1107.00 2736.00 Z" />
<path id="csg562-030-19" fill="none" stroke="black" stroke-width="1" d="M 1006.90 2842.00 L 1002.00 2856.00 L 900.00 2871.00 L 897.30 2964.00 L 1107.00 2964.00 L 1127.00 2965.00 L 1367.00 2965.00 L 1387.00 2966.00 L 1407.00 2966.00 L 1427.00 2946.00 L 1447.00 2966.00 L 1607.00 2966.00 L 1627.00 2986.00 L 1647.00 2987.00 L 1667.00 2987.00 L 1687.00 2967.00 L 1887.00 2967.00 L 1907.00 2968.00 L 2127.00 2968.00 L 2147.00 2969.00 L 2387.00 2969.00 L 2407.00 2970.00 L 2647.00 2970.00 L 2667.00 2971.00 L 2907.00 2971.00 L 2927.00 2972.00 L 2964.33 2972.00 L 3063.00 2916.00 L 3037.26 2842.00 L 2107.00 2842.00 L 2087.00 2862.00 L 2067.00 2842.00 Z" />
<path id="csg562-030-20" fill="none" stroke="black" stroke-width="1" d="M 1427.00 2946.00 L 1407.00 2966.00 L 1387.00 2966.00 L 1367.00 2965.00 L 1127.00 2965.00 L 1107.00 2964.00 L 897.30 2964.00 L 894.32 3067.00 L 1107.00 3067.00 L 1127.00 3068.00 L 1367.00 3068.00 L 1387.00 3069.00 L 1627.00 3069.00 L 1647.00 3070.00 L 1887.00 3070.00 L 1907.00 3071.00 L 2127.00 3071.00 L 2147.00 3072.00 L 2167.00 3072.00 L 2187.00 3092.00 L 2207.00 3092.00 L 2227.00 3072.00 L 2387.00 3072.00 L 2407.00 3073.00 L 2647.00 3073.00 L 2667.00 3074.00 L 2907.00 3074.00 L 2927.00 3075.00 L 2968.00 3075.00 L 2952.00 2979.00 L 2964.33 2972.00 L 2927.00 2972.00 L 2907.00 2971.00 L 2667.00 2971.00 L 2647.00 2970.00 L 2407.00 2970.00 L 2387.00 2969.00 L 2147.00 2969.00 L 2127.00 2968.00 L 1907.00 2968.00 L 1887.00 2967.00 L 1687.00 2967.00 L 1667.00 2987.00 L 1647.00 2987.00 L 1627.00 2986.00 L 1607.00 2966.00 L 1447.00 2966.00 L 1427.00 2946.00 Z" />
<path id="csg562-030-21" fill="none" stroke="black" stroke-width="1" d="M 894.32 3067.00 L 891.07 3179.00 L 1167.00 3179.00 L 1187.00 3180.00 L 1467.00 3180.00 L 1487.00 3181.00 L 1767.00 3181.00 L 1787.00 3182.00 L 2047.00 3182.00 L 2067.00 3202.00 L 2087.00 3183.00 L 2107.00 3203.00 L 2127.00 3203.00 L 2147.00 3183.00 L 2387.00 3183.00 L 2407.00 3184.00 L 2607.00 3184.00 L 2627.00 3204.00 L 2647.00 3184.00 L 2687.00 3184.00 L 2707.00 3185.00 L 2986.33 3185.00 L 2968.00 3075.00 L 2927.00 3075.00 L 2907.00 3074.00 L 2667.00 3074.00 L 2647.00 3073.00 L 2407.00 3073.00 L 2387.00 3072.00 L 2227.00 3072.00 L 2207.00 3092.00 L 2187.00 3092.00 L 2167.00 3072.00 L 2147.00 3072.00 L 2127.00 3071.00 L 1907.00 3071.00 L 1887.00 3070.00 L 1647.00 3070.00 L 1627.00 3069.00 L 1387.00 3069.00 L 1367.00 3068.00 L 1127.00 3068.00 L 1107.00 3067.00 Z" />
<path id="csg562-030-22" fill="none" stroke="black" stroke-width="1" d="M 891.07 3179.00 L 887.65 3297.00 L 1107.00 3297.00 L 1127.00 3298.00 L 1147.00 3318.00 L 1167.00 3298.00 L 1347.00 3298.00 L 1367.00 3299.00 L 1587.00 3299.00 L 1607.00 3300.00 L 1827.00 3300.00 L 1847.00 3301.00 L 2067.00 3301.00 L 2087.00 3302.00 L 2327.00 3302.00 L 2347.00 3303.00 L 2567.00 3303.00 L 2587.00 3304.00 L 2807.00 3304.00 L 2827.00 3305.00 L 3006.33 3305.00 L 2986.33 3185.00 L 2707.00 3185.00 L 2687.00 3184.00 L 2647.00 3184.00 L 2627.00 3204.00 L 2607.00 3184.00 L 2407.00 3184.00 L 2387.00 3183.00 L 2147.00 3183.00 L 2127.00 3203.00 L 2107.00 3203.00 L 2087.00 3183.00 L 2067.00 3202.00 L 2047.00 3182.00 L 1787.00 3182.00 L 1767.00 3181.00 L 1487.00 3181.00 L 1467.00 3180.00 L 1187.00 3180.00 L 1167.00 3179.00 Z" />
<path id="csg562-030-23" fill="none" stroke="black" stroke-width="1" d="M 887.65 3297.00 L 884.84 3394.08 L 887.00 3393.00 L 1007.00 3393.00 L 1027.00 3394.00 L 1167.00 3394.00 L 1187.00 3395.00 L 1327.00 3395.00 L 1347.00 3396.00 L 1467.00 3396.00 L 1487.00 3397.00 L 1627.00 3397.00 L 1647.00 3398.00 L 1787.00 3398.00 L 1807.00 3399.00 L 1927.00 3399.00 L 1947.00 3400.00 L 2087.00 3400.00 L 2107.00 3401.00 L 2247.00 3401.00 L 2267.00 3402.00 L 2387.00 3402.00 L 2407.00 3403.00 L 2547.00 3403.00 L 2567.00 3404.00 L 2707.00 3404.00 L 2727.00 3405.00 L 2847.00 3405.00 L 2867.00 3406.00 L 2984.08 3406.00 L 3012.00 3339.00 L 3006.33 3305.00 L 2827.00 3305.00 L 2807.00 3304.00 L 2587.00 3304.00 L 2567.00 3303.00 L 2347.00 3303.00 L 2327.00 3302.00 L 2087.00 3302.00 L 2067.00 3301.00 L 1847.00 3301.00 L 1827.00 3300.00 L 1607.00 3300.00 L 1587.00 3299.00 L 1367.00 3299.00 L 1347.00 3298.00 L 1167.00 3298.00 L 1147.00 3318.00 L 1127.00 3298.00 L 1107.00 3297.00 Z" />
<path id="csg562-030-24" fill="none" stroke="black" stroke-width="1" d="M 887.00 3393.00 L 884.84 3394.08 L 882.00 3492.00 L 916.50 3495.00 L 1007.00 3495.00 L 1027.00 3496.00 L 1167.00 3496.00 L 1187.00 3497.00 L 1327.00 3497.00 L 1347.00 3498.00 L 1467.00 3498.00 L 1487.00 3499.00 L 1494.00 3499.00 L 1974.00 3489.00 L 1993.50 3502.00 L 2087.00 3502.00 L 2107.00 3503.00 L 2247.00 3503.00 L 2267.00 3504.00 L 2387.00 3504.00 L 2407.00 3505.00 L 2506.00 3505.00 L 2952.00 3483.00 L 2984.08 3406.00 L 2867.00 3406.00 L 2847.00 3405.00 L 2727.00 3405.00 L 2707.00 3404.00 L 2567.00 3404.00 L 2547.00 3403.00 L 2407.00 3403.00 L 2387.00 3402.00 L 2267.00 3402.00 L 2247.00 3401.00 L 2107.00 3401.00 L 2087.00 3400.00 L 1947.00 3400.00 L 1927.00 3399.00 L 1807.00 3399.00 L 1787.00 3398.00 L 1647.00 3398.00 L 1627.00 3397.00 L 1487.00 3397.00 L 1467.00 3396.00 L 1347.00 3396.00 L 1327.00 3395.00 L 1187.00 3395.00 L 1167.00 3394.00 L 1027.00 3394.00 L 1007.00 3393.00 Z" />
</svg>
