<?xml version="1.0" standalone="no"?>
<!DOCTYPE svg PUBLIC "-//W3C//DTD SVG 1.1//EN" "http://www.w3.org/Graphics/SVG/1.1/DTD/svg11.dtd">
<svg width="46.22222in" height="69.333336in" viewBox="0 0 3328 4992" xmlns="http://www.w3.org/2000/svg" version="1.1">
<path id="csg562-009-01" fill="none" stroke="black" stroke-width="1" d="M 350.66 760.00 L 318.00 855.00 L 321.06 889.47 L 338.00 881.00 L 378.00 881.00 L 398.00 901.00 L 458.00 901.00 L 478.00 881.00 L 618.00 881.00 L 638.00 882.00 L 918.00 882.00 L 938.00 883.00 L 1238.00 883.00 L 1258.00 884.00 L 1538.00 884.00 L 1558.00 885.00 L 1858.00 885.00 L 1878.00 886.00 L 2158.00 886.00 L 2178.00 887.00 L 2478.00 887.00 L 2484.00 887.30 L 2484.00 804.00 L 2331.00 777.00 L 1878.00 786.00 L 1680.27 761.00 L 1484.43 761.00 L 1269.00 774.00 L 1011.00 786.00 L 720.00 789.00 L 456.00 795.00 L 353.92 760.00 Z" />
<path id="csg562-009-02" fill="none" stroke="black" stroke-width="1" d="M 338.00 881.00 L 321.06 889.47 L 330.75 998.63 L 338.00 995.00 L 758.00 995.00 L 778.00 996.00 L 918.00 996.00 L 938.00 976.00 L 978.00 976.00 L 998.00 996.00 L 1218.00 996.00 L 1238.00 997.00 L 1678.00 997.00 L 1698.00 998.00 L 1998.00 998.00 L 2018.00 1018.00 L 2038.00 1018.00 L 2058.00 998.00 L 2138.00 998.00 L 2158.00 999.00 L 2338.00 999.00 L 2358.00 1019.00 L 2398.00 1019.00 L 2418.00 999.00 L 2484.00 999.00 L 2484.00 887.30 L 2478.00 887.00 L 2178.00 887.00 L 2158.00 886.00 L 1878.00 886.00 L 1858.00 885.00 L 1558.00 885.00 L 1538.00 884.00 L 1258.00 884.00 L 1238.00 883.00 L 938.00 883.00 L 918.00 882.00 L 638.00 882.00 L 618.00 881.00 L 478.00 881.00 L 458.00 901.00 L 398.00 901.00 L 378.00 881.00 Z" />
<path id="csg562-009-03" fill="none" stroke="black" stroke-width="1" d="M 938.00 976.00 L 918.00 996.00 L 778.00 996.00 L 758.00 995.00 L 338.00 995.00 L 330.75 998.63 L 341.70 1122.00 L 478.00 1122.00 L 498.00 1123.00 L 658.00 1123.00 L 678.00 1124.00 L 838.00 1124.00 L 858.00 1125.00 L 998.00 1125.00 L 1018.00 1126.00 L 1178.00 1126.00 L 1198.00 1127.00 L 1358.00 1127.00 L 1378.00 1128.00 L 1518.00 1128.00 L 1538.00 1129.00 L 1698.00 1129.00 L 1718.00 1130.00 L 1878.00 1130.00 L 1898.00 1131.00 L 2038.00 1131.00 L 2058.00 1132.00 L 2218.00 1132.00 L 2238.00 1133.00 L 2398.00 1133.00 L 2418.00 1134.00 L 2484.00 1134.00 L 2484.00 999.00 L 2418.00 999.00 L 2398.00 1019.00 L 2358.00 1019.00 L 2338.00 999.00 L 2158.00 999.00 L 2138.00 998.00 L 2058.00 998.00 L 2038.00 1018.00 L 2018.00 1018.00 L 1998.00 998.00 L 1698.00 998.00 L 1678.00 997.00 L 1238.00 997.00 L 1218.00 996.00 L 998.00 996.00 L 978.00 976.00 Z" />
<path id="csg562-009-04" fill="none" stroke="black" stroke-width="1" d="M 341.70 1122.00 L 351.46 1232.00 L 758.00 1232.00 L 778.00 1233.00 L 1218.00 1233.00 L 1238.00 1234.00 L 1378.00 1234.00 L 1398.00 1254.00 L 1418.00 1234.00 L 1678.00 1234.00 L 1698.00 1235.00 L 2138.00 1235.00 L 2158.00 1236.00 L 2450.67 1236.00 L 2484.00 1176.00 L 2484.00 1134.00 L 2418.00 1134.00 L 2398.00 1133.00 L 2238.00 1133.00 L 2218.00 1132.00 L 2058.00 1132.00 L 2038.00 1131.00 L 1898.00 1131.00 L 1878.00 1130.00 L 1718.00 1130.00 L 1698.00 1129.00 L 1538.00 1129.00 L 1518.00 1128.00 L 1378.00 1128.00 L 1358.00 1127.00 L 1198.00 1127.00 L 1178.00 1126.00 L 1018.00 1126.00 L 998.00 1125.00 L 858.00 1125.00 L 838.00 1124.00 L 678.00 1124.00 L 658.00 1123.00 L 498.00 1123.00 L 478.00 1122.00 Z" />
<path id="csg562-009-05" fill="none" stroke="black" stroke-width="1" d="M 351.46 1232.00 L 362.11 1352.00 L 838.00 1352.00 L 858.00 1372.00 L 878.00 1353.00 L 978.00 1353.00 L 998.00 1354.00 L 1018.00 1322.00 L 1038.00 1334.00 L 1058.00 1373.00 L 1078.00 1353.00 L 1398.00 1353.00 L 1418.00 1354.00 L 1938.00 1354.00 L 1958.00 1355.00 L 2436.20 1355.00 L 2439.00 1257.00 L 2450.67 1236.00 L 2158.00 1236.00 L 2138.00 1235.00 L 1698.00 1235.00 L 1678.00 1234.00 L 1418.00 1234.00 L 1398.00 1254.00 L 1378.00 1234.00 L 1238.00 1234.00 L 1218.00 1233.00 L 778.00 1233.00 L 758.00 1232.00 Z" />
<path id="csg562-009-06" fill="none" stroke="black" stroke-width="1" d="M 1018.00 1322.00 L 998.00 1354.00 L 978.00 1353.00 L 878.00 1353.00 L 858.00 1372.00 L 838.00 1352.00 L 362.11 1352.00 L 363.00 1362.00 L 367.57 1455.00 L 498.00 1455.00 L 518.00 1456.00 L 538.00 1456.00 L 558.00 1455.00 L 798.00 1455.00 L 818.00 1456.00 L 858.00 1456.00 L 878.00 1476.00 L 898.00 1456.00 L 1278.00 1456.00 L 1298.00 1457.00 L 1758.00 1457.00 L 1778.00 1458.00 L 2238.00 1458.00 L 2258.00 1459.00 L 2433.23 1459.00 L 2436.20 1355.00 L 1958.00 1355.00 L 1938.00 1354.00 L 1418.00 1354.00 L 1398.00 1353.00 L 1078.00 1353.00 L 1058.00 1373.00 L 1038.00 1334.00 L 1018.00 1322.00 Z" />
<path id="csg562-009-07" fill="none" stroke="black" stroke-width="1" d="M 367.57 1455.00 L 372.00 1545.00 L 365.48 1567.00 L 558.00 1567.00 L 578.00 1587.00 L 598.00 1587.00 L 618.00 1567.00 L 638.00 1547.00 L 658.00 1547.00 L 678.00 1567.00 L 1098.00 1567.00 L 1118.00 1566.00 L 1678.00 1566.00 L 1698.00 1586.00 L 1718.00 1586.00 L 1738.00 1566.00 L 1778.00 1566.00 L 1798.00 1546.00 L 1818.00 1566.00 L 1878.00 1566.00 L 1898.00 1565.00 L 2450.35 1565.00 L 2433.00 1467.00 L 2433.23 1459.00 L 2258.00 1459.00 L 2238.00 1458.00 L 1778.00 1458.00 L 1758.00 1457.00 L 1298.00 1457.00 L 1278.00 1456.00 L 898.00 1456.00 L 878.00 1476.00 L 858.00 1456.00 L 818.00 1456.00 L 798.00 1455.00 L 558.00 1455.00 L 538.00 1456.00 L 518.00 1456.00 L 498.00 1455.00 Z" />
<path id="csg562-009-08" fill="none" stroke="black" stroke-width="1" d="M 1798.00 1546.00 L 1778.00 1566.00 L 1738.00 1566.00 L 1718.00 1586.00 L 1698.00 1586.00 L 1678.00 1566.00 L 1118.00 1566.00 L 1098.00 1567.00 L 678.00 1567.00 L 658.00 1547.00 L 638.00 1547.00 L 618.00 1567.00 L 598.00 1587.00 L 578.00 1587.00 L 558.00 1567.00 L 365.48 1567.00 L 348.00 1626.00 L 348.00 1673.00 L 1898.00 1673.00 L 1918.00 1693.00 L 1938.00 1693.00 L 1958.00 1673.00 L 2198.00 1673.00 L 2218.00 1653.00 L 2258.00 1653.00 L 2278.00 1673.00 L 2469.48 1673.00 L 2450.35 1565.00 L 1898.00 1565.00 L 1878.00 1566.00 L 1818.00 1566.00 L 1798.00 1546.00 Z" />
<path id="csg562-009-09" fill="none" stroke="black" stroke-width="1" d="M 2218.00 1653.00 L 2198.00 1673.00 L 1958.00 1673.00 L 1938.00 1693.00 L 1918.00 1693.00 L 1898.00 1673.00 L 348.00 1673.00 L 348.00 1786.00 L 578.00 1786.00 L 598.00 1787.00 L 838.00 1787.00 L 858.00 1788.00 L 1098.00 1788.00 L 1118.00 1789.00 L 1358.00 1789.00 L 1378.00 1790.00 L 1618.00 1790.00 L 1638.00 1791.00 L 1878.00 1791.00 L 1898.00 1792.00 L 2138.00 1792.00 L 2158.00 1793.00 L 2398.00 1793.00 L 2418.00 1794.00 L 2424.00 1794.00 L 2484.00 1755.00 L 2469.48 1673.00 L 2278.00 1673.00 L 2258.00 1653.00 Z" />
<path id="csg562-009-10" fill="none" stroke="black" stroke-width="1" d="M 348.00 1786.00 L 348.00 1897.00 L 578.00 1897.00 L 598.00 1898.00 L 838.00 1898.00 L 858.00 1899.00 L 1098.00 1899.00 L 1118.00 1900.00 L 1358.00 1900.00 L 1378.00 1901.00 L 1618.00 1901.00 L 1638.00 1902.00 L 1878.00 1902.00 L 1898.00 1903.00 L 2138.00 1903.00 L 2158.00 1904.00 L 2398.00 1904.00 L 2418.00 1905.00 L 2441.90 1905.00 L 2424.00 1794.00 L 2418.00 1794.00 L 2398.00 1793.00 L 2158.00 1793.00 L 2138.00 1792.00 L 1898.00 1792.00 L 1878.00 1791.00 L 1638.00 1791.00 L 1618.00 1790.00 L 1378.00 1790.00 L 1358.00 1789.00 L 1118.00 1789.00 L 1098.00 1788.00 L 858.00 1788.00 L 838.00 1787.00 L 598.00 1787.00 L 578.00 1786.00 Z" />
<path id="csg562-009-11" fill="none" stroke="black" stroke-width="1" d="M 348.00 1897.00 L 348.00 1980.00 L 341.18 2005.00 L 1098.00 2005.00 L 1118.00 2004.00 L 1878.00 2004.00 L 1898.00 2003.00 L 2457.71 2003.00 L 2441.90 1905.00 L 2418.00 1905.00 L 2398.00 1904.00 L 2158.00 1904.00 L 2138.00 1903.00 L 1898.00 1903.00 L 1878.00 1902.00 L 1638.00 1902.00 L 1618.00 1901.00 L 1378.00 1901.00 L 1358.00 1900.00 L 1118.00 1900.00 L 1098.00 1899.00 L 858.00 1899.00 L 838.00 1898.00 L 598.00 1898.00 L 578.00 1897.00 Z" />
<path id="csg562-009-12" fill="none" stroke="black" stroke-width="1" d="M 1898.00 2003.00 L 1878.00 2004.00 L 1118.00 2004.00 L 1098.00 2005.00 L 341.18 2005.00 L 321.00 2079.00 L 328.17 2122.41 L 338.00 2117.00 L 578.00 2117.00 L 598.00 2137.00 L 618.00 2117.00 L 698.00 2117.00 L 718.00 2116.00 L 1098.00 2116.00 L 1118.00 2115.00 L 1298.00 2115.00 L 1318.00 2135.00 L 1338.00 2115.00 L 1498.00 2115.00 L 1518.00 2114.00 L 1898.00 2114.00 L 1918.00 2113.00 L 2218.00 2113.00 L 2238.00 2133.00 L 2258.00 2133.00 L 2278.00 2113.00 L 2298.00 2112.00 L 2475.29 2112.00 L 2457.71 2003.00 Z" />
<path id="csg562-009-13" fill="none" stroke="black" stroke-width="1" d="M 2298.00 2112.00 L 2278.00 2113.00 L 2258.00 2133.00 L 2238.00 2133.00 L 2218.00 2113.00 L 1918.00 2113.00 L 1898.00 2114.00 L 1518.00 2114.00 L 1498.00 2115.00 L 1338.00 2115.00 L 1318.00 2135.00 L 1298.00 2115.00 L 1118.00 2115.00 L 1098.00 2116.00 L 718.00 2116.00 L 698.00 2117.00 L 618.00 2117.00 L 598.00 2137.00 L 578.00 2117.00 L 338.00 2117.00 L 328.17 2122.41 L 344.78 2223.00 L 1098.00 2223.00 L 1118.00 2222.00 L 1878.00 2222.00 L 1898.00 2221.00 L 2338.00 2221.00 L 2358.00 2241.00 L 2378.00 2221.00 L 2463.90 2221.00 L 2484.00 2166.00 L 2475.29 2112.00 Z" />
<path id="csg562-009-14" fill="none" stroke="black" stroke-width="1" d="M 1898.00 2221.00 L 1878.00 2222.00 L 1118.00 2222.00 L 1098.00 2223.00 L 344.78 2223.00 L 363.44 2336.00 L 2327.64 2336.00 L 2328.00 2334.00 L 2427.00 2322.00 L 2463.90 2221.00 L 2378.00 2221.00 L 2358.00 2241.00 L 2338.00 2221.00 Z" />
<path id="csg562-009-15" fill="none" stroke="black" stroke-width="1" d="M 363.44 2336.00 L 375.00 2406.00 L 353.33 2432.67 L 358.00 2428.00 L 378.00 2428.00 L 398.00 2452.00 L 418.00 2440.00 L 438.00 2438.00 L 458.00 2438.00 L 478.00 2448.00 L 558.00 2448.00 L 578.00 2447.00 L 798.00 2447.00 L 818.00 2446.00 L 1038.00 2446.00 L 1058.00 2445.00 L 1298.00 2445.00 L 1318.00 2444.00 L 1538.00 2444.00 L 1558.00 2443.00 L 1578.00 2443.00 L 1598.00 2463.00 L 1618.00 2463.00 L 1638.00 2443.00 L 1778.00 2443.00 L 1798.00 2442.00 L 1938.00 2442.00 L 1958.00 2462.00 L 1978.00 2442.00 L 2038.00 2442.00 L 2058.00 2441.00 L 2258.00 2441.00 L 2278.00 2461.00 L 2298.00 2440.00 L 2308.97 2440.00 L 2327.64 2336.00 Z" />
<path id="csg562-009-16" fill="none" stroke="black" stroke-width="1" d="M 358.00 2428.00 L 353.33 2432.67 L 336.00 2454.00 L 345.74 2566.00 L 498.00 2566.00 L 518.00 2586.00 L 538.00 2566.00 L 718.00 2566.00 L 738.00 2565.00 L 1118.00 2565.00 L 1138.00 2564.00 L 1518.00 2564.00 L 1538.00 2563.00 L 1878.00 2563.00 L 1898.00 2583.00 L 1918.00 2563.00 L 1938.00 2563.00 L 1958.00 2562.00 L 2338.00 2562.00 L 2358.00 2561.00 L 2460.06 2561.00 L 2472.00 2487.00 L 2415.00 2451.00 L 2307.00 2451.00 L 2308.97 2440.00 L 2298.00 2440.00 L 2278.00 2461.00 L 2258.00 2441.00 L 2058.00 2441.00 L 2038.00 2442.00 L 1978.00 2442.00 L 1958.00 2462.00 L 1938.00 2442.00 L 1798.00 2442.00 L 1778.00 2443.00 L 1638.00 2443.00 L 1618.00 2463.00 L 1598.00 2463.00 L 1578.00 2443.00 L 1558.00 2443.00 L 1538.00 2444.00 L 1318.00 2444.00 L 1298.00 2445.00 L 1058.00 2445.00 L 1038.00 2446.00 L 818.00 2446.00 L 798.00 2447.00 L 578.00 2447.00 L 558.00 2448.00 L 478.00 2448.00 L 458.00 2438.00 L 438.00 2438.00 L 418.00 2440.00 L 398.00 2452.00 L 378.00 2428.00 Z" />
<path id="csg562-009-17" fill="none" stroke="black" stroke-width="1" d="M 2358.00 2561.00 L 2338.00 2562.00 L 1958.00 2562.00 L 1938.00 2563.00 L 1918.00 2563.00 L 1898.00 2583.00 L 1878.00 2563.00 L 1538.00 2563.00 L 1518.00 2564.00 L 1138.00 2564.00 L 1118.00 2565.00 L 738.00 2565.00 L 718.00 2566.00 L 538.00 2566.00 L 518.00 2586.00 L 498.00 2566.00 L 345.74 2566.00 L 348.00 2592.00 L 355.55 2670.00 L 618.00 2670.00 L 638.00 2669.00 L 918.00 2669.00 L 938.00 2668.00 L 1238.00 2668.00 L 1258.00 2667.00 L 1538.00 2667.00 L 1558.00 2666.00 L 1858.00 2666.00 L 1878.00 2665.00 L 2158.00 2665.00 L 2178.00 2664.00 L 2462.68 2664.00 L 2457.00 2580.00 L 2460.06 2561.00 Z" />
<path id="csg562-009-18" fill="none" stroke="black" stroke-width="1" d="M 2178.00 2664.00 L 2158.00 2665.00 L 1878.00 2665.00 L 1858.00 2666.00 L 1558.00 2666.00 L 1538.00 2667.00 L 1258.00 2667.00 L 1238.00 2668.00 L 938.00 2668.00 L 918.00 2669.00 L 638.00 2669.00 L 618.00 2670.00 L 355.55 2670.00 L 367.06 2789.00 L 578.00 2789.00 L 598.00 2788.00 L 838.00 2788.00 L 858.00 2787.00 L 1098.00 2787.00 L 1118.00 2786.00 L 1358.00 2786.00 L 1378.00 2785.00 L 1618.00 2785.00 L 1638.00 2784.00 L 1878.00 2784.00 L 1898.00 2783.00 L 2138.00 2783.00 L 2158.00 2782.00 L 2398.00 2782.00 L 2418.00 2781.00 L 2470.58 2781.00 L 2462.68 2664.00 Z" />
<path id="csg562-009-19" fill="none" stroke="black" stroke-width="1" d="M 2418.00 2781.00 L 2398.00 2782.00 L 2158.00 2782.00 L 2138.00 2783.00 L 1898.00 2783.00 L 1878.00 2784.00 L 1638.00 2784.00 L 1618.00 2785.00 L 1378.00 2785.00 L 1358.00 2786.00 L 1118.00 2786.00 L 1098.00 2787.00 L 858.00 2787.00 L 838.00 2788.00 L 598.00 2788.00 L 578.00 2789.00 L 367.06 2789.00 L 375.00 2871.00 L 375.00 2904.00 L 458.00 2904.00 L 478.00 2903.00 L 618.00 2903.00 L 638.00 2902.00 L 778.00 2902.00 L 798.00 2901.00 L 938.00 2901.00 L 958.00 2900.00 L 1098.00 2900.00 L 1118.00 2899.00 L 1258.00 2899.00 L 1278.00 2898.00 L 1418.00 2898.00 L 1438.00 2897.00 L 1558.00 2897.00 L 1578.00 2896.00 L 1718.00 2896.00 L 1738.00 2895.00 L 1878.00 2895.00 L 1898.00 2894.00 L 2038.00 2894.00 L 2058.00 2893.00 L 2198.00 2893.00 L 2218.00 2892.00 L 2358.00 2892.00 L 2378.00 2891.00 L 2461.40 2891.00 L 2472.00 2802.00 L 2470.58 2781.00 Z" />
<path id="csg562-009-20" fill="none" stroke="black" stroke-width="1" d="M 2378.00 2891.00 L 2358.00 2892.00 L 2218.00 2892.00 L 2198.00 2893.00 L 2058.00 2893.00 L 2038.00 2894.00 L 1898.00 2894.00 L 1878.00 2895.00 L 1738.00 2895.00 L 1718.00 2896.00 L 1578.00 2896.00 L 1558.00 2897.00 L 1438.00 2897.00 L 1418.00 2898.00 L 1278.00 2898.00 L 1258.00 2899.00 L 1118.00 2899.00 L 1098.00 2900.00 L 958.00 2900.00 L 938.00 2901.00 L 798.00 2901.00 L 778.00 2902.00 L 638.00 2902.00 L 618.00 2903.00 L 478.00 2903.00 L 458.00 2904.00 L 375.00 2904.00 L 375.00 3009.00 L 378.00 3009.00 L 398.00 3029.00 L 418.00 3029.00 L 438.00 3009.00 L 458.00 3009.00 L 478.00 3008.00 L 598.00 3008.00 L 618.00 3007.00 L 738.00 3007.00 L 758.00 3006.00 L 878.00 3006.00 L 898.00 3005.00 L 1018.00 3005.00 L 1038.00 3004.00 L 1158.00 3004.00 L 1178.00 3003.00 L 1318.00 3003.00 L 1338.00 3002.00 L 1458.00 3002.00 L 1478.00 3001.00 L 1598.00 3001.00 L 1618.00 3000.00 L 1738.00 3000.00 L 1758.00 2999.00 L 1878.00 2999.00 L 1898.00 2998.00 L 2018.00 2998.00 L 2038.00 2997.00 L 2178.00 2997.00 L 2198.00 2996.00 L 2318.00 2996.00 L 2338.00 2995.00 L 2458.00 2995.00 L 2463.56 2994.72 L 2457.00 2928.00 L 2461.40 2891.00 Z" />
<path id="csg562-009-21" fill="none" stroke="black" stroke-width="1" d="M 2463.56 2994.72 L 2458.00 2995.00 L 2338.00 2995.00 L 2318.00 2996.00 L 2198.00 2996.00 L 2178.00 2997.00 L 2038.00 2997.00 L 2018.00 2998.00 L 1898.00 2998.00 L 1878.00 2999.00 L 1758.00 2999.00 L 1738.00 3000.00 L 1618.00 3000.00 L 1598.00 3001.00 L 1478.00 3001.00 L 1458.00 3002.00 L 1338.00 3002.00 L 1318.00 3003.00 L 1178.00 3003.00 L 1158.00 3004.00 L 1038.00 3004.00 L 1018.00 3005.00 L 898.00 3005.00 L 878.00 3006.00 L 758.00 3006.00 L 738.00 3007.00 L 618.00 3007.00 L 598.00 3008.00 L 478.00 3008.00 L 458.00 3009.00 L 438.00 3009.00 L 418.00 3029.00 L 398.00 3029.00 L 378.00 3009.00 L 375.00 3009.00 L 375.00 3120.00 L 432.00 3129.00 L 538.00 3129.00 L 558.00 3128.00 L 758.00 3128.00 L 778.00 3127.00 L 978.00 3127.00 L 998.00 3126.00 L 1218.00 3126.00 L 1238.00 3125.00 L 1438.00 3125.00 L 1458.00 3124.00 L 1531.40 3124.00 L 1716.00 3111.00 L 2475.00 3111.00 L 2463.56 2994.72 Z" />
<path id="csg562-009-22" fill="none" stroke="black" stroke-width="1" d="M 1458.00 3124.00 L 1438.00 3125.00 L 1238.00 3125.00 L 1218.00 3126.00 L 998.00 3126.00 L 978.00 3127.00 L 778.00 3127.00 L 758.00 3128.00 L 558.00 3128.00 L 538.00 3129.00 L 432.00 3129.00 L 390.00 3180.00 L 398.02 3237.00 L 478.00 3237.00 L 498.00 3236.00 L 658.00 3236.00 L 678.00 3235.00 L 838.00 3235.00 L 858.00 3234.00 L 1018.00 3234.00 L 1038.00 3253.00 L 1058.00 3233.00 L 1198.00 3233.00 L 1218.00 3232.00 L 1378.00 3232.00 L 1398.00 3231.00 L 1558.00 3231.00 L 1578.00 3230.00 L 1718.00 3230.00 L 1738.00 3229.00 L 1898.00 3229.00 L 1918.00 3228.00 L 2078.00 3228.00 L 2098.00 3227.00 L 2252.83 3227.00 L 1995.00 3201.00 L 1506.00 3228.00 L 1383.00 3132.00 L 1503.00 3126.00 L 1531.40 3124.00 Z" />
<path id="csg562-009-23" fill="none" stroke="black" stroke-width="1" d="M 2098.00 3227.00 L 2078.00 3228.00 L 1918.00 3228.00 L 1898.00 3229.00 L 1738.00 3229.00 L 1718.00 3230.00 L 1578.00 3230.00 L 1558.00 3231.00 L 1398.00 3231.00 L 1378.00 3232.00 L 1218.00 3232.00 L 1198.00 3233.00 L 1058.00 3233.00 L 1038.00 3253.00 L 1018.00 3234.00 L 858.00 3234.00 L 838.00 3235.00 L 678.00 3235.00 L 658.00 3236.00 L 498.00 3236.00 L 478.00 3237.00 L 398.02 3237.00 L 413.34 3346.00 L 618.00 3346.00 L 638.00 3345.00 L 698.00 3345.00 L 718.00 3365.00 L 738.00 3345.00 L 938.00 3345.00 L 958.00 3344.00 L 1258.00 3344.00 L 1278.00 3343.00 L 1558.00 3343.00 L 1578.00 3342.00 L 1878.00 3342.00 L 1898.00 3341.00 L 2198.00 3341.00 L 2218.00 3340.00 L 2500.32 3340.00 L 2352.00 3237.00 L 2252.83 3227.00 Z" />
<path id="csg562-009-24" fill="none" stroke="black" stroke-width="1" d="M 2218.00 3340.00 L 2198.00 3341.00 L 1898.00 3341.00 L 1878.00 3342.00 L 1578.00 3342.00 L 1558.00 3343.00 L 1278.00 3343.00 L 1258.00 3344.00 L 958.00 3344.00 L 938.00 3345.00 L 738.00 3345.00 L 718.00 3365.00 L 698.00 3345.00 L 638.00 3345.00 L 618.00 3346.00 L 413.34 3346.00 L 417.00 3372.00 L 387.00 3453.00 L 424.28 3473.97 L 438.00 3463.00 L 599.33 3463.00 L 609.00 3462.00 L 1068.00 3462.00 L 1083.50 3463.00 L 1098.00 3463.00 L 1118.00 3462.00 L 1769.00 3462.00 L 1797.00 3453.00 L 2568.00 3441.00 L 2568.00 3387.00 L 2500.32 3340.00 Z" />
</svg>
