<?xml version="1.0" standalone="no"?>
<!DOCTYPE svg PUBLIC "-//W3C//DTD SVG 1.1//EN" "http://www.w3.org/Graphics/SVG/1.1/DTD/svg11.dtd">
<svg width="46.22222in" height="69.333336in" viewBox="0 0 3328 4992" xmlns="http://www.w3.org/2000/svg" version="1.1">
<path id="csg562-022-01" fill="none" stroke="black" stroke-width="1" d="M 1959.20 794.00 L 1746.00 846.00 L 1620.00 828.00 L 1278.00 855.00 L 852.00 849.00 L 853.38 948.24 L 872.00 938.00 L 932.00 938.00 L 952.00 937.00 L 1032.00 937.00 L 1052.00 936.00 L 1132.00 936.00 L 1152.00 935.00 L 1232.00 935.00 L 1252.00 934.00 L 1332.00 934.00 L 1352.00 933.00 L 1432.00 933.00 L 1452.00 932.00 L 1532.00 932.00 L 1552.00 931.00 L 1632.00 931.00 L 1652.00 930.00 L 1732.00 930.00 L 1752.00 949.00 L 1772.00 929.00 L 1792.00 929.00 L 1812.00 969.00 L 1832.00 969.00 L 1852.00 948.00 L 1872.00 928.00 L 1932.00 928.00 L 1952.00 927.00 L 2032.00 927.00 L 2052.00 926.00 L 2132.00 926.00 L 2152.00 925.00 L 2232.00 925.00 L 2252.00 924.00 L 2332.00 924.00 L 2352.00 923.00 L 2432.00 923.00 L 2452.00 922.00 L 2532.00 922.00 L 2552.00 921.00 L 2632.00 921.00 L 2652.00 920.00 L 2672.00 940.00 L 2712.00 940.00 L 2732.00 920.00 L 2752.00 919.00 L 2832.00 919.00 L 2852.00 918.00 L 2892.00 918.00 L 2912.00 938.00 L 2932.00 917.00 L 2977.24 917.00 L 2958.00 855.00 L 2790.00 825.00 L 2484.00 843.00 L 2331.00 813.00 L 2043.00 846.00 L 1998.80 794.00 Z" />
<path id="csg562-022-02" fill="none" stroke="black" stroke-width="1" d="M 2932.00 917.00 L 2912.00 938.00 L 2892.00 918.00 L 2852.00 918.00 L 2832.00 919.00 L 2752.00 919.00 L 2732.00 920.00 L 2712.00 940.00 L 2672.00 940.00 L 2652.00 920.00 L 2632.00 921.00 L 2552.00 921.00 L 2532.00 922.00 L 2452.00 922.00 L 2432.00 923.00 L 2352.00 923.00 L 2332.00 924.00 L 2252.00 924.00 L 2232.00 925.00 L 2152.00 925.00 L 2132.00 926.00 L 2052.00 926.00 L 2032.00 927.00 L 1952.00 927.00 L 1932.00 928.00 L 1872.00 928.00 L 1852.00 948.00 L 1832.00 969.00 L 1812.00 969.00 L 1792.00 929.00 L 1772.00 929.00 L 1752.00 949.00 L 1732.00 930.00 L 1652.00 930.00 L 1632.00 931.00 L 1552.00 931.00 L 1532.00 932.00 L 1452.00 932.00 L 1432.00 933.00 L 1352.00 933.00 L 1332.00 934.00 L 1252.00 934.00 L 1232.00 935.00 L 1152.00 935.00 L 1132.00 936.00 L 1052.00 936.00 L 1032.00 937.00 L 952.00 937.00 L 932.00 938.00 L 872.00 938.00 L 853.38 948.24 L 854.95 1061.38 L 872.00 1052.00 L 992.00 1052.00 L 1012.00 1051.00 L 1152.00 1051.00 L 1172.00 1050.00 L 1312.00 1050.00 L 1332.00 1049.00 L 1472.00 1049.00 L 1492.00 1048.00 L 1612.00 1048.00 L 1632.00 1047.00 L 1772.00 1047.00 L 1792.00 1046.00 L 1932.00 1046.00 L 1952.00 1045.00 L 2092.00 1045.00 L 2112.00 1044.00 L 2232.00 1044.00 L 2252.00 1043.00 L 2392.00 1043.00 L 2412.00 1042.00 L 2552.00 1042.00 L 2572.00 1041.00 L 2712.00 1041.00 L 2732.00 1040.00 L 2752.00 1060.00 L 2792.00 1060.00 L 2812.00 1040.00 L 2852.00 1040.00 L 2872.00 1039.00 L 3012.00 1039.00 L 3015.06 1038.85 L 2977.24 917.00 Z" />
<path id="csg562-022-03" fill="none" stroke="black" stroke-width="1" d="M 3015.06 1038.85 L 3012.00 1039.00 L 2872.00 1039.00 L 2852.00 1040.00 L 2812.00 1040.00 L 2792.00 1060.00 L 2752.00 1060.00 L 2732.00 1040.00 L 2712.00 1041.00 L 2572.00 1041.00 L 2552.00 1042.00 L 2412.00 1042.00 L 2392.00 1043.00 L 2252.00 1043.00 L 2232.00 1044.00 L 2112.00 1044.00 L 2092.00 1045.00 L 1952.00 1045.00 L 1932.00 1046.00 L 1792.00 1046.00 L 1772.00 1047.00 L 1632.00 1047.00 L 1612.00 1048.00 L 1492.00 1048.00 L 1472.00 1049.00 L 1332.00 1049.00 L 1312.00 1050.00 L 1172.00 1050.00 L 1152.00 1051.00 L 1012.00 1051.00 L 992.00 1052.00 L 872.00 1052.00 L 854.95 1061.38 L 856.62 1181.46 L 872.00 1173.00 L 892.00 1153.00 L 912.00 1153.00 L 932.00 1173.00 L 952.00 1173.00 L 972.00 1172.00 L 992.00 1192.00 L 1012.00 1192.00 L 1032.00 1172.00 L 1052.00 1172.00 L 1072.00 1171.00 L 1152.00 1171.00 L 1172.00 1170.00 L 1272.00 1170.00 L 1292.00 1169.00 L 1372.00 1169.00 L 1392.00 1168.00 L 1472.00 1168.00 L 1492.00 1167.00 L 1572.00 1167.00 L 1592.00 1166.00 L 1692.00 1166.00 L 1712.00 1165.00 L 1792.00 1165.00 L 1812.00 1164.00 L 1892.00 1164.00 L 1912.00 1163.00 L 1992.00 1163.00 L 2012.00 1162.00 L 2112.00 1162.00 L 2132.00 1161.00 L 2212.00 1161.00 L 2232.00 1160.00 L 2312.00 1160.00 L 2332.00 1159.00 L 2432.00 1159.00 L 2452.00 1158.00 L 2532.00 1158.00 L 2552.00 1157.00 L 2632.00 1157.00 L 2652.00 1156.00 L 2692.00 1156.00 L 2712.00 1176.00 L 2732.00 1176.00 L 2752.00 1155.00 L 2852.00 1155.00 L 2872.00 1154.00 L 2952.00 1154.00 L 2972.00 1153.00 L 2992.00 1173.00 L 3010.00 1173.00 L 3039.00 1116.00 L 3015.06 1038.85 Z" />
<path id="csg562-022-04" fill="none" stroke="black" stroke-width="1" d="M 892.00 1153.00 L 872.00 1173.00 L 856.62 1181.46 L 858.00 1281.00 L 858.09 1287.65 L 872.00 1280.00 L 932.00 1280.00 L 952.00 1279.00 L 1032.00 1279.00 L 1052.00 1278.00 L 1112.00 1278.00 L 1132.00 1277.00 L 1212.00 1277.00 L 1232.00 1276.00 L 1292.00 1276.00 L 1312.00 1275.00 L 1352.00 1275.00 L 1372.00 1295.00 L 1392.00 1275.00 L 1412.00 1274.00 L 1472.00 1274.00 L 1492.00 1273.00 L 1572.00 1273.00 L 1592.00 1272.00 L 1652.00 1272.00 L 1672.00 1271.00 L 1752.00 1271.00 L 1772.00 1270.00 L 1832.00 1270.00 L 1852.00 1269.00 L 1912.00 1269.00 L 1932.00 1289.00 L 1952.00 1288.00 L 1972.00 1268.00 L 2012.00 1268.00 L 2032.00 1267.00 L 2112.00 1267.00 L 2132.00 1266.00 L 2212.00 1266.00 L 2232.00 1265.00 L 2292.00 1265.00 L 2312.00 1264.00 L 2392.00 1264.00 L 2412.00 1263.00 L 2472.00 1263.00 L 2492.00 1262.00 L 2572.00 1262.00 L 2592.00 1261.00 L 2652.00 1261.00 L 2672.00 1260.00 L 2712.00 1260.00 L 2732.00 1280.00 L 2752.00 1280.00 L 2772.00 1259.00 L 2792.00 1279.00 L 2812.00 1259.00 L 2832.00 1259.00 L 2852.00 1258.00 L 2932.00 1258.00 L 2952.00 1257.00 L 2967.26 1257.00 L 3010.00 1173.00 L 2992.00 1173.00 L 2972.00 1153.00 L 2952.00 1154.00 L 2872.00 1154.00 L 2852.00 1155.00 L 2752.00 1155.00 L 2732.00 1176.00 L 2712.00 1176.00 L 2692.00 1156.00 L 2652.00 1156.00 L 2632.00 1157.00 L 2552.00 1157.00 L 2532.00 1158.00 L 2452.00 1158.00 L 2432.00 1159.00 L 2332.00 1159.00 L 2312.00 1160.00 L 2232.00 1160.00 L 2212.00 1161.00 L 2132.00 1161.00 L 2112.00 1162.00 L 2012.00 1162.00 L 1992.00 1163.00 L 1912.00 1163.00 L 1892.00 1164.00 L 1812.00 1164.00 L 1792.00 1165.00 L 1712.00 1165.00 L 1692.00 1166.00 L 1592.00 1166.00 L 1572.00 1167.00 L 1492.00 1167.00 L 1472.00 1168.00 L 1392.00 1168.00 L 1372.00 1169.00 L 1292.00 1169.00 L 1272.00 1170.00 L 1172.00 1170.00 L 1152.00 1171.00 L 1072.00 1171.00 L 1052.00 1172.00 L 1032.00 1172.00 L 1012.00 1192.00 L 992.00 1192.00 L 972.00 1172.00 L 952.00 1173.00 L 932.00 1173.00 L 912.00 1153.00 Z" />
<path id="csg562-022-05" fill="none" stroke="black" stroke-width="1" d="M 2952.00 1257.00 L 2932.00 1258.00 L 2852.00 1258.00 L 2832.00 1259.00 L 2812.00 1259.00 L 2792.00 1279.00 L 2772.00 1259.00 L 2752.00 1280.00 L 2732.00 1280.00 L 2712.00 1260.00 L 2672.00 1260.00 L 2652.00 1261.00 L 2592.00 1261.00 L 2572.00 1262.00 L 2492.00 1262.00 L 2472.00 1263.00 L 2412.00 1263.00 L 2392.00 1264.00 L 2312.00 1264.00 L 2292.00 1265.00 L 2232.00 1265.00 L 2212.00 1266.00 L 2132.00 1266.00 L 2112.00 1267.00 L 2032.00 1267.00 L 2012.00 1268.00 L 1972.00 1268.00 L 1952.00 1288.00 L 1932.00 1289.00 L 1912.00 1269.00 L 1852.00 1269.00 L 1832.00 1270.00 L 1772.00 1270.00 L 1752.00 1271.00 L 1672.00 1271.00 L 1652.00 1272.00 L 1592.00 1272.00 L 1572.00 1273.00 L 1492.00 1273.00 L 1472.00 1274.00 L 1412.00 1274.00 L 1392.00 1275.00 L 1372.00 1295.00 L 1352.00 1275.00 L 1312.00 1275.00 L 1292.00 1276.00 L 1232.00 1276.00 L 1212.00 1277.00 L 1132.00 1277.00 L 1112.00 1278.00 L 1052.00 1278.00 L 1032.00 1279.00 L 952.00 1279.00 L 932.00 1280.00 L 872.00 1280.00 L 858.09 1287.65 L 859.48 1394.89 L 872.00 1388.00 L 952.00 1388.00 L 972.00 1387.00 L 1072.00 1387.00 L 1092.00 1386.00 L 1192.00 1386.00 L 1212.00 1385.00 L 1312.00 1385.00 L 1332.00 1384.00 L 1432.00 1384.00 L 1452.00 1383.00 L 1552.00 1383.00 L 1572.00 1382.00 L 1672.00 1382.00 L 1692.00 1381.00 L 1792.00 1381.00 L 1812.00 1380.00 L 1912.00 1380.00 L 1932.00 1379.00 L 2012.00 1379.00 L 2032.00 1378.00 L 2132.00 1378.00 L 2152.00 1377.00 L 2252.00 1377.00 L 2272.00 1376.00 L 2332.00 1376.00 L 2352.00 1396.00 L 2372.00 1396.00 L 2392.00 1375.00 L 2492.00 1375.00 L 2512.00 1374.00 L 2612.00 1374.00 L 2632.00 1373.00 L 2732.00 1373.00 L 2752.00 1372.00 L 2852.00 1372.00 L 2872.00 1371.00 L 2972.00 1371.00 L 2987.35 1370.23 L 2952.00 1287.00 L 2967.26 1257.00 Z" />
<path id="csg562-022-06" fill="none" stroke="black" stroke-width="1" d="M 2987.35 1370.23 L 2972.00 1371.00 L 2872.00 1371.00 L 2852.00 1372.00 L 2752.00 1372.00 L 2732.00 1373.00 L 2632.00 1373.00 L 2612.00 1374.00 L 2512.00 1374.00 L 2492.00 1375.00 L 2392.00 1375.00 L 2372.00 1396.00 L 2352.00 1396.00 L 2332.00 1376.00 L 2272.00 1376.00 L 2252.00 1377.00 L 2152.00 1377.00 L 2132.00 1378.00 L 2032.00 1378.00 L 2012.00 1379.00 L 1932.00 1379.00 L 1912.00 1380.00 L 1812.00 1380.00 L 1792.00 1381.00 L 1692.00 1381.00 L 1672.00 1382.00 L 1572.00 1382.00 L 1552.00 1383.00 L 1452.00 1383.00 L 1432.00 1384.00 L 1332.00 1384.00 L 1312.00 1385.00 L 1212.00 1385.00 L 1192.00 1386.00 L 1092.00 1386.00 L 1072.00 1387.00 L 972.00 1387.00 L 952.00 1388.00 L 872.00 1388.00 L 859.48 1394.89 L 860.92 1506.09 L 872.00 1500.00 L 1012.00 1500.00 L 1032.00 1499.00 L 1172.00 1499.00 L 1192.00 1498.00 L 1212.00 1518.00 L 1232.00 1498.00 L 1352.00 1498.00 L 1372.00 1497.00 L 1512.00 1497.00 L 1532.00 1496.00 L 1672.00 1496.00 L 1692.00 1495.00 L 1852.00 1495.00 L 1872.00 1514.00 L 1892.00 1514.00 L 1912.00 1494.00 L 2012.00 1494.00 L 2032.00 1493.00 L 2192.00 1493.00 L 2212.00 1492.00 L 2352.00 1492.00 L 2372.00 1491.00 L 2512.00 1491.00 L 2532.00 1490.00 L 2692.00 1490.00 L 2712.00 1489.00 L 2772.00 1489.00 L 2792.00 1509.00 L 2812.00 1489.00 L 2852.00 1489.00 L 2872.00 1488.00 L 2972.00 1488.00 L 2987.03 1503.03 L 2996.49 1503.51 L 3012.00 1488.00 L 3032.00 1488.00 L 3037.24 1487.74 L 2987.35 1370.23 Z" />
<path id="csg562-022-07" fill="none" stroke="black" stroke-width="1" d="M 2872.00 1488.00 L 2852.00 1489.00 L 2812.00 1489.00 L 2792.00 1509.00 L 2772.00 1489.00 L 2712.00 1489.00 L 2692.00 1490.00 L 2532.00 1490.00 L 2512.00 1491.00 L 2372.00 1491.00 L 2352.00 1492.00 L 2212.00 1492.00 L 2192.00 1493.00 L 2032.00 1493.00 L 2012.00 1494.00 L 1912.00 1494.00 L 1892.00 1514.00 L 1872.00 1514.00 L 1852.00 1495.00 L 1692.00 1495.00 L 1672.00 1496.00 L 1532.00 1496.00 L 1512.00 1497.00 L 1372.00 1497.00 L 1352.00 1498.00 L 1232.00 1498.00 L 1212.00 1518.00 L 1192.00 1498.00 L 1172.00 1499.00 L 1032.00 1499.00 L 1012.00 1500.00 L 872.00 1500.00 L 860.92 1506.09 L 862.41 1620.28 L 872.00 1615.00 L 972.00 1615.00 L 992.00 1614.00 L 1092.00 1614.00 L 1112.00 1613.00 L 1212.00 1613.00 L 1232.00 1612.00 L 1332.00 1612.00 L 1352.00 1611.00 L 1452.00 1611.00 L 1472.00 1610.00 L 1572.00 1610.00 L 1592.00 1609.00 L 1692.00 1609.00 L 1712.00 1629.00 L 1732.00 1628.00 L 1752.00 1628.00 L 1772.00 1608.00 L 1832.00 1608.00 L 1852.00 1607.00 L 1932.00 1607.00 L 1952.00 1627.00 L 1972.00 1606.00 L 2072.00 1606.00 L 2092.00 1605.00 L 2192.00 1605.00 L 2212.00 1604.00 L 2312.00 1604.00 L 2332.00 1603.00 L 2432.00 1603.00 L 2452.00 1602.00 L 2572.00 1602.00 L 2592.00 1601.00 L 2692.00 1601.00 L 2712.00 1600.00 L 2812.00 1600.00 L 2832.00 1599.00 L 2892.00 1599.00 L 2912.00 1619.00 L 2932.00 1619.00 L 2952.00 1598.00 L 2961.94 1598.00 L 2931.00 1554.00 L 2928.00 1500.00 L 2987.03 1503.03 L 2972.00 1488.00 Z" />
<path id="csg562-022-08" fill="none" stroke="black" stroke-width="1" d="M 2952.00 1598.00 L 2932.00 1619.00 L 2912.00 1619.00 L 2892.00 1599.00 L 2832.00 1599.00 L 2812.00 1600.00 L 2712.00 1600.00 L 2692.00 1601.00 L 2592.00 1601.00 L 2572.00 1602.00 L 2452.00 1602.00 L 2432.00 1603.00 L 2332.00 1603.00 L 2312.00 1604.00 L 2212.00 1604.00 L 2192.00 1605.00 L 2092.00 1605.00 L 2072.00 1606.00 L 1972.00 1606.00 L 1952.00 1627.00 L 1932.00 1607.00 L 1852.00 1607.00 L 1832.00 1608.00 L 1772.00 1608.00 L 1752.00 1628.00 L 1732.00 1628.00 L 1712.00 1629.00 L 1692.00 1609.00 L 1592.00 1609.00 L 1572.00 1610.00 L 1472.00 1610.00 L 1452.00 1611.00 L 1352.00 1611.00 L 1332.00 1612.00 L 1232.00 1612.00 L 1212.00 1613.00 L 1112.00 1613.00 L 1092.00 1614.00 L 992.00 1614.00 L 972.00 1615.00 L 872.00 1615.00 L 862.41 1620.28 L 863.94 1738.43 L 872.00 1734.00 L 952.00 1734.00 L 972.00 1733.00 L 1072.00 1733.00 L 1092.00 1732.00 L 1192.00 1732.00 L 1212.00 1731.00 L 1292.00 1731.00 L 1312.00 1730.00 L 1412.00 1730.00 L 1432.00 1729.00 L 1532.00 1729.00 L 1552.00 1728.00 L 1652.00 1728.00 L 1672.00 1727.00 L 1752.00 1727.00 L 1772.00 1726.00 L 1872.00 1726.00 L 1892.00 1725.00 L 1912.00 1725.00 L 1932.00 1705.00 L 1952.00 1705.00 L 1972.00 1725.00 L 1992.00 1725.00 L 2012.00 1724.00 L 2112.00 1724.00 L 2132.00 1723.00 L 2192.00 1723.00 L 2212.00 1743.00 L 2232.00 1722.00 L 2332.00 1722.00 L 2352.00 1721.00 L 2452.00 1721.00 L 2472.00 1720.00 L 2572.00 1720.00 L 2592.00 1719.00 L 2672.00 1719.00 L 2692.00 1718.00 L 2792.00 1718.00 L 2812.00 1717.00 L 2912.00 1717.00 L 2932.00 1716.00 L 3032.00 1716.00 L 3044.47 1715.38 L 2961.94 1598.00 Z" />
<path id="csg562-022-09" fill="none" stroke="black" stroke-width="1" d="M 1932.00 1705.00 L 1912.00 1725.00 L 1892.00 1725.00 L 1872.00 1726.00 L 1772.00 1726.00 L 1752.00 1727.00 L 1672.00 1727.00 L 1652.00 1728.00 L 1552.00 1728.00 L 1532.00 1729.00 L 1432.00 1729.00 L 1412.00 1730.00 L 1312.00 1730.00 L 1292.00 1731.00 L 1212.00 1731.00 L 1192.00 1732.00 L 1092.00 1732.00 L 1072.00 1733.00 L 972.00 1733.00 L 952.00 1734.00 L 872.00 1734.00 L 863.94 1738.43 L 864.00 1743.00 L 865.73 1851.45 L 872.00 1848.00 L 1012.00 1848.00 L 1032.00 1847.00 L 1052.00 1847.00 L 1072.00 1867.00 L 1092.00 1847.00 L 1172.00 1847.00 L 1192.00 1846.00 L 1332.00 1846.00 L 1352.00 1845.00 L 1492.00 1845.00 L 1512.00 1844.00 L 1652.00 1844.00 L 1672.00 1843.00 L 1812.00 1843.00 L 1832.00 1863.00 L 1852.00 1842.00 L 1992.00 1842.00 L 2012.00 1841.00 L 2152.00 1841.00 L 2172.00 1840.00 L 2312.00 1840.00 L 2332.00 1839.00 L 2472.00 1839.00 L 2492.00 1838.00 L 2652.00 1838.00 L 2672.00 1837.00 L 2812.00 1837.00 L 2832.00 1836.00 L 2904.00 1836.00 L 3042.00 1821.00 L 3066.00 1746.00 L 3044.47 1715.38 L 3032.00 1716.00 L 2932.00 1716.00 L 2912.00 1717.00 L 2812.00 1717.00 L 2792.00 1718.00 L 2692.00 1718.00 L 2672.00 1719.00 L 2592.00 1719.00 L 2572.00 1720.00 L 2472.00 1720.00 L 2452.00 1721.00 L 2352.00 1721.00 L 2332.00 1722.00 L 2232.00 1722.00 L 2212.00 1743.00 L 2192.00 1723.00 L 2132.00 1723.00 L 2112.00 1724.00 L 2012.00 1724.00 L 1992.00 1725.00 L 1972.00 1725.00 L 1952.00 1705.00 Z" />
<path id="csg562-022-10" fill="none" stroke="black" stroke-width="1" d="M 2832.00 1836.00 L 2812.00 1837.00 L 2672.00 1837.00 L 2652.00 1838.00 L 2492.00 1838.00 L 2472.00 1839.00 L 2332.00 1839.00 L 2312.00 1840.00 L 2172.00 1840.00 L 2152.00 1841.00 L 2012.00 1841.00 L 1992.00 1842.00 L 1852.00 1842.00 L 1832.00 1863.00 L 1812.00 1843.00 L 1672.00 1843.00 L 1652.00 1844.00 L 1512.00 1844.00 L 1492.00 1845.00 L 1352.00 1845.00 L 1332.00 1846.00 L 1192.00 1846.00 L 1172.00 1847.00 L 1092.00 1847.00 L 1072.00 1867.00 L 1052.00 1847.00 L 1032.00 1847.00 L 1012.00 1848.00 L 872.00 1848.00 L 865.73 1851.45 L 867.28 1948.60 L 872.00 1946.00 L 972.00 1946.00 L 992.00 1945.00 L 1092.00 1945.00 L 1112.00 1944.00 L 1212.00 1944.00 L 1232.00 1943.00 L 1252.00 1963.00 L 1272.00 1963.00 L 1292.00 1943.00 L 1332.00 1943.00 L 1352.00 1942.00 L 1372.00 1962.00 L 1392.00 1942.00 L 1452.00 1942.00 L 1472.00 1941.00 L 1572.00 1941.00 L 1592.00 1940.00 L 1692.00 1940.00 L 1712.00 1939.00 L 1812.00 1939.00 L 1832.00 1938.00 L 1932.00 1938.00 L 1952.00 1937.00 L 2052.00 1937.00 L 2072.00 1936.00 L 2172.00 1936.00 L 2192.00 1935.00 L 2292.00 1935.00 L 2312.00 1934.00 L 2412.00 1934.00 L 2432.00 1933.00 L 2532.00 1933.00 L 2552.00 1932.00 L 2652.00 1932.00 L 2672.00 1931.00 L 2772.00 1931.00 L 2792.00 1930.00 L 2892.00 1930.00 L 2912.00 1929.00 L 2914.57 1929.00 L 2904.00 1836.00 Z" />
<path id="csg562-022-11" fill="none" stroke="black" stroke-width="1" d="M 2912.00 1929.00 L 2892.00 1930.00 L 2792.00 1930.00 L 2772.00 1931.00 L 2672.00 1931.00 L 2652.00 1932.00 L 2552.00 1932.00 L 2532.00 1933.00 L 2432.00 1933.00 L 2412.00 1934.00 L 2312.00 1934.00 L 2292.00 1935.00 L 2192.00 1935.00 L 2172.00 1936.00 L 2072.00 1936.00 L 2052.00 1937.00 L 1952.00 1937.00 L 1932.00 1938.00 L 1832.00 1938.00 L 1812.00 1939.00 L 1712.00 1939.00 L 1692.00 1940.00 L 1592.00 1940.00 L 1572.00 1941.00 L 1472.00 1941.00 L 1452.00 1942.00 L 1392.00 1942.00 L 1372.00 1962.00 L 1352.00 1942.00 L 1332.00 1943.00 L 1292.00 1943.00 L 1272.00 1963.00 L 1252.00 1963.00 L 1232.00 1943.00 L 1212.00 1944.00 L 1112.00 1944.00 L 1092.00 1945.00 L 992.00 1945.00 L 972.00 1946.00 L 872.00 1946.00 L 867.28 1948.60 L 869.11 2063.59 L 872.00 2062.00 L 972.00 2062.00 L 992.00 2061.00 L 1112.00 2061.00 L 1132.00 2060.00 L 1232.00 2060.00 L 1252.00 2059.00 L 1372.00 2059.00 L 1392.00 2058.00 L 1512.00 2058.00 L 1532.00 2057.00 L 1552.00 2037.00 L 1572.00 2037.00 L 1592.00 2077.00 L 1612.00 2077.00 L 1632.00 2057.00 L 1652.00 2056.00 L 1772.00 2056.00 L 1792.00 2055.00 L 1892.00 2055.00 L 1912.00 2054.00 L 2032.00 2054.00 L 2052.00 2053.00 L 2172.00 2053.00 L 2192.00 2052.00 L 2292.00 2052.00 L 2312.00 2051.00 L 2432.00 2051.00 L 2452.00 2050.00 L 2572.00 2050.00 L 2592.00 2049.00 L 2692.00 2049.00 L 2712.00 2048.00 L 2832.00 2048.00 L 2852.00 2047.00 L 2952.00 2047.00 L 2959.84 2046.61 L 2919.00 1968.00 L 2914.57 1929.00 Z" />
<path id="csg562-022-12" fill="none" stroke="black" stroke-width="1" d="M 1552.00 2037.00 L 1532.00 2057.00 L 1512.00 2058.00 L 1392.00 2058.00 L 1372.00 2059.00 L 1252.00 2059.00 L 1232.00 2060.00 L 1132.00 2060.00 L 1112.00 2061.00 L 992.00 2061.00 L 972.00 2062.00 L 872.00 2062.00 L 869.11 2063.59 L 870.74 2165.70 L 872.00 2165.00 L 992.00 2165.00 L 1012.00 2164.00 L 1132.00 2164.00 L 1152.00 2163.00 L 1272.00 2163.00 L 1292.00 2162.00 L 1432.00 2162.00 L 1452.00 2161.00 L 1472.00 2181.00 L 1492.00 2181.00 L 1512.00 2161.00 L 1572.00 2161.00 L 1592.00 2160.00 L 1712.00 2160.00 L 1732.00 2159.00 L 1872.00 2159.00 L 1892.00 2158.00 L 2012.00 2158.00 L 2032.00 2157.00 L 2152.00 2157.00 L 2172.00 2156.00 L 2312.00 2156.00 L 2332.00 2155.00 L 2452.00 2155.00 L 2472.00 2154.00 L 2592.00 2154.00 L 2612.00 2153.00 L 2732.00 2153.00 L 2752.00 2152.00 L 2892.00 2152.00 L 2912.00 2151.00 L 3014.06 2151.00 L 2959.84 2046.61 L 2952.00 2047.00 L 2852.00 2047.00 L 2832.00 2048.00 L 2712.00 2048.00 L 2692.00 2049.00 L 2592.00 2049.00 L 2572.00 2050.00 L 2452.00 2050.00 L 2432.00 2051.00 L 2312.00 2051.00 L 2292.00 2052.00 L 2192.00 2052.00 L 2172.00 2053.00 L 2052.00 2053.00 L 2032.00 2054.00 L 1912.00 2054.00 L 1892.00 2055.00 L 1792.00 2055.00 L 1772.00 2056.00 L 1652.00 2056.00 L 1632.00 2057.00 L 1612.00 2077.00 L 1592.00 2077.00 L 1572.00 2037.00 Z" />
<path id="csg562-022-13" fill="none" stroke="black" stroke-width="1" d="M 2912.00 2151.00 L 2892.00 2152.00 L 2752.00 2152.00 L 2732.00 2153.00 L 2612.00 2153.00 L 2592.00 2154.00 L 2472.00 2154.00 L 2452.00 2155.00 L 2332.00 2155.00 L 2312.00 2156.00 L 2172.00 2156.00 L 2152.00 2157.00 L 2032.00 2157.00 L 2012.00 2158.00 L 1892.00 2158.00 L 1872.00 2159.00 L 1732.00 2159.00 L 1712.00 2160.00 L 1592.00 2160.00 L 1572.00 2161.00 L 1512.00 2161.00 L 1492.00 2181.00 L 1472.00 2181.00 L 1452.00 2161.00 L 1432.00 2162.00 L 1292.00 2162.00 L 1272.00 2163.00 L 1152.00 2163.00 L 1132.00 2164.00 L 1012.00 2164.00 L 992.00 2165.00 L 872.00 2165.00 L 870.74 2165.70 L 872.46 2274.00 L 1072.00 2274.00 L 1092.00 2273.00 L 1112.00 2293.00 L 1132.00 2293.00 L 1152.00 2273.00 L 1292.00 2273.00 L 1312.00 2272.00 L 1512.00 2272.00 L 1532.00 2271.00 L 1732.00 2271.00 L 1752.00 2270.00 L 1952.00 2270.00 L 1972.00 2269.00 L 2172.00 2269.00 L 2192.00 2268.00 L 2212.00 2268.00 L 2232.00 2288.00 L 2252.00 2288.00 L 2272.00 2268.00 L 2332.00 2268.00 L 2352.00 2288.00 L 2392.00 2288.00 L 2412.00 2267.00 L 2612.00 2267.00 L 2632.00 2266.00 L 2852.00 2266.00 L 2872.00 2265.00 L 3013.80 2265.00 L 3039.00 2199.00 L 3014.06 2151.00 Z" />
<path id="csg562-022-14" fill="none" stroke="black" stroke-width="1" d="M 2872.00 2265.00 L 2852.00 2266.00 L 2632.00 2266.00 L 2612.00 2267.00 L 2412.00 2267.00 L 2392.00 2288.00 L 2352.00 2288.00 L 2332.00 2268.00 L 2272.00 2268.00 L 2252.00 2288.00 L 2232.00 2288.00 L 2212.00 2268.00 L 2192.00 2268.00 L 2172.00 2269.00 L 1972.00 2269.00 L 1952.00 2270.00 L 1752.00 2270.00 L 1732.00 2271.00 L 1532.00 2271.00 L 1512.00 2272.00 L 1312.00 2272.00 L 1292.00 2273.00 L 1152.00 2273.00 L 1132.00 2293.00 L 1112.00 2293.00 L 1092.00 2273.00 L 1072.00 2274.00 L 872.46 2274.00 L 874.44 2398.00 L 952.00 2398.00 L 972.00 2397.00 L 1052.00 2397.00 L 1072.00 2396.00 L 1172.00 2396.00 L 1192.00 2395.00 L 1272.00 2395.00 L 1292.00 2394.00 L 1352.00 2394.00 L 1372.00 2414.00 L 1392.00 2394.00 L 1412.00 2393.00 L 1492.00 2393.00 L 1512.00 2392.00 L 1572.00 2392.00 L 1592.00 2412.00 L 1612.00 2412.00 L 1632.00 2391.00 L 1712.00 2391.00 L 1732.00 2390.00 L 1832.00 2390.00 L 1852.00 2389.00 L 1932.00 2389.00 L 1952.00 2388.00 L 2032.00 2388.00 L 2052.00 2387.00 L 2152.00 2387.00 L 2172.00 2386.00 L 2252.00 2386.00 L 2272.00 2385.00 L 2372.00 2385.00 L 2392.00 2384.00 L 2472.00 2384.00 L 2492.00 2383.00 L 2592.00 2383.00 L 2612.00 2382.00 L 2692.00 2382.00 L 2712.00 2381.00 L 2732.00 2381.00 L 2752.00 2401.00 L 2772.00 2381.00 L 2812.00 2381.00 L 2831.91 2380.00 L 2832.00 2379.00 L 2976.00 2364.00 L 3013.80 2265.00 Z" />
<path id="csg562-022-15" fill="none" stroke="black" stroke-width="1" d="M 2831.91 2380.00 L 2812.00 2381.00 L 2772.00 2381.00 L 2752.00 2401.00 L 2732.00 2381.00 L 2712.00 2381.00 L 2692.00 2382.00 L 2612.00 2382.00 L 2592.00 2383.00 L 2492.00 2383.00 L 2472.00 2384.00 L 2392.00 2384.00 L 2372.00 2385.00 L 2272.00 2385.00 L 2252.00 2386.00 L 2172.00 2386.00 L 2152.00 2387.00 L 2052.00 2387.00 L 2032.00 2388.00 L 1952.00 2388.00 L 1932.00 2389.00 L 1852.00 2389.00 L 1832.00 2390.00 L 1732.00 2390.00 L 1712.00 2391.00 L 1632.00 2391.00 L 1612.00 2412.00 L 1592.00 2412.00 L 1572.00 2392.00 L 1512.00 2392.00 L 1492.00 2393.00 L 1412.00 2393.00 L 1392.00 2394.00 L 1372.00 2414.00 L 1352.00 2394.00 L 1292.00 2394.00 L 1272.00 2395.00 L 1192.00 2395.00 L 1172.00 2396.00 L 1072.00 2396.00 L 1052.00 2397.00 L 972.00 2397.00 L 952.00 2398.00 L 874.44 2398.00 L 876.00 2496.00 L 926.91 2515.09 L 932.00 2510.00 L 972.00 2510.00 L 992.00 2509.00 L 1112.00 2509.00 L 1132.00 2508.00 L 1252.00 2508.00 L 1272.00 2507.00 L 1392.00 2507.00 L 1412.00 2506.00 L 1532.00 2506.00 L 1552.00 2505.00 L 1672.00 2505.00 L 1692.00 2524.00 L 1712.00 2504.00 L 1812.00 2504.00 L 1832.00 2503.00 L 1952.00 2503.00 L 1972.00 2502.00 L 2092.00 2502.00 L 2112.00 2501.00 L 2232.00 2501.00 L 2252.00 2500.00 L 2372.00 2500.00 L 2392.00 2499.00 L 2512.00 2499.00 L 2532.00 2498.00 L 2632.00 2498.00 L 2652.00 2497.00 L 2772.00 2497.00 L 2792.00 2516.00 L 2812.00 2496.00 L 2821.12 2496.00 L 2831.91 2380.00 Z" />
<path id="csg562-022-16" fill="none" stroke="black" stroke-width="1" d="M 2812.00 2496.00 L 2792.00 2516.00 L 2772.00 2497.00 L 2652.00 2497.00 L 2632.00 2498.00 L 2532.00 2498.00 L 2512.00 2499.00 L 2392.00 2499.00 L 2372.00 2500.00 L 2252.00 2500.00 L 2232.00 2501.00 L 2112.00 2501.00 L 2092.00 2502.00 L 1972.00 2502.00 L 1952.00 2503.00 L 1832.00 2503.00 L 1812.00 2504.00 L 1712.00 2504.00 L 1692.00 2524.00 L 1672.00 2505.00 L 1552.00 2505.00 L 1532.00 2506.00 L 1412.00 2506.00 L 1392.00 2507.00 L 1272.00 2507.00 L 1252.00 2508.00 L 1132.00 2508.00 L 1112.00 2509.00 L 992.00 2509.00 L 972.00 2510.00 L 932.00 2510.00 L 926.91 2515.09 L 972.00 2532.00 L 974.30 2609.00 L 1012.00 2609.00 L 1032.00 2608.00 L 1112.00 2608.00 L 1132.00 2607.00 L 1192.00 2607.00 L 1212.00 2606.00 L 1272.00 2606.00 L 1292.00 2605.00 L 1372.00 2605.00 L 1392.00 2604.00 L 1452.00 2604.00 L 1472.00 2603.00 L 1532.00 2603.00 L 1552.00 2602.00 L 1632.00 2602.00 L 1652.00 2601.00 L 1712.00 2601.00 L 1732.00 2600.00 L 1792.00 2600.00 L 1812.00 2599.00 L 1892.00 2599.00 L 1912.00 2598.00 L 1932.00 2598.00 L 1952.00 2638.00 L 1972.00 2618.00 L 1992.00 2597.00 L 2052.00 2597.00 L 2072.00 2596.00 L 2152.00 2596.00 L 2172.00 2595.00 L 2212.00 2595.00 L 2232.00 2615.00 L 2252.00 2594.00 L 2312.00 2594.00 L 2332.00 2593.00 L 2412.00 2593.00 L 2432.00 2612.00 L 2452.00 2592.00 L 2492.00 2592.00 L 2512.00 2591.00 L 2572.00 2591.00 L 2592.00 2590.00 L 2672.00 2590.00 L 2692.00 2589.00 L 2752.00 2589.00 L 2772.00 2588.00 L 2812.00 2588.00 L 2832.00 2608.00 L 2852.00 2607.00 L 2872.00 2587.00 L 2892.00 2587.00 L 2912.00 2607.00 L 2932.00 2607.00 L 2952.00 2606.00 L 2972.00 2606.00 L 2992.00 2586.00 L 3012.00 2586.00 L 3029.27 2585.14 L 3024.00 2514.00 L 2820.00 2508.00 L 2821.12 2496.00 Z" />
<path id="csg562-022-17" fill="none" stroke="black" stroke-width="1" d="M 3029.27 2585.14 L 3012.00 2586.00 L 2992.00 2586.00 L 2972.00 2606.00 L 2952.00 2606.00 L 2932.00 2607.00 L 2912.00 2607.00 L 2892.00 2587.00 L 2872.00 2587.00 L 2852.00 2607.00 L 2832.00 2608.00 L 2812.00 2588.00 L 2772.00 2588.00 L 2752.00 2589.00 L 2692.00 2589.00 L 2672.00 2590.00 L 2592.00 2590.00 L 2572.00 2591.00 L 2512.00 2591.00 L 2492.00 2592.00 L 2452.00 2592.00 L 2432.00 2612.00 L 2412.00 2593.00 L 2332.00 2593.00 L 2312.00 2594.00 L 2252.00 2594.00 L 2232.00 2615.00 L 2212.00 2595.00 L 2172.00 2595.00 L 2152.00 2596.00 L 2072.00 2596.00 L 2052.00 2597.00 L 1992.00 2597.00 L 1972.00 2618.00 L 1952.00 2638.00 L 1932.00 2598.00 L 1912.00 2598.00 L 1892.00 2599.00 L 1812.00 2599.00 L 1792.00 2600.00 L 1732.00 2600.00 L 1712.00 2601.00 L 1652.00 2601.00 L 1632.00 2602.00 L 1552.00 2602.00 L 1532.00 2603.00 L 1472.00 2603.00 L 1452.00 2604.00 L 1392.00 2604.00 L 1372.00 2605.00 L 1292.00 2605.00 L 1272.00 2606.00 L 1212.00 2606.00 L 1192.00 2607.00 L 1132.00 2607.00 L 1112.00 2608.00 L 1032.00 2608.00 L 1012.00 2609.00 L 974.30 2609.00 L 977.88 2729.00 L 1032.00 2729.00 L 1052.00 2728.00 L 1112.00 2728.00 L 1132.00 2747.00 L 1152.00 2727.00 L 1212.00 2727.00 L 1232.00 2726.00 L 1292.00 2726.00 L 1312.00 2725.00 L 1352.00 2725.00 L 1372.00 2745.00 L 1392.00 2745.00 L 1412.00 2724.00 L 1472.00 2724.00 L 1492.00 2723.00 L 1572.00 2723.00 L 1592.00 2722.00 L 1652.00 2722.00 L 1672.00 2721.00 L 1752.00 2721.00 L 1772.00 2720.00 L 1832.00 2720.00 L 1852.00 2719.00 L 1932.00 2719.00 L 1952.00 2718.00 L 2012.00 2718.00 L 2032.00 2717.00 L 2112.00 2717.00 L 2132.00 2716.00 L 2192.00 2716.00 L 2212.00 2715.00 L 2292.00 2715.00 L 2312.00 2714.00 L 2372.00 2714.00 L 2392.00 2713.00 L 2472.00 2713.00 L 2492.00 2712.00 L 2552.00 2712.00 L 2572.00 2711.00 L 2592.00 2691.00 L 2612.00 2691.00 L 2632.00 2711.00 L 2652.00 2711.00 L 2672.00 2710.00 L 2732.00 2710.00 L 2752.00 2709.00 L 2832.00 2709.00 L 2852.00 2708.00 L 2912.00 2708.00 L 2932.00 2707.00 L 2963.00 2707.00 L 2952.00 2631.00 L 3030.00 2595.00 L 3029.27 2585.14 Z" />
<path id="csg562-022-18" fill="none" stroke="black" stroke-width="1" d="M 2592.00 2691.00 L 2572.00 2711.00 L 2552.00 2712.00 L 2492.00 2712.00 L 2472.00 2713.00 L 2392.00 2713.00 L 2372.00 2714.00 L 2312.00 2714.00 L 2292.00 2715.00 L 2212.00 2715.00 L 2192.00 2716.00 L 2132.00 2716.00 L 2112.00 2717.00 L 2032.00 2717.00 L 2012.00 2718.00 L 1952.00 2718.00 L 1932.00 2719.00 L 1852.00 2719.00 L 1832.00 2720.00 L 1772.00 2720.00 L 1752.00 2721.00 L 1672.00 2721.00 L 1652.00 2722.00 L 1592.00 2722.00 L 1572.00 2723.00 L 1492.00 2723.00 L 1472.00 2724.00 L 1412.00 2724.00 L 1392.00 2745.00 L 1372.00 2745.00 L 1352.00 2725.00 L 1312.00 2725.00 L 1292.00 2726.00 L 1232.00 2726.00 L 1212.00 2727.00 L 1152.00 2727.00 L 1132.00 2747.00 L 1112.00 2728.00 L 1052.00 2728.00 L 1032.00 2729.00 L 977.88 2729.00 L 978.00 2733.00 L 879.00 2784.00 L 876.09 2850.09 L 892.00 2866.00 L 912.00 2866.00 L 932.00 2846.00 L 952.00 2846.00 L 972.00 2845.00 L 1072.00 2845.00 L 1092.00 2844.00 L 1172.00 2844.00 L 1192.00 2843.00 L 1292.00 2843.00 L 1312.00 2842.00 L 1392.00 2842.00 L 1412.00 2841.00 L 1512.00 2841.00 L 1532.00 2840.00 L 1612.00 2840.00 L 1632.00 2839.00 L 1732.00 2839.00 L 1752.00 2838.00 L 1832.00 2838.00 L 1852.00 2837.00 L 1952.00 2837.00 L 1972.00 2836.00 L 2052.00 2836.00 L 2072.00 2835.00 L 2172.00 2835.00 L 2192.00 2834.00 L 2272.00 2834.00 L 2292.00 2833.00 L 2392.00 2833.00 L 2412.00 2832.00 L 2512.00 2832.00 L 2532.00 2831.00 L 2612.00 2831.00 L 2632.00 2850.00 L 2652.00 2830.00 L 2732.00 2830.00 L 2752.00 2829.00 L 2832.00 2829.00 L 2852.00 2828.00 L 2952.00 2828.00 L 2972.00 2827.00 L 2980.37 2827.00 L 2963.00 2707.00 L 2932.00 2707.00 L 2912.00 2708.00 L 2852.00 2708.00 L 2832.00 2709.00 L 2752.00 2709.00 L 2732.00 2710.00 L 2672.00 2710.00 L 2652.00 2711.00 L 2632.00 2711.00 L 2612.00 2691.00 Z" />
<path id="csg562-022-19" fill="none" stroke="black" stroke-width="1" d="M 2972.00 2827.00 L 2952.00 2828.00 L 2852.00 2828.00 L 2832.00 2829.00 L 2752.00 2829.00 L 2732.00 2830.00 L 2652.00 2830.00 L 2632.00 2850.00 L 2612.00 2831.00 L 2532.00 2831.00 L 2512.00 2832.00 L 2412.00 2832.00 L 2392.00 2833.00 L 2292.00 2833.00 L 2272.00 2834.00 L 2192.00 2834.00 L 2172.00 2835.00 L 2072.00 2835.00 L 2052.00 2836.00 L 1972.00 2836.00 L 1952.00 2837.00 L 1852.00 2837.00 L 1832.00 2838.00 L 1752.00 2838.00 L 1732.00 2839.00 L 1632.00 2839.00 L 1612.00 2840.00 L 1532.00 2840.00 L 1512.00 2841.00 L 1412.00 2841.00 L 1392.00 2842.00 L 1312.00 2842.00 L 1292.00 2843.00 L 1192.00 2843.00 L 1172.00 2844.00 L 1092.00 2844.00 L 1072.00 2845.00 L 972.00 2845.00 L 952.00 2846.00 L 932.00 2846.00 L 912.00 2866.00 L 892.00 2866.00 L 876.09 2850.09 L 871.92 2945.04 L 872.00 2945.00 L 1072.00 2945.00 L 1092.00 2944.00 L 1292.00 2944.00 L 1312.00 2943.00 L 1512.00 2943.00 L 1532.00 2942.00 L 1612.00 2942.00 L 1632.00 2962.00 L 1652.00 2962.00 L 1672.00 2942.00 L 1752.00 2942.00 L 1772.00 2941.00 L 1972.00 2941.00 L 1992.00 2940.00 L 2192.00 2940.00 L 2212.00 2939.00 L 2412.00 2939.00 L 2432.00 2938.00 L 2512.00 2938.00 L 2532.00 2958.00 L 2552.00 2938.00 L 2652.00 2938.00 L 2672.00 2937.00 L 2872.00 2937.00 L 2892.00 2936.00 L 2974.56 2936.00 L 2985.00 2859.00 L 2980.37 2827.00 Z" />
<path id="csg562-022-20" fill="none" stroke="black" stroke-width="1" d="M 2892.00 2936.00 L 2872.00 2937.00 L 2672.00 2937.00 L 2652.00 2938.00 L 2552.00 2938.00 L 2532.00 2958.00 L 2512.00 2938.00 L 2432.00 2938.00 L 2412.00 2939.00 L 2212.00 2939.00 L 2192.00 2940.00 L 1992.00 2940.00 L 1972.00 2941.00 L 1772.00 2941.00 L 1752.00 2942.00 L 1672.00 2942.00 L 1652.00 2962.00 L 1632.00 2962.00 L 1612.00 2942.00 L 1532.00 2942.00 L 1512.00 2943.00 L 1312.00 2943.00 L 1292.00 2944.00 L 1092.00 2944.00 L 1072.00 2945.00 L 872.00 2945.00 L 871.92 2945.04 L 867.00 3057.00 L 867.21 3060.64 L 872.00 3058.00 L 1192.00 3058.00 L 1212.00 3057.00 L 1532.00 3057.00 L 1552.00 3056.00 L 1872.00 3056.00 L 1892.00 3055.00 L 2132.00 3055.00 L 2152.00 3075.00 L 2172.00 3075.00 L 2192.00 3055.00 L 2212.00 3055.00 L 2232.00 3054.00 L 2572.00 3054.00 L 2592.00 3053.00 L 2846.39 3053.00 L 2847.00 3051.00 L 2961.00 3036.00 L 2974.56 2936.00 Z" />
<path id="csg562-022-21" fill="none" stroke="black" stroke-width="1" d="M 2592.00 3053.00 L 2572.00 3054.00 L 2232.00 3054.00 L 2212.00 3055.00 L 2192.00 3055.00 L 2172.00 3075.00 L 2152.00 3075.00 L 2132.00 3055.00 L 1892.00 3055.00 L 1872.00 3056.00 L 1552.00 3056.00 L 1532.00 3057.00 L 1212.00 3057.00 L 1192.00 3058.00 L 872.00 3058.00 L 867.21 3060.64 L 872.70 3157.00 L 912.00 3157.00 L 932.00 3177.00 L 952.00 3157.00 L 1092.00 3157.00 L 1112.00 3156.00 L 1332.00 3156.00 L 1352.00 3155.00 L 1552.00 3155.00 L 1572.00 3175.00 L 1592.00 3154.00 L 1812.00 3154.00 L 1832.00 3153.00 L 2052.00 3153.00 L 2072.00 3152.00 L 2312.00 3152.00 L 2332.00 3151.00 L 2552.00 3151.00 L 2572.00 3150.00 L 2792.00 3150.00 L 2812.00 3149.00 L 2817.30 3149.00 L 2846.39 3053.00 Z" />
<path id="csg562-022-22" fill="none" stroke="black" stroke-width="1" d="M 2812.00 3149.00 L 2792.00 3150.00 L 2572.00 3150.00 L 2552.00 3151.00 L 2332.00 3151.00 L 2312.00 3152.00 L 2072.00 3152.00 L 2052.00 3153.00 L 1832.00 3153.00 L 1812.00 3154.00 L 1592.00 3154.00 L 1572.00 3175.00 L 1552.00 3155.00 L 1352.00 3155.00 L 1332.00 3156.00 L 1112.00 3156.00 L 1092.00 3157.00 L 952.00 3157.00 L 932.00 3177.00 L 912.00 3157.00 L 872.70 3157.00 L 878.85 3265.00 L 992.00 3265.00 L 1012.00 3264.00 L 1072.00 3264.00 L 1092.00 3284.00 L 1112.00 3264.00 L 1152.00 3264.00 L 1172.00 3263.00 L 1292.00 3263.00 L 1312.00 3262.00 L 1452.00 3262.00 L 1472.00 3261.00 L 1492.00 3261.00 L 1512.00 3281.00 L 1532.00 3261.00 L 1612.00 3261.00 L 1632.00 3260.00 L 1752.00 3260.00 L 1772.00 3259.00 L 1912.00 3259.00 L 1932.00 3258.00 L 2072.00 3258.00 L 2092.00 3257.00 L 2112.00 3277.00 L 2132.00 3257.00 L 2212.00 3257.00 L 2232.00 3256.00 L 2372.00 3256.00 L 2392.00 3255.00 L 2512.00 3255.00 L 2532.00 3254.00 L 2672.00 3254.00 L 2692.00 3253.00 L 2832.00 3253.00 L 2852.00 3252.00 L 2972.00 3252.00 L 2978.78 3251.66 L 2916.00 3153.00 L 2817.00 3150.00 L 2817.30 3149.00 Z" />
<path id="csg562-022-23" fill="none" stroke="black" stroke-width="1" d="M 2978.78 3251.66 L 2972.00 3252.00 L 2852.00 3252.00 L 2832.00 3253.00 L 2692.00 3253.00 L 2672.00 3254.00 L 2532.00 3254.00 L 2512.00 3255.00 L 2392.00 3255.00 L 2372.00 3256.00 L 2232.00 3256.00 L 2212.00 3257.00 L 2132.00 3257.00 L 2112.00 3277.00 L 2092.00 3257.00 L 2072.00 3258.00 L 1932.00 3258.00 L 1912.00 3259.00 L 1772.00 3259.00 L 1752.00 3260.00 L 1632.00 3260.00 L 1612.00 3261.00 L 1532.00 3261.00 L 1512.00 3281.00 L 1492.00 3261.00 L 1472.00 3261.00 L 1452.00 3262.00 L 1312.00 3262.00 L 1292.00 3263.00 L 1172.00 3263.00 L 1152.00 3264.00 L 1112.00 3264.00 L 1092.00 3284.00 L 1072.00 3264.00 L 1012.00 3264.00 L 992.00 3265.00 L 878.85 3265.00 L 884.94 3372.00 L 1452.00 3372.00 L 1472.00 3371.00 L 1572.00 3371.00 L 1592.00 3351.00 L 1612.00 3371.00 L 2072.00 3371.00 L 2092.00 3370.00 L 2692.00 3370.00 L 2712.00 3369.00 L 3004.72 3369.00 L 3021.00 3318.00 L 2978.78 3251.66 Z" />
<path id="csg562-022-24" fill="none" stroke="black" stroke-width="1" d="M 1592.00 3351.00 L 1572.00 3371.00 L 1472.00 3371.00 L 1452.00 3372.00 L 884.94 3372.00 L 892.12 3498.00 L 1023.80 3498.00 L 1071.00 3486.00 L 1306.71 3497.00 L 1352.00 3497.00 L 1372.00 3496.00 L 1612.00 3496.00 L 1632.00 3495.00 L 1743.00 3495.00 L 1965.00 3483.00 L 2351.25 3493.00 L 2392.00 3493.00 L 2412.00 3492.00 L 2652.00 3492.00 L 2672.00 3491.00 L 2912.00 3491.00 L 2920.77 3490.56 L 2976.00 3459.00 L 3004.72 3369.00 L 2712.00 3369.00 L 2692.00 3370.00 L 2092.00 3370.00 L 2072.00 3371.00 L 1612.00 3371.00 L 1592.00 3351.00 Z" />
</svg>
