<?xml version="1.0" standalone="no"?>
<!DOCTYPE svg PUBLIC "-//W3C//DTD SVG 1.1//EN" "http://www.w3.org/Graphics/SVG/1.1/DTD/svg11.dtd">
<svg width="46.22222in" height="69.333336in" viewBox="0 0 3328 4992" xmlns="http://www.w3.org/2000/svg" version="1.1">
<path id="csg562-033-01" fill="none" stroke="black" stroke-width="1" d="M 825.00 816.00 L 516.00 819.00 L 411.00 864.00 L 406.78 938.00 L 1257.00 938.00 L 1277.00 939.00 L 2177.00 939.00 L 2197.00 940.00 L 2474.74 940.00 L 2448.00 858.00 L 2346.00 816.00 L 2040.00 834.00 L 1524.00 828.00 L 1269.00 852.00 L 981.00 834.00 L 825.00 816.00 Z" />
<path id="csg562-033-02" fill="none" stroke="black" stroke-width="1" d="M 406.78 938.00 L 400.80 1043.00 L 657.00 1043.00 L 677.00 1044.00 L 977.00 1044.00 L 997.00 1045.00 L 1277.00 1045.00 L 1297.00 1046.00 L 1597.00 1046.00 L 1617.00 1047.00 L 1917.00 1047.00 L 1937.00 1048.00 L 2217.00 1048.00 L 2237.00 1049.00 L 2490.71 1049.00 L 2493.00 996.00 L 2474.74 940.00 L 2197.00 940.00 L 2177.00 939.00 L 1277.00 939.00 L 1257.00 938.00 Z" />
<path id="csg562-033-03" fill="none" stroke="black" stroke-width="1" d="M 400.80 1043.00 L 394.20 1159.00 L 637.00 1159.00 L 657.00 1160.00 L 937.00 1160.00 L 957.00 1161.00 L 1237.00 1161.00 L 1257.00 1162.00 L 1537.00 1162.00 L 1557.00 1163.00 L 1837.00 1163.00 L 1857.00 1164.00 L 2137.00 1164.00 L 2157.00 1165.00 L 2437.00 1165.00 L 2457.00 1166.00 L 2485.66 1166.00 L 2490.71 1049.00 L 2237.00 1049.00 L 2217.00 1048.00 L 1937.00 1048.00 L 1917.00 1047.00 L 1617.00 1047.00 L 1597.00 1046.00 L 1297.00 1046.00 L 1277.00 1045.00 L 997.00 1045.00 L 977.00 1044.00 L 677.00 1044.00 L 657.00 1043.00 Z" />
<path id="csg562-033-04" fill="none" stroke="black" stroke-width="1" d="M 394.20 1159.00 L 387.87 1270.00 L 537.00 1270.00 L 557.00 1271.00 L 737.00 1271.00 L 757.00 1272.00 L 937.00 1272.00 L 957.00 1273.00 L 1137.00 1273.00 L 1157.00 1274.00 L 1337.00 1274.00 L 1357.00 1275.00 L 1537.00 1275.00 L 1557.00 1276.00 L 1737.00 1276.00 L 1757.00 1277.00 L 1917.00 1277.00 L 1937.00 1278.00 L 2117.00 1278.00 L 2137.00 1279.00 L 2317.00 1279.00 L 2337.00 1280.00 L 2480.74 1280.00 L 2485.66 1166.00 L 2457.00 1166.00 L 2437.00 1165.00 L 2157.00 1165.00 L 2137.00 1164.00 L 1857.00 1164.00 L 1837.00 1163.00 L 1557.00 1163.00 L 1537.00 1162.00 L 1257.00 1162.00 L 1237.00 1161.00 L 957.00 1161.00 L 937.00 1160.00 L 657.00 1160.00 L 637.00 1159.00 Z" />
<path id="csg562-033-05" fill="none" stroke="black" stroke-width="1" d="M 387.87 1270.00 L 384.00 1338.00 L 386.07 1380.00 L 557.00 1380.00 L 577.00 1381.00 L 757.00 1381.00 L 777.00 1382.00 L 957.00 1382.00 L 977.00 1383.00 L 1157.00 1383.00 L 1177.00 1384.00 L 1357.00 1384.00 L 1377.00 1385.00 L 1417.00 1385.00 L 1437.00 1365.00 L 1457.00 1365.00 L 1477.00 1385.00 L 1557.00 1385.00 L 1577.00 1386.00 L 1757.00 1386.00 L 1777.00 1387.00 L 1957.00 1387.00 L 1977.00 1388.00 L 2157.00 1388.00 L 2177.00 1389.00 L 2357.00 1389.00 L 2377.00 1390.00 L 2475.99 1390.00 L 2480.74 1280.00 L 2337.00 1280.00 L 2317.00 1279.00 L 2137.00 1279.00 L 2117.00 1278.00 L 1937.00 1278.00 L 1917.00 1277.00 L 1757.00 1277.00 L 1737.00 1276.00 L 1557.00 1276.00 L 1537.00 1275.00 L 1357.00 1275.00 L 1337.00 1274.00 L 1157.00 1274.00 L 1137.00 1273.00 L 957.00 1273.00 L 937.00 1272.00 L 757.00 1272.00 L 737.00 1271.00 L 557.00 1271.00 L 537.00 1270.00 Z" />
<path id="csg562-033-06" fill="none" stroke="black" stroke-width="1" d="M 1437.00 1365.00 L 1417.00 1385.00 L 1377.00 1385.00 L 1357.00 1384.00 L 1177.00 1384.00 L 1157.00 1383.00 L 977.00 1383.00 L 957.00 1382.00 L 777.00 1382.00 L 757.00 1381.00 L 577.00 1381.00 L 557.00 1380.00 L 386.07 1380.00 L 391.48 1490.00 L 537.00 1490.00 L 557.00 1491.00 L 717.00 1491.00 L 737.00 1492.00 L 897.00 1492.00 L 917.00 1493.00 L 1097.00 1493.00 L 1117.00 1494.00 L 1257.00 1494.00 L 1277.00 1474.00 L 1297.00 1475.00 L 1317.00 1495.00 L 1337.00 1475.00 L 1357.00 1495.00 L 1457.00 1495.00 L 1477.00 1496.00 L 1657.00 1496.00 L 1677.00 1497.00 L 1837.00 1497.00 L 1857.00 1498.00 L 2017.00 1498.00 L 2037.00 1499.00 L 2217.00 1499.00 L 2237.00 1500.00 L 2397.00 1500.00 L 2417.00 1501.00 L 2507.52 1501.00 L 2475.00 1413.00 L 2475.99 1390.00 L 2377.00 1390.00 L 2357.00 1389.00 L 2177.00 1389.00 L 2157.00 1388.00 L 1977.00 1388.00 L 1957.00 1387.00 L 1777.00 1387.00 L 1757.00 1386.00 L 1577.00 1386.00 L 1557.00 1385.00 L 1477.00 1385.00 L 1457.00 1365.00 Z" />
<path id="csg562-033-07" fill="none" stroke="black" stroke-width="1" d="M 1277.00 1474.00 L 1257.00 1494.00 L 1117.00 1494.00 L 1097.00 1493.00 L 917.00 1493.00 L 897.00 1492.00 L 737.00 1492.00 L 717.00 1491.00 L 557.00 1491.00 L 537.00 1490.00 L 391.48 1490.00 L 397.52 1613.00 L 497.00 1613.00 L 517.00 1614.00 L 637.00 1614.00 L 657.00 1615.00 L 777.00 1615.00 L 797.00 1616.00 L 917.00 1616.00 L 937.00 1617.00 L 1057.00 1617.00 L 1077.00 1618.00 L 1217.00 1618.00 L 1237.00 1619.00 L 1357.00 1619.00 L 1377.00 1620.00 L 1497.00 1620.00 L 1517.00 1621.00 L 1637.00 1621.00 L 1657.00 1622.00 L 1777.00 1622.00 L 1797.00 1623.00 L 1937.00 1623.00 L 1957.00 1624.00 L 2077.00 1624.00 L 2097.00 1625.00 L 2217.00 1625.00 L 2237.00 1626.00 L 2357.00 1626.00 L 2377.00 1627.00 L 2497.00 1627.00 L 2517.00 1628.00 L 2554.46 1628.00 L 2507.52 1501.00 L 2417.00 1501.00 L 2397.00 1500.00 L 2237.00 1500.00 L 2217.00 1499.00 L 2037.00 1499.00 L 2017.00 1498.00 L 1857.00 1498.00 L 1837.00 1497.00 L 1677.00 1497.00 L 1657.00 1496.00 L 1477.00 1496.00 L 1457.00 1495.00 L 1357.00 1495.00 L 1337.00 1475.00 L 1317.00 1495.00 L 1297.00 1475.00 L 1277.00 1474.00 Z" />
<path id="csg562-033-08" fill="none" stroke="black" stroke-width="1" d="M 397.52 1613.00 L 402.00 1704.00 L 513.00 1710.00 L 507.20 1724.00 L 657.00 1724.00 L 677.00 1725.00 L 957.00 1725.00 L 977.00 1726.00 L 1277.00 1726.00 L 1297.00 1727.00 L 1577.00 1727.00 L 1597.00 1728.00 L 1877.00 1728.00 L 1897.00 1729.00 L 2197.00 1729.00 L 2217.00 1730.00 L 2237.00 1730.00 L 2257.00 1710.00 L 2277.00 1730.00 L 2457.00 1730.00 L 2477.00 1724.00 L 2497.00 1730.00 L 2517.00 1740.00 L 2531.11 1733.65 L 2577.00 1689.00 L 2554.46 1628.00 L 2517.00 1628.00 L 2497.00 1627.00 L 2377.00 1627.00 L 2357.00 1626.00 L 2237.00 1626.00 L 2217.00 1625.00 L 2097.00 1625.00 L 2077.00 1624.00 L 1957.00 1624.00 L 1937.00 1623.00 L 1797.00 1623.00 L 1777.00 1622.00 L 1657.00 1622.00 L 1637.00 1621.00 L 1517.00 1621.00 L 1497.00 1620.00 L 1377.00 1620.00 L 1357.00 1619.00 L 1237.00 1619.00 L 1217.00 1618.00 L 1077.00 1618.00 L 1057.00 1617.00 L 937.00 1617.00 L 917.00 1616.00 L 797.00 1616.00 L 777.00 1615.00 L 657.00 1615.00 L 637.00 1614.00 L 517.00 1614.00 L 497.00 1613.00 Z" />
<path id="csg562-033-09" fill="none" stroke="black" stroke-width="1" d="M 2257.00 1710.00 L 2237.00 1730.00 L 2217.00 1730.00 L 2197.00 1729.00 L 1897.00 1729.00 L 1877.00 1728.00 L 1597.00 1728.00 L 1577.00 1727.00 L 1297.00 1727.00 L 1277.00 1726.00 L 977.00 1726.00 L 957.00 1725.00 L 677.00 1725.00 L 657.00 1724.00 L 507.20 1724.00 L 463.66 1829.00 L 617.00 1829.00 L 637.00 1828.00 L 897.00 1828.00 L 917.00 1827.00 L 1177.00 1827.00 L 1197.00 1826.00 L 1457.00 1826.00 L 1477.00 1825.00 L 1717.00 1825.00 L 1737.00 1844.00 L 1757.00 1824.00 L 1917.00 1824.00 L 1937.00 1844.00 L 1957.00 1824.00 L 1997.00 1824.00 L 2017.00 1823.00 L 2277.00 1823.00 L 2297.00 1822.00 L 2317.00 1822.00 L 2337.00 1842.00 L 2357.00 1822.00 L 2441.00 1822.00 L 2466.00 1797.00 L 2531.11 1733.65 L 2517.00 1740.00 L 2497.00 1730.00 L 2477.00 1724.00 L 2457.00 1730.00 L 2277.00 1730.00 L 2257.00 1710.00 Z" />
<path id="csg562-033-10" fill="none" stroke="black" stroke-width="1" d="M 2297.00 1822.00 L 2277.00 1823.00 L 2017.00 1823.00 L 1997.00 1824.00 L 1957.00 1824.00 L 1937.00 1844.00 L 1917.00 1824.00 L 1757.00 1824.00 L 1737.00 1844.00 L 1717.00 1825.00 L 1477.00 1825.00 L 1457.00 1826.00 L 1197.00 1826.00 L 1177.00 1827.00 L 917.00 1827.00 L 897.00 1828.00 L 637.00 1828.00 L 617.00 1829.00 L 463.66 1829.00 L 462.00 1833.00 L 381.00 1860.00 L 408.00 1929.00 L 468.00 1935.00 L 467.19 1952.00 L 697.00 1952.00 L 717.00 1951.00 L 1057.00 1951.00 L 1077.00 1950.00 L 1397.00 1950.00 L 1417.00 1949.00 L 1757.00 1949.00 L 1777.00 1948.00 L 2097.00 1948.00 L 2117.00 1947.00 L 2447.14 1947.00 L 2370.00 1893.00 L 2441.00 1822.00 L 2357.00 1822.00 L 2337.00 1842.00 L 2317.00 1822.00 Z" />
<path id="csg562-033-11" fill="none" stroke="black" stroke-width="1" d="M 2117.00 1947.00 L 2097.00 1948.00 L 1777.00 1948.00 L 1757.00 1949.00 L 1417.00 1949.00 L 1397.00 1950.00 L 1077.00 1950.00 L 1057.00 1951.00 L 717.00 1951.00 L 697.00 1952.00 L 467.19 1952.00 L 462.10 2059.00 L 637.00 2059.00 L 657.00 2058.00 L 937.00 2058.00 L 957.00 2057.00 L 1237.00 2057.00 L 1257.00 2056.00 L 1457.00 2056.00 L 1477.00 2076.00 L 1497.00 2056.00 L 1537.00 2056.00 L 1557.00 2055.00 L 1837.00 2055.00 L 1857.00 2054.00 L 2137.00 2054.00 L 2157.00 2053.00 L 2437.00 2053.00 L 2457.00 2052.00 L 2467.23 2052.00 L 2490.00 1977.00 L 2447.14 1947.00 Z" />
<path id="csg562-033-12" fill="none" stroke="black" stroke-width="1" d="M 2457.00 2052.00 L 2437.00 2053.00 L 2157.00 2053.00 L 2137.00 2054.00 L 1857.00 2054.00 L 1837.00 2055.00 L 1557.00 2055.00 L 1537.00 2056.00 L 1497.00 2056.00 L 1477.00 2076.00 L 1457.00 2056.00 L 1257.00 2056.00 L 1237.00 2057.00 L 957.00 2057.00 L 937.00 2058.00 L 657.00 2058.00 L 637.00 2059.00 L 462.10 2059.00 L 462.00 2061.00 L 411.00 2091.00 L 411.00 2179.00 L 417.00 2185.00 L 437.00 2165.00 L 2277.00 2165.00 L 2297.00 2185.00 L 2317.00 2165.00 L 2443.16 2165.00 L 2439.00 2145.00 L 2467.23 2052.00 Z" />
<path id="csg562-033-13" fill="none" stroke="black" stroke-width="1" d="M 437.00 2165.00 L 417.00 2185.00 L 411.00 2179.00 L 411.00 2271.00 L 737.00 2271.00 L 757.00 2272.00 L 1137.00 2272.00 L 1157.00 2273.00 L 1537.00 2273.00 L 1557.00 2274.00 L 1917.00 2274.00 L 1937.00 2275.00 L 2317.00 2275.00 L 2337.00 2276.00 L 2466.23 2276.00 L 2443.16 2165.00 L 2317.00 2165.00 L 2297.00 2185.00 L 2277.00 2165.00 Z" />
<path id="csg562-033-14" fill="none" stroke="black" stroke-width="1" d="M 411.00 2271.00 L 411.00 2380.00 L 497.00 2380.00 L 517.00 2381.00 L 657.00 2381.00 L 677.00 2382.00 L 817.00 2382.00 L 837.00 2383.00 L 957.00 2383.00 L 977.00 2384.00 L 1117.00 2384.00 L 1137.00 2385.00 L 1277.00 2385.00 L 1297.00 2386.00 L 1417.00 2386.00 L 1437.00 2387.00 L 1577.00 2387.00 L 1597.00 2388.00 L 1737.00 2388.00 L 1757.00 2389.00 L 1877.00 2389.00 L 1897.00 2390.00 L 2037.00 2390.00 L 2057.00 2391.00 L 2197.00 2391.00 L 2217.00 2392.00 L 2337.00 2392.00 L 2357.00 2393.00 L 2490.55 2393.00 L 2466.23 2276.00 L 2337.00 2276.00 L 2317.00 2275.00 L 1937.00 2275.00 L 1917.00 2274.00 L 1557.00 2274.00 L 1537.00 2273.00 L 1157.00 2273.00 L 1137.00 2272.00 L 757.00 2272.00 L 737.00 2271.00 Z" />
<path id="csg562-033-15" fill="none" stroke="black" stroke-width="1" d="M 411.00 2380.00 L 411.00 2509.00 L 477.00 2509.00 L 497.00 2510.00 L 617.00 2510.00 L 637.00 2511.00 L 737.00 2511.00 L 757.00 2512.00 L 877.00 2512.00 L 897.00 2513.00 L 1017.00 2513.00 L 1037.00 2514.00 L 1137.00 2514.00 L 1157.00 2515.00 L 1277.00 2515.00 L 1297.00 2516.00 L 1337.00 2516.00 L 1357.00 2476.00 L 1377.00 2496.00 L 1397.00 2516.00 L 1417.00 2517.00 L 1537.00 2517.00 L 1557.00 2518.00 L 1677.00 2518.00 L 1697.00 2519.00 L 1797.00 2519.00 L 1817.00 2520.00 L 1937.00 2520.00 L 1957.00 2521.00 L 2057.00 2521.00 L 2077.00 2522.00 L 2197.00 2522.00 L 2217.00 2523.00 L 2337.00 2523.00 L 2357.00 2524.00 L 2457.00 2524.00 L 2477.00 2525.00 L 2517.99 2525.00 L 2490.55 2393.00 L 2357.00 2393.00 L 2337.00 2392.00 L 2217.00 2392.00 L 2197.00 2391.00 L 2057.00 2391.00 L 2037.00 2390.00 L 1897.00 2390.00 L 1877.00 2389.00 L 1757.00 2389.00 L 1737.00 2388.00 L 1597.00 2388.00 L 1577.00 2387.00 L 1437.00 2387.00 L 1417.00 2386.00 L 1297.00 2386.00 L 1277.00 2385.00 L 1137.00 2385.00 L 1117.00 2384.00 L 977.00 2384.00 L 957.00 2383.00 L 837.00 2383.00 L 817.00 2382.00 L 677.00 2382.00 L 657.00 2381.00 L 517.00 2381.00 L 497.00 2380.00 Z" />
<path id="csg562-033-16" fill="none" stroke="black" stroke-width="1" d="M 1357.00 2476.00 L 1337.00 2516.00 L 1297.00 2516.00 L 1277.00 2515.00 L 1157.00 2515.00 L 1137.00 2514.00 L 1037.00 2514.00 L 1017.00 2513.00 L 897.00 2513.00 L 877.00 2512.00 L 757.00 2512.00 L 737.00 2511.00 L 637.00 2511.00 L 617.00 2510.00 L 497.00 2510.00 L 477.00 2509.00 L 411.00 2509.00 L 411.00 2614.00 L 957.00 2614.00 L 977.00 2615.00 L 1577.00 2615.00 L 1597.00 2616.00 L 2197.00 2616.00 L 2217.00 2617.00 L 2537.11 2617.00 L 2517.99 2525.00 L 2477.00 2525.00 L 2457.00 2524.00 L 2357.00 2524.00 L 2337.00 2523.00 L 2217.00 2523.00 L 2197.00 2522.00 L 2077.00 2522.00 L 2057.00 2521.00 L 1957.00 2521.00 L 1937.00 2520.00 L 1817.00 2520.00 L 1797.00 2519.00 L 1697.00 2519.00 L 1677.00 2518.00 L 1557.00 2518.00 L 1537.00 2517.00 L 1417.00 2517.00 L 1397.00 2516.00 L 1377.00 2496.00 L 1357.00 2476.00 Z" />
<path id="csg562-033-17" fill="none" stroke="black" stroke-width="1" d="M 411.00 2614.00 L 411.00 2706.00 L 513.00 2712.00 L 503.71 2725.00 L 737.00 2725.00 L 757.00 2726.00 L 1117.00 2726.00 L 1137.00 2727.00 L 1497.00 2727.00 L 1517.00 2728.00 L 1877.00 2728.00 L 1897.00 2729.00 L 2257.00 2729.00 L 2277.00 2730.00 L 2477.75 2730.00 L 2550.00 2679.00 L 2537.11 2617.00 L 2217.00 2617.00 L 2197.00 2616.00 L 1597.00 2616.00 L 1577.00 2615.00 L 977.00 2615.00 L 957.00 2614.00 Z" />
<path id="csg562-033-18" fill="none" stroke="black" stroke-width="1" d="M 503.71 2725.00 L 468.00 2775.00 L 470.44 2841.00 L 497.00 2841.00 L 517.00 2842.00 L 657.00 2842.00 L 677.00 2843.00 L 817.00 2843.00 L 837.00 2844.00 L 977.00 2844.00 L 997.00 2845.00 L 1137.00 2845.00 L 1157.00 2846.00 L 1277.00 2846.00 L 1297.00 2847.00 L 1437.00 2847.00 L 1457.00 2848.00 L 1597.00 2848.00 L 1617.00 2849.00 L 1757.00 2849.00 L 1777.00 2850.00 L 1917.00 2850.00 L 1937.00 2851.00 L 1977.00 2851.00 L 1997.00 2831.00 L 2057.00 2831.00 L 2077.00 2852.00 L 2217.00 2852.00 L 2237.00 2853.00 L 2377.00 2853.00 L 2397.00 2854.00 L 2450.15 2854.00 L 2448.00 2751.00 L 2477.75 2730.00 L 2277.00 2730.00 L 2257.00 2729.00 L 1897.00 2729.00 L 1877.00 2728.00 L 1517.00 2728.00 L 1497.00 2727.00 L 1137.00 2727.00 L 1117.00 2726.00 L 757.00 2726.00 L 737.00 2725.00 Z" />
<path id="csg562-033-19" fill="none" stroke="black" stroke-width="1" d="M 1997.00 2831.00 L 1977.00 2851.00 L 1937.00 2851.00 L 1917.00 2850.00 L 1777.00 2850.00 L 1757.00 2849.00 L 1617.00 2849.00 L 1597.00 2848.00 L 1457.00 2848.00 L 1437.00 2847.00 L 1297.00 2847.00 L 1277.00 2846.00 L 1157.00 2846.00 L 1137.00 2845.00 L 997.00 2845.00 L 977.00 2844.00 L 837.00 2844.00 L 817.00 2843.00 L 677.00 2843.00 L 657.00 2842.00 L 517.00 2842.00 L 497.00 2841.00 L 470.44 2841.00 L 471.00 2856.00 L 384.00 2859.00 L 384.61 2946.00 L 537.00 2946.00 L 557.00 2947.00 L 737.00 2947.00 L 757.00 2948.00 L 937.00 2948.00 L 957.00 2949.00 L 1137.00 2949.00 L 1157.00 2950.00 L 1337.00 2950.00 L 1357.00 2951.00 L 1537.00 2951.00 L 1557.00 2952.00 L 1737.00 2952.00 L 1757.00 2953.00 L 1837.00 2953.00 L 1857.00 2973.00 L 1877.00 2953.00 L 1937.00 2953.00 L 1957.00 2954.00 L 2137.00 2954.00 L 2157.00 2955.00 L 2337.00 2955.00 L 2357.00 2956.00 L 2452.27 2956.00 L 2450.15 2854.00 L 2397.00 2854.00 L 2377.00 2853.00 L 2237.00 2853.00 L 2217.00 2852.00 L 2077.00 2852.00 L 2057.00 2831.00 Z" />
<path id="csg562-033-20" fill="none" stroke="black" stroke-width="1" d="M 384.61 2946.00 L 385.38 3056.00 L 577.00 3056.00 L 597.00 3057.00 L 797.00 3057.00 L 817.00 3058.00 L 1037.00 3058.00 L 1057.00 3059.00 L 1257.00 3059.00 L 1277.00 3060.00 L 1477.00 3060.00 L 1497.00 3061.00 L 1717.00 3061.00 L 1737.00 3062.00 L 1937.00 3062.00 L 1957.00 3063.00 L 2157.00 3063.00 L 2177.00 3064.00 L 2397.00 3064.00 L 2417.00 3065.00 L 2454.54 3065.00 L 2452.27 2956.00 L 2357.00 2956.00 L 2337.00 2955.00 L 2157.00 2955.00 L 2137.00 2954.00 L 1957.00 2954.00 L 1937.00 2953.00 L 1877.00 2953.00 L 1857.00 2973.00 L 1837.00 2953.00 L 1757.00 2953.00 L 1737.00 2952.00 L 1557.00 2952.00 L 1537.00 2951.00 L 1357.00 2951.00 L 1337.00 2950.00 L 1157.00 2950.00 L 1137.00 2949.00 L 957.00 2949.00 L 937.00 2948.00 L 757.00 2948.00 L 737.00 2947.00 L 557.00 2947.00 L 537.00 2946.00 Z" />
<path id="csg562-033-21" fill="none" stroke="black" stroke-width="1" d="M 385.38 3056.00 L 386.15 3167.00 L 597.00 3167.00 L 617.00 3168.00 L 857.00 3168.00 L 877.00 3169.00 L 1117.00 3169.00 L 1137.00 3170.00 L 1377.00 3170.00 L 1397.00 3171.00 L 1637.00 3171.00 L 1657.00 3172.00 L 1897.00 3172.00 L 1917.00 3173.00 L 2157.00 3173.00 L 2177.00 3174.00 L 2417.00 3174.00 L 2437.00 3175.00 L 2456.83 3175.00 L 2454.54 3065.00 L 2417.00 3065.00 L 2397.00 3064.00 L 2177.00 3064.00 L 2157.00 3063.00 L 1957.00 3063.00 L 1937.00 3062.00 L 1737.00 3062.00 L 1717.00 3061.00 L 1497.00 3061.00 L 1477.00 3060.00 L 1277.00 3060.00 L 1257.00 3059.00 L 1057.00 3059.00 L 1037.00 3058.00 L 817.00 3058.00 L 797.00 3057.00 L 597.00 3057.00 L 577.00 3056.00 Z" />
<path id="csg562-033-22" fill="none" stroke="black" stroke-width="1" d="M 386.15 3167.00 L 386.97 3284.00 L 517.00 3284.00 L 537.00 3285.00 L 697.00 3285.00 L 717.00 3286.00 L 877.00 3286.00 L 897.00 3287.00 L 1037.00 3287.00 L 1057.00 3288.00 L 1217.00 3288.00 L 1237.00 3289.00 L 1397.00 3289.00 L 1417.00 3290.00 L 1557.00 3290.00 L 1577.00 3291.00 L 1737.00 3291.00 L 1757.00 3292.00 L 1917.00 3292.00 L 1937.00 3293.00 L 2097.00 3293.00 L 2117.00 3294.00 L 2257.00 3294.00 L 2277.00 3295.00 L 2437.00 3295.00 L 2453.58 3295.83 L 2457.00 3183.00 L 2456.83 3175.00 L 2437.00 3175.00 L 2417.00 3174.00 L 2177.00 3174.00 L 2157.00 3173.00 L 1917.00 3173.00 L 1897.00 3172.00 L 1657.00 3172.00 L 1637.00 3171.00 L 1397.00 3171.00 L 1377.00 3170.00 L 1137.00 3170.00 L 1117.00 3169.00 L 877.00 3169.00 L 857.00 3168.00 L 617.00 3168.00 L 597.00 3167.00 Z" />
<path id="csg562-033-23" fill="none" stroke="black" stroke-width="1" d="M 386.97 3284.00 L 387.00 3288.00 L 368.37 3392.31 L 377.00 3388.00 L 537.00 3388.00 L 557.00 3389.00 L 737.00 3389.00 L 757.00 3390.00 L 937.00 3390.00 L 957.00 3391.00 L 1117.00 3391.00 L 1137.00 3392.00 L 1297.00 3392.00 L 1317.00 3372.00 L 1337.00 3393.00 L 1517.00 3393.00 L 1537.00 3394.00 L 1697.00 3394.00 L 1717.00 3395.00 L 1837.00 3395.00 L 1857.00 3415.00 L 1877.00 3415.00 L 1897.00 3395.00 L 1917.00 3396.00 L 2097.00 3396.00 L 2117.00 3397.00 L 2297.00 3397.00 L 2317.00 3398.00 L 2450.48 3398.00 L 2453.58 3295.83 L 2437.00 3295.00 L 2277.00 3295.00 L 2257.00 3294.00 L 2117.00 3294.00 L 2097.00 3293.00 L 1937.00 3293.00 L 1917.00 3292.00 L 1757.00 3292.00 L 1737.00 3291.00 L 1577.00 3291.00 L 1557.00 3290.00 L 1417.00 3290.00 L 1397.00 3289.00 L 1237.00 3289.00 L 1217.00 3288.00 L 1057.00 3288.00 L 1037.00 3287.00 L 897.00 3287.00 L 877.00 3286.00 L 717.00 3286.00 L 697.00 3285.00 L 537.00 3285.00 L 517.00 3284.00 Z" />
<path id="csg562-033-24" fill="none" stroke="black" stroke-width="1" d="M 1317.00 3372.00 L 1297.00 3392.00 L 1137.00 3392.00 L 1117.00 3391.00 L 957.00 3391.00 L 937.00 3390.00 L 757.00 3390.00 L 737.00 3389.00 L 557.00 3389.00 L 537.00 3388.00 L 377.00 3388.00 L 368.37 3392.31 L 357.00 3456.00 L 465.00 3504.00 L 651.00 3507.00 L 737.00 3507.00 L 757.00 3508.00 L 937.00 3508.00 L 957.00 3509.00 L 1117.00 3509.00 L 1137.00 3510.00 L 1317.00 3510.00 L 1337.00 3511.00 L 1369.00 3511.00 L 1401.00 3510.00 L 1476.00 3511.00 L 1517.00 3511.00 L 1531.91 3511.75 L 1551.00 3512.00 L 1697.00 3512.00 L 1717.00 3513.00 L 1897.00 3513.00 L 1917.00 3514.00 L 2097.00 3514.00 L 2117.00 3515.00 L 2297.00 3515.00 L 2317.00 3516.00 L 2394.00 3516.00 L 2448.00 3480.00 L 2450.48 3398.00 L 2317.00 3398.00 L 2297.00 3397.00 L 2117.00 3397.00 L 2097.00 3396.00 L 1917.00 3396.00 L 1897.00 3395.00 L 1877.00 3415.00 L 1857.00 3415.00 L 1837.00 3395.00 L 1717.00 3395.00 L 1697.00 3394.00 L 1537.00 3394.00 L 1517.00 3393.00 L 1337.00 3393.00 L 1317.00 3372.00 Z" />
</svg>
