<?xml version="1.0" standalone="no"?>
<!DOCTYPE svg PUBLIC "-//W3C//DTD SVG 1.1//EN" "http://www.w3.org/Graphics/SVG/1.1/DTD/svg11.dtd">
<svg width="46.22222in" height="69.333336in" viewBox="0 0 3328 4992" xmlns="http://www.w3.org/2000/svg" version="1.1">
<path id="csg562-021-01" fill="none" stroke="black" stroke-width="1" d="M 814.00 790.00 L 462.00 804.00 L 461.70 886.00 L 516.00 886.00 L 536.00 887.00 L 616.00 887.00 L 636.00 888.00 L 696.00 888.00 L 716.00 889.00 L 796.00 889.00 L 816.00 890.00 L 876.00 890.00 L 896.00 891.00 L 976.00 891.00 L 996.00 892.00 L 1056.00 892.00 L 1076.00 893.00 L 1156.00 893.00 L 1176.00 894.00 L 1236.00 894.00 L 1256.00 895.00 L 1336.00 895.00 L 1356.00 896.00 L 1436.00 896.00 L 1456.00 897.00 L 1516.00 897.00 L 1536.00 898.00 L 1616.00 898.00 L 1636.00 899.00 L 1696.00 899.00 L 1716.00 900.00 L 1796.00 900.00 L 1816.00 901.00 L 1876.00 901.00 L 1896.00 902.00 L 1976.00 902.00 L 1996.00 903.00 L 2056.00 903.00 L 2076.00 904.00 L 2156.00 904.00 L 2176.00 905.00 L 2196.00 925.00 L 2216.00 905.00 L 2236.00 925.00 L 2256.00 905.00 L 2276.00 906.00 L 2336.00 906.00 L 2356.00 907.00 L 2436.00 907.00 L 2456.00 908.00 L 2516.00 908.00 L 2521.44 908.27 L 2502.00 848.00 L 2180.00 822.00 L 1854.00 828.00 L 1754.00 810.00 L 1470.00 820.00 L 1396.00 798.00 L 1136.00 816.00 L 970.00 794.00 L 900.00 814.00 L 814.00 790.00 Z" />
<path id="csg562-021-02" fill="none" stroke="black" stroke-width="1" d="M 461.70 886.00 L 461.24 1009.00 L 516.00 1009.00 L 536.00 1010.00 L 616.00 1010.00 L 636.00 1011.00 L 716.00 1011.00 L 736.00 1012.00 L 816.00 1012.00 L 836.00 1013.00 L 896.00 1013.00 L 916.00 1014.00 L 996.00 1014.00 L 1016.00 1015.00 L 1096.00 1015.00 L 1116.00 1016.00 L 1196.00 1016.00 L 1216.00 1017.00 L 1276.00 1017.00 L 1296.00 1018.00 L 1376.00 1018.00 L 1396.00 1019.00 L 1476.00 1019.00 L 1496.00 1020.00 L 1576.00 1020.00 L 1596.00 1021.00 L 1676.00 1021.00 L 1696.00 1022.00 L 1756.00 1022.00 L 1776.00 1023.00 L 1856.00 1023.00 L 1876.00 1024.00 L 1956.00 1024.00 L 1976.00 1025.00 L 2056.00 1025.00 L 2076.00 1026.00 L 2136.00 1026.00 L 2156.00 1027.00 L 2236.00 1027.00 L 2256.00 1028.00 L 2336.00 1028.00 L 2356.00 1029.00 L 2436.00 1029.00 L 2456.00 1030.00 L 2516.00 1030.00 L 2536.00 1031.00 L 2561.03 1031.00 L 2521.44 908.27 L 2516.00 908.00 L 2456.00 908.00 L 2436.00 907.00 L 2356.00 907.00 L 2336.00 906.00 L 2276.00 906.00 L 2256.00 905.00 L 2236.00 925.00 L 2216.00 905.00 L 2196.00 925.00 L 2176.00 905.00 L 2156.00 904.00 L 2076.00 904.00 L 2056.00 903.00 L 1996.00 903.00 L 1976.00 902.00 L 1896.00 902.00 L 1876.00 901.00 L 1816.00 901.00 L 1796.00 900.00 L 1716.00 900.00 L 1696.00 899.00 L 1636.00 899.00 L 1616.00 898.00 L 1536.00 898.00 L 1516.00 897.00 L 1456.00 897.00 L 1436.00 896.00 L 1356.00 896.00 L 1336.00 895.00 L 1256.00 895.00 L 1236.00 894.00 L 1176.00 894.00 L 1156.00 893.00 L 1076.00 893.00 L 1056.00 892.00 L 996.00 892.00 L 976.00 891.00 L 896.00 891.00 L 876.00 890.00 L 816.00 890.00 L 796.00 889.00 L 716.00 889.00 L 696.00 888.00 L 636.00 888.00 L 616.00 887.00 L 536.00 887.00 L 516.00 886.00 Z" />
<path id="csg562-021-03" fill="none" stroke="black" stroke-width="1" d="M 461.24 1009.00 L 460.85 1115.00 L 496.00 1115.00 L 516.00 1116.00 L 556.00 1116.00 L 576.00 1117.00 L 616.00 1117.00 L 636.00 1118.00 L 676.00 1118.00 L 696.00 1119.00 L 756.00 1119.00 L 776.00 1120.00 L 816.00 1120.00 L 836.00 1121.00 L 876.00 1121.00 L 896.00 1122.00 L 936.00 1122.00 L 956.00 1123.00 L 1016.00 1123.00 L 1036.00 1124.00 L 1076.00 1124.00 L 1096.00 1125.00 L 1136.00 1125.00 L 1156.00 1126.00 L 1196.00 1126.00 L 1216.00 1127.00 L 1256.00 1127.00 L 1276.00 1128.00 L 1336.00 1128.00 L 1356.00 1129.00 L 1396.00 1129.00 L 1416.00 1130.00 L 1456.00 1130.00 L 1476.00 1131.00 L 1516.00 1131.00 L 1536.00 1132.00 L 1596.00 1132.00 L 1616.00 1133.00 L 1656.00 1133.00 L 1676.00 1134.00 L 1716.00 1134.00 L 1736.00 1135.00 L 1776.00 1135.00 L 1796.00 1136.00 L 1836.00 1136.00 L 1856.00 1137.00 L 1916.00 1137.00 L 1936.00 1138.00 L 1976.00 1138.00 L 1996.00 1139.00 L 2036.00 1139.00 L 2056.00 1140.00 L 2096.00 1140.00 L 2116.00 1141.00 L 2176.00 1141.00 L 2196.00 1142.00 L 2236.00 1142.00 L 2256.00 1143.00 L 2296.00 1143.00 L 2316.00 1144.00 L 2356.00 1144.00 L 2376.00 1145.00 L 2436.00 1145.00 L 2456.00 1146.00 L 2496.00 1146.00 L 2511.09 1146.75 L 2590.00 1122.00 L 2562.00 1034.00 L 2561.03 1031.00 L 2536.00 1031.00 L 2516.00 1030.00 L 2456.00 1030.00 L 2436.00 1029.00 L 2356.00 1029.00 L 2336.00 1028.00 L 2256.00 1028.00 L 2236.00 1027.00 L 2156.00 1027.00 L 2136.00 1026.00 L 2076.00 1026.00 L 2056.00 1025.00 L 1976.00 1025.00 L 1956.00 1024.00 L 1876.00 1024.00 L 1856.00 1023.00 L 1776.00 1023.00 L 1756.00 1022.00 L 1696.00 1022.00 L 1676.00 1021.00 L 1596.00 1021.00 L 1576.00 1020.00 L 1496.00 1020.00 L 1476.00 1019.00 L 1396.00 1019.00 L 1376.00 1018.00 L 1296.00 1018.00 L 1276.00 1017.00 L 1216.00 1017.00 L 1196.00 1016.00 L 1116.00 1016.00 L 1096.00 1015.00 L 1016.00 1015.00 L 996.00 1014.00 L 916.00 1014.00 L 896.00 1013.00 L 836.00 1013.00 L 816.00 1012.00 L 736.00 1012.00 L 716.00 1011.00 L 636.00 1011.00 L 616.00 1010.00 L 536.00 1010.00 L 516.00 1009.00 Z" />
<path id="csg562-021-04" fill="none" stroke="black" stroke-width="1" d="M 460.85 1115.00 L 460.43 1230.00 L 496.00 1230.00 L 516.00 1231.00 L 576.00 1231.00 L 596.00 1232.00 L 656.00 1232.00 L 676.00 1233.00 L 736.00 1233.00 L 756.00 1234.00 L 816.00 1234.00 L 836.00 1235.00 L 896.00 1235.00 L 916.00 1236.00 L 976.00 1236.00 L 996.00 1237.00 L 1056.00 1237.00 L 1076.00 1238.00 L 1136.00 1238.00 L 1156.00 1239.00 L 1216.00 1239.00 L 1236.00 1240.00 L 1276.00 1240.00 L 1296.00 1241.00 L 1356.00 1241.00 L 1376.00 1222.00 L 1396.00 1242.00 L 1436.00 1242.00 L 1456.00 1243.00 L 1516.00 1243.00 L 1536.00 1244.00 L 1596.00 1244.00 L 1616.00 1245.00 L 1676.00 1245.00 L 1696.00 1246.00 L 1756.00 1246.00 L 1776.00 1247.00 L 1836.00 1247.00 L 1856.00 1248.00 L 1916.00 1248.00 L 1936.00 1249.00 L 1996.00 1249.00 L 2016.00 1250.00 L 2056.00 1250.00 L 2076.00 1251.00 L 2136.00 1251.00 L 2156.00 1252.00 L 2216.00 1252.00 L 2236.00 1253.00 L 2296.00 1253.00 L 2316.00 1254.00 L 2376.00 1254.00 L 2396.00 1255.00 L 2456.00 1255.00 L 2476.00 1256.00 L 2536.00 1256.00 L 2539.08 1256.15 L 2488.00 1154.00 L 2511.09 1146.75 L 2496.00 1146.00 L 2456.00 1146.00 L 2436.00 1145.00 L 2376.00 1145.00 L 2356.00 1144.00 L 2316.00 1144.00 L 2296.00 1143.00 L 2256.00 1143.00 L 2236.00 1142.00 L 2196.00 1142.00 L 2176.00 1141.00 L 2116.00 1141.00 L 2096.00 1140.00 L 2056.00 1140.00 L 2036.00 1139.00 L 1996.00 1139.00 L 1976.00 1138.00 L 1936.00 1138.00 L 1916.00 1137.00 L 1856.00 1137.00 L 1836.00 1136.00 L 1796.00 1136.00 L 1776.00 1135.00 L 1736.00 1135.00 L 1716.00 1134.00 L 1676.00 1134.00 L 1656.00 1133.00 L 1616.00 1133.00 L 1596.00 1132.00 L 1536.00 1132.00 L 1516.00 1131.00 L 1476.00 1131.00 L 1456.00 1130.00 L 1416.00 1130.00 L 1396.00 1129.00 L 1356.00 1129.00 L 1336.00 1128.00 L 1276.00 1128.00 L 1256.00 1127.00 L 1216.00 1127.00 L 1196.00 1126.00 L 1156.00 1126.00 L 1136.00 1125.00 L 1096.00 1125.00 L 1076.00 1124.00 L 1036.00 1124.00 L 1016.00 1123.00 L 956.00 1123.00 L 936.00 1122.00 L 896.00 1122.00 L 876.00 1121.00 L 836.00 1121.00 L 816.00 1120.00 L 776.00 1120.00 L 756.00 1119.00 L 696.00 1119.00 L 676.00 1118.00 L 636.00 1118.00 L 616.00 1117.00 L 576.00 1117.00 L 556.00 1116.00 L 516.00 1116.00 L 496.00 1115.00 Z" />
<path id="csg562-021-05" fill="none" stroke="black" stroke-width="1" d="M 1376.00 1222.00 L 1356.00 1241.00 L 1296.00 1241.00 L 1276.00 1240.00 L 1236.00 1240.00 L 1216.00 1239.00 L 1156.00 1239.00 L 1136.00 1238.00 L 1076.00 1238.00 L 1056.00 1237.00 L 996.00 1237.00 L 976.00 1236.00 L 916.00 1236.00 L 896.00 1235.00 L 836.00 1235.00 L 816.00 1234.00 L 756.00 1234.00 L 736.00 1233.00 L 676.00 1233.00 L 656.00 1232.00 L 596.00 1232.00 L 576.00 1231.00 L 516.00 1231.00 L 496.00 1230.00 L 460.43 1230.00 L 460.00 1345.00 L 476.00 1345.00 L 496.00 1365.00 L 516.00 1346.00 L 556.00 1346.00 L 576.00 1347.00 L 616.00 1347.00 L 636.00 1348.00 L 696.00 1348.00 L 716.00 1349.00 L 756.00 1349.00 L 776.00 1350.00 L 816.00 1350.00 L 836.00 1351.00 L 876.00 1351.00 L 896.00 1352.00 L 956.00 1352.00 L 976.00 1353.00 L 1016.00 1353.00 L 1036.00 1354.00 L 1076.00 1354.00 L 1096.00 1355.00 L 1136.00 1355.00 L 1156.00 1356.00 L 1216.00 1356.00 L 1236.00 1357.00 L 1276.00 1357.00 L 1296.00 1358.00 L 1336.00 1358.00 L 1356.00 1359.00 L 1396.00 1359.00 L 1416.00 1360.00 L 1476.00 1360.00 L 1496.00 1361.00 L 1536.00 1361.00 L 1556.00 1362.00 L 1596.00 1362.00 L 1616.00 1363.00 L 1656.00 1363.00 L 1676.00 1364.00 L 1736.00 1364.00 L 1756.00 1365.00 L 1796.00 1365.00 L 1816.00 1366.00 L 1856.00 1366.00 L 1876.00 1367.00 L 1916.00 1367.00 L 1936.00 1368.00 L 1996.00 1368.00 L 2016.00 1369.00 L 2056.00 1369.00 L 2076.00 1370.00 L 2116.00 1370.00 L 2136.00 1371.00 L 2176.00 1371.00 L 2196.00 1372.00 L 2256.00 1372.00 L 2276.00 1373.00 L 2316.00 1373.00 L 2336.00 1374.00 L 2376.00 1374.00 L 2396.00 1375.00 L 2436.00 1375.00 L 2456.00 1376.00 L 2516.00 1376.00 L 2536.00 1377.00 L 2572.77 1377.00 L 2554.00 1286.00 L 2539.08 1256.15 L 2536.00 1256.00 L 2476.00 1256.00 L 2456.00 1255.00 L 2396.00 1255.00 L 2376.00 1254.00 L 2316.00 1254.00 L 2296.00 1253.00 L 2236.00 1253.00 L 2216.00 1252.00 L 2156.00 1252.00 L 2136.00 1251.00 L 2076.00 1251.00 L 2056.00 1250.00 L 2016.00 1250.00 L 1996.00 1249.00 L 1936.00 1249.00 L 1916.00 1248.00 L 1856.00 1248.00 L 1836.00 1247.00 L 1776.00 1247.00 L 1756.00 1246.00 L 1696.00 1246.00 L 1676.00 1245.00 L 1616.00 1245.00 L 1596.00 1244.00 L 1536.00 1244.00 L 1516.00 1243.00 L 1456.00 1243.00 L 1436.00 1242.00 L 1396.00 1242.00 L 1376.00 1222.00 Z" />
<path id="csg562-021-06" fill="none" stroke="black" stroke-width="1" d="M 460.00 1345.00 L 460.00 1346.00 L 445.39 1464.30 L 456.00 1459.00 L 496.00 1459.00 L 516.00 1460.00 L 556.00 1460.00 L 576.00 1461.00 L 636.00 1461.00 L 656.00 1462.00 L 696.00 1462.00 L 716.00 1443.00 L 736.00 1423.00 L 756.00 1443.00 L 776.00 1464.00 L 836.00 1464.00 L 856.00 1465.00 L 896.00 1465.00 L 916.00 1466.00 L 956.00 1466.00 L 976.00 1467.00 L 1036.00 1467.00 L 1056.00 1468.00 L 1096.00 1468.00 L 1116.00 1469.00 L 1156.00 1469.00 L 1176.00 1470.00 L 1236.00 1470.00 L 1256.00 1471.00 L 1296.00 1471.00 L 1316.00 1472.00 L 1356.00 1472.00 L 1376.00 1473.00 L 1436.00 1473.00 L 1456.00 1474.00 L 1496.00 1474.00 L 1516.00 1475.00 L 1556.00 1475.00 L 1576.00 1476.00 L 1636.00 1476.00 L 1656.00 1477.00 L 1696.00 1477.00 L 1716.00 1478.00 L 1756.00 1478.00 L 1776.00 1479.00 L 1836.00 1479.00 L 1856.00 1480.00 L 1896.00 1480.00 L 1916.00 1481.00 L 1956.00 1481.00 L 1976.00 1482.00 L 2036.00 1482.00 L 2056.00 1483.00 L 2096.00 1483.00 L 2116.00 1484.00 L 2156.00 1484.00 L 2176.00 1485.00 L 2236.00 1485.00 L 2256.00 1486.00 L 2296.00 1486.00 L 2316.00 1487.00 L 2356.00 1487.00 L 2376.00 1488.00 L 2436.00 1488.00 L 2456.00 1489.00 L 2496.00 1489.00 L 2516.00 1490.00 L 2556.00 1490.00 L 2576.00 1491.00 L 2596.28 1491.00 L 2572.77 1377.00 L 2536.00 1377.00 L 2516.00 1376.00 L 2456.00 1376.00 L 2436.00 1375.00 L 2396.00 1375.00 L 2376.00 1374.00 L 2336.00 1374.00 L 2316.00 1373.00 L 2276.00 1373.00 L 2256.00 1372.00 L 2196.00 1372.00 L 2176.00 1371.00 L 2136.00 1371.00 L 2116.00 1370.00 L 2076.00 1370.00 L 2056.00 1369.00 L 2016.00 1369.00 L 1996.00 1368.00 L 1936.00 1368.00 L 1916.00 1367.00 L 1876.00 1367.00 L 1856.00 1366.00 L 1816.00 1366.00 L 1796.00 1365.00 L 1756.00 1365.00 L 1736.00 1364.00 L 1676.00 1364.00 L 1656.00 1363.00 L 1616.00 1363.00 L 1596.00 1362.00 L 1556.00 1362.00 L 1536.00 1361.00 L 1496.00 1361.00 L 1476.00 1360.00 L 1416.00 1360.00 L 1396.00 1359.00 L 1356.00 1359.00 L 1336.00 1358.00 L 1296.00 1358.00 L 1276.00 1357.00 L 1236.00 1357.00 L 1216.00 1356.00 L 1156.00 1356.00 L 1136.00 1355.00 L 1096.00 1355.00 L 1076.00 1354.00 L 1036.00 1354.00 L 1016.00 1353.00 L 976.00 1353.00 L 956.00 1352.00 L 896.00 1352.00 L 876.00 1351.00 L 836.00 1351.00 L 816.00 1350.00 L 776.00 1350.00 L 756.00 1349.00 L 716.00 1349.00 L 696.00 1348.00 L 636.00 1348.00 L 616.00 1347.00 L 576.00 1347.00 L 556.00 1346.00 L 516.00 1346.00 L 496.00 1365.00 L 476.00 1345.00 Z" />
<path id="csg562-021-07" fill="none" stroke="black" stroke-width="1" d="M 736.00 1423.00 L 716.00 1443.00 L 696.00 1462.00 L 656.00 1462.00 L 636.00 1461.00 L 576.00 1461.00 L 556.00 1460.00 L 516.00 1460.00 L 496.00 1459.00 L 456.00 1459.00 L 445.39 1464.30 L 440.00 1508.00 L 460.92 1565.00 L 496.00 1565.00 L 516.00 1566.00 L 556.00 1566.00 L 576.00 1567.00 L 616.00 1567.00 L 636.00 1568.00 L 676.00 1568.00 L 696.00 1569.00 L 756.00 1569.00 L 776.00 1570.00 L 816.00 1570.00 L 836.00 1571.00 L 876.00 1571.00 L 896.00 1572.00 L 936.00 1572.00 L 956.00 1573.00 L 1016.00 1573.00 L 1036.00 1574.00 L 1076.00 1574.00 L 1096.00 1575.00 L 1136.00 1575.00 L 1156.00 1576.00 L 1196.00 1576.00 L 1216.00 1577.00 L 1256.00 1577.00 L 1276.00 1578.00 L 1336.00 1578.00 L 1356.00 1579.00 L 1396.00 1579.00 L 1416.00 1580.00 L 1456.00 1580.00 L 1476.00 1581.00 L 1516.00 1581.00 L 1536.00 1582.00 L 1596.00 1582.00 L 1616.00 1583.00 L 1656.00 1583.00 L 1676.00 1584.00 L 1716.00 1584.00 L 1736.00 1585.00 L 1776.00 1585.00 L 1796.00 1586.00 L 1856.00 1586.00 L 1876.00 1587.00 L 1916.00 1587.00 L 1936.00 1588.00 L 1976.00 1588.00 L 1996.00 1589.00 L 2036.00 1589.00 L 2056.00 1590.00 L 2096.00 1590.00 L 2116.00 1591.00 L 2176.00 1591.00 L 2196.00 1592.00 L 2236.00 1592.00 L 2256.00 1593.00 L 2296.00 1593.00 L 2316.00 1594.00 L 2356.00 1594.00 L 2376.00 1595.00 L 2436.00 1595.00 L 2456.00 1596.00 L 2496.00 1596.00 L 2516.00 1597.00 L 2556.00 1597.00 L 2576.00 1598.00 L 2616.00 1598.00 L 2618.37 1598.12 L 2596.28 1491.00 L 2576.00 1491.00 L 2556.00 1490.00 L 2516.00 1490.00 L 2496.00 1489.00 L 2456.00 1489.00 L 2436.00 1488.00 L 2376.00 1488.00 L 2356.00 1487.00 L 2316.00 1487.00 L 2296.00 1486.00 L 2256.00 1486.00 L 2236.00 1485.00 L 2176.00 1485.00 L 2156.00 1484.00 L 2116.00 1484.00 L 2096.00 1483.00 L 2056.00 1483.00 L 2036.00 1482.00 L 1976.00 1482.00 L 1956.00 1481.00 L 1916.00 1481.00 L 1896.00 1480.00 L 1856.00 1480.00 L 1836.00 1479.00 L 1776.00 1479.00 L 1756.00 1478.00 L 1716.00 1478.00 L 1696.00 1477.00 L 1656.00 1477.00 L 1636.00 1476.00 L 1576.00 1476.00 L 1556.00 1475.00 L 1516.00 1475.00 L 1496.00 1474.00 L 1456.00 1474.00 L 1436.00 1473.00 L 1376.00 1473.00 L 1356.00 1472.00 L 1316.00 1472.00 L 1296.00 1471.00 L 1256.00 1471.00 L 1236.00 1470.00 L 1176.00 1470.00 L 1156.00 1469.00 L 1116.00 1469.00 L 1096.00 1468.00 L 1056.00 1468.00 L 1036.00 1467.00 L 976.00 1467.00 L 956.00 1466.00 L 916.00 1466.00 L 896.00 1465.00 L 856.00 1465.00 L 836.00 1464.00 L 776.00 1464.00 L 756.00 1443.00 L 736.00 1423.00 Z" />
<path id="csg562-021-08" fill="none" stroke="black" stroke-width="1" d="M 460.92 1565.00 L 498.00 1666.00 L 497.57 1679.08 L 516.00 1680.00 L 576.00 1680.00 L 596.00 1681.00 L 656.00 1681.00 L 676.00 1682.00 L 736.00 1682.00 L 756.00 1683.00 L 816.00 1683.00 L 836.00 1684.00 L 896.00 1684.00 L 916.00 1685.00 L 956.00 1685.00 L 976.00 1686.00 L 1036.00 1686.00 L 1056.00 1687.00 L 1116.00 1687.00 L 1136.00 1688.00 L 1156.00 1688.00 L 1176.00 1708.00 L 1196.00 1688.00 L 1216.00 1689.00 L 1276.00 1689.00 L 1296.00 1690.00 L 1356.00 1690.00 L 1376.00 1691.00 L 1436.00 1691.00 L 1456.00 1692.00 L 1496.00 1692.00 L 1516.00 1693.00 L 1576.00 1693.00 L 1596.00 1694.00 L 1656.00 1694.00 L 1676.00 1695.00 L 1736.00 1695.00 L 1756.00 1696.00 L 1816.00 1696.00 L 1836.00 1697.00 L 1896.00 1697.00 L 1916.00 1698.00 L 1956.00 1698.00 L 1976.00 1699.00 L 2036.00 1699.00 L 2056.00 1700.00 L 2116.00 1700.00 L 2136.00 1701.00 L 2196.00 1701.00 L 2216.00 1702.00 L 2276.00 1702.00 L 2296.00 1703.00 L 2356.00 1703.00 L 2376.00 1704.00 L 2436.00 1704.00 L 2456.00 1705.00 L 2496.00 1705.00 L 2516.00 1706.00 L 2561.86 1706.00 L 2620.00 1606.00 L 2618.37 1598.12 L 2616.00 1598.00 L 2576.00 1598.00 L 2556.00 1597.00 L 2516.00 1597.00 L 2496.00 1596.00 L 2456.00 1596.00 L 2436.00 1595.00 L 2376.00 1595.00 L 2356.00 1594.00 L 2316.00 1594.00 L 2296.00 1593.00 L 2256.00 1593.00 L 2236.00 1592.00 L 2196.00 1592.00 L 2176.00 1591.00 L 2116.00 1591.00 L 2096.00 1590.00 L 2056.00 1590.00 L 2036.00 1589.00 L 1996.00 1589.00 L 1976.00 1588.00 L 1936.00 1588.00 L 1916.00 1587.00 L 1876.00 1587.00 L 1856.00 1586.00 L 1796.00 1586.00 L 1776.00 1585.00 L 1736.00 1585.00 L 1716.00 1584.00 L 1676.00 1584.00 L 1656.00 1583.00 L 1616.00 1583.00 L 1596.00 1582.00 L 1536.00 1582.00 L 1516.00 1581.00 L 1476.00 1581.00 L 1456.00 1580.00 L 1416.00 1580.00 L 1396.00 1579.00 L 1356.00 1579.00 L 1336.00 1578.00 L 1276.00 1578.00 L 1256.00 1577.00 L 1216.00 1577.00 L 1196.00 1576.00 L 1156.00 1576.00 L 1136.00 1575.00 L 1096.00 1575.00 L 1076.00 1574.00 L 1036.00 1574.00 L 1016.00 1573.00 L 956.00 1573.00 L 936.00 1572.00 L 896.00 1572.00 L 876.00 1571.00 L 836.00 1571.00 L 816.00 1570.00 L 776.00 1570.00 L 756.00 1569.00 L 696.00 1569.00 L 676.00 1568.00 L 636.00 1568.00 L 616.00 1567.00 L 576.00 1567.00 L 556.00 1566.00 L 516.00 1566.00 L 496.00 1565.00 Z" />
<path id="csg562-021-09" fill="none" stroke="black" stroke-width="1" d="M 497.57 1679.08 L 494.07 1786.00 L 536.00 1786.00 L 556.00 1787.00 L 636.00 1787.00 L 656.00 1788.00 L 736.00 1788.00 L 756.00 1789.00 L 856.00 1789.00 L 876.00 1790.00 L 956.00 1790.00 L 976.00 1791.00 L 1056.00 1791.00 L 1076.00 1792.00 L 1176.00 1792.00 L 1196.00 1793.00 L 1276.00 1793.00 L 1296.00 1794.00 L 1376.00 1794.00 L 1396.00 1795.00 L 1476.00 1795.00 L 1496.00 1796.00 L 1596.00 1796.00 L 1616.00 1797.00 L 1696.00 1797.00 L 1716.00 1798.00 L 1796.00 1798.00 L 1816.00 1799.00 L 1916.00 1799.00 L 1936.00 1800.00 L 2016.00 1800.00 L 2036.00 1801.00 L 2116.00 1801.00 L 2136.00 1802.00 L 2176.00 1802.00 L 2189.60 1815.60 L 2212.00 1806.00 L 2216.00 1802.00 L 2220.78 1802.24 L 2254.00 1788.00 L 2315.25 1803.00 L 2336.00 1803.00 L 2356.00 1804.00 L 2391.53 1804.00 L 2520.00 1778.00 L 2561.86 1706.00 L 2516.00 1706.00 L 2496.00 1705.00 L 2456.00 1705.00 L 2436.00 1704.00 L 2376.00 1704.00 L 2356.00 1703.00 L 2296.00 1703.00 L 2276.00 1702.00 L 2216.00 1702.00 L 2196.00 1701.00 L 2136.00 1701.00 L 2116.00 1700.00 L 2056.00 1700.00 L 2036.00 1699.00 L 1976.00 1699.00 L 1956.00 1698.00 L 1916.00 1698.00 L 1896.00 1697.00 L 1836.00 1697.00 L 1816.00 1696.00 L 1756.00 1696.00 L 1736.00 1695.00 L 1676.00 1695.00 L 1656.00 1694.00 L 1596.00 1694.00 L 1576.00 1693.00 L 1516.00 1693.00 L 1496.00 1692.00 L 1456.00 1692.00 L 1436.00 1691.00 L 1376.00 1691.00 L 1356.00 1690.00 L 1296.00 1690.00 L 1276.00 1689.00 L 1216.00 1689.00 L 1196.00 1688.00 L 1176.00 1708.00 L 1156.00 1688.00 L 1136.00 1688.00 L 1116.00 1687.00 L 1056.00 1687.00 L 1036.00 1686.00 L 976.00 1686.00 L 956.00 1685.00 L 916.00 1685.00 L 896.00 1684.00 L 836.00 1684.00 L 816.00 1683.00 L 756.00 1683.00 L 736.00 1682.00 L 676.00 1682.00 L 656.00 1681.00 L 596.00 1681.00 L 576.00 1680.00 L 516.00 1680.00 L 497.57 1679.08 Z" />
<path id="csg562-021-10" fill="none" stroke="black" stroke-width="1" d="M 494.07 1786.00 L 494.00 1788.00 L 458.00 1828.00 L 468.00 1876.00 L 608.00 1876.00 L 621.24 1895.00 L 696.00 1895.00 L 716.00 1896.00 L 836.00 1896.00 L 856.00 1897.00 L 976.00 1897.00 L 996.00 1898.00 L 1116.00 1898.00 L 1136.00 1899.00 L 1236.00 1899.00 L 1256.00 1900.00 L 1376.00 1900.00 L 1396.00 1901.00 L 1516.00 1901.00 L 1536.00 1902.00 L 1656.00 1902.00 L 1676.00 1903.00 L 1796.00 1903.00 L 1816.00 1904.00 L 1916.00 1904.00 L 1936.00 1905.00 L 2056.00 1905.00 L 2076.00 1906.00 L 2096.00 1906.00 L 2116.00 1926.00 L 2156.00 1926.00 L 2176.00 1906.00 L 2182.43 1906.00 L 2184.00 1818.00 L 2189.60 1815.60 L 2176.00 1802.00 L 2136.00 1802.00 L 2116.00 1801.00 L 2036.00 1801.00 L 2016.00 1800.00 L 1936.00 1800.00 L 1916.00 1799.00 L 1816.00 1799.00 L 1796.00 1798.00 L 1716.00 1798.00 L 1696.00 1797.00 L 1616.00 1797.00 L 1596.00 1796.00 L 1496.00 1796.00 L 1476.00 1795.00 L 1396.00 1795.00 L 1376.00 1794.00 L 1296.00 1794.00 L 1276.00 1793.00 L 1196.00 1793.00 L 1176.00 1792.00 L 1076.00 1792.00 L 1056.00 1791.00 L 976.00 1791.00 L 956.00 1790.00 L 876.00 1790.00 L 856.00 1789.00 L 756.00 1789.00 L 736.00 1788.00 L 656.00 1788.00 L 636.00 1787.00 L 556.00 1787.00 L 536.00 1786.00 Z" />
<path id="csg562-021-11" fill="none" stroke="black" stroke-width="1" d="M 621.24 1895.00 L 654.00 1942.00 L 654.74 2012.00 L 656.00 2012.00 L 676.00 2013.00 L 716.00 2013.00 L 736.00 2014.00 L 796.00 2014.00 L 816.00 2015.00 L 876.00 2015.00 L 896.00 2016.00 L 936.00 2016.00 L 956.00 2017.00 L 1016.00 2017.00 L 1036.00 2018.00 L 1096.00 2018.00 L 1116.00 2019.00 L 1156.00 2019.00 L 1176.00 2020.00 L 1236.00 2020.00 L 1256.00 2021.00 L 1316.00 2021.00 L 1336.00 2022.00 L 1376.00 2022.00 L 1396.00 2023.00 L 1456.00 2023.00 L 1476.00 2024.00 L 1536.00 2024.00 L 1556.00 2025.00 L 1596.00 2025.00 L 1616.00 2026.00 L 1676.00 2026.00 L 1696.00 2027.00 L 1756.00 2027.00 L 1776.00 2028.00 L 1816.00 2028.00 L 1836.00 2029.00 L 1896.00 2029.00 L 1916.00 2030.00 L 1976.00 2030.00 L 1996.00 2031.00 L 2056.00 2031.00 L 2076.00 2032.00 L 2116.00 2032.00 L 2136.00 2033.00 L 2196.00 2033.00 L 2216.00 2034.00 L 2276.00 2034.00 L 2296.00 2035.00 L 2336.00 2035.00 L 2356.00 2036.00 L 2416.00 2036.00 L 2436.00 2037.00 L 2496.00 2037.00 L 2516.00 2038.00 L 2556.00 2038.00 L 2573.71 2038.89 L 2556.00 1942.00 L 2182.00 1930.00 L 2182.43 1906.00 L 2176.00 1906.00 L 2156.00 1926.00 L 2116.00 1926.00 L 2096.00 1906.00 L 2076.00 1906.00 L 2056.00 1905.00 L 1936.00 1905.00 L 1916.00 1904.00 L 1816.00 1904.00 L 1796.00 1903.00 L 1676.00 1903.00 L 1656.00 1902.00 L 1536.00 1902.00 L 1516.00 1901.00 L 1396.00 1901.00 L 1376.00 1900.00 L 1256.00 1900.00 L 1236.00 1899.00 L 1136.00 1899.00 L 1116.00 1898.00 L 996.00 1898.00 L 976.00 1897.00 L 856.00 1897.00 L 836.00 1896.00 L 716.00 1896.00 L 696.00 1895.00 Z" />
<path id="csg562-021-12" fill="none" stroke="black" stroke-width="1" d="M 654.74 2012.00 L 655.88 2118.99 L 656.00 2119.00 L 716.00 2119.00 L 736.00 2120.00 L 756.00 2120.00 L 776.00 2100.00 L 796.00 2101.00 L 816.00 2121.00 L 856.00 2121.00 L 876.00 2122.00 L 916.00 2122.00 L 936.00 2123.00 L 996.00 2123.00 L 1016.00 2124.00 L 1056.00 2124.00 L 1076.00 2125.00 L 1136.00 2125.00 L 1156.00 2126.00 L 1196.00 2126.00 L 1216.00 2127.00 L 1276.00 2127.00 L 1296.00 2128.00 L 1336.00 2128.00 L 1356.00 2129.00 L 1416.00 2129.00 L 1436.00 2130.00 L 1476.00 2130.00 L 1496.00 2131.00 L 1556.00 2131.00 L 1576.00 2132.00 L 1616.00 2132.00 L 1636.00 2133.00 L 1696.00 2133.00 L 1716.00 2134.00 L 1756.00 2134.00 L 1776.00 2135.00 L 1836.00 2135.00 L 1856.00 2136.00 L 1896.00 2136.00 L 1916.00 2137.00 L 1976.00 2137.00 L 1996.00 2138.00 L 2036.00 2138.00 L 2056.00 2139.00 L 2116.00 2139.00 L 2136.00 2140.00 L 2176.00 2140.00 L 2196.00 2141.00 L 2256.00 2141.00 L 2276.00 2142.00 L 2316.00 2142.00 L 2336.00 2143.00 L 2393.43 2143.00 L 2388.00 2138.00 L 2590.00 2128.00 L 2573.71 2038.89 L 2556.00 2038.00 L 2516.00 2038.00 L 2496.00 2037.00 L 2436.00 2037.00 L 2416.00 2036.00 L 2356.00 2036.00 L 2336.00 2035.00 L 2296.00 2035.00 L 2276.00 2034.00 L 2216.00 2034.00 L 2196.00 2033.00 L 2136.00 2033.00 L 2116.00 2032.00 L 2076.00 2032.00 L 2056.00 2031.00 L 1996.00 2031.00 L 1976.00 2030.00 L 1916.00 2030.00 L 1896.00 2029.00 L 1836.00 2029.00 L 1816.00 2028.00 L 1776.00 2028.00 L 1756.00 2027.00 L 1696.00 2027.00 L 1676.00 2026.00 L 1616.00 2026.00 L 1596.00 2025.00 L 1556.00 2025.00 L 1536.00 2024.00 L 1476.00 2024.00 L 1456.00 2023.00 L 1396.00 2023.00 L 1376.00 2022.00 L 1336.00 2022.00 L 1316.00 2021.00 L 1256.00 2021.00 L 1236.00 2020.00 L 1176.00 2020.00 L 1156.00 2019.00 L 1116.00 2019.00 L 1096.00 2018.00 L 1036.00 2018.00 L 1016.00 2017.00 L 956.00 2017.00 L 936.00 2016.00 L 896.00 2016.00 L 876.00 2015.00 L 816.00 2015.00 L 796.00 2014.00 L 736.00 2014.00 L 716.00 2013.00 L 676.00 2013.00 L 656.00 2012.00 Z" />
<path id="csg562-021-13" fill="none" stroke="black" stroke-width="1" d="M 776.00 2100.00 L 756.00 2120.00 L 736.00 2120.00 L 716.00 2119.00 L 656.00 2119.00 L 655.88 2118.99 L 656.00 2130.00 L 554.00 2128.00 L 456.00 2144.00 L 452.58 2226.71 L 456.00 2225.00 L 476.00 2225.00 L 496.00 2226.00 L 536.00 2226.00 L 556.00 2227.00 L 596.00 2227.00 L 616.00 2228.00 L 656.00 2228.00 L 676.00 2229.00 L 716.00 2229.00 L 736.00 2230.00 L 756.00 2210.00 L 776.00 2210.00 L 796.00 2211.00 L 836.00 2211.00 L 856.00 2232.00 L 896.00 2232.00 L 916.00 2233.00 L 956.00 2233.00 L 976.00 2234.00 L 1016.00 2234.00 L 1036.00 2235.00 L 1076.00 2235.00 L 1096.00 2236.00 L 1136.00 2236.00 L 1156.00 2237.00 L 1196.00 2237.00 L 1216.00 2238.00 L 1256.00 2238.00 L 1276.00 2239.00 L 1316.00 2239.00 L 1336.00 2240.00 L 1376.00 2240.00 L 1396.00 2241.00 L 1436.00 2241.00 L 1456.00 2242.00 L 1496.00 2242.00 L 1516.00 2243.00 L 1556.00 2243.00 L 1576.00 2244.00 L 1616.00 2244.00 L 1636.00 2245.00 L 1676.00 2245.00 L 1696.00 2246.00 L 1736.00 2246.00 L 1756.00 2247.00 L 1796.00 2247.00 L 1816.00 2248.00 L 1856.00 2248.00 L 1876.00 2249.00 L 1916.00 2249.00 L 1936.00 2250.00 L 1976.00 2250.00 L 1996.00 2251.00 L 2036.00 2251.00 L 2056.00 2252.00 L 2096.00 2252.00 L 2116.00 2253.00 L 2156.00 2253.00 L 2176.00 2254.00 L 2216.00 2254.00 L 2236.00 2255.00 L 2276.00 2255.00 L 2296.00 2256.00 L 2336.00 2256.00 L 2356.00 2257.00 L 2396.00 2257.00 L 2416.00 2258.00 L 2436.00 2278.00 L 2456.00 2258.00 L 2476.00 2259.00 L 2516.00 2259.00 L 2519.72 2259.19 L 2393.43 2143.00 L 2336.00 2143.00 L 2316.00 2142.00 L 2276.00 2142.00 L 2256.00 2141.00 L 2196.00 2141.00 L 2176.00 2140.00 L 2136.00 2140.00 L 2116.00 2139.00 L 2056.00 2139.00 L 2036.00 2138.00 L 1996.00 2138.00 L 1976.00 2137.00 L 1916.00 2137.00 L 1896.00 2136.00 L 1856.00 2136.00 L 1836.00 2135.00 L 1776.00 2135.00 L 1756.00 2134.00 L 1716.00 2134.00 L 1696.00 2133.00 L 1636.00 2133.00 L 1616.00 2132.00 L 1576.00 2132.00 L 1556.00 2131.00 L 1496.00 2131.00 L 1476.00 2130.00 L 1436.00 2130.00 L 1416.00 2129.00 L 1356.00 2129.00 L 1336.00 2128.00 L 1296.00 2128.00 L 1276.00 2127.00 L 1216.00 2127.00 L 1196.00 2126.00 L 1156.00 2126.00 L 1136.00 2125.00 L 1076.00 2125.00 L 1056.00 2124.00 L 1016.00 2124.00 L 996.00 2123.00 L 936.00 2123.00 L 916.00 2122.00 L 876.00 2122.00 L 856.00 2121.00 L 816.00 2121.00 L 796.00 2101.00 L 776.00 2100.00 Z" />
<path id="csg562-021-14" fill="none" stroke="black" stroke-width="1" d="M 756.00 2210.00 L 736.00 2230.00 L 716.00 2229.00 L 676.00 2229.00 L 656.00 2228.00 L 616.00 2228.00 L 596.00 2227.00 L 556.00 2227.00 L 536.00 2226.00 L 496.00 2226.00 L 476.00 2225.00 L 456.00 2225.00 L 452.58 2226.71 L 447.43 2351.28 L 447.43 2351.28 L 456.00 2347.00 L 496.00 2347.00 L 516.00 2348.00 L 556.00 2348.00 L 576.00 2349.00 L 616.00 2349.00 L 636.00 2350.00 L 676.00 2350.00 L 696.00 2351.00 L 736.00 2351.00 L 756.00 2352.00 L 796.00 2352.00 L 816.00 2353.00 L 876.00 2353.00 L 896.00 2354.00 L 936.00 2354.00 L 956.00 2355.00 L 996.00 2355.00 L 1016.00 2356.00 L 1056.00 2356.00 L 1076.00 2357.00 L 1116.00 2357.00 L 1136.00 2358.00 L 1176.00 2358.00 L 1196.00 2359.00 L 1256.00 2359.00 L 1276.00 2360.00 L 1316.00 2360.00 L 1336.00 2361.00 L 1376.00 2361.00 L 1396.00 2362.00 L 1436.00 2362.00 L 1456.00 2363.00 L 1496.00 2363.00 L 1516.00 2364.00 L 1556.00 2364.00 L 1576.00 2365.00 L 1636.00 2365.00 L 1656.00 2366.00 L 1696.00 2366.00 L 1716.00 2367.00 L 1756.00 2367.00 L 1776.00 2368.00 L 1816.00 2368.00 L 1836.00 2369.00 L 1876.00 2369.00 L 1896.00 2370.00 L 1936.00 2370.00 L 1956.00 2371.00 L 2016.00 2371.00 L 2036.00 2372.00 L 2076.00 2372.00 L 2096.00 2373.00 L 2136.00 2373.00 L 2156.00 2374.00 L 2196.00 2374.00 L 2216.00 2375.00 L 2256.00 2375.00 L 2276.00 2376.00 L 2316.00 2376.00 L 2336.00 2377.00 L 2396.00 2377.00 L 2416.00 2378.00 L 2456.00 2378.00 L 2476.00 2379.00 L 2516.00 2379.00 L 2536.00 2380.00 L 2549.56 2380.00 L 2538.00 2276.00 L 2519.72 2259.19 L 2516.00 2259.00 L 2476.00 2259.00 L 2456.00 2258.00 L 2436.00 2278.00 L 2416.00 2258.00 L 2396.00 2257.00 L 2356.00 2257.00 L 2336.00 2256.00 L 2296.00 2256.00 L 2276.00 2255.00 L 2236.00 2255.00 L 2216.00 2254.00 L 2176.00 2254.00 L 2156.00 2253.00 L 2116.00 2253.00 L 2096.00 2252.00 L 2056.00 2252.00 L 2036.00 2251.00 L 1996.00 2251.00 L 1976.00 2250.00 L 1936.00 2250.00 L 1916.00 2249.00 L 1876.00 2249.00 L 1856.00 2248.00 L 1816.00 2248.00 L 1796.00 2247.00 L 1756.00 2247.00 L 1736.00 2246.00 L 1696.00 2246.00 L 1676.00 2245.00 L 1636.00 2245.00 L 1616.00 2244.00 L 1576.00 2244.00 L 1556.00 2243.00 L 1516.00 2243.00 L 1496.00 2242.00 L 1456.00 2242.00 L 1436.00 2241.00 L 1396.00 2241.00 L 1376.00 2240.00 L 1336.00 2240.00 L 1316.00 2239.00 L 1276.00 2239.00 L 1256.00 2238.00 L 1216.00 2238.00 L 1196.00 2237.00 L 1156.00 2237.00 L 1136.00 2236.00 L 1096.00 2236.00 L 1076.00 2235.00 L 1036.00 2235.00 L 1016.00 2234.00 L 976.00 2234.00 L 956.00 2233.00 L 916.00 2233.00 L 896.00 2232.00 L 856.00 2232.00 L 836.00 2211.00 L 796.00 2211.00 L 776.00 2210.00 Z" />
<path id="csg562-021-15" fill="none" stroke="black" stroke-width="1" d="M 456.00 2347.00 L 447.43 2351.28 L 442.92 2460.54 L 456.00 2454.00 L 716.00 2454.00 L 736.00 2434.00 L 756.00 2454.00 L 816.00 2454.00 L 836.00 2455.00 L 1096.00 2455.00 L 1116.00 2475.00 L 1136.00 2455.00 L 1196.00 2455.00 L 1216.00 2456.00 L 1236.00 2436.00 L 1276.00 2436.00 L 1296.00 2456.00 L 1536.00 2456.00 L 1556.00 2476.00 L 1576.00 2476.00 L 1596.00 2457.00 L 1956.00 2457.00 L 1976.00 2458.00 L 2336.00 2458.00 L 2356.00 2459.00 L 2456.00 2459.00 L 2476.00 2479.00 L 2496.00 2459.00 L 2552.12 2459.00 L 2554.00 2420.00 L 2549.56 2380.00 L 2536.00 2380.00 L 2516.00 2379.00 L 2476.00 2379.00 L 2456.00 2378.00 L 2416.00 2378.00 L 2396.00 2377.00 L 2336.00 2377.00 L 2316.00 2376.00 L 2276.00 2376.00 L 2256.00 2375.00 L 2216.00 2375.00 L 2196.00 2374.00 L 2156.00 2374.00 L 2136.00 2373.00 L 2096.00 2373.00 L 2076.00 2372.00 L 2036.00 2372.00 L 2016.00 2371.00 L 1956.00 2371.00 L 1936.00 2370.00 L 1896.00 2370.00 L 1876.00 2369.00 L 1836.00 2369.00 L 1816.00 2368.00 L 1776.00 2368.00 L 1756.00 2367.00 L 1716.00 2367.00 L 1696.00 2366.00 L 1656.00 2366.00 L 1636.00 2365.00 L 1576.00 2365.00 L 1556.00 2364.00 L 1516.00 2364.00 L 1496.00 2363.00 L 1456.00 2363.00 L 1436.00 2362.00 L 1396.00 2362.00 L 1376.00 2361.00 L 1336.00 2361.00 L 1316.00 2360.00 L 1276.00 2360.00 L 1256.00 2359.00 L 1196.00 2359.00 L 1176.00 2358.00 L 1136.00 2358.00 L 1116.00 2357.00 L 1076.00 2357.00 L 1056.00 2356.00 L 1016.00 2356.00 L 996.00 2355.00 L 956.00 2355.00 L 936.00 2354.00 L 896.00 2354.00 L 876.00 2353.00 L 816.00 2353.00 L 796.00 2352.00 L 756.00 2352.00 L 736.00 2351.00 L 696.00 2351.00 L 676.00 2350.00 L 636.00 2350.00 L 616.00 2349.00 L 576.00 2349.00 L 556.00 2348.00 L 516.00 2348.00 L 496.00 2347.00 Z" />
<path id="csg562-021-16" fill="none" stroke="black" stroke-width="1" d="M 736.00 2434.00 L 716.00 2454.00 L 456.00 2454.00 L 442.92 2460.54 L 438.15 2575.92 L 456.00 2567.00 L 576.00 2567.00 L 596.00 2568.00 L 616.00 2568.00 L 636.00 2588.00 L 656.00 2588.00 L 676.00 2568.00 L 736.00 2568.00 L 756.00 2569.00 L 876.00 2569.00 L 896.00 2570.00 L 1036.00 2570.00 L 1056.00 2571.00 L 1176.00 2571.00 L 1196.00 2592.00 L 1216.00 2592.00 L 1236.00 2572.00 L 1336.00 2572.00 L 1356.00 2573.00 L 1496.00 2573.00 L 1516.00 2574.00 L 1636.00 2574.00 L 1656.00 2575.00 L 1796.00 2575.00 L 1816.00 2576.00 L 1936.00 2576.00 L 1956.00 2577.00 L 2096.00 2577.00 L 2116.00 2578.00 L 2256.00 2578.00 L 2276.00 2579.00 L 2396.00 2579.00 L 2416.00 2580.00 L 2436.00 2600.00 L 2456.00 2600.00 L 2476.00 2580.00 L 2546.31 2580.00 L 2552.12 2459.00 L 2496.00 2459.00 L 2476.00 2479.00 L 2456.00 2459.00 L 2356.00 2459.00 L 2336.00 2458.00 L 1976.00 2458.00 L 1956.00 2457.00 L 1596.00 2457.00 L 1576.00 2476.00 L 1556.00 2476.00 L 1536.00 2456.00 L 1296.00 2456.00 L 1276.00 2436.00 L 1236.00 2436.00 L 1216.00 2456.00 L 1196.00 2455.00 L 1136.00 2455.00 L 1116.00 2475.00 L 1096.00 2455.00 L 836.00 2455.00 L 816.00 2454.00 L 756.00 2454.00 L 736.00 2434.00 Z" />
<path id="csg562-021-17" fill="none" stroke="black" stroke-width="1" d="M 456.00 2567.00 L 438.15 2575.92 L 436.00 2628.00 L 516.00 2652.00 L 514.39 2677.00 L 516.00 2677.00 L 536.00 2678.00 L 596.00 2678.00 L 616.00 2679.00 L 676.00 2679.00 L 696.00 2680.00 L 756.00 2680.00 L 776.00 2681.00 L 836.00 2681.00 L 856.00 2682.00 L 916.00 2682.00 L 936.00 2683.00 L 1016.00 2683.00 L 1036.00 2684.00 L 1096.00 2684.00 L 1116.00 2685.00 L 1176.00 2685.00 L 1196.00 2686.00 L 1256.00 2686.00 L 1276.00 2687.00 L 1336.00 2687.00 L 1356.00 2688.00 L 1416.00 2688.00 L 1436.00 2689.00 L 1496.00 2689.00 L 1516.00 2690.00 L 1596.00 2690.00 L 1616.00 2691.00 L 1676.00 2691.00 L 1696.00 2692.00 L 1756.00 2692.00 L 1776.00 2693.00 L 1836.00 2693.00 L 1856.00 2694.00 L 1916.00 2694.00 L 1936.00 2695.00 L 1996.00 2695.00 L 2016.00 2696.00 L 2076.00 2696.00 L 2096.00 2697.00 L 2176.00 2697.00 L 2196.00 2698.00 L 2256.00 2698.00 L 2276.00 2699.00 L 2316.00 2699.00 L 2336.00 2679.00 L 2356.00 2680.00 L 2376.00 2700.00 L 2416.00 2700.00 L 2436.00 2701.00 L 2496.00 2701.00 L 2516.00 2702.00 L 2576.00 2702.00 L 2584.78 2702.44 L 2544.00 2628.00 L 2546.31 2580.00 L 2476.00 2580.00 L 2456.00 2600.00 L 2436.00 2600.00 L 2416.00 2580.00 L 2396.00 2579.00 L 2276.00 2579.00 L 2256.00 2578.00 L 2116.00 2578.00 L 2096.00 2577.00 L 1956.00 2577.00 L 1936.00 2576.00 L 1816.00 2576.00 L 1796.00 2575.00 L 1656.00 2575.00 L 1636.00 2574.00 L 1516.00 2574.00 L 1496.00 2573.00 L 1356.00 2573.00 L 1336.00 2572.00 L 1236.00 2572.00 L 1216.00 2592.00 L 1196.00 2592.00 L 1176.00 2571.00 L 1056.00 2571.00 L 1036.00 2570.00 L 896.00 2570.00 L 876.00 2569.00 L 756.00 2569.00 L 736.00 2568.00 L 676.00 2568.00 L 656.00 2588.00 L 636.00 2588.00 L 616.00 2568.00 L 596.00 2568.00 L 576.00 2567.00 Z" />
<path id="csg562-021-18" fill="none" stroke="black" stroke-width="1" d="M 514.39 2677.00 L 508.00 2776.00 L 503.57 2785.38 L 516.00 2786.00 L 556.00 2786.00 L 576.00 2787.00 L 636.00 2787.00 L 656.00 2788.00 L 696.00 2788.00 L 716.00 2789.00 L 756.00 2789.00 L 776.00 2790.00 L 836.00 2790.00 L 856.00 2791.00 L 896.00 2791.00 L 916.00 2792.00 L 956.00 2792.00 L 976.00 2793.00 L 1036.00 2793.00 L 1056.00 2794.00 L 1096.00 2794.00 L 1116.00 2795.00 L 1176.00 2795.00 L 1196.00 2796.00 L 1236.00 2796.00 L 1256.00 2797.00 L 1296.00 2797.00 L 1316.00 2798.00 L 1376.00 2798.00 L 1396.00 2799.00 L 1436.00 2799.00 L 1456.00 2800.00 L 1496.00 2800.00 L 1516.00 2801.00 L 1576.00 2801.00 L 1596.00 2802.00 L 1636.00 2802.00 L 1656.00 2803.00 L 1716.00 2803.00 L 1736.00 2804.00 L 1776.00 2804.00 L 1796.00 2805.00 L 1836.00 2805.00 L 1856.00 2806.00 L 1916.00 2806.00 L 1936.00 2807.00 L 1976.00 2807.00 L 1996.00 2808.00 L 2036.00 2808.00 L 2056.00 2809.00 L 2116.00 2809.00 L 2136.00 2810.00 L 2176.00 2810.00 L 2196.00 2811.00 L 2216.00 2831.00 L 2236.00 2831.00 L 2256.00 2811.00 L 2276.00 2812.00 L 2316.00 2812.00 L 2336.00 2813.00 L 2376.00 2813.00 L 2396.00 2814.00 L 2456.00 2814.00 L 2476.00 2815.00 L 2516.00 2815.00 L 2536.00 2816.00 L 2576.00 2816.00 L 2596.00 2817.00 L 2647.54 2817.00 L 2584.78 2702.44 L 2576.00 2702.00 L 2516.00 2702.00 L 2496.00 2701.00 L 2436.00 2701.00 L 2416.00 2700.00 L 2376.00 2700.00 L 2356.00 2680.00 L 2336.00 2679.00 L 2316.00 2699.00 L 2276.00 2699.00 L 2256.00 2698.00 L 2196.00 2698.00 L 2176.00 2697.00 L 2096.00 2697.00 L 2076.00 2696.00 L 2016.00 2696.00 L 1996.00 2695.00 L 1936.00 2695.00 L 1916.00 2694.00 L 1856.00 2694.00 L 1836.00 2693.00 L 1776.00 2693.00 L 1756.00 2692.00 L 1696.00 2692.00 L 1676.00 2691.00 L 1616.00 2691.00 L 1596.00 2690.00 L 1516.00 2690.00 L 1496.00 2689.00 L 1436.00 2689.00 L 1416.00 2688.00 L 1356.00 2688.00 L 1336.00 2687.00 L 1276.00 2687.00 L 1256.00 2686.00 L 1196.00 2686.00 L 1176.00 2685.00 L 1116.00 2685.00 L 1096.00 2684.00 L 1036.00 2684.00 L 1016.00 2683.00 L 936.00 2683.00 L 916.00 2682.00 L 856.00 2682.00 L 836.00 2681.00 L 776.00 2681.00 L 756.00 2680.00 L 696.00 2680.00 L 676.00 2679.00 L 616.00 2679.00 L 596.00 2678.00 L 536.00 2678.00 L 516.00 2677.00 Z" />
<path id="csg562-021-19" fill="none" stroke="black" stroke-width="1" d="M 503.57 2785.38 L 474.00 2848.00 L 474.00 2895.00 L 536.00 2895.00 L 556.00 2896.00 L 636.00 2896.00 L 656.00 2897.00 L 736.00 2897.00 L 756.00 2898.00 L 836.00 2898.00 L 856.00 2899.00 L 936.00 2899.00 L 956.00 2900.00 L 1036.00 2900.00 L 1056.00 2901.00 L 1136.00 2901.00 L 1156.00 2902.00 L 1236.00 2902.00 L 1256.00 2903.00 L 1336.00 2903.00 L 1356.00 2904.00 L 1436.00 2904.00 L 1456.00 2905.00 L 1536.00 2905.00 L 1556.00 2906.00 L 1636.00 2906.00 L 1656.00 2907.00 L 1736.00 2907.00 L 1756.00 2908.00 L 1836.00 2908.00 L 1856.00 2909.00 L 1936.00 2909.00 L 1956.00 2910.00 L 2036.00 2910.00 L 2056.00 2911.00 L 2156.00 2911.00 L 2176.00 2912.00 L 2256.00 2912.00 L 2276.00 2913.00 L 2356.00 2913.00 L 2376.00 2914.00 L 2456.00 2914.00 L 2476.00 2915.00 L 2556.00 2915.00 L 2576.00 2916.00 L 2639.07 2916.00 L 2670.00 2858.00 L 2647.54 2817.00 L 2596.00 2817.00 L 2576.00 2816.00 L 2536.00 2816.00 L 2516.00 2815.00 L 2476.00 2815.00 L 2456.00 2814.00 L 2396.00 2814.00 L 2376.00 2813.00 L 2336.00 2813.00 L 2316.00 2812.00 L 2276.00 2812.00 L 2256.00 2811.00 L 2236.00 2831.00 L 2216.00 2831.00 L 2196.00 2811.00 L 2176.00 2810.00 L 2136.00 2810.00 L 2116.00 2809.00 L 2056.00 2809.00 L 2036.00 2808.00 L 1996.00 2808.00 L 1976.00 2807.00 L 1936.00 2807.00 L 1916.00 2806.00 L 1856.00 2806.00 L 1836.00 2805.00 L 1796.00 2805.00 L 1776.00 2804.00 L 1736.00 2804.00 L 1716.00 2803.00 L 1656.00 2803.00 L 1636.00 2802.00 L 1596.00 2802.00 L 1576.00 2801.00 L 1516.00 2801.00 L 1496.00 2800.00 L 1456.00 2800.00 L 1436.00 2799.00 L 1396.00 2799.00 L 1376.00 2798.00 L 1316.00 2798.00 L 1296.00 2797.00 L 1256.00 2797.00 L 1236.00 2796.00 L 1196.00 2796.00 L 1176.00 2795.00 L 1116.00 2795.00 L 1096.00 2794.00 L 1056.00 2794.00 L 1036.00 2793.00 L 976.00 2793.00 L 956.00 2792.00 L 916.00 2792.00 L 896.00 2791.00 L 856.00 2791.00 L 836.00 2790.00 L 776.00 2790.00 L 756.00 2789.00 L 716.00 2789.00 L 696.00 2788.00 L 656.00 2788.00 L 636.00 2787.00 L 576.00 2787.00 L 556.00 2786.00 L 516.00 2786.00 L 503.57 2785.38 Z" />
<path id="csg562-021-20" fill="none" stroke="black" stroke-width="1" d="M 474.00 2895.00 L 474.00 2976.00 L 504.48 3008.00 L 656.00 3008.00 L 676.00 3009.00 L 876.00 3009.00 L 896.00 3010.00 L 1096.00 3010.00 L 1116.00 3011.00 L 1316.00 3011.00 L 1336.00 3012.00 L 1356.00 3012.00 L 1376.00 3032.00 L 1396.00 3012.00 L 1416.00 2992.00 L 1436.00 3012.00 L 1536.00 3012.00 L 1556.00 3013.00 L 1756.00 3013.00 L 1776.00 3014.00 L 1976.00 3014.00 L 1996.00 3015.00 L 2216.00 3015.00 L 2236.00 3016.00 L 2416.00 3016.00 L 2436.00 3036.00 L 2456.00 3017.00 L 2491.83 3017.00 L 2460.00 2920.00 L 2638.00 2918.00 L 2639.07 2916.00 L 2576.00 2916.00 L 2556.00 2915.00 L 2476.00 2915.00 L 2456.00 2914.00 L 2376.00 2914.00 L 2356.00 2913.00 L 2276.00 2913.00 L 2256.00 2912.00 L 2176.00 2912.00 L 2156.00 2911.00 L 2056.00 2911.00 L 2036.00 2910.00 L 1956.00 2910.00 L 1936.00 2909.00 L 1856.00 2909.00 L 1836.00 2908.00 L 1756.00 2908.00 L 1736.00 2907.00 L 1656.00 2907.00 L 1636.00 2906.00 L 1556.00 2906.00 L 1536.00 2905.00 L 1456.00 2905.00 L 1436.00 2904.00 L 1356.00 2904.00 L 1336.00 2903.00 L 1256.00 2903.00 L 1236.00 2902.00 L 1156.00 2902.00 L 1136.00 2901.00 L 1056.00 2901.00 L 1036.00 2900.00 L 956.00 2900.00 L 936.00 2899.00 L 856.00 2899.00 L 836.00 2898.00 L 756.00 2898.00 L 736.00 2897.00 L 656.00 2897.00 L 636.00 2896.00 L 556.00 2896.00 L 536.00 2895.00 Z" />
<path id="csg562-021-21" fill="none" stroke="black" stroke-width="1" d="M 1416.00 2992.00 L 1396.00 3012.00 L 1376.00 3032.00 L 1356.00 3012.00 L 1336.00 3012.00 L 1316.00 3011.00 L 1116.00 3011.00 L 1096.00 3010.00 L 896.00 3010.00 L 876.00 3009.00 L 676.00 3009.00 L 656.00 3008.00 L 504.48 3008.00 L 514.00 3018.00 L 518.00 3120.00 L 676.00 3120.00 L 696.00 3121.00 L 936.00 3121.00 L 956.00 3122.00 L 1176.00 3122.00 L 1196.00 3123.00 L 1416.00 3123.00 L 1436.00 3143.00 L 1456.00 3124.00 L 1696.00 3124.00 L 1716.00 3125.00 L 1776.00 3125.00 L 1796.00 3145.00 L 1816.00 3125.00 L 1856.00 3125.00 L 1876.00 3145.00 L 1896.00 3125.00 L 1936.00 3125.00 L 1956.00 3126.00 L 2156.00 3126.00 L 2176.00 3146.00 L 2196.00 3146.00 L 2216.00 3127.00 L 2456.00 3127.00 L 2476.00 3128.00 L 2528.25 3128.00 L 2491.83 3017.00 L 2456.00 3017.00 L 2436.00 3036.00 L 2416.00 3016.00 L 2236.00 3016.00 L 2216.00 3015.00 L 1996.00 3015.00 L 1976.00 3014.00 L 1776.00 3014.00 L 1756.00 3013.00 L 1556.00 3013.00 L 1536.00 3012.00 L 1436.00 3012.00 L 1416.00 2992.00 Z" />
<path id="csg562-021-22" fill="none" stroke="black" stroke-width="1" d="M 518.00 3120.00 L 476.00 3186.00 L 474.43 3234.00 L 516.00 3234.00 L 536.00 3235.00 L 616.00 3235.00 L 636.00 3236.00 L 716.00 3236.00 L 736.00 3237.00 L 816.00 3237.00 L 836.00 3238.00 L 916.00 3238.00 L 936.00 3239.00 L 1016.00 3239.00 L 1036.00 3240.00 L 1116.00 3240.00 L 1136.00 3241.00 L 1216.00 3241.00 L 1236.00 3242.00 L 1316.00 3242.00 L 1336.00 3243.00 L 1416.00 3243.00 L 1436.00 3244.00 L 1516.00 3244.00 L 1536.00 3245.00 L 1616.00 3245.00 L 1636.00 3246.00 L 1716.00 3246.00 L 1736.00 3247.00 L 1816.00 3247.00 L 1836.00 3248.00 L 1916.00 3248.00 L 1936.00 3249.00 L 2016.00 3249.00 L 2036.00 3250.00 L 2116.00 3250.00 L 2136.00 3251.00 L 2216.00 3251.00 L 2236.00 3252.00 L 2316.00 3252.00 L 2336.00 3253.00 L 2416.00 3253.00 L 2436.00 3254.00 L 2516.00 3254.00 L 2536.00 3255.00 L 2548.32 3255.00 L 2544.00 3176.00 L 2528.25 3128.00 L 2476.00 3128.00 L 2456.00 3127.00 L 2216.00 3127.00 L 2196.00 3146.00 L 2176.00 3146.00 L 2156.00 3126.00 L 1956.00 3126.00 L 1936.00 3125.00 L 1896.00 3125.00 L 1876.00 3145.00 L 1856.00 3125.00 L 1816.00 3125.00 L 1796.00 3145.00 L 1776.00 3125.00 L 1716.00 3125.00 L 1696.00 3124.00 L 1456.00 3124.00 L 1436.00 3143.00 L 1416.00 3123.00 L 1196.00 3123.00 L 1176.00 3122.00 L 956.00 3122.00 L 936.00 3121.00 L 696.00 3121.00 L 676.00 3120.00 Z" />
<path id="csg562-021-23" fill="none" stroke="black" stroke-width="1" d="M 474.43 3234.00 L 472.00 3308.00 L 516.00 3310.00 L 511.00 3333.75 L 516.00 3334.00 L 576.00 3334.00 L 596.00 3335.00 L 656.00 3335.00 L 676.00 3336.00 L 716.00 3336.00 L 736.00 3337.00 L 796.00 3337.00 L 816.00 3338.00 L 876.00 3338.00 L 896.00 3339.00 L 936.00 3339.00 L 956.00 3340.00 L 1016.00 3340.00 L 1036.00 3341.00 L 1096.00 3341.00 L 1116.00 3342.00 L 1156.00 3342.00 L 1176.00 3343.00 L 1236.00 3343.00 L 1256.00 3344.00 L 1316.00 3344.00 L 1336.00 3345.00 L 1376.00 3345.00 L 1396.00 3346.00 L 1456.00 3346.00 L 1476.00 3347.00 L 1536.00 3347.00 L 1556.00 3348.00 L 1596.00 3348.00 L 1616.00 3349.00 L 1676.00 3349.00 L 1696.00 3350.00 L 1756.00 3350.00 L 1776.00 3351.00 L 1836.00 3351.00 L 1856.00 3352.00 L 1896.00 3352.00 L 1916.00 3353.00 L 1976.00 3353.00 L 1996.00 3354.00 L 2016.00 3354.00 L 2036.00 3374.00 L 2056.00 3354.00 L 2076.00 3355.00 L 2116.00 3355.00 L 2136.00 3356.00 L 2196.00 3356.00 L 2216.00 3357.00 L 2276.00 3357.00 L 2296.00 3358.00 L 2336.00 3358.00 L 2356.00 3359.00 L 2416.00 3359.00 L 2436.00 3360.00 L 2496.00 3360.00 L 2516.00 3361.00 L 2554.12 3361.00 L 2548.32 3255.00 L 2536.00 3255.00 L 2516.00 3254.00 L 2436.00 3254.00 L 2416.00 3253.00 L 2336.00 3253.00 L 2316.00 3252.00 L 2236.00 3252.00 L 2216.00 3251.00 L 2136.00 3251.00 L 2116.00 3250.00 L 2036.00 3250.00 L 2016.00 3249.00 L 1936.00 3249.00 L 1916.00 3248.00 L 1836.00 3248.00 L 1816.00 3247.00 L 1736.00 3247.00 L 1716.00 3246.00 L 1636.00 3246.00 L 1616.00 3245.00 L 1536.00 3245.00 L 1516.00 3244.00 L 1436.00 3244.00 L 1416.00 3243.00 L 1336.00 3243.00 L 1316.00 3242.00 L 1236.00 3242.00 L 1216.00 3241.00 L 1136.00 3241.00 L 1116.00 3240.00 L 1036.00 3240.00 L 1016.00 3239.00 L 936.00 3239.00 L 916.00 3238.00 L 836.00 3238.00 L 816.00 3237.00 L 736.00 3237.00 L 716.00 3236.00 L 636.00 3236.00 L 616.00 3235.00 L 536.00 3235.00 L 516.00 3234.00 Z" />
<path id="csg562-021-24" fill="none" stroke="black" stroke-width="1" d="M 511.00 3333.75 L 500.00 3386.00 L 512.00 3430.00 L 736.00 3432.00 L 1088.00 3436.00 L 1146.00 3454.00 L 1394.00 3454.00 L 1900.00 3452.00 L 1955.20 3475.00 L 1991.25 3475.00 L 2038.00 3458.00 L 2366.00 3458.00 L 2399.82 3481.00 L 2416.00 3481.00 L 2436.00 3482.00 L 2439.67 3482.00 L 2558.00 3432.00 L 2554.12 3361.00 L 2516.00 3361.00 L 2496.00 3360.00 L 2436.00 3360.00 L 2416.00 3359.00 L 2356.00 3359.00 L 2336.00 3358.00 L 2296.00 3358.00 L 2276.00 3357.00 L 2216.00 3357.00 L 2196.00 3356.00 L 2136.00 3356.00 L 2116.00 3355.00 L 2076.00 3355.00 L 2056.00 3354.00 L 2036.00 3374.00 L 2016.00 3354.00 L 1996.00 3354.00 L 1976.00 3353.00 L 1916.00 3353.00 L 1896.00 3352.00 L 1856.00 3352.00 L 1836.00 3351.00 L 1776.00 3351.00 L 1756.00 3350.00 L 1696.00 3350.00 L 1676.00 3349.00 L 1616.00 3349.00 L 1596.00 3348.00 L 1556.00 3348.00 L 1536.00 3347.00 L 1476.00 3347.00 L 1456.00 3346.00 L 1396.00 3346.00 L 1376.00 3345.00 L 1336.00 3345.00 L 1316.00 3344.00 L 1256.00 3344.00 L 1236.00 3343.00 L 1176.00 3343.00 L 1156.00 3342.00 L 1116.00 3342.00 L 1096.00 3341.00 L 1036.00 3341.00 L 1016.00 3340.00 L 956.00 3340.00 L 936.00 3339.00 L 896.00 3339.00 L 876.00 3338.00 L 816.00 3338.00 L 796.00 3337.00 L 736.00 3337.00 L 716.00 3336.00 L 676.00 3336.00 L 656.00 3335.00 L 596.00 3335.00 L 576.00 3334.00 L 516.00 3334.00 L 511.00 3333.75 Z" />
</svg>
