<?xml version="1.0" standalone="no"?>
<!DOCTYPE svg PUBLIC "-//W3C//DTD SVG 1.1//EN" "http://www.w3.org/Graphics/SVG/1.1/DTD/svg11.dtd">
<svg width="46.22222in" height="69.333336in" viewBox="0 0 3328 4992" xmlns="http://www.w3.org/2000/svg" version="1.1">
<path id="csg562-037-01" fill="none" stroke="black" stroke-width="1" d="M 2301.00 780.00 L 1998.00 807.00 L 1885.20 783.00 L 1804.50 783.00 L 1437.00 825.00 L 1050.00 804.00 L 780.00 813.00 L 483.00 804.00 L 366.00 819.00 L 363.59 904.42 L 368.00 902.00 L 388.00 882.00 L 408.00 902.00 L 428.00 882.00 L 448.00 902.00 L 708.00 902.00 L 728.00 901.00 L 1068.00 901.00 L 1088.00 900.00 L 1428.00 900.00 L 1448.00 899.00 L 1468.00 899.00 L 1488.00 919.00 L 1508.00 899.00 L 1788.00 899.00 L 1808.00 898.00 L 2108.00 898.00 L 2128.00 878.00 L 2148.00 878.00 L 2168.00 877.00 L 2188.00 897.00 L 2460.82 897.00 L 2499.00 792.00 L 2301.00 780.00 Z" />
<path id="csg562-037-02" fill="none" stroke="black" stroke-width="1" d="M 2168.00 877.00 L 2148.00 878.00 L 2128.00 878.00 L 2108.00 898.00 L 1808.00 898.00 L 1788.00 899.00 L 1508.00 899.00 L 1488.00 919.00 L 1468.00 899.00 L 1448.00 899.00 L 1428.00 900.00 L 1088.00 900.00 L 1068.00 901.00 L 728.00 901.00 L 708.00 902.00 L 448.00 902.00 L 428.00 882.00 L 408.00 902.00 L 388.00 882.00 L 368.00 902.00 L 363.59 904.42 L 360.36 1019.20 L 360.36 1019.20 L 368.00 1015.00 L 848.00 1015.00 L 868.00 1014.00 L 888.00 1034.00 L 908.00 1014.00 L 1368.00 1014.00 L 1388.00 1013.00 L 1888.00 1013.00 L 1908.00 1012.00 L 2408.00 1012.00 L 2428.00 1011.00 L 2454.74 1011.00 L 2451.00 924.00 L 2460.82 897.00 L 2188.00 897.00 L 2168.00 877.00 Z" />
<path id="csg562-037-03" fill="none" stroke="black" stroke-width="1" d="M 2428.00 1011.00 L 2408.00 1012.00 L 1908.00 1012.00 L 1888.00 1013.00 L 1388.00 1013.00 L 1368.00 1014.00 L 908.00 1014.00 L 888.00 1034.00 L 868.00 1014.00 L 848.00 1015.00 L 368.00 1015.00 L 360.36 1019.20 L 360.00 1032.00 L 361.13 1143.78 L 368.00 1140.00 L 548.00 1140.00 L 568.00 1139.00 L 748.00 1139.00 L 768.00 1138.00 L 948.00 1138.00 L 968.00 1137.00 L 1168.00 1137.00 L 1188.00 1136.00 L 1368.00 1136.00 L 1388.00 1135.00 L 1568.00 1135.00 L 1588.00 1134.00 L 1788.00 1134.00 L 1808.00 1133.00 L 1988.00 1133.00 L 2008.00 1132.00 L 2188.00 1132.00 L 2208.00 1131.00 L 2408.00 1131.00 L 2428.00 1130.00 L 2459.86 1130.00 L 2454.74 1011.00 Z" />
<path id="csg562-037-04" fill="none" stroke="black" stroke-width="1" d="M 2428.00 1130.00 L 2408.00 1131.00 L 2208.00 1131.00 L 2188.00 1132.00 L 2008.00 1132.00 L 1988.00 1133.00 L 1808.00 1133.00 L 1788.00 1134.00 L 1588.00 1134.00 L 1568.00 1135.00 L 1388.00 1135.00 L 1368.00 1136.00 L 1188.00 1136.00 L 1168.00 1137.00 L 968.00 1137.00 L 948.00 1138.00 L 768.00 1138.00 L 748.00 1139.00 L 568.00 1139.00 L 548.00 1140.00 L 368.00 1140.00 L 361.13 1143.78 L 362.19 1249.19 L 368.00 1246.00 L 508.00 1246.00 L 528.00 1245.00 L 668.00 1245.00 L 688.00 1244.00 L 828.00 1244.00 L 848.00 1243.00 L 1008.00 1243.00 L 1028.00 1242.00 L 1168.00 1242.00 L 1188.00 1241.00 L 1308.00 1241.00 L 1328.00 1261.00 L 1348.00 1260.00 L 1368.00 1240.00 L 1508.00 1240.00 L 1528.00 1239.00 L 1668.00 1239.00 L 1688.00 1238.00 L 1828.00 1238.00 L 1848.00 1237.00 L 2008.00 1237.00 L 2028.00 1236.00 L 2168.00 1236.00 L 2188.00 1235.00 L 2328.00 1235.00 L 2348.00 1234.00 L 2422.88 1234.00 L 2463.00 1203.00 L 2459.86 1130.00 Z" />
<path id="csg562-037-05" fill="none" stroke="black" stroke-width="1" d="M 2348.00 1234.00 L 2328.00 1235.00 L 2188.00 1235.00 L 2168.00 1236.00 L 2028.00 1236.00 L 2008.00 1237.00 L 1848.00 1237.00 L 1828.00 1238.00 L 1688.00 1238.00 L 1668.00 1239.00 L 1528.00 1239.00 L 1508.00 1240.00 L 1368.00 1240.00 L 1348.00 1260.00 L 1328.00 1261.00 L 1308.00 1241.00 L 1188.00 1241.00 L 1168.00 1242.00 L 1028.00 1242.00 L 1008.00 1243.00 L 848.00 1243.00 L 828.00 1244.00 L 688.00 1244.00 L 668.00 1245.00 L 528.00 1245.00 L 508.00 1246.00 L 368.00 1246.00 L 362.19 1249.19 L 363.44 1372.51 L 368.00 1370.00 L 528.00 1370.00 L 548.00 1369.00 L 708.00 1369.00 L 728.00 1368.00 L 888.00 1368.00 L 908.00 1367.00 L 1068.00 1367.00 L 1088.00 1366.00 L 1268.00 1366.00 L 1288.00 1365.00 L 1448.00 1365.00 L 1468.00 1364.00 L 1568.00 1364.00 L 1588.00 1344.00 L 1628.00 1344.00 L 1648.00 1363.00 L 1688.00 1363.00 L 1708.00 1383.00 L 1728.00 1363.00 L 1808.00 1363.00 L 1828.00 1362.00 L 1848.00 1362.00 L 1868.00 1342.00 L 1908.00 1342.00 L 1928.00 1362.00 L 2008.00 1362.00 L 2028.00 1361.00 L 2188.00 1361.00 L 2208.00 1360.00 L 2368.00 1360.00 L 2388.00 1359.00 L 2419.05 1359.00 L 2397.00 1254.00 L 2422.88 1234.00 Z" />
<path id="csg562-037-06" fill="none" stroke="black" stroke-width="1" d="M 1868.00 1342.00 L 1848.00 1362.00 L 1828.00 1362.00 L 1808.00 1363.00 L 1728.00 1363.00 L 1708.00 1383.00 L 1688.00 1363.00 L 1648.00 1363.00 L 1628.00 1344.00 L 1588.00 1344.00 L 1568.00 1364.00 L 1468.00 1364.00 L 1448.00 1365.00 L 1288.00 1365.00 L 1268.00 1366.00 L 1088.00 1366.00 L 1068.00 1367.00 L 908.00 1367.00 L 888.00 1368.00 L 728.00 1368.00 L 708.00 1369.00 L 548.00 1369.00 L 528.00 1370.00 L 368.00 1370.00 L 363.44 1372.51 L 364.52 1479.91 L 368.00 1478.00 L 428.00 1478.00 L 448.00 1477.00 L 528.00 1477.00 L 548.00 1476.00 L 628.00 1476.00 L 648.00 1475.00 L 728.00 1475.00 L 748.00 1474.00 L 828.00 1474.00 L 848.00 1473.00 L 928.00 1473.00 L 948.00 1472.00 L 1028.00 1472.00 L 1048.00 1471.00 L 1128.00 1471.00 L 1148.00 1470.00 L 1228.00 1470.00 L 1248.00 1489.00 L 1268.00 1489.00 L 1288.00 1469.00 L 1328.00 1469.00 L 1348.00 1468.00 L 1428.00 1468.00 L 1448.00 1467.00 L 1488.00 1467.00 L 1508.00 1487.00 L 1528.00 1467.00 L 1548.00 1466.00 L 1628.00 1466.00 L 1648.00 1465.00 L 1728.00 1465.00 L 1748.00 1464.00 L 1808.00 1464.00 L 1828.00 1463.00 L 1908.00 1463.00 L 1928.00 1462.00 L 2008.00 1462.00 L 2028.00 1461.00 L 2108.00 1461.00 L 2128.00 1460.00 L 2208.00 1460.00 L 2228.00 1459.00 L 2308.00 1459.00 L 2328.00 1458.00 L 2408.00 1458.00 L 2428.00 1457.00 L 2439.63 1457.00 L 2419.05 1359.00 L 2388.00 1359.00 L 2368.00 1360.00 L 2208.00 1360.00 L 2188.00 1361.00 L 2028.00 1361.00 L 2008.00 1362.00 L 1928.00 1362.00 L 1908.00 1342.00 Z" />
<path id="csg562-037-07" fill="none" stroke="black" stroke-width="1" d="M 2428.00 1457.00 L 2408.00 1458.00 L 2328.00 1458.00 L 2308.00 1459.00 L 2228.00 1459.00 L 2208.00 1460.00 L 2128.00 1460.00 L 2108.00 1461.00 L 2028.00 1461.00 L 2008.00 1462.00 L 1928.00 1462.00 L 1908.00 1463.00 L 1828.00 1463.00 L 1808.00 1464.00 L 1748.00 1464.00 L 1728.00 1465.00 L 1648.00 1465.00 L 1628.00 1466.00 L 1548.00 1466.00 L 1528.00 1467.00 L 1508.00 1487.00 L 1488.00 1467.00 L 1448.00 1467.00 L 1428.00 1468.00 L 1348.00 1468.00 L 1328.00 1469.00 L 1288.00 1469.00 L 1268.00 1489.00 L 1248.00 1489.00 L 1228.00 1470.00 L 1148.00 1470.00 L 1128.00 1471.00 L 1048.00 1471.00 L 1028.00 1472.00 L 948.00 1472.00 L 928.00 1473.00 L 848.00 1473.00 L 828.00 1474.00 L 748.00 1474.00 L 728.00 1475.00 L 648.00 1475.00 L 628.00 1476.00 L 548.00 1476.00 L 528.00 1477.00 L 448.00 1477.00 L 428.00 1478.00 L 368.00 1478.00 L 364.52 1479.91 L 365.69 1595.27 L 368.00 1594.00 L 428.00 1594.00 L 448.00 1593.00 L 528.00 1593.00 L 548.00 1592.00 L 608.00 1592.00 L 628.00 1591.00 L 708.00 1591.00 L 728.00 1590.00 L 808.00 1590.00 L 828.00 1589.00 L 888.00 1589.00 L 908.00 1588.00 L 948.00 1588.00 L 968.00 1608.00 L 988.00 1588.00 L 1008.00 1607.00 L 1028.00 1587.00 L 1088.00 1587.00 L 1108.00 1586.00 L 1168.00 1586.00 L 1188.00 1585.00 L 1268.00 1585.00 L 1288.00 1584.00 L 1348.00 1584.00 L 1368.00 1583.00 L 1448.00 1583.00 L 1468.00 1582.00 L 1548.00 1582.00 L 1568.00 1581.00 L 1628.00 1581.00 L 1648.00 1580.00 L 1668.00 1600.00 L 1688.00 1600.00 L 1708.00 1580.00 L 1728.00 1580.00 L 1748.00 1579.00 L 1828.00 1579.00 L 1848.00 1578.00 L 1908.00 1578.00 L 1928.00 1577.00 L 2008.00 1577.00 L 2028.00 1576.00 L 2088.00 1576.00 L 2108.00 1575.00 L 2188.00 1575.00 L 2208.00 1574.00 L 2288.00 1574.00 L 2308.00 1573.00 L 2368.00 1573.00 L 2388.00 1572.00 L 2412.00 1572.00 L 2460.00 1554.00 L 2439.63 1457.00 Z" />
<path id="csg562-037-08" fill="none" stroke="black" stroke-width="1" d="M 2388.00 1572.00 L 2368.00 1573.00 L 2308.00 1573.00 L 2288.00 1574.00 L 2208.00 1574.00 L 2188.00 1575.00 L 2108.00 1575.00 L 2088.00 1576.00 L 2028.00 1576.00 L 2008.00 1577.00 L 1928.00 1577.00 L 1908.00 1578.00 L 1848.00 1578.00 L 1828.00 1579.00 L 1748.00 1579.00 L 1728.00 1580.00 L 1708.00 1580.00 L 1688.00 1600.00 L 1668.00 1600.00 L 1648.00 1580.00 L 1628.00 1581.00 L 1568.00 1581.00 L 1548.00 1582.00 L 1468.00 1582.00 L 1448.00 1583.00 L 1368.00 1583.00 L 1348.00 1584.00 L 1288.00 1584.00 L 1268.00 1585.00 L 1188.00 1585.00 L 1168.00 1586.00 L 1108.00 1586.00 L 1088.00 1587.00 L 1028.00 1587.00 L 1008.00 1607.00 L 988.00 1588.00 L 968.00 1608.00 L 948.00 1588.00 L 908.00 1588.00 L 888.00 1589.00 L 828.00 1589.00 L 808.00 1590.00 L 728.00 1590.00 L 708.00 1591.00 L 628.00 1591.00 L 608.00 1592.00 L 548.00 1592.00 L 528.00 1593.00 L 448.00 1593.00 L 428.00 1594.00 L 368.00 1594.00 L 365.69 1595.27 L 366.00 1626.00 L 366.00 1712.10 L 368.00 1711.00 L 388.00 1691.00 L 428.00 1691.00 L 448.00 1690.00 L 488.00 1690.00 L 508.00 1710.00 L 528.00 1710.00 L 548.00 1709.00 L 628.00 1709.00 L 648.00 1708.00 L 728.00 1708.00 L 748.00 1707.00 L 828.00 1707.00 L 848.00 1706.00 L 928.00 1706.00 L 948.00 1705.00 L 1028.00 1705.00 L 1048.00 1704.00 L 1128.00 1704.00 L 1148.00 1703.00 L 1228.00 1703.00 L 1248.00 1722.00 L 1268.00 1702.00 L 1328.00 1702.00 L 1348.00 1701.00 L 1428.00 1701.00 L 1448.00 1700.00 L 1528.00 1700.00 L 1548.00 1699.00 L 1568.00 1699.00 L 1588.00 1719.00 L 1608.00 1699.00 L 1628.00 1699.00 L 1648.00 1698.00 L 1728.00 1698.00 L 1748.00 1697.00 L 1828.00 1697.00 L 1848.00 1696.00 L 1888.00 1696.00 L 1908.00 1676.00 L 1928.00 1676.00 L 1948.00 1695.00 L 2028.00 1695.00 L 2048.00 1694.00 L 2128.00 1694.00 L 2148.00 1693.00 L 2228.00 1693.00 L 2248.00 1692.00 L 2328.00 1692.00 L 2348.00 1691.00 L 2410.17 1691.00 L 2364.00 1590.00 L 2412.00 1572.00 Z" />
<path id="csg562-037-09" fill="none" stroke="black" stroke-width="1" d="M 1908.00 1676.00 L 1888.00 1696.00 L 1848.00 1696.00 L 1828.00 1697.00 L 1748.00 1697.00 L 1728.00 1698.00 L 1648.00 1698.00 L 1628.00 1699.00 L 1608.00 1699.00 L 1588.00 1719.00 L 1568.00 1699.00 L 1548.00 1699.00 L 1528.00 1700.00 L 1448.00 1700.00 L 1428.00 1701.00 L 1348.00 1701.00 L 1328.00 1702.00 L 1268.00 1702.00 L 1248.00 1722.00 L 1228.00 1703.00 L 1148.00 1703.00 L 1128.00 1704.00 L 1048.00 1704.00 L 1028.00 1705.00 L 948.00 1705.00 L 928.00 1706.00 L 848.00 1706.00 L 828.00 1707.00 L 748.00 1707.00 L 728.00 1708.00 L 648.00 1708.00 L 628.00 1709.00 L 548.00 1709.00 L 528.00 1710.00 L 508.00 1710.00 L 488.00 1690.00 L 448.00 1690.00 L 428.00 1691.00 L 388.00 1691.00 L 368.00 1711.00 L 366.00 1712.10 L 366.00 1805.10 L 368.00 1804.00 L 428.00 1804.00 L 448.00 1803.00 L 508.00 1803.00 L 528.00 1802.00 L 608.00 1802.00 L 628.00 1801.00 L 688.00 1801.00 L 708.00 1800.00 L 788.00 1800.00 L 808.00 1799.00 L 868.00 1799.00 L 888.00 1798.00 L 948.00 1798.00 L 968.00 1797.00 L 1048.00 1797.00 L 1068.00 1816.00 L 1088.00 1816.00 L 1108.00 1796.00 L 1128.00 1796.00 L 1148.00 1795.00 L 1228.00 1795.00 L 1248.00 1794.00 L 1308.00 1794.00 L 1328.00 1793.00 L 1388.00 1793.00 L 1408.00 1792.00 L 1488.00 1792.00 L 1508.00 1791.00 L 1568.00 1791.00 L 1588.00 1790.00 L 1668.00 1790.00 L 1688.00 1789.00 L 1748.00 1789.00 L 1768.00 1788.00 L 1828.00 1788.00 L 1848.00 1807.00 L 1868.00 1807.00 L 1888.00 1787.00 L 1928.00 1787.00 L 1948.00 1786.00 L 2008.00 1786.00 L 2028.00 1785.00 L 2108.00 1785.00 L 2128.00 1784.00 L 2188.00 1784.00 L 2208.00 1783.00 L 2268.00 1783.00 L 2288.00 1782.00 L 2368.00 1782.00 L 2388.00 1781.00 L 2412.00 1781.00 L 2412.00 1695.00 L 2410.17 1691.00 L 2348.00 1691.00 L 2328.00 1692.00 L 2248.00 1692.00 L 2228.00 1693.00 L 2148.00 1693.00 L 2128.00 1694.00 L 2048.00 1694.00 L 2028.00 1695.00 L 1948.00 1695.00 L 1928.00 1676.00 Z" />
<path id="csg562-037-10" fill="none" stroke="black" stroke-width="1" d="M 2388.00 1781.00 L 2368.00 1782.00 L 2288.00 1782.00 L 2268.00 1783.00 L 2208.00 1783.00 L 2188.00 1784.00 L 2128.00 1784.00 L 2108.00 1785.00 L 2028.00 1785.00 L 2008.00 1786.00 L 1948.00 1786.00 L 1928.00 1787.00 L 1888.00 1787.00 L 1868.00 1807.00 L 1848.00 1807.00 L 1828.00 1788.00 L 1768.00 1788.00 L 1748.00 1789.00 L 1688.00 1789.00 L 1668.00 1790.00 L 1588.00 1790.00 L 1568.00 1791.00 L 1508.00 1791.00 L 1488.00 1792.00 L 1408.00 1792.00 L 1388.00 1793.00 L 1328.00 1793.00 L 1308.00 1794.00 L 1248.00 1794.00 L 1228.00 1795.00 L 1148.00 1795.00 L 1128.00 1796.00 L 1108.00 1796.00 L 1088.00 1816.00 L 1068.00 1816.00 L 1048.00 1797.00 L 968.00 1797.00 L 948.00 1798.00 L 888.00 1798.00 L 868.00 1799.00 L 808.00 1799.00 L 788.00 1800.00 L 708.00 1800.00 L 688.00 1801.00 L 628.00 1801.00 L 608.00 1802.00 L 528.00 1802.00 L 508.00 1803.00 L 448.00 1803.00 L 428.00 1804.00 L 368.00 1804.00 L 366.00 1805.10 L 366.00 1917.10 L 368.00 1916.00 L 388.00 1936.00 L 408.00 1936.00 L 428.00 1916.00 L 448.00 1915.00 L 528.00 1915.00 L 548.00 1914.00 L 628.00 1914.00 L 648.00 1913.00 L 728.00 1913.00 L 748.00 1912.00 L 788.00 1912.00 L 808.00 1952.00 L 828.00 1912.00 L 848.00 1911.00 L 928.00 1911.00 L 948.00 1910.00 L 1028.00 1910.00 L 1048.00 1909.00 L 1128.00 1909.00 L 1148.00 1908.00 L 1228.00 1908.00 L 1248.00 1907.00 L 1328.00 1907.00 L 1348.00 1926.00 L 1368.00 1926.00 L 1388.00 1906.00 L 1428.00 1906.00 L 1448.00 1905.00 L 1528.00 1905.00 L 1548.00 1904.00 L 1588.00 1904.00 L 1608.00 1924.00 L 1628.00 1904.00 L 1648.00 1903.00 L 1728.00 1903.00 L 1748.00 1902.00 L 1828.00 1902.00 L 1848.00 1901.00 L 1928.00 1901.00 L 1948.00 1900.00 L 2028.00 1900.00 L 2048.00 1919.00 L 2068.00 1919.00 L 2088.00 1899.00 L 2108.00 1899.00 L 2128.00 1919.00 L 2148.00 1918.00 L 2168.00 1898.00 L 2228.00 1898.00 L 2248.00 1897.00 L 2328.00 1897.00 L 2348.00 1896.00 L 2428.00 1896.00 L 2448.00 1895.00 L 2528.00 1895.00 L 2548.00 1894.00 L 2568.00 1914.00 L 2588.00 1914.00 L 2608.00 1894.00 L 2619.00 1894.00 L 2619.00 1848.00 L 2412.00 1815.00 L 2412.00 1781.00 Z" />
<path id="csg562-037-11" fill="none" stroke="black" stroke-width="1" d="M 2548.00 1894.00 L 2528.00 1895.00 L 2448.00 1895.00 L 2428.00 1896.00 L 2348.00 1896.00 L 2328.00 1897.00 L 2248.00 1897.00 L 2228.00 1898.00 L 2168.00 1898.00 L 2148.00 1918.00 L 2128.00 1919.00 L 2108.00 1899.00 L 2088.00 1899.00 L 2068.00 1919.00 L 2048.00 1919.00 L 2028.00 1900.00 L 1948.00 1900.00 L 1928.00 1901.00 L 1848.00 1901.00 L 1828.00 1902.00 L 1748.00 1902.00 L 1728.00 1903.00 L 1648.00 1903.00 L 1628.00 1904.00 L 1608.00 1924.00 L 1588.00 1904.00 L 1548.00 1904.00 L 1528.00 1905.00 L 1448.00 1905.00 L 1428.00 1906.00 L 1388.00 1906.00 L 1368.00 1926.00 L 1348.00 1926.00 L 1328.00 1907.00 L 1248.00 1907.00 L 1228.00 1908.00 L 1148.00 1908.00 L 1128.00 1909.00 L 1048.00 1909.00 L 1028.00 1910.00 L 948.00 1910.00 L 928.00 1911.00 L 848.00 1911.00 L 828.00 1912.00 L 808.00 1952.00 L 788.00 1912.00 L 748.00 1912.00 L 728.00 1913.00 L 648.00 1913.00 L 628.00 1914.00 L 548.00 1914.00 L 528.00 1915.00 L 448.00 1915.00 L 428.00 1916.00 L 408.00 1936.00 L 388.00 1936.00 L 368.00 1916.00 L 366.00 1917.10 L 366.00 1983.00 L 369.11 2034.00 L 448.00 2034.00 L 468.00 2054.00 L 488.00 2034.00 L 508.00 2033.00 L 628.00 2033.00 L 648.00 2032.00 L 768.00 2032.00 L 788.00 2031.00 L 908.00 2031.00 L 928.00 2030.00 L 1048.00 2030.00 L 1068.00 2029.00 L 1208.00 2029.00 L 1228.00 2028.00 L 1348.00 2028.00 L 1368.00 2027.00 L 1488.00 2027.00 L 1508.00 2026.00 L 1628.00 2026.00 L 1648.00 2025.00 L 1768.00 2025.00 L 1788.00 2024.00 L 1928.00 2024.00 L 1948.00 2023.00 L 2068.00 2023.00 L 2088.00 2022.00 L 2208.00 2022.00 L 2228.00 2021.00 L 2348.00 2021.00 L 2368.00 2020.00 L 2480.70 2020.00 L 2457.00 1941.00 L 2619.00 1911.00 L 2619.00 1894.00 L 2608.00 1894.00 L 2588.00 1914.00 L 2568.00 1914.00 L 2548.00 1894.00 Z" />
<path id="csg562-037-12" fill="none" stroke="black" stroke-width="1" d="M 2368.00 2020.00 L 2348.00 2021.00 L 2228.00 2021.00 L 2208.00 2022.00 L 2088.00 2022.00 L 2068.00 2023.00 L 1948.00 2023.00 L 1928.00 2024.00 L 1788.00 2024.00 L 1768.00 2025.00 L 1648.00 2025.00 L 1628.00 2026.00 L 1508.00 2026.00 L 1488.00 2027.00 L 1368.00 2027.00 L 1348.00 2028.00 L 1228.00 2028.00 L 1208.00 2029.00 L 1068.00 2029.00 L 1048.00 2030.00 L 928.00 2030.00 L 908.00 2031.00 L 788.00 2031.00 L 768.00 2032.00 L 648.00 2032.00 L 628.00 2033.00 L 508.00 2033.00 L 488.00 2034.00 L 468.00 2054.00 L 448.00 2034.00 L 369.11 2034.00 L 375.77 2143.00 L 428.00 2143.00 L 448.00 2142.00 L 508.00 2142.00 L 528.00 2141.00 L 608.00 2141.00 L 628.00 2140.00 L 688.00 2140.00 L 708.00 2139.00 L 768.00 2139.00 L 788.00 2138.00 L 868.00 2138.00 L 888.00 2137.00 L 948.00 2137.00 L 968.00 2136.00 L 1028.00 2136.00 L 1048.00 2135.00 L 1128.00 2135.00 L 1148.00 2134.00 L 1208.00 2134.00 L 1228.00 2133.00 L 1288.00 2133.00 L 1308.00 2132.00 L 1388.00 2132.00 L 1408.00 2131.00 L 1468.00 2131.00 L 1488.00 2130.00 L 1548.00 2130.00 L 1568.00 2129.00 L 1648.00 2129.00 L 1668.00 2128.00 L 1688.00 2148.00 L 1708.00 2148.00 L 1728.00 2128.00 L 1748.00 2127.00 L 1808.00 2127.00 L 1828.00 2126.00 L 1908.00 2126.00 L 1928.00 2125.00 L 1988.00 2125.00 L 2008.00 2124.00 L 2028.00 2144.00 L 2048.00 2144.00 L 2068.00 2124.00 L 2088.00 2123.00 L 2168.00 2123.00 L 2188.00 2122.00 L 2248.00 2122.00 L 2268.00 2121.00 L 2328.00 2121.00 L 2348.00 2120.00 L 2388.00 2120.00 L 2408.00 2140.00 L 2428.00 2120.00 L 2448.00 2119.00 L 2508.00 2119.00 L 2510.36 2118.88 L 2480.70 2020.00 Z" />
<path id="csg562-037-13" fill="none" stroke="black" stroke-width="1" d="M 2510.36 2118.88 L 2508.00 2119.00 L 2448.00 2119.00 L 2428.00 2120.00 L 2408.00 2140.00 L 2388.00 2120.00 L 2348.00 2120.00 L 2328.00 2121.00 L 2268.00 2121.00 L 2248.00 2122.00 L 2188.00 2122.00 L 2168.00 2123.00 L 2088.00 2123.00 L 2068.00 2124.00 L 2048.00 2144.00 L 2028.00 2144.00 L 2008.00 2124.00 L 1988.00 2125.00 L 1928.00 2125.00 L 1908.00 2126.00 L 1828.00 2126.00 L 1808.00 2127.00 L 1748.00 2127.00 L 1728.00 2128.00 L 1708.00 2148.00 L 1688.00 2148.00 L 1668.00 2128.00 L 1648.00 2129.00 L 1568.00 2129.00 L 1548.00 2130.00 L 1488.00 2130.00 L 1468.00 2131.00 L 1408.00 2131.00 L 1388.00 2132.00 L 1308.00 2132.00 L 1288.00 2133.00 L 1228.00 2133.00 L 1208.00 2134.00 L 1148.00 2134.00 L 1128.00 2135.00 L 1048.00 2135.00 L 1028.00 2136.00 L 968.00 2136.00 L 948.00 2137.00 L 888.00 2137.00 L 868.00 2138.00 L 788.00 2138.00 L 768.00 2139.00 L 708.00 2139.00 L 688.00 2140.00 L 628.00 2140.00 L 608.00 2141.00 L 528.00 2141.00 L 508.00 2142.00 L 448.00 2142.00 L 428.00 2143.00 L 375.77 2143.00 L 383.04 2262.00 L 428.00 2262.00 L 448.00 2261.00 L 528.00 2261.00 L 548.00 2257.00 L 568.00 2239.00 L 588.00 2231.00 L 608.00 2231.00 L 628.00 2243.00 L 648.00 2243.00 L 668.00 2237.00 L 688.00 2235.00 L 708.00 2259.00 L 728.00 2259.00 L 748.00 2258.00 L 828.00 2258.00 L 848.00 2257.00 L 928.00 2257.00 L 948.00 2256.00 L 1028.00 2256.00 L 1048.00 2255.00 L 1128.00 2255.00 L 1148.00 2254.00 L 1228.00 2254.00 L 1248.00 2253.00 L 1328.00 2253.00 L 1348.00 2252.00 L 1408.00 2252.00 L 1428.00 2251.00 L 1508.00 2251.00 L 1528.00 2250.00 L 1608.00 2250.00 L 1628.00 2249.00 L 1708.00 2249.00 L 1728.00 2248.00 L 1808.00 2248.00 L 1828.00 2247.00 L 1908.00 2247.00 L 1928.00 2246.00 L 2008.00 2246.00 L 2028.00 2245.00 L 2108.00 2245.00 L 2128.00 2244.00 L 2208.00 2244.00 L 2228.00 2243.00 L 2308.00 2243.00 L 2328.00 2242.00 L 2408.00 2242.00 L 2428.00 2241.00 L 2488.00 2241.00 L 2508.00 2240.00 L 2516.01 2240.00 L 2529.00 2181.00 L 2510.36 2118.88 Z" />
<path id="csg562-037-14" fill="none" stroke="black" stroke-width="1" d="M 588.00 2231.00 L 568.00 2239.00 L 548.00 2257.00 L 528.00 2261.00 L 448.00 2261.00 L 428.00 2262.00 L 383.04 2262.00 L 390.00 2376.00 L 688.00 2376.00 L 708.00 2375.00 L 1048.00 2375.00 L 1068.00 2374.00 L 1388.00 2374.00 L 1408.00 2373.00 L 1748.00 2373.00 L 1768.00 2372.00 L 2088.00 2372.00 L 2108.00 2371.00 L 2448.00 2371.00 L 2468.00 2370.00 L 2487.40 2370.00 L 2516.01 2240.00 L 2508.00 2240.00 L 2488.00 2241.00 L 2428.00 2241.00 L 2408.00 2242.00 L 2328.00 2242.00 L 2308.00 2243.00 L 2228.00 2243.00 L 2208.00 2244.00 L 2128.00 2244.00 L 2108.00 2245.00 L 2028.00 2245.00 L 2008.00 2246.00 L 1928.00 2246.00 L 1908.00 2247.00 L 1828.00 2247.00 L 1808.00 2248.00 L 1728.00 2248.00 L 1708.00 2249.00 L 1628.00 2249.00 L 1608.00 2250.00 L 1528.00 2250.00 L 1508.00 2251.00 L 1428.00 2251.00 L 1408.00 2252.00 L 1348.00 2252.00 L 1328.00 2253.00 L 1248.00 2253.00 L 1228.00 2254.00 L 1148.00 2254.00 L 1128.00 2255.00 L 1048.00 2255.00 L 1028.00 2256.00 L 948.00 2256.00 L 928.00 2257.00 L 848.00 2257.00 L 828.00 2258.00 L 748.00 2258.00 L 728.00 2259.00 L 708.00 2259.00 L 688.00 2235.00 L 668.00 2237.00 L 648.00 2243.00 L 628.00 2243.00 L 608.00 2231.00 Z" />
<path id="csg562-037-15" fill="none" stroke="black" stroke-width="1" d="M 2468.00 2370.00 L 2448.00 2371.00 L 2108.00 2371.00 L 2088.00 2372.00 L 1768.00 2372.00 L 1748.00 2373.00 L 1408.00 2373.00 L 1388.00 2374.00 L 1068.00 2374.00 L 1048.00 2375.00 L 708.00 2375.00 L 688.00 2376.00 L 390.00 2376.00 L 348.00 2445.00 L 350.89 2492.41 L 368.00 2483.00 L 728.00 2483.00 L 748.00 2503.00 L 768.00 2483.00 L 2268.00 2483.00 L 2288.00 2482.00 L 2462.74 2482.00 L 2487.40 2370.00 Z" />
<path id="csg562-037-16" fill="none" stroke="black" stroke-width="1" d="M 2288.00 2482.00 L 2268.00 2483.00 L 768.00 2483.00 L 748.00 2503.00 L 728.00 2483.00 L 368.00 2483.00 L 350.89 2492.41 L 356.97 2592.07 L 368.00 2586.00 L 928.00 2586.00 L 948.00 2585.00 L 1528.00 2585.00 L 1548.00 2584.00 L 2028.00 2584.00 L 2048.00 2604.00 L 2068.00 2584.00 L 2128.00 2584.00 L 2148.00 2583.00 L 2440.51 2583.00 L 2462.74 2482.00 Z" />
<path id="csg562-037-17" fill="none" stroke="black" stroke-width="1" d="M 2148.00 2583.00 L 2128.00 2584.00 L 2068.00 2584.00 L 2048.00 2604.00 L 2028.00 2584.00 L 1548.00 2584.00 L 1528.00 2585.00 L 948.00 2585.00 L 928.00 2586.00 L 368.00 2586.00 L 356.97 2592.07 L 363.69 2702.37 L 368.00 2700.00 L 608.00 2700.00 L 628.00 2699.00 L 888.00 2699.00 L 908.00 2698.00 L 1168.00 2698.00 L 1188.00 2697.00 L 1448.00 2697.00 L 1468.00 2696.00 L 1528.00 2696.00 L 1548.00 2716.00 L 1568.00 2696.00 L 1728.00 2696.00 L 1748.00 2695.00 L 1988.00 2695.00 L 2008.00 2694.00 L 2268.00 2694.00 L 2288.00 2693.00 L 2386.94 2693.00 L 2424.00 2658.00 L 2440.51 2583.00 Z" />
<path id="csg562-037-18" fill="none" stroke="black" stroke-width="1" d="M 2288.00 2693.00 L 2268.00 2694.00 L 2008.00 2694.00 L 1988.00 2695.00 L 1748.00 2695.00 L 1728.00 2696.00 L 1568.00 2696.00 L 1548.00 2716.00 L 1528.00 2696.00 L 1468.00 2696.00 L 1448.00 2697.00 L 1188.00 2697.00 L 1168.00 2698.00 L 908.00 2698.00 L 888.00 2699.00 L 628.00 2699.00 L 608.00 2700.00 L 368.00 2700.00 L 363.69 2702.37 L 370.01 2806.00 L 488.00 2806.00 L 508.00 2805.00 L 628.00 2805.00 L 648.00 2804.00 L 668.00 2804.00 L 688.00 2824.00 L 708.00 2804.00 L 788.00 2804.00 L 808.00 2803.00 L 928.00 2803.00 L 948.00 2802.00 L 1008.00 2802.00 L 1028.00 2822.00 L 1048.00 2802.00 L 1088.00 2802.00 L 1108.00 2801.00 L 1228.00 2801.00 L 1248.00 2800.00 L 1388.00 2800.00 L 1408.00 2799.00 L 1528.00 2799.00 L 1548.00 2798.00 L 1688.00 2798.00 L 1708.00 2797.00 L 1828.00 2797.00 L 1848.00 2796.00 L 1988.00 2796.00 L 2008.00 2795.00 L 2128.00 2795.00 L 2148.00 2794.00 L 2288.00 2794.00 L 2308.00 2793.00 L 2392.08 2793.00 L 2370.00 2709.00 L 2386.94 2693.00 Z" />
<path id="csg562-037-19" fill="none" stroke="black" stroke-width="1" d="M 2308.00 2793.00 L 2288.00 2794.00 L 2148.00 2794.00 L 2128.00 2795.00 L 2008.00 2795.00 L 1988.00 2796.00 L 1848.00 2796.00 L 1828.00 2797.00 L 1708.00 2797.00 L 1688.00 2798.00 L 1548.00 2798.00 L 1528.00 2799.00 L 1408.00 2799.00 L 1388.00 2800.00 L 1248.00 2800.00 L 1228.00 2801.00 L 1108.00 2801.00 L 1088.00 2802.00 L 1048.00 2802.00 L 1028.00 2822.00 L 1008.00 2802.00 L 948.00 2802.00 L 928.00 2803.00 L 808.00 2803.00 L 788.00 2804.00 L 708.00 2804.00 L 688.00 2824.00 L 668.00 2804.00 L 648.00 2804.00 L 628.00 2805.00 L 508.00 2805.00 L 488.00 2806.00 L 370.01 2806.00 L 376.96 2920.00 L 628.00 2920.00 L 648.00 2919.00 L 928.00 2919.00 L 948.00 2918.00 L 1228.00 2918.00 L 1248.00 2917.00 L 1528.00 2917.00 L 1548.00 2916.00 L 1828.00 2916.00 L 1848.00 2915.00 L 2128.00 2915.00 L 2148.00 2914.00 L 2408.00 2914.00 L 2423.67 2913.22 L 2392.08 2793.00 Z" />
<path id="csg562-037-20" fill="none" stroke="black" stroke-width="1" d="M 2423.67 2913.22 L 2408.00 2914.00 L 2148.00 2914.00 L 2128.00 2915.00 L 1848.00 2915.00 L 1828.00 2916.00 L 1548.00 2916.00 L 1528.00 2917.00 L 1248.00 2917.00 L 1228.00 2918.00 L 948.00 2918.00 L 928.00 2919.00 L 648.00 2919.00 L 628.00 2920.00 L 376.96 2920.00 L 378.00 2937.00 L 351.00 2988.00 L 354.16 3038.61 L 368.00 3031.00 L 848.00 3031.00 L 868.00 3030.00 L 1368.00 3030.00 L 1388.00 3029.00 L 1888.00 3029.00 L 1908.00 3028.00 L 2388.00 3028.00 L 2408.00 3027.00 L 2453.58 3027.00 L 2423.67 2913.22 Z" />
<path id="csg562-037-21" fill="none" stroke="black" stroke-width="1" d="M 2408.00 3027.00 L 2388.00 3028.00 L 1908.00 3028.00 L 1888.00 3029.00 L 1388.00 3029.00 L 1368.00 3030.00 L 868.00 3030.00 L 848.00 3031.00 L 368.00 3031.00 L 354.16 3038.61 L 360.63 3142.05 L 368.00 3138.00 L 648.00 3138.00 L 668.00 3137.00 L 968.00 3137.00 L 988.00 3136.00 L 1268.00 3136.00 L 1288.00 3135.00 L 1368.00 3135.00 L 1388.00 3155.00 L 1408.00 3155.00 L 1428.00 3135.00 L 1588.00 3135.00 L 1608.00 3134.00 L 1708.00 3134.00 L 1728.00 3154.00 L 1748.00 3154.00 L 1768.00 3134.00 L 1888.00 3134.00 L 1908.00 3133.00 L 2068.00 3133.00 L 2088.00 3153.00 L 2108.00 3133.00 L 2208.00 3133.00 L 2228.00 3132.00 L 2481.17 3132.00 L 2453.58 3027.00 Z" />
<path id="csg562-037-22" fill="none" stroke="black" stroke-width="1" d="M 1348.00 3131.00 L 1328.00 3132.00 L 1248.00 3132.00 L 1228.00 3152.00 L 1028.00 3152.00 L 1008.00 3153.00 L 688.00 3153.00 L 668.00 3154.00 L 368.00 3154.00 L 361.60 3157.52 L 367.94 3259.03 L 368.00 3259.00 L 548.00 3259.00 L 568.00 3258.00 L 748.00 3258.00 L 768.00 3257.00 L 968.00 3257.00 L 988.00 3256.00 L 1168.00 3256.00 L 1188.00 3255.00 L 1368.00 3255.00 L 1388.00 3254.00 L 1588.00 3254.00 L 1608.00 3253.00 L 1788.00 3253.00 L 1808.00 3252.00 L 2008.00 3252.00 L 2028.00 3251.00 L 2208.00 3251.00 L 2228.00 3250.00 L 2248.00 3270.00 L 2268.00 3250.00 L 2408.00 3250.00 L 2428.00 3249.00 L 2499.45 3249.00 L 2493.00 3177.00 L 2485.38 3148.00 L 2348.00 3148.00 L 2328.00 3149.00 L 2008.00 3149.00 L 1988.00 3150.00 L 1688.00 3150.00 L 1668.00 3151.00 L 1368.00 3151.00 L 1348.00 3131.00 Z" />
<path id="csg562-037-23" fill="none" stroke="black" stroke-width="1" d="M 2428.00 3249.00 L 2408.00 3250.00 L 2268.00 3250.00 L 2248.00 3270.00 L 2228.00 3250.00 L 2208.00 3251.00 L 2028.00 3251.00 L 2008.00 3252.00 L 1808.00 3252.00 L 1788.00 3253.00 L 1608.00 3253.00 L 1588.00 3254.00 L 1388.00 3254.00 L 1368.00 3255.00 L 1188.00 3255.00 L 1168.00 3256.00 L 988.00 3256.00 L 968.00 3257.00 L 768.00 3257.00 L 748.00 3258.00 L 568.00 3258.00 L 548.00 3259.00 L 368.00 3259.00 L 367.94 3259.03 L 374.62 3366.00 L 428.00 3366.00 L 448.00 3365.00 L 528.00 3365.00 L 548.00 3364.00 L 628.00 3364.00 L 648.00 3363.00 L 728.00 3363.00 L 748.00 3362.00 L 828.00 3362.00 L 848.00 3361.00 L 928.00 3361.00 L 948.00 3360.00 L 1028.00 3360.00 L 1048.00 3359.00 L 1108.00 3359.00 L 1128.00 3358.00 L 1208.00 3358.00 L 1228.00 3357.00 L 1268.00 3357.00 L 1288.00 3377.00 L 1308.00 3357.00 L 1328.00 3356.00 L 1408.00 3356.00 L 1428.00 3355.00 L 1448.00 3355.00 L 1468.00 3375.00 L 1488.00 3375.00 L 1508.00 3355.00 L 1528.00 3354.00 L 1608.00 3354.00 L 1628.00 3353.00 L 1708.00 3353.00 L 1728.00 3352.00 L 1788.00 3352.00 L 1808.00 3351.00 L 1888.00 3351.00 L 1908.00 3350.00 L 1988.00 3350.00 L 2008.00 3349.00 L 2088.00 3349.00 L 2108.00 3348.00 L 2188.00 3348.00 L 2208.00 3347.00 L 2268.00 3347.00 L 2288.00 3367.00 L 2308.00 3366.00 L 2328.00 3366.00 L 2348.00 3346.00 L 2388.00 3346.00 L 2408.00 3345.00 L 2488.00 3345.00 L 2507.96 3344.00 L 2499.45 3249.00 Z" />
<path id="csg562-037-24" fill="none" stroke="black" stroke-width="1" d="M 2507.96 3344.00 L 2488.00 3345.00 L 2408.00 3345.00 L 2388.00 3346.00 L 2348.00 3346.00 L 2328.00 3366.00 L 2308.00 3366.00 L 2288.00 3367.00 L 2268.00 3347.00 L 2208.00 3347.00 L 2188.00 3348.00 L 2108.00 3348.00 L 2088.00 3349.00 L 2008.00 3349.00 L 1988.00 3350.00 L 1908.00 3350.00 L 1888.00 3351.00 L 1808.00 3351.00 L 1788.00 3352.00 L 1728.00 3352.00 L 1708.00 3353.00 L 1628.00 3353.00 L 1608.00 3354.00 L 1528.00 3354.00 L 1508.00 3355.00 L 1488.00 3375.00 L 1468.00 3375.00 L 1448.00 3355.00 L 1428.00 3355.00 L 1408.00 3356.00 L 1328.00 3356.00 L 1308.00 3357.00 L 1288.00 3377.00 L 1268.00 3357.00 L 1228.00 3357.00 L 1208.00 3358.00 L 1128.00 3358.00 L 1108.00 3359.00 L 1048.00 3359.00 L 1028.00 3360.00 L 948.00 3360.00 L 928.00 3361.00 L 848.00 3361.00 L 828.00 3362.00 L 748.00 3362.00 L 728.00 3363.00 L 648.00 3363.00 L 628.00 3364.00 L 548.00 3364.00 L 528.00 3365.00 L 448.00 3365.00 L 428.00 3366.00 L 374.62 3366.00 L 381.00 3468.00 L 428.00 3468.00 L 448.00 3467.00 L 528.00 3467.00 L 545.55 3483.67 L 570.00 3486.00 L 589.12 3484.88 L 608.00 3466.00 L 628.00 3466.00 L 648.00 3465.00 L 663.50 3480.50 L 715.56 3477.44 L 728.00 3465.00 L 748.00 3464.00 L 828.00 3464.00 L 848.00 3463.00 L 928.00 3463.00 L 948.00 3462.00 L 1028.00 3462.00 L 1048.00 3461.00 L 1128.00 3461.00 L 1148.00 3460.00 L 1228.00 3460.00 L 1248.00 3459.00 L 1328.00 3459.00 L 1348.00 3458.00 L 1428.00 3458.00 L 1448.00 3477.00 L 1488.00 3477.00 L 1508.00 3457.00 L 1528.00 3477.00 L 1551.62 3472.38 L 1568.00 3456.00 L 1628.00 3456.00 L 1648.00 3455.00 L 1728.00 3455.00 L 1748.00 3454.00 L 1828.00 3454.00 L 1848.00 3453.00 L 1928.00 3453.00 L 1948.00 3452.00 L 1988.00 3452.00 L 2008.00 3472.00 L 2028.00 3472.00 L 2048.00 3471.00 L 2068.00 3471.00 L 2088.00 3451.00 L 2128.00 3451.00 L 2148.00 3450.00 L 2228.00 3450.00 L 2248.00 3449.00 L 2328.00 3449.00 L 2348.00 3448.00 L 2368.00 3448.00 L 2388.00 3468.00 L 2408.00 3448.00 L 2428.00 3448.00 L 2445.94 3465.04 L 2450.22 3464.78 L 2468.00 3447.00 L 2498.68 3447.00 L 2511.00 3378.00 L 2507.96 3344.00 Z" />
</svg>
