<?xml version="1.0" standalone="no"?>
<!DOCTYPE svg PUBLIC "-//W3C//DTD SVG 1.1//EN" "http://www.w3.org/Graphics/SVG/1.1/DTD/svg11.dtd">
<svg width="46.22222in" height="69.333336in" viewBox="0 0 3328 4992" xmlns="http://www.w3.org/2000/svg" version="1.1">
<path id="csg562-041-01" fill="none" stroke="black" stroke-width="1" d="M 912.00 792.00 L 528.00 807.00 L 339.00 807.00 L 340.06 898.97 L 344.00 897.00 L 524.00 897.00 L 544.00 898.00 L 744.00 898.00 L 764.00 899.00 L 944.00 899.00 L 964.00 900.00 L 1164.00 900.00 L 1184.00 901.00 L 1364.00 901.00 L 1384.00 902.00 L 1584.00 902.00 L 1604.00 903.00 L 1784.00 903.00 L 1804.00 904.00 L 2004.00 904.00 L 2024.00 905.00 L 2204.00 905.00 L 2224.00 906.00 L 2424.00 906.00 L 2435.55 906.58 L 2418.00 822.00 L 1536.00 804.00 L 1053.00 816.00 L 912.00 792.00 Z" />
<path id="csg562-041-02" fill="none" stroke="black" stroke-width="1" d="M 344.00 897.00 L 340.06 898.97 L 341.44 1018.28 L 344.00 1017.00 L 784.00 1017.00 L 804.00 1018.00 L 1264.00 1018.00 L 1284.00 1019.00 L 1724.00 1019.00 L 1744.00 1020.00 L 2204.00 1020.00 L 2224.00 1021.00 L 2377.64 1021.00 L 2376.00 1017.00 L 2451.00 981.00 L 2435.55 906.58 L 2424.00 906.00 L 2224.00 906.00 L 2204.00 905.00 L 2024.00 905.00 L 2004.00 904.00 L 1804.00 904.00 L 1784.00 903.00 L 1604.00 903.00 L 1584.00 902.00 L 1384.00 902.00 L 1364.00 901.00 L 1184.00 901.00 L 1164.00 900.00 L 964.00 900.00 L 944.00 899.00 L 764.00 899.00 L 744.00 898.00 L 544.00 898.00 L 524.00 897.00 Z" />
<path id="csg562-041-03" fill="none" stroke="black" stroke-width="1" d="M 344.00 1017.00 L 341.44 1018.28 L 342.77 1132.68 L 344.00 1132.00 L 704.00 1132.00 L 724.00 1131.00 L 1084.00 1131.00 L 1104.00 1130.00 L 1464.00 1130.00 L 1484.00 1129.00 L 1844.00 1129.00 L 1864.00 1128.00 L 2224.00 1128.00 L 2244.00 1127.00 L 2421.00 1127.00 L 2377.64 1021.00 L 2224.00 1021.00 L 2204.00 1020.00 L 1744.00 1020.00 L 1724.00 1019.00 L 1284.00 1019.00 L 1264.00 1018.00 L 804.00 1018.00 L 784.00 1017.00 Z" />
<path id="csg562-041-04" fill="none" stroke="black" stroke-width="1" d="M 2244.00 1127.00 L 2224.00 1128.00 L 1864.00 1128.00 L 1844.00 1129.00 L 1484.00 1129.00 L 1464.00 1130.00 L 1104.00 1130.00 L 1084.00 1131.00 L 724.00 1131.00 L 704.00 1132.00 L 344.00 1132.00 L 342.77 1132.68 L 344.10 1248.00 L 504.00 1248.00 L 524.00 1247.00 L 704.00 1247.00 L 724.00 1246.00 L 904.00 1246.00 L 924.00 1245.00 L 1084.00 1245.00 L 1104.00 1244.00 L 1284.00 1244.00 L 1304.00 1243.00 L 1484.00 1243.00 L 1504.00 1242.00 L 1684.00 1242.00 L 1704.00 1241.00 L 1864.00 1241.00 L 1884.00 1240.00 L 2064.00 1240.00 L 2084.00 1239.00 L 2264.00 1239.00 L 2284.00 1238.00 L 2426.13 1238.00 L 2430.00 1149.00 L 2421.00 1127.00 Z" />
<path id="csg562-041-05" fill="none" stroke="black" stroke-width="1" d="M 2284.00 1238.00 L 2264.00 1239.00 L 2084.00 1239.00 L 2064.00 1240.00 L 1884.00 1240.00 L 1864.00 1241.00 L 1704.00 1241.00 L 1684.00 1242.00 L 1504.00 1242.00 L 1484.00 1243.00 L 1304.00 1243.00 L 1284.00 1244.00 L 1104.00 1244.00 L 1084.00 1245.00 L 924.00 1245.00 L 904.00 1246.00 L 724.00 1246.00 L 704.00 1247.00 L 524.00 1247.00 L 504.00 1248.00 L 344.10 1248.00 L 345.00 1326.00 L 345.34 1362.00 L 464.00 1362.00 L 484.00 1361.00 L 624.00 1361.00 L 644.00 1360.00 L 784.00 1360.00 L 804.00 1359.00 L 944.00 1359.00 L 964.00 1358.00 L 1104.00 1358.00 L 1124.00 1357.00 L 1244.00 1357.00 L 1264.00 1356.00 L 1304.00 1356.00 L 1324.00 1376.00 L 1344.00 1356.00 L 1404.00 1356.00 L 1424.00 1355.00 L 1564.00 1355.00 L 1584.00 1354.00 L 1724.00 1354.00 L 1744.00 1353.00 L 1884.00 1353.00 L 1904.00 1352.00 L 2024.00 1352.00 L 2044.00 1351.00 L 2184.00 1351.00 L 2204.00 1350.00 L 2344.00 1350.00 L 2364.00 1349.00 L 2431.82 1349.00 L 2424.00 1287.00 L 2426.13 1238.00 Z" />
<path id="csg562-041-06" fill="none" stroke="black" stroke-width="1" d="M 2364.00 1349.00 L 2344.00 1350.00 L 2204.00 1350.00 L 2184.00 1351.00 L 2044.00 1351.00 L 2024.00 1352.00 L 1904.00 1352.00 L 1884.00 1353.00 L 1744.00 1353.00 L 1724.00 1354.00 L 1584.00 1354.00 L 1564.00 1355.00 L 1424.00 1355.00 L 1404.00 1356.00 L 1344.00 1356.00 L 1324.00 1376.00 L 1304.00 1356.00 L 1264.00 1356.00 L 1244.00 1357.00 L 1124.00 1357.00 L 1104.00 1358.00 L 964.00 1358.00 L 944.00 1359.00 L 804.00 1359.00 L 784.00 1360.00 L 644.00 1360.00 L 624.00 1361.00 L 484.00 1361.00 L 464.00 1362.00 L 345.34 1362.00 L 346.34 1467.00 L 604.00 1467.00 L 624.00 1466.00 L 884.00 1466.00 L 904.00 1446.00 L 924.00 1445.00 L 944.00 1465.00 L 1204.00 1465.00 L 1224.00 1464.00 L 1504.00 1464.00 L 1524.00 1463.00 L 1804.00 1463.00 L 1824.00 1462.00 L 2084.00 1462.00 L 2104.00 1461.00 L 2384.00 1461.00 L 2404.00 1460.00 L 2445.82 1460.00 L 2431.82 1349.00 Z" />
<path id="csg562-041-07" fill="none" stroke="black" stroke-width="1" d="M 924.00 1445.00 L 904.00 1446.00 L 884.00 1466.00 L 624.00 1466.00 L 604.00 1467.00 L 346.34 1467.00 L 347.46 1586.00 L 484.00 1586.00 L 504.00 1585.00 L 644.00 1585.00 L 664.00 1584.00 L 824.00 1584.00 L 844.00 1583.00 L 984.00 1583.00 L 1004.00 1582.00 L 1164.00 1582.00 L 1184.00 1581.00 L 1324.00 1581.00 L 1344.00 1580.00 L 1484.00 1580.00 L 1504.00 1579.00 L 1664.00 1579.00 L 1684.00 1578.00 L 1824.00 1578.00 L 1844.00 1577.00 L 2004.00 1577.00 L 2024.00 1576.00 L 2164.00 1576.00 L 2184.00 1575.00 L 2344.00 1575.00 L 2364.00 1574.00 L 2460.20 1574.00 L 2445.82 1460.00 L 2404.00 1460.00 L 2384.00 1461.00 L 2104.00 1461.00 L 2084.00 1462.00 L 1824.00 1462.00 L 1804.00 1463.00 L 1524.00 1463.00 L 1504.00 1464.00 L 1224.00 1464.00 L 1204.00 1465.00 L 944.00 1465.00 L 924.00 1445.00 Z" />
<path id="csg562-041-08" fill="none" stroke="black" stroke-width="1" d="M 2364.00 1574.00 L 2344.00 1575.00 L 2184.00 1575.00 L 2164.00 1576.00 L 2024.00 1576.00 L 2004.00 1577.00 L 1844.00 1577.00 L 1824.00 1578.00 L 1684.00 1578.00 L 1664.00 1579.00 L 1504.00 1579.00 L 1484.00 1580.00 L 1344.00 1580.00 L 1324.00 1581.00 L 1184.00 1581.00 L 1164.00 1582.00 L 1004.00 1582.00 L 984.00 1583.00 L 844.00 1583.00 L 824.00 1584.00 L 664.00 1584.00 L 644.00 1585.00 L 504.00 1585.00 L 484.00 1586.00 L 347.46 1586.00 L 348.47 1692.00 L 504.00 1692.00 L 524.00 1691.00 L 684.00 1691.00 L 704.00 1690.00 L 884.00 1690.00 L 904.00 1689.00 L 1064.00 1689.00 L 1084.00 1688.00 L 1244.00 1688.00 L 1264.00 1687.00 L 1444.00 1687.00 L 1464.00 1686.00 L 1624.00 1686.00 L 1644.00 1685.00 L 1824.00 1685.00 L 1844.00 1684.00 L 2004.00 1684.00 L 2024.00 1683.00 L 2164.00 1683.00 L 2184.00 1703.00 L 2204.00 1682.00 L 2384.00 1682.00 L 2404.00 1681.00 L 2454.80 1681.00 L 2466.00 1620.00 L 2460.20 1574.00 Z" />
<path id="csg562-041-09" fill="none" stroke="black" stroke-width="1" d="M 2404.00 1681.00 L 2384.00 1682.00 L 2204.00 1682.00 L 2184.00 1703.00 L 2164.00 1683.00 L 2024.00 1683.00 L 2004.00 1684.00 L 1844.00 1684.00 L 1824.00 1685.00 L 1644.00 1685.00 L 1624.00 1686.00 L 1464.00 1686.00 L 1444.00 1687.00 L 1264.00 1687.00 L 1244.00 1688.00 L 1084.00 1688.00 L 1064.00 1689.00 L 904.00 1689.00 L 884.00 1690.00 L 704.00 1690.00 L 684.00 1691.00 L 524.00 1691.00 L 504.00 1692.00 L 348.47 1692.00 L 349.48 1799.00 L 504.00 1799.00 L 524.00 1798.00 L 704.00 1798.00 L 724.00 1797.00 L 884.00 1797.00 L 904.00 1816.00 L 924.00 1796.00 L 1084.00 1796.00 L 1104.00 1795.00 L 1264.00 1795.00 L 1284.00 1794.00 L 1464.00 1794.00 L 1484.00 1793.00 L 1644.00 1793.00 L 1664.00 1792.00 L 1844.00 1792.00 L 1864.00 1791.00 L 2044.00 1791.00 L 2064.00 1790.00 L 2224.00 1790.00 L 2244.00 1789.00 L 2424.00 1789.00 L 2435.06 1788.45 L 2454.80 1681.00 Z" />
<path id="csg562-041-10" fill="none" stroke="black" stroke-width="1" d="M 2435.06 1788.45 L 2424.00 1789.00 L 2244.00 1789.00 L 2224.00 1790.00 L 2064.00 1790.00 L 2044.00 1791.00 L 1864.00 1791.00 L 1844.00 1792.00 L 1664.00 1792.00 L 1644.00 1793.00 L 1484.00 1793.00 L 1464.00 1794.00 L 1284.00 1794.00 L 1264.00 1795.00 L 1104.00 1795.00 L 1084.00 1796.00 L 924.00 1796.00 L 904.00 1816.00 L 884.00 1797.00 L 724.00 1797.00 L 704.00 1798.00 L 524.00 1798.00 L 504.00 1799.00 L 349.48 1799.00 L 350.55 1911.00 L 524.00 1911.00 L 544.00 1910.00 L 744.00 1910.00 L 764.00 1909.00 L 964.00 1909.00 L 984.00 1908.00 L 1164.00 1908.00 L 1184.00 1907.00 L 1204.00 1927.00 L 1224.00 1907.00 L 1384.00 1907.00 L 1404.00 1906.00 L 1604.00 1906.00 L 1624.00 1905.00 L 1804.00 1905.00 L 1824.00 1904.00 L 2024.00 1904.00 L 2044.00 1903.00 L 2244.00 1903.00 L 2264.00 1902.00 L 2414.20 1902.00 L 2435.06 1788.45 Z" />
<path id="csg562-041-11" fill="none" stroke="black" stroke-width="1" d="M 2264.00 1902.00 L 2244.00 1903.00 L 2044.00 1903.00 L 2024.00 1904.00 L 1824.00 1904.00 L 1804.00 1905.00 L 1624.00 1905.00 L 1604.00 1906.00 L 1404.00 1906.00 L 1384.00 1907.00 L 1224.00 1907.00 L 1204.00 1927.00 L 1184.00 1907.00 L 1164.00 1908.00 L 984.00 1908.00 L 964.00 1909.00 L 764.00 1909.00 L 744.00 1910.00 L 544.00 1910.00 L 524.00 1911.00 L 350.55 1911.00 L 351.00 1959.00 L 347.46 2029.00 L 2424.03 2029.00 L 2412.00 1914.00 L 2414.20 1902.00 Z" />
<path id="csg562-041-12" fill="none" stroke="black" stroke-width="1" d="M 347.46 2029.00 L 342.10 2135.05 L 344.00 2134.00 L 804.00 2134.00 L 824.00 2133.00 L 1304.00 2133.00 L 1324.00 2132.00 L 1804.00 2132.00 L 1824.00 2131.00 L 1944.00 2131.00 L 1964.00 2151.00 L 1984.00 2131.00 L 2304.00 2131.00 L 2324.00 2130.00 L 2434.60 2130.00 L 2424.03 2029.00 Z" />
<path id="csg562-041-13" fill="none" stroke="black" stroke-width="1" d="M 2324.00 2130.00 L 2304.00 2131.00 L 1984.00 2131.00 L 1964.00 2151.00 L 1944.00 2131.00 L 1824.00 2131.00 L 1804.00 2132.00 L 1324.00 2132.00 L 1304.00 2133.00 L 824.00 2133.00 L 804.00 2134.00 L 344.00 2134.00 L 342.10 2135.05 L 336.48 2246.14 L 344.00 2242.00 L 824.00 2242.00 L 844.00 2241.00 L 1344.00 2241.00 L 1364.00 2240.00 L 1864.00 2240.00 L 1884.00 2239.00 L 2364.00 2239.00 L 2384.00 2238.00 L 2422.81 2238.00 L 2439.00 2172.00 L 2434.60 2130.00 Z" />
<path id="csg562-041-14" fill="none" stroke="black" stroke-width="1" d="M 2384.00 2238.00 L 2364.00 2239.00 L 1884.00 2239.00 L 1864.00 2240.00 L 1364.00 2240.00 L 1344.00 2241.00 L 844.00 2241.00 L 824.00 2242.00 L 344.00 2242.00 L 336.48 2246.14 L 330.29 2368.54 L 344.00 2361.00 L 504.00 2361.00 L 524.00 2360.00 L 684.00 2360.00 L 704.00 2359.00 L 884.00 2359.00 L 904.00 2358.00 L 1064.00 2358.00 L 1084.00 2357.00 L 1264.00 2357.00 L 1284.00 2356.00 L 1364.00 2356.00 L 1384.00 2376.00 L 1404.00 2356.00 L 1444.00 2356.00 L 1464.00 2355.00 L 1644.00 2355.00 L 1664.00 2354.00 L 1824.00 2354.00 L 1844.00 2353.00 L 2024.00 2353.00 L 2044.00 2352.00 L 2204.00 2352.00 L 2224.00 2351.00 L 2329.23 2351.00 L 2400.00 2331.00 L 2422.81 2238.00 Z" />
<path id="csg562-041-15" fill="none" stroke="black" stroke-width="1" d="M 2224.00 2351.00 L 2204.00 2352.00 L 2044.00 2352.00 L 2024.00 2353.00 L 1844.00 2353.00 L 1824.00 2354.00 L 1664.00 2354.00 L 1644.00 2355.00 L 1464.00 2355.00 L 1444.00 2356.00 L 1404.00 2356.00 L 1384.00 2376.00 L 1364.00 2356.00 L 1284.00 2356.00 L 1264.00 2357.00 L 1084.00 2357.00 L 1064.00 2358.00 L 904.00 2358.00 L 884.00 2359.00 L 704.00 2359.00 L 684.00 2360.00 L 524.00 2360.00 L 504.00 2361.00 L 344.00 2361.00 L 330.29 2368.54 L 324.00 2493.00 L 324.06 2493.84 L 344.00 2443.00 L 384.00 2443.00 L 404.00 2463.00 L 424.00 2483.00 L 644.00 2483.00 L 664.00 2482.00 L 984.00 2482.00 L 1004.00 2481.00 L 1324.00 2481.00 L 1344.00 2480.00 L 1664.00 2480.00 L 1684.00 2479.00 L 1982.00 2479.00 L 2040.00 2469.00 L 2217.00 2460.00 L 2262.00 2370.00 L 2329.23 2351.00 Z" />
<path id="csg562-041-16" fill="none" stroke="black" stroke-width="1" d="M 344.00 2443.00 L 324.06 2493.84 L 331.33 2588.33 L 344.00 2582.00 L 1424.00 2582.00 L 1444.00 2602.00 L 1464.00 2602.00 L 1484.00 2582.00 L 1544.00 2582.00 L 1564.00 2583.00 L 1954.67 2583.00 L 1866.00 2499.00 L 1982.00 2479.00 L 1684.00 2479.00 L 1664.00 2480.00 L 1344.00 2480.00 L 1324.00 2481.00 L 1004.00 2481.00 L 984.00 2482.00 L 664.00 2482.00 L 644.00 2483.00 L 424.00 2483.00 L 404.00 2463.00 L 384.00 2443.00 Z" />
<path id="csg562-041-17" fill="none" stroke="black" stroke-width="1" d="M 344.00 2582.00 L 331.33 2588.33 L 340.09 2702.15 L 344.00 2700.00 L 1584.00 2700.00 L 1604.00 2699.00 L 2422.24 2699.00 L 2394.00 2604.00 L 2429.54 2583.00 L 2217.27 2583.00 L 2196.00 2622.00 L 1980.00 2607.00 L 1954.67 2583.00 L 1564.00 2583.00 L 1544.00 2582.00 L 1484.00 2582.00 L 1464.00 2602.00 L 1444.00 2602.00 L 1424.00 2582.00 Z" />
<path id="csg562-041-18" fill="none" stroke="black" stroke-width="1" d="M 1604.00 2699.00 L 1584.00 2700.00 L 344.00 2700.00 L 340.09 2702.15 L 347.00 2792.00 L 2044.00 2792.00 L 2064.00 2793.00 L 2450.19 2793.00 L 2422.24 2699.00 Z" />
<path id="csg562-041-19" fill="none" stroke="black" stroke-width="1" d="M 347.00 2792.00 L 356.85 2920.00 L 944.00 2920.00 L 964.00 2921.00 L 1460.33 2921.00 L 1791.00 2913.00 L 2433.00 2916.00 L 2460.00 2826.00 L 2450.19 2793.00 L 2064.00 2793.00 L 2044.00 2792.00 Z" />
<path id="csg562-041-20" fill="none" stroke="black" stroke-width="1" d="M 356.85 2920.00 L 363.00 3000.00 L 489.00 3003.00 L 495.91 3019.00 L 764.00 3019.00 L 784.00 3020.00 L 901.64 3020.00 L 927.00 2937.00 L 1089.00 2925.00 L 1419.00 2922.00 L 1460.33 2921.00 L 964.00 2921.00 L 944.00 2920.00 Z" />
<path id="csg562-041-21" fill="none" stroke="black" stroke-width="1" d="M 495.91 3019.00 L 546.00 3135.00 L 2392.00 3135.00 L 2382.00 3060.00 L 2106.00 3027.00 L 894.00 3045.00 L 901.64 3020.00 L 784.00 3020.00 L 764.00 3019.00 Z" />
<path id="csg562-041-22" fill="none" stroke="black" stroke-width="1" d="M 546.00 3135.00 L 375.00 3216.00 L 375.00 3246.00 L 804.00 3246.00 L 824.00 3245.00 L 1304.00 3245.00 L 1324.00 3244.00 L 1804.00 3244.00 L 1824.00 3243.00 L 2304.00 3243.00 L 2324.00 3242.00 L 2406.27 3242.00 L 2392.00 3135.00 Z" />
<path id="csg562-041-23" fill="none" stroke="black" stroke-width="1" d="M 2324.00 3242.00 L 2304.00 3243.00 L 1824.00 3243.00 L 1804.00 3244.00 L 1324.00 3244.00 L 1304.00 3245.00 L 824.00 3245.00 L 804.00 3246.00 L 375.00 3246.00 L 375.00 3370.00 L 784.00 3370.00 L 804.00 3369.00 L 1244.00 3369.00 L 1264.00 3368.00 L 1604.00 3368.00 L 1624.00 3348.00 L 1664.00 3348.00 L 1684.00 3368.00 L 1704.00 3368.00 L 1724.00 3367.00 L 2164.00 3367.00 L 2184.00 3366.00 L 2422.80 3366.00 L 2406.27 3242.00 Z" />
<path id="csg562-041-24" fill="none" stroke="black" stroke-width="1" d="M 1624.00 3348.00 L 1604.00 3368.00 L 1264.00 3368.00 L 1244.00 3369.00 L 804.00 3369.00 L 784.00 3370.00 L 375.00 3370.00 L 375.00 3456.00 L 447.00 3474.00 L 777.00 3471.00 L 948.00 3477.00 L 1064.00 3477.00 L 1084.00 3476.00 L 1824.00 3476.00 L 1844.00 3475.00 L 1908.50 3475.00 L 2436.00 3465.00 L 2422.80 3366.00 L 2184.00 3366.00 L 2164.00 3367.00 L 1724.00 3367.00 L 1704.00 3368.00 L 1684.00 3368.00 L 1664.00 3348.00 Z" />
</svg>
