<?xml version="1.0" standalone="no"?>
<!DOCTYPE svg PUBLIC "-//W3C//DTD SVG 1.1//EN" "http://www.w3.org/Graphics/SVG/1.1/DTD/svg11.dtd">
<svg width="46.22222in" height="69.333336in" viewBox="0 0 3328 4992" xmlns="http://www.w3.org/2000/svg" version="1.1">
<path id="csg562-058-01" fill="none" stroke="black" stroke-width="1" d="M 2898.00 819.00 L 1620.00 834.00 L 1164.00 864.00 L 774.00 894.00 L 773.54 972.60 L 791.00 963.00 L 811.00 962.00 L 831.00 961.00 L 851.00 961.00 L 871.00 960.00 L 891.00 959.00 L 911.00 958.00 L 931.00 958.00 L 951.00 957.00 L 971.00 956.00 L 991.00 956.00 L 1011.00 955.00 L 1031.00 954.00 L 1051.00 953.00 L 1071.00 953.00 L 1091.00 952.00 L 1111.00 951.00 L 1131.00 951.00 L 1151.00 950.00 L 1171.00 949.00 L 1191.00 948.00 L 1211.00 948.00 L 1231.00 947.00 L 1251.00 946.00 L 1271.00 946.00 L 1291.00 945.00 L 1311.00 944.00 L 1331.00 943.00 L 1351.00 943.00 L 1371.00 942.00 L 1391.00 941.00 L 1411.00 941.00 L 1431.00 940.00 L 1451.00 939.00 L 1471.00 938.00 L 1491.00 938.00 L 1511.00 937.00 L 1531.00 936.00 L 1551.00 936.00 L 1571.00 935.00 L 1591.00 934.00 L 1611.00 933.00 L 1631.00 933.00 L 1651.00 952.00 L 1671.00 951.00 L 1691.00 970.00 L 1711.00 970.00 L 1731.00 949.00 L 1751.00 928.00 L 1771.00 928.00 L 1791.00 927.00 L 1811.00 926.00 L 1831.00 925.00 L 1851.00 925.00 L 1871.00 924.00 L 1891.00 923.00 L 1911.00 923.00 L 1931.00 922.00 L 1951.00 941.00 L 1971.00 920.00 L 1991.00 940.00 L 2011.00 939.00 L 2031.00 938.00 L 2051.00 918.00 L 2071.00 917.00 L 2091.00 916.00 L 2111.00 915.00 L 2131.00 915.00 L 2151.00 914.00 L 2171.00 913.00 L 2191.00 913.00 L 2211.00 912.00 L 2231.00 931.00 L 2251.00 930.00 L 2271.00 910.00 L 2291.00 929.00 L 2311.00 948.00 L 2331.00 928.00 L 2351.00 927.00 L 2371.00 946.00 L 2391.00 905.00 L 2411.00 905.00 L 2431.00 924.00 L 2451.00 903.00 L 2471.00 902.00 L 2491.00 922.00 L 2511.00 921.00 L 2531.00 940.00 L 2551.00 920.00 L 2571.00 919.00 L 2591.00 918.00 L 2611.00 917.00 L 2631.00 897.00 L 2651.00 896.00 L 2671.00 915.00 L 2691.00 915.00 L 2711.00 914.00 L 2731.00 913.00 L 2751.00 912.00 L 2771.00 932.00 L 2791.00 931.00 L 2811.00 910.00 L 2831.00 910.00 L 2851.00 909.00 L 2871.00 908.00 L 2891.00 887.00 L 2911.00 887.00 L 2921.74 886.46 L 2898.00 819.00 Z" />
<path id="csg562-058-02" fill="none" stroke="black" stroke-width="1" d="M 2921.74 886.46 L 2911.00 887.00 L 2891.00 887.00 L 2871.00 908.00 L 2851.00 909.00 L 2831.00 910.00 L 2811.00 910.00 L 2791.00 931.00 L 2771.00 932.00 L 2751.00 912.00 L 2731.00 913.00 L 2711.00 914.00 L 2691.00 915.00 L 2671.00 915.00 L 2651.00 896.00 L 2631.00 897.00 L 2611.00 917.00 L 2591.00 918.00 L 2571.00 919.00 L 2551.00 920.00 L 2531.00 940.00 L 2511.00 921.00 L 2491.00 922.00 L 2471.00 902.00 L 2451.00 903.00 L 2431.00 924.00 L 2411.00 905.00 L 2391.00 905.00 L 2371.00 946.00 L 2351.00 927.00 L 2331.00 928.00 L 2311.00 948.00 L 2291.00 929.00 L 2271.00 910.00 L 2251.00 930.00 L 2231.00 931.00 L 2211.00 912.00 L 2191.00 913.00 L 2171.00 913.00 L 2151.00 914.00 L 2131.00 915.00 L 2111.00 915.00 L 2091.00 916.00 L 2071.00 917.00 L 2051.00 918.00 L 2031.00 938.00 L 2011.00 939.00 L 1991.00 940.00 L 1971.00 920.00 L 1951.00 941.00 L 1931.00 922.00 L 1911.00 923.00 L 1891.00 923.00 L 1871.00 924.00 L 1851.00 925.00 L 1831.00 925.00 L 1811.00 926.00 L 1791.00 927.00 L 1771.00 928.00 L 1751.00 928.00 L 1731.00 949.00 L 1711.00 970.00 L 1691.00 970.00 L 1671.00 951.00 L 1651.00 952.00 L 1631.00 933.00 L 1611.00 933.00 L 1591.00 934.00 L 1571.00 935.00 L 1551.00 936.00 L 1531.00 936.00 L 1511.00 937.00 L 1491.00 938.00 L 1471.00 938.00 L 1451.00 939.00 L 1431.00 940.00 L 1411.00 941.00 L 1391.00 941.00 L 1371.00 942.00 L 1351.00 943.00 L 1331.00 943.00 L 1311.00 944.00 L 1291.00 945.00 L 1271.00 946.00 L 1251.00 946.00 L 1231.00 947.00 L 1211.00 948.00 L 1191.00 948.00 L 1171.00 949.00 L 1151.00 950.00 L 1131.00 951.00 L 1111.00 951.00 L 1091.00 952.00 L 1071.00 953.00 L 1051.00 953.00 L 1031.00 954.00 L 1011.00 955.00 L 991.00 956.00 L 971.00 956.00 L 951.00 957.00 L 931.00 958.00 L 911.00 958.00 L 891.00 959.00 L 871.00 960.00 L 851.00 961.00 L 831.00 961.00 L 811.00 962.00 L 791.00 963.00 L 773.54 972.60 L 772.87 1085.97 L 791.00 1076.00 L 811.00 1075.00 L 831.00 1075.00 L 851.00 1074.00 L 871.00 1073.00 L 891.00 1073.00 L 911.00 1072.00 L 931.00 1071.00 L 951.00 1071.00 L 971.00 1070.00 L 991.00 1070.00 L 1011.00 1069.00 L 1031.00 1068.00 L 1051.00 1068.00 L 1071.00 1067.00 L 1091.00 1066.00 L 1111.00 1066.00 L 1131.00 1065.00 L 1151.00 1064.00 L 1171.00 1064.00 L 1191.00 1063.00 L 1211.00 1063.00 L 1231.00 1062.00 L 1251.00 1061.00 L 1271.00 1061.00 L 1291.00 1060.00 L 1311.00 1059.00 L 1331.00 1059.00 L 1351.00 1058.00 L 1371.00 1058.00 L 1391.00 1057.00 L 1411.00 1056.00 L 1431.00 1056.00 L 1451.00 1055.00 L 1471.00 1054.00 L 1491.00 1054.00 L 1511.00 1053.00 L 1531.00 1052.00 L 1551.00 1052.00 L 1571.00 1051.00 L 1591.00 1051.00 L 1611.00 1050.00 L 1631.00 1049.00 L 1651.00 1049.00 L 1671.00 1048.00 L 1691.00 1047.00 L 1711.00 1047.00 L 1731.00 1046.00 L 1751.00 1046.00 L 1771.00 1045.00 L 1791.00 1044.00 L 1811.00 1044.00 L 1831.00 1043.00 L 1851.00 1042.00 L 1871.00 1042.00 L 1891.00 1041.00 L 1911.00 1040.00 L 1931.00 1040.00 L 1951.00 1039.00 L 1971.00 1039.00 L 1991.00 1038.00 L 2011.00 1037.00 L 2031.00 1037.00 L 2051.00 1036.00 L 2071.00 1035.00 L 2091.00 1035.00 L 2111.00 1054.00 L 2131.00 1034.00 L 2151.00 1033.00 L 2171.00 1032.00 L 2191.00 1032.00 L 2211.00 1031.00 L 2231.00 1030.00 L 2251.00 1030.00 L 2271.00 1029.00 L 2291.00 1028.00 L 2311.00 1028.00 L 2331.00 1027.00 L 2351.00 1027.00 L 2371.00 1026.00 L 2391.00 1025.00 L 2411.00 1045.00 L 2431.00 1044.00 L 2451.00 1023.00 L 2471.00 1023.00 L 2491.00 1022.00 L 2511.00 1022.00 L 2531.00 1021.00 L 2551.00 1020.00 L 2571.00 1020.00 L 2591.00 1019.00 L 2611.00 1018.00 L 2631.00 1018.00 L 2651.00 1017.00 L 2671.00 1016.00 L 2691.00 1016.00 L 2711.00 1015.00 L 2731.00 1015.00 L 2751.00 1014.00 L 2771.00 1033.00 L 2791.00 1053.00 L 2811.00 1052.00 L 2831.00 1011.00 L 2851.00 1011.00 L 2871.00 1010.00 L 2891.00 1010.00 L 2910.41 1009.03 L 2955.00 981.00 L 2921.74 886.46 Z" />
<path id="csg562-058-03" fill="none" stroke="black" stroke-width="1" d="M 2910.41 1009.03 L 2891.00 1010.00 L 2871.00 1010.00 L 2851.00 1011.00 L 2831.00 1011.00 L 2811.00 1052.00 L 2791.00 1053.00 L 2771.00 1033.00 L 2751.00 1014.00 L 2731.00 1015.00 L 2711.00 1015.00 L 2691.00 1016.00 L 2671.00 1016.00 L 2651.00 1017.00 L 2631.00 1018.00 L 2611.00 1018.00 L 2591.00 1019.00 L 2571.00 1020.00 L 2551.00 1020.00 L 2531.00 1021.00 L 2511.00 1022.00 L 2491.00 1022.00 L 2471.00 1023.00 L 2451.00 1023.00 L 2431.00 1044.00 L 2411.00 1045.00 L 2391.00 1025.00 L 2371.00 1026.00 L 2351.00 1027.00 L 2331.00 1027.00 L 2311.00 1028.00 L 2291.00 1028.00 L 2271.00 1029.00 L 2251.00 1030.00 L 2231.00 1030.00 L 2211.00 1031.00 L 2191.00 1032.00 L 2171.00 1032.00 L 2151.00 1033.00 L 2131.00 1034.00 L 2111.00 1054.00 L 2091.00 1035.00 L 2071.00 1035.00 L 2051.00 1036.00 L 2031.00 1037.00 L 2011.00 1037.00 L 1991.00 1038.00 L 1971.00 1039.00 L 1951.00 1039.00 L 1931.00 1040.00 L 1911.00 1040.00 L 1891.00 1041.00 L 1871.00 1042.00 L 1851.00 1042.00 L 1831.00 1043.00 L 1811.00 1044.00 L 1791.00 1044.00 L 1771.00 1045.00 L 1751.00 1046.00 L 1731.00 1046.00 L 1711.00 1047.00 L 1691.00 1047.00 L 1671.00 1048.00 L 1651.00 1049.00 L 1631.00 1049.00 L 1611.00 1050.00 L 1591.00 1051.00 L 1571.00 1051.00 L 1551.00 1052.00 L 1531.00 1052.00 L 1511.00 1053.00 L 1491.00 1054.00 L 1471.00 1054.00 L 1451.00 1055.00 L 1431.00 1056.00 L 1411.00 1056.00 L 1391.00 1057.00 L 1371.00 1058.00 L 1351.00 1058.00 L 1331.00 1059.00 L 1311.00 1059.00 L 1291.00 1060.00 L 1271.00 1061.00 L 1251.00 1061.00 L 1231.00 1062.00 L 1211.00 1063.00 L 1191.00 1063.00 L 1171.00 1064.00 L 1151.00 1064.00 L 1131.00 1065.00 L 1111.00 1066.00 L 1091.00 1066.00 L 1071.00 1067.00 L 1051.00 1068.00 L 1031.00 1068.00 L 1011.00 1069.00 L 991.00 1070.00 L 971.00 1070.00 L 951.00 1071.00 L 931.00 1071.00 L 911.00 1072.00 L 891.00 1073.00 L 871.00 1073.00 L 851.00 1074.00 L 831.00 1075.00 L 811.00 1075.00 L 791.00 1076.00 L 772.87 1085.97 L 772.16 1206.36 L 791.00 1196.00 L 811.00 1195.00 L 831.00 1194.00 L 851.00 1194.00 L 871.00 1193.00 L 891.00 1192.00 L 911.00 1192.00 L 931.00 1191.00 L 951.00 1190.00 L 971.00 1190.00 L 991.00 1189.00 L 1011.00 1188.00 L 1031.00 1188.00 L 1051.00 1187.00 L 1071.00 1186.00 L 1091.00 1186.00 L 1111.00 1185.00 L 1131.00 1184.00 L 1151.00 1184.00 L 1171.00 1183.00 L 1191.00 1182.00 L 1211.00 1182.00 L 1231.00 1181.00 L 1251.00 1180.00 L 1271.00 1180.00 L 1291.00 1179.00 L 1311.00 1178.00 L 1331.00 1178.00 L 1351.00 1177.00 L 1371.00 1176.00 L 1391.00 1176.00 L 1411.00 1175.00 L 1431.00 1174.00 L 1451.00 1193.00 L 1471.00 1193.00 L 1491.00 1192.00 L 1511.00 1191.00 L 1531.00 1171.00 L 1551.00 1170.00 L 1571.00 1169.00 L 1591.00 1169.00 L 1611.00 1168.00 L 1631.00 1167.00 L 1651.00 1167.00 L 1671.00 1166.00 L 1691.00 1185.00 L 1711.00 1185.00 L 1731.00 1184.00 L 1751.00 1163.00 L 1771.00 1163.00 L 1791.00 1162.00 L 1811.00 1161.00 L 1831.00 1161.00 L 1851.00 1160.00 L 1871.00 1159.00 L 1891.00 1159.00 L 1911.00 1158.00 L 1931.00 1157.00 L 1951.00 1157.00 L 1971.00 1156.00 L 1991.00 1155.00 L 2011.00 1155.00 L 2031.00 1154.00 L 2051.00 1153.00 L 2071.00 1153.00 L 2091.00 1152.00 L 2111.00 1146.00 L 2131.00 1150.00 L 2151.00 1170.00 L 2171.00 1149.00 L 2191.00 1148.00 L 2211.00 1148.00 L 2231.00 1147.00 L 2251.00 1166.00 L 2271.00 1186.00 L 2291.00 1185.00 L 2311.00 1164.00 L 2331.00 1144.00 L 2351.00 1143.00 L 2371.00 1142.00 L 2391.00 1142.00 L 2411.00 1141.00 L 2431.00 1140.00 L 2451.00 1140.00 L 2471.00 1159.00 L 2491.00 1138.00 L 2511.00 1138.00 L 2531.00 1137.00 L 2551.00 1136.00 L 2571.00 1136.00 L 2591.00 1135.00 L 2611.00 1134.00 L 2631.00 1134.00 L 2651.00 1133.00 L 2671.00 1132.00 L 2691.00 1132.00 L 2711.00 1131.00 L 2731.00 1130.00 L 2751.00 1129.00 L 2771.00 1149.00 L 2791.00 1148.00 L 2811.00 1147.00 L 2831.00 1127.00 L 2851.00 1126.00 L 2871.00 1125.00 L 2873.49 1125.00 L 2850.00 1047.00 L 2910.41 1009.03 Z" />
<path id="csg562-058-04" fill="none" stroke="black" stroke-width="1" d="M 2871.00 1125.00 L 2851.00 1126.00 L 2831.00 1127.00 L 2811.00 1147.00 L 2791.00 1148.00 L 2771.00 1149.00 L 2751.00 1129.00 L 2731.00 1130.00 L 2711.00 1131.00 L 2691.00 1132.00 L 2671.00 1132.00 L 2651.00 1133.00 L 2631.00 1134.00 L 2611.00 1134.00 L 2591.00 1135.00 L 2571.00 1136.00 L 2551.00 1136.00 L 2531.00 1137.00 L 2511.00 1138.00 L 2491.00 1138.00 L 2471.00 1159.00 L 2451.00 1140.00 L 2431.00 1140.00 L 2411.00 1141.00 L 2391.00 1142.00 L 2371.00 1142.00 L 2351.00 1143.00 L 2331.00 1144.00 L 2311.00 1164.00 L 2291.00 1185.00 L 2271.00 1186.00 L 2251.00 1166.00 L 2231.00 1147.00 L 2211.00 1148.00 L 2191.00 1148.00 L 2171.00 1149.00 L 2151.00 1170.00 L 2131.00 1150.00 L 2111.00 1146.00 L 2091.00 1152.00 L 2071.00 1153.00 L 2051.00 1153.00 L 2031.00 1154.00 L 2011.00 1155.00 L 1991.00 1155.00 L 1971.00 1156.00 L 1951.00 1157.00 L 1931.00 1157.00 L 1911.00 1158.00 L 1891.00 1159.00 L 1871.00 1159.00 L 1851.00 1160.00 L 1831.00 1161.00 L 1811.00 1161.00 L 1791.00 1162.00 L 1771.00 1163.00 L 1751.00 1163.00 L 1731.00 1184.00 L 1711.00 1185.00 L 1691.00 1185.00 L 1671.00 1166.00 L 1651.00 1167.00 L 1631.00 1167.00 L 1611.00 1168.00 L 1591.00 1169.00 L 1571.00 1169.00 L 1551.00 1170.00 L 1531.00 1171.00 L 1511.00 1191.00 L 1491.00 1192.00 L 1471.00 1193.00 L 1451.00 1193.00 L 1431.00 1174.00 L 1411.00 1175.00 L 1391.00 1176.00 L 1371.00 1176.00 L 1351.00 1177.00 L 1331.00 1178.00 L 1311.00 1178.00 L 1291.00 1179.00 L 1271.00 1180.00 L 1251.00 1180.00 L 1231.00 1181.00 L 1211.00 1182.00 L 1191.00 1182.00 L 1171.00 1183.00 L 1151.00 1184.00 L 1131.00 1184.00 L 1111.00 1185.00 L 1091.00 1186.00 L 1071.00 1186.00 L 1051.00 1187.00 L 1031.00 1188.00 L 1011.00 1188.00 L 991.00 1189.00 L 971.00 1190.00 L 951.00 1190.00 L 931.00 1191.00 L 911.00 1192.00 L 891.00 1192.00 L 871.00 1193.00 L 851.00 1194.00 L 831.00 1194.00 L 811.00 1195.00 L 791.00 1196.00 L 772.16 1206.36 L 771.55 1310.70 L 791.00 1300.00 L 811.00 1299.00 L 831.00 1298.00 L 851.00 1298.00 L 871.00 1297.00 L 891.00 1296.00 L 911.00 1295.00 L 931.00 1295.00 L 951.00 1294.00 L 971.00 1293.00 L 991.00 1292.00 L 1011.00 1292.00 L 1031.00 1291.00 L 1051.00 1290.00 L 1071.00 1289.00 L 1091.00 1289.00 L 1111.00 1288.00 L 1131.00 1287.00 L 1151.00 1286.00 L 1171.00 1286.00 L 1191.00 1285.00 L 1211.00 1284.00 L 1231.00 1284.00 L 1251.00 1283.00 L 1271.00 1282.00 L 1291.00 1281.00 L 1311.00 1281.00 L 1331.00 1280.00 L 1351.00 1299.00 L 1371.00 1278.00 L 1391.00 1278.00 L 1411.00 1277.00 L 1431.00 1276.00 L 1451.00 1275.00 L 1471.00 1275.00 L 1491.00 1274.00 L 1511.00 1273.00 L 1531.00 1272.00 L 1551.00 1292.00 L 1571.00 1271.00 L 1591.00 1270.00 L 1611.00 1289.00 L 1631.00 1269.00 L 1651.00 1288.00 L 1671.00 1287.00 L 1691.00 1267.00 L 1711.00 1306.00 L 1731.00 1305.00 L 1751.00 1264.00 L 1771.00 1264.00 L 1791.00 1283.00 L 1811.00 1282.00 L 1831.00 1261.00 L 1851.00 1261.00 L 1871.00 1260.00 L 1891.00 1259.00 L 1911.00 1258.00 L 1931.00 1278.00 L 1951.00 1277.00 L 1971.00 1276.00 L 1991.00 1275.00 L 2011.00 1275.00 L 2031.00 1294.00 L 2051.00 1273.00 L 2071.00 1272.00 L 2091.00 1272.00 L 2111.00 1251.00 L 2131.00 1270.00 L 2151.00 1250.00 L 2171.00 1249.00 L 2191.00 1248.00 L 2211.00 1247.00 L 2231.00 1247.00 L 2251.00 1246.00 L 2271.00 1245.00 L 2291.00 1244.00 L 2311.00 1244.00 L 2331.00 1243.00 L 2351.00 1262.00 L 2371.00 1241.00 L 2391.00 1241.00 L 2411.00 1240.00 L 2431.00 1239.00 L 2451.00 1238.00 L 2471.00 1238.00 L 2491.00 1237.00 L 2511.00 1256.00 L 2531.00 1255.00 L 2551.00 1235.00 L 2571.00 1254.00 L 2591.00 1253.00 L 2611.00 1253.00 L 2631.00 1252.00 L 2651.00 1251.00 L 2671.00 1250.00 L 2691.00 1250.00 L 2711.00 1249.00 L 2731.00 1248.00 L 2751.00 1247.00 L 2771.00 1247.00 L 2791.00 1246.00 L 2811.00 1245.00 L 2831.00 1244.00 L 2851.00 1244.00 L 2871.00 1223.00 L 2891.00 1222.00 L 2902.54 1221.42 L 2873.49 1125.00 Z" />
<path id="csg562-058-05" fill="none" stroke="black" stroke-width="1" d="M 2902.54 1221.42 L 2891.00 1222.00 L 2871.00 1223.00 L 2851.00 1244.00 L 2831.00 1244.00 L 2811.00 1245.00 L 2791.00 1246.00 L 2771.00 1247.00 L 2751.00 1247.00 L 2731.00 1248.00 L 2711.00 1249.00 L 2691.00 1250.00 L 2671.00 1250.00 L 2651.00 1251.00 L 2631.00 1252.00 L 2611.00 1253.00 L 2591.00 1253.00 L 2571.00 1254.00 L 2551.00 1235.00 L 2531.00 1255.00 L 2511.00 1256.00 L 2491.00 1237.00 L 2471.00 1238.00 L 2451.00 1238.00 L 2431.00 1239.00 L 2411.00 1240.00 L 2391.00 1241.00 L 2371.00 1241.00 L 2351.00 1262.00 L 2331.00 1243.00 L 2311.00 1244.00 L 2291.00 1244.00 L 2271.00 1245.00 L 2251.00 1246.00 L 2231.00 1247.00 L 2211.00 1247.00 L 2191.00 1248.00 L 2171.00 1249.00 L 2151.00 1250.00 L 2131.00 1270.00 L 2111.00 1251.00 L 2091.00 1272.00 L 2071.00 1272.00 L 2051.00 1273.00 L 2031.00 1294.00 L 2011.00 1275.00 L 1991.00 1275.00 L 1971.00 1276.00 L 1951.00 1277.00 L 1931.00 1278.00 L 1911.00 1258.00 L 1891.00 1259.00 L 1871.00 1260.00 L 1851.00 1261.00 L 1831.00 1261.00 L 1811.00 1282.00 L 1791.00 1283.00 L 1771.00 1264.00 L 1751.00 1264.00 L 1731.00 1305.00 L 1711.00 1306.00 L 1691.00 1267.00 L 1671.00 1287.00 L 1651.00 1288.00 L 1631.00 1269.00 L 1611.00 1289.00 L 1591.00 1270.00 L 1571.00 1271.00 L 1551.00 1292.00 L 1531.00 1272.00 L 1511.00 1273.00 L 1491.00 1274.00 L 1471.00 1275.00 L 1451.00 1275.00 L 1431.00 1276.00 L 1411.00 1277.00 L 1391.00 1278.00 L 1371.00 1278.00 L 1351.00 1299.00 L 1331.00 1280.00 L 1311.00 1281.00 L 1291.00 1281.00 L 1271.00 1282.00 L 1251.00 1283.00 L 1231.00 1284.00 L 1211.00 1284.00 L 1191.00 1285.00 L 1171.00 1286.00 L 1151.00 1286.00 L 1131.00 1287.00 L 1111.00 1288.00 L 1091.00 1289.00 L 1071.00 1289.00 L 1051.00 1290.00 L 1031.00 1291.00 L 1011.00 1292.00 L 991.00 1292.00 L 971.00 1293.00 L 951.00 1294.00 L 931.00 1295.00 L 911.00 1295.00 L 891.00 1296.00 L 871.00 1297.00 L 851.00 1298.00 L 831.00 1298.00 L 811.00 1299.00 L 791.00 1300.00 L 771.55 1310.70 L 771.00 1404.00 L 771.97 1421.46 L 791.00 1411.00 L 811.00 1410.00 L 831.00 1410.00 L 851.00 1409.00 L 871.00 1409.00 L 891.00 1408.00 L 911.00 1407.00 L 931.00 1407.00 L 951.00 1406.00 L 971.00 1406.00 L 991.00 1405.00 L 1011.00 1404.00 L 1031.00 1404.00 L 1051.00 1403.00 L 1071.00 1403.00 L 1091.00 1402.00 L 1111.00 1402.00 L 1131.00 1401.00 L 1151.00 1400.00 L 1171.00 1400.00 L 1191.00 1399.00 L 1211.00 1399.00 L 1231.00 1398.00 L 1251.00 1397.00 L 1271.00 1397.00 L 1291.00 1396.00 L 1311.00 1396.00 L 1331.00 1395.00 L 1351.00 1395.00 L 1371.00 1394.00 L 1391.00 1393.00 L 1411.00 1393.00 L 1431.00 1392.00 L 1451.00 1392.00 L 1471.00 1391.00 L 1491.00 1390.00 L 1511.00 1390.00 L 1531.00 1389.00 L 1551.00 1389.00 L 1571.00 1388.00 L 1591.00 1407.00 L 1611.00 1387.00 L 1631.00 1406.00 L 1651.00 1386.00 L 1671.00 1385.00 L 1691.00 1385.00 L 1711.00 1384.00 L 1731.00 1383.00 L 1751.00 1383.00 L 1771.00 1382.00 L 1791.00 1382.00 L 1811.00 1381.00 L 1831.00 1380.00 L 1851.00 1380.00 L 1871.00 1379.00 L 1891.00 1379.00 L 1911.00 1378.00 L 1931.00 1378.00 L 1951.00 1377.00 L 1971.00 1376.00 L 1991.00 1376.00 L 2011.00 1375.00 L 2031.00 1375.00 L 2051.00 1374.00 L 2071.00 1373.00 L 2091.00 1373.00 L 2111.00 1372.00 L 2131.00 1372.00 L 2151.00 1371.00 L 2171.00 1370.00 L 2191.00 1370.00 L 2211.00 1369.00 L 2231.00 1369.00 L 2251.00 1368.00 L 2271.00 1368.00 L 2291.00 1367.00 L 2311.00 1366.00 L 2331.00 1366.00 L 2351.00 1365.00 L 2371.00 1365.00 L 2391.00 1364.00 L 2411.00 1363.00 L 2431.00 1363.00 L 2451.00 1362.00 L 2471.00 1362.00 L 2491.00 1361.00 L 2511.00 1361.00 L 2531.00 1360.00 L 2551.00 1359.00 L 2571.00 1359.00 L 2591.00 1358.00 L 2611.00 1358.00 L 2631.00 1357.00 L 2651.00 1356.00 L 2671.00 1356.00 L 2691.00 1355.00 L 2711.00 1355.00 L 2731.00 1354.00 L 2751.00 1353.00 L 2771.00 1353.00 L 2791.00 1352.00 L 2811.00 1352.00 L 2831.00 1371.00 L 2851.00 1351.00 L 2871.00 1350.00 L 2925.00 1296.00 L 2902.54 1221.42 Z" />
<path id="csg562-058-06" fill="none" stroke="black" stroke-width="1" d="M 2871.00 1350.00 L 2851.00 1351.00 L 2831.00 1371.00 L 2811.00 1352.00 L 2791.00 1352.00 L 2771.00 1353.00 L 2751.00 1353.00 L 2731.00 1354.00 L 2711.00 1355.00 L 2691.00 1355.00 L 2671.00 1356.00 L 2651.00 1356.00 L 2631.00 1357.00 L 2611.00 1358.00 L 2591.00 1358.00 L 2571.00 1359.00 L 2551.00 1359.00 L 2531.00 1360.00 L 2511.00 1361.00 L 2491.00 1361.00 L 2471.00 1362.00 L 2451.00 1362.00 L 2431.00 1363.00 L 2411.00 1363.00 L 2391.00 1364.00 L 2371.00 1365.00 L 2351.00 1365.00 L 2331.00 1366.00 L 2311.00 1366.00 L 2291.00 1367.00 L 2271.00 1368.00 L 2251.00 1368.00 L 2231.00 1369.00 L 2211.00 1369.00 L 2191.00 1370.00 L 2171.00 1370.00 L 2151.00 1371.00 L 2131.00 1372.00 L 2111.00 1372.00 L 2091.00 1373.00 L 2071.00 1373.00 L 2051.00 1374.00 L 2031.00 1375.00 L 2011.00 1375.00 L 1991.00 1376.00 L 1971.00 1376.00 L 1951.00 1377.00 L 1931.00 1378.00 L 1911.00 1378.00 L 1891.00 1379.00 L 1871.00 1379.00 L 1851.00 1380.00 L 1831.00 1380.00 L 1811.00 1381.00 L 1791.00 1382.00 L 1771.00 1382.00 L 1751.00 1383.00 L 1731.00 1383.00 L 1711.00 1384.00 L 1691.00 1385.00 L 1671.00 1385.00 L 1651.00 1386.00 L 1631.00 1406.00 L 1611.00 1387.00 L 1591.00 1407.00 L 1571.00 1388.00 L 1551.00 1389.00 L 1531.00 1389.00 L 1511.00 1390.00 L 1491.00 1390.00 L 1471.00 1391.00 L 1451.00 1392.00 L 1431.00 1392.00 L 1411.00 1393.00 L 1391.00 1393.00 L 1371.00 1394.00 L 1351.00 1395.00 L 1331.00 1395.00 L 1311.00 1396.00 L 1291.00 1396.00 L 1271.00 1397.00 L 1251.00 1397.00 L 1231.00 1398.00 L 1211.00 1399.00 L 1191.00 1399.00 L 1171.00 1400.00 L 1151.00 1400.00 L 1131.00 1401.00 L 1111.00 1402.00 L 1091.00 1402.00 L 1071.00 1403.00 L 1051.00 1403.00 L 1031.00 1404.00 L 1011.00 1404.00 L 991.00 1405.00 L 971.00 1406.00 L 951.00 1406.00 L 931.00 1407.00 L 911.00 1407.00 L 891.00 1408.00 L 871.00 1409.00 L 851.00 1409.00 L 831.00 1410.00 L 811.00 1410.00 L 791.00 1411.00 L 771.97 1421.46 L 778.19 1533.04 L 791.00 1526.00 L 811.00 1525.00 L 831.00 1525.00 L 851.00 1524.00 L 871.00 1524.00 L 891.00 1523.00 L 911.00 1523.00 L 931.00 1522.00 L 951.00 1522.00 L 971.00 1521.00 L 991.00 1521.00 L 1011.00 1520.00 L 1031.00 1520.00 L 1051.00 1519.00 L 1071.00 1519.00 L 1091.00 1518.00 L 1111.00 1518.00 L 1131.00 1517.00 L 1151.00 1517.00 L 1171.00 1516.00 L 1191.00 1516.00 L 1211.00 1515.00 L 1231.00 1515.00 L 1251.00 1514.00 L 1271.00 1514.00 L 1291.00 1513.00 L 1311.00 1513.00 L 1331.00 1512.00 L 1351.00 1512.00 L 1371.00 1511.00 L 1391.00 1511.00 L 1411.00 1510.00 L 1431.00 1510.00 L 1451.00 1509.00 L 1471.00 1509.00 L 1491.00 1508.00 L 1511.00 1508.00 L 1531.00 1507.00 L 1551.00 1507.00 L 1571.00 1506.00 L 1591.00 1506.00 L 1611.00 1505.00 L 1631.00 1505.00 L 1651.00 1504.00 L 1671.00 1504.00 L 1691.00 1503.00 L 1711.00 1503.00 L 1731.00 1502.00 L 1751.00 1502.00 L 1771.00 1501.00 L 1791.00 1501.00 L 1811.00 1500.00 L 1831.00 1500.00 L 1851.00 1499.00 L 1871.00 1499.00 L 1891.00 1498.00 L 1911.00 1498.00 L 1931.00 1497.00 L 1951.00 1497.00 L 1971.00 1496.00 L 1991.00 1496.00 L 2011.00 1495.00 L 2031.00 1495.00 L 2051.00 1494.00 L 2071.00 1494.00 L 2091.00 1493.00 L 2111.00 1513.00 L 2131.00 1512.00 L 2151.00 1492.00 L 2171.00 1491.00 L 2191.00 1491.00 L 2211.00 1490.00 L 2231.00 1490.00 L 2251.00 1489.00 L 2271.00 1489.00 L 2291.00 1488.00 L 2311.00 1488.00 L 2331.00 1487.00 L 2351.00 1487.00 L 2371.00 1486.00 L 2391.00 1486.00 L 2411.00 1485.00 L 2431.00 1485.00 L 2451.00 1484.00 L 2471.00 1484.00 L 2491.00 1483.00 L 2511.00 1483.00 L 2531.00 1482.00 L 2551.00 1482.00 L 2571.00 1481.00 L 2591.00 1501.00 L 2611.00 1500.00 L 2631.00 1480.00 L 2651.00 1479.00 L 2671.00 1479.00 L 2691.00 1478.00 L 2711.00 1478.00 L 2731.00 1477.00 L 2751.00 1477.00 L 2771.00 1476.00 L 2791.00 1476.00 L 2811.00 1475.00 L 2831.00 1475.00 L 2851.00 1474.00 L 2871.00 1474.00 L 2877.63 1473.67 L 2829.00 1392.00 L 2871.00 1350.00 Z" />
<path id="csg562-058-07" fill="none" stroke="black" stroke-width="1" d="M 2877.63 1473.67 L 2871.00 1474.00 L 2851.00 1474.00 L 2831.00 1475.00 L 2811.00 1475.00 L 2791.00 1476.00 L 2771.00 1476.00 L 2751.00 1477.00 L 2731.00 1477.00 L 2711.00 1478.00 L 2691.00 1478.00 L 2671.00 1479.00 L 2651.00 1479.00 L 2631.00 1480.00 L 2611.00 1500.00 L 2591.00 1501.00 L 2571.00 1481.00 L 2551.00 1482.00 L 2531.00 1482.00 L 2511.00 1483.00 L 2491.00 1483.00 L 2471.00 1484.00 L 2451.00 1484.00 L 2431.00 1485.00 L 2411.00 1485.00 L 2391.00 1486.00 L 2371.00 1486.00 L 2351.00 1487.00 L 2331.00 1487.00 L 2311.00 1488.00 L 2291.00 1488.00 L 2271.00 1489.00 L 2251.00 1489.00 L 2231.00 1490.00 L 2211.00 1490.00 L 2191.00 1491.00 L 2171.00 1491.00 L 2151.00 1492.00 L 2131.00 1512.00 L 2111.00 1513.00 L 2091.00 1493.00 L 2071.00 1494.00 L 2051.00 1494.00 L 2031.00 1495.00 L 2011.00 1495.00 L 1991.00 1496.00 L 1971.00 1496.00 L 1951.00 1497.00 L 1931.00 1497.00 L 1911.00 1498.00 L 1891.00 1498.00 L 1871.00 1499.00 L 1851.00 1499.00 L 1831.00 1500.00 L 1811.00 1500.00 L 1791.00 1501.00 L 1771.00 1501.00 L 1751.00 1502.00 L 1731.00 1502.00 L 1711.00 1503.00 L 1691.00 1503.00 L 1671.00 1504.00 L 1651.00 1504.00 L 1631.00 1505.00 L 1611.00 1505.00 L 1591.00 1506.00 L 1571.00 1506.00 L 1551.00 1507.00 L 1531.00 1507.00 L 1511.00 1508.00 L 1491.00 1508.00 L 1471.00 1509.00 L 1451.00 1509.00 L 1431.00 1510.00 L 1411.00 1510.00 L 1391.00 1511.00 L 1371.00 1511.00 L 1351.00 1512.00 L 1331.00 1512.00 L 1311.00 1513.00 L 1291.00 1513.00 L 1271.00 1514.00 L 1251.00 1514.00 L 1231.00 1515.00 L 1211.00 1515.00 L 1191.00 1516.00 L 1171.00 1516.00 L 1151.00 1517.00 L 1131.00 1517.00 L 1111.00 1518.00 L 1091.00 1518.00 L 1071.00 1519.00 L 1051.00 1519.00 L 1031.00 1520.00 L 1011.00 1520.00 L 991.00 1521.00 L 971.00 1521.00 L 951.00 1522.00 L 931.00 1522.00 L 911.00 1523.00 L 891.00 1523.00 L 871.00 1524.00 L 851.00 1524.00 L 831.00 1525.00 L 811.00 1525.00 L 791.00 1526.00 L 778.19 1533.04 L 784.31 1642.68 L 791.00 1639.00 L 811.00 1638.00 L 831.00 1638.00 L 851.00 1637.00 L 871.00 1636.00 L 891.00 1636.00 L 911.00 1635.00 L 931.00 1634.00 L 951.00 1634.00 L 971.00 1633.00 L 991.00 1633.00 L 1011.00 1632.00 L 1031.00 1631.00 L 1051.00 1631.00 L 1071.00 1630.00 L 1091.00 1629.00 L 1111.00 1629.00 L 1131.00 1628.00 L 1151.00 1627.00 L 1171.00 1627.00 L 1191.00 1626.00 L 1211.00 1626.00 L 1231.00 1625.00 L 1251.00 1624.00 L 1271.00 1624.00 L 1291.00 1623.00 L 1311.00 1622.00 L 1331.00 1622.00 L 1351.00 1621.00 L 1371.00 1621.00 L 1391.00 1620.00 L 1411.00 1619.00 L 1431.00 1619.00 L 1451.00 1618.00 L 1471.00 1617.00 L 1491.00 1617.00 L 1511.00 1636.00 L 1531.00 1635.00 L 1551.00 1635.00 L 1571.00 1614.00 L 1591.00 1614.00 L 1611.00 1613.00 L 1631.00 1612.00 L 1651.00 1612.00 L 1671.00 1611.00 L 1691.00 1610.00 L 1711.00 1610.00 L 1731.00 1609.00 L 1751.00 1609.00 L 1771.00 1608.00 L 1791.00 1627.00 L 1811.00 1627.00 L 1831.00 1626.00 L 1851.00 1605.00 L 1871.00 1605.00 L 1891.00 1604.00 L 1911.00 1603.00 L 1931.00 1603.00 L 1951.00 1642.00 L 1971.00 1622.00 L 1991.00 1601.00 L 2011.00 1600.00 L 2031.00 1600.00 L 2051.00 1599.00 L 2071.00 1598.00 L 2091.00 1598.00 L 2111.00 1597.00 L 2131.00 1596.00 L 2151.00 1596.00 L 2171.00 1615.00 L 2191.00 1615.00 L 2211.00 1594.00 L 2231.00 1593.00 L 2251.00 1593.00 L 2271.00 1592.00 L 2291.00 1591.00 L 2311.00 1591.00 L 2331.00 1590.00 L 2351.00 1590.00 L 2371.00 1589.00 L 2391.00 1588.00 L 2411.00 1588.00 L 2431.00 1607.00 L 2451.00 1626.00 L 2471.00 1606.00 L 2491.00 1585.00 L 2511.00 1584.00 L 2531.00 1584.00 L 2551.00 1583.00 L 2571.00 1583.00 L 2591.00 1582.00 L 2611.00 1581.00 L 2631.00 1581.00 L 2651.00 1580.00 L 2671.00 1579.00 L 2691.00 1579.00 L 2711.00 1578.00 L 2731.00 1578.00 L 2751.00 1577.00 L 2771.00 1576.00 L 2791.00 1576.00 L 2811.00 1595.00 L 2831.00 1594.00 L 2851.00 1594.00 L 2871.00 1593.00 L 2891.00 1572.00 L 2911.00 1572.00 L 2931.00 1571.00 L 2935.60 1571.00 L 2877.63 1473.67 Z" />
<path id="csg562-058-08" fill="none" stroke="black" stroke-width="1" d="M 2931.00 1571.00 L 2911.00 1572.00 L 2891.00 1572.00 L 2871.00 1593.00 L 2851.00 1594.00 L 2831.00 1594.00 L 2811.00 1595.00 L 2791.00 1576.00 L 2771.00 1576.00 L 2751.00 1577.00 L 2731.00 1578.00 L 2711.00 1578.00 L 2691.00 1579.00 L 2671.00 1579.00 L 2651.00 1580.00 L 2631.00 1581.00 L 2611.00 1581.00 L 2591.00 1582.00 L 2571.00 1583.00 L 2551.00 1583.00 L 2531.00 1584.00 L 2511.00 1584.00 L 2491.00 1585.00 L 2471.00 1606.00 L 2451.00 1626.00 L 2431.00 1607.00 L 2411.00 1588.00 L 2391.00 1588.00 L 2371.00 1589.00 L 2351.00 1590.00 L 2331.00 1590.00 L 2311.00 1591.00 L 2291.00 1591.00 L 2271.00 1592.00 L 2251.00 1593.00 L 2231.00 1593.00 L 2211.00 1594.00 L 2191.00 1615.00 L 2171.00 1615.00 L 2151.00 1596.00 L 2131.00 1596.00 L 2111.00 1597.00 L 2091.00 1598.00 L 2071.00 1598.00 L 2051.00 1599.00 L 2031.00 1600.00 L 2011.00 1600.00 L 1991.00 1601.00 L 1971.00 1622.00 L 1951.00 1642.00 L 1931.00 1603.00 L 1911.00 1603.00 L 1891.00 1604.00 L 1871.00 1605.00 L 1851.00 1605.00 L 1831.00 1626.00 L 1811.00 1627.00 L 1791.00 1627.00 L 1771.00 1608.00 L 1751.00 1609.00 L 1731.00 1609.00 L 1711.00 1610.00 L 1691.00 1610.00 L 1671.00 1611.00 L 1651.00 1612.00 L 1631.00 1612.00 L 1611.00 1613.00 L 1591.00 1614.00 L 1571.00 1614.00 L 1551.00 1635.00 L 1531.00 1635.00 L 1511.00 1636.00 L 1491.00 1617.00 L 1471.00 1617.00 L 1451.00 1618.00 L 1431.00 1619.00 L 1411.00 1619.00 L 1391.00 1620.00 L 1371.00 1621.00 L 1351.00 1621.00 L 1331.00 1622.00 L 1311.00 1622.00 L 1291.00 1623.00 L 1271.00 1624.00 L 1251.00 1624.00 L 1231.00 1625.00 L 1211.00 1626.00 L 1191.00 1626.00 L 1171.00 1627.00 L 1151.00 1627.00 L 1131.00 1628.00 L 1111.00 1629.00 L 1091.00 1629.00 L 1071.00 1630.00 L 1051.00 1631.00 L 1031.00 1631.00 L 1011.00 1632.00 L 991.00 1633.00 L 971.00 1633.00 L 951.00 1634.00 L 931.00 1634.00 L 911.00 1635.00 L 891.00 1636.00 L 871.00 1636.00 L 851.00 1637.00 L 831.00 1638.00 L 811.00 1638.00 L 791.00 1639.00 L 784.31 1642.68 L 790.58 1755.23 L 791.00 1755.00 L 811.00 1754.00 L 831.00 1754.00 L 851.00 1753.00 L 871.00 1753.00 L 891.00 1752.00 L 911.00 1772.00 L 931.00 1751.00 L 951.00 1751.00 L 971.00 1750.00 L 991.00 1750.00 L 1011.00 1749.00 L 1031.00 1749.00 L 1051.00 1748.00 L 1071.00 1748.00 L 1091.00 1747.00 L 1111.00 1767.00 L 1131.00 1766.00 L 1151.00 1745.00 L 1171.00 1745.00 L 1191.00 1744.00 L 1211.00 1744.00 L 1231.00 1743.00 L 1251.00 1743.00 L 1271.00 1742.00 L 1291.00 1742.00 L 1311.00 1741.00 L 1331.00 1741.00 L 1351.00 1740.00 L 1371.00 1740.00 L 1391.00 1739.00 L 1411.00 1739.00 L 1431.00 1738.00 L 1451.00 1738.00 L 1471.00 1737.00 L 1491.00 1737.00 L 1511.00 1736.00 L 1531.00 1735.00 L 1551.00 1735.00 L 1571.00 1734.00 L 1591.00 1734.00 L 1611.00 1733.00 L 1631.00 1733.00 L 1651.00 1732.00 L 1671.00 1732.00 L 1691.00 1731.00 L 1711.00 1731.00 L 1731.00 1730.00 L 1751.00 1730.00 L 1771.00 1729.00 L 1791.00 1729.00 L 1811.00 1728.00 L 1831.00 1728.00 L 1851.00 1727.00 L 1871.00 1726.00 L 1891.00 1726.00 L 1911.00 1725.00 L 1931.00 1725.00 L 1951.00 1724.00 L 1971.00 1724.00 L 1991.00 1723.00 L 2011.00 1723.00 L 2031.00 1722.00 L 2051.00 1722.00 L 2071.00 1721.00 L 2091.00 1721.00 L 2111.00 1720.00 L 2131.00 1720.00 L 2151.00 1719.00 L 2171.00 1719.00 L 2191.00 1718.00 L 2211.00 1718.00 L 2231.00 1717.00 L 2251.00 1716.00 L 2271.00 1716.00 L 2291.00 1715.00 L 2311.00 1715.00 L 2331.00 1714.00 L 2351.00 1714.00 L 2371.00 1713.00 L 2391.00 1713.00 L 2411.00 1712.00 L 2431.00 1712.00 L 2451.00 1711.00 L 2471.00 1711.00 L 2491.00 1710.00 L 2511.00 1710.00 L 2531.00 1709.00 L 2551.00 1709.00 L 2571.00 1708.00 L 2591.00 1707.00 L 2611.00 1707.00 L 2631.00 1706.00 L 2651.00 1706.00 L 2671.00 1705.00 L 2691.00 1705.00 L 2711.00 1704.00 L 2731.00 1704.00 L 2751.00 1703.00 L 2771.00 1703.00 L 2791.00 1702.00 L 2811.00 1722.00 L 2831.00 1721.00 L 2851.00 1721.00 L 2871.00 1700.00 L 2891.00 1700.00 L 2911.00 1699.00 L 2931.00 1699.00 L 2938.89 1698.61 L 2988.00 1659.00 L 2935.60 1571.00 Z" />
<path id="csg562-058-09" fill="none" stroke="black" stroke-width="1" d="M 2938.89 1698.61 L 2931.00 1699.00 L 2911.00 1699.00 L 2891.00 1700.00 L 2871.00 1700.00 L 2851.00 1721.00 L 2831.00 1721.00 L 2811.00 1722.00 L 2791.00 1702.00 L 2771.00 1703.00 L 2751.00 1703.00 L 2731.00 1704.00 L 2711.00 1704.00 L 2691.00 1705.00 L 2671.00 1705.00 L 2651.00 1706.00 L 2631.00 1706.00 L 2611.00 1707.00 L 2591.00 1707.00 L 2571.00 1708.00 L 2551.00 1709.00 L 2531.00 1709.00 L 2511.00 1710.00 L 2491.00 1710.00 L 2471.00 1711.00 L 2451.00 1711.00 L 2431.00 1712.00 L 2411.00 1712.00 L 2391.00 1713.00 L 2371.00 1713.00 L 2351.00 1714.00 L 2331.00 1714.00 L 2311.00 1715.00 L 2291.00 1715.00 L 2271.00 1716.00 L 2251.00 1716.00 L 2231.00 1717.00 L 2211.00 1718.00 L 2191.00 1718.00 L 2171.00 1719.00 L 2151.00 1719.00 L 2131.00 1720.00 L 2111.00 1720.00 L 2091.00 1721.00 L 2071.00 1721.00 L 2051.00 1722.00 L 2031.00 1722.00 L 2011.00 1723.00 L 1991.00 1723.00 L 1971.00 1724.00 L 1951.00 1724.00 L 1931.00 1725.00 L 1911.00 1725.00 L 1891.00 1726.00 L 1871.00 1726.00 L 1851.00 1727.00 L 1831.00 1728.00 L 1811.00 1728.00 L 1791.00 1729.00 L 1771.00 1729.00 L 1751.00 1730.00 L 1731.00 1730.00 L 1711.00 1731.00 L 1691.00 1731.00 L 1671.00 1732.00 L 1651.00 1732.00 L 1631.00 1733.00 L 1611.00 1733.00 L 1591.00 1734.00 L 1571.00 1734.00 L 1551.00 1735.00 L 1531.00 1735.00 L 1511.00 1736.00 L 1491.00 1737.00 L 1471.00 1737.00 L 1451.00 1738.00 L 1431.00 1738.00 L 1411.00 1739.00 L 1391.00 1739.00 L 1371.00 1740.00 L 1351.00 1740.00 L 1331.00 1741.00 L 1311.00 1741.00 L 1291.00 1742.00 L 1271.00 1742.00 L 1251.00 1743.00 L 1231.00 1743.00 L 1211.00 1744.00 L 1191.00 1744.00 L 1171.00 1745.00 L 1151.00 1745.00 L 1131.00 1766.00 L 1111.00 1767.00 L 1091.00 1747.00 L 1071.00 1748.00 L 1051.00 1748.00 L 1031.00 1749.00 L 1011.00 1749.00 L 991.00 1750.00 L 971.00 1750.00 L 951.00 1751.00 L 931.00 1751.00 L 911.00 1772.00 L 891.00 1752.00 L 871.00 1753.00 L 851.00 1753.00 L 831.00 1754.00 L 811.00 1754.00 L 791.00 1755.00 L 790.58 1755.23 L 796.24 1856.74 L 811.00 1856.00 L 831.00 1876.00 L 851.00 1855.00 L 871.00 1854.00 L 891.00 1854.00 L 911.00 1853.00 L 931.00 1852.00 L 951.00 1852.00 L 971.00 1851.00 L 991.00 1850.00 L 1011.00 1850.00 L 1031.00 1849.00 L 1051.00 1849.00 L 1071.00 1848.00 L 1091.00 1847.00 L 1111.00 1847.00 L 1131.00 1846.00 L 1151.00 1845.00 L 1171.00 1845.00 L 1191.00 1844.00 L 1211.00 1843.00 L 1231.00 1843.00 L 1251.00 1842.00 L 1271.00 1861.00 L 1291.00 1841.00 L 1311.00 1840.00 L 1331.00 1840.00 L 1351.00 1839.00 L 1371.00 1838.00 L 1391.00 1838.00 L 1411.00 1837.00 L 1431.00 1836.00 L 1451.00 1856.00 L 1471.00 1835.00 L 1491.00 1834.00 L 1511.00 1834.00 L 1531.00 1833.00 L 1551.00 1832.00 L 1571.00 1832.00 L 1591.00 1831.00 L 1611.00 1831.00 L 1631.00 1870.00 L 1651.00 1849.00 L 1671.00 1829.00 L 1691.00 1828.00 L 1711.00 1827.00 L 1731.00 1827.00 L 1751.00 1826.00 L 1771.00 1825.00 L 1791.00 1825.00 L 1811.00 1824.00 L 1831.00 1843.00 L 1851.00 1863.00 L 1871.00 1862.00 L 1891.00 1822.00 L 1911.00 1821.00 L 1931.00 1820.00 L 1951.00 1820.00 L 1971.00 1819.00 L 1991.00 1818.00 L 2011.00 1818.00 L 2031.00 1817.00 L 2051.00 1816.00 L 2071.00 1816.00 L 2091.00 1815.00 L 2111.00 1815.00 L 2131.00 1814.00 L 2151.00 1813.00 L 2171.00 1833.00 L 2191.00 1832.00 L 2211.00 1811.00 L 2231.00 1811.00 L 2251.00 1830.00 L 2271.00 1829.00 L 2291.00 1829.00 L 2311.00 1828.00 L 2331.00 1827.00 L 2351.00 1807.00 L 2371.00 1826.00 L 2391.00 1846.00 L 2411.00 1825.00 L 2431.00 1804.00 L 2451.00 1804.00 L 2471.00 1823.00 L 2491.00 1822.00 L 2511.00 1802.00 L 2531.00 1801.00 L 2551.00 1800.00 L 2571.00 1820.00 L 2591.00 1819.00 L 2611.00 1818.00 L 2631.00 1798.00 L 2651.00 1817.00 L 2671.00 1837.00 L 2691.00 1836.00 L 2711.00 1815.00 L 2731.00 1815.00 L 2751.00 1814.00 L 2771.00 1813.00 L 2791.00 1813.00 L 2811.00 1812.00 L 2831.00 1811.00 L 2851.00 1811.00 L 2871.00 1790.00 L 2891.00 1789.00 L 2911.00 1789.00 L 2911.28 1788.99 L 2895.00 1734.00 L 2938.89 1698.61 Z" />
<path id="csg562-058-10" fill="none" stroke="black" stroke-width="1" d="M 2911.28 1788.99 L 2911.00 1789.00 L 2891.00 1789.00 L 2871.00 1790.00 L 2851.00 1811.00 L 2831.00 1811.00 L 2811.00 1812.00 L 2791.00 1813.00 L 2771.00 1813.00 L 2751.00 1814.00 L 2731.00 1815.00 L 2711.00 1815.00 L 2691.00 1836.00 L 2671.00 1837.00 L 2651.00 1817.00 L 2631.00 1798.00 L 2611.00 1818.00 L 2591.00 1819.00 L 2571.00 1820.00 L 2551.00 1800.00 L 2531.00 1801.00 L 2511.00 1802.00 L 2491.00 1822.00 L 2471.00 1823.00 L 2451.00 1804.00 L 2431.00 1804.00 L 2411.00 1825.00 L 2391.00 1846.00 L 2371.00 1826.00 L 2351.00 1807.00 L 2331.00 1827.00 L 2311.00 1828.00 L 2291.00 1829.00 L 2271.00 1829.00 L 2251.00 1830.00 L 2231.00 1811.00 L 2211.00 1811.00 L 2191.00 1832.00 L 2171.00 1833.00 L 2151.00 1813.00 L 2131.00 1814.00 L 2111.00 1815.00 L 2091.00 1815.00 L 2071.00 1816.00 L 2051.00 1816.00 L 2031.00 1817.00 L 2011.00 1818.00 L 1991.00 1818.00 L 1971.00 1819.00 L 1951.00 1820.00 L 1931.00 1820.00 L 1911.00 1821.00 L 1891.00 1822.00 L 1871.00 1862.00 L 1851.00 1863.00 L 1831.00 1843.00 L 1811.00 1824.00 L 1791.00 1825.00 L 1771.00 1825.00 L 1751.00 1826.00 L 1731.00 1827.00 L 1711.00 1827.00 L 1691.00 1828.00 L 1671.00 1829.00 L 1651.00 1849.00 L 1631.00 1870.00 L 1611.00 1831.00 L 1591.00 1831.00 L 1571.00 1832.00 L 1551.00 1832.00 L 1531.00 1833.00 L 1511.00 1834.00 L 1491.00 1834.00 L 1471.00 1835.00 L 1451.00 1856.00 L 1431.00 1836.00 L 1411.00 1837.00 L 1391.00 1838.00 L 1371.00 1838.00 L 1351.00 1839.00 L 1331.00 1840.00 L 1311.00 1840.00 L 1291.00 1841.00 L 1271.00 1861.00 L 1251.00 1842.00 L 1231.00 1843.00 L 1211.00 1843.00 L 1191.00 1844.00 L 1171.00 1845.00 L 1151.00 1845.00 L 1131.00 1846.00 L 1111.00 1847.00 L 1091.00 1847.00 L 1071.00 1848.00 L 1051.00 1849.00 L 1031.00 1849.00 L 1011.00 1850.00 L 991.00 1850.00 L 971.00 1851.00 L 951.00 1852.00 L 931.00 1852.00 L 911.00 1853.00 L 891.00 1854.00 L 871.00 1854.00 L 851.00 1855.00 L 831.00 1876.00 L 811.00 1856.00 L 796.24 1856.74 L 802.41 1967.43 L 811.00 1967.00 L 831.00 1967.00 L 851.00 1966.00 L 871.00 1966.00 L 891.00 1965.00 L 911.00 1965.00 L 931.00 1964.00 L 951.00 1964.00 L 971.00 1963.00 L 991.00 1963.00 L 1011.00 1962.00 L 1031.00 1961.00 L 1051.00 1961.00 L 1071.00 1960.00 L 1091.00 1960.00 L 1111.00 1959.00 L 1131.00 1959.00 L 1151.00 1958.00 L 1171.00 1958.00 L 1191.00 1957.00 L 1211.00 1957.00 L 1231.00 1956.00 L 1251.00 1955.00 L 1271.00 1955.00 L 1291.00 1954.00 L 1311.00 1954.00 L 1331.00 1953.00 L 1351.00 1953.00 L 1371.00 1952.00 L 1391.00 1952.00 L 1411.00 1951.00 L 1431.00 1951.00 L 1451.00 1950.00 L 1471.00 1949.00 L 1491.00 1949.00 L 1511.00 1948.00 L 1531.00 1948.00 L 1551.00 1947.00 L 1571.00 1947.00 L 1591.00 1946.00 L 1611.00 1946.00 L 1631.00 1945.00 L 1651.00 1945.00 L 1671.00 1944.00 L 1691.00 1943.00 L 1711.00 1943.00 L 1731.00 1942.00 L 1751.00 1942.00 L 1771.00 1941.00 L 1791.00 1941.00 L 1811.00 1940.00 L 1831.00 1940.00 L 1851.00 1939.00 L 1871.00 1939.00 L 1891.00 1938.00 L 1911.00 1958.00 L 1931.00 1937.00 L 1951.00 1936.00 L 1971.00 1936.00 L 1991.00 1935.00 L 2011.00 1935.00 L 2031.00 1934.00 L 2051.00 1934.00 L 2071.00 1933.00 L 2091.00 1933.00 L 2111.00 1932.00 L 2131.00 1932.00 L 2151.00 1931.00 L 2171.00 1930.00 L 2191.00 1930.00 L 2211.00 1929.00 L 2231.00 1929.00 L 2251.00 1928.00 L 2271.00 1928.00 L 2291.00 1927.00 L 2311.00 1927.00 L 2331.00 1926.00 L 2351.00 1926.00 L 2371.00 1925.00 L 2391.00 1924.00 L 2411.00 1924.00 L 2431.00 1923.00 L 2451.00 1923.00 L 2471.00 1922.00 L 2491.00 1922.00 L 2511.00 1921.00 L 2531.00 1921.00 L 2551.00 1920.00 L 2571.00 1940.00 L 2591.00 1919.00 L 2611.00 1918.00 L 2631.00 1918.00 L 2651.00 1917.00 L 2671.00 1917.00 L 2691.00 1916.00 L 2711.00 1916.00 L 2731.00 1915.00 L 2751.00 1915.00 L 2771.00 1914.00 L 2791.00 1914.00 L 2811.00 1913.00 L 2831.00 1912.00 L 2851.00 1912.00 L 2871.00 1911.00 L 2891.00 1911.00 L 2911.00 1910.00 L 2931.00 1910.00 L 2946.86 1909.21 L 2911.28 1788.99 Z" />
<path id="csg562-058-11" fill="none" stroke="black" stroke-width="1" d="M 2946.86 1909.21 L 2931.00 1910.00 L 2911.00 1910.00 L 2891.00 1911.00 L 2871.00 1911.00 L 2851.00 1912.00 L 2831.00 1912.00 L 2811.00 1913.00 L 2791.00 1914.00 L 2771.00 1914.00 L 2751.00 1915.00 L 2731.00 1915.00 L 2711.00 1916.00 L 2691.00 1916.00 L 2671.00 1917.00 L 2651.00 1917.00 L 2631.00 1918.00 L 2611.00 1918.00 L 2591.00 1919.00 L 2571.00 1940.00 L 2551.00 1920.00 L 2531.00 1921.00 L 2511.00 1921.00 L 2491.00 1922.00 L 2471.00 1922.00 L 2451.00 1923.00 L 2431.00 1923.00 L 2411.00 1924.00 L 2391.00 1924.00 L 2371.00 1925.00 L 2351.00 1926.00 L 2331.00 1926.00 L 2311.00 1927.00 L 2291.00 1927.00 L 2271.00 1928.00 L 2251.00 1928.00 L 2231.00 1929.00 L 2211.00 1929.00 L 2191.00 1930.00 L 2171.00 1930.00 L 2151.00 1931.00 L 2131.00 1932.00 L 2111.00 1932.00 L 2091.00 1933.00 L 2071.00 1933.00 L 2051.00 1934.00 L 2031.00 1934.00 L 2011.00 1935.00 L 1991.00 1935.00 L 1971.00 1936.00 L 1951.00 1936.00 L 1931.00 1937.00 L 1911.00 1958.00 L 1891.00 1938.00 L 1871.00 1939.00 L 1851.00 1939.00 L 1831.00 1940.00 L 1811.00 1940.00 L 1791.00 1941.00 L 1771.00 1941.00 L 1751.00 1942.00 L 1731.00 1942.00 L 1711.00 1943.00 L 1691.00 1943.00 L 1671.00 1944.00 L 1651.00 1945.00 L 1631.00 1945.00 L 1611.00 1946.00 L 1591.00 1946.00 L 1571.00 1947.00 L 1551.00 1947.00 L 1531.00 1948.00 L 1511.00 1948.00 L 1491.00 1949.00 L 1471.00 1949.00 L 1451.00 1950.00 L 1431.00 1951.00 L 1411.00 1951.00 L 1391.00 1952.00 L 1371.00 1952.00 L 1351.00 1953.00 L 1331.00 1953.00 L 1311.00 1954.00 L 1291.00 1954.00 L 1271.00 1955.00 L 1251.00 1955.00 L 1231.00 1956.00 L 1211.00 1957.00 L 1191.00 1957.00 L 1171.00 1958.00 L 1151.00 1958.00 L 1131.00 1959.00 L 1111.00 1959.00 L 1091.00 1960.00 L 1071.00 1960.00 L 1051.00 1961.00 L 1031.00 1961.00 L 1011.00 1962.00 L 991.00 1963.00 L 971.00 1963.00 L 951.00 1964.00 L 931.00 1964.00 L 911.00 1965.00 L 891.00 1965.00 L 871.00 1966.00 L 851.00 1966.00 L 831.00 1967.00 L 811.00 1967.00 L 802.41 1967.43 L 809.36 2092.08 L 811.00 2092.00 L 831.00 2092.00 L 851.00 2111.00 L 871.00 2091.00 L 891.00 2090.00 L 911.00 2090.00 L 931.00 2089.00 L 951.00 2089.00 L 971.00 2088.00 L 991.00 2088.00 L 1011.00 2087.00 L 1031.00 2087.00 L 1051.00 2086.00 L 1071.00 2086.00 L 1091.00 2085.00 L 1111.00 2085.00 L 1131.00 2084.00 L 1151.00 2084.00 L 1171.00 2083.00 L 1191.00 2083.00 L 1211.00 2082.00 L 1231.00 2082.00 L 1251.00 2081.00 L 1271.00 2081.00 L 1291.00 2080.00 L 1311.00 2079.00 L 1331.00 2079.00 L 1351.00 2078.00 L 1371.00 2078.00 L 1391.00 2077.00 L 1411.00 2077.00 L 1431.00 2076.00 L 1451.00 2076.00 L 1471.00 2075.00 L 1491.00 2075.00 L 1511.00 2074.00 L 1531.00 2074.00 L 1551.00 2093.00 L 1571.00 2093.00 L 1591.00 2072.00 L 1611.00 2072.00 L 1631.00 2071.00 L 1651.00 2071.00 L 1671.00 2070.00 L 1691.00 2070.00 L 1711.00 2069.00 L 1731.00 2049.00 L 1751.00 2068.00 L 1771.00 2068.00 L 1791.00 2067.00 L 1811.00 2087.00 L 1831.00 2066.00 L 1851.00 2065.00 L 1871.00 2065.00 L 1891.00 2064.00 L 1911.00 2064.00 L 1931.00 2063.00 L 1951.00 2063.00 L 1971.00 2062.00 L 1991.00 2062.00 L 2011.00 2061.00 L 2031.00 2061.00 L 2051.00 2060.00 L 2071.00 2060.00 L 2091.00 2059.00 L 2111.00 2079.00 L 2131.00 2078.00 L 2151.00 2058.00 L 2171.00 2057.00 L 2191.00 2057.00 L 2211.00 2056.00 L 2231.00 2056.00 L 2251.00 2055.00 L 2271.00 2055.00 L 2291.00 2054.00 L 2311.00 2054.00 L 2331.00 2053.00 L 2351.00 2052.00 L 2371.00 2052.00 L 2391.00 2051.00 L 2411.00 2051.00 L 2431.00 2050.00 L 2451.00 2050.00 L 2471.00 2049.00 L 2491.00 2049.00 L 2511.00 2048.00 L 2531.00 2048.00 L 2551.00 2047.00 L 2571.00 2047.00 L 2591.00 2046.00 L 2611.00 2046.00 L 2631.00 2045.00 L 2651.00 2045.00 L 2671.00 2044.00 L 2691.00 2044.00 L 2711.00 2043.00 L 2731.00 2043.00 L 2751.00 2042.00 L 2771.00 2042.00 L 2791.00 2041.00 L 2811.00 2041.00 L 2831.00 2040.00 L 2851.00 2040.00 L 2871.00 2039.00 L 2891.00 2038.00 L 2911.00 2038.00 L 2931.00 2037.00 L 2951.00 2037.00 L 2971.00 2036.00 L 2984.39 2036.00 L 2946.86 1909.21 Z" />
<path id="csg562-058-12" fill="none" stroke="black" stroke-width="1" d="M 2971.00 2036.00 L 2951.00 2037.00 L 2931.00 2037.00 L 2911.00 2038.00 L 2891.00 2038.00 L 2871.00 2039.00 L 2851.00 2040.00 L 2831.00 2040.00 L 2811.00 2041.00 L 2791.00 2041.00 L 2771.00 2042.00 L 2751.00 2042.00 L 2731.00 2043.00 L 2711.00 2043.00 L 2691.00 2044.00 L 2671.00 2044.00 L 2651.00 2045.00 L 2631.00 2045.00 L 2611.00 2046.00 L 2591.00 2046.00 L 2571.00 2047.00 L 2551.00 2047.00 L 2531.00 2048.00 L 2511.00 2048.00 L 2491.00 2049.00 L 2471.00 2049.00 L 2451.00 2050.00 L 2431.00 2050.00 L 2411.00 2051.00 L 2391.00 2051.00 L 2371.00 2052.00 L 2351.00 2052.00 L 2331.00 2053.00 L 2311.00 2054.00 L 2291.00 2054.00 L 2271.00 2055.00 L 2251.00 2055.00 L 2231.00 2056.00 L 2211.00 2056.00 L 2191.00 2057.00 L 2171.00 2057.00 L 2151.00 2058.00 L 2131.00 2078.00 L 2111.00 2079.00 L 2091.00 2059.00 L 2071.00 2060.00 L 2051.00 2060.00 L 2031.00 2061.00 L 2011.00 2061.00 L 1991.00 2062.00 L 1971.00 2062.00 L 1951.00 2063.00 L 1931.00 2063.00 L 1911.00 2064.00 L 1891.00 2064.00 L 1871.00 2065.00 L 1851.00 2065.00 L 1831.00 2066.00 L 1811.00 2087.00 L 1791.00 2067.00 L 1771.00 2068.00 L 1751.00 2068.00 L 1731.00 2049.00 L 1711.00 2069.00 L 1691.00 2070.00 L 1671.00 2070.00 L 1651.00 2071.00 L 1631.00 2071.00 L 1611.00 2072.00 L 1591.00 2072.00 L 1571.00 2093.00 L 1551.00 2093.00 L 1531.00 2074.00 L 1511.00 2074.00 L 1491.00 2075.00 L 1471.00 2075.00 L 1451.00 2076.00 L 1431.00 2076.00 L 1411.00 2077.00 L 1391.00 2077.00 L 1371.00 2078.00 L 1351.00 2078.00 L 1331.00 2079.00 L 1311.00 2079.00 L 1291.00 2080.00 L 1271.00 2081.00 L 1251.00 2081.00 L 1231.00 2082.00 L 1211.00 2082.00 L 1191.00 2083.00 L 1171.00 2083.00 L 1151.00 2084.00 L 1131.00 2084.00 L 1111.00 2085.00 L 1091.00 2085.00 L 1071.00 2086.00 L 1051.00 2086.00 L 1031.00 2087.00 L 1011.00 2087.00 L 991.00 2088.00 L 971.00 2088.00 L 951.00 2089.00 L 931.00 2089.00 L 911.00 2090.00 L 891.00 2090.00 L 871.00 2091.00 L 851.00 2111.00 L 831.00 2092.00 L 811.00 2092.00 L 809.36 2092.08 L 815.32 2199.00 L 831.00 2199.00 L 851.00 2198.00 L 871.00 2198.00 L 891.00 2197.00 L 911.00 2197.00 L 931.00 2196.00 L 951.00 2195.00 L 971.00 2195.00 L 991.00 2194.00 L 1011.00 2194.00 L 1031.00 2193.00 L 1051.00 2193.00 L 1071.00 2192.00 L 1091.00 2192.00 L 1111.00 2191.00 L 1131.00 2190.00 L 1151.00 2190.00 L 1171.00 2189.00 L 1191.00 2189.00 L 1211.00 2188.00 L 1231.00 2188.00 L 1251.00 2187.00 L 1271.00 2187.00 L 1291.00 2186.00 L 1311.00 2185.00 L 1331.00 2185.00 L 1351.00 2184.00 L 1371.00 2184.00 L 1391.00 2183.00 L 1411.00 2183.00 L 1431.00 2182.00 L 1451.00 2182.00 L 1471.00 2181.00 L 1491.00 2180.00 L 1511.00 2180.00 L 1531.00 2179.00 L 1551.00 2179.00 L 1571.00 2178.00 L 1591.00 2178.00 L 1611.00 2177.00 L 1631.00 2176.00 L 1651.00 2176.00 L 1671.00 2175.00 L 1691.00 2215.00 L 1711.00 2174.00 L 1731.00 2174.00 L 1751.00 2173.00 L 1771.00 2173.00 L 1791.00 2172.00 L 1811.00 2171.00 L 1831.00 2171.00 L 1851.00 2170.00 L 1871.00 2170.00 L 1891.00 2169.00 L 1911.00 2169.00 L 1931.00 2168.00 L 1951.00 2168.00 L 1971.00 2167.00 L 1991.00 2166.00 L 2011.00 2166.00 L 2031.00 2165.00 L 2051.00 2165.00 L 2071.00 2164.00 L 2091.00 2164.00 L 2111.00 2163.00 L 2131.00 2163.00 L 2151.00 2162.00 L 2171.00 2161.00 L 2191.00 2161.00 L 2211.00 2160.00 L 2231.00 2160.00 L 2251.00 2159.00 L 2271.00 2159.00 L 2291.00 2158.00 L 2311.00 2158.00 L 2331.00 2157.00 L 2351.00 2156.00 L 2371.00 2156.00 L 2391.00 2155.00 L 2411.00 2155.00 L 2431.00 2154.00 L 2451.00 2154.00 L 2471.00 2153.00 L 2491.00 2152.00 L 2511.00 2152.00 L 2531.00 2151.00 L 2551.00 2151.00 L 2571.00 2150.00 L 2591.00 2150.00 L 2611.00 2149.00 L 2631.00 2149.00 L 2651.00 2148.00 L 2671.00 2147.00 L 2691.00 2147.00 L 2711.00 2146.00 L 2731.00 2146.00 L 2751.00 2145.00 L 2771.00 2145.00 L 2791.00 2144.00 L 2811.00 2144.00 L 2831.00 2143.00 L 2851.00 2142.00 L 2871.00 2142.00 L 2891.00 2141.00 L 2911.00 2141.00 L 2931.00 2140.00 L 2951.00 2140.00 L 2971.00 2139.00 L 2988.35 2139.00 L 3006.00 2109.00 L 2984.39 2036.00 Z" />
<path id="csg562-058-13" fill="none" stroke="black" stroke-width="1" d="M 2971.00 2139.00 L 2951.00 2140.00 L 2931.00 2140.00 L 2911.00 2141.00 L 2891.00 2141.00 L 2871.00 2142.00 L 2851.00 2142.00 L 2831.00 2143.00 L 2811.00 2144.00 L 2791.00 2144.00 L 2771.00 2145.00 L 2751.00 2145.00 L 2731.00 2146.00 L 2711.00 2146.00 L 2691.00 2147.00 L 2671.00 2147.00 L 2651.00 2148.00 L 2631.00 2149.00 L 2611.00 2149.00 L 2591.00 2150.00 L 2571.00 2150.00 L 2551.00 2151.00 L 2531.00 2151.00 L 2511.00 2152.00 L 2491.00 2152.00 L 2471.00 2153.00 L 2451.00 2154.00 L 2431.00 2154.00 L 2411.00 2155.00 L 2391.00 2155.00 L 2371.00 2156.00 L 2351.00 2156.00 L 2331.00 2157.00 L 2311.00 2158.00 L 2291.00 2158.00 L 2271.00 2159.00 L 2251.00 2159.00 L 2231.00 2160.00 L 2211.00 2160.00 L 2191.00 2161.00 L 2171.00 2161.00 L 2151.00 2162.00 L 2131.00 2163.00 L 2111.00 2163.00 L 2091.00 2164.00 L 2071.00 2164.00 L 2051.00 2165.00 L 2031.00 2165.00 L 2011.00 2166.00 L 1991.00 2166.00 L 1971.00 2167.00 L 1951.00 2168.00 L 1931.00 2168.00 L 1911.00 2169.00 L 1891.00 2169.00 L 1871.00 2170.00 L 1851.00 2170.00 L 1831.00 2171.00 L 1811.00 2171.00 L 1791.00 2172.00 L 1771.00 2173.00 L 1751.00 2173.00 L 1731.00 2174.00 L 1711.00 2174.00 L 1691.00 2215.00 L 1671.00 2175.00 L 1651.00 2176.00 L 1631.00 2176.00 L 1611.00 2177.00 L 1591.00 2178.00 L 1571.00 2178.00 L 1551.00 2179.00 L 1531.00 2179.00 L 1511.00 2180.00 L 1491.00 2180.00 L 1471.00 2181.00 L 1451.00 2182.00 L 1431.00 2182.00 L 1411.00 2183.00 L 1391.00 2183.00 L 1371.00 2184.00 L 1351.00 2184.00 L 1331.00 2185.00 L 1311.00 2185.00 L 1291.00 2186.00 L 1271.00 2187.00 L 1251.00 2187.00 L 1231.00 2188.00 L 1211.00 2188.00 L 1191.00 2189.00 L 1171.00 2189.00 L 1151.00 2190.00 L 1131.00 2190.00 L 1111.00 2191.00 L 1091.00 2192.00 L 1071.00 2192.00 L 1051.00 2193.00 L 1031.00 2193.00 L 1011.00 2194.00 L 991.00 2194.00 L 971.00 2195.00 L 951.00 2195.00 L 931.00 2196.00 L 911.00 2197.00 L 891.00 2197.00 L 871.00 2198.00 L 851.00 2198.00 L 831.00 2199.00 L 815.32 2199.00 L 819.00 2265.00 L 818.63 2307.00 L 831.00 2307.00 L 851.00 2306.00 L 871.00 2306.00 L 891.00 2305.00 L 911.00 2305.00 L 931.00 2304.00 L 951.00 2304.00 L 971.00 2303.00 L 991.00 2303.00 L 1011.00 2302.00 L 1031.00 2302.00 L 1051.00 2301.00 L 1071.00 2301.00 L 1091.00 2300.00 L 1111.00 2300.00 L 1131.00 2299.00 L 1151.00 2299.00 L 1171.00 2298.00 L 1191.00 2298.00 L 1211.00 2297.00 L 1231.00 2317.00 L 1251.00 2316.00 L 1271.00 2316.00 L 1291.00 2295.00 L 1311.00 2295.00 L 1331.00 2294.00 L 1351.00 2294.00 L 1371.00 2293.00 L 1391.00 2293.00 L 1411.00 2292.00 L 1431.00 2292.00 L 1451.00 2291.00 L 1471.00 2291.00 L 1491.00 2310.00 L 1511.00 2330.00 L 1531.00 2289.00 L 1551.00 2289.00 L 1571.00 2288.00 L 1591.00 2288.00 L 1611.00 2287.00 L 1631.00 2287.00 L 1651.00 2286.00 L 1671.00 2285.00 L 1691.00 2285.00 L 1711.00 2284.00 L 1731.00 2284.00 L 1751.00 2283.00 L 1771.00 2283.00 L 1791.00 2282.00 L 1811.00 2282.00 L 1831.00 2281.00 L 1851.00 2281.00 L 1871.00 2280.00 L 1891.00 2280.00 L 1911.00 2279.00 L 1931.00 2279.00 L 1951.00 2278.00 L 1971.00 2278.00 L 1991.00 2277.00 L 2011.00 2277.00 L 2031.00 2276.00 L 2051.00 2276.00 L 2071.00 2275.00 L 2091.00 2275.00 L 2111.00 2274.00 L 2131.00 2274.00 L 2151.00 2273.00 L 2171.00 2273.00 L 2191.00 2272.00 L 2211.00 2272.00 L 2231.00 2271.00 L 2251.00 2271.00 L 2271.00 2270.00 L 2291.00 2270.00 L 2311.00 2269.00 L 2331.00 2269.00 L 2351.00 2268.00 L 2371.00 2268.00 L 2391.00 2267.00 L 2411.00 2267.00 L 2431.00 2266.00 L 2451.00 2266.00 L 2471.00 2265.00 L 2491.00 2265.00 L 2511.00 2264.00 L 2531.00 2263.00 L 2551.00 2263.00 L 2571.00 2262.00 L 2591.00 2262.00 L 2611.00 2261.00 L 2631.00 2261.00 L 2651.00 2260.00 L 2671.00 2260.00 L 2691.00 2259.00 L 2711.00 2259.00 L 2731.00 2254.00 L 2771.00 2254.00 L 2791.00 2257.00 L 2811.00 2276.00 L 2831.00 2256.00 L 2851.00 2255.00 L 2871.00 2255.00 L 2891.00 2254.00 L 2911.00 2254.00 L 2921.00 2253.50 L 2988.35 2139.00 Z" />
<path id="csg562-058-14" fill="none" stroke="black" stroke-width="1" d="M 2921.00 2253.50 L 2911.00 2254.00 L 2891.00 2254.00 L 2871.00 2255.00 L 2851.00 2255.00 L 2831.00 2256.00 L 2811.00 2276.00 L 2791.00 2257.00 L 2771.00 2254.00 L 2731.00 2254.00 L 2711.00 2259.00 L 2691.00 2259.00 L 2671.00 2260.00 L 2651.00 2260.00 L 2631.00 2261.00 L 2611.00 2261.00 L 2591.00 2262.00 L 2571.00 2262.00 L 2551.00 2263.00 L 2531.00 2263.00 L 2511.00 2264.00 L 2491.00 2265.00 L 2471.00 2265.00 L 2451.00 2266.00 L 2431.00 2266.00 L 2411.00 2267.00 L 2391.00 2267.00 L 2371.00 2268.00 L 2351.00 2268.00 L 2331.00 2269.00 L 2311.00 2269.00 L 2291.00 2270.00 L 2271.00 2270.00 L 2251.00 2271.00 L 2231.00 2271.00 L 2211.00 2272.00 L 2191.00 2272.00 L 2171.00 2273.00 L 2151.00 2273.00 L 2131.00 2274.00 L 2111.00 2274.00 L 2091.00 2275.00 L 2071.00 2275.00 L 2051.00 2276.00 L 2031.00 2276.00 L 2011.00 2277.00 L 1991.00 2277.00 L 1971.00 2278.00 L 1951.00 2278.00 L 1931.00 2279.00 L 1911.00 2279.00 L 1891.00 2280.00 L 1871.00 2280.00 L 1851.00 2281.00 L 1831.00 2281.00 L 1811.00 2282.00 L 1791.00 2282.00 L 1771.00 2283.00 L 1751.00 2283.00 L 1731.00 2284.00 L 1711.00 2284.00 L 1691.00 2285.00 L 1671.00 2285.00 L 1651.00 2286.00 L 1631.00 2287.00 L 1611.00 2287.00 L 1591.00 2288.00 L 1571.00 2288.00 L 1551.00 2289.00 L 1531.00 2289.00 L 1511.00 2330.00 L 1491.00 2310.00 L 1471.00 2291.00 L 1451.00 2291.00 L 1431.00 2292.00 L 1411.00 2292.00 L 1391.00 2293.00 L 1371.00 2293.00 L 1351.00 2294.00 L 1331.00 2294.00 L 1311.00 2295.00 L 1291.00 2295.00 L 1271.00 2316.00 L 1251.00 2316.00 L 1231.00 2317.00 L 1211.00 2297.00 L 1191.00 2298.00 L 1171.00 2298.00 L 1151.00 2299.00 L 1131.00 2299.00 L 1111.00 2300.00 L 1091.00 2300.00 L 1071.00 2301.00 L 1051.00 2301.00 L 1031.00 2302.00 L 1011.00 2302.00 L 991.00 2303.00 L 971.00 2303.00 L 951.00 2304.00 L 931.00 2304.00 L 911.00 2305.00 L 891.00 2305.00 L 871.00 2306.00 L 851.00 2306.00 L 831.00 2307.00 L 818.63 2307.00 L 817.69 2415.00 L 831.00 2415.00 L 851.00 2414.00 L 871.00 2414.00 L 891.00 2413.00 L 911.00 2413.00 L 931.00 2412.00 L 951.00 2412.00 L 971.00 2411.00 L 991.00 2410.00 L 1011.00 2410.00 L 1031.00 2409.00 L 1051.00 2409.00 L 1071.00 2408.00 L 1091.00 2408.00 L 1111.00 2407.00 L 1131.00 2407.00 L 1151.00 2426.00 L 1171.00 2426.00 L 1191.00 2425.00 L 1211.00 2424.00 L 1231.00 2404.00 L 1251.00 2403.00 L 1271.00 2403.00 L 1291.00 2402.00 L 1311.00 2402.00 L 1331.00 2401.00 L 1351.00 2401.00 L 1371.00 2400.00 L 1391.00 2400.00 L 1411.00 2399.00 L 1431.00 2398.00 L 1451.00 2398.00 L 1471.00 2397.00 L 1491.00 2397.00 L 1511.00 2396.00 L 1531.00 2396.00 L 1551.00 2395.00 L 1571.00 2395.00 L 1591.00 2394.00 L 1611.00 2394.00 L 1631.00 2393.00 L 1651.00 2392.00 L 1671.00 2392.00 L 1691.00 2391.00 L 1711.00 2391.00 L 1731.00 2390.00 L 1751.00 2390.00 L 1771.00 2389.00 L 1791.00 2389.00 L 1811.00 2388.00 L 1831.00 2388.00 L 1851.00 2387.00 L 1871.00 2386.00 L 1891.00 2386.00 L 1911.00 2385.00 L 1931.00 2385.00 L 1951.00 2384.00 L 1971.00 2384.00 L 1991.00 2383.00 L 2011.00 2383.00 L 2031.00 2382.00 L 2051.00 2382.00 L 2071.00 2381.00 L 2091.00 2380.00 L 2111.00 2380.00 L 2131.00 2379.00 L 2151.00 2379.00 L 2171.00 2378.00 L 2191.00 2378.00 L 2211.00 2377.00 L 2231.00 2417.00 L 2251.00 2416.00 L 2271.00 2375.00 L 2291.00 2375.00 L 2311.00 2374.00 L 2331.00 2374.00 L 2351.00 2373.00 L 2371.00 2373.00 L 2391.00 2372.00 L 2411.00 2372.00 L 2431.00 2371.00 L 2451.00 2371.00 L 2471.00 2390.00 L 2491.00 2389.00 L 2511.00 2389.00 L 2531.00 2368.00 L 2551.00 2368.00 L 2571.00 2367.00 L 2591.00 2367.00 L 2611.00 2366.00 L 2631.00 2386.00 L 2651.00 2405.00 L 2671.00 2365.00 L 2691.00 2364.00 L 2711.00 2383.00 L 2731.00 2363.00 L 2751.00 2362.00 L 2771.00 2362.00 L 2791.00 2361.00 L 2811.00 2361.00 L 2831.00 2360.00 L 2851.00 2360.00 L 2871.00 2359.00 L 2883.77 2359.00 L 2886.00 2313.00 L 2921.00 2253.50 Z" />
<path id="csg562-058-15" fill="none" stroke="black" stroke-width="1" d="M 2871.00 2359.00 L 2851.00 2360.00 L 2831.00 2360.00 L 2811.00 2361.00 L 2791.00 2361.00 L 2771.00 2362.00 L 2751.00 2362.00 L 2731.00 2363.00 L 2711.00 2383.00 L 2691.00 2364.00 L 2671.00 2365.00 L 2651.00 2405.00 L 2631.00 2386.00 L 2611.00 2366.00 L 2591.00 2367.00 L 2571.00 2367.00 L 2551.00 2368.00 L 2531.00 2368.00 L 2511.00 2389.00 L 2491.00 2389.00 L 2471.00 2390.00 L 2451.00 2371.00 L 2431.00 2371.00 L 2411.00 2372.00 L 2391.00 2372.00 L 2371.00 2373.00 L 2351.00 2373.00 L 2331.00 2374.00 L 2311.00 2374.00 L 2291.00 2375.00 L 2271.00 2375.00 L 2251.00 2416.00 L 2231.00 2417.00 L 2211.00 2377.00 L 2191.00 2378.00 L 2171.00 2378.00 L 2151.00 2379.00 L 2131.00 2379.00 L 2111.00 2380.00 L 2091.00 2380.00 L 2071.00 2381.00 L 2051.00 2382.00 L 2031.00 2382.00 L 2011.00 2383.00 L 1991.00 2383.00 L 1971.00 2384.00 L 1951.00 2384.00 L 1931.00 2385.00 L 1911.00 2385.00 L 1891.00 2386.00 L 1871.00 2386.00 L 1851.00 2387.00 L 1831.00 2388.00 L 1811.00 2388.00 L 1791.00 2389.00 L 1771.00 2389.00 L 1751.00 2390.00 L 1731.00 2390.00 L 1711.00 2391.00 L 1691.00 2391.00 L 1671.00 2392.00 L 1651.00 2392.00 L 1631.00 2393.00 L 1611.00 2394.00 L 1591.00 2394.00 L 1571.00 2395.00 L 1551.00 2395.00 L 1531.00 2396.00 L 1511.00 2396.00 L 1491.00 2397.00 L 1471.00 2397.00 L 1451.00 2398.00 L 1431.00 2398.00 L 1411.00 2399.00 L 1391.00 2400.00 L 1371.00 2400.00 L 1351.00 2401.00 L 1331.00 2401.00 L 1311.00 2402.00 L 1291.00 2402.00 L 1271.00 2403.00 L 1251.00 2403.00 L 1231.00 2404.00 L 1211.00 2424.00 L 1191.00 2425.00 L 1171.00 2426.00 L 1151.00 2426.00 L 1131.00 2407.00 L 1111.00 2407.00 L 1091.00 2408.00 L 1071.00 2408.00 L 1051.00 2409.00 L 1031.00 2409.00 L 1011.00 2410.00 L 991.00 2410.00 L 971.00 2411.00 L 951.00 2412.00 L 931.00 2412.00 L 911.00 2413.00 L 891.00 2413.00 L 871.00 2414.00 L 851.00 2414.00 L 831.00 2415.00 L 817.69 2415.00 L 816.64 2535.00 L 831.00 2535.00 L 851.00 2534.00 L 871.00 2554.00 L 891.00 2553.00 L 911.00 2532.00 L 931.00 2532.00 L 951.00 2531.00 L 971.00 2531.00 L 991.00 2530.00 L 1011.00 2529.00 L 1031.00 2529.00 L 1051.00 2528.00 L 1071.00 2528.00 L 1091.00 2527.00 L 1111.00 2526.00 L 1131.00 2526.00 L 1151.00 2525.00 L 1171.00 2525.00 L 1191.00 2524.00 L 1211.00 2523.00 L 1231.00 2543.00 L 1251.00 2522.00 L 1271.00 2522.00 L 1291.00 2521.00 L 1311.00 2520.00 L 1331.00 2520.00 L 1351.00 2519.00 L 1371.00 2519.00 L 1391.00 2518.00 L 1411.00 2517.00 L 1431.00 2517.00 L 1451.00 2516.00 L 1471.00 2516.00 L 1491.00 2515.00 L 1511.00 2534.00 L 1531.00 2534.00 L 1551.00 2513.00 L 1571.00 2513.00 L 1591.00 2512.00 L 1611.00 2511.00 L 1631.00 2511.00 L 1651.00 2510.00 L 1671.00 2510.00 L 1691.00 2509.00 L 1711.00 2508.00 L 1731.00 2508.00 L 1751.00 2507.00 L 1771.00 2507.00 L 1791.00 2506.00 L 1811.00 2505.00 L 1831.00 2505.00 L 1851.00 2504.00 L 1871.00 2504.00 L 1891.00 2523.00 L 1911.00 2522.00 L 1931.00 2522.00 L 1951.00 2501.00 L 1971.00 2501.00 L 1991.00 2500.00 L 2011.00 2499.00 L 2031.00 2499.00 L 2051.00 2498.00 L 2071.00 2498.00 L 2091.00 2497.00 L 2111.00 2496.00 L 2131.00 2496.00 L 2151.00 2495.00 L 2171.00 2495.00 L 2191.00 2494.00 L 2211.00 2493.00 L 2231.00 2493.00 L 2251.00 2492.00 L 2271.00 2492.00 L 2291.00 2491.00 L 2311.00 2490.00 L 2331.00 2510.00 L 2351.00 2509.00 L 2371.00 2489.00 L 2391.00 2488.00 L 2411.00 2487.00 L 2431.00 2487.00 L 2451.00 2486.00 L 2471.00 2486.00 L 2491.00 2485.00 L 2511.00 2484.00 L 2531.00 2484.00 L 2551.00 2483.00 L 2571.00 2483.00 L 2591.00 2502.00 L 2611.00 2501.00 L 2631.00 2501.00 L 2651.00 2480.00 L 2671.00 2480.00 L 2691.00 2479.00 L 2711.00 2478.00 L 2731.00 2478.00 L 2751.00 2477.00 L 2771.00 2477.00 L 2791.00 2476.00 L 2811.00 2475.00 L 2831.00 2475.00 L 2851.00 2474.00 L 2871.00 2474.00 L 2878.20 2473.64 L 2883.77 2359.00 Z" />
<path id="csg562-058-16" fill="none" stroke="black" stroke-width="1" d="M 2878.20 2473.64 L 2871.00 2474.00 L 2851.00 2474.00 L 2831.00 2475.00 L 2811.00 2475.00 L 2791.00 2476.00 L 2771.00 2477.00 L 2751.00 2477.00 L 2731.00 2478.00 L 2711.00 2478.00 L 2691.00 2479.00 L 2671.00 2480.00 L 2651.00 2480.00 L 2631.00 2501.00 L 2611.00 2501.00 L 2591.00 2502.00 L 2571.00 2483.00 L 2551.00 2483.00 L 2531.00 2484.00 L 2511.00 2484.00 L 2491.00 2485.00 L 2471.00 2486.00 L 2451.00 2486.00 L 2431.00 2487.00 L 2411.00 2487.00 L 2391.00 2488.00 L 2371.00 2489.00 L 2351.00 2509.00 L 2331.00 2510.00 L 2311.00 2490.00 L 2291.00 2491.00 L 2271.00 2492.00 L 2251.00 2492.00 L 2231.00 2493.00 L 2211.00 2493.00 L 2191.00 2494.00 L 2171.00 2495.00 L 2151.00 2495.00 L 2131.00 2496.00 L 2111.00 2496.00 L 2091.00 2497.00 L 2071.00 2498.00 L 2051.00 2498.00 L 2031.00 2499.00 L 2011.00 2499.00 L 1991.00 2500.00 L 1971.00 2501.00 L 1951.00 2501.00 L 1931.00 2522.00 L 1911.00 2522.00 L 1891.00 2523.00 L 1871.00 2504.00 L 1851.00 2504.00 L 1831.00 2505.00 L 1811.00 2505.00 L 1791.00 2506.00 L 1771.00 2507.00 L 1751.00 2507.00 L 1731.00 2508.00 L 1711.00 2508.00 L 1691.00 2509.00 L 1671.00 2510.00 L 1651.00 2510.00 L 1631.00 2511.00 L 1611.00 2511.00 L 1591.00 2512.00 L 1571.00 2513.00 L 1551.00 2513.00 L 1531.00 2534.00 L 1511.00 2534.00 L 1491.00 2515.00 L 1471.00 2516.00 L 1451.00 2516.00 L 1431.00 2517.00 L 1411.00 2517.00 L 1391.00 2518.00 L 1371.00 2519.00 L 1351.00 2519.00 L 1331.00 2520.00 L 1311.00 2520.00 L 1291.00 2521.00 L 1271.00 2522.00 L 1251.00 2522.00 L 1231.00 2543.00 L 1211.00 2523.00 L 1191.00 2524.00 L 1171.00 2525.00 L 1151.00 2525.00 L 1131.00 2526.00 L 1111.00 2526.00 L 1091.00 2527.00 L 1071.00 2528.00 L 1051.00 2528.00 L 1031.00 2529.00 L 1011.00 2529.00 L 991.00 2530.00 L 971.00 2531.00 L 951.00 2531.00 L 931.00 2532.00 L 911.00 2532.00 L 891.00 2553.00 L 871.00 2554.00 L 851.00 2534.00 L 831.00 2535.00 L 816.64 2535.00 L 815.69 2643.77 L 815.69 2643.77 L 831.00 2643.00 L 851.00 2643.00 L 871.00 2642.00 L 891.00 2642.00 L 911.00 2641.00 L 931.00 2641.00 L 951.00 2640.00 L 971.00 2640.00 L 991.00 2639.00 L 1011.00 2639.00 L 1031.00 2638.00 L 1051.00 2638.00 L 1071.00 2637.00 L 1091.00 2637.00 L 1111.00 2636.00 L 1131.00 2636.00 L 1151.00 2635.00 L 1171.00 2635.00 L 1191.00 2634.00 L 1211.00 2634.00 L 1231.00 2633.00 L 1251.00 2633.00 L 1271.00 2632.00 L 1291.00 2632.00 L 1311.00 2631.00 L 1331.00 2631.00 L 1351.00 2630.00 L 1371.00 2630.00 L 1391.00 2629.00 L 1411.00 2629.00 L 1431.00 2628.00 L 1451.00 2628.00 L 1471.00 2627.00 L 1491.00 2627.00 L 1511.00 2626.00 L 1531.00 2626.00 L 1551.00 2625.00 L 1571.00 2625.00 L 1591.00 2624.00 L 1611.00 2624.00 L 1631.00 2623.00 L 1651.00 2623.00 L 1671.00 2622.00 L 1691.00 2622.00 L 1711.00 2621.00 L 1731.00 2621.00 L 1751.00 2620.00 L 1771.00 2620.00 L 1791.00 2619.00 L 1811.00 2619.00 L 1831.00 2618.00 L 1851.00 2618.00 L 1871.00 2617.00 L 1891.00 2617.00 L 1911.00 2616.00 L 1931.00 2616.00 L 1951.00 2615.00 L 1971.00 2615.00 L 1991.00 2614.00 L 2011.00 2614.00 L 2031.00 2613.00 L 2051.00 2613.00 L 2071.00 2612.00 L 2091.00 2612.00 L 2111.00 2611.00 L 2131.00 2611.00 L 2151.00 2610.00 L 2171.00 2610.00 L 2191.00 2609.00 L 2211.00 2609.00 L 2231.00 2608.00 L 2251.00 2608.00 L 2271.00 2647.00 L 2291.00 2607.00 L 2311.00 2606.00 L 2331.00 2606.00 L 2351.00 2605.00 L 2371.00 2605.00 L 2391.00 2604.00 L 2411.00 2604.00 L 2431.00 2603.00 L 2451.00 2603.00 L 2471.00 2602.00 L 2491.00 2602.00 L 2511.00 2601.00 L 2531.00 2601.00 L 2551.00 2600.00 L 2571.00 2600.00 L 2591.00 2599.00 L 2611.00 2599.00 L 2631.00 2598.00 L 2651.00 2598.00 L 2671.00 2597.00 L 2691.00 2597.00 L 2711.00 2596.00 L 2731.00 2596.00 L 2751.00 2595.00 L 2771.00 2595.00 L 2791.00 2594.00 L 2811.00 2594.00 L 2831.00 2593.00 L 2851.00 2593.00 L 2871.00 2592.00 L 2872.46 2592.00 L 2878.20 2473.64 Z" />
<path id="csg562-058-17" fill="none" stroke="black" stroke-width="1" d="M 2871.00 2592.00 L 2851.00 2593.00 L 2831.00 2593.00 L 2811.00 2594.00 L 2791.00 2594.00 L 2771.00 2595.00 L 2751.00 2595.00 L 2731.00 2596.00 L 2711.00 2596.00 L 2691.00 2597.00 L 2671.00 2597.00 L 2651.00 2598.00 L 2631.00 2598.00 L 2611.00 2599.00 L 2591.00 2599.00 L 2571.00 2600.00 L 2551.00 2600.00 L 2531.00 2601.00 L 2511.00 2601.00 L 2491.00 2602.00 L 2471.00 2602.00 L 2451.00 2603.00 L 2431.00 2603.00 L 2411.00 2604.00 L 2391.00 2604.00 L 2371.00 2605.00 L 2351.00 2605.00 L 2331.00 2606.00 L 2311.00 2606.00 L 2291.00 2607.00 L 2271.00 2647.00 L 2251.00 2608.00 L 2231.00 2608.00 L 2211.00 2609.00 L 2191.00 2609.00 L 2171.00 2610.00 L 2151.00 2610.00 L 2131.00 2611.00 L 2111.00 2611.00 L 2091.00 2612.00 L 2071.00 2612.00 L 2051.00 2613.00 L 2031.00 2613.00 L 2011.00 2614.00 L 1991.00 2614.00 L 1971.00 2615.00 L 1951.00 2615.00 L 1931.00 2616.00 L 1911.00 2616.00 L 1891.00 2617.00 L 1871.00 2617.00 L 1851.00 2618.00 L 1831.00 2618.00 L 1811.00 2619.00 L 1791.00 2619.00 L 1771.00 2620.00 L 1751.00 2620.00 L 1731.00 2621.00 L 1711.00 2621.00 L 1691.00 2622.00 L 1671.00 2622.00 L 1651.00 2623.00 L 1631.00 2623.00 L 1611.00 2624.00 L 1591.00 2624.00 L 1571.00 2625.00 L 1551.00 2625.00 L 1531.00 2626.00 L 1511.00 2626.00 L 1491.00 2627.00 L 1471.00 2627.00 L 1451.00 2628.00 L 1431.00 2628.00 L 1411.00 2629.00 L 1391.00 2629.00 L 1371.00 2630.00 L 1351.00 2630.00 L 1331.00 2631.00 L 1311.00 2631.00 L 1291.00 2632.00 L 1271.00 2632.00 L 1251.00 2633.00 L 1231.00 2633.00 L 1211.00 2634.00 L 1191.00 2634.00 L 1171.00 2635.00 L 1151.00 2635.00 L 1131.00 2636.00 L 1111.00 2636.00 L 1091.00 2637.00 L 1071.00 2637.00 L 1051.00 2638.00 L 1031.00 2638.00 L 1011.00 2639.00 L 991.00 2639.00 L 971.00 2640.00 L 951.00 2640.00 L 931.00 2641.00 L 911.00 2641.00 L 891.00 2642.00 L 871.00 2642.00 L 851.00 2643.00 L 831.00 2643.00 L 815.69 2643.77 L 814.77 2749.81 L 831.00 2749.00 L 851.00 2749.00 L 871.00 2748.00 L 891.00 2748.00 L 911.00 2747.00 L 931.00 2747.00 L 951.00 2746.00 L 971.00 2746.00 L 991.00 2765.00 L 1011.00 2765.00 L 1031.00 2764.00 L 1051.00 2744.00 L 1071.00 2743.00 L 1091.00 2743.00 L 1111.00 2742.00 L 1131.00 2742.00 L 1151.00 2741.00 L 1171.00 2741.00 L 1191.00 2740.00 L 1211.00 2740.00 L 1231.00 2739.00 L 1271.00 2739.00 L 1291.00 2738.00 L 1311.00 2738.00 L 1331.00 2737.00 L 1351.00 2737.00 L 1371.00 2736.00 L 1391.00 2736.00 L 1411.00 2735.00 L 1431.00 2735.00 L 1451.00 2734.00 L 1471.00 2734.00 L 1491.00 2733.00 L 1511.00 2733.00 L 1531.00 2732.00 L 1551.00 2732.00 L 1571.00 2731.00 L 1591.00 2731.00 L 1611.00 2730.00 L 1631.00 2730.00 L 1651.00 2729.00 L 1671.00 2729.00 L 1691.00 2728.00 L 1711.00 2728.00 L 1731.00 2727.00 L 1771.00 2727.00 L 1791.00 2726.00 L 1811.00 2726.00 L 1831.00 2725.00 L 1851.00 2725.00 L 1871.00 2724.00 L 1891.00 2724.00 L 1911.00 2723.00 L 1931.00 2723.00 L 1951.00 2722.00 L 1971.00 2722.00 L 1991.00 2721.00 L 2011.00 2721.00 L 2031.00 2720.00 L 2051.00 2720.00 L 2071.00 2719.00 L 2091.00 2739.00 L 2111.00 2738.00 L 2131.00 2738.00 L 2151.00 2717.00 L 2171.00 2717.00 L 2191.00 2716.00 L 2211.00 2716.00 L 2231.00 2715.00 L 2271.00 2715.00 L 2291.00 2714.00 L 2311.00 2714.00 L 2331.00 2713.00 L 2351.00 2713.00 L 2371.00 2712.00 L 2391.00 2712.00 L 2411.00 2711.00 L 2431.00 2711.00 L 2451.00 2710.00 L 2471.00 2710.00 L 2491.00 2709.00 L 2511.00 2709.00 L 2531.00 2708.00 L 2551.00 2708.00 L 2571.00 2707.00 L 2591.00 2707.00 L 2611.00 2706.00 L 2631.00 2706.00 L 2651.00 2705.00 L 2671.00 2705.00 L 2691.00 2704.00 L 2711.00 2704.00 L 2731.00 2703.00 L 2771.00 2703.00 L 2791.00 2702.00 L 2811.00 2722.00 L 2831.00 2721.00 L 2851.00 2701.00 L 2871.00 2700.00 L 2891.00 2700.00 L 2911.00 2699.00 L 2921.05 2699.00 L 2871.00 2622.00 L 2872.46 2592.00 Z" />
<path id="csg562-058-18" fill="none" stroke="black" stroke-width="1" d="M 2911.00 2699.00 L 2891.00 2700.00 L 2871.00 2700.00 L 2851.00 2701.00 L 2831.00 2721.00 L 2811.00 2722.00 L 2791.00 2702.00 L 2771.00 2703.00 L 2731.00 2703.00 L 2711.00 2704.00 L 2691.00 2704.00 L 2671.00 2705.00 L 2651.00 2705.00 L 2631.00 2706.00 L 2611.00 2706.00 L 2591.00 2707.00 L 2571.00 2707.00 L 2551.00 2708.00 L 2531.00 2708.00 L 2511.00 2709.00 L 2491.00 2709.00 L 2471.00 2710.00 L 2451.00 2710.00 L 2431.00 2711.00 L 2411.00 2711.00 L 2391.00 2712.00 L 2371.00 2712.00 L 2351.00 2713.00 L 2331.00 2713.00 L 2311.00 2714.00 L 2291.00 2714.00 L 2271.00 2715.00 L 2231.00 2715.00 L 2211.00 2716.00 L 2191.00 2716.00 L 2171.00 2717.00 L 2151.00 2717.00 L 2131.00 2738.00 L 2111.00 2738.00 L 2091.00 2739.00 L 2071.00 2719.00 L 2051.00 2720.00 L 2031.00 2720.00 L 2011.00 2721.00 L 1991.00 2721.00 L 1971.00 2722.00 L 1951.00 2722.00 L 1931.00 2723.00 L 1911.00 2723.00 L 1891.00 2724.00 L 1871.00 2724.00 L 1851.00 2725.00 L 1831.00 2725.00 L 1811.00 2726.00 L 1791.00 2726.00 L 1771.00 2727.00 L 1731.00 2727.00 L 1711.00 2728.00 L 1691.00 2728.00 L 1671.00 2729.00 L 1651.00 2729.00 L 1631.00 2730.00 L 1611.00 2730.00 L 1591.00 2731.00 L 1571.00 2731.00 L 1551.00 2732.00 L 1531.00 2732.00 L 1511.00 2733.00 L 1491.00 2733.00 L 1471.00 2734.00 L 1451.00 2734.00 L 1431.00 2735.00 L 1411.00 2735.00 L 1391.00 2736.00 L 1371.00 2736.00 L 1351.00 2737.00 L 1331.00 2737.00 L 1311.00 2738.00 L 1291.00 2738.00 L 1271.00 2739.00 L 1231.00 2739.00 L 1211.00 2740.00 L 1191.00 2740.00 L 1171.00 2741.00 L 1151.00 2741.00 L 1131.00 2742.00 L 1111.00 2742.00 L 1091.00 2743.00 L 1071.00 2743.00 L 1051.00 2744.00 L 1031.00 2764.00 L 1011.00 2765.00 L 991.00 2765.00 L 971.00 2746.00 L 951.00 2746.00 L 931.00 2747.00 L 911.00 2747.00 L 891.00 2748.00 L 871.00 2748.00 L 851.00 2749.00 L 831.00 2749.00 L 814.77 2749.81 L 813.71 2871.00 L 831.00 2871.00 L 851.00 2870.00 L 871.00 2869.00 L 891.00 2869.00 L 911.00 2868.00 L 931.00 2867.00 L 951.00 2867.00 L 971.00 2866.00 L 991.00 2866.00 L 1011.00 2865.00 L 1031.00 2864.00 L 1051.00 2884.00 L 1071.00 2883.00 L 1091.00 2882.00 L 1111.00 2862.00 L 1131.00 2881.00 L 1151.00 2860.00 L 1171.00 2860.00 L 1191.00 2859.00 L 1211.00 2859.00 L 1231.00 2858.00 L 1251.00 2857.00 L 1271.00 2857.00 L 1291.00 2856.00 L 1311.00 2855.00 L 1331.00 2855.00 L 1351.00 2854.00 L 1371.00 2854.00 L 1391.00 2853.00 L 1411.00 2852.00 L 1431.00 2852.00 L 1451.00 2851.00 L 1471.00 2850.00 L 1491.00 2850.00 L 1511.00 2849.00 L 1531.00 2848.00 L 1551.00 2848.00 L 1571.00 2847.00 L 1591.00 2847.00 L 1611.00 2846.00 L 1631.00 2845.00 L 1651.00 2845.00 L 1671.00 2844.00 L 1691.00 2843.00 L 1711.00 2843.00 L 1731.00 2842.00 L 1751.00 2841.00 L 1771.00 2841.00 L 1791.00 2840.00 L 1811.00 2840.00 L 1831.00 2839.00 L 1851.00 2838.00 L 1871.00 2838.00 L 1891.00 2837.00 L 1911.00 2836.00 L 1931.00 2836.00 L 1951.00 2835.00 L 1971.00 2835.00 L 1991.00 2834.00 L 2011.00 2833.00 L 2031.00 2833.00 L 2051.00 2832.00 L 2071.00 2831.00 L 2091.00 2831.00 L 2111.00 2830.00 L 2131.00 2829.00 L 2151.00 2829.00 L 2171.00 2828.00 L 2191.00 2828.00 L 2211.00 2827.00 L 2231.00 2826.00 L 2251.00 2826.00 L 2271.00 2825.00 L 2291.00 2824.00 L 2311.00 2824.00 L 2331.00 2823.00 L 2351.00 2822.00 L 2371.00 2822.00 L 2391.00 2821.00 L 2411.00 2821.00 L 2431.00 2820.00 L 2451.00 2819.00 L 2471.00 2819.00 L 2491.00 2818.00 L 2511.00 2817.00 L 2531.00 2817.00 L 2551.00 2816.00 L 2571.00 2816.00 L 2591.00 2815.00 L 2611.00 2814.00 L 2631.00 2814.00 L 2651.00 2813.00 L 2671.00 2812.00 L 2691.00 2812.00 L 2711.00 2811.00 L 2731.00 2810.00 L 2751.00 2810.00 L 2771.00 2809.00 L 2791.00 2809.00 L 2811.00 2808.00 L 2831.00 2827.00 L 2851.00 2827.00 L 2871.00 2806.00 L 2891.00 2805.00 L 2911.00 2805.00 L 2931.00 2804.00 L 2949.00 2804.00 L 2949.00 2742.00 L 2921.05 2699.00 Z" />
<path id="csg562-058-19" fill="none" stroke="black" stroke-width="1" d="M 2931.00 2804.00 L 2911.00 2805.00 L 2891.00 2805.00 L 2871.00 2806.00 L 2851.00 2827.00 L 2831.00 2827.00 L 2811.00 2808.00 L 2791.00 2809.00 L 2771.00 2809.00 L 2751.00 2810.00 L 2731.00 2810.00 L 2711.00 2811.00 L 2691.00 2812.00 L 2671.00 2812.00 L 2651.00 2813.00 L 2631.00 2814.00 L 2611.00 2814.00 L 2591.00 2815.00 L 2571.00 2816.00 L 2551.00 2816.00 L 2531.00 2817.00 L 2511.00 2817.00 L 2491.00 2818.00 L 2471.00 2819.00 L 2451.00 2819.00 L 2431.00 2820.00 L 2411.00 2821.00 L 2391.00 2821.00 L 2371.00 2822.00 L 2351.00 2822.00 L 2331.00 2823.00 L 2311.00 2824.00 L 2291.00 2824.00 L 2271.00 2825.00 L 2251.00 2826.00 L 2231.00 2826.00 L 2211.00 2827.00 L 2191.00 2828.00 L 2171.00 2828.00 L 2151.00 2829.00 L 2131.00 2829.00 L 2111.00 2830.00 L 2091.00 2831.00 L 2071.00 2831.00 L 2051.00 2832.00 L 2031.00 2833.00 L 2011.00 2833.00 L 1991.00 2834.00 L 1971.00 2835.00 L 1951.00 2835.00 L 1931.00 2836.00 L 1911.00 2836.00 L 1891.00 2837.00 L 1871.00 2838.00 L 1851.00 2838.00 L 1831.00 2839.00 L 1811.00 2840.00 L 1791.00 2840.00 L 1771.00 2841.00 L 1751.00 2841.00 L 1731.00 2842.00 L 1711.00 2843.00 L 1691.00 2843.00 L 1671.00 2844.00 L 1651.00 2845.00 L 1631.00 2845.00 L 1611.00 2846.00 L 1591.00 2847.00 L 1571.00 2847.00 L 1551.00 2848.00 L 1531.00 2848.00 L 1511.00 2849.00 L 1491.00 2850.00 L 1471.00 2850.00 L 1451.00 2851.00 L 1431.00 2852.00 L 1411.00 2852.00 L 1391.00 2853.00 L 1371.00 2854.00 L 1351.00 2854.00 L 1331.00 2855.00 L 1311.00 2855.00 L 1291.00 2856.00 L 1271.00 2857.00 L 1251.00 2857.00 L 1231.00 2858.00 L 1211.00 2859.00 L 1191.00 2859.00 L 1171.00 2860.00 L 1151.00 2860.00 L 1131.00 2881.00 L 1111.00 2862.00 L 1091.00 2882.00 L 1071.00 2883.00 L 1051.00 2884.00 L 1031.00 2864.00 L 1011.00 2865.00 L 991.00 2866.00 L 971.00 2866.00 L 951.00 2867.00 L 931.00 2867.00 L 911.00 2868.00 L 891.00 2869.00 L 871.00 2869.00 L 851.00 2870.00 L 831.00 2871.00 L 813.71 2871.00 L 813.00 2952.00 L 826.19 2983.00 L 831.00 2983.00 L 851.00 2982.00 L 871.00 2981.00 L 891.00 2981.00 L 911.00 2980.00 L 931.00 2979.00 L 951.00 2979.00 L 971.00 2978.00 L 991.00 2977.00 L 1011.00 2977.00 L 1031.00 2976.00 L 1051.00 2975.00 L 1071.00 2975.00 L 1091.00 2974.00 L 1111.00 2973.00 L 1131.00 2973.00 L 1151.00 2972.00 L 1171.00 2971.00 L 1191.00 2971.00 L 1211.00 2970.00 L 1231.00 2969.00 L 1251.00 2969.00 L 1271.00 2968.00 L 1291.00 2967.00 L 1311.00 2987.00 L 1331.00 2966.00 L 1351.00 2965.00 L 1371.00 2985.00 L 1391.00 2984.00 L 1411.00 2983.00 L 1431.00 2963.00 L 1451.00 2962.00 L 1471.00 2961.00 L 1491.00 2961.00 L 1511.00 2960.00 L 1531.00 2959.00 L 1551.00 2959.00 L 1571.00 2958.00 L 1591.00 2957.00 L 1611.00 2957.00 L 1631.00 2956.00 L 1651.00 2955.00 L 1671.00 2955.00 L 1691.00 2954.00 L 1711.00 2953.00 L 1731.00 2953.00 L 1751.00 2952.00 L 1771.00 2951.00 L 1791.00 2951.00 L 1811.00 2950.00 L 1831.00 2949.00 L 1851.00 2949.00 L 1871.00 2948.00 L 1891.00 2947.00 L 1911.00 2947.00 L 1931.00 2946.00 L 1951.00 2945.00 L 1971.00 2945.00 L 1991.00 2944.00 L 2011.00 2943.00 L 2031.00 2943.00 L 2051.00 2942.00 L 2071.00 2941.00 L 2091.00 2941.00 L 2111.00 2940.00 L 2131.00 2939.00 L 2151.00 2939.00 L 2171.00 2938.00 L 2191.00 2937.00 L 2211.00 2937.00 L 2231.00 2936.00 L 2251.00 2935.00 L 2271.00 2935.00 L 2291.00 2934.00 L 2311.00 2933.00 L 2331.00 2933.00 L 2351.00 2932.00 L 2371.00 2931.00 L 2391.00 2931.00 L 2411.00 2930.00 L 2431.00 2929.00 L 2451.00 2929.00 L 2471.00 2928.00 L 2491.00 2927.00 L 2511.00 2927.00 L 2531.00 2926.00 L 2551.00 2925.00 L 2571.00 2925.00 L 2591.00 2924.00 L 2611.00 2923.00 L 2631.00 2923.00 L 2651.00 2922.00 L 2671.00 2921.00 L 2691.00 2921.00 L 2711.00 2920.00 L 2731.00 2919.00 L 2751.00 2919.00 L 2771.00 2918.00 L 2791.00 2917.00 L 2811.00 2917.00 L 2831.00 2916.00 L 2851.00 2915.00 L 2871.00 2915.00 L 2891.00 2914.00 L 2911.00 2913.00 L 2931.00 2913.00 L 2949.00 2912.10 L 2949.00 2804.00 Z" />
<path id="csg562-058-20" fill="none" stroke="black" stroke-width="1" d="M 2949.00 2912.10 L 2931.00 2913.00 L 2911.00 2913.00 L 2891.00 2914.00 L 2871.00 2915.00 L 2851.00 2915.00 L 2831.00 2916.00 L 2811.00 2917.00 L 2791.00 2917.00 L 2771.00 2918.00 L 2751.00 2919.00 L 2731.00 2919.00 L 2711.00 2920.00 L 2691.00 2921.00 L 2671.00 2921.00 L 2651.00 2922.00 L 2631.00 2923.00 L 2611.00 2923.00 L 2591.00 2924.00 L 2571.00 2925.00 L 2551.00 2925.00 L 2531.00 2926.00 L 2511.00 2927.00 L 2491.00 2927.00 L 2471.00 2928.00 L 2451.00 2929.00 L 2431.00 2929.00 L 2411.00 2930.00 L 2391.00 2931.00 L 2371.00 2931.00 L 2351.00 2932.00 L 2331.00 2933.00 L 2311.00 2933.00 L 2291.00 2934.00 L 2271.00 2935.00 L 2251.00 2935.00 L 2231.00 2936.00 L 2211.00 2937.00 L 2191.00 2937.00 L 2171.00 2938.00 L 2151.00 2939.00 L 2131.00 2939.00 L 2111.00 2940.00 L 2091.00 2941.00 L 2071.00 2941.00 L 2051.00 2942.00 L 2031.00 2943.00 L 2011.00 2943.00 L 1991.00 2944.00 L 1971.00 2945.00 L 1951.00 2945.00 L 1931.00 2946.00 L 1911.00 2947.00 L 1891.00 2947.00 L 1871.00 2948.00 L 1851.00 2949.00 L 1831.00 2949.00 L 1811.00 2950.00 L 1791.00 2951.00 L 1771.00 2951.00 L 1751.00 2952.00 L 1731.00 2953.00 L 1711.00 2953.00 L 1691.00 2954.00 L 1671.00 2955.00 L 1651.00 2955.00 L 1631.00 2956.00 L 1611.00 2957.00 L 1591.00 2957.00 L 1571.00 2958.00 L 1551.00 2959.00 L 1531.00 2959.00 L 1511.00 2960.00 L 1491.00 2961.00 L 1471.00 2961.00 L 1451.00 2962.00 L 1431.00 2963.00 L 1411.00 2983.00 L 1391.00 2984.00 L 1371.00 2985.00 L 1351.00 2965.00 L 1331.00 2966.00 L 1311.00 2987.00 L 1291.00 2967.00 L 1271.00 2968.00 L 1251.00 2969.00 L 1231.00 2969.00 L 1211.00 2970.00 L 1191.00 2971.00 L 1171.00 2971.00 L 1151.00 2972.00 L 1131.00 2973.00 L 1111.00 2973.00 L 1091.00 2974.00 L 1071.00 2975.00 L 1051.00 2975.00 L 1031.00 2976.00 L 1011.00 2977.00 L 991.00 2977.00 L 971.00 2978.00 L 951.00 2979.00 L 931.00 2979.00 L 911.00 2980.00 L 891.00 2981.00 L 871.00 2981.00 L 851.00 2982.00 L 831.00 2983.00 L 826.19 2983.00 L 870.46 3087.03 L 871.00 3087.00 L 891.00 3087.00 L 911.00 3086.00 L 926.68 3100.89 L 953.69 3104.87 L 971.00 3104.00 L 991.00 3083.00 L 1011.00 3083.00 L 1031.00 3082.00 L 1051.00 3081.00 L 1071.00 3081.00 L 1091.00 3080.00 L 1111.00 3079.00 L 1131.00 3079.00 L 1151.00 3078.00 L 1171.00 3077.00 L 1191.00 3077.00 L 1211.00 3076.00 L 1231.00 3075.00 L 1251.00 3075.00 L 1271.00 3074.00 L 1291.00 3073.00 L 1299.56 3087.56 L 1322.95 3086.08 L 1331.00 3072.00 L 1351.00 3071.00 L 1368.07 3071.00 L 1434.00 3000.00 L 2289.00 2946.00 L 2949.00 2922.00 L 2949.00 2912.10 Z" />
<path id="csg562-058-21" fill="none" stroke="black" stroke-width="1" d="M 2901.00 3150.00 L 2112.00 3186.00 L 1140.00 3210.00 L 882.00 3243.00 L 872.84 3308.51 L 883.00 3308.00 L 903.00 3308.00 L 923.00 3327.00 L 943.00 3327.00 L 963.00 3326.00 L 983.00 3305.00 L 1003.00 3305.00 L 1023.00 3304.00 L 1043.00 3304.00 L 1063.00 3303.00 L 1083.00 3302.00 L 1103.00 3302.00 L 1123.00 3301.00 L 1143.00 3301.00 L 1163.00 3300.00 L 1183.00 3299.00 L 1203.00 3299.00 L 1223.00 3298.00 L 1243.00 3298.00 L 1263.00 3297.00 L 1283.00 3296.00 L 1303.00 3296.00 L 1323.00 3295.00 L 1343.00 3295.00 L 1363.00 3314.00 L 1383.00 3293.00 L 1403.00 3293.00 L 1423.00 3292.00 L 1443.00 3292.00 L 1463.00 3291.00 L 1483.00 3290.00 L 1503.00 3290.00 L 1523.00 3289.00 L 1543.00 3289.00 L 1563.00 3288.00 L 1583.00 3288.00 L 1603.00 3287.00 L 1623.00 3286.00 L 1643.00 3286.00 L 1663.00 3285.00 L 1683.00 3285.00 L 1703.00 3284.00 L 1723.00 3283.00 L 1743.00 3283.00 L 1763.00 3282.00 L 1783.00 3282.00 L 1803.00 3281.00 L 1823.00 3320.00 L 1843.00 3300.00 L 1863.00 3279.00 L 1883.00 3279.00 L 1903.00 3298.00 L 1923.00 3277.00 L 1943.00 3277.00 L 1963.00 3276.00 L 1983.00 3316.00 L 2003.00 3295.00 L 2023.00 3274.00 L 2043.00 3274.00 L 2063.00 3273.00 L 2083.00 3273.00 L 2103.00 3272.00 L 2123.00 3271.00 L 2143.00 3271.00 L 2163.00 3270.00 L 2183.00 3270.00 L 2203.00 3269.00 L 2223.00 3268.00 L 2243.00 3268.00 L 2263.00 3267.00 L 2283.00 3267.00 L 2303.00 3266.00 L 2323.00 3266.00 L 2343.00 3265.00 L 2363.00 3264.00 L 2383.00 3264.00 L 2403.00 3263.00 L 2423.00 3263.00 L 2443.00 3262.00 L 2463.00 3261.00 L 2483.00 3261.00 L 2503.00 3260.00 L 2523.00 3260.00 L 2543.00 3259.00 L 2563.00 3258.00 L 2583.00 3258.00 L 2603.00 3257.00 L 2623.00 3257.00 L 2643.00 3256.00 L 2663.00 3255.00 L 2683.00 3255.00 L 2703.00 3274.00 L 2723.00 3274.00 L 2743.00 3253.00 L 2763.00 3252.00 L 2783.00 3252.00 L 2803.00 3251.00 L 2823.00 3251.00 L 2843.00 3250.00 L 2863.00 3249.00 L 2883.00 3249.00 L 2903.00 3248.00 L 2923.00 3248.00 L 2943.00 3247.00 L 2951.23 3246.59 L 2901.00 3150.00 Z" />
<path id="csg562-058-22" fill="none" stroke="black" stroke-width="1" d="M 2951.23 3246.59 L 2943.00 3247.00 L 2923.00 3248.00 L 2903.00 3248.00 L 2883.00 3249.00 L 2863.00 3249.00 L 2843.00 3250.00 L 2823.00 3251.00 L 2803.00 3251.00 L 2783.00 3252.00 L 2763.00 3252.00 L 2743.00 3253.00 L 2723.00 3274.00 L 2703.00 3274.00 L 2683.00 3255.00 L 2663.00 3255.00 L 2643.00 3256.00 L 2623.00 3257.00 L 2603.00 3257.00 L 2583.00 3258.00 L 2563.00 3258.00 L 2543.00 3259.00 L 2523.00 3260.00 L 2503.00 3260.00 L 2483.00 3261.00 L 2463.00 3261.00 L 2443.00 3262.00 L 2423.00 3263.00 L 2403.00 3263.00 L 2383.00 3264.00 L 2363.00 3264.00 L 2343.00 3265.00 L 2323.00 3266.00 L 2303.00 3266.00 L 2283.00 3267.00 L 2263.00 3267.00 L 2243.00 3268.00 L 2223.00 3268.00 L 2203.00 3269.00 L 2183.00 3270.00 L 2163.00 3270.00 L 2143.00 3271.00 L 2123.00 3271.00 L 2103.00 3272.00 L 2083.00 3273.00 L 2063.00 3273.00 L 2043.00 3274.00 L 2023.00 3274.00 L 2003.00 3295.00 L 1983.00 3316.00 L 1963.00 3276.00 L 1943.00 3277.00 L 1923.00 3277.00 L 1903.00 3298.00 L 1883.00 3279.00 L 1863.00 3279.00 L 1843.00 3300.00 L 1823.00 3320.00 L 1803.00 3281.00 L 1783.00 3282.00 L 1763.00 3282.00 L 1743.00 3283.00 L 1723.00 3283.00 L 1703.00 3284.00 L 1683.00 3285.00 L 1663.00 3285.00 L 1643.00 3286.00 L 1623.00 3286.00 L 1603.00 3287.00 L 1583.00 3288.00 L 1563.00 3288.00 L 1543.00 3289.00 L 1523.00 3289.00 L 1503.00 3290.00 L 1483.00 3290.00 L 1463.00 3291.00 L 1443.00 3292.00 L 1423.00 3292.00 L 1403.00 3293.00 L 1383.00 3293.00 L 1363.00 3314.00 L 1343.00 3295.00 L 1323.00 3295.00 L 1303.00 3296.00 L 1283.00 3296.00 L 1263.00 3297.00 L 1243.00 3298.00 L 1223.00 3298.00 L 1203.00 3299.00 L 1183.00 3299.00 L 1163.00 3300.00 L 1143.00 3301.00 L 1123.00 3301.00 L 1103.00 3302.00 L 1083.00 3302.00 L 1063.00 3303.00 L 1043.00 3304.00 L 1023.00 3304.00 L 1003.00 3305.00 L 983.00 3305.00 L 963.00 3326.00 L 943.00 3327.00 L 923.00 3327.00 L 903.00 3308.00 L 883.00 3308.00 L 872.84 3308.51 L 856.63 3424.50 L 856.63 3424.50 L 863.00 3421.00 L 883.00 3420.00 L 903.00 3420.00 L 923.00 3419.00 L 943.00 3418.00 L 963.00 3418.00 L 983.00 3417.00 L 1003.00 3417.00 L 1023.00 3416.00 L 1043.00 3415.00 L 1063.00 3415.00 L 1083.00 3414.00 L 1103.00 3413.00 L 1123.00 3413.00 L 1143.00 3412.00 L 1163.00 3412.00 L 1183.00 3411.00 L 1203.00 3410.00 L 1223.00 3410.00 L 1243.00 3409.00 L 1263.00 3409.00 L 1283.00 3408.00 L 1303.00 3407.00 L 1323.00 3407.00 L 1343.00 3406.00 L 1363.00 3405.00 L 1383.00 3405.00 L 1403.00 3404.00 L 1423.00 3404.00 L 1443.00 3403.00 L 1463.00 3402.00 L 1483.00 3402.00 L 1503.00 3401.00 L 1523.00 3400.00 L 1543.00 3400.00 L 1563.00 3399.00 L 1583.00 3399.00 L 1603.00 3398.00 L 1623.00 3397.00 L 1643.00 3397.00 L 1663.00 3396.00 L 1683.00 3396.00 L 1703.00 3395.00 L 1723.00 3394.00 L 1743.00 3394.00 L 1763.00 3393.00 L 1783.00 3392.00 L 1803.00 3392.00 L 1823.00 3391.00 L 1843.00 3391.00 L 1863.00 3390.00 L 1883.00 3389.00 L 1903.00 3389.00 L 1923.00 3388.00 L 1943.00 3387.00 L 1963.00 3387.00 L 1983.00 3386.00 L 2003.00 3386.00 L 2023.00 3385.00 L 2043.00 3384.00 L 2063.00 3384.00 L 2083.00 3383.00 L 2103.00 3383.00 L 2123.00 3382.00 L 2143.00 3381.00 L 2163.00 3381.00 L 2183.00 3380.00 L 2203.00 3379.00 L 2223.00 3379.00 L 2243.00 3378.00 L 2263.00 3378.00 L 2283.00 3377.00 L 2303.00 3416.00 L 2323.00 3396.00 L 2343.00 3375.00 L 2363.00 3374.00 L 2383.00 3374.00 L 2403.00 3373.00 L 2423.00 3373.00 L 2443.00 3372.00 L 2463.00 3371.00 L 2483.00 3371.00 L 2503.00 3370.00 L 2523.00 3370.00 L 2543.00 3369.00 L 2563.00 3368.00 L 2583.00 3368.00 L 2603.00 3367.00 L 2623.00 3366.00 L 2643.00 3366.00 L 2663.00 3365.00 L 2683.00 3365.00 L 2703.00 3364.00 L 2723.00 3363.00 L 2743.00 3363.00 L 2763.00 3402.00 L 2783.00 3401.00 L 2803.00 3381.00 L 2823.00 3360.00 L 2843.00 3380.00 L 2863.00 3379.00 L 2883.00 3358.00 L 2903.00 3378.00 L 2923.00 3377.00 L 2943.00 3357.00 L 2963.00 3356.00 L 2965.52 3355.84 L 2979.00 3300.00 L 2951.23 3246.59 Z" />
<path id="csg562-058-23" fill="none" stroke="black" stroke-width="1" d="M 2965.52 3355.84 L 2963.00 3356.00 L 2943.00 3357.00 L 2923.00 3377.00 L 2903.00 3378.00 L 2883.00 3358.00 L 2863.00 3379.00 L 2843.00 3380.00 L 2823.00 3360.00 L 2803.00 3381.00 L 2783.00 3401.00 L 2763.00 3402.00 L 2743.00 3363.00 L 2723.00 3363.00 L 2703.00 3364.00 L 2683.00 3365.00 L 2663.00 3365.00 L 2643.00 3366.00 L 2623.00 3366.00 L 2603.00 3367.00 L 2583.00 3368.00 L 2563.00 3368.00 L 2543.00 3369.00 L 2523.00 3370.00 L 2503.00 3370.00 L 2483.00 3371.00 L 2463.00 3371.00 L 2443.00 3372.00 L 2423.00 3373.00 L 2403.00 3373.00 L 2383.00 3374.00 L 2363.00 3374.00 L 2343.00 3375.00 L 2323.00 3396.00 L 2303.00 3416.00 L 2283.00 3377.00 L 2263.00 3378.00 L 2243.00 3378.00 L 2223.00 3379.00 L 2203.00 3379.00 L 2183.00 3380.00 L 2163.00 3381.00 L 2143.00 3381.00 L 2123.00 3382.00 L 2103.00 3383.00 L 2083.00 3383.00 L 2063.00 3384.00 L 2043.00 3384.00 L 2023.00 3385.00 L 2003.00 3386.00 L 1983.00 3386.00 L 1963.00 3387.00 L 1943.00 3387.00 L 1923.00 3388.00 L 1903.00 3389.00 L 1883.00 3389.00 L 1863.00 3390.00 L 1843.00 3391.00 L 1823.00 3391.00 L 1803.00 3392.00 L 1783.00 3392.00 L 1763.00 3393.00 L 1743.00 3394.00 L 1723.00 3394.00 L 1703.00 3395.00 L 1683.00 3396.00 L 1663.00 3396.00 L 1643.00 3397.00 L 1623.00 3397.00 L 1603.00 3398.00 L 1583.00 3399.00 L 1563.00 3399.00 L 1543.00 3400.00 L 1523.00 3400.00 L 1503.00 3401.00 L 1483.00 3402.00 L 1463.00 3402.00 L 1443.00 3403.00 L 1423.00 3404.00 L 1403.00 3404.00 L 1383.00 3405.00 L 1363.00 3405.00 L 1343.00 3406.00 L 1323.00 3407.00 L 1303.00 3407.00 L 1283.00 3408.00 L 1263.00 3409.00 L 1243.00 3409.00 L 1223.00 3410.00 L 1203.00 3410.00 L 1183.00 3411.00 L 1163.00 3412.00 L 1143.00 3412.00 L 1123.00 3413.00 L 1103.00 3413.00 L 1083.00 3414.00 L 1063.00 3415.00 L 1043.00 3415.00 L 1023.00 3416.00 L 1003.00 3417.00 L 983.00 3417.00 L 963.00 3418.00 L 943.00 3418.00 L 923.00 3419.00 L 903.00 3420.00 L 883.00 3420.00 L 863.00 3421.00 L 856.63 3424.50 L 843.00 3522.00 L 972.87 3535.51 L 983.00 3535.00 L 1003.00 3535.00 L 1023.00 3534.00 L 1043.00 3534.00 L 1063.00 3533.00 L 1103.00 3533.00 L 1123.00 3532.00 L 1143.00 3532.00 L 1163.00 3531.00 L 1183.00 3531.00 L 1203.00 3530.00 L 1223.00 3550.00 L 1243.00 3529.00 L 1263.00 3529.00 L 1283.00 3528.00 L 1323.00 3528.00 L 1343.00 3527.00 L 1363.00 3527.00 L 1383.00 3526.00 L 1403.00 3526.00 L 1423.00 3525.00 L 1443.00 3525.00 L 1463.00 3544.00 L 1483.00 3544.00 L 1503.00 3523.00 L 1543.00 3523.00 L 1563.00 3522.00 L 1583.00 3522.00 L 1603.00 3521.00 L 1623.00 3521.00 L 1643.00 3520.00 L 1663.00 3520.00 L 1683.00 3519.00 L 1703.00 3519.00 L 1723.00 3518.00 L 1763.00 3518.00 L 1783.00 3517.00 L 1803.00 3517.00 L 1823.00 3516.00 L 1843.00 3516.00 L 1863.00 3515.00 L 1883.00 3515.00 L 1903.00 3514.00 L 1923.00 3514.00 L 1943.00 3513.00 L 1983.00 3513.00 L 2003.00 3512.00 L 2023.00 3512.00 L 2043.00 3531.00 L 2063.00 3531.00 L 2083.00 3510.00 L 2103.00 3510.00 L 2123.00 3509.00 L 2143.00 3509.00 L 2162.21 3527.25 L 2163.86 3527.14 L 2183.00 3508.00 L 2203.00 3508.00 L 2223.00 3507.00 L 2243.00 3507.00 L 2263.00 3506.00 L 2283.00 3506.00 L 2303.00 3505.00 L 2323.00 3505.00 L 2343.00 3504.00 L 2363.00 3504.00 L 2383.00 3503.00 L 2423.00 3503.00 L 2443.00 3502.00 L 2463.00 3502.00 L 2483.00 3501.00 L 2503.00 3501.00 L 2523.00 3500.00 L 2543.00 3500.00 L 2563.00 3499.00 L 2573.25 3499.00 L 2937.00 3474.00 L 2965.52 3355.84 Z" />
</svg>
