<?xml version="1.0" standalone="no"?>
<!DOCTYPE svg PUBLIC "-//W3C//DTD SVG 1.1//EN" "http://www.w3.org/Graphics/SVG/1.1/DTD/svg11.dtd">
<svg width="46.22222in" height="69.333336in" viewBox="0 0 3328 4992" xmlns="http://www.w3.org/2000/svg" version="1.1">
<path id="csg562-061-01" fill="none" stroke="black" stroke-width="1" d="M 917.00 746.00 L 897.00 786.00 L 877.00 785.00 L 856.35 785.00 L 855.00 786.00 L 330.00 807.00 L 310.72 898.14 L 317.00 895.00 L 397.00 895.00 L 417.00 896.00 L 497.00 896.00 L 517.00 897.00 L 597.00 897.00 L 617.00 898.00 L 697.00 898.00 L 717.00 899.00 L 797.00 899.00 L 817.00 900.00 L 897.00 900.00 L 917.00 901.00 L 997.00 901.00 L 1017.00 902.00 L 1117.00 902.00 L 1137.00 903.00 L 1217.00 903.00 L 1237.00 904.00 L 1317.00 904.00 L 1337.00 905.00 L 1417.00 905.00 L 1437.00 906.00 L 1517.00 906.00 L 1537.00 907.00 L 1617.00 907.00 L 1637.00 908.00 L 1717.00 908.00 L 1737.00 909.00 L 1837.00 909.00 L 1857.00 910.00 L 1937.00 910.00 L 1957.00 911.00 L 2037.00 911.00 L 2057.00 912.00 L 2137.00 912.00 L 2157.00 913.00 L 2237.00 913.00 L 2257.00 914.00 L 2337.00 914.00 L 2357.00 915.00 L 2431.88 915.00 L 2508.00 828.00 L 1771.85 795.00 L 1757.00 795.00 L 1737.00 794.00 L 1657.00 794.00 L 1637.00 793.00 L 1557.00 793.00 L 1541.77 792.24 L 1014.00 810.00 L 997.68 787.00 L 997.00 787.00 L 995.38 783.77 L 969.01 746.60 L 957.00 746.00 Z" />
<path id="csg562-061-02" fill="none" stroke="black" stroke-width="1" d="M 317.00 895.00 L 310.72 898.14 L 297.00 963.00 L 298.47 1020.27 L 317.00 1011.00 L 417.00 1011.00 L 437.00 1012.00 L 557.00 1012.00 L 577.00 1013.00 L 697.00 1013.00 L 717.00 1014.00 L 837.00 1014.00 L 857.00 1015.00 L 977.00 1015.00 L 997.00 1016.00 L 1077.00 1016.00 L 1097.00 1036.00 L 1117.00 1016.00 L 1137.00 1017.00 L 1257.00 1017.00 L 1277.00 1018.00 L 1397.00 1018.00 L 1417.00 1019.00 L 1537.00 1019.00 L 1557.00 1020.00 L 1617.00 1020.00 L 1637.00 1000.00 L 1657.00 1007.00 L 1677.00 997.00 L 1697.00 997.00 L 1717.00 1021.00 L 1817.00 1021.00 L 1837.00 1022.00 L 1957.00 1022.00 L 1977.00 1023.00 L 2097.00 1023.00 L 2117.00 1024.00 L 2237.00 1024.00 L 2257.00 1025.00 L 2377.00 1025.00 L 2397.00 1026.00 L 2463.41 1026.00 L 2424.00 924.00 L 2431.88 915.00 L 2357.00 915.00 L 2337.00 914.00 L 2257.00 914.00 L 2237.00 913.00 L 2157.00 913.00 L 2137.00 912.00 L 2057.00 912.00 L 2037.00 911.00 L 1957.00 911.00 L 1937.00 910.00 L 1857.00 910.00 L 1837.00 909.00 L 1737.00 909.00 L 1717.00 908.00 L 1637.00 908.00 L 1617.00 907.00 L 1537.00 907.00 L 1517.00 906.00 L 1437.00 906.00 L 1417.00 905.00 L 1337.00 905.00 L 1317.00 904.00 L 1237.00 904.00 L 1217.00 903.00 L 1137.00 903.00 L 1117.00 902.00 L 1017.00 902.00 L 997.00 901.00 L 917.00 901.00 L 897.00 900.00 L 817.00 900.00 L 797.00 899.00 L 717.00 899.00 L 697.00 898.00 L 617.00 898.00 L 597.00 897.00 L 517.00 897.00 L 497.00 896.00 L 417.00 896.00 L 397.00 895.00 Z" />
<path id="csg562-061-03" fill="none" stroke="black" stroke-width="1" d="M 1677.00 997.00 L 1657.00 1007.00 L 1637.00 1000.00 L 1617.00 1020.00 L 1557.00 1020.00 L 1537.00 1019.00 L 1417.00 1019.00 L 1397.00 1018.00 L 1277.00 1018.00 L 1257.00 1017.00 L 1137.00 1017.00 L 1117.00 1016.00 L 1097.00 1036.00 L 1077.00 1016.00 L 997.00 1016.00 L 977.00 1015.00 L 857.00 1015.00 L 837.00 1014.00 L 717.00 1014.00 L 697.00 1013.00 L 577.00 1013.00 L 557.00 1012.00 L 437.00 1012.00 L 417.00 1011.00 L 317.00 1011.00 L 298.47 1020.27 L 301.28 1129.86 L 317.00 1122.00 L 437.00 1122.00 L 457.00 1102.00 L 477.00 1122.00 L 497.00 1122.00 L 517.00 1123.00 L 697.00 1123.00 L 717.00 1124.00 L 917.00 1124.00 L 937.00 1125.00 L 1117.00 1125.00 L 1137.00 1126.00 L 1337.00 1126.00 L 1357.00 1127.00 L 1537.00 1127.00 L 1557.00 1128.00 L 1737.00 1128.00 L 1757.00 1129.00 L 1957.00 1129.00 L 1977.00 1130.00 L 2037.00 1130.00 L 2057.00 1110.00 L 2117.00 1110.00 L 2137.00 1130.00 L 2157.00 1130.00 L 2177.00 1131.00 L 2377.00 1131.00 L 2397.00 1132.00 L 2459.65 1132.00 L 2475.00 1056.00 L 2463.41 1026.00 L 2397.00 1026.00 L 2377.00 1025.00 L 2257.00 1025.00 L 2237.00 1024.00 L 2117.00 1024.00 L 2097.00 1023.00 L 1977.00 1023.00 L 1957.00 1022.00 L 1837.00 1022.00 L 1817.00 1021.00 L 1717.00 1021.00 L 1697.00 997.00 Z" />
<path id="csg562-061-04" fill="none" stroke="black" stroke-width="1" d="M 457.00 1102.00 L 437.00 1122.00 L 317.00 1122.00 L 301.28 1129.86 L 304.34 1249.33 L 317.00 1243.00 L 1997.00 1243.00 L 2017.00 1263.00 L 2037.00 1223.00 L 2057.00 1223.00 L 2077.00 1243.00 L 2437.22 1243.00 L 2459.65 1132.00 L 2397.00 1132.00 L 2377.00 1131.00 L 2177.00 1131.00 L 2157.00 1130.00 L 2137.00 1130.00 L 2117.00 1110.00 L 2057.00 1110.00 L 2037.00 1130.00 L 1977.00 1130.00 L 1957.00 1129.00 L 1757.00 1129.00 L 1737.00 1128.00 L 1557.00 1128.00 L 1537.00 1127.00 L 1357.00 1127.00 L 1337.00 1126.00 L 1137.00 1126.00 L 1117.00 1125.00 L 937.00 1125.00 L 917.00 1124.00 L 717.00 1124.00 L 697.00 1123.00 L 517.00 1123.00 L 497.00 1122.00 L 477.00 1122.00 L 457.00 1102.00 Z" />
<path id="csg562-061-05" fill="none" stroke="black" stroke-width="1" d="M 2037.00 1223.00 L 2017.00 1263.00 L 1997.00 1243.00 L 317.00 1243.00 L 304.34 1249.33 L 307.04 1354.48 L 317.00 1349.00 L 1737.00 1349.00 L 1757.00 1348.00 L 2416.01 1348.00 L 2437.22 1243.00 L 2077.00 1243.00 L 2057.00 1223.00 Z" />
<path id="csg562-061-06" fill="none" stroke="black" stroke-width="1" d="M 1757.00 1348.00 L 1737.00 1349.00 L 317.00 1349.00 L 307.04 1354.48 L 309.90 1465.91 L 317.00 1462.00 L 517.00 1462.00 L 537.00 1461.00 L 757.00 1461.00 L 777.00 1460.00 L 997.00 1460.00 L 1017.00 1479.00 L 1037.00 1479.00 L 1057.00 1459.00 L 1097.00 1459.00 L 1117.00 1439.00 L 1137.00 1439.00 L 1157.00 1459.00 L 1217.00 1459.00 L 1237.00 1458.00 L 1457.00 1458.00 L 1477.00 1457.00 L 1697.00 1457.00 L 1717.00 1456.00 L 1917.00 1456.00 L 1937.00 1455.00 L 2157.00 1455.00 L 2177.00 1454.00 L 2397.00 1454.00 L 2417.00 1453.00 L 2459.44 1453.00 L 2415.00 1353.00 L 2416.01 1348.00 Z" />
<path id="csg562-061-07" fill="none" stroke="black" stroke-width="1" d="M 1117.00 1439.00 L 1097.00 1459.00 L 1057.00 1459.00 L 1037.00 1479.00 L 1017.00 1479.00 L 997.00 1460.00 L 777.00 1460.00 L 757.00 1461.00 L 537.00 1461.00 L 517.00 1462.00 L 317.00 1462.00 L 309.90 1465.91 L 312.49 1567.25 L 317.00 1565.00 L 817.00 1565.00 L 837.00 1585.00 L 857.00 1565.00 L 877.00 1585.00 L 897.00 1565.00 L 1057.00 1565.00 L 1077.00 1585.00 L 1097.00 1565.00 L 1137.00 1565.00 L 1157.00 1566.00 L 1597.00 1566.00 L 1617.00 1586.00 L 1637.00 1566.00 L 1997.00 1566.00 L 2017.00 1567.00 L 2477.34 1567.00 L 2475.00 1488.00 L 2459.44 1453.00 L 2417.00 1453.00 L 2397.00 1454.00 L 2177.00 1454.00 L 2157.00 1455.00 L 1937.00 1455.00 L 1917.00 1456.00 L 1717.00 1456.00 L 1697.00 1457.00 L 1477.00 1457.00 L 1457.00 1458.00 L 1237.00 1458.00 L 1217.00 1459.00 L 1157.00 1459.00 L 1137.00 1439.00 Z" />
<path id="csg562-061-08" fill="none" stroke="black" stroke-width="1" d="M 317.00 1565.00 L 312.49 1567.25 L 315.48 1683.76 L 317.00 1683.00 L 517.00 1683.00 L 537.00 1684.00 L 557.00 1664.00 L 577.00 1649.00 L 597.00 1659.00 L 617.00 1704.00 L 637.00 1684.00 L 737.00 1684.00 L 757.00 1685.00 L 977.00 1685.00 L 997.00 1686.00 L 1197.00 1686.00 L 1217.00 1687.00 L 1437.00 1687.00 L 1457.00 1688.00 L 1657.00 1688.00 L 1677.00 1689.00 L 1757.00 1689.00 L 1777.00 1669.00 L 1817.00 1669.00 L 1837.00 1689.00 L 1897.00 1689.00 L 1917.00 1690.00 L 2117.00 1690.00 L 2137.00 1691.00 L 2357.00 1691.00 L 2377.00 1692.00 L 2481.04 1692.00 L 2477.34 1567.00 L 2017.00 1567.00 L 1997.00 1566.00 L 1637.00 1566.00 L 1617.00 1586.00 L 1597.00 1566.00 L 1157.00 1566.00 L 1137.00 1565.00 L 1097.00 1565.00 L 1077.00 1585.00 L 1057.00 1565.00 L 897.00 1565.00 L 877.00 1585.00 L 857.00 1565.00 L 837.00 1585.00 L 817.00 1565.00 Z" />
<path id="csg562-061-09" fill="none" stroke="black" stroke-width="1" d="M 577.00 1649.00 L 557.00 1664.00 L 537.00 1684.00 L 517.00 1683.00 L 317.00 1683.00 L 315.48 1683.76 L 318.00 1782.00 L 322.50 1800.00 L 1057.00 1800.00 L 1077.00 1799.00 L 1197.00 1799.00 L 1217.00 1819.00 L 1237.00 1819.00 L 1257.00 1799.00 L 1837.00 1799.00 L 1857.00 1798.00 L 1897.00 1798.00 L 1917.00 1818.00 L 1937.00 1798.00 L 2484.19 1798.00 L 2481.04 1692.00 L 2377.00 1692.00 L 2357.00 1691.00 L 2137.00 1691.00 L 2117.00 1690.00 L 1917.00 1690.00 L 1897.00 1689.00 L 1837.00 1689.00 L 1817.00 1669.00 L 1777.00 1669.00 L 1757.00 1689.00 L 1677.00 1689.00 L 1657.00 1688.00 L 1457.00 1688.00 L 1437.00 1687.00 L 1217.00 1687.00 L 1197.00 1686.00 L 997.00 1686.00 L 977.00 1685.00 L 757.00 1685.00 L 737.00 1684.00 L 637.00 1684.00 L 617.00 1704.00 L 597.00 1659.00 L 577.00 1649.00 Z" />
<path id="csg562-061-10" fill="none" stroke="black" stroke-width="1" d="M 1857.00 1798.00 L 1837.00 1799.00 L 1257.00 1799.00 L 1237.00 1819.00 L 1217.00 1819.00 L 1197.00 1799.00 L 1077.00 1799.00 L 1057.00 1800.00 L 322.50 1800.00 L 347.25 1899.00 L 357.00 1899.00 L 361.50 1903.50 L 407.40 1908.60 L 417.00 1899.00 L 437.00 1899.00 L 451.50 1913.50 L 479.40 1916.60 L 497.00 1899.00 L 737.00 1899.00 L 753.72 1915.72 L 780.75 1915.25 L 797.00 1899.00 L 1057.00 1899.00 L 1077.00 1898.00 L 1197.00 1898.00 L 1217.00 1918.00 L 1220.96 1918.79 L 1251.09 1919.18 L 1257.00 1918.00 L 1277.00 1918.00 L 1297.00 1898.00 L 1417.00 1898.00 L 1433.79 1914.79 L 1461.41 1913.59 L 1477.00 1898.00 L 1837.00 1898.00 L 1857.00 1897.00 L 2117.00 1897.00 L 2137.00 1917.00 L 2177.00 1917.00 L 2197.00 1897.00 L 2443.40 1897.00 L 2487.00 1893.00 L 2484.19 1798.00 L 1937.00 1798.00 L 1917.00 1818.00 L 1897.00 1798.00 Z" />
<path id="csg562-061-11" fill="none" stroke="black" stroke-width="1" d="M 2148.00 2013.00 L 1437.00 2031.00 L 687.00 2025.00 L 357.00 2037.00 L 342.68 2144.37 L 347.00 2142.00 L 547.00 2142.00 L 567.00 2141.00 L 767.00 2141.00 L 787.00 2140.00 L 987.00 2140.00 L 1007.00 2139.00 L 1067.00 2139.00 L 1087.00 2119.00 L 1107.00 2099.00 L 1127.00 2119.00 L 1147.00 2139.00 L 1227.00 2139.00 L 1247.00 2138.00 L 1447.00 2138.00 L 1467.00 2137.00 L 1667.00 2137.00 L 1687.00 2136.00 L 1887.00 2136.00 L 1907.00 2135.00 L 2127.00 2135.00 L 2147.00 2134.00 L 2347.00 2134.00 L 2367.00 2133.00 L 2433.55 2133.00 L 2436.00 2043.00 L 2148.00 2013.00 Z" />
<path id="csg562-061-12" fill="none" stroke="black" stroke-width="1" d="M 1107.00 2099.00 L 1087.00 2119.00 L 1067.00 2139.00 L 1007.00 2139.00 L 987.00 2140.00 L 787.00 2140.00 L 767.00 2141.00 L 567.00 2141.00 L 547.00 2142.00 L 347.00 2142.00 L 342.68 2144.37 L 339.00 2172.00 L 337.45 2250.25 L 347.00 2245.00 L 627.00 2245.00 L 647.00 2244.00 L 947.00 2244.00 L 967.00 2243.00 L 1267.00 2243.00 L 1287.00 2242.00 L 1347.00 2242.00 L 1367.00 2222.00 L 1387.00 2242.00 L 1587.00 2242.00 L 1607.00 2241.00 L 1707.00 2241.00 L 1727.00 2221.00 L 1747.00 2221.00 L 1767.00 2241.00 L 1887.00 2241.00 L 1907.00 2240.00 L 2167.00 2240.00 L 2187.00 2260.00 L 2207.00 2260.00 L 2227.00 2239.00 L 2430.65 2239.00 L 2433.55 2133.00 L 2367.00 2133.00 L 2347.00 2134.00 L 2147.00 2134.00 L 2127.00 2135.00 L 1907.00 2135.00 L 1887.00 2136.00 L 1687.00 2136.00 L 1667.00 2137.00 L 1467.00 2137.00 L 1447.00 2138.00 L 1247.00 2138.00 L 1227.00 2139.00 L 1147.00 2139.00 L 1127.00 2119.00 L 1107.00 2099.00 Z" />
<path id="csg562-061-13" fill="none" stroke="black" stroke-width="1" d="M 1727.00 2221.00 L 1707.00 2241.00 L 1607.00 2241.00 L 1587.00 2242.00 L 1387.00 2242.00 L 1367.00 2222.00 L 1347.00 2242.00 L 1287.00 2242.00 L 1267.00 2243.00 L 967.00 2243.00 L 947.00 2244.00 L 647.00 2244.00 L 627.00 2245.00 L 347.00 2245.00 L 337.45 2250.25 L 335.33 2357.42 L 347.00 2351.00 L 607.00 2351.00 L 627.00 2350.00 L 907.00 2350.00 L 927.00 2349.00 L 1187.00 2349.00 L 1207.00 2348.00 L 1487.00 2348.00 L 1507.00 2347.00 L 1787.00 2347.00 L 1807.00 2346.00 L 2067.00 2346.00 L 2087.00 2345.00 L 2267.00 2345.00 L 2287.00 2365.00 L 2307.00 2365.00 L 2327.00 2345.00 L 2367.00 2345.00 L 2387.00 2344.00 L 2427.79 2344.00 L 2430.65 2239.00 L 2227.00 2239.00 L 2207.00 2260.00 L 2187.00 2260.00 L 2167.00 2240.00 L 1907.00 2240.00 L 1887.00 2241.00 L 1767.00 2241.00 L 1747.00 2221.00 Z" />
<path id="csg562-061-14" fill="none" stroke="black" stroke-width="1" d="M 2387.00 2344.00 L 2367.00 2345.00 L 2327.00 2345.00 L 2307.00 2365.00 L 2287.00 2365.00 L 2267.00 2345.00 L 2087.00 2345.00 L 2067.00 2346.00 L 1807.00 2346.00 L 1787.00 2347.00 L 1507.00 2347.00 L 1487.00 2348.00 L 1207.00 2348.00 L 1187.00 2349.00 L 927.00 2349.00 L 907.00 2350.00 L 627.00 2350.00 L 607.00 2351.00 L 347.00 2351.00 L 335.33 2357.42 L 333.01 2474.70 L 347.00 2467.00 L 367.00 2487.00 L 387.00 2467.00 L 447.00 2467.00 L 467.00 2466.00 L 587.00 2466.00 L 607.00 2465.00 L 727.00 2465.00 L 747.00 2464.00 L 867.00 2464.00 L 887.00 2463.00 L 1007.00 2463.00 L 1027.00 2462.00 L 1147.00 2462.00 L 1167.00 2461.00 L 1287.00 2461.00 L 1307.00 2460.00 L 1407.00 2460.00 L 1427.00 2459.00 L 1547.00 2459.00 L 1567.00 2458.00 L 1687.00 2458.00 L 1707.00 2457.00 L 1827.00 2457.00 L 1847.00 2456.00 L 1967.00 2456.00 L 1987.00 2455.00 L 2107.00 2455.00 L 2127.00 2454.00 L 2247.00 2454.00 L 2267.00 2453.00 L 2387.00 2453.00 L 2407.00 2452.00 L 2452.87 2452.00 L 2427.00 2373.00 L 2427.79 2344.00 Z" />
<path id="csg562-061-15" fill="none" stroke="black" stroke-width="1" d="M 2407.00 2452.00 L 2387.00 2453.00 L 2267.00 2453.00 L 2247.00 2454.00 L 2127.00 2454.00 L 2107.00 2455.00 L 1987.00 2455.00 L 1967.00 2456.00 L 1847.00 2456.00 L 1827.00 2457.00 L 1707.00 2457.00 L 1687.00 2458.00 L 1567.00 2458.00 L 1547.00 2459.00 L 1427.00 2459.00 L 1407.00 2460.00 L 1307.00 2460.00 L 1287.00 2461.00 L 1167.00 2461.00 L 1147.00 2462.00 L 1027.00 2462.00 L 1007.00 2463.00 L 887.00 2463.00 L 867.00 2464.00 L 747.00 2464.00 L 727.00 2465.00 L 607.00 2465.00 L 587.00 2466.00 L 467.00 2466.00 L 447.00 2467.00 L 387.00 2467.00 L 367.00 2487.00 L 347.00 2467.00 L 333.01 2474.70 L 330.84 2583.89 L 347.00 2575.00 L 527.00 2575.00 L 547.00 2574.00 L 727.00 2574.00 L 747.00 2573.00 L 767.00 2593.00 L 787.00 2573.00 L 927.00 2573.00 L 947.00 2572.00 L 1127.00 2572.00 L 1147.00 2571.00 L 1327.00 2571.00 L 1347.00 2570.00 L 1547.00 2570.00 L 1567.00 2569.00 L 1747.00 2569.00 L 1767.00 2568.00 L 1947.00 2568.00 L 1967.00 2567.00 L 2147.00 2567.00 L 2167.00 2566.00 L 2347.00 2566.00 L 2367.00 2565.00 L 2489.87 2565.00 L 2452.87 2452.00 Z" />
<path id="csg562-061-16" fill="none" stroke="black" stroke-width="1" d="M 2367.00 2565.00 L 2347.00 2566.00 L 2167.00 2566.00 L 2147.00 2567.00 L 1967.00 2567.00 L 1947.00 2568.00 L 1767.00 2568.00 L 1747.00 2569.00 L 1567.00 2569.00 L 1547.00 2570.00 L 1347.00 2570.00 L 1327.00 2571.00 L 1147.00 2571.00 L 1127.00 2572.00 L 947.00 2572.00 L 927.00 2573.00 L 787.00 2573.00 L 767.00 2593.00 L 747.00 2573.00 L 727.00 2574.00 L 547.00 2574.00 L 527.00 2575.00 L 347.00 2575.00 L 330.84 2583.89 L 328.64 2695.10 L 347.00 2685.00 L 487.00 2685.00 L 507.00 2684.00 L 647.00 2684.00 L 667.00 2683.00 L 827.00 2683.00 L 847.00 2682.00 L 887.00 2682.00 L 907.00 2702.00 L 927.00 2702.00 L 947.00 2682.00 L 987.00 2682.00 L 1007.00 2681.00 L 1027.00 2661.00 L 1047.00 2681.00 L 1167.00 2681.00 L 1187.00 2680.00 L 1327.00 2680.00 L 1347.00 2679.00 L 1487.00 2679.00 L 1507.00 2678.00 L 1667.00 2678.00 L 1687.00 2677.00 L 1707.00 2697.00 L 1727.00 2697.00 L 1747.00 2677.00 L 1787.00 2677.00 L 1807.00 2697.00 L 1827.00 2677.00 L 1847.00 2676.00 L 1867.00 2696.00 L 1887.00 2676.00 L 2007.00 2676.00 L 2027.00 2675.00 L 2167.00 2675.00 L 2187.00 2674.00 L 2347.00 2674.00 L 2367.00 2673.00 L 2507.00 2673.00 L 2524.94 2672.10 L 2489.87 2565.00 Z" />
<path id="csg562-061-17" fill="none" stroke="black" stroke-width="1" d="M 1027.00 2661.00 L 1007.00 2681.00 L 987.00 2682.00 L 947.00 2682.00 L 927.00 2702.00 L 907.00 2702.00 L 887.00 2682.00 L 847.00 2682.00 L 827.00 2683.00 L 667.00 2683.00 L 647.00 2684.00 L 507.00 2684.00 L 487.00 2685.00 L 347.00 2685.00 L 328.64 2695.10 L 327.00 2778.00 L 328.22 2809.33 L 347.00 2799.00 L 447.00 2799.00 L 467.00 2798.00 L 587.00 2798.00 L 607.00 2797.00 L 707.00 2797.00 L 727.00 2796.00 L 847.00 2796.00 L 867.00 2795.00 L 967.00 2795.00 L 987.00 2794.00 L 1047.00 2794.00 L 1067.00 2814.00 L 1087.00 2794.00 L 1107.00 2794.00 L 1127.00 2793.00 L 1227.00 2793.00 L 1247.00 2792.00 L 1367.00 2792.00 L 1387.00 2791.00 L 1487.00 2791.00 L 1507.00 2790.00 L 1627.00 2790.00 L 1647.00 2789.00 L 1747.00 2789.00 L 1767.00 2788.00 L 1887.00 2788.00 L 1907.00 2787.00 L 2007.00 2787.00 L 2027.00 2786.00 L 2147.00 2786.00 L 2167.00 2785.00 L 2267.00 2785.00 L 2287.00 2784.00 L 2407.00 2784.00 L 2427.00 2783.00 L 2516.82 2783.00 L 2538.00 2712.00 L 2524.94 2672.10 L 2507.00 2673.00 L 2367.00 2673.00 L 2347.00 2674.00 L 2187.00 2674.00 L 2167.00 2675.00 L 2027.00 2675.00 L 2007.00 2676.00 L 1887.00 2676.00 L 1867.00 2696.00 L 1847.00 2676.00 L 1827.00 2677.00 L 1807.00 2697.00 L 1787.00 2677.00 L 1747.00 2677.00 L 1727.00 2697.00 L 1707.00 2697.00 L 1687.00 2677.00 L 1667.00 2678.00 L 1507.00 2678.00 L 1487.00 2679.00 L 1347.00 2679.00 L 1327.00 2680.00 L 1187.00 2680.00 L 1167.00 2681.00 L 1047.00 2681.00 L 1027.00 2661.00 Z" />
<path id="csg562-061-18" fill="none" stroke="black" stroke-width="1" d="M 2427.00 2783.00 L 2407.00 2784.00 L 2287.00 2784.00 L 2267.00 2785.00 L 2167.00 2785.00 L 2147.00 2786.00 L 2027.00 2786.00 L 2007.00 2787.00 L 1907.00 2787.00 L 1887.00 2788.00 L 1767.00 2788.00 L 1747.00 2789.00 L 1647.00 2789.00 L 1627.00 2790.00 L 1507.00 2790.00 L 1487.00 2791.00 L 1387.00 2791.00 L 1367.00 2792.00 L 1247.00 2792.00 L 1227.00 2793.00 L 1127.00 2793.00 L 1107.00 2794.00 L 1087.00 2794.00 L 1067.00 2814.00 L 1047.00 2794.00 L 987.00 2794.00 L 967.00 2795.00 L 867.00 2795.00 L 847.00 2796.00 L 727.00 2796.00 L 707.00 2797.00 L 607.00 2797.00 L 587.00 2798.00 L 467.00 2798.00 L 447.00 2799.00 L 347.00 2799.00 L 328.22 2809.33 L 332.74 2925.85 L 347.00 2918.00 L 547.00 2918.00 L 567.00 2917.00 L 787.00 2917.00 L 807.00 2916.00 L 987.00 2916.00 L 1007.00 2896.00 L 1027.00 2896.00 L 1047.00 2915.00 L 1267.00 2915.00 L 1287.00 2914.00 L 1507.00 2914.00 L 1527.00 2913.00 L 1747.00 2913.00 L 1767.00 2912.00 L 1987.00 2912.00 L 2007.00 2911.00 L 2227.00 2911.00 L 2247.00 2910.00 L 2467.00 2910.00 L 2479.13 2909.39 L 2516.82 2783.00 Z" />
<path id="csg562-061-19" fill="none" stroke="black" stroke-width="1" d="M 1007.00 2896.00 L 987.00 2916.00 L 807.00 2916.00 L 787.00 2917.00 L 567.00 2917.00 L 547.00 2918.00 L 347.00 2918.00 L 332.74 2925.85 L 337.22 3041.38 L 347.00 3036.00 L 747.00 3036.00 L 767.00 3035.00 L 1167.00 3035.00 L 1187.00 3034.00 L 1247.00 3034.00 L 1267.00 3054.00 L 1287.00 3034.00 L 1607.00 3034.00 L 1627.00 3033.00 L 2027.00 3033.00 L 2047.00 3032.00 L 2442.56 3032.00 L 2479.13 2909.39 L 2467.00 2910.00 L 2247.00 2910.00 L 2227.00 2911.00 L 2007.00 2911.00 L 1987.00 2912.00 L 1767.00 2912.00 L 1747.00 2913.00 L 1527.00 2913.00 L 1507.00 2914.00 L 1287.00 2914.00 L 1267.00 2915.00 L 1047.00 2915.00 L 1027.00 2896.00 Z" />
<path id="csg562-061-20" fill="none" stroke="black" stroke-width="1" d="M 2047.00 3032.00 L 2027.00 3033.00 L 1627.00 3033.00 L 1607.00 3034.00 L 1287.00 3034.00 L 1267.00 3054.00 L 1247.00 3034.00 L 1187.00 3034.00 L 1167.00 3035.00 L 767.00 3035.00 L 747.00 3036.00 L 347.00 3036.00 L 337.22 3041.38 L 341.09 3141.25 L 347.00 3138.00 L 447.00 3138.00 L 467.00 3137.00 L 587.00 3137.00 L 607.00 3136.00 L 727.00 3136.00 L 747.00 3135.00 L 867.00 3135.00 L 887.00 3134.00 L 1007.00 3134.00 L 1027.00 3133.00 L 1147.00 3133.00 L 1167.00 3132.00 L 1287.00 3132.00 L 1307.00 3131.00 L 1407.00 3131.00 L 1427.00 3111.00 L 1447.00 3130.00 L 1467.00 3150.00 L 1487.00 3130.00 L 1567.00 3130.00 L 1587.00 3129.00 L 1707.00 3129.00 L 1727.00 3128.00 L 1847.00 3128.00 L 1867.00 3127.00 L 1987.00 3127.00 L 2007.00 3126.00 L 2107.00 3126.00 L 2127.00 3146.00 L 2147.00 3145.00 L 2167.00 3125.00 L 2267.00 3125.00 L 2287.00 3124.00 L 2407.00 3124.00 L 2427.00 3123.00 L 2446.89 3123.00 L 2436.00 3054.00 L 2442.56 3032.00 Z" />
<path id="csg562-061-21" fill="none" stroke="black" stroke-width="1" d="M 1427.00 3111.00 L 1407.00 3131.00 L 1307.00 3131.00 L 1287.00 3132.00 L 1167.00 3132.00 L 1147.00 3133.00 L 1027.00 3133.00 L 1007.00 3134.00 L 887.00 3134.00 L 867.00 3135.00 L 747.00 3135.00 L 727.00 3136.00 L 607.00 3136.00 L 587.00 3137.00 L 467.00 3137.00 L 447.00 3138.00 L 347.00 3138.00 L 341.09 3141.25 L 345.46 3253.85 L 347.00 3253.00 L 407.00 3253.00 L 427.00 3273.00 L 447.00 3253.00 L 467.00 3253.00 L 487.00 3252.00 L 607.00 3252.00 L 627.00 3251.00 L 747.00 3251.00 L 767.00 3250.00 L 887.00 3250.00 L 907.00 3249.00 L 927.00 3249.00 L 947.00 3269.00 L 967.00 3269.00 L 987.00 3249.00 L 1027.00 3249.00 L 1047.00 3248.00 L 1167.00 3248.00 L 1187.00 3247.00 L 1307.00 3247.00 L 1327.00 3246.00 L 1347.00 3246.00 L 1367.00 3266.00 L 1387.00 3246.00 L 1447.00 3246.00 L 1467.00 3245.00 L 1487.00 3265.00 L 1527.00 3265.00 L 1547.00 3245.00 L 1587.00 3245.00 L 1607.00 3244.00 L 1727.00 3244.00 L 1747.00 3243.00 L 1787.00 3243.00 L 1807.00 3263.00 L 1827.00 3243.00 L 1847.00 3223.00 L 1867.00 3243.00 L 1887.00 3242.00 L 2007.00 3242.00 L 2027.00 3241.00 L 2067.00 3241.00 L 2087.00 3261.00 L 2107.00 3261.00 L 2127.00 3241.00 L 2147.00 3241.00 L 2167.00 3240.00 L 2287.00 3240.00 L 2307.00 3239.00 L 2427.00 3239.00 L 2447.00 3238.00 L 2465.05 3238.00 L 2446.89 3123.00 L 2427.00 3123.00 L 2407.00 3124.00 L 2287.00 3124.00 L 2267.00 3125.00 L 2167.00 3125.00 L 2147.00 3145.00 L 2127.00 3146.00 L 2107.00 3126.00 L 2007.00 3126.00 L 1987.00 3127.00 L 1867.00 3127.00 L 1847.00 3128.00 L 1727.00 3128.00 L 1707.00 3129.00 L 1587.00 3129.00 L 1567.00 3130.00 L 1487.00 3130.00 L 1467.00 3150.00 L 1447.00 3130.00 L 1427.00 3111.00 Z" />
<path id="csg562-061-22" fill="none" stroke="black" stroke-width="1" d="M 1847.00 3223.00 L 1827.00 3243.00 L 1807.00 3263.00 L 1787.00 3243.00 L 1747.00 3243.00 L 1727.00 3244.00 L 1607.00 3244.00 L 1587.00 3245.00 L 1547.00 3245.00 L 1527.00 3265.00 L 1487.00 3265.00 L 1467.00 3245.00 L 1447.00 3246.00 L 1387.00 3246.00 L 1367.00 3266.00 L 1347.00 3246.00 L 1327.00 3246.00 L 1307.00 3247.00 L 1187.00 3247.00 L 1167.00 3248.00 L 1047.00 3248.00 L 1027.00 3249.00 L 987.00 3249.00 L 967.00 3269.00 L 947.00 3269.00 L 927.00 3249.00 L 907.00 3249.00 L 887.00 3250.00 L 767.00 3250.00 L 747.00 3251.00 L 627.00 3251.00 L 607.00 3252.00 L 487.00 3252.00 L 467.00 3253.00 L 447.00 3253.00 L 427.00 3273.00 L 407.00 3253.00 L 347.00 3253.00 L 345.46 3253.85 L 349.58 3360.00 L 587.00 3360.00 L 607.00 3359.00 L 847.00 3359.00 L 867.00 3358.00 L 1127.00 3358.00 L 1147.00 3357.00 L 1387.00 3357.00 L 1407.00 3356.00 L 1667.00 3356.00 L 1687.00 3355.00 L 1747.00 3355.00 L 1767.00 3366.00 L 1827.00 3366.00 L 1847.00 3368.00 L 1867.00 3364.00 L 1907.00 3364.00 L 1927.00 3362.00 L 1947.00 3362.00 L 1967.00 3354.00 L 2207.00 3354.00 L 2227.00 3353.00 L 2451.19 3353.00 L 2472.00 3282.00 L 2465.05 3238.00 L 2447.00 3238.00 L 2427.00 3239.00 L 2307.00 3239.00 L 2287.00 3240.00 L 2167.00 3240.00 L 2147.00 3241.00 L 2127.00 3241.00 L 2107.00 3261.00 L 2087.00 3261.00 L 2067.00 3241.00 L 2027.00 3241.00 L 2007.00 3242.00 L 1887.00 3242.00 L 1867.00 3243.00 L 1847.00 3223.00 Z" />
<path id="csg562-061-23" fill="none" stroke="black" stroke-width="1" d="M 2227.00 3353.00 L 2207.00 3354.00 L 1967.00 3354.00 L 1947.00 3362.00 L 1927.00 3362.00 L 1907.00 3364.00 L 1867.00 3364.00 L 1847.00 3368.00 L 1827.00 3366.00 L 1767.00 3366.00 L 1747.00 3355.00 L 1687.00 3355.00 L 1667.00 3356.00 L 1407.00 3356.00 L 1387.00 3357.00 L 1147.00 3357.00 L 1127.00 3358.00 L 867.00 3358.00 L 847.00 3359.00 L 607.00 3359.00 L 587.00 3360.00 L 349.58 3360.00 L 354.00 3474.00 L 399.50 3488.00 L 467.00 3488.00 L 487.00 3508.00 L 507.00 3508.00 L 527.00 3488.00 L 664.00 3488.00 L 741.00 3471.00 L 1377.00 3486.00 L 2421.00 3456.00 L 2451.19 3353.00 Z" />
</svg>
