<?xml version="1.0" standalone="no"?>
<!DOCTYPE svg PUBLIC "-//W3C//DTD SVG 1.1//EN" "http://www.w3.org/Graphics/SVG/1.1/DTD/svg11.dtd">
<svg width="46.22222in" height="69.333336in" viewBox="0 0 3328 4992" xmlns="http://www.w3.org/2000/svg" version="1.1">
<path id="csg562-028-01" fill="none" stroke="black" stroke-width="1" d="M 1416.57 813.88 L 1128.00 843.00 L 909.00 837.00 L 907.99 947.45 L 919.00 948.00 L 959.00 948.00 L 979.00 949.00 L 999.00 949.00 L 1019.00 950.00 L 1059.00 950.00 L 1079.00 951.00 L 1099.00 951.00 L 1119.00 952.00 L 1159.00 952.00 L 1179.00 953.00 L 1199.00 953.00 L 1219.00 954.00 L 1239.00 954.00 L 1259.00 955.00 L 1299.00 955.00 L 1319.00 956.00 L 1339.00 956.00 L 1359.00 957.00 L 1399.00 957.00 L 1419.00 958.00 L 1439.00 958.00 L 1459.00 959.00 L 1499.00 959.00 L 1519.00 960.00 L 1539.00 960.00 L 1559.00 961.00 L 1599.00 961.00 L 1619.00 962.00 L 1639.00 962.00 L 1659.00 963.00 L 1679.00 963.00 L 1699.00 964.00 L 1739.00 964.00 L 1759.00 965.00 L 1779.00 965.00 L 1799.00 966.00 L 1839.00 966.00 L 1859.00 967.00 L 1879.00 967.00 L 1899.00 968.00 L 1939.00 968.00 L 1959.00 949.00 L 1979.00 969.00 L 1999.00 970.00 L 2039.00 970.00 L 2059.00 971.00 L 2079.00 971.00 L 2099.00 972.00 L 2119.00 972.00 L 2139.00 933.00 L 2179.00 933.00 L 2199.00 974.00 L 2219.00 974.00 L 2239.00 975.00 L 2279.00 975.00 L 2299.00 976.00 L 2319.00 976.00 L 2339.00 977.00 L 2379.00 977.00 L 2399.00 978.00 L 2419.00 978.00 L 2439.00 979.00 L 2479.00 979.00 L 2499.00 960.00 L 2519.00 980.00 L 2539.00 981.00 L 2559.00 981.00 L 2579.00 982.00 L 2619.00 982.00 L 2639.00 983.00 L 2659.00 983.00 L 2679.00 984.00 L 2719.00 984.00 L 2739.00 985.00 L 2759.00 985.00 L 2779.00 986.00 L 2819.00 986.00 L 2839.00 987.00 L 2859.00 987.00 L 2879.00 988.00 L 2919.00 988.00 L 2939.00 989.00 L 2959.00 989.00 L 2968.91 989.50 L 2964.00 906.00 L 2809.82 842.00 L 2785.77 842.00 L 2430.00 879.00 L 2286.00 837.00 L 1731.00 858.00 L 1483.75 815.00 L 1459.00 815.00 L 1439.00 814.00 L 1419.00 814.00 L 1416.57 813.88 Z" />
<path id="csg562-028-02" fill="none" stroke="black" stroke-width="1" d="M 2139.00 933.00 L 2119.00 972.00 L 2099.00 972.00 L 2079.00 971.00 L 2059.00 971.00 L 2039.00 970.00 L 1999.00 970.00 L 1979.00 969.00 L 1959.00 949.00 L 1939.00 968.00 L 1899.00 968.00 L 1879.00 967.00 L 1859.00 967.00 L 1839.00 966.00 L 1799.00 966.00 L 1779.00 965.00 L 1759.00 965.00 L 1739.00 964.00 L 1699.00 964.00 L 1679.00 963.00 L 1659.00 963.00 L 1639.00 962.00 L 1619.00 962.00 L 1599.00 961.00 L 1559.00 961.00 L 1539.00 960.00 L 1519.00 960.00 L 1499.00 959.00 L 1459.00 959.00 L 1439.00 958.00 L 1419.00 958.00 L 1399.00 957.00 L 1359.00 957.00 L 1339.00 956.00 L 1319.00 956.00 L 1299.00 955.00 L 1259.00 955.00 L 1239.00 954.00 L 1219.00 954.00 L 1199.00 953.00 L 1179.00 953.00 L 1159.00 952.00 L 1119.00 952.00 L 1099.00 951.00 L 1079.00 951.00 L 1059.00 950.00 L 1019.00 950.00 L 999.00 949.00 L 979.00 949.00 L 959.00 948.00 L 919.00 948.00 L 907.99 947.45 L 907.06 1048.00 L 919.00 1048.00 L 939.00 1049.00 L 979.00 1049.00 L 999.00 1050.00 L 1039.00 1050.00 L 1059.00 1051.00 L 1099.00 1051.00 L 1119.00 1052.00 L 1159.00 1052.00 L 1179.00 1053.00 L 1199.00 1053.00 L 1219.00 1054.00 L 1259.00 1054.00 L 1279.00 1055.00 L 1319.00 1055.00 L 1339.00 1056.00 L 1379.00 1056.00 L 1399.00 1057.00 L 1439.00 1057.00 L 1459.00 1058.00 L 1499.00 1058.00 L 1519.00 1059.00 L 1539.00 1059.00 L 1559.00 1060.00 L 1599.00 1060.00 L 1619.00 1061.00 L 1659.00 1061.00 L 1679.00 1062.00 L 1719.00 1062.00 L 1739.00 1063.00 L 1779.00 1063.00 L 1799.00 1064.00 L 1839.00 1064.00 L 1859.00 1065.00 L 1899.00 1065.00 L 1919.00 1066.00 L 1939.00 1066.00 L 1959.00 1067.00 L 1999.00 1067.00 L 2019.00 1068.00 L 2059.00 1068.00 L 2079.00 1069.00 L 2119.00 1069.00 L 2139.00 1070.00 L 2179.00 1070.00 L 2199.00 1071.00 L 2239.00 1071.00 L 2259.00 1072.00 L 2279.00 1072.00 L 2299.00 1073.00 L 2339.00 1073.00 L 2359.00 1074.00 L 2399.00 1074.00 L 2419.00 1075.00 L 2459.00 1075.00 L 2479.00 1076.00 L 2519.00 1076.00 L 2539.00 1077.00 L 2579.00 1077.00 L 2599.00 1078.00 L 2619.00 1078.00 L 2639.00 1079.00 L 2679.00 1079.00 L 2699.00 1080.00 L 2739.00 1080.00 L 2759.00 1081.00 L 2799.00 1081.00 L 2819.00 1082.00 L 2859.00 1082.00 L 2879.00 1083.00 L 2919.00 1083.00 L 2939.00 1084.00 L 2974.47 1084.00 L 2968.91 989.50 L 2959.00 989.00 L 2939.00 989.00 L 2919.00 988.00 L 2879.00 988.00 L 2859.00 987.00 L 2839.00 987.00 L 2819.00 986.00 L 2779.00 986.00 L 2759.00 985.00 L 2739.00 985.00 L 2719.00 984.00 L 2679.00 984.00 L 2659.00 983.00 L 2639.00 983.00 L 2619.00 982.00 L 2579.00 982.00 L 2559.00 981.00 L 2539.00 981.00 L 2519.00 980.00 L 2499.00 960.00 L 2479.00 979.00 L 2439.00 979.00 L 2419.00 978.00 L 2399.00 978.00 L 2379.00 977.00 L 2339.00 977.00 L 2319.00 976.00 L 2299.00 976.00 L 2279.00 975.00 L 2239.00 975.00 L 2219.00 974.00 L 2199.00 974.00 L 2179.00 933.00 Z" />
<path id="csg562-028-03" fill="none" stroke="black" stroke-width="1" d="M 907.06 1048.00 L 906.05 1158.35 L 919.00 1159.00 L 979.00 1159.00 L 999.00 1160.00 L 1079.00 1160.00 L 1099.00 1161.00 L 1159.00 1161.00 L 1179.00 1162.00 L 1259.00 1162.00 L 1279.00 1163.00 L 1339.00 1163.00 L 1359.00 1164.00 L 1419.00 1164.00 L 1439.00 1165.00 L 1519.00 1165.00 L 1539.00 1166.00 L 1599.00 1166.00 L 1619.00 1167.00 L 1699.00 1167.00 L 1719.00 1168.00 L 1779.00 1168.00 L 1799.00 1169.00 L 1879.00 1169.00 L 1899.00 1170.00 L 1959.00 1170.00 L 1979.00 1171.00 L 2039.00 1171.00 L 2059.00 1172.00 L 2139.00 1172.00 L 2159.00 1173.00 L 2219.00 1173.00 L 2239.00 1174.00 L 2319.00 1174.00 L 2339.00 1175.00 L 2399.00 1175.00 L 2419.00 1176.00 L 2499.00 1176.00 L 2519.00 1177.00 L 2579.00 1177.00 L 2599.00 1178.00 L 2659.00 1178.00 L 2679.00 1179.00 L 2759.00 1179.00 L 2779.00 1180.00 L 2799.00 1180.00 L 2819.00 1200.00 L 2839.00 1200.00 L 2859.00 1181.00 L 2939.00 1181.00 L 2959.00 1182.00 L 2988.88 1182.00 L 2976.00 1110.00 L 2974.47 1084.00 L 2939.00 1084.00 L 2919.00 1083.00 L 2879.00 1083.00 L 2859.00 1082.00 L 2819.00 1082.00 L 2799.00 1081.00 L 2759.00 1081.00 L 2739.00 1080.00 L 2699.00 1080.00 L 2679.00 1079.00 L 2639.00 1079.00 L 2619.00 1078.00 L 2599.00 1078.00 L 2579.00 1077.00 L 2539.00 1077.00 L 2519.00 1076.00 L 2479.00 1076.00 L 2459.00 1075.00 L 2419.00 1075.00 L 2399.00 1074.00 L 2359.00 1074.00 L 2339.00 1073.00 L 2299.00 1073.00 L 2279.00 1072.00 L 2259.00 1072.00 L 2239.00 1071.00 L 2199.00 1071.00 L 2179.00 1070.00 L 2139.00 1070.00 L 2119.00 1069.00 L 2079.00 1069.00 L 2059.00 1068.00 L 2019.00 1068.00 L 1999.00 1067.00 L 1959.00 1067.00 L 1939.00 1066.00 L 1919.00 1066.00 L 1899.00 1065.00 L 1859.00 1065.00 L 1839.00 1064.00 L 1799.00 1064.00 L 1779.00 1063.00 L 1739.00 1063.00 L 1719.00 1062.00 L 1679.00 1062.00 L 1659.00 1061.00 L 1619.00 1061.00 L 1599.00 1060.00 L 1559.00 1060.00 L 1539.00 1059.00 L 1519.00 1059.00 L 1499.00 1058.00 L 1459.00 1058.00 L 1439.00 1057.00 L 1399.00 1057.00 L 1379.00 1056.00 L 1339.00 1056.00 L 1319.00 1055.00 L 1279.00 1055.00 L 1259.00 1054.00 L 1219.00 1054.00 L 1199.00 1053.00 L 1179.00 1053.00 L 1159.00 1052.00 L 1119.00 1052.00 L 1099.00 1051.00 L 1059.00 1051.00 L 1039.00 1050.00 L 999.00 1050.00 L 979.00 1049.00 L 939.00 1049.00 L 919.00 1048.00 Z" />
<path id="csg562-028-04" fill="none" stroke="black" stroke-width="1" d="M 906.05 1158.35 L 904.91 1283.00 L 919.00 1283.00 L 939.00 1284.00 L 1019.00 1284.00 L 1039.00 1285.00 L 1119.00 1285.00 L 1139.00 1286.00 L 1159.00 1266.00 L 1199.00 1266.00 L 1219.00 1286.00 L 1239.00 1287.00 L 1319.00 1287.00 L 1339.00 1288.00 L 1419.00 1288.00 L 1439.00 1289.00 L 1519.00 1289.00 L 1539.00 1290.00 L 1619.00 1290.00 L 1639.00 1291.00 L 1719.00 1291.00 L 1739.00 1292.00 L 1819.00 1292.00 L 1839.00 1293.00 L 1919.00 1293.00 L 1939.00 1294.00 L 2019.00 1294.00 L 2039.00 1295.00 L 2119.00 1295.00 L 2139.00 1296.00 L 2219.00 1296.00 L 2239.00 1297.00 L 2319.00 1297.00 L 2339.00 1298.00 L 2419.00 1298.00 L 2439.00 1299.00 L 2519.00 1299.00 L 2539.00 1300.00 L 2619.00 1300.00 L 2639.00 1301.00 L 2719.00 1301.00 L 2739.00 1302.00 L 2759.00 1302.00 L 2779.00 1322.00 L 2799.00 1302.00 L 2819.00 1302.00 L 2839.00 1303.00 L 2919.00 1303.00 L 2939.00 1304.00 L 3010.72 1304.00 L 2988.88 1182.00 L 2959.00 1182.00 L 2939.00 1181.00 L 2859.00 1181.00 L 2839.00 1200.00 L 2819.00 1200.00 L 2799.00 1180.00 L 2779.00 1180.00 L 2759.00 1179.00 L 2679.00 1179.00 L 2659.00 1178.00 L 2599.00 1178.00 L 2579.00 1177.00 L 2519.00 1177.00 L 2499.00 1176.00 L 2419.00 1176.00 L 2399.00 1175.00 L 2339.00 1175.00 L 2319.00 1174.00 L 2239.00 1174.00 L 2219.00 1173.00 L 2159.00 1173.00 L 2139.00 1172.00 L 2059.00 1172.00 L 2039.00 1171.00 L 1979.00 1171.00 L 1959.00 1170.00 L 1899.00 1170.00 L 1879.00 1169.00 L 1799.00 1169.00 L 1779.00 1168.00 L 1719.00 1168.00 L 1699.00 1167.00 L 1619.00 1167.00 L 1599.00 1166.00 L 1539.00 1166.00 L 1519.00 1165.00 L 1439.00 1165.00 L 1419.00 1164.00 L 1359.00 1164.00 L 1339.00 1163.00 L 1279.00 1163.00 L 1259.00 1162.00 L 1179.00 1162.00 L 1159.00 1161.00 L 1099.00 1161.00 L 1079.00 1160.00 L 999.00 1160.00 L 979.00 1159.00 L 919.00 1159.00 L 906.05 1158.35 Z" />
<path id="csg562-028-05" fill="none" stroke="black" stroke-width="1" d="M 1159.00 1266.00 L 1139.00 1286.00 L 1119.00 1285.00 L 1039.00 1285.00 L 1019.00 1284.00 L 939.00 1284.00 L 919.00 1283.00 L 904.91 1283.00 L 903.81 1402.24 L 919.00 1403.00 L 979.00 1403.00 L 999.00 1404.00 L 1079.00 1404.00 L 1099.00 1405.00 L 1159.00 1405.00 L 1179.00 1406.00 L 1239.00 1406.00 L 1259.00 1407.00 L 1339.00 1407.00 L 1359.00 1408.00 L 1419.00 1408.00 L 1439.00 1409.00 L 1499.00 1409.00 L 1519.00 1410.00 L 1599.00 1410.00 L 1619.00 1411.00 L 1679.00 1411.00 L 1699.00 1412.00 L 1759.00 1412.00 L 1779.00 1413.00 L 1859.00 1413.00 L 1879.00 1414.00 L 1939.00 1414.00 L 1959.00 1415.00 L 2019.00 1415.00 L 2039.00 1416.00 L 2119.00 1416.00 L 2139.00 1417.00 L 2199.00 1417.00 L 2219.00 1418.00 L 2279.00 1418.00 L 2299.00 1419.00 L 2379.00 1419.00 L 2399.00 1420.00 L 2459.00 1420.00 L 2479.00 1421.00 L 2539.00 1421.00 L 2559.00 1422.00 L 2639.00 1422.00 L 2659.00 1423.00 L 2719.00 1423.00 L 2739.00 1424.00 L 2799.00 1424.00 L 2819.00 1425.00 L 2899.00 1425.00 L 2919.00 1426.00 L 2979.00 1426.00 L 2999.00 1427.00 L 3011.29 1427.00 L 3027.00 1395.00 L 3010.72 1304.00 L 2939.00 1304.00 L 2919.00 1303.00 L 2839.00 1303.00 L 2819.00 1302.00 L 2799.00 1302.00 L 2779.00 1322.00 L 2759.00 1302.00 L 2739.00 1302.00 L 2719.00 1301.00 L 2639.00 1301.00 L 2619.00 1300.00 L 2539.00 1300.00 L 2519.00 1299.00 L 2439.00 1299.00 L 2419.00 1298.00 L 2339.00 1298.00 L 2319.00 1297.00 L 2239.00 1297.00 L 2219.00 1296.00 L 2139.00 1296.00 L 2119.00 1295.00 L 2039.00 1295.00 L 2019.00 1294.00 L 1939.00 1294.00 L 1919.00 1293.00 L 1839.00 1293.00 L 1819.00 1292.00 L 1739.00 1292.00 L 1719.00 1291.00 L 1639.00 1291.00 L 1619.00 1290.00 L 1539.00 1290.00 L 1519.00 1289.00 L 1439.00 1289.00 L 1419.00 1288.00 L 1339.00 1288.00 L 1319.00 1287.00 L 1239.00 1287.00 L 1219.00 1286.00 L 1199.00 1266.00 Z" />
<path id="csg562-028-06" fill="none" stroke="black" stroke-width="1" d="M 903.81 1402.24 L 903.00 1491.00 L 1014.00 1503.00 L 1006.05 1522.00 L 1039.00 1522.00 L 1059.00 1523.00 L 1119.00 1523.00 L 1139.00 1524.00 L 1199.00 1524.00 L 1219.00 1525.00 L 1279.00 1525.00 L 1299.00 1526.00 L 1359.00 1526.00 L 1379.00 1527.00 L 1439.00 1527.00 L 1459.00 1528.00 L 1519.00 1528.00 L 1539.00 1529.00 L 1599.00 1529.00 L 1619.00 1530.00 L 1679.00 1530.00 L 1699.00 1531.00 L 1739.00 1531.00 L 1759.00 1532.00 L 1819.00 1532.00 L 1839.00 1533.00 L 1899.00 1533.00 L 1919.00 1534.00 L 1979.00 1534.00 L 1999.00 1535.00 L 2059.00 1535.00 L 2079.00 1536.00 L 2139.00 1536.00 L 2159.00 1537.00 L 2219.00 1537.00 L 2239.00 1538.00 L 2299.00 1538.00 L 2319.00 1539.00 L 2379.00 1539.00 L 2399.00 1540.00 L 2419.00 1540.00 L 2439.00 1528.00 L 2459.00 1520.00 L 2479.00 1520.00 L 2499.00 1526.00 L 2519.00 1522.00 L 2539.00 1510.00 L 2579.00 1510.00 L 2599.00 1512.00 L 2619.00 1543.00 L 2679.00 1543.00 L 2699.00 1544.00 L 2759.00 1544.00 L 2779.00 1545.00 L 2839.00 1545.00 L 2859.00 1546.00 L 2919.00 1546.00 L 2939.00 1547.00 L 2952.38 1547.00 L 3011.29 1427.00 L 2999.00 1427.00 L 2979.00 1426.00 L 2919.00 1426.00 L 2899.00 1425.00 L 2819.00 1425.00 L 2799.00 1424.00 L 2739.00 1424.00 L 2719.00 1423.00 L 2659.00 1423.00 L 2639.00 1422.00 L 2559.00 1422.00 L 2539.00 1421.00 L 2479.00 1421.00 L 2459.00 1420.00 L 2399.00 1420.00 L 2379.00 1419.00 L 2299.00 1419.00 L 2279.00 1418.00 L 2219.00 1418.00 L 2199.00 1417.00 L 2139.00 1417.00 L 2119.00 1416.00 L 2039.00 1416.00 L 2019.00 1415.00 L 1959.00 1415.00 L 1939.00 1414.00 L 1879.00 1414.00 L 1859.00 1413.00 L 1779.00 1413.00 L 1759.00 1412.00 L 1699.00 1412.00 L 1679.00 1411.00 L 1619.00 1411.00 L 1599.00 1410.00 L 1519.00 1410.00 L 1499.00 1409.00 L 1439.00 1409.00 L 1419.00 1408.00 L 1359.00 1408.00 L 1339.00 1407.00 L 1259.00 1407.00 L 1239.00 1406.00 L 1179.00 1406.00 L 1159.00 1405.00 L 1099.00 1405.00 L 1079.00 1404.00 L 999.00 1404.00 L 979.00 1403.00 L 919.00 1403.00 L 903.81 1402.24 Z" />
<path id="csg562-028-07" fill="none" stroke="black" stroke-width="1" d="M 2539.00 1510.00 L 2519.00 1522.00 L 2499.00 1526.00 L 2479.00 1520.00 L 2459.00 1520.00 L 2439.00 1528.00 L 2419.00 1540.00 L 2399.00 1540.00 L 2379.00 1539.00 L 2319.00 1539.00 L 2299.00 1538.00 L 2239.00 1538.00 L 2219.00 1537.00 L 2159.00 1537.00 L 2139.00 1536.00 L 2079.00 1536.00 L 2059.00 1535.00 L 1999.00 1535.00 L 1979.00 1534.00 L 1919.00 1534.00 L 1899.00 1533.00 L 1839.00 1533.00 L 1819.00 1532.00 L 1759.00 1532.00 L 1739.00 1531.00 L 1699.00 1531.00 L 1679.00 1530.00 L 1619.00 1530.00 L 1599.00 1529.00 L 1539.00 1529.00 L 1519.00 1528.00 L 1459.00 1528.00 L 1439.00 1527.00 L 1379.00 1527.00 L 1359.00 1526.00 L 1299.00 1526.00 L 1279.00 1525.00 L 1219.00 1525.00 L 1199.00 1524.00 L 1139.00 1524.00 L 1119.00 1523.00 L 1059.00 1523.00 L 1039.00 1522.00 L 1006.05 1522.00 L 960.00 1632.00 L 948.00 1636.00 L 959.00 1636.00 L 979.00 1637.00 L 1039.00 1637.00 L 1059.00 1638.00 L 1119.00 1638.00 L 1139.00 1639.00 L 1199.00 1639.00 L 1219.00 1640.00 L 1279.00 1640.00 L 1299.00 1641.00 L 1359.00 1641.00 L 1379.00 1642.00 L 1439.00 1642.00 L 1459.00 1643.00 L 1519.00 1643.00 L 1539.00 1644.00 L 1599.00 1644.00 L 1619.00 1645.00 L 1679.00 1645.00 L 1699.00 1646.00 L 1739.00 1646.00 L 1759.00 1647.00 L 1819.00 1647.00 L 1839.00 1648.00 L 1899.00 1648.00 L 1919.00 1649.00 L 1979.00 1649.00 L 1999.00 1650.00 L 2059.00 1650.00 L 2079.00 1651.00 L 2139.00 1651.00 L 2159.00 1652.00 L 2219.00 1652.00 L 2239.00 1653.00 L 2299.00 1653.00 L 2319.00 1654.00 L 2379.00 1654.00 L 2399.00 1655.00 L 2459.00 1655.00 L 2479.00 1656.00 L 2539.00 1656.00 L 2559.00 1637.00 L 2579.00 1657.00 L 2599.00 1657.00 L 2619.00 1658.00 L 2679.00 1658.00 L 2699.00 1659.00 L 2759.00 1659.00 L 2779.00 1660.00 L 2839.00 1660.00 L 2859.00 1661.00 L 2919.00 1661.00 L 2939.00 1662.00 L 2995.76 1662.00 L 2946.00 1560.00 L 2952.38 1547.00 L 2939.00 1547.00 L 2919.00 1546.00 L 2859.00 1546.00 L 2839.00 1545.00 L 2779.00 1545.00 L 2759.00 1544.00 L 2699.00 1544.00 L 2679.00 1543.00 L 2619.00 1543.00 L 2599.00 1512.00 L 2579.00 1510.00 Z" />
<path id="csg562-028-08" fill="none" stroke="black" stroke-width="1" d="M 948.00 1636.00 L 897.00 1653.00 L 893.76 1739.74 L 899.00 1740.00 L 959.00 1740.00 L 979.00 1741.00 L 1039.00 1741.00 L 1059.00 1742.00 L 1119.00 1742.00 L 1139.00 1743.00 L 1199.00 1743.00 L 1219.00 1744.00 L 1279.00 1744.00 L 1299.00 1745.00 L 1359.00 1745.00 L 1379.00 1726.00 L 1399.00 1726.00 L 1419.00 1746.00 L 1439.00 1746.00 L 1459.00 1747.00 L 1519.00 1747.00 L 1539.00 1748.00 L 1599.00 1748.00 L 1619.00 1749.00 L 1679.00 1749.00 L 1699.00 1750.00 L 1739.00 1750.00 L 1759.00 1751.00 L 1819.00 1751.00 L 1839.00 1752.00 L 1899.00 1752.00 L 1919.00 1753.00 L 1979.00 1753.00 L 1999.00 1754.00 L 2059.00 1754.00 L 2079.00 1755.00 L 2139.00 1755.00 L 2159.00 1756.00 L 2219.00 1756.00 L 2239.00 1757.00 L 2299.00 1757.00 L 2319.00 1758.00 L 2379.00 1758.00 L 2399.00 1759.00 L 2459.00 1759.00 L 2479.00 1760.00 L 2539.00 1760.00 L 2559.00 1761.00 L 2599.00 1761.00 L 2619.00 1762.00 L 2679.00 1762.00 L 2699.00 1763.00 L 2759.00 1763.00 L 2779.00 1764.00 L 2839.00 1764.00 L 2859.00 1765.00 L 2919.00 1765.00 L 2939.00 1766.00 L 2999.00 1766.00 L 3019.00 1767.00 L 3024.41 1767.00 L 3006.00 1683.00 L 2995.76 1662.00 L 2939.00 1662.00 L 2919.00 1661.00 L 2859.00 1661.00 L 2839.00 1660.00 L 2779.00 1660.00 L 2759.00 1659.00 L 2699.00 1659.00 L 2679.00 1658.00 L 2619.00 1658.00 L 2599.00 1657.00 L 2579.00 1657.00 L 2559.00 1637.00 L 2539.00 1656.00 L 2479.00 1656.00 L 2459.00 1655.00 L 2399.00 1655.00 L 2379.00 1654.00 L 2319.00 1654.00 L 2299.00 1653.00 L 2239.00 1653.00 L 2219.00 1652.00 L 2159.00 1652.00 L 2139.00 1651.00 L 2079.00 1651.00 L 2059.00 1650.00 L 1999.00 1650.00 L 1979.00 1649.00 L 1919.00 1649.00 L 1899.00 1648.00 L 1839.00 1648.00 L 1819.00 1647.00 L 1759.00 1647.00 L 1739.00 1646.00 L 1699.00 1646.00 L 1679.00 1645.00 L 1619.00 1645.00 L 1599.00 1644.00 L 1539.00 1644.00 L 1519.00 1643.00 L 1459.00 1643.00 L 1439.00 1642.00 L 1379.00 1642.00 L 1359.00 1641.00 L 1299.00 1641.00 L 1279.00 1640.00 L 1219.00 1640.00 L 1199.00 1639.00 L 1139.00 1639.00 L 1119.00 1638.00 L 1059.00 1638.00 L 1039.00 1637.00 L 979.00 1637.00 L 959.00 1636.00 Z" />
<path id="csg562-028-09" fill="none" stroke="black" stroke-width="1" d="M 1379.00 1726.00 L 1359.00 1745.00 L 1299.00 1745.00 L 1279.00 1744.00 L 1219.00 1744.00 L 1199.00 1743.00 L 1139.00 1743.00 L 1119.00 1742.00 L 1059.00 1742.00 L 1039.00 1741.00 L 979.00 1741.00 L 959.00 1740.00 L 899.00 1740.00 L 893.76 1739.74 L 889.57 1852.00 L 899.00 1852.00 L 919.00 1853.00 L 999.00 1853.00 L 1019.00 1854.00 L 1079.00 1854.00 L 1099.00 1855.00 L 1179.00 1855.00 L 1199.00 1856.00 L 1259.00 1856.00 L 1279.00 1857.00 L 1359.00 1857.00 L 1379.00 1858.00 L 1439.00 1858.00 L 1459.00 1859.00 L 1539.00 1859.00 L 1559.00 1860.00 L 1619.00 1860.00 L 1639.00 1861.00 L 1659.00 1841.00 L 1699.00 1841.00 L 1719.00 1861.00 L 1739.00 1862.00 L 1819.00 1862.00 L 1839.00 1863.00 L 1899.00 1863.00 L 1919.00 1864.00 L 1999.00 1864.00 L 2019.00 1865.00 L 2079.00 1865.00 L 2099.00 1866.00 L 2179.00 1866.00 L 2199.00 1867.00 L 2259.00 1867.00 L 2279.00 1868.00 L 2359.00 1868.00 L 2379.00 1869.00 L 2439.00 1869.00 L 2459.00 1870.00 L 2539.00 1870.00 L 2559.00 1871.00 L 2639.00 1871.00 L 2659.00 1892.00 L 2679.00 1872.00 L 2699.00 1892.00 L 2719.00 1872.00 L 2739.00 1873.00 L 2819.00 1873.00 L 2839.00 1874.00 L 2899.00 1874.00 L 2919.00 1875.00 L 2999.00 1875.00 L 3019.00 1876.00 L 3048.30 1876.00 L 3024.41 1767.00 L 3019.00 1767.00 L 2999.00 1766.00 L 2939.00 1766.00 L 2919.00 1765.00 L 2859.00 1765.00 L 2839.00 1764.00 L 2779.00 1764.00 L 2759.00 1763.00 L 2699.00 1763.00 L 2679.00 1762.00 L 2619.00 1762.00 L 2599.00 1761.00 L 2559.00 1761.00 L 2539.00 1760.00 L 2479.00 1760.00 L 2459.00 1759.00 L 2399.00 1759.00 L 2379.00 1758.00 L 2319.00 1758.00 L 2299.00 1757.00 L 2239.00 1757.00 L 2219.00 1756.00 L 2159.00 1756.00 L 2139.00 1755.00 L 2079.00 1755.00 L 2059.00 1754.00 L 1999.00 1754.00 L 1979.00 1753.00 L 1919.00 1753.00 L 1899.00 1752.00 L 1839.00 1752.00 L 1819.00 1751.00 L 1759.00 1751.00 L 1739.00 1750.00 L 1699.00 1750.00 L 1679.00 1749.00 L 1619.00 1749.00 L 1599.00 1748.00 L 1539.00 1748.00 L 1519.00 1747.00 L 1459.00 1747.00 L 1439.00 1746.00 L 1419.00 1746.00 L 1399.00 1726.00 Z" />
<path id="csg562-028-10" fill="none" stroke="black" stroke-width="1" d="M 1659.00 1841.00 L 1639.00 1861.00 L 1619.00 1860.00 L 1559.00 1860.00 L 1539.00 1859.00 L 1459.00 1859.00 L 1439.00 1858.00 L 1379.00 1858.00 L 1359.00 1857.00 L 1279.00 1857.00 L 1259.00 1856.00 L 1199.00 1856.00 L 1179.00 1855.00 L 1099.00 1855.00 L 1079.00 1854.00 L 1019.00 1854.00 L 999.00 1853.00 L 919.00 1853.00 L 899.00 1852.00 L 889.57 1852.00 L 885.42 1963.32 L 899.00 1964.00 L 939.00 1964.00 L 959.00 1965.00 L 999.00 1965.00 L 1019.00 1966.00 L 1059.00 1966.00 L 1079.00 1967.00 L 1119.00 1967.00 L 1139.00 1968.00 L 1179.00 1968.00 L 1199.00 1969.00 L 1239.00 1969.00 L 1259.00 1970.00 L 1299.00 1970.00 L 1319.00 1971.00 L 1359.00 1971.00 L 1379.00 1972.00 L 1419.00 1972.00 L 1439.00 1973.00 L 1479.00 1973.00 L 1499.00 1974.00 L 1539.00 1974.00 L 1559.00 1975.00 L 1599.00 1975.00 L 1619.00 1976.00 L 1659.00 1976.00 L 1679.00 1977.00 L 1719.00 1977.00 L 1739.00 1978.00 L 1779.00 1978.00 L 1799.00 1979.00 L 1839.00 1979.00 L 1859.00 1980.00 L 1899.00 1980.00 L 1919.00 1981.00 L 1959.00 1981.00 L 1979.00 1982.00 L 2019.00 1982.00 L 2039.00 1983.00 L 2079.00 1983.00 L 2099.00 1984.00 L 2139.00 1984.00 L 2159.00 1985.00 L 2199.00 1985.00 L 2219.00 1986.00 L 2259.00 1986.00 L 2279.00 1987.00 L 2319.00 1987.00 L 2339.00 1988.00 L 2379.00 1988.00 L 2399.00 1989.00 L 2439.00 1989.00 L 2459.00 1990.00 L 2499.00 1990.00 L 2519.00 1991.00 L 2559.00 1991.00 L 2579.00 1992.00 L 2619.00 1992.00 L 2639.00 1993.00 L 2679.00 1993.00 L 2699.00 1994.00 L 2739.00 1994.00 L 2759.00 1995.00 L 2799.00 1995.00 L 2819.00 1996.00 L 2859.00 1996.00 L 2879.00 1997.00 L 2919.00 1997.00 L 2939.00 1998.00 L 2979.00 1998.00 L 2999.00 1999.00 L 3039.00 1999.00 L 3050.09 1999.74 L 3054.00 1902.00 L 3048.30 1876.00 L 3019.00 1876.00 L 2999.00 1875.00 L 2919.00 1875.00 L 2899.00 1874.00 L 2839.00 1874.00 L 2819.00 1873.00 L 2739.00 1873.00 L 2719.00 1872.00 L 2699.00 1892.00 L 2679.00 1872.00 L 2659.00 1892.00 L 2639.00 1871.00 L 2559.00 1871.00 L 2539.00 1870.00 L 2459.00 1870.00 L 2439.00 1869.00 L 2379.00 1869.00 L 2359.00 1868.00 L 2279.00 1868.00 L 2259.00 1867.00 L 2199.00 1867.00 L 2179.00 1866.00 L 2099.00 1866.00 L 2079.00 1865.00 L 2019.00 1865.00 L 1999.00 1864.00 L 1919.00 1864.00 L 1899.00 1863.00 L 1839.00 1863.00 L 1819.00 1862.00 L 1739.00 1862.00 L 1719.00 1861.00 L 1699.00 1841.00 Z" />
<path id="csg562-028-11" fill="none" stroke="black" stroke-width="1" d="M 885.42 1963.32 L 882.00 2055.00 L 963.00 2055.00 L 958.71 2075.99 L 959.00 2076.00 L 999.00 2076.00 L 1019.00 2077.00 L 1039.00 2077.00 L 1059.00 2078.00 L 1079.00 2078.00 L 1099.00 2079.00 L 1139.00 2079.00 L 1159.00 2080.00 L 1179.00 2080.00 L 1199.00 2081.00 L 1219.00 2081.00 L 1239.00 2082.00 L 1279.00 2082.00 L 1299.00 2083.00 L 1319.00 2083.00 L 1339.00 2084.00 L 1359.00 2084.00 L 1379.00 2085.00 L 1399.00 2085.00 L 1419.00 2086.00 L 1459.00 2086.00 L 1479.00 2087.00 L 1499.00 2087.00 L 1519.00 2088.00 L 1539.00 2088.00 L 1559.00 2089.00 L 1599.00 2089.00 L 1619.00 2090.00 L 1639.00 2090.00 L 1659.00 2091.00 L 1679.00 2091.00 L 1699.00 2092.00 L 1739.00 2092.00 L 1759.00 2093.00 L 1779.00 2093.00 L 1799.00 2094.00 L 1819.00 2094.00 L 1839.00 2088.00 L 1859.00 2086.00 L 1899.00 2086.00 L 1919.00 2096.00 L 1939.00 2097.00 L 1959.00 2097.00 L 1979.00 2098.00 L 1999.00 2098.00 L 2019.00 2099.00 L 2059.00 2099.00 L 2079.00 2100.00 L 2099.00 2100.00 L 2119.00 2101.00 L 2139.00 2101.00 L 2159.00 2082.00 L 2179.00 2082.00 L 2199.00 2102.00 L 2219.00 2103.00 L 2239.00 2103.00 L 2259.00 2104.00 L 2279.00 2104.00 L 2299.00 2105.00 L 2339.00 2105.00 L 2359.00 2106.00 L 2379.00 2106.00 L 2399.00 2107.00 L 2419.00 2087.00 L 2439.00 2108.00 L 2459.00 2108.00 L 2479.00 2109.00 L 2519.00 2109.00 L 2539.00 2110.00 L 2559.00 2110.00 L 2579.00 2111.00 L 2599.00 2111.00 L 2619.00 2112.00 L 2659.00 2112.00 L 2679.00 2113.00 L 2699.00 2113.00 L 2719.00 2114.00 L 2739.00 2114.00 L 2759.00 2115.00 L 2799.00 2115.00 L 2819.00 2116.00 L 2839.00 2116.00 L 2859.00 2117.00 L 2879.00 2117.00 L 2899.00 2118.00 L 2939.00 2118.00 L 2959.00 2119.00 L 2979.00 2119.00 L 2999.00 2120.00 L 3019.00 2120.00 L 3039.00 2121.00 L 3045.24 2121.00 L 3050.09 1999.74 L 3039.00 1999.00 L 2999.00 1999.00 L 2979.00 1998.00 L 2939.00 1998.00 L 2919.00 1997.00 L 2879.00 1997.00 L 2859.00 1996.00 L 2819.00 1996.00 L 2799.00 1995.00 L 2759.00 1995.00 L 2739.00 1994.00 L 2699.00 1994.00 L 2679.00 1993.00 L 2639.00 1993.00 L 2619.00 1992.00 L 2579.00 1992.00 L 2559.00 1991.00 L 2519.00 1991.00 L 2499.00 1990.00 L 2459.00 1990.00 L 2439.00 1989.00 L 2399.00 1989.00 L 2379.00 1988.00 L 2339.00 1988.00 L 2319.00 1987.00 L 2279.00 1987.00 L 2259.00 1986.00 L 2219.00 1986.00 L 2199.00 1985.00 L 2159.00 1985.00 L 2139.00 1984.00 L 2099.00 1984.00 L 2079.00 1983.00 L 2039.00 1983.00 L 2019.00 1982.00 L 1979.00 1982.00 L 1959.00 1981.00 L 1919.00 1981.00 L 1899.00 1980.00 L 1859.00 1980.00 L 1839.00 1979.00 L 1799.00 1979.00 L 1779.00 1978.00 L 1739.00 1978.00 L 1719.00 1977.00 L 1679.00 1977.00 L 1659.00 1976.00 L 1619.00 1976.00 L 1599.00 1975.00 L 1559.00 1975.00 L 1539.00 1974.00 L 1499.00 1974.00 L 1479.00 1973.00 L 1439.00 1973.00 L 1419.00 1972.00 L 1379.00 1972.00 L 1359.00 1971.00 L 1319.00 1971.00 L 1299.00 1970.00 L 1259.00 1970.00 L 1239.00 1969.00 L 1199.00 1969.00 L 1179.00 1968.00 L 1139.00 1968.00 L 1119.00 1967.00 L 1079.00 1967.00 L 1059.00 1966.00 L 1019.00 1966.00 L 999.00 1965.00 L 959.00 1965.00 L 939.00 1964.00 L 899.00 1964.00 L 885.42 1963.32 Z" />
<path id="csg562-028-12" fill="none" stroke="black" stroke-width="1" d="M 958.71 2075.99 L 938.26 2175.96 L 939.00 2176.00 L 959.00 2176.00 L 979.00 2177.00 L 1019.00 2177.00 L 1039.00 2178.00 L 1079.00 2178.00 L 1099.00 2179.00 L 1119.00 2179.00 L 1139.00 2180.00 L 1179.00 2180.00 L 1199.00 2181.00 L 1219.00 2181.00 L 1239.00 2161.00 L 1259.00 2162.00 L 1279.00 2182.00 L 1299.00 2183.00 L 1339.00 2183.00 L 1359.00 2184.00 L 1399.00 2184.00 L 1419.00 2185.00 L 1425.84 2185.00 L 1419.00 2175.00 L 1599.00 2175.00 L 1887.00 2181.00 L 2340.00 2193.00 L 2446.33 2204.00 L 2459.00 2204.00 L 2479.00 2205.00 L 2499.00 2205.00 L 2519.00 2206.00 L 2559.00 2206.00 L 2579.00 2207.00 L 2619.00 2207.00 L 2639.00 2208.00 L 2659.00 2208.00 L 2679.00 2209.00 L 2719.00 2209.00 L 2739.00 2210.00 L 2779.00 2210.00 L 2799.00 2211.00 L 2819.00 2211.00 L 2820.12 2211.06 L 3042.00 2202.00 L 3045.24 2121.00 L 3039.00 2121.00 L 3019.00 2120.00 L 2999.00 2120.00 L 2979.00 2119.00 L 2959.00 2119.00 L 2939.00 2118.00 L 2899.00 2118.00 L 2879.00 2117.00 L 2859.00 2117.00 L 2839.00 2116.00 L 2819.00 2116.00 L 2799.00 2115.00 L 2759.00 2115.00 L 2739.00 2114.00 L 2719.00 2114.00 L 2699.00 2113.00 L 2679.00 2113.00 L 2659.00 2112.00 L 2619.00 2112.00 L 2599.00 2111.00 L 2579.00 2111.00 L 2559.00 2110.00 L 2539.00 2110.00 L 2519.00 2109.00 L 2479.00 2109.00 L 2459.00 2108.00 L 2439.00 2108.00 L 2419.00 2087.00 L 2399.00 2107.00 L 2379.00 2106.00 L 2359.00 2106.00 L 2339.00 2105.00 L 2299.00 2105.00 L 2279.00 2104.00 L 2259.00 2104.00 L 2239.00 2103.00 L 2219.00 2103.00 L 2199.00 2102.00 L 2179.00 2082.00 L 2159.00 2082.00 L 2139.00 2101.00 L 2119.00 2101.00 L 2099.00 2100.00 L 2079.00 2100.00 L 2059.00 2099.00 L 2019.00 2099.00 L 1999.00 2098.00 L 1979.00 2098.00 L 1959.00 2097.00 L 1939.00 2097.00 L 1919.00 2096.00 L 1899.00 2086.00 L 1859.00 2086.00 L 1839.00 2088.00 L 1819.00 2094.00 L 1799.00 2094.00 L 1779.00 2093.00 L 1759.00 2093.00 L 1739.00 2092.00 L 1699.00 2092.00 L 1679.00 2091.00 L 1659.00 2091.00 L 1639.00 2090.00 L 1619.00 2090.00 L 1599.00 2089.00 L 1559.00 2089.00 L 1539.00 2088.00 L 1519.00 2088.00 L 1499.00 2087.00 L 1479.00 2087.00 L 1459.00 2086.00 L 1419.00 2086.00 L 1399.00 2085.00 L 1379.00 2085.00 L 1359.00 2084.00 L 1339.00 2084.00 L 1319.00 2083.00 L 1299.00 2083.00 L 1279.00 2082.00 L 1239.00 2082.00 L 1219.00 2081.00 L 1199.00 2081.00 L 1179.00 2080.00 L 1159.00 2080.00 L 1139.00 2079.00 L 1099.00 2079.00 L 1079.00 2078.00 L 1059.00 2078.00 L 1039.00 2077.00 L 1019.00 2077.00 L 999.00 2076.00 L 959.00 2076.00 L 958.71 2075.99 Z" />
<path id="csg562-028-13" fill="none" stroke="black" stroke-width="1" d="M 1239.00 2161.00 L 1219.00 2181.00 L 1199.00 2181.00 L 1179.00 2180.00 L 1139.00 2180.00 L 1119.00 2179.00 L 1099.00 2179.00 L 1079.00 2178.00 L 1039.00 2178.00 L 1019.00 2177.00 L 979.00 2177.00 L 959.00 2176.00 L 939.00 2176.00 L 938.26 2175.96 L 936.00 2187.00 L 1077.00 2187.00 L 1073.78 2303.00 L 1079.00 2303.00 L 1099.00 2304.00 L 1139.00 2304.00 L 1159.00 2305.00 L 1199.00 2305.00 L 1219.00 2306.00 L 1259.00 2306.00 L 1279.00 2307.00 L 1339.00 2307.00 L 1359.00 2308.00 L 1399.00 2308.00 L 1419.00 2309.00 L 1459.00 2309.00 L 1479.00 2310.00 L 1519.00 2310.00 L 1539.00 2311.00 L 1599.00 2311.00 L 1619.00 2312.00 L 1659.00 2312.00 L 1679.00 2313.00 L 1719.00 2313.00 L 1739.00 2314.00 L 1799.00 2314.00 L 1819.00 2315.00 L 1859.00 2315.00 L 1879.00 2316.00 L 1919.00 2316.00 L 1939.00 2317.00 L 1979.00 2317.00 L 1999.00 2318.00 L 2059.00 2318.00 L 2079.00 2319.00 L 2119.00 2319.00 L 2139.00 2320.00 L 2179.00 2320.00 L 2199.00 2321.00 L 2239.00 2321.00 L 2259.00 2322.00 L 2319.00 2322.00 L 2339.00 2323.00 L 2379.00 2323.00 L 2399.00 2324.00 L 2439.00 2324.00 L 2459.00 2325.00 L 2499.00 2325.00 L 2519.00 2326.00 L 2569.88 2326.00 L 2478.00 2316.00 L 1449.00 2304.00 L 1458.00 2232.00 L 1425.84 2185.00 L 1419.00 2185.00 L 1399.00 2184.00 L 1359.00 2184.00 L 1339.00 2183.00 L 1299.00 2183.00 L 1279.00 2182.00 L 1259.00 2162.00 L 1239.00 2161.00 Z" />
<path id="csg562-028-14" fill="none" stroke="black" stroke-width="1" d="M 1073.78 2303.00 L 1071.00 2403.00 L 1063.56 2416.23 L 1079.00 2417.00 L 1119.00 2417.00 L 1139.00 2418.00 L 1159.00 2418.00 L 1179.00 2419.00 L 1219.00 2419.00 L 1239.00 2420.00 L 1259.00 2420.00 L 1279.00 2421.00 L 1319.00 2421.00 L 1339.00 2422.00 L 1359.00 2422.00 L 1379.00 2423.00 L 1419.00 2423.00 L 1439.00 2424.00 L 1459.00 2424.00 L 1479.00 2425.00 L 1519.00 2425.00 L 1539.00 2426.00 L 1559.00 2426.00 L 1579.00 2427.00 L 1619.00 2427.00 L 1639.00 2428.00 L 1659.00 2428.00 L 1679.00 2429.00 L 1719.00 2429.00 L 1739.00 2430.00 L 1759.00 2430.00 L 1779.00 2431.00 L 1819.00 2431.00 L 1839.00 2432.00 L 1859.00 2432.00 L 1879.00 2433.00 L 1919.00 2433.00 L 1939.00 2434.00 L 1959.00 2434.00 L 1979.00 2435.00 L 2019.00 2435.00 L 2039.00 2436.00 L 2059.00 2436.00 L 2079.00 2437.00 L 2119.00 2437.00 L 2139.00 2418.00 L 2159.00 2438.00 L 2179.00 2438.00 L 2199.00 2439.00 L 2219.00 2439.00 L 2239.00 2440.00 L 2279.00 2440.00 L 2299.00 2441.00 L 2319.00 2441.00 L 2339.00 2442.00 L 2379.00 2442.00 L 2399.00 2443.00 L 2419.00 2443.00 L 2439.00 2444.00 L 2479.00 2444.00 L 2499.00 2445.00 L 2519.00 2445.00 L 2539.00 2446.00 L 2579.00 2446.00 L 2599.00 2447.00 L 2619.00 2447.00 L 2639.00 2448.00 L 2679.00 2448.00 L 2699.00 2449.00 L 2719.00 2449.00 L 2739.00 2450.00 L 2779.00 2450.00 L 2799.00 2451.00 L 2819.00 2451.00 L 2839.00 2452.00 L 2879.00 2452.00 L 2899.00 2453.00 L 2919.00 2453.00 L 2939.00 2454.00 L 2964.62 2454.00 L 2919.00 2364.00 L 2569.88 2326.00 L 2519.00 2326.00 L 2499.00 2325.00 L 2459.00 2325.00 L 2439.00 2324.00 L 2399.00 2324.00 L 2379.00 2323.00 L 2339.00 2323.00 L 2319.00 2322.00 L 2259.00 2322.00 L 2239.00 2321.00 L 2199.00 2321.00 L 2179.00 2320.00 L 2139.00 2320.00 L 2119.00 2319.00 L 2079.00 2319.00 L 2059.00 2318.00 L 1999.00 2318.00 L 1979.00 2317.00 L 1939.00 2317.00 L 1919.00 2316.00 L 1879.00 2316.00 L 1859.00 2315.00 L 1819.00 2315.00 L 1799.00 2314.00 L 1739.00 2314.00 L 1719.00 2313.00 L 1679.00 2313.00 L 1659.00 2312.00 L 1619.00 2312.00 L 1599.00 2311.00 L 1539.00 2311.00 L 1519.00 2310.00 L 1479.00 2310.00 L 1459.00 2309.00 L 1419.00 2309.00 L 1399.00 2308.00 L 1359.00 2308.00 L 1339.00 2307.00 L 1279.00 2307.00 L 1259.00 2306.00 L 1219.00 2306.00 L 1199.00 2305.00 L 1159.00 2305.00 L 1139.00 2304.00 L 1099.00 2304.00 L 1079.00 2303.00 Z" />
<path id="csg562-028-15" fill="none" stroke="black" stroke-width="1" d="M 1063.56 2416.23 L 1044.00 2451.00 L 1049.90 2510.00 L 1099.00 2510.00 L 1119.00 2511.00 L 1179.00 2511.00 L 1199.00 2512.00 L 1239.00 2512.00 L 1259.00 2513.00 L 1319.00 2513.00 L 1339.00 2514.00 L 1399.00 2514.00 L 1419.00 2515.00 L 1459.00 2515.00 L 1479.00 2516.00 L 1539.00 2516.00 L 1559.00 2517.00 L 1599.00 2517.00 L 1619.00 2518.00 L 1679.00 2518.00 L 1699.00 2519.00 L 1759.00 2519.00 L 1779.00 2520.00 L 1819.00 2520.00 L 1839.00 2521.00 L 1899.00 2521.00 L 1919.00 2522.00 L 1979.00 2522.00 L 1999.00 2523.00 L 2039.00 2523.00 L 2059.00 2524.00 L 2119.00 2524.00 L 2139.00 2525.00 L 2179.00 2525.00 L 2199.00 2526.00 L 2259.00 2526.00 L 2279.00 2527.00 L 2339.00 2527.00 L 2359.00 2528.00 L 2399.00 2528.00 L 2419.00 2529.00 L 2479.00 2529.00 L 2499.00 2530.00 L 2559.00 2530.00 L 2579.00 2511.00 L 2599.00 2531.00 L 2619.00 2531.00 L 2639.00 2532.00 L 2699.00 2532.00 L 2719.00 2533.00 L 2779.00 2533.00 L 2799.00 2534.00 L 2819.00 2554.00 L 2839.00 2554.00 L 2859.00 2515.00 L 2879.00 2535.00 L 2919.00 2535.00 L 2939.00 2536.00 L 2979.00 2536.00 L 2999.00 2537.00 L 3006.68 2537.00 L 2964.62 2454.00 L 2939.00 2454.00 L 2919.00 2453.00 L 2899.00 2453.00 L 2879.00 2452.00 L 2839.00 2452.00 L 2819.00 2451.00 L 2799.00 2451.00 L 2779.00 2450.00 L 2739.00 2450.00 L 2719.00 2449.00 L 2699.00 2449.00 L 2679.00 2448.00 L 2639.00 2448.00 L 2619.00 2447.00 L 2599.00 2447.00 L 2579.00 2446.00 L 2539.00 2446.00 L 2519.00 2445.00 L 2499.00 2445.00 L 2479.00 2444.00 L 2439.00 2444.00 L 2419.00 2443.00 L 2399.00 2443.00 L 2379.00 2442.00 L 2339.00 2442.00 L 2319.00 2441.00 L 2299.00 2441.00 L 2279.00 2440.00 L 2239.00 2440.00 L 2219.00 2439.00 L 2199.00 2439.00 L 2179.00 2438.00 L 2159.00 2438.00 L 2139.00 2418.00 L 2119.00 2437.00 L 2079.00 2437.00 L 2059.00 2436.00 L 2039.00 2436.00 L 2019.00 2435.00 L 1979.00 2435.00 L 1959.00 2434.00 L 1939.00 2434.00 L 1919.00 2433.00 L 1879.00 2433.00 L 1859.00 2432.00 L 1839.00 2432.00 L 1819.00 2431.00 L 1779.00 2431.00 L 1759.00 2430.00 L 1739.00 2430.00 L 1719.00 2429.00 L 1679.00 2429.00 L 1659.00 2428.00 L 1639.00 2428.00 L 1619.00 2427.00 L 1579.00 2427.00 L 1559.00 2426.00 L 1539.00 2426.00 L 1519.00 2425.00 L 1479.00 2425.00 L 1459.00 2424.00 L 1439.00 2424.00 L 1419.00 2423.00 L 1379.00 2423.00 L 1359.00 2422.00 L 1339.00 2422.00 L 1319.00 2421.00 L 1279.00 2421.00 L 1259.00 2420.00 L 1239.00 2420.00 L 1219.00 2419.00 L 1179.00 2419.00 L 1159.00 2418.00 L 1139.00 2418.00 L 1119.00 2417.00 L 1079.00 2417.00 L 1063.56 2416.23 Z" />
<path id="csg562-028-16" fill="none" stroke="black" stroke-width="1" d="M 1049.90 2510.00 L 1050.00 2511.00 L 846.00 2526.00 L 850.16 2615.00 L 859.00 2615.00 L 879.00 2616.00 L 919.00 2616.00 L 939.00 2617.00 L 979.00 2617.00 L 999.00 2618.00 L 1019.00 2618.00 L 1039.00 2619.00 L 1079.00 2619.00 L 1099.00 2620.00 L 1139.00 2620.00 L 1159.00 2621.00 L 1179.00 2621.00 L 1199.00 2622.00 L 1239.00 2622.00 L 1259.00 2623.00 L 1299.00 2623.00 L 1319.00 2624.00 L 1339.00 2624.00 L 1359.00 2625.00 L 1399.00 2625.00 L 1419.00 2626.00 L 1459.00 2626.00 L 1479.00 2627.00 L 1519.00 2627.00 L 1539.00 2628.00 L 1559.00 2628.00 L 1579.00 2629.00 L 1619.00 2629.00 L 1639.00 2630.00 L 1659.00 2590.00 L 1679.00 2610.00 L 1699.00 2591.00 L 1719.00 2611.00 L 1739.00 2632.00 L 1779.00 2632.00 L 1799.00 2633.00 L 1839.00 2633.00 L 1859.00 2634.00 L 1879.00 2634.00 L 1899.00 2635.00 L 1939.00 2635.00 L 1959.00 2636.00 L 1999.00 2636.00 L 2019.00 2637.00 L 2039.00 2637.00 L 2059.00 2638.00 L 2099.00 2638.00 L 2119.00 2639.00 L 2159.00 2639.00 L 2179.00 2640.00 L 2219.00 2640.00 L 2239.00 2641.00 L 2259.00 2641.00 L 2279.00 2642.00 L 2319.00 2642.00 L 2339.00 2643.00 L 2379.00 2643.00 L 2399.00 2644.00 L 2419.00 2644.00 L 2439.00 2645.00 L 2479.00 2645.00 L 2499.00 2646.00 L 2539.00 2646.00 L 2559.00 2647.00 L 2579.00 2647.00 L 2599.00 2648.00 L 2639.00 2648.00 L 2659.00 2649.00 L 2699.00 2649.00 L 2719.00 2650.00 L 2759.00 2650.00 L 2779.00 2651.00 L 2799.00 2651.00 L 2819.00 2652.00 L 2859.00 2652.00 L 2879.00 2653.00 L 2919.00 2653.00 L 2939.00 2654.00 L 2959.00 2654.00 L 2979.00 2655.00 L 2993.45 2655.00 L 3030.00 2583.00 L 3006.68 2537.00 L 2999.00 2537.00 L 2979.00 2536.00 L 2939.00 2536.00 L 2919.00 2535.00 L 2879.00 2535.00 L 2859.00 2515.00 L 2839.00 2554.00 L 2819.00 2554.00 L 2799.00 2534.00 L 2779.00 2533.00 L 2719.00 2533.00 L 2699.00 2532.00 L 2639.00 2532.00 L 2619.00 2531.00 L 2599.00 2531.00 L 2579.00 2511.00 L 2559.00 2530.00 L 2499.00 2530.00 L 2479.00 2529.00 L 2419.00 2529.00 L 2399.00 2528.00 L 2359.00 2528.00 L 2339.00 2527.00 L 2279.00 2527.00 L 2259.00 2526.00 L 2199.00 2526.00 L 2179.00 2525.00 L 2139.00 2525.00 L 2119.00 2524.00 L 2059.00 2524.00 L 2039.00 2523.00 L 1999.00 2523.00 L 1979.00 2522.00 L 1919.00 2522.00 L 1899.00 2521.00 L 1839.00 2521.00 L 1819.00 2520.00 L 1779.00 2520.00 L 1759.00 2519.00 L 1699.00 2519.00 L 1679.00 2518.00 L 1619.00 2518.00 L 1599.00 2517.00 L 1559.00 2517.00 L 1539.00 2516.00 L 1479.00 2516.00 L 1459.00 2515.00 L 1419.00 2515.00 L 1399.00 2514.00 L 1339.00 2514.00 L 1319.00 2513.00 L 1259.00 2513.00 L 1239.00 2512.00 L 1199.00 2512.00 L 1179.00 2511.00 L 1119.00 2511.00 L 1099.00 2510.00 Z" />
<path id="csg562-028-17" fill="none" stroke="black" stroke-width="1" d="M 1659.00 2590.00 L 1639.00 2630.00 L 1619.00 2629.00 L 1579.00 2629.00 L 1559.00 2628.00 L 1539.00 2628.00 L 1519.00 2627.00 L 1479.00 2627.00 L 1459.00 2626.00 L 1419.00 2626.00 L 1399.00 2625.00 L 1359.00 2625.00 L 1339.00 2624.00 L 1319.00 2624.00 L 1299.00 2623.00 L 1259.00 2623.00 L 1239.00 2622.00 L 1199.00 2622.00 L 1179.00 2621.00 L 1159.00 2621.00 L 1139.00 2620.00 L 1099.00 2620.00 L 1079.00 2619.00 L 1039.00 2619.00 L 1019.00 2618.00 L 999.00 2618.00 L 979.00 2617.00 L 939.00 2617.00 L 919.00 2616.00 L 879.00 2616.00 L 859.00 2615.00 L 850.16 2615.00 L 855.17 2722.00 L 859.00 2722.00 L 879.00 2723.00 L 919.00 2723.00 L 939.00 2724.00 L 979.00 2724.00 L 999.00 2725.00 L 1039.00 2725.00 L 1059.00 2726.00 L 1099.00 2726.00 L 1119.00 2727.00 L 1159.00 2727.00 L 1179.00 2728.00 L 1219.00 2728.00 L 1239.00 2729.00 L 1279.00 2729.00 L 1299.00 2730.00 L 1319.00 2730.00 L 1339.00 2731.00 L 1379.00 2731.00 L 1399.00 2732.00 L 1439.00 2732.00 L 1459.00 2733.00 L 1499.00 2733.00 L 1519.00 2734.00 L 1559.00 2734.00 L 1579.00 2735.00 L 1619.00 2735.00 L 1639.00 2736.00 L 1679.00 2736.00 L 1699.00 2737.00 L 1739.00 2737.00 L 1759.00 2738.00 L 1799.00 2738.00 L 1819.00 2739.00 L 1839.00 2739.00 L 1859.00 2740.00 L 1899.00 2740.00 L 1919.00 2741.00 L 1959.00 2741.00 L 1979.00 2742.00 L 2019.00 2742.00 L 2039.00 2743.00 L 2079.00 2743.00 L 2099.00 2744.00 L 2139.00 2744.00 L 2159.00 2745.00 L 2199.00 2745.00 L 2219.00 2746.00 L 2259.00 2746.00 L 2279.00 2747.00 L 2319.00 2747.00 L 2339.00 2748.00 L 2359.00 2748.00 L 2379.00 2749.00 L 2419.00 2749.00 L 2439.00 2750.00 L 2479.00 2750.00 L 2499.00 2751.00 L 2539.00 2751.00 L 2559.00 2752.00 L 2599.00 2752.00 L 2619.00 2753.00 L 2659.00 2753.00 L 2679.00 2754.00 L 2719.00 2754.00 L 2739.00 2755.00 L 2779.00 2755.00 L 2799.00 2756.00 L 2839.00 2756.00 L 2859.00 2757.00 L 2879.00 2757.00 L 2899.00 2758.00 L 2939.00 2758.00 L 2941.10 2758.10 L 2993.45 2655.00 L 2979.00 2655.00 L 2959.00 2654.00 L 2939.00 2654.00 L 2919.00 2653.00 L 2879.00 2653.00 L 2859.00 2652.00 L 2819.00 2652.00 L 2799.00 2651.00 L 2779.00 2651.00 L 2759.00 2650.00 L 2719.00 2650.00 L 2699.00 2649.00 L 2659.00 2649.00 L 2639.00 2648.00 L 2599.00 2648.00 L 2579.00 2647.00 L 2559.00 2647.00 L 2539.00 2646.00 L 2499.00 2646.00 L 2479.00 2645.00 L 2439.00 2645.00 L 2419.00 2644.00 L 2399.00 2644.00 L 2379.00 2643.00 L 2339.00 2643.00 L 2319.00 2642.00 L 2279.00 2642.00 L 2259.00 2641.00 L 2239.00 2641.00 L 2219.00 2640.00 L 2179.00 2640.00 L 2159.00 2639.00 L 2119.00 2639.00 L 2099.00 2638.00 L 2059.00 2638.00 L 2039.00 2637.00 L 2019.00 2637.00 L 1999.00 2636.00 L 1959.00 2636.00 L 1939.00 2635.00 L 1899.00 2635.00 L 1879.00 2634.00 L 1859.00 2634.00 L 1839.00 2633.00 L 1799.00 2633.00 L 1779.00 2632.00 L 1739.00 2632.00 L 1719.00 2611.00 L 1699.00 2591.00 L 1679.00 2610.00 L 1659.00 2590.00 Z" />
<path id="csg562-028-18" fill="none" stroke="black" stroke-width="1" d="M 855.17 2722.00 L 860.13 2828.06 L 879.00 2829.00 L 919.00 2829.00 L 939.00 2830.00 L 979.00 2830.00 L 999.00 2831.00 L 1019.00 2831.00 L 1039.00 2832.00 L 1079.00 2832.00 L 1099.00 2833.00 L 1139.00 2833.00 L 1159.00 2834.00 L 1179.00 2834.00 L 1199.00 2835.00 L 1239.00 2835.00 L 1259.00 2836.00 L 1299.00 2836.00 L 1319.00 2837.00 L 1359.00 2837.00 L 1379.00 2838.00 L 1399.00 2838.00 L 1419.00 2839.00 L 1459.00 2839.00 L 1479.00 2840.00 L 1519.00 2840.00 L 1539.00 2841.00 L 1559.00 2841.00 L 1579.00 2842.00 L 1619.00 2842.00 L 1639.00 2843.00 L 1679.00 2843.00 L 1699.00 2844.00 L 1719.00 2844.00 L 1739.00 2845.00 L 1779.00 2845.00 L 1799.00 2846.00 L 1839.00 2846.00 L 1859.00 2847.00 L 1899.00 2847.00 L 1919.00 2848.00 L 1939.00 2848.00 L 1959.00 2849.00 L 1999.00 2849.00 L 2019.00 2850.00 L 2059.00 2850.00 L 2079.00 2851.00 L 2099.00 2851.00 L 2119.00 2852.00 L 2159.00 2852.00 L 2179.00 2853.00 L 2219.00 2853.00 L 2239.00 2854.00 L 2259.00 2854.00 L 2279.00 2855.00 L 2319.00 2855.00 L 2339.00 2856.00 L 2379.00 2856.00 L 2399.00 2857.00 L 2439.00 2857.00 L 2459.00 2858.00 L 2479.00 2858.00 L 2499.00 2859.00 L 2539.00 2859.00 L 2559.00 2860.00 L 2599.00 2860.00 L 2619.00 2861.00 L 2639.00 2861.00 L 2659.00 2862.00 L 2699.00 2862.00 L 2719.00 2863.00 L 2759.00 2863.00 L 2779.00 2864.00 L 2799.00 2864.00 L 2819.00 2865.00 L 2859.00 2865.00 L 2879.00 2886.00 L 2899.00 2866.00 L 2919.00 2866.00 L 2939.00 2867.00 L 2946.54 2867.00 L 2931.00 2778.00 L 2941.10 2758.10 L 2939.00 2758.00 L 2899.00 2758.00 L 2879.00 2757.00 L 2859.00 2757.00 L 2839.00 2756.00 L 2799.00 2756.00 L 2779.00 2755.00 L 2739.00 2755.00 L 2719.00 2754.00 L 2679.00 2754.00 L 2659.00 2753.00 L 2619.00 2753.00 L 2599.00 2752.00 L 2559.00 2752.00 L 2539.00 2751.00 L 2499.00 2751.00 L 2479.00 2750.00 L 2439.00 2750.00 L 2419.00 2749.00 L 2379.00 2749.00 L 2359.00 2748.00 L 2339.00 2748.00 L 2319.00 2747.00 L 2279.00 2747.00 L 2259.00 2746.00 L 2219.00 2746.00 L 2199.00 2745.00 L 2159.00 2745.00 L 2139.00 2744.00 L 2099.00 2744.00 L 2079.00 2743.00 L 2039.00 2743.00 L 2019.00 2742.00 L 1979.00 2742.00 L 1959.00 2741.00 L 1919.00 2741.00 L 1899.00 2740.00 L 1859.00 2740.00 L 1839.00 2739.00 L 1819.00 2739.00 L 1799.00 2738.00 L 1759.00 2738.00 L 1739.00 2737.00 L 1699.00 2737.00 L 1679.00 2736.00 L 1639.00 2736.00 L 1619.00 2735.00 L 1579.00 2735.00 L 1559.00 2734.00 L 1519.00 2734.00 L 1499.00 2733.00 L 1459.00 2733.00 L 1439.00 2732.00 L 1399.00 2732.00 L 1379.00 2731.00 L 1339.00 2731.00 L 1319.00 2730.00 L 1299.00 2730.00 L 1279.00 2729.00 L 1239.00 2729.00 L 1219.00 2728.00 L 1179.00 2728.00 L 1159.00 2727.00 L 1119.00 2727.00 L 1099.00 2726.00 L 1059.00 2726.00 L 1039.00 2725.00 L 999.00 2725.00 L 979.00 2724.00 L 939.00 2724.00 L 919.00 2723.00 L 879.00 2723.00 L 859.00 2722.00 Z" />
<path id="csg562-028-19" fill="none" stroke="black" stroke-width="1" d="M 860.13 2828.06 L 865.70 2947.00 L 879.00 2947.00 L 899.00 2948.00 L 959.00 2948.00 L 979.00 2949.00 L 1039.00 2949.00 L 1059.00 2950.00 L 1099.00 2950.00 L 1119.00 2951.00 L 1179.00 2951.00 L 1199.00 2952.00 L 1259.00 2952.00 L 1279.00 2953.00 L 1319.00 2953.00 L 1339.00 2954.00 L 1399.00 2954.00 L 1419.00 2955.00 L 1479.00 2955.00 L 1499.00 2956.00 L 1539.00 2956.00 L 1559.00 2957.00 L 1619.00 2957.00 L 1639.00 2958.00 L 1699.00 2958.00 L 1719.00 2959.00 L 1779.00 2959.00 L 1799.00 2960.00 L 1839.00 2960.00 L 1859.00 2961.00 L 1919.00 2961.00 L 1939.00 2962.00 L 1999.00 2962.00 L 2019.00 2963.00 L 2059.00 2963.00 L 2079.00 2964.00 L 2139.00 2964.00 L 2159.00 2965.00 L 2219.00 2965.00 L 2239.00 2966.00 L 2279.00 2966.00 L 2299.00 2967.00 L 2359.00 2967.00 L 2379.00 2968.00 L 2439.00 2968.00 L 2459.00 2969.00 L 2499.00 2969.00 L 2519.00 2970.00 L 2579.00 2970.00 L 2599.00 2971.00 L 2659.00 2971.00 L 2679.00 2972.00 L 2739.00 2972.00 L 2759.00 2973.00 L 2799.00 2973.00 L 2819.00 2974.00 L 2879.00 2974.00 L 2899.00 2975.00 L 2959.00 2975.00 L 2965.45 2975.32 L 2946.54 2867.00 L 2939.00 2867.00 L 2919.00 2866.00 L 2899.00 2866.00 L 2879.00 2886.00 L 2859.00 2865.00 L 2819.00 2865.00 L 2799.00 2864.00 L 2779.00 2864.00 L 2759.00 2863.00 L 2719.00 2863.00 L 2699.00 2862.00 L 2659.00 2862.00 L 2639.00 2861.00 L 2619.00 2861.00 L 2599.00 2860.00 L 2559.00 2860.00 L 2539.00 2859.00 L 2499.00 2859.00 L 2479.00 2858.00 L 2459.00 2858.00 L 2439.00 2857.00 L 2399.00 2857.00 L 2379.00 2856.00 L 2339.00 2856.00 L 2319.00 2855.00 L 2279.00 2855.00 L 2259.00 2854.00 L 2239.00 2854.00 L 2219.00 2853.00 L 2179.00 2853.00 L 2159.00 2852.00 L 2119.00 2852.00 L 2099.00 2851.00 L 2079.00 2851.00 L 2059.00 2850.00 L 2019.00 2850.00 L 1999.00 2849.00 L 1959.00 2849.00 L 1939.00 2848.00 L 1919.00 2848.00 L 1899.00 2847.00 L 1859.00 2847.00 L 1839.00 2846.00 L 1799.00 2846.00 L 1779.00 2845.00 L 1739.00 2845.00 L 1719.00 2844.00 L 1699.00 2844.00 L 1679.00 2843.00 L 1639.00 2843.00 L 1619.00 2842.00 L 1579.00 2842.00 L 1559.00 2841.00 L 1539.00 2841.00 L 1519.00 2840.00 L 1479.00 2840.00 L 1459.00 2839.00 L 1419.00 2839.00 L 1399.00 2838.00 L 1379.00 2838.00 L 1359.00 2837.00 L 1319.00 2837.00 L 1299.00 2836.00 L 1259.00 2836.00 L 1239.00 2835.00 L 1199.00 2835.00 L 1179.00 2834.00 L 1159.00 2834.00 L 1139.00 2833.00 L 1099.00 2833.00 L 1079.00 2832.00 L 1039.00 2832.00 L 1019.00 2831.00 L 999.00 2831.00 L 979.00 2830.00 L 939.00 2830.00 L 919.00 2829.00 L 879.00 2829.00 L 860.13 2828.06 Z" />
<path id="csg562-028-20" fill="none" stroke="black" stroke-width="1" d="M 865.70 2947.00 L 870.00 3039.00 L 856.89 3066.00 L 879.00 3066.00 L 899.00 3067.00 L 959.00 3067.00 L 979.00 3068.00 L 1039.00 3068.00 L 1059.00 3069.00 L 1119.00 3069.00 L 1139.00 3070.00 L 1199.00 3070.00 L 1219.00 3071.00 L 1259.00 3071.00 L 1279.00 3072.00 L 1339.00 3072.00 L 1359.00 3073.00 L 1419.00 3073.00 L 1439.00 3074.00 L 1499.00 3074.00 L 1519.00 3075.00 L 1579.00 3075.00 L 1599.00 3076.00 L 1639.00 3076.00 L 1659.00 3077.00 L 1719.00 3077.00 L 1739.00 3078.00 L 1799.00 3078.00 L 1819.00 3079.00 L 1879.00 3079.00 L 1899.00 3080.00 L 1959.00 3080.00 L 1979.00 3081.00 L 2019.00 3081.00 L 2039.00 3082.00 L 2099.00 3082.00 L 2119.00 3083.00 L 2179.00 3083.00 L 2199.00 3084.00 L 2259.00 3084.00 L 2279.00 3085.00 L 2339.00 3085.00 L 2359.00 3086.00 L 2399.00 3086.00 L 2419.00 3087.00 L 2479.00 3087.00 L 2499.00 3088.00 L 2559.00 3088.00 L 2579.00 3089.00 L 2639.00 3089.00 L 2659.00 3090.00 L 2719.00 3090.00 L 2739.00 3091.00 L 2799.00 3091.00 L 2819.00 3092.00 L 2859.00 3092.00 L 2879.00 3093.00 L 2939.00 3093.00 L 2959.00 3094.00 L 2986.17 3094.00 L 2965.45 2975.32 L 2959.00 2975.00 L 2899.00 2975.00 L 2879.00 2974.00 L 2819.00 2974.00 L 2799.00 2973.00 L 2759.00 2973.00 L 2739.00 2972.00 L 2679.00 2972.00 L 2659.00 2971.00 L 2599.00 2971.00 L 2579.00 2970.00 L 2519.00 2970.00 L 2499.00 2969.00 L 2459.00 2969.00 L 2439.00 2968.00 L 2379.00 2968.00 L 2359.00 2967.00 L 2299.00 2967.00 L 2279.00 2966.00 L 2239.00 2966.00 L 2219.00 2965.00 L 2159.00 2965.00 L 2139.00 2964.00 L 2079.00 2964.00 L 2059.00 2963.00 L 2019.00 2963.00 L 1999.00 2962.00 L 1939.00 2962.00 L 1919.00 2961.00 L 1859.00 2961.00 L 1839.00 2960.00 L 1799.00 2960.00 L 1779.00 2959.00 L 1719.00 2959.00 L 1699.00 2958.00 L 1639.00 2958.00 L 1619.00 2957.00 L 1559.00 2957.00 L 1539.00 2956.00 L 1499.00 2956.00 L 1479.00 2955.00 L 1419.00 2955.00 L 1399.00 2954.00 L 1339.00 2954.00 L 1319.00 2953.00 L 1279.00 2953.00 L 1259.00 2952.00 L 1199.00 2952.00 L 1179.00 2951.00 L 1119.00 2951.00 L 1099.00 2950.00 L 1059.00 2950.00 L 1039.00 2949.00 L 979.00 2949.00 L 959.00 2948.00 L 899.00 2948.00 L 879.00 2947.00 Z" />
<path id="csg562-028-21" fill="none" stroke="black" stroke-width="1" d="M 856.89 3066.00 L 819.00 3144.00 L 825.36 3180.82 L 839.00 3174.00 L 879.00 3174.00 L 899.00 3175.00 L 939.00 3175.00 L 959.00 3176.00 L 999.00 3176.00 L 1019.00 3177.00 L 1059.00 3177.00 L 1079.00 3178.00 L 1139.00 3178.00 L 1159.00 3179.00 L 1199.00 3179.00 L 1219.00 3180.00 L 1259.00 3180.00 L 1279.00 3181.00 L 1319.00 3181.00 L 1339.00 3182.00 L 1399.00 3182.00 L 1419.00 3183.00 L 1459.00 3183.00 L 1479.00 3184.00 L 1519.00 3184.00 L 1539.00 3185.00 L 1579.00 3185.00 L 1599.00 3186.00 L 1639.00 3186.00 L 1659.00 3187.00 L 1719.00 3187.00 L 1739.00 3188.00 L 1779.00 3188.00 L 1799.00 3189.00 L 1839.00 3189.00 L 1859.00 3190.00 L 1899.00 3190.00 L 1919.00 3191.00 L 1979.00 3191.00 L 1999.00 3192.00 L 2039.00 3192.00 L 2059.00 3193.00 L 2099.00 3193.00 L 2119.00 3194.00 L 2159.00 3194.00 L 2179.00 3195.00 L 2239.00 3195.00 L 2259.00 3196.00 L 2299.00 3196.00 L 2319.00 3197.00 L 2359.00 3197.00 L 2379.00 3198.00 L 2419.00 3198.00 L 2439.00 3199.00 L 2479.00 3199.00 L 2499.00 3200.00 L 2559.00 3200.00 L 2579.00 3201.00 L 2619.00 3201.00 L 2639.00 3202.00 L 2679.00 3202.00 L 2699.00 3203.00 L 2739.00 3203.00 L 2759.00 3204.00 L 2819.00 3204.00 L 2839.00 3205.00 L 2879.00 3205.00 L 2899.00 3206.00 L 2939.00 3206.00 L 2959.00 3207.00 L 2984.49 3207.00 L 2997.00 3156.00 L 2986.17 3094.00 L 2959.00 3094.00 L 2939.00 3093.00 L 2879.00 3093.00 L 2859.00 3092.00 L 2819.00 3092.00 L 2799.00 3091.00 L 2739.00 3091.00 L 2719.00 3090.00 L 2659.00 3090.00 L 2639.00 3089.00 L 2579.00 3089.00 L 2559.00 3088.00 L 2499.00 3088.00 L 2479.00 3087.00 L 2419.00 3087.00 L 2399.00 3086.00 L 2359.00 3086.00 L 2339.00 3085.00 L 2279.00 3085.00 L 2259.00 3084.00 L 2199.00 3084.00 L 2179.00 3083.00 L 2119.00 3083.00 L 2099.00 3082.00 L 2039.00 3082.00 L 2019.00 3081.00 L 1979.00 3081.00 L 1959.00 3080.00 L 1899.00 3080.00 L 1879.00 3079.00 L 1819.00 3079.00 L 1799.00 3078.00 L 1739.00 3078.00 L 1719.00 3077.00 L 1659.00 3077.00 L 1639.00 3076.00 L 1599.00 3076.00 L 1579.00 3075.00 L 1519.00 3075.00 L 1499.00 3074.00 L 1439.00 3074.00 L 1419.00 3073.00 L 1359.00 3073.00 L 1339.00 3072.00 L 1279.00 3072.00 L 1259.00 3071.00 L 1219.00 3071.00 L 1199.00 3070.00 L 1139.00 3070.00 L 1119.00 3069.00 L 1059.00 3069.00 L 1039.00 3068.00 L 979.00 3068.00 L 959.00 3067.00 L 899.00 3067.00 L 879.00 3066.00 Z" />
<path id="csg562-028-22" fill="none" stroke="black" stroke-width="1" d="M 839.00 3174.00 L 825.36 3180.82 L 842.49 3280.00 L 879.00 3280.00 L 899.00 3281.00 L 959.00 3281.00 L 979.00 3282.00 L 1039.00 3282.00 L 1059.00 3283.00 L 1119.00 3283.00 L 1139.00 3284.00 L 1199.00 3284.00 L 1219.00 3285.00 L 1279.00 3285.00 L 1299.00 3286.00 L 1359.00 3286.00 L 1379.00 3287.00 L 1439.00 3287.00 L 1459.00 3288.00 L 1519.00 3288.00 L 1539.00 3289.00 L 1579.00 3289.00 L 1599.00 3290.00 L 1659.00 3290.00 L 1679.00 3291.00 L 1739.00 3291.00 L 1759.00 3292.00 L 1819.00 3292.00 L 1839.00 3293.00 L 1899.00 3293.00 L 1919.00 3294.00 L 1979.00 3294.00 L 1999.00 3295.00 L 2059.00 3295.00 L 2079.00 3296.00 L 2139.00 3296.00 L 2159.00 3297.00 L 2219.00 3297.00 L 2239.00 3298.00 L 2299.00 3298.00 L 2319.00 3299.00 L 2359.00 3299.00 L 2379.00 3300.00 L 2439.00 3300.00 L 2459.00 3301.00 L 2519.00 3301.00 L 2539.00 3302.00 L 2599.00 3302.00 L 2619.00 3303.00 L 2679.00 3303.00 L 2699.00 3304.00 L 2759.00 3304.00 L 2779.00 3305.00 L 2839.00 3305.00 L 2859.00 3306.00 L 2919.00 3306.00 L 2939.00 3307.00 L 2959.96 3307.00 L 2984.49 3207.00 L 2959.00 3207.00 L 2939.00 3206.00 L 2899.00 3206.00 L 2879.00 3205.00 L 2839.00 3205.00 L 2819.00 3204.00 L 2759.00 3204.00 L 2739.00 3203.00 L 2699.00 3203.00 L 2679.00 3202.00 L 2639.00 3202.00 L 2619.00 3201.00 L 2579.00 3201.00 L 2559.00 3200.00 L 2499.00 3200.00 L 2479.00 3199.00 L 2439.00 3199.00 L 2419.00 3198.00 L 2379.00 3198.00 L 2359.00 3197.00 L 2319.00 3197.00 L 2299.00 3196.00 L 2259.00 3196.00 L 2239.00 3195.00 L 2179.00 3195.00 L 2159.00 3194.00 L 2119.00 3194.00 L 2099.00 3193.00 L 2059.00 3193.00 L 2039.00 3192.00 L 1999.00 3192.00 L 1979.00 3191.00 L 1919.00 3191.00 L 1899.00 3190.00 L 1859.00 3190.00 L 1839.00 3189.00 L 1799.00 3189.00 L 1779.00 3188.00 L 1739.00 3188.00 L 1719.00 3187.00 L 1659.00 3187.00 L 1639.00 3186.00 L 1599.00 3186.00 L 1579.00 3185.00 L 1539.00 3185.00 L 1519.00 3184.00 L 1479.00 3184.00 L 1459.00 3183.00 L 1419.00 3183.00 L 1399.00 3182.00 L 1339.00 3182.00 L 1319.00 3181.00 L 1279.00 3181.00 L 1259.00 3180.00 L 1219.00 3180.00 L 1199.00 3179.00 L 1159.00 3179.00 L 1139.00 3178.00 L 1079.00 3178.00 L 1059.00 3177.00 L 1019.00 3177.00 L 999.00 3176.00 L 959.00 3176.00 L 939.00 3175.00 L 899.00 3175.00 L 879.00 3174.00 Z" />
<path id="csg562-028-23" fill="none" stroke="black" stroke-width="1" d="M 842.49 3280.00 L 861.66 3391.00 L 899.00 3391.00 L 919.00 3392.00 L 999.00 3392.00 L 1019.00 3393.00 L 1099.00 3393.00 L 1119.00 3394.00 L 1139.00 3354.00 L 1159.00 3374.00 L 1179.00 3374.00 L 1199.00 3394.00 L 1219.00 3395.00 L 1299.00 3395.00 L 1319.00 3396.00 L 1399.00 3396.00 L 1419.00 3397.00 L 1499.00 3397.00 L 1519.00 3398.00 L 1599.00 3398.00 L 1619.00 3399.00 L 1679.00 3399.00 L 1699.00 3400.00 L 1779.00 3400.00 L 1799.00 3401.00 L 1879.00 3401.00 L 1899.00 3402.00 L 1979.00 3402.00 L 1999.00 3403.00 L 2079.00 3403.00 L 2099.00 3404.00 L 2179.00 3404.00 L 2199.00 3405.00 L 2279.00 3405.00 L 2299.00 3406.00 L 2379.00 3406.00 L 2399.00 3407.00 L 2479.00 3407.00 L 2499.00 3408.00 L 2559.00 3408.00 L 2579.00 3409.00 L 2659.00 3409.00 L 2679.00 3410.00 L 2759.00 3410.00 L 2779.00 3411.00 L 2859.00 3411.00 L 2879.00 3412.00 L 2928.75 3412.00 L 2958.00 3315.00 L 2959.96 3307.00 L 2939.00 3307.00 L 2919.00 3306.00 L 2859.00 3306.00 L 2839.00 3305.00 L 2779.00 3305.00 L 2759.00 3304.00 L 2699.00 3304.00 L 2679.00 3303.00 L 2619.00 3303.00 L 2599.00 3302.00 L 2539.00 3302.00 L 2519.00 3301.00 L 2459.00 3301.00 L 2439.00 3300.00 L 2379.00 3300.00 L 2359.00 3299.00 L 2319.00 3299.00 L 2299.00 3298.00 L 2239.00 3298.00 L 2219.00 3297.00 L 2159.00 3297.00 L 2139.00 3296.00 L 2079.00 3296.00 L 2059.00 3295.00 L 1999.00 3295.00 L 1979.00 3294.00 L 1919.00 3294.00 L 1899.00 3293.00 L 1839.00 3293.00 L 1819.00 3292.00 L 1759.00 3292.00 L 1739.00 3291.00 L 1679.00 3291.00 L 1659.00 3290.00 L 1599.00 3290.00 L 1579.00 3289.00 L 1539.00 3289.00 L 1519.00 3288.00 L 1459.00 3288.00 L 1439.00 3287.00 L 1379.00 3287.00 L 1359.00 3286.00 L 1299.00 3286.00 L 1279.00 3285.00 L 1219.00 3285.00 L 1199.00 3284.00 L 1139.00 3284.00 L 1119.00 3283.00 L 1059.00 3283.00 L 1039.00 3282.00 L 979.00 3282.00 L 959.00 3281.00 L 899.00 3281.00 L 879.00 3280.00 Z" />
<path id="csg562-028-24" fill="none" stroke="black" stroke-width="1" d="M 1139.00 3354.00 L 1119.00 3394.00 L 1099.00 3393.00 L 1019.00 3393.00 L 999.00 3392.00 L 919.00 3392.00 L 899.00 3391.00 L 861.66 3391.00 L 876.00 3474.00 L 1161.00 3489.00 L 1485.00 3501.00 L 2157.00 3498.00 L 2777.00 3503.00 L 2901.30 3503.00 L 2928.75 3412.00 L 2879.00 3412.00 L 2859.00 3411.00 L 2779.00 3411.00 L 2759.00 3410.00 L 2679.00 3410.00 L 2659.00 3409.00 L 2579.00 3409.00 L 2559.00 3408.00 L 2499.00 3408.00 L 2479.00 3407.00 L 2399.00 3407.00 L 2379.00 3406.00 L 2299.00 3406.00 L 2279.00 3405.00 L 2199.00 3405.00 L 2179.00 3404.00 L 2099.00 3404.00 L 2079.00 3403.00 L 1999.00 3403.00 L 1979.00 3402.00 L 1899.00 3402.00 L 1879.00 3401.00 L 1799.00 3401.00 L 1779.00 3400.00 L 1699.00 3400.00 L 1679.00 3399.00 L 1619.00 3399.00 L 1599.00 3398.00 L 1519.00 3398.00 L 1499.00 3397.00 L 1419.00 3397.00 L 1399.00 3396.00 L 1319.00 3396.00 L 1299.00 3395.00 L 1219.00 3395.00 L 1199.00 3394.00 L 1179.00 3374.00 L 1159.00 3374.00 L 1139.00 3354.00 Z" />
</svg>
