<?xml version="1.0" standalone="no"?>
<!DOCTYPE svg PUBLIC "-//W3C//DTD SVG 1.1//EN" "http://www.w3.org/Graphics/SVG/1.1/DTD/svg11.dtd">
<svg width="46.22222in" height="69.333336in" viewBox="0 0 3328 4992" xmlns="http://www.w3.org/2000/svg" version="1.1">
<path id="csg562-027-01" fill="none" stroke="black" stroke-width="1" d="M 1751.27 763.00 L 1617.00 801.00 L 1530.00 789.00 L 1092.00 813.00 L 939.00 786.00 L 585.00 801.00 L 357.00 813.00 L 342.00 879.00 L 342.31 907.83 L 362.00 897.00 L 422.00 897.00 L 442.00 896.00 L 522.00 896.00 L 542.00 895.00 L 622.00 895.00 L 642.00 894.00 L 722.00 894.00 L 742.00 893.00 L 822.00 893.00 L 842.00 892.00 L 922.00 892.00 L 942.00 891.00 L 1022.00 891.00 L 1042.00 890.00 L 1082.00 890.00 L 1102.00 910.00 L 1122.00 890.00 L 1142.00 889.00 L 1202.00 889.00 L 1222.00 888.00 L 1302.00 888.00 L 1322.00 887.00 L 1402.00 887.00 L 1422.00 886.00 L 1502.00 886.00 L 1522.00 885.00 L 1602.00 885.00 L 1622.00 884.00 L 1702.00 884.00 L 1722.00 883.00 L 1802.00 883.00 L 1822.00 882.00 L 1862.00 882.00 L 1882.00 902.00 L 1902.00 882.00 L 1922.00 881.00 L 1982.00 881.00 L 2002.00 880.00 L 2082.00 880.00 L 2102.00 879.00 L 2182.00 879.00 L 2202.00 878.00 L 2282.00 878.00 L 2302.00 877.00 L 2382.00 877.00 L 2402.00 876.00 L 2437.00 876.00 L 2469.00 840.00 L 2430.00 798.00 L 1845.00 795.00 L 1788.38 763.00 Z" />
<path id="csg562-027-02" fill="none" stroke="black" stroke-width="1" d="M 2402.00 876.00 L 2382.00 877.00 L 2302.00 877.00 L 2282.00 878.00 L 2202.00 878.00 L 2182.00 879.00 L 2102.00 879.00 L 2082.00 880.00 L 2002.00 880.00 L 1982.00 881.00 L 1922.00 881.00 L 1902.00 882.00 L 1882.00 902.00 L 1862.00 882.00 L 1822.00 882.00 L 1802.00 883.00 L 1722.00 883.00 L 1702.00 884.00 L 1622.00 884.00 L 1602.00 885.00 L 1522.00 885.00 L 1502.00 886.00 L 1422.00 886.00 L 1402.00 887.00 L 1322.00 887.00 L 1302.00 888.00 L 1222.00 888.00 L 1202.00 889.00 L 1142.00 889.00 L 1122.00 890.00 L 1102.00 910.00 L 1082.00 890.00 L 1042.00 890.00 L 1022.00 891.00 L 942.00 891.00 L 922.00 892.00 L 842.00 892.00 L 822.00 893.00 L 742.00 893.00 L 722.00 894.00 L 642.00 894.00 L 622.00 895.00 L 542.00 895.00 L 522.00 896.00 L 442.00 896.00 L 422.00 897.00 L 362.00 897.00 L 342.31 907.83 L 343.44 1013.21 L 362.00 1003.00 L 382.00 1023.00 L 402.00 1023.00 L 422.00 1003.00 L 482.00 1003.00 L 502.00 1002.00 L 642.00 1002.00 L 662.00 1001.00 L 802.00 1001.00 L 822.00 1000.00 L 962.00 1000.00 L 982.00 999.00 L 1122.00 999.00 L 1142.00 998.00 L 1282.00 998.00 L 1302.00 997.00 L 1422.00 997.00 L 1442.00 996.00 L 1582.00 996.00 L 1602.00 995.00 L 1742.00 995.00 L 1762.00 994.00 L 1902.00 994.00 L 1922.00 993.00 L 2062.00 993.00 L 2082.00 992.00 L 2222.00 992.00 L 2242.00 991.00 L 2382.00 991.00 L 2402.00 990.00 L 2427.00 990.00 L 2421.00 894.00 L 2437.00 876.00 Z" />
<path id="csg562-027-03" fill="none" stroke="black" stroke-width="1" d="M 2402.00 990.00 L 2382.00 991.00 L 2242.00 991.00 L 2222.00 992.00 L 2082.00 992.00 L 2062.00 993.00 L 1922.00 993.00 L 1902.00 994.00 L 1762.00 994.00 L 1742.00 995.00 L 1602.00 995.00 L 1582.00 996.00 L 1442.00 996.00 L 1422.00 997.00 L 1302.00 997.00 L 1282.00 998.00 L 1142.00 998.00 L 1122.00 999.00 L 982.00 999.00 L 962.00 1000.00 L 822.00 1000.00 L 802.00 1001.00 L 662.00 1001.00 L 642.00 1002.00 L 502.00 1002.00 L 482.00 1003.00 L 422.00 1003.00 L 402.00 1023.00 L 382.00 1023.00 L 362.00 1003.00 L 343.44 1013.21 L 344.68 1129.53 L 362.00 1120.00 L 542.00 1120.00 L 562.00 1119.00 L 762.00 1119.00 L 782.00 1118.00 L 982.00 1118.00 L 1002.00 1117.00 L 1202.00 1117.00 L 1222.00 1116.00 L 1422.00 1116.00 L 1442.00 1115.00 L 1642.00 1115.00 L 1662.00 1114.00 L 1862.00 1114.00 L 1882.00 1113.00 L 2082.00 1113.00 L 2102.00 1112.00 L 2302.00 1112.00 L 2322.00 1111.00 L 2434.56 1111.00 L 2427.00 990.00 Z" />
<path id="csg562-027-04" fill="none" stroke="black" stroke-width="1" d="M 2322.00 1111.00 L 2302.00 1112.00 L 2102.00 1112.00 L 2082.00 1113.00 L 1882.00 1113.00 L 1862.00 1114.00 L 1662.00 1114.00 L 1642.00 1115.00 L 1442.00 1115.00 L 1422.00 1116.00 L 1222.00 1116.00 L 1202.00 1117.00 L 1002.00 1117.00 L 982.00 1118.00 L 782.00 1118.00 L 762.00 1119.00 L 562.00 1119.00 L 542.00 1120.00 L 362.00 1120.00 L 344.68 1129.53 L 345.87 1240.87 L 362.00 1232.00 L 642.00 1232.00 L 662.00 1231.00 L 822.00 1231.00 L 842.00 1251.00 L 862.00 1231.00 L 962.00 1231.00 L 982.00 1230.00 L 1182.00 1230.00 L 1202.00 1250.00 L 1222.00 1230.00 L 1282.00 1230.00 L 1302.00 1229.00 L 1602.00 1229.00 L 1622.00 1228.00 L 1902.00 1228.00 L 1922.00 1227.00 L 2222.00 1227.00 L 2242.00 1226.00 L 2441.75 1226.00 L 2434.56 1111.00 Z" />
<path id="csg562-027-05" fill="none" stroke="black" stroke-width="1" d="M 2242.00 1226.00 L 2222.00 1227.00 L 1922.00 1227.00 L 1902.00 1228.00 L 1622.00 1228.00 L 1602.00 1229.00 L 1302.00 1229.00 L 1282.00 1230.00 L 1222.00 1230.00 L 1202.00 1250.00 L 1182.00 1230.00 L 982.00 1230.00 L 962.00 1231.00 L 862.00 1231.00 L 842.00 1251.00 L 822.00 1231.00 L 662.00 1231.00 L 642.00 1232.00 L 362.00 1232.00 L 345.87 1240.87 L 347.16 1361.16 L 362.00 1353.00 L 542.00 1353.00 L 562.00 1352.00 L 762.00 1352.00 L 782.00 1351.00 L 982.00 1351.00 L 1002.00 1350.00 L 1182.00 1350.00 L 1202.00 1349.00 L 1402.00 1349.00 L 1422.00 1348.00 L 1622.00 1348.00 L 1642.00 1347.00 L 1694.78 1347.00 L 1695.00 1344.00 L 1767.00 1347.00 L 1822.00 1347.00 L 1842.00 1346.00 L 2042.00 1346.00 L 2062.00 1345.00 L 2070.11 1345.00 L 2448.00 1326.00 L 2441.75 1226.00 Z" />
<path id="csg562-027-06" fill="none" stroke="black" stroke-width="1" d="M 1642.00 1347.00 L 1622.00 1348.00 L 1422.00 1348.00 L 1402.00 1349.00 L 1202.00 1349.00 L 1182.00 1350.00 L 1002.00 1350.00 L 982.00 1351.00 L 782.00 1351.00 L 762.00 1352.00 L 562.00 1352.00 L 542.00 1353.00 L 362.00 1353.00 L 347.16 1361.16 L 348.00 1440.00 L 461.12 1463.04 L 462.00 1463.00 L 462.28 1463.28 L 495.05 1469.95 L 502.00 1463.00 L 542.00 1463.00 L 562.00 1462.00 L 642.00 1462.00 L 662.00 1461.00 L 762.00 1461.00 L 782.00 1460.00 L 822.00 1460.00 L 842.00 1480.00 L 862.00 1460.00 L 882.00 1459.00 L 962.00 1459.00 L 982.00 1458.00 L 1062.00 1458.00 L 1082.00 1457.00 L 1182.00 1457.00 L 1202.00 1456.00 L 1282.00 1456.00 L 1302.00 1455.00 L 1382.00 1455.00 L 1402.00 1454.00 L 1502.00 1454.00 L 1522.00 1453.00 L 1602.00 1453.00 L 1622.00 1452.00 L 1642.00 1452.00 L 1662.00 1472.00 L 1682.00 1452.00 L 1686.90 1452.00 L 1694.78 1347.00 Z" />
<path id="csg562-027-07" fill="none" stroke="black" stroke-width="1" d="M 1622.00 1452.00 L 1602.00 1453.00 L 1522.00 1453.00 L 1502.00 1454.00 L 1402.00 1454.00 L 1382.00 1455.00 L 1302.00 1455.00 L 1282.00 1456.00 L 1202.00 1456.00 L 1182.00 1457.00 L 1082.00 1457.00 L 1062.00 1458.00 L 982.00 1458.00 L 962.00 1459.00 L 882.00 1459.00 L 862.00 1460.00 L 842.00 1480.00 L 822.00 1460.00 L 782.00 1460.00 L 762.00 1461.00 L 662.00 1461.00 L 642.00 1462.00 L 562.00 1462.00 L 542.00 1463.00 L 502.00 1463.00 L 495.05 1469.95 L 510.00 1473.00 L 552.00 1545.00 L 548.84 1576.00 L 602.00 1576.00 L 622.00 1575.00 L 702.00 1575.00 L 722.00 1574.00 L 782.00 1574.00 L 802.00 1573.00 L 882.00 1573.00 L 902.00 1572.00 L 982.00 1572.00 L 1002.00 1571.00 L 1062.00 1571.00 L 1082.00 1570.00 L 1162.00 1570.00 L 1182.00 1569.00 L 1242.00 1569.00 L 1262.00 1568.00 L 1342.00 1568.00 L 1362.00 1567.00 L 1442.00 1567.00 L 1462.00 1566.00 L 1522.00 1566.00 L 1542.00 1565.00 L 1622.00 1565.00 L 1642.00 1564.00 L 1702.00 1564.00 L 1722.00 1563.00 L 1802.00 1563.00 L 1822.00 1562.00 L 1902.00 1562.00 L 1922.00 1561.00 L 1982.00 1561.00 L 2002.00 1560.00 L 2082.00 1560.00 L 2102.00 1559.00 L 2162.00 1559.00 L 2182.00 1558.00 L 2262.00 1558.00 L 2282.00 1557.00 L 2362.00 1557.00 L 2382.00 1556.00 L 2442.00 1556.00 L 2460.61 1555.07 L 2403.00 1482.00 L 1686.00 1464.00 L 1686.90 1452.00 L 1682.00 1452.00 L 1662.00 1472.00 L 1642.00 1452.00 Z" />
<path id="csg562-027-08" fill="none" stroke="black" stroke-width="1" d="M 2460.61 1555.07 L 2442.00 1556.00 L 2382.00 1556.00 L 2362.00 1557.00 L 2282.00 1557.00 L 2262.00 1558.00 L 2182.00 1558.00 L 2162.00 1559.00 L 2102.00 1559.00 L 2082.00 1560.00 L 2002.00 1560.00 L 1982.00 1561.00 L 1922.00 1561.00 L 1902.00 1562.00 L 1822.00 1562.00 L 1802.00 1563.00 L 1722.00 1563.00 L 1702.00 1564.00 L 1642.00 1564.00 L 1622.00 1565.00 L 1542.00 1565.00 L 1522.00 1566.00 L 1462.00 1566.00 L 1442.00 1567.00 L 1362.00 1567.00 L 1342.00 1568.00 L 1262.00 1568.00 L 1242.00 1569.00 L 1182.00 1569.00 L 1162.00 1570.00 L 1082.00 1570.00 L 1062.00 1571.00 L 1002.00 1571.00 L 982.00 1572.00 L 902.00 1572.00 L 882.00 1573.00 L 802.00 1573.00 L 782.00 1574.00 L 722.00 1574.00 L 702.00 1575.00 L 622.00 1575.00 L 602.00 1576.00 L 548.84 1576.00 L 538.43 1678.00 L 562.00 1678.00 L 582.00 1677.00 L 642.00 1677.00 L 662.00 1676.00 L 722.00 1676.00 L 742.00 1675.00 L 802.00 1675.00 L 822.00 1674.00 L 882.00 1674.00 L 902.00 1673.00 L 962.00 1673.00 L 982.00 1672.00 L 1042.00 1672.00 L 1062.00 1671.00 L 1122.00 1671.00 L 1142.00 1670.00 L 1202.00 1670.00 L 1222.00 1669.00 L 1282.00 1669.00 L 1302.00 1668.00 L 1362.00 1668.00 L 1382.00 1667.00 L 1442.00 1667.00 L 1462.00 1666.00 L 1522.00 1666.00 L 1542.00 1665.00 L 1602.00 1665.00 L 1622.00 1664.00 L 1682.00 1664.00 L 1702.00 1663.00 L 1762.00 1663.00 L 1782.00 1662.00 L 1842.00 1662.00 L 1862.00 1661.00 L 1922.00 1661.00 L 1942.00 1660.00 L 2002.00 1660.00 L 2022.00 1659.00 L 2082.00 1659.00 L 2102.00 1658.00 L 2162.00 1658.00 L 2182.00 1657.00 L 2242.00 1657.00 L 2262.00 1656.00 L 2322.00 1656.00 L 2342.00 1655.00 L 2362.00 1655.00 L 2382.00 1675.00 L 2402.00 1675.00 L 2422.00 1674.00 L 2452.11 1674.00 L 2471.40 1664.60 L 2482.00 1654.00 L 2494.43 1653.38 L 2526.00 1638.00 L 2460.61 1555.07 Z" />
<path id="csg562-027-09" fill="none" stroke="black" stroke-width="1" d="M 2342.00 1655.00 L 2322.00 1656.00 L 2262.00 1656.00 L 2242.00 1657.00 L 2182.00 1657.00 L 2162.00 1658.00 L 2102.00 1658.00 L 2082.00 1659.00 L 2022.00 1659.00 L 2002.00 1660.00 L 1942.00 1660.00 L 1922.00 1661.00 L 1862.00 1661.00 L 1842.00 1662.00 L 1782.00 1662.00 L 1762.00 1663.00 L 1702.00 1663.00 L 1682.00 1664.00 L 1622.00 1664.00 L 1602.00 1665.00 L 1542.00 1665.00 L 1522.00 1666.00 L 1462.00 1666.00 L 1442.00 1667.00 L 1382.00 1667.00 L 1362.00 1668.00 L 1302.00 1668.00 L 1282.00 1669.00 L 1222.00 1669.00 L 1202.00 1670.00 L 1142.00 1670.00 L 1122.00 1671.00 L 1062.00 1671.00 L 1042.00 1672.00 L 982.00 1672.00 L 962.00 1673.00 L 902.00 1673.00 L 882.00 1674.00 L 822.00 1674.00 L 802.00 1675.00 L 742.00 1675.00 L 722.00 1676.00 L 662.00 1676.00 L 642.00 1677.00 L 582.00 1677.00 L 562.00 1678.00 L 538.43 1678.00 L 537.00 1692.00 L 351.00 1728.00 L 353.86 1799.48 L 362.00 1795.00 L 402.00 1795.00 L 422.00 1794.00 L 482.00 1794.00 L 502.00 1793.00 L 562.00 1793.00 L 582.00 1792.00 L 622.00 1792.00 L 642.00 1791.00 L 702.00 1791.00 L 722.00 1790.00 L 782.00 1790.00 L 802.00 1789.00 L 842.00 1789.00 L 862.00 1788.00 L 922.00 1788.00 L 942.00 1787.00 L 1002.00 1787.00 L 1022.00 1786.00 L 1062.00 1786.00 L 1082.00 1785.00 L 1142.00 1785.00 L 1162.00 1784.00 L 1222.00 1784.00 L 1242.00 1783.00 L 1302.00 1783.00 L 1322.00 1782.00 L 1362.00 1782.00 L 1382.00 1781.00 L 1442.00 1781.00 L 1462.00 1800.00 L 1482.00 1780.00 L 1522.00 1780.00 L 1542.00 1779.00 L 1582.00 1779.00 L 1602.00 1778.00 L 1662.00 1778.00 L 1682.00 1777.00 L 1722.00 1777.00 L 1742.00 1797.00 L 1762.00 1776.00 L 1802.00 1776.00 L 1822.00 1775.00 L 1882.00 1775.00 L 1902.00 1774.00 L 1962.00 1774.00 L 1982.00 1773.00 L 2042.00 1773.00 L 2062.00 1772.00 L 2102.00 1772.00 L 2122.00 1771.00 L 2182.00 1771.00 L 2202.00 1770.00 L 2262.00 1770.00 L 2282.00 1789.00 L 2302.00 1769.00 L 2322.00 1769.00 L 2342.00 1768.00 L 2362.00 1768.00 L 2382.00 1748.00 L 2402.00 1748.00 L 2422.00 1747.00 L 2442.00 1767.00 L 2459.49 1767.00 L 2409.00 1695.00 L 2452.11 1674.00 L 2422.00 1674.00 L 2402.00 1675.00 L 2382.00 1675.00 L 2362.00 1655.00 Z" />
<path id="csg562-027-10" fill="none" stroke="black" stroke-width="1" d="M 2422.00 1747.00 L 2402.00 1748.00 L 2382.00 1748.00 L 2362.00 1768.00 L 2342.00 1768.00 L 2322.00 1769.00 L 2302.00 1769.00 L 2282.00 1789.00 L 2262.00 1770.00 L 2202.00 1770.00 L 2182.00 1771.00 L 2122.00 1771.00 L 2102.00 1772.00 L 2062.00 1772.00 L 2042.00 1773.00 L 1982.00 1773.00 L 1962.00 1774.00 L 1902.00 1774.00 L 1882.00 1775.00 L 1822.00 1775.00 L 1802.00 1776.00 L 1762.00 1776.00 L 1742.00 1797.00 L 1722.00 1777.00 L 1682.00 1777.00 L 1662.00 1778.00 L 1602.00 1778.00 L 1582.00 1779.00 L 1542.00 1779.00 L 1522.00 1780.00 L 1482.00 1780.00 L 1462.00 1800.00 L 1442.00 1781.00 L 1382.00 1781.00 L 1362.00 1782.00 L 1322.00 1782.00 L 1302.00 1783.00 L 1242.00 1783.00 L 1222.00 1784.00 L 1162.00 1784.00 L 1142.00 1785.00 L 1082.00 1785.00 L 1062.00 1786.00 L 1022.00 1786.00 L 1002.00 1787.00 L 942.00 1787.00 L 922.00 1788.00 L 862.00 1788.00 L 842.00 1789.00 L 802.00 1789.00 L 782.00 1790.00 L 722.00 1790.00 L 702.00 1791.00 L 642.00 1791.00 L 622.00 1792.00 L 582.00 1792.00 L 562.00 1793.00 L 502.00 1793.00 L 482.00 1794.00 L 422.00 1794.00 L 402.00 1795.00 L 362.00 1795.00 L 353.86 1799.48 L 358.16 1907.11 L 362.00 1905.00 L 402.00 1905.00 L 422.00 1904.00 L 482.00 1904.00 L 502.00 1903.00 L 562.00 1903.00 L 582.00 1902.00 L 642.00 1902.00 L 662.00 1901.00 L 722.00 1901.00 L 742.00 1900.00 L 802.00 1900.00 L 822.00 1899.00 L 862.00 1899.00 L 882.00 1898.00 L 942.00 1898.00 L 962.00 1897.00 L 1022.00 1897.00 L 1042.00 1896.00 L 1102.00 1896.00 L 1122.00 1895.00 L 1182.00 1895.00 L 1202.00 1894.00 L 1262.00 1894.00 L 1282.00 1893.00 L 1322.00 1893.00 L 1342.00 1892.00 L 1402.00 1892.00 L 1422.00 1891.00 L 1482.00 1891.00 L 1502.00 1890.00 L 1562.00 1890.00 L 1582.00 1889.00 L 1642.00 1889.00 L 1662.00 1888.00 L 1722.00 1888.00 L 1742.00 1887.00 L 1782.00 1887.00 L 1802.00 1886.00 L 1862.00 1886.00 L 1882.00 1885.00 L 1942.00 1885.00 L 1962.00 1884.00 L 2022.00 1884.00 L 2042.00 1883.00 L 2102.00 1883.00 L 2122.00 1882.00 L 2182.00 1882.00 L 2202.00 1881.00 L 2262.00 1881.00 L 2282.00 1880.00 L 2322.00 1880.00 L 2342.00 1879.00 L 2402.00 1879.00 L 2422.00 1878.00 L 2482.00 1878.00 L 2502.00 1877.00 L 2536.64 1877.00 L 2459.49 1767.00 L 2442.00 1767.00 L 2422.00 1747.00 Z" />
<path id="csg562-027-11" fill="none" stroke="black" stroke-width="1" d="M 2502.00 1877.00 L 2482.00 1878.00 L 2422.00 1878.00 L 2402.00 1879.00 L 2342.00 1879.00 L 2322.00 1880.00 L 2282.00 1880.00 L 2262.00 1881.00 L 2202.00 1881.00 L 2182.00 1882.00 L 2122.00 1882.00 L 2102.00 1883.00 L 2042.00 1883.00 L 2022.00 1884.00 L 1962.00 1884.00 L 1942.00 1885.00 L 1882.00 1885.00 L 1862.00 1886.00 L 1802.00 1886.00 L 1782.00 1887.00 L 1742.00 1887.00 L 1722.00 1888.00 L 1662.00 1888.00 L 1642.00 1889.00 L 1582.00 1889.00 L 1562.00 1890.00 L 1502.00 1890.00 L 1482.00 1891.00 L 1422.00 1891.00 L 1402.00 1892.00 L 1342.00 1892.00 L 1322.00 1893.00 L 1282.00 1893.00 L 1262.00 1894.00 L 1202.00 1894.00 L 1182.00 1895.00 L 1122.00 1895.00 L 1102.00 1896.00 L 1042.00 1896.00 L 1022.00 1897.00 L 962.00 1897.00 L 942.00 1898.00 L 882.00 1898.00 L 862.00 1899.00 L 822.00 1899.00 L 802.00 1900.00 L 742.00 1900.00 L 722.00 1901.00 L 662.00 1901.00 L 642.00 1902.00 L 582.00 1902.00 L 562.00 1903.00 L 502.00 1903.00 L 482.00 1904.00 L 422.00 1904.00 L 402.00 1905.00 L 362.00 1905.00 L 358.16 1907.11 L 362.88 2025.00 L 382.00 2025.00 L 402.00 2005.00 L 422.00 2004.00 L 462.00 2004.00 L 482.00 2024.00 L 502.00 2023.00 L 562.00 2023.00 L 582.00 2022.00 L 642.00 2022.00 L 662.00 2021.00 L 722.00 2021.00 L 742.00 2020.00 L 802.00 2020.00 L 822.00 2019.00 L 882.00 2019.00 L 902.00 2018.00 L 962.00 2018.00 L 982.00 2017.00 L 1042.00 2017.00 L 1062.00 2016.00 L 1122.00 2016.00 L 1142.00 2015.00 L 1182.00 2015.00 L 1202.00 2014.00 L 1262.00 2014.00 L 1282.00 2013.00 L 1342.00 2013.00 L 1362.00 2012.00 L 1422.00 2012.00 L 1442.00 2011.00 L 1502.00 2011.00 L 1522.00 2010.00 L 1582.00 2010.00 L 1602.00 2009.00 L 1662.00 2009.00 L 1682.00 2008.00 L 1742.00 2008.00 L 1762.00 2007.00 L 1822.00 2007.00 L 1842.00 2006.00 L 1902.00 2006.00 L 1922.00 2005.00 L 1962.00 2005.00 L 1982.00 2004.00 L 2042.00 2004.00 L 2062.00 2003.00 L 2122.00 2003.00 L 2142.00 2002.00 L 2202.00 2002.00 L 2222.00 2001.00 L 2282.00 2001.00 L 2302.00 2000.00 L 2362.00 2000.00 L 2382.00 1999.00 L 2442.00 1999.00 L 2462.00 1998.00 L 2494.76 1998.00 L 2571.00 1926.00 L 2536.64 1877.00 Z" />
<path id="csg562-027-12" fill="none" stroke="black" stroke-width="1" d="M 2462.00 1998.00 L 2442.00 1999.00 L 2382.00 1999.00 L 2362.00 2000.00 L 2302.00 2000.00 L 2282.00 2001.00 L 2222.00 2001.00 L 2202.00 2002.00 L 2142.00 2002.00 L 2122.00 2003.00 L 2062.00 2003.00 L 2042.00 2004.00 L 1982.00 2004.00 L 1962.00 2005.00 L 1922.00 2005.00 L 1902.00 2006.00 L 1842.00 2006.00 L 1822.00 2007.00 L 1762.00 2007.00 L 1742.00 2008.00 L 1682.00 2008.00 L 1662.00 2009.00 L 1602.00 2009.00 L 1582.00 2010.00 L 1522.00 2010.00 L 1502.00 2011.00 L 1442.00 2011.00 L 1422.00 2012.00 L 1362.00 2012.00 L 1342.00 2013.00 L 1282.00 2013.00 L 1262.00 2014.00 L 1202.00 2014.00 L 1182.00 2015.00 L 1142.00 2015.00 L 1122.00 2016.00 L 1062.00 2016.00 L 1042.00 2017.00 L 982.00 2017.00 L 962.00 2018.00 L 902.00 2018.00 L 882.00 2019.00 L 822.00 2019.00 L 802.00 2020.00 L 742.00 2020.00 L 722.00 2021.00 L 662.00 2021.00 L 642.00 2022.00 L 582.00 2022.00 L 562.00 2023.00 L 502.00 2023.00 L 482.00 2024.00 L 462.00 2004.00 L 422.00 2004.00 L 402.00 2005.00 L 382.00 2025.00 L 362.88 2025.00 L 363.00 2028.00 L 367.63 2133.00 L 422.00 2133.00 L 442.00 2132.00 L 502.00 2132.00 L 522.00 2131.00 L 602.00 2131.00 L 622.00 2130.00 L 682.00 2130.00 L 702.00 2129.00 L 762.00 2129.00 L 782.00 2128.00 L 862.00 2128.00 L 882.00 2127.00 L 942.00 2127.00 L 962.00 2146.00 L 982.00 2146.00 L 1002.00 2126.00 L 1042.00 2126.00 L 1062.00 2125.00 L 1122.00 2125.00 L 1142.00 2124.00 L 1202.00 2124.00 L 1222.00 2123.00 L 1302.00 2123.00 L 1322.00 2122.00 L 1342.00 2142.00 L 1362.00 2122.00 L 1382.00 2122.00 L 1402.00 2121.00 L 1462.00 2121.00 L 1482.00 2120.00 L 1522.00 2120.00 L 1542.00 2160.00 L 1562.00 2100.00 L 1582.00 2099.00 L 1602.00 2099.00 L 1622.00 2119.00 L 1642.00 2119.00 L 1662.00 2118.00 L 1742.00 2118.00 L 1762.00 2117.00 L 1822.00 2117.00 L 1842.00 2116.00 L 1902.00 2116.00 L 1922.00 2115.00 L 2002.00 2115.00 L 2022.00 2114.00 L 2082.00 2114.00 L 2102.00 2113.00 L 2182.00 2113.00 L 2202.00 2112.00 L 2222.00 2132.00 L 2242.00 2112.00 L 2262.00 2112.00 L 2282.00 2111.00 L 2342.00 2111.00 L 2362.00 2110.00 L 2442.00 2110.00 L 2447.32 2109.73 L 2463.00 2028.00 L 2494.76 1998.00 Z" />
<path id="csg562-027-13" fill="none" stroke="black" stroke-width="1" d="M 1582.00 2099.00 L 1562.00 2100.00 L 1542.00 2160.00 L 1522.00 2120.00 L 1482.00 2120.00 L 1462.00 2121.00 L 1402.00 2121.00 L 1382.00 2122.00 L 1362.00 2122.00 L 1342.00 2142.00 L 1322.00 2122.00 L 1302.00 2123.00 L 1222.00 2123.00 L 1202.00 2124.00 L 1142.00 2124.00 L 1122.00 2125.00 L 1062.00 2125.00 L 1042.00 2126.00 L 1002.00 2126.00 L 982.00 2146.00 L 962.00 2146.00 L 942.00 2127.00 L 882.00 2127.00 L 862.00 2128.00 L 782.00 2128.00 L 762.00 2129.00 L 702.00 2129.00 L 682.00 2130.00 L 622.00 2130.00 L 602.00 2131.00 L 522.00 2131.00 L 502.00 2132.00 L 442.00 2132.00 L 422.00 2133.00 L 367.63 2133.00 L 372.49 2243.00 L 482.00 2243.00 L 502.00 2242.00 L 602.00 2242.00 L 622.00 2262.00 L 642.00 2241.00 L 782.00 2241.00 L 802.00 2240.00 L 922.00 2240.00 L 942.00 2239.00 L 1082.00 2239.00 L 1102.00 2258.00 L 1122.00 2238.00 L 1222.00 2238.00 L 1242.00 2237.00 L 1382.00 2237.00 L 1402.00 2236.00 L 1522.00 2236.00 L 1542.00 2235.00 L 1682.00 2235.00 L 1702.00 2234.00 L 1822.00 2234.00 L 1842.00 2233.00 L 1962.00 2233.00 L 1982.00 2232.00 L 2122.00 2232.00 L 2142.00 2231.00 L 2262.00 2231.00 L 2282.00 2210.00 L 2302.00 2210.00 L 2322.00 2230.00 L 2422.00 2230.00 L 2424.28 2229.89 L 2447.32 2109.73 L 2442.00 2110.00 L 2362.00 2110.00 L 2342.00 2111.00 L 2282.00 2111.00 L 2262.00 2112.00 L 2242.00 2112.00 L 2222.00 2132.00 L 2202.00 2112.00 L 2182.00 2113.00 L 2102.00 2113.00 L 2082.00 2114.00 L 2022.00 2114.00 L 2002.00 2115.00 L 1922.00 2115.00 L 1902.00 2116.00 L 1842.00 2116.00 L 1822.00 2117.00 L 1762.00 2117.00 L 1742.00 2118.00 L 1662.00 2118.00 L 1642.00 2119.00 L 1622.00 2119.00 L 1602.00 2099.00 Z" />
<path id="csg562-027-14" fill="none" stroke="black" stroke-width="1" d="M 2282.00 2210.00 L 2262.00 2231.00 L 2142.00 2231.00 L 2122.00 2232.00 L 1982.00 2232.00 L 1962.00 2233.00 L 1842.00 2233.00 L 1822.00 2234.00 L 1702.00 2234.00 L 1682.00 2235.00 L 1542.00 2235.00 L 1522.00 2236.00 L 1402.00 2236.00 L 1382.00 2237.00 L 1242.00 2237.00 L 1222.00 2238.00 L 1122.00 2238.00 L 1102.00 2258.00 L 1082.00 2239.00 L 942.00 2239.00 L 922.00 2240.00 L 802.00 2240.00 L 782.00 2241.00 L 642.00 2241.00 L 622.00 2262.00 L 602.00 2242.00 L 502.00 2242.00 L 482.00 2243.00 L 372.49 2243.00 L 377.12 2348.00 L 562.00 2348.00 L 582.00 2347.00 L 782.00 2347.00 L 802.00 2346.00 L 1002.00 2346.00 L 1022.00 2345.00 L 1222.00 2345.00 L 1242.00 2344.00 L 1382.00 2344.00 L 1402.00 2364.00 L 1422.00 2344.00 L 1442.00 2344.00 L 1462.00 2343.00 L 1662.00 2343.00 L 1682.00 2342.00 L 1882.00 2342.00 L 1902.00 2341.00 L 2102.00 2341.00 L 2122.00 2340.00 L 2322.00 2340.00 L 2342.00 2339.00 L 2441.44 2339.00 L 2421.00 2247.00 L 2424.28 2229.89 L 2422.00 2230.00 L 2322.00 2230.00 L 2302.00 2210.00 Z" />
<path id="csg562-027-15" fill="none" stroke="black" stroke-width="1" d="M 2342.00 2339.00 L 2322.00 2340.00 L 2122.00 2340.00 L 2102.00 2341.00 L 1902.00 2341.00 L 1882.00 2342.00 L 1682.00 2342.00 L 1662.00 2343.00 L 1462.00 2343.00 L 1442.00 2344.00 L 1422.00 2344.00 L 1402.00 2364.00 L 1382.00 2344.00 L 1242.00 2344.00 L 1222.00 2345.00 L 1022.00 2345.00 L 1002.00 2346.00 L 802.00 2346.00 L 782.00 2347.00 L 582.00 2347.00 L 562.00 2348.00 L 377.12 2348.00 L 381.00 2436.00 L 381.43 2457.00 L 642.00 2457.00 L 662.00 2456.00 L 722.00 2456.00 L 742.00 2476.00 L 782.00 2476.00 L 802.00 2456.00 L 962.00 2456.00 L 982.00 2455.00 L 1282.00 2455.00 L 1302.00 2454.00 L 1582.00 2454.00 L 1602.00 2453.00 L 1902.00 2453.00 L 1922.00 2452.00 L 1942.00 2472.00 L 1962.00 2452.00 L 2222.00 2452.00 L 2242.00 2451.00 L 2466.33 2451.00 L 2441.44 2339.00 Z" />
<path id="csg562-027-16" fill="none" stroke="black" stroke-width="1" d="M 2242.00 2451.00 L 2222.00 2452.00 L 1962.00 2452.00 L 1942.00 2472.00 L 1922.00 2452.00 L 1902.00 2453.00 L 1602.00 2453.00 L 1582.00 2454.00 L 1302.00 2454.00 L 1282.00 2455.00 L 982.00 2455.00 L 962.00 2456.00 L 802.00 2456.00 L 782.00 2476.00 L 742.00 2476.00 L 722.00 2456.00 L 662.00 2456.00 L 642.00 2457.00 L 381.43 2457.00 L 383.77 2571.00 L 522.00 2571.00 L 542.00 2590.00 L 562.00 2570.00 L 722.00 2570.00 L 742.00 2569.00 L 922.00 2569.00 L 942.00 2568.00 L 1122.00 2568.00 L 1142.00 2567.00 L 1322.00 2567.00 L 1342.00 2566.00 L 1522.00 2566.00 L 1542.00 2565.00 L 1722.00 2565.00 L 1742.00 2564.00 L 1922.00 2564.00 L 1942.00 2563.00 L 1962.00 2563.00 L 1982.00 2560.00 L 2002.00 2560.00 L 2022.00 2556.00 L 2222.00 2556.00 L 2242.00 2562.00 L 2322.00 2562.00 L 2342.00 2561.00 L 2457.25 2561.00 L 2475.00 2490.00 L 2466.33 2451.00 Z" />
<path id="csg562-027-17" fill="none" stroke="black" stroke-width="1" d="M 2022.00 2556.00 L 2002.00 2560.00 L 1982.00 2560.00 L 1962.00 2563.00 L 1942.00 2563.00 L 1922.00 2564.00 L 1742.00 2564.00 L 1722.00 2565.00 L 1542.00 2565.00 L 1522.00 2566.00 L 1342.00 2566.00 L 1322.00 2567.00 L 1142.00 2567.00 L 1122.00 2568.00 L 942.00 2568.00 L 922.00 2569.00 L 742.00 2569.00 L 722.00 2570.00 L 562.00 2570.00 L 542.00 2590.00 L 522.00 2571.00 L 383.77 2571.00 L 386.21 2690.00 L 442.00 2690.00 L 462.00 2689.00 L 562.00 2689.00 L 582.00 2688.00 L 682.00 2688.00 L 702.00 2687.00 L 802.00 2687.00 L 822.00 2686.00 L 902.00 2686.00 L 922.00 2706.00 L 942.00 2705.00 L 962.00 2685.00 L 1022.00 2685.00 L 1042.00 2684.00 L 1142.00 2684.00 L 1162.00 2683.00 L 1262.00 2683.00 L 1282.00 2682.00 L 1382.00 2682.00 L 1402.00 2681.00 L 1502.00 2681.00 L 1522.00 2680.00 L 1622.00 2680.00 L 1642.00 2679.00 L 1722.00 2679.00 L 1742.00 2678.00 L 1842.00 2678.00 L 1862.00 2677.00 L 1962.00 2677.00 L 1982.00 2676.00 L 2082.00 2676.00 L 2102.00 2675.00 L 2202.00 2675.00 L 2222.00 2674.00 L 2322.00 2674.00 L 2342.00 2673.00 L 2422.00 2673.00 L 2442.00 2672.00 L 2476.44 2672.00 L 2454.00 2574.00 L 2457.25 2561.00 L 2342.00 2561.00 L 2322.00 2562.00 L 2242.00 2562.00 L 2222.00 2556.00 Z" />
<path id="csg562-027-18" fill="none" stroke="black" stroke-width="1" d="M 2442.00 2672.00 L 2422.00 2673.00 L 2342.00 2673.00 L 2322.00 2674.00 L 2222.00 2674.00 L 2202.00 2675.00 L 2102.00 2675.00 L 2082.00 2676.00 L 1982.00 2676.00 L 1962.00 2677.00 L 1862.00 2677.00 L 1842.00 2678.00 L 1742.00 2678.00 L 1722.00 2679.00 L 1642.00 2679.00 L 1622.00 2680.00 L 1522.00 2680.00 L 1502.00 2681.00 L 1402.00 2681.00 L 1382.00 2682.00 L 1282.00 2682.00 L 1262.00 2683.00 L 1162.00 2683.00 L 1142.00 2684.00 L 1042.00 2684.00 L 1022.00 2685.00 L 962.00 2685.00 L 942.00 2705.00 L 922.00 2706.00 L 902.00 2686.00 L 822.00 2686.00 L 802.00 2687.00 L 702.00 2687.00 L 682.00 2688.00 L 582.00 2688.00 L 562.00 2689.00 L 462.00 2689.00 L 442.00 2690.00 L 386.21 2690.00 L 388.34 2794.00 L 442.00 2794.00 L 462.00 2813.00 L 502.00 2813.00 L 522.00 2793.00 L 562.00 2793.00 L 582.00 2792.00 L 682.00 2792.00 L 702.00 2791.00 L 782.00 2791.00 L 802.00 2790.00 L 902.00 2790.00 L 922.00 2789.00 L 1022.00 2789.00 L 1042.00 2788.00 L 1142.00 2788.00 L 1162.00 2787.00 L 1242.00 2787.00 L 1262.00 2786.00 L 1362.00 2786.00 L 1382.00 2785.00 L 1482.00 2785.00 L 1502.00 2784.00 L 1602.00 2784.00 L 1622.00 2783.00 L 1702.00 2783.00 L 1722.00 2782.00 L 1822.00 2782.00 L 1842.00 2781.00 L 1942.00 2781.00 L 1962.00 2780.00 L 2042.00 2780.00 L 2062.00 2779.00 L 2162.00 2779.00 L 2182.00 2778.00 L 2282.00 2778.00 L 2302.00 2777.00 L 2402.00 2777.00 L 2422.00 2776.00 L 2500.26 2776.00 L 2476.44 2672.00 Z" />
<path id="csg562-027-19" fill="none" stroke="black" stroke-width="1" d="M 2422.00 2776.00 L 2402.00 2777.00 L 2302.00 2777.00 L 2282.00 2778.00 L 2182.00 2778.00 L 2162.00 2779.00 L 2062.00 2779.00 L 2042.00 2780.00 L 1962.00 2780.00 L 1942.00 2781.00 L 1842.00 2781.00 L 1822.00 2782.00 L 1722.00 2782.00 L 1702.00 2783.00 L 1622.00 2783.00 L 1602.00 2784.00 L 1502.00 2784.00 L 1482.00 2785.00 L 1382.00 2785.00 L 1362.00 2786.00 L 1262.00 2786.00 L 1242.00 2787.00 L 1162.00 2787.00 L 1142.00 2788.00 L 1042.00 2788.00 L 1022.00 2789.00 L 922.00 2789.00 L 902.00 2790.00 L 802.00 2790.00 L 782.00 2791.00 L 702.00 2791.00 L 682.00 2792.00 L 582.00 2792.00 L 562.00 2793.00 L 522.00 2793.00 L 502.00 2813.00 L 462.00 2813.00 L 442.00 2794.00 L 388.34 2794.00 L 390.50 2899.00 L 502.00 2899.00 L 522.00 2898.00 L 682.00 2898.00 L 702.00 2897.00 L 842.00 2897.00 L 862.00 2896.00 L 1022.00 2896.00 L 1042.00 2895.00 L 1182.00 2895.00 L 1202.00 2894.00 L 1362.00 2894.00 L 1382.00 2893.00 L 1542.00 2893.00 L 1562.00 2892.00 L 1702.00 2892.00 L 1722.00 2891.00 L 1882.00 2891.00 L 1902.00 2890.00 L 2042.00 2890.00 L 2062.00 2889.00 L 2222.00 2889.00 L 2242.00 2888.00 L 2322.00 2888.00 L 2342.00 2908.00 L 2362.00 2908.00 L 2382.00 2888.00 L 2402.00 2888.00 L 2422.00 2887.00 L 2525.68 2887.00 L 2500.26 2776.00 Z" />
<path id="csg562-027-20" fill="none" stroke="black" stroke-width="1" d="M 2422.00 2887.00 L 2402.00 2888.00 L 2382.00 2888.00 L 2362.00 2908.00 L 2342.00 2908.00 L 2322.00 2888.00 L 2242.00 2888.00 L 2222.00 2889.00 L 2062.00 2889.00 L 2042.00 2890.00 L 1902.00 2890.00 L 1882.00 2891.00 L 1722.00 2891.00 L 1702.00 2892.00 L 1562.00 2892.00 L 1542.00 2893.00 L 1382.00 2893.00 L 1362.00 2894.00 L 1202.00 2894.00 L 1182.00 2895.00 L 1042.00 2895.00 L 1022.00 2896.00 L 862.00 2896.00 L 842.00 2897.00 L 702.00 2897.00 L 682.00 2898.00 L 522.00 2898.00 L 502.00 2899.00 L 390.50 2899.00 L 393.00 3021.00 L 392.08 3024.08 L 402.00 3034.00 L 422.00 3034.00 L 442.00 3014.00 L 1122.00 3014.00 L 1142.00 3013.00 L 1902.00 3013.00 L 1922.00 3012.00 L 2382.00 3012.00 L 2402.00 3032.00 L 2422.00 3012.00 L 2544.00 3012.00 L 2544.00 2967.00 L 2525.68 2887.00 Z" />
<path id="csg562-027-21" fill="none" stroke="black" stroke-width="1" d="M 1922.00 3012.00 L 1902.00 3013.00 L 1142.00 3013.00 L 1122.00 3014.00 L 442.00 3014.00 L 422.00 3034.00 L 402.00 3034.00 L 392.08 3024.08 L 366.00 3111.00 L 369.23 3134.00 L 1122.00 3134.00 L 1142.00 3133.00 L 1902.00 3133.00 L 1922.00 3132.00 L 2302.00 3132.00 L 2322.00 3152.00 L 2342.00 3132.00 L 2544.00 3132.00 L 2544.00 3012.00 L 2422.00 3012.00 L 2402.00 3032.00 L 2382.00 3012.00 Z" />
<path id="csg562-027-22" fill="none" stroke="black" stroke-width="1" d="M 1922.00 3132.00 L 1902.00 3133.00 L 1142.00 3133.00 L 1122.00 3134.00 L 369.23 3134.00 L 385.51 3250.00 L 402.00 3250.00 L 422.00 3270.00 L 442.00 3270.00 L 462.00 3250.00 L 722.00 3250.00 L 742.00 3249.00 L 1122.00 3249.00 L 1142.00 3248.00 L 1502.00 3248.00 L 1522.00 3247.00 L 1902.00 3247.00 L 1922.00 3246.00 L 2282.00 3246.00 L 2302.00 3245.00 L 2544.00 3245.00 L 2544.00 3132.00 L 2342.00 3132.00 L 2322.00 3152.00 L 2302.00 3132.00 Z" />
<path id="csg562-027-23" fill="none" stroke="black" stroke-width="1" d="M 2302.00 3245.00 L 2282.00 3246.00 L 1922.00 3246.00 L 1902.00 3247.00 L 1522.00 3247.00 L 1502.00 3248.00 L 1142.00 3248.00 L 1122.00 3249.00 L 742.00 3249.00 L 722.00 3250.00 L 462.00 3250.00 L 442.00 3270.00 L 422.00 3270.00 L 402.00 3250.00 L 385.51 3250.00 L 399.26 3348.00 L 522.00 3348.00 L 542.00 3347.00 L 722.00 3347.00 L 742.00 3346.00 L 922.00 3346.00 L 942.00 3345.00 L 1122.00 3345.00 L 1142.00 3344.00 L 1302.00 3344.00 L 1322.00 3343.00 L 1502.00 3343.00 L 1522.00 3342.00 L 1702.00 3342.00 L 1722.00 3341.00 L 1782.00 3341.00 L 1802.00 3361.00 L 1822.00 3361.00 L 1842.00 3341.00 L 1902.00 3341.00 L 1922.00 3340.00 L 2082.00 3340.00 L 2102.00 3339.00 L 2282.00 3339.00 L 2302.00 3338.00 L 2482.00 3338.00 L 2502.00 3337.00 L 2519.13 3337.00 L 2544.00 3285.00 L 2544.00 3245.00 Z" />
<path id="csg562-027-24" fill="none" stroke="black" stroke-width="1" d="M 2502.00 3337.00 L 2482.00 3338.00 L 2302.00 3338.00 L 2282.00 3339.00 L 2102.00 3339.00 L 2082.00 3340.00 L 1922.00 3340.00 L 1902.00 3341.00 L 1842.00 3341.00 L 1822.00 3361.00 L 1802.00 3361.00 L 1782.00 3341.00 L 1722.00 3341.00 L 1702.00 3342.00 L 1522.00 3342.00 L 1502.00 3343.00 L 1322.00 3343.00 L 1302.00 3344.00 L 1142.00 3344.00 L 1122.00 3345.00 L 942.00 3345.00 L 922.00 3346.00 L 742.00 3346.00 L 722.00 3347.00 L 542.00 3347.00 L 522.00 3348.00 L 399.26 3348.00 L 413.30 3448.00 L 490.00 3448.00 L 642.00 3438.00 L 1062.00 3445.00 L 1122.00 3445.00 L 1142.00 3444.00 L 1302.00 3444.00 L 1322.00 3443.00 L 1502.00 3443.00 L 1522.00 3442.00 L 1582.00 3442.00 L 1601.23 3460.27 L 1622.08 3460.93 L 1642.00 3442.00 L 1662.00 3461.00 L 1682.00 3442.00 L 1702.00 3442.00 L 1722.00 3441.00 L 1902.00 3441.00 L 1922.00 3440.00 L 2065.75 3440.00 L 2103.00 3438.00 L 2478.00 3423.00 L 2519.13 3337.00 Z" />
</svg>
