<?xml version="1.0" standalone="no"?>
<!DOCTYPE svg PUBLIC "-//W3C//DTD SVG 1.1//EN" "http://www.w3.org/Graphics/SVG/1.1/DTD/svg11.dtd">
<svg width="46.22222in" height="69.333336in" viewBox="0 0 3328 4992" xmlns="http://www.w3.org/2000/svg" version="1.1">
<path id="csg562-035-01" fill="none" stroke="black" stroke-width="1" d="M 1245.00 774.00 L 858.00 813.00 L 591.00 801.00 L 399.00 819.00 L 397.51 907.00 L 726.00 907.00 L 746.00 927.00 L 766.00 907.00 L 2374.29 907.00 L 2529.00 888.00 L 2523.00 822.00 L 1959.00 795.00 L 1467.00 810.00 L 1245.00 774.00 Z" />
<path id="csg562-035-02" fill="none" stroke="black" stroke-width="1" d="M 397.51 907.00 L 396.00 996.00 L 540.00 1005.00 L 539.92 1007.00 L 2306.00 1007.00 L 2326.00 1027.00 L 2346.00 1007.00 L 2448.34 1007.00 L 2358.00 909.00 L 2374.29 907.00 L 766.00 907.00 L 746.00 927.00 L 726.00 907.00 Z" />
<path id="csg562-035-03" fill="none" stroke="black" stroke-width="1" d="M 539.92 1007.00 L 535.44 1122.00 L 706.00 1122.00 L 726.00 1123.00 L 1126.00 1123.00 L 1146.00 1124.00 L 1546.00 1124.00 L 1566.00 1125.00 L 1966.00 1125.00 L 1986.00 1126.00 L 2386.00 1126.00 L 2406.00 1127.00 L 2461.73 1127.00 L 2535.00 1101.00 L 2448.34 1007.00 L 2346.00 1007.00 L 2326.00 1027.00 L 2306.00 1007.00 Z" />
<path id="csg562-035-04" fill="none" stroke="black" stroke-width="1" d="M 535.44 1122.00 L 531.00 1236.00 L 520.11 1242.00 L 606.00 1242.00 L 626.00 1241.00 L 766.00 1241.00 L 786.00 1240.00 L 926.00 1240.00 L 946.00 1239.00 L 1066.00 1239.00 L 1086.00 1258.00 L 1106.00 1258.00 L 1126.00 1238.00 L 1226.00 1238.00 L 1246.00 1237.00 L 1386.00 1237.00 L 1406.00 1236.00 L 1546.00 1236.00 L 1566.00 1235.00 L 1686.00 1235.00 L 1706.00 1234.00 L 1846.00 1234.00 L 1866.00 1233.00 L 1906.00 1233.00 L 1926.00 1253.00 L 1946.00 1233.00 L 2006.00 1233.00 L 2026.00 1232.00 L 2166.00 1232.00 L 2186.00 1231.00 L 2206.00 1251.00 L 2226.00 1251.00 L 2246.00 1231.00 L 2326.00 1231.00 L 2346.00 1230.00 L 2466.00 1230.00 L 2486.00 1229.00 L 2498.41 1229.00 L 2442.00 1134.00 L 2461.73 1127.00 L 2406.00 1127.00 L 2386.00 1126.00 L 1986.00 1126.00 L 1966.00 1125.00 L 1566.00 1125.00 L 1546.00 1124.00 L 1146.00 1124.00 L 1126.00 1123.00 L 726.00 1123.00 L 706.00 1122.00 Z" />
<path id="csg562-035-05" fill="none" stroke="black" stroke-width="1" d="M 2486.00 1229.00 L 2466.00 1230.00 L 2346.00 1230.00 L 2326.00 1231.00 L 2246.00 1231.00 L 2226.00 1251.00 L 2206.00 1251.00 L 2186.00 1231.00 L 2166.00 1232.00 L 2026.00 1232.00 L 2006.00 1233.00 L 1946.00 1233.00 L 1926.00 1253.00 L 1906.00 1233.00 L 1866.00 1233.00 L 1846.00 1234.00 L 1706.00 1234.00 L 1686.00 1235.00 L 1566.00 1235.00 L 1546.00 1236.00 L 1406.00 1236.00 L 1386.00 1237.00 L 1246.00 1237.00 L 1226.00 1238.00 L 1126.00 1238.00 L 1106.00 1258.00 L 1086.00 1258.00 L 1066.00 1239.00 L 946.00 1239.00 L 926.00 1240.00 L 786.00 1240.00 L 766.00 1241.00 L 626.00 1241.00 L 606.00 1242.00 L 520.11 1242.00 L 384.00 1317.00 L 383.57 1356.00 L 526.00 1356.00 L 546.00 1355.00 L 766.00 1355.00 L 786.00 1354.00 L 1006.00 1354.00 L 1026.00 1353.00 L 1246.00 1353.00 L 1266.00 1352.00 L 1486.00 1352.00 L 1506.00 1351.00 L 1626.00 1351.00 L 1646.00 1371.00 L 1666.00 1371.00 L 1686.00 1391.00 L 1706.00 1371.00 L 1726.00 1371.00 L 1746.00 1350.00 L 1766.00 1350.00 L 1786.00 1370.00 L 1806.00 1350.00 L 1966.00 1350.00 L 1986.00 1349.00 L 2206.00 1349.00 L 2226.00 1348.00 L 2446.00 1348.00 L 2466.00 1347.00 L 2486.00 1367.00 L 2502.52 1367.00 L 2517.43 1355.57 L 2526.00 1347.00 L 2528.61 1347.00 L 2556.00 1326.00 L 2498.41 1229.00 Z" />
<path id="csg562-035-06" fill="none" stroke="black" stroke-width="1" d="M 2466.00 1347.00 L 2446.00 1348.00 L 2226.00 1348.00 L 2206.00 1349.00 L 1986.00 1349.00 L 1966.00 1350.00 L 1806.00 1350.00 L 1786.00 1370.00 L 1766.00 1350.00 L 1746.00 1350.00 L 1726.00 1371.00 L 1706.00 1371.00 L 1686.00 1391.00 L 1666.00 1371.00 L 1646.00 1371.00 L 1626.00 1351.00 L 1506.00 1351.00 L 1486.00 1352.00 L 1266.00 1352.00 L 1246.00 1353.00 L 1026.00 1353.00 L 1006.00 1354.00 L 786.00 1354.00 L 766.00 1355.00 L 546.00 1355.00 L 526.00 1356.00 L 383.57 1356.00 L 382.01 1498.02 L 386.00 1506.00 L 406.00 1506.00 L 426.00 1486.00 L 446.00 1466.00 L 506.00 1466.00 L 526.00 1465.00 L 706.00 1465.00 L 726.00 1464.00 L 926.00 1464.00 L 946.00 1463.00 L 1026.00 1463.00 L 1046.00 1483.00 L 1066.00 1463.00 L 1126.00 1463.00 L 1146.00 1462.00 L 1346.00 1462.00 L 1366.00 1461.00 L 1546.00 1461.00 L 1566.00 1460.00 L 1746.00 1460.00 L 1766.00 1459.00 L 1966.00 1459.00 L 1986.00 1458.00 L 2166.00 1458.00 L 2186.00 1457.00 L 2386.00 1457.00 L 2406.00 1456.00 L 2484.04 1456.00 L 2466.00 1395.00 L 2502.52 1367.00 L 2486.00 1367.00 L 2466.00 1347.00 Z" />
<path id="csg562-035-07" fill="none" stroke="black" stroke-width="1" d="M 2406.00 1456.00 L 2386.00 1457.00 L 2186.00 1457.00 L 2166.00 1458.00 L 1986.00 1458.00 L 1966.00 1459.00 L 1766.00 1459.00 L 1746.00 1460.00 L 1566.00 1460.00 L 1546.00 1461.00 L 1366.00 1461.00 L 1346.00 1462.00 L 1146.00 1462.00 L 1126.00 1463.00 L 1066.00 1463.00 L 1046.00 1483.00 L 1026.00 1463.00 L 946.00 1463.00 L 926.00 1464.00 L 726.00 1464.00 L 706.00 1465.00 L 526.00 1465.00 L 506.00 1466.00 L 446.00 1466.00 L 426.00 1486.00 L 406.00 1506.00 L 386.00 1506.00 L 382.01 1498.02 L 381.02 1588.00 L 446.00 1588.00 L 466.00 1587.00 L 606.00 1587.00 L 626.00 1586.00 L 766.00 1586.00 L 786.00 1585.00 L 926.00 1585.00 L 946.00 1584.00 L 1086.00 1584.00 L 1106.00 1583.00 L 1246.00 1583.00 L 1266.00 1582.00 L 1406.00 1582.00 L 1426.00 1581.00 L 1506.00 1581.00 L 1526.00 1561.00 L 1546.00 1561.00 L 1566.00 1580.00 L 1706.00 1580.00 L 1726.00 1579.00 L 1866.00 1579.00 L 1886.00 1578.00 L 1906.00 1598.00 L 1926.00 1578.00 L 2026.00 1578.00 L 2046.00 1577.00 L 2186.00 1577.00 L 2206.00 1576.00 L 2346.00 1576.00 L 2366.00 1575.00 L 2506.00 1575.00 L 2519.05 1574.35 L 2484.04 1456.00 Z" />
<path id="csg562-035-08" fill="none" stroke="black" stroke-width="1" d="M 1526.00 1561.00 L 1506.00 1581.00 L 1426.00 1581.00 L 1406.00 1582.00 L 1266.00 1582.00 L 1246.00 1583.00 L 1106.00 1583.00 L 1086.00 1584.00 L 946.00 1584.00 L 926.00 1585.00 L 786.00 1585.00 L 766.00 1586.00 L 626.00 1586.00 L 606.00 1587.00 L 466.00 1587.00 L 446.00 1588.00 L 381.02 1588.00 L 381.00 1590.00 L 383.89 1694.00 L 426.00 1694.00 L 446.00 1714.00 L 466.00 1693.00 L 606.00 1693.00 L 626.00 1692.00 L 766.00 1692.00 L 786.00 1691.00 L 926.00 1691.00 L 946.00 1690.00 L 1086.00 1690.00 L 1106.00 1689.00 L 1246.00 1689.00 L 1266.00 1688.00 L 1346.00 1688.00 L 1366.00 1708.00 L 1386.00 1688.00 L 1406.00 1688.00 L 1426.00 1687.00 L 1546.00 1687.00 L 1566.00 1686.00 L 1706.00 1686.00 L 1726.00 1685.00 L 1786.00 1685.00 L 1806.00 1705.00 L 1826.00 1705.00 L 1846.00 1685.00 L 1866.00 1685.00 L 1886.00 1684.00 L 2026.00 1684.00 L 2046.00 1683.00 L 2186.00 1683.00 L 2206.00 1682.00 L 2226.00 1682.00 L 2246.00 1702.00 L 2266.00 1682.00 L 2346.00 1682.00 L 2366.00 1681.00 L 2496.28 1681.00 L 2529.00 1608.00 L 2519.05 1574.35 L 2506.00 1575.00 L 2366.00 1575.00 L 2346.00 1576.00 L 2206.00 1576.00 L 2186.00 1577.00 L 2046.00 1577.00 L 2026.00 1578.00 L 1926.00 1578.00 L 1906.00 1598.00 L 1886.00 1578.00 L 1866.00 1579.00 L 1726.00 1579.00 L 1706.00 1580.00 L 1566.00 1580.00 L 1546.00 1561.00 Z" />
<path id="csg562-035-09" fill="none" stroke="black" stroke-width="1" d="M 2366.00 1681.00 L 2346.00 1682.00 L 2266.00 1682.00 L 2246.00 1702.00 L 2226.00 1682.00 L 2206.00 1682.00 L 2186.00 1683.00 L 2046.00 1683.00 L 2026.00 1684.00 L 1886.00 1684.00 L 1866.00 1685.00 L 1846.00 1685.00 L 1826.00 1705.00 L 1806.00 1705.00 L 1786.00 1685.00 L 1726.00 1685.00 L 1706.00 1686.00 L 1566.00 1686.00 L 1546.00 1687.00 L 1426.00 1687.00 L 1406.00 1688.00 L 1386.00 1688.00 L 1366.00 1708.00 L 1346.00 1688.00 L 1266.00 1688.00 L 1246.00 1689.00 L 1106.00 1689.00 L 1086.00 1690.00 L 946.00 1690.00 L 926.00 1691.00 L 786.00 1691.00 L 766.00 1692.00 L 626.00 1692.00 L 606.00 1693.00 L 466.00 1693.00 L 446.00 1714.00 L 426.00 1694.00 L 383.89 1694.00 L 386.94 1804.00 L 566.00 1804.00 L 586.00 1803.00 L 826.00 1803.00 L 846.00 1802.00 L 1106.00 1802.00 L 1126.00 1801.00 L 1166.00 1801.00 L 1186.00 1821.00 L 1206.00 1821.00 L 1226.00 1801.00 L 1366.00 1801.00 L 1386.00 1800.00 L 1646.00 1800.00 L 1666.00 1799.00 L 1906.00 1799.00 L 1926.00 1798.00 L 2186.00 1798.00 L 2206.00 1797.00 L 2446.00 1797.00 L 2466.00 1796.00 L 2494.90 1796.00 L 2490.00 1695.00 L 2496.28 1681.00 Z" />
<path id="csg562-035-10" fill="none" stroke="black" stroke-width="1" d="M 2466.00 1796.00 L 2446.00 1797.00 L 2206.00 1797.00 L 2186.00 1798.00 L 1926.00 1798.00 L 1906.00 1799.00 L 1666.00 1799.00 L 1646.00 1800.00 L 1386.00 1800.00 L 1366.00 1801.00 L 1226.00 1801.00 L 1206.00 1821.00 L 1186.00 1821.00 L 1166.00 1801.00 L 1126.00 1801.00 L 1106.00 1802.00 L 846.00 1802.00 L 826.00 1803.00 L 586.00 1803.00 L 566.00 1804.00 L 386.94 1804.00 L 390.14 1919.00 L 966.00 1919.00 L 986.00 1920.00 L 1646.00 1920.00 L 1666.00 1921.00 L 1946.00 1921.00 L 1966.00 1881.00 L 1986.00 1881.00 L 2006.00 1921.00 L 2326.00 1921.00 L 2346.00 1922.00 L 2501.02 1922.00 L 2494.90 1796.00 Z" />
<path id="csg562-035-11" fill="none" stroke="black" stroke-width="1" d="M 1966.00 1881.00 L 1946.00 1921.00 L 1666.00 1921.00 L 1646.00 1920.00 L 986.00 1920.00 L 966.00 1919.00 L 390.14 1919.00 L 393.22 2030.00 L 906.00 2030.00 L 926.00 2031.00 L 1506.00 2031.00 L 1526.00 2032.00 L 2106.00 2032.00 L 2126.00 2033.00 L 2387.57 2033.00 L 2388.00 2031.00 L 2505.00 2004.00 L 2501.02 1922.00 L 2346.00 1922.00 L 2326.00 1921.00 L 2006.00 1921.00 L 1986.00 1881.00 Z" />
<path id="csg562-035-12" fill="none" stroke="black" stroke-width="1" d="M 393.22 2030.00 L 396.00 2130.00 L 395.46 2146.46 L 406.00 2157.00 L 426.00 2137.00 L 2365.29 2137.00 L 2387.57 2033.00 L 2126.00 2033.00 L 2106.00 2032.00 L 1526.00 2032.00 L 1506.00 2031.00 L 926.00 2031.00 L 906.00 2030.00 Z" />
<path id="csg562-035-13" fill="none" stroke="black" stroke-width="1" d="M 426.00 2137.00 L 406.00 2157.00 L 395.46 2146.46 L 391.93 2254.00 L 826.00 2254.00 L 846.00 2255.00 L 1366.00 2255.00 L 1386.00 2256.00 L 1906.00 2256.00 L 1926.00 2257.00 L 2446.00 2257.00 L 2466.00 2258.00 L 2513.78 2258.00 L 2478.00 2166.00 L 2361.00 2157.00 L 2365.29 2137.00 Z" />
<path id="csg562-035-14" fill="none" stroke="black" stroke-width="1" d="M 391.93 2254.00 L 388.59 2356.00 L 1746.00 2356.00 L 1766.00 2357.00 L 2306.00 2357.00 L 2326.00 2377.00 L 2346.00 2377.00 L 2366.00 2357.00 L 2510.88 2357.00 L 2520.00 2274.00 L 2513.78 2258.00 L 2466.00 2258.00 L 2446.00 2257.00 L 1926.00 2257.00 L 1906.00 2256.00 L 1386.00 2256.00 L 1366.00 2255.00 L 846.00 2255.00 L 826.00 2254.00 Z" />
<path id="csg562-035-15" fill="none" stroke="black" stroke-width="1" d="M 388.59 2356.00 L 384.69 2475.00 L 826.00 2475.00 L 846.00 2474.00 L 1346.00 2474.00 L 1366.00 2473.00 L 1866.00 2473.00 L 1886.00 2472.00 L 2106.00 2472.00 L 2126.00 2452.00 L 2146.00 2452.00 L 2166.00 2472.00 L 2406.00 2472.00 L 2426.00 2471.00 L 2498.35 2471.00 L 2510.88 2357.00 L 2366.00 2357.00 L 2346.00 2377.00 L 2326.00 2377.00 L 2306.00 2357.00 L 1766.00 2357.00 L 1746.00 2356.00 Z" />
<path id="csg562-035-16" fill="none" stroke="black" stroke-width="1" d="M 2126.00 2452.00 L 2106.00 2472.00 L 1886.00 2472.00 L 1866.00 2473.00 L 1366.00 2473.00 L 1346.00 2474.00 L 846.00 2474.00 L 826.00 2475.00 L 384.69 2475.00 L 381.21 2581.00 L 726.00 2581.00 L 746.00 2580.00 L 1166.00 2580.00 L 1186.00 2579.00 L 1286.00 2579.00 L 1306.00 2599.00 L 1326.00 2599.00 L 1346.00 2579.00 L 1606.00 2579.00 L 1626.00 2578.00 L 1786.00 2578.00 L 1806.00 2598.00 L 1826.00 2578.00 L 1846.00 2598.00 L 1866.00 2578.00 L 2046.00 2578.00 L 2066.00 2577.00 L 2186.00 2577.00 L 2206.00 2597.00 L 2226.00 2597.00 L 2246.00 2577.00 L 2386.00 2577.00 L 2406.00 2617.00 L 2424.83 2617.00 L 2490.00 2547.00 L 2498.35 2471.00 L 2426.00 2471.00 L 2406.00 2472.00 L 2166.00 2472.00 L 2146.00 2452.00 Z" />
<path id="csg562-035-17" fill="none" stroke="black" stroke-width="1" d="M 2066.00 2577.00 L 2046.00 2578.00 L 1866.00 2578.00 L 1846.00 2598.00 L 1826.00 2578.00 L 1806.00 2598.00 L 1786.00 2578.00 L 1626.00 2578.00 L 1606.00 2579.00 L 1346.00 2579.00 L 1326.00 2599.00 L 1306.00 2599.00 L 1286.00 2579.00 L 1186.00 2579.00 L 1166.00 2580.00 L 746.00 2580.00 L 726.00 2581.00 L 381.21 2581.00 L 378.00 2679.00 L 366.00 2685.00 L 1786.00 2685.00 L 1806.00 2705.00 L 1826.00 2705.00 L 1846.00 2685.00 L 2181.23 2685.00 L 2262.00 2580.00 L 2409.00 2634.00 L 2424.83 2617.00 L 2406.00 2617.00 L 2386.00 2577.00 L 2246.00 2577.00 L 2226.00 2597.00 L 2206.00 2597.00 L 2186.00 2577.00 Z" />
<path id="csg562-035-18" fill="none" stroke="black" stroke-width="1" d="M 366.00 2685.00 L 306.00 2715.00 L 375.00 2775.00 L 374.18 2819.00 L 2473.27 2819.00 L 2475.00 2814.00 L 2544.00 2766.00 L 2493.00 2700.00 L 2172.00 2697.00 L 2181.23 2685.00 L 1846.00 2685.00 L 1826.00 2705.00 L 1806.00 2705.00 L 1786.00 2685.00 Z" />
<path id="csg562-035-19" fill="none" stroke="black" stroke-width="1" d="M 374.18 2819.00 L 372.21 2924.00 L 686.00 2924.00 L 706.00 2923.00 L 746.00 2923.00 L 766.00 2943.00 L 786.00 2923.00 L 1086.00 2923.00 L 1106.00 2922.00 L 1486.00 2922.00 L 1506.00 2921.00 L 1886.00 2921.00 L 1906.00 2920.00 L 2286.00 2920.00 L 2306.00 2919.00 L 2386.00 2919.00 L 2406.00 2939.00 L 2426.00 2919.00 L 2438.73 2919.00 L 2473.27 2819.00 Z" />
<path id="csg562-035-20" fill="none" stroke="black" stroke-width="1" d="M 2306.00 2919.00 L 2286.00 2920.00 L 1906.00 2920.00 L 1886.00 2921.00 L 1506.00 2921.00 L 1486.00 2922.00 L 1106.00 2922.00 L 1086.00 2923.00 L 786.00 2923.00 L 766.00 2943.00 L 746.00 2923.00 L 706.00 2923.00 L 686.00 2924.00 L 372.21 2924.00 L 370.33 3025.00 L 486.00 3025.00 L 506.00 3045.00 L 526.00 3045.00 L 546.00 3025.00 L 2450.55 3025.00 L 2418.00 2979.00 L 2438.73 2919.00 L 2426.00 2919.00 L 2406.00 2939.00 L 2386.00 2919.00 Z" />
<path id="csg562-035-21" fill="none" stroke="black" stroke-width="1" d="M 370.33 3025.00 L 368.23 3137.00 L 666.00 3137.00 L 686.00 3157.00 L 706.00 3138.00 L 966.00 3138.00 L 986.00 3158.00 L 1006.00 3138.00 L 1066.00 3138.00 L 1086.00 3139.00 L 1446.00 3139.00 L 1466.00 3140.00 L 1826.00 3140.00 L 1846.00 3141.00 L 2206.00 3141.00 L 2226.00 3142.00 L 2533.35 3142.00 L 2450.55 3025.00 L 546.00 3025.00 L 526.00 3045.00 L 506.00 3045.00 L 486.00 3025.00 Z" />
<path id="csg562-035-22" fill="none" stroke="black" stroke-width="1" d="M 368.23 3137.00 L 366.18 3247.00 L 386.00 3247.00 L 406.00 3267.00 L 426.00 3247.00 L 626.00 3247.00 L 646.00 3246.00 L 946.00 3246.00 L 966.00 3245.00 L 1266.00 3245.00 L 1286.00 3244.00 L 1586.00 3244.00 L 1606.00 3243.00 L 1686.00 3243.00 L 1706.00 3223.00 L 1726.00 3243.00 L 1826.00 3243.00 L 1846.00 3263.00 L 1866.00 3243.00 L 1906.00 3243.00 L 1926.00 3242.00 L 2226.00 3242.00 L 2246.00 3241.00 L 2535.70 3241.00 L 2556.00 3174.00 L 2533.35 3142.00 L 2226.00 3142.00 L 2206.00 3141.00 L 1846.00 3141.00 L 1826.00 3140.00 L 1466.00 3140.00 L 1446.00 3139.00 L 1086.00 3139.00 L 1066.00 3138.00 L 1006.00 3138.00 L 986.00 3158.00 L 966.00 3138.00 L 706.00 3138.00 L 686.00 3157.00 L 666.00 3137.00 Z" />
<path id="csg562-035-23" fill="none" stroke="black" stroke-width="1" d="M 1706.00 3223.00 L 1686.00 3243.00 L 1606.00 3243.00 L 1586.00 3244.00 L 1286.00 3244.00 L 1266.00 3245.00 L 966.00 3245.00 L 946.00 3246.00 L 646.00 3246.00 L 626.00 3247.00 L 426.00 3247.00 L 406.00 3267.00 L 386.00 3247.00 L 366.18 3247.00 L 363.97 3365.00 L 1006.00 3365.00 L 1026.00 3364.00 L 1726.00 3364.00 L 1746.00 3363.00 L 2446.00 3363.00 L 2466.00 3362.00 L 2487.86 3362.00 L 2526.00 3273.00 L 2535.70 3241.00 L 2246.00 3241.00 L 2226.00 3242.00 L 1926.00 3242.00 L 1906.00 3243.00 L 1866.00 3243.00 L 1846.00 3263.00 L 1826.00 3243.00 L 1726.00 3243.00 L 1706.00 3223.00 Z" />
<path id="csg562-035-24" fill="none" stroke="black" stroke-width="1" d="M 2466.00 3362.00 L 2446.00 3363.00 L 1746.00 3363.00 L 1726.00 3364.00 L 1026.00 3364.00 L 1006.00 3365.00 L 363.97 3365.00 L 363.00 3417.00 L 422.12 3460.00 L 686.00 3460.00 L 706.00 3459.00 L 1086.00 3459.00 L 1106.00 3458.00 L 1486.00 3458.00 L 1506.00 3457.00 L 1866.00 3457.00 L 1886.00 3456.00 L 2049.00 3456.00 L 2454.00 3441.00 L 2487.86 3362.00 Z" />
</svg>
