<?xml version="1.0" standalone="no"?>
<!DOCTYPE svg PUBLIC "-//W3C//DTD SVG 1.1//EN" "http://www.w3.org/Graphics/SVG/1.1/DTD/svg11.dtd">
<svg width="46.22222in" height="69.333336in" viewBox="0 0 3328 4992" xmlns="http://www.w3.org/2000/svg" version="1.1">
<path id="csg562-029-01" fill="none" stroke="black" stroke-width="1" d="M 1233.00 726.00 L 819.00 792.00 L 441.00 786.00 L 429.26 887.00 L 728.00 887.00 L 748.00 888.00 L 1108.00 888.00 L 1128.00 889.00 L 1488.00 889.00 L 1508.00 909.00 L 1528.00 890.00 L 1888.00 890.00 L 1908.00 891.00 L 2288.00 891.00 L 2308.00 892.00 L 2455.93 892.00 L 2439.00 819.00 L 2061.00 795.00 L 1530.00 807.00 L 1233.00 726.00 Z" />
<path id="csg562-029-02" fill="none" stroke="black" stroke-width="1" d="M 429.26 887.00 L 426.00 915.00 L 363.00 930.00 L 359.66 1006.17 L 368.00 1002.00 L 848.00 1002.00 L 868.00 1003.00 L 1368.00 1003.00 L 1388.00 1004.00 L 1888.00 1004.00 L 1908.00 1005.00 L 2388.00 1005.00 L 2408.00 1006.00 L 2482.36 1006.00 L 2455.93 892.00 L 2308.00 892.00 L 2288.00 891.00 L 1908.00 891.00 L 1888.00 890.00 L 1528.00 890.00 L 1508.00 909.00 L 1488.00 889.00 L 1128.00 889.00 L 1108.00 888.00 L 748.00 888.00 L 728.00 887.00 Z" />
<path id="csg562-029-03" fill="none" stroke="black" stroke-width="1" d="M 368.00 1002.00 L 359.66 1006.17 L 354.88 1115.22 L 368.00 1108.00 L 668.00 1108.00 L 688.00 1128.00 L 708.00 1108.00 L 1048.00 1108.00 L 1068.00 1107.00 L 1768.00 1107.00 L 1788.00 1126.00 L 1808.00 1126.00 L 1828.00 1106.00 L 2468.00 1106.00 L 2488.00 1105.00 L 2509.69 1105.00 L 2487.00 1026.00 L 2482.36 1006.00 L 2408.00 1006.00 L 2388.00 1005.00 L 1908.00 1005.00 L 1888.00 1004.00 L 1388.00 1004.00 L 1368.00 1003.00 L 868.00 1003.00 L 848.00 1002.00 Z" />
<path id="csg562-029-04" fill="none" stroke="black" stroke-width="1" d="M 2488.00 1105.00 L 2468.00 1106.00 L 1828.00 1106.00 L 1808.00 1126.00 L 1788.00 1126.00 L 1768.00 1107.00 L 1068.00 1107.00 L 1048.00 1108.00 L 708.00 1108.00 L 688.00 1128.00 L 668.00 1108.00 L 368.00 1108.00 L 354.88 1115.22 L 349.75 1232.04 L 368.00 1222.00 L 868.00 1222.00 L 888.00 1221.00 L 1388.00 1221.00 L 1408.00 1220.00 L 1908.00 1220.00 L 1928.00 1219.00 L 2428.00 1219.00 L 2448.00 1218.00 L 2542.15 1218.00 L 2509.69 1105.00 Z" />
<path id="csg562-029-05" fill="none" stroke="black" stroke-width="1" d="M 2448.00 1218.00 L 2428.00 1219.00 L 1928.00 1219.00 L 1908.00 1220.00 L 1408.00 1220.00 L 1388.00 1221.00 L 888.00 1221.00 L 868.00 1222.00 L 368.00 1222.00 L 349.75 1232.04 L 348.00 1272.00 L 350.70 1335.30 L 368.00 1286.00 L 388.00 1306.00 L 408.00 1342.00 L 428.00 1332.00 L 748.00 1332.00 L 768.00 1331.00 L 1168.00 1331.00 L 1188.00 1330.00 L 1588.00 1330.00 L 1608.00 1329.00 L 2008.00 1329.00 L 2028.00 1328.00 L 2428.00 1328.00 L 2448.00 1327.00 L 2488.00 1327.00 L 2508.00 1347.00 L 2526.00 1347.00 L 2568.00 1308.00 L 2542.15 1218.00 Z" />
<path id="csg562-029-06" fill="none" stroke="black" stroke-width="1" d="M 368.00 1286.00 L 350.70 1335.30 L 356.47 1470.34 L 368.00 1464.00 L 628.00 1464.00 L 648.00 1463.00 L 928.00 1463.00 L 948.00 1482.00 L 968.00 1462.00 L 1188.00 1462.00 L 1208.00 1482.00 L 1228.00 1462.00 L 1248.00 1461.00 L 1528.00 1461.00 L 1548.00 1460.00 L 1828.00 1460.00 L 1848.00 1459.00 L 2128.00 1459.00 L 2148.00 1458.00 L 2408.00 1458.00 L 2428.00 1457.00 L 2485.49 1457.00 L 2484.00 1386.00 L 2526.00 1347.00 L 2508.00 1347.00 L 2488.00 1327.00 L 2448.00 1327.00 L 2428.00 1328.00 L 2028.00 1328.00 L 2008.00 1329.00 L 1608.00 1329.00 L 1588.00 1330.00 L 1188.00 1330.00 L 1168.00 1331.00 L 768.00 1331.00 L 748.00 1332.00 L 428.00 1332.00 L 408.00 1342.00 L 388.00 1306.00 L 368.00 1286.00 Z" />
<path id="csg562-029-07" fill="none" stroke="black" stroke-width="1" d="M 2428.00 1457.00 L 2408.00 1458.00 L 2148.00 1458.00 L 2128.00 1459.00 L 1848.00 1459.00 L 1828.00 1460.00 L 1548.00 1460.00 L 1528.00 1461.00 L 1248.00 1461.00 L 1228.00 1462.00 L 1208.00 1482.00 L 1188.00 1462.00 L 968.00 1462.00 L 948.00 1482.00 L 928.00 1463.00 L 648.00 1463.00 L 628.00 1464.00 L 368.00 1464.00 L 356.47 1470.34 L 360.68 1569.03 L 368.00 1565.00 L 508.00 1565.00 L 528.00 1564.00 L 668.00 1564.00 L 688.00 1563.00 L 828.00 1563.00 L 848.00 1562.00 L 988.00 1562.00 L 1008.00 1561.00 L 1148.00 1561.00 L 1168.00 1560.00 L 1328.00 1560.00 L 1348.00 1559.00 L 1488.00 1559.00 L 1508.00 1558.00 L 1648.00 1558.00 L 1668.00 1557.00 L 1808.00 1557.00 L 1828.00 1556.00 L 1908.00 1556.00 L 1928.00 1536.00 L 1948.00 1558.00 L 1968.00 1540.00 L 1988.00 1535.00 L 2008.00 1555.00 L 2068.00 1555.00 L 2088.00 1575.00 L 2108.00 1555.00 L 2128.00 1555.00 L 2148.00 1554.00 L 2308.00 1554.00 L 2328.00 1553.00 L 2348.00 1553.00 L 2368.00 1573.00 L 2428.00 1573.00 L 2448.00 1553.00 L 2468.00 1553.00 L 2487.50 1552.03 L 2485.49 1457.00 Z" />
<path id="csg562-029-08" fill="none" stroke="black" stroke-width="1" d="M 1988.00 1535.00 L 1968.00 1540.00 L 1948.00 1558.00 L 1928.00 1536.00 L 1908.00 1556.00 L 1828.00 1556.00 L 1808.00 1557.00 L 1668.00 1557.00 L 1648.00 1558.00 L 1508.00 1558.00 L 1488.00 1559.00 L 1348.00 1559.00 L 1328.00 1560.00 L 1168.00 1560.00 L 1148.00 1561.00 L 1008.00 1561.00 L 988.00 1562.00 L 848.00 1562.00 L 828.00 1563.00 L 688.00 1563.00 L 668.00 1564.00 L 528.00 1564.00 L 508.00 1565.00 L 368.00 1565.00 L 360.68 1569.03 L 365.43 1680.41 L 368.00 1679.00 L 548.00 1679.00 L 568.00 1678.00 L 768.00 1678.00 L 788.00 1677.00 L 988.00 1677.00 L 1008.00 1676.00 L 1208.00 1676.00 L 1228.00 1675.00 L 1428.00 1675.00 L 1448.00 1674.00 L 1648.00 1674.00 L 1668.00 1673.00 L 1868.00 1673.00 L 1888.00 1672.00 L 2088.00 1672.00 L 2108.00 1671.00 L 2308.00 1671.00 L 2328.00 1670.00 L 2489.98 1670.00 L 2487.50 1552.03 L 2468.00 1553.00 L 2448.00 1553.00 L 2428.00 1573.00 L 2368.00 1573.00 L 2348.00 1553.00 L 2328.00 1553.00 L 2308.00 1554.00 L 2148.00 1554.00 L 2128.00 1555.00 L 2108.00 1555.00 L 2088.00 1575.00 L 2068.00 1555.00 L 2008.00 1555.00 L 1988.00 1535.00 Z" />
<path id="csg562-029-09" fill="none" stroke="black" stroke-width="1" d="M 2328.00 1670.00 L 2308.00 1671.00 L 2108.00 1671.00 L 2088.00 1672.00 L 1888.00 1672.00 L 1868.00 1673.00 L 1668.00 1673.00 L 1648.00 1674.00 L 1448.00 1674.00 L 1428.00 1675.00 L 1228.00 1675.00 L 1208.00 1676.00 L 1008.00 1676.00 L 988.00 1677.00 L 788.00 1677.00 L 768.00 1678.00 L 568.00 1678.00 L 548.00 1679.00 L 368.00 1679.00 L 365.43 1680.41 L 369.00 1764.00 L 368.51 1774.00 L 428.00 1774.00 L 448.00 1794.00 L 508.00 1794.00 L 528.00 1793.00 L 688.00 1793.00 L 708.00 1792.00 L 868.00 1792.00 L 888.00 1791.00 L 1048.00 1791.00 L 1068.00 1790.00 L 1228.00 1790.00 L 1248.00 1789.00 L 1388.00 1789.00 L 1408.00 1788.00 L 1568.00 1788.00 L 1588.00 1787.00 L 1748.00 1787.00 L 1768.00 1786.00 L 1928.00 1786.00 L 1948.00 1785.00 L 2108.00 1785.00 L 2128.00 1784.00 L 2268.00 1784.00 L 2288.00 1783.00 L 2348.00 1783.00 L 2368.00 1803.00 L 2388.00 1783.00 L 2448.00 1783.00 L 2468.00 1782.00 L 2487.30 1782.00 L 2409.00 1701.00 L 2490.00 1671.00 L 2489.98 1670.00 Z" />
<path id="csg562-029-10" fill="none" stroke="black" stroke-width="1" d="M 368.51 1774.00 L 361.95 1907.33 L 361.95 1907.33 L 368.00 1904.00 L 488.00 1904.00 L 508.00 1903.00 L 628.00 1903.00 L 648.00 1902.00 L 768.00 1902.00 L 788.00 1901.00 L 908.00 1901.00 L 928.00 1900.00 L 1008.00 1900.00 L 1028.00 1920.00 L 1048.00 1920.00 L 1068.00 1899.00 L 1188.00 1899.00 L 1208.00 1898.00 L 1328.00 1898.00 L 1348.00 1897.00 L 1368.00 1917.00 L 1388.00 1917.00 L 1408.00 1897.00 L 1468.00 1897.00 L 1488.00 1896.00 L 1608.00 1896.00 L 1628.00 1895.00 L 1748.00 1895.00 L 1768.00 1894.00 L 1888.00 1894.00 L 1908.00 1893.00 L 2028.00 1893.00 L 2048.00 1892.00 L 2168.00 1892.00 L 2188.00 1891.00 L 2248.00 1891.00 L 2268.00 1911.00 L 2308.00 1911.00 L 2328.00 1891.00 L 2348.00 1890.00 L 2468.00 1890.00 L 2488.00 1889.00 L 2511.81 1889.00 L 2496.00 1791.00 L 2487.30 1782.00 L 2468.00 1782.00 L 2448.00 1783.00 L 2388.00 1783.00 L 2368.00 1803.00 L 2348.00 1783.00 L 2288.00 1783.00 L 2268.00 1784.00 L 2128.00 1784.00 L 2108.00 1785.00 L 1948.00 1785.00 L 1928.00 1786.00 L 1768.00 1786.00 L 1748.00 1787.00 L 1588.00 1787.00 L 1568.00 1788.00 L 1408.00 1788.00 L 1388.00 1789.00 L 1248.00 1789.00 L 1228.00 1790.00 L 1068.00 1790.00 L 1048.00 1791.00 L 888.00 1791.00 L 868.00 1792.00 L 708.00 1792.00 L 688.00 1793.00 L 528.00 1793.00 L 508.00 1794.00 L 448.00 1794.00 L 428.00 1774.00 Z" />
<path id="csg562-029-11" fill="none" stroke="black" stroke-width="1" d="M 2488.00 1889.00 L 2468.00 1890.00 L 2348.00 1890.00 L 2328.00 1891.00 L 2308.00 1911.00 L 2268.00 1911.00 L 2248.00 1891.00 L 2188.00 1891.00 L 2168.00 1892.00 L 2048.00 1892.00 L 2028.00 1893.00 L 1908.00 1893.00 L 1888.00 1894.00 L 1768.00 1894.00 L 1748.00 1895.00 L 1628.00 1895.00 L 1608.00 1896.00 L 1488.00 1896.00 L 1468.00 1897.00 L 1408.00 1897.00 L 1388.00 1917.00 L 1368.00 1917.00 L 1348.00 1897.00 L 1328.00 1898.00 L 1208.00 1898.00 L 1188.00 1899.00 L 1068.00 1899.00 L 1048.00 1920.00 L 1028.00 1920.00 L 1008.00 1900.00 L 928.00 1900.00 L 908.00 1901.00 L 788.00 1901.00 L 768.00 1902.00 L 648.00 1902.00 L 628.00 1903.00 L 508.00 1903.00 L 488.00 1904.00 L 368.00 1904.00 L 361.95 1907.33 L 360.00 1947.00 L 361.56 2011.54 L 368.00 2008.00 L 508.00 2008.00 L 528.00 2007.00 L 688.00 2007.00 L 708.00 2006.00 L 868.00 2006.00 L 888.00 2005.00 L 968.00 2005.00 L 988.00 1985.00 L 1008.00 2005.00 L 1048.00 2005.00 L 1068.00 2004.00 L 1228.00 2004.00 L 1248.00 2003.00 L 1388.00 2003.00 L 1408.00 2002.00 L 1568.00 2002.00 L 1588.00 2001.00 L 1748.00 2001.00 L 1768.00 2000.00 L 1928.00 2000.00 L 1948.00 1999.00 L 2108.00 1999.00 L 2128.00 1998.00 L 2268.00 1998.00 L 2288.00 1997.00 L 2428.00 1997.00 L 2443.40 2012.40 L 2526.00 1977.00 L 2511.81 1889.00 Z" />
<path id="csg562-029-12" fill="none" stroke="black" stroke-width="1" d="M 988.00 1985.00 L 968.00 2005.00 L 888.00 2005.00 L 868.00 2006.00 L 708.00 2006.00 L 688.00 2007.00 L 528.00 2007.00 L 508.00 2008.00 L 368.00 2008.00 L 361.56 2011.54 L 364.49 2132.93 L 368.00 2131.00 L 548.00 2131.00 L 568.00 2130.00 L 768.00 2130.00 L 788.00 2129.00 L 988.00 2129.00 L 1008.00 2128.00 L 1208.00 2128.00 L 1228.00 2127.00 L 1428.00 2127.00 L 1448.00 2126.00 L 1648.00 2126.00 L 1668.00 2125.00 L 1868.00 2125.00 L 1888.00 2124.00 L 1908.00 2144.00 L 1928.00 2124.00 L 2088.00 2124.00 L 2108.00 2123.00 L 2128.00 2123.00 L 2148.00 2143.00 L 2168.00 2123.00 L 2308.00 2123.00 L 2328.00 2122.00 L 2440.01 2122.00 L 2400.00 2031.00 L 2443.40 2012.40 L 2428.00 1997.00 L 2288.00 1997.00 L 2268.00 1998.00 L 2128.00 1998.00 L 2108.00 1999.00 L 1948.00 1999.00 L 1928.00 2000.00 L 1768.00 2000.00 L 1748.00 2001.00 L 1588.00 2001.00 L 1568.00 2002.00 L 1408.00 2002.00 L 1388.00 2003.00 L 1248.00 2003.00 L 1228.00 2004.00 L 1068.00 2004.00 L 1048.00 2005.00 L 1008.00 2005.00 L 988.00 1985.00 Z" />
<path id="csg562-029-13" fill="none" stroke="black" stroke-width="1" d="M 2328.00 2122.00 L 2308.00 2123.00 L 2168.00 2123.00 L 2148.00 2143.00 L 2128.00 2123.00 L 2108.00 2123.00 L 2088.00 2124.00 L 1928.00 2124.00 L 1908.00 2144.00 L 1888.00 2124.00 L 1868.00 2125.00 L 1668.00 2125.00 L 1648.00 2126.00 L 1448.00 2126.00 L 1428.00 2127.00 L 1228.00 2127.00 L 1208.00 2128.00 L 1008.00 2128.00 L 988.00 2129.00 L 788.00 2129.00 L 768.00 2130.00 L 568.00 2130.00 L 548.00 2131.00 L 368.00 2131.00 L 364.49 2132.93 L 367.14 2242.47 L 368.00 2242.00 L 648.00 2242.00 L 668.00 2241.00 L 968.00 2241.00 L 988.00 2260.00 L 1008.00 2240.00 L 1268.00 2240.00 L 1288.00 2239.00 L 1448.00 2239.00 L 1468.00 2219.00 L 1488.00 2219.00 L 1508.00 2239.00 L 1588.00 2239.00 L 1608.00 2238.00 L 1628.00 2258.00 L 1648.00 2238.00 L 1908.00 2238.00 L 1928.00 2237.00 L 2068.00 2237.00 L 2088.00 2257.00 L 2108.00 2237.00 L 2208.00 2237.00 L 2228.00 2236.00 L 2490.13 2236.00 L 2440.01 2122.00 Z" />
<path id="csg562-029-14" fill="none" stroke="black" stroke-width="1" d="M 1468.00 2219.00 L 1448.00 2239.00 L 1288.00 2239.00 L 1268.00 2240.00 L 1008.00 2240.00 L 988.00 2260.00 L 968.00 2241.00 L 668.00 2241.00 L 648.00 2242.00 L 368.00 2242.00 L 367.14 2242.47 L 369.61 2345.00 L 408.00 2345.00 L 428.00 2365.00 L 448.00 2345.00 L 1508.00 2345.00 L 1528.00 2365.00 L 1548.00 2345.00 L 2128.00 2345.00 L 2148.00 2365.00 L 2168.00 2345.00 L 2538.05 2345.00 L 2490.13 2236.00 L 2228.00 2236.00 L 2208.00 2237.00 L 2108.00 2237.00 L 2088.00 2257.00 L 2068.00 2237.00 L 1928.00 2237.00 L 1908.00 2238.00 L 1648.00 2238.00 L 1628.00 2258.00 L 1608.00 2238.00 L 1588.00 2239.00 L 1508.00 2239.00 L 1488.00 2219.00 Z" />
<path id="csg562-029-15" fill="none" stroke="black" stroke-width="1" d="M 369.61 2345.00 L 372.15 2450.00 L 1188.00 2450.00 L 1208.00 2470.00 L 1228.00 2450.00 L 1488.00 2450.00 L 1508.00 2470.00 L 1528.00 2470.00 L 1548.00 2450.00 L 1888.00 2450.00 L 1908.00 2451.00 L 2488.00 2451.00 L 2507.62 2470.62 L 2508.30 2470.70 L 2527.15 2451.85 L 2553.00 2379.00 L 2538.05 2345.00 L 2168.00 2345.00 L 2148.00 2365.00 L 2128.00 2345.00 L 1548.00 2345.00 L 1528.00 2365.00 L 1508.00 2345.00 L 448.00 2345.00 L 428.00 2365.00 L 408.00 2345.00 Z" />
<path id="csg562-029-16" fill="none" stroke="black" stroke-width="1" d="M 372.15 2450.00 L 374.88 2563.00 L 588.00 2563.00 L 608.00 2562.00 L 768.00 2562.00 L 788.00 2582.00 L 808.00 2562.00 L 828.00 2562.00 L 848.00 2561.00 L 1088.00 2561.00 L 1108.00 2560.00 L 1328.00 2560.00 L 1348.00 2559.00 L 1588.00 2559.00 L 1608.00 2558.00 L 1828.00 2558.00 L 1848.00 2557.00 L 2088.00 2557.00 L 2108.00 2556.00 L 2328.00 2556.00 L 2348.00 2555.00 L 2425.60 2555.00 L 2439.00 2463.00 L 2507.62 2470.62 L 2488.00 2451.00 L 1908.00 2451.00 L 1888.00 2450.00 L 1548.00 2450.00 L 1528.00 2470.00 L 1508.00 2470.00 L 1488.00 2450.00 L 1228.00 2450.00 L 1208.00 2470.00 L 1188.00 2450.00 Z" />
<path id="csg562-029-17" fill="none" stroke="black" stroke-width="1" d="M 2348.00 2555.00 L 2328.00 2556.00 L 2108.00 2556.00 L 2088.00 2557.00 L 1848.00 2557.00 L 1828.00 2558.00 L 1608.00 2558.00 L 1588.00 2559.00 L 1348.00 2559.00 L 1328.00 2560.00 L 1108.00 2560.00 L 1088.00 2561.00 L 848.00 2561.00 L 828.00 2562.00 L 808.00 2562.00 L 788.00 2582.00 L 768.00 2562.00 L 608.00 2562.00 L 588.00 2563.00 L 374.88 2563.00 L 375.00 2568.00 L 379.86 2673.00 L 648.00 2673.00 L 668.00 2672.00 L 948.00 2672.00 L 968.00 2671.00 L 1248.00 2671.00 L 1268.00 2670.00 L 1548.00 2670.00 L 1568.00 2669.00 L 1708.00 2669.00 L 1728.00 2649.00 L 1748.00 2669.00 L 1868.00 2669.00 L 1888.00 2668.00 L 2168.00 2668.00 L 2188.00 2667.00 L 2409.29 2667.00 L 2425.60 2555.00 Z" />
<path id="csg562-029-18" fill="none" stroke="black" stroke-width="1" d="M 1728.00 2649.00 L 1708.00 2669.00 L 1568.00 2669.00 L 1548.00 2670.00 L 1268.00 2670.00 L 1248.00 2671.00 L 968.00 2671.00 L 948.00 2672.00 L 668.00 2672.00 L 648.00 2673.00 L 379.86 2673.00 L 384.95 2783.00 L 608.00 2783.00 L 628.00 2782.00 L 888.00 2782.00 L 908.00 2781.00 L 1168.00 2781.00 L 1188.00 2780.00 L 1428.00 2780.00 L 1448.00 2779.00 L 1568.00 2779.00 L 1588.00 2799.00 L 1608.00 2799.00 L 1628.00 2779.00 L 1708.00 2779.00 L 1728.00 2778.00 L 1896.00 2778.00 L 2064.00 2772.00 L 2079.45 2777.00 L 2128.00 2777.00 L 2148.00 2797.00 L 2168.00 2797.00 L 2188.00 2777.00 L 2248.00 2777.00 L 2268.00 2776.00 L 2366.36 2776.00 L 2394.00 2772.00 L 2409.29 2667.00 L 2188.00 2667.00 L 2168.00 2668.00 L 1888.00 2668.00 L 1868.00 2669.00 L 1748.00 2669.00 L 1728.00 2649.00 Z" />
<path id="csg562-029-19" fill="none" stroke="black" stroke-width="1" d="M 1728.00 2778.00 L 1708.00 2779.00 L 1628.00 2779.00 L 1608.00 2799.00 L 1588.00 2799.00 L 1568.00 2779.00 L 1448.00 2779.00 L 1428.00 2780.00 L 1188.00 2780.00 L 1168.00 2781.00 L 908.00 2781.00 L 888.00 2782.00 L 628.00 2782.00 L 608.00 2783.00 L 384.95 2783.00 L 390.00 2892.00 L 456.00 2895.00 L 583.50 2900.00 L 668.00 2900.00 L 688.00 2899.00 L 828.00 2899.00 L 848.00 2898.00 L 1008.00 2898.00 L 1028.00 2897.00 L 1168.00 2897.00 L 1188.00 2896.00 L 1328.00 2896.00 L 1348.00 2895.00 L 1508.00 2895.00 L 1528.00 2894.00 L 1668.00 2894.00 L 1688.00 2893.00 L 1828.00 2893.00 L 1848.00 2912.00 L 1868.00 2892.00 L 1893.35 2892.00 L 1896.00 2778.00 Z" />
<path id="csg562-029-20" fill="none" stroke="black" stroke-width="1" d="M 1868.00 2892.00 L 1848.00 2912.00 L 1828.00 2893.00 L 1688.00 2893.00 L 1668.00 2894.00 L 1528.00 2894.00 L 1508.00 2895.00 L 1348.00 2895.00 L 1328.00 2896.00 L 1188.00 2896.00 L 1168.00 2897.00 L 1028.00 2897.00 L 1008.00 2898.00 L 848.00 2898.00 L 828.00 2899.00 L 688.00 2899.00 L 668.00 2900.00 L 583.50 2900.00 L 609.00 2901.00 L 633.46 3007.00 L 728.00 3007.00 L 748.00 3006.00 L 848.00 3006.00 L 868.00 3005.00 L 968.00 3005.00 L 988.00 3004.00 L 1108.00 3004.00 L 1128.00 3003.00 L 1228.00 3003.00 L 1248.00 3002.00 L 1348.00 3002.00 L 1368.00 3001.00 L 1488.00 3001.00 L 1508.00 3000.00 L 1608.00 3000.00 L 1628.00 2999.00 L 1728.00 2999.00 L 1748.00 2998.00 L 1868.00 2998.00 L 1888.00 2997.00 L 1988.00 2997.00 L 2008.00 2996.00 L 2108.00 2996.00 L 2128.00 2995.00 L 2248.00 2995.00 L 2268.00 2994.00 L 2368.00 2994.00 L 2388.00 2993.00 L 2478.94 2993.00 L 2445.00 2913.00 L 1893.00 2907.00 L 1893.35 2892.00 Z" />
<path id="csg562-029-21" fill="none" stroke="black" stroke-width="1" d="M 2388.00 2993.00 L 2368.00 2994.00 L 2268.00 2994.00 L 2248.00 2995.00 L 2128.00 2995.00 L 2108.00 2996.00 L 2008.00 2996.00 L 1988.00 2997.00 L 1888.00 2997.00 L 1868.00 2998.00 L 1748.00 2998.00 L 1728.00 2999.00 L 1628.00 2999.00 L 1608.00 3000.00 L 1508.00 3000.00 L 1488.00 3001.00 L 1368.00 3001.00 L 1348.00 3002.00 L 1248.00 3002.00 L 1228.00 3003.00 L 1128.00 3003.00 L 1108.00 3004.00 L 988.00 3004.00 L 968.00 3005.00 L 868.00 3005.00 L 848.00 3006.00 L 748.00 3006.00 L 728.00 3007.00 L 633.46 3007.00 L 636.00 3018.00 L 573.00 3123.00 L 588.00 3123.00 L 608.00 3122.00 L 708.00 3122.00 L 728.00 3121.00 L 828.00 3121.00 L 848.00 3141.00 L 868.00 3140.00 L 888.00 3120.00 L 968.00 3120.00 L 988.00 3119.00 L 1088.00 3119.00 L 1108.00 3118.00 L 1228.00 3118.00 L 1248.00 3117.00 L 1348.00 3117.00 L 1368.00 3116.00 L 1468.00 3116.00 L 1488.00 3115.00 L 1608.00 3115.00 L 1628.00 3134.00 L 1648.00 3114.00 L 1668.00 3114.00 L 1688.00 3134.00 L 1708.00 3154.00 L 1728.00 3134.00 L 1748.00 3113.00 L 1848.00 3113.00 L 1868.00 3112.00 L 1988.00 3112.00 L 2008.00 3111.00 L 2108.00 3111.00 L 2128.00 3110.00 L 2228.00 3110.00 L 2248.00 3109.00 L 2268.00 3109.00 L 2288.00 3129.00 L 2348.00 3129.00 L 2368.00 3109.00 L 2388.00 3108.00 L 2488.00 3108.00 L 2508.00 3107.00 L 2527.30 3107.00 L 2478.94 2993.00 Z" />
<path id="csg562-029-22" fill="none" stroke="black" stroke-width="1" d="M 2508.00 3107.00 L 2488.00 3108.00 L 2388.00 3108.00 L 2368.00 3109.00 L 2348.00 3129.00 L 2288.00 3129.00 L 2268.00 3109.00 L 2248.00 3109.00 L 2228.00 3110.00 L 2128.00 3110.00 L 2108.00 3111.00 L 2008.00 3111.00 L 1988.00 3112.00 L 1868.00 3112.00 L 1848.00 3113.00 L 1748.00 3113.00 L 1728.00 3134.00 L 1708.00 3154.00 L 1688.00 3134.00 L 1668.00 3114.00 L 1648.00 3114.00 L 1628.00 3134.00 L 1608.00 3115.00 L 1488.00 3115.00 L 1468.00 3116.00 L 1368.00 3116.00 L 1348.00 3117.00 L 1248.00 3117.00 L 1228.00 3118.00 L 1108.00 3118.00 L 1088.00 3119.00 L 988.00 3119.00 L 968.00 3120.00 L 888.00 3120.00 L 868.00 3140.00 L 848.00 3141.00 L 828.00 3121.00 L 728.00 3121.00 L 708.00 3122.00 L 608.00 3122.00 L 588.00 3123.00 L 573.00 3123.00 L 564.00 3138.00 L 414.00 3150.00 L 381.00 3192.00 L 382.72 3239.00 L 428.00 3239.00 L 448.00 3238.00 L 508.00 3238.00 L 528.00 3237.00 L 588.00 3237.00 L 608.00 3236.00 L 688.00 3236.00 L 708.00 3235.00 L 748.00 3235.00 L 768.00 3255.00 L 788.00 3234.00 L 848.00 3234.00 L 868.00 3233.00 L 948.00 3233.00 L 968.00 3232.00 L 1028.00 3232.00 L 1048.00 3231.00 L 1108.00 3231.00 L 1128.00 3230.00 L 1208.00 3230.00 L 1228.00 3229.00 L 1248.00 3249.00 L 1268.00 3249.00 L 1288.00 3229.00 L 1308.00 3228.00 L 1368.00 3228.00 L 1388.00 3227.00 L 1408.00 3247.00 L 1428.00 3247.00 L 1448.00 3227.00 L 1468.00 3227.00 L 1488.00 3226.00 L 1548.00 3226.00 L 1568.00 3225.00 L 1628.00 3225.00 L 1648.00 3224.00 L 1728.00 3224.00 L 1748.00 3223.00 L 1808.00 3223.00 L 1828.00 3222.00 L 1888.00 3222.00 L 1908.00 3221.00 L 1988.00 3221.00 L 2008.00 3220.00 L 2068.00 3220.00 L 2088.00 3219.00 L 2148.00 3219.00 L 2168.00 3218.00 L 2248.00 3218.00 L 2268.00 3217.00 L 2288.00 3217.00 L 2308.00 3237.00 L 2328.00 3237.00 L 2348.00 3216.00 L 2408.00 3216.00 L 2428.00 3215.00 L 2508.00 3215.00 L 2528.00 3214.00 L 2569.74 3214.00 L 2571.00 3210.00 L 2527.30 3107.00 Z" />
<path id="csg562-029-23" fill="none" stroke="black" stroke-width="1" d="M 2528.00 3214.00 L 2508.00 3215.00 L 2428.00 3215.00 L 2408.00 3216.00 L 2348.00 3216.00 L 2328.00 3237.00 L 2308.00 3237.00 L 2288.00 3217.00 L 2268.00 3217.00 L 2248.00 3218.00 L 2168.00 3218.00 L 2148.00 3219.00 L 2088.00 3219.00 L 2068.00 3220.00 L 2008.00 3220.00 L 1988.00 3221.00 L 1908.00 3221.00 L 1888.00 3222.00 L 1828.00 3222.00 L 1808.00 3223.00 L 1748.00 3223.00 L 1728.00 3224.00 L 1648.00 3224.00 L 1628.00 3225.00 L 1568.00 3225.00 L 1548.00 3226.00 L 1488.00 3226.00 L 1468.00 3227.00 L 1448.00 3227.00 L 1428.00 3247.00 L 1408.00 3247.00 L 1388.00 3227.00 L 1368.00 3228.00 L 1308.00 3228.00 L 1288.00 3229.00 L 1268.00 3249.00 L 1248.00 3249.00 L 1228.00 3229.00 L 1208.00 3230.00 L 1128.00 3230.00 L 1108.00 3231.00 L 1048.00 3231.00 L 1028.00 3232.00 L 968.00 3232.00 L 948.00 3233.00 L 868.00 3233.00 L 848.00 3234.00 L 788.00 3234.00 L 768.00 3255.00 L 748.00 3235.00 L 708.00 3235.00 L 688.00 3236.00 L 608.00 3236.00 L 588.00 3237.00 L 528.00 3237.00 L 508.00 3238.00 L 448.00 3238.00 L 428.00 3239.00 L 382.72 3239.00 L 386.56 3344.00 L 408.00 3344.00 L 428.00 3343.00 L 488.00 3343.00 L 508.00 3342.00 L 548.00 3342.00 L 568.00 3341.00 L 628.00 3341.00 L 648.00 3340.00 L 688.00 3340.00 L 708.00 3339.00 L 768.00 3339.00 L 788.00 3338.00 L 828.00 3338.00 L 848.00 3337.00 L 908.00 3337.00 L 928.00 3336.00 L 968.00 3336.00 L 988.00 3335.00 L 1048.00 3335.00 L 1068.00 3334.00 L 1108.00 3334.00 L 1128.00 3333.00 L 1188.00 3333.00 L 1208.00 3332.00 L 1248.00 3332.00 L 1268.00 3331.00 L 1328.00 3331.00 L 1348.00 3330.00 L 1408.00 3330.00 L 1428.00 3329.00 L 1468.00 3329.00 L 1488.00 3328.00 L 1548.00 3328.00 L 1568.00 3327.00 L 1608.00 3327.00 L 1628.00 3326.00 L 1688.00 3326.00 L 1708.00 3325.00 L 1728.00 3345.00 L 1748.00 3365.00 L 1768.00 3344.00 L 1788.00 3344.00 L 1808.00 3324.00 L 1828.00 3324.00 L 1848.00 3323.00 L 1888.00 3323.00 L 1908.00 3322.00 L 1968.00 3322.00 L 1988.00 3321.00 L 2028.00 3321.00 L 2048.00 3320.00 L 2108.00 3320.00 L 2128.00 3319.00 L 2168.00 3319.00 L 2188.00 3318.00 L 2248.00 3318.00 L 2268.00 3317.00 L 2288.00 3357.00 L 2308.00 3337.00 L 2328.00 3317.00 L 2348.00 3316.00 L 2388.00 3316.00 L 2408.00 3335.00 L 2428.00 3315.00 L 2468.00 3315.00 L 2488.00 3314.00 L 2528.00 3314.00 L 2538.40 3313.48 L 2569.74 3214.00 Z" />
<path id="csg562-029-24" fill="none" stroke="black" stroke-width="1" d="M 2538.40 3313.48 L 2528.00 3314.00 L 2488.00 3314.00 L 2468.00 3315.00 L 2428.00 3315.00 L 2408.00 3335.00 L 2388.00 3316.00 L 2348.00 3316.00 L 2328.00 3317.00 L 2308.00 3337.00 L 2288.00 3357.00 L 2268.00 3317.00 L 2248.00 3318.00 L 2188.00 3318.00 L 2168.00 3319.00 L 2128.00 3319.00 L 2108.00 3320.00 L 2048.00 3320.00 L 2028.00 3321.00 L 1988.00 3321.00 L 1968.00 3322.00 L 1908.00 3322.00 L 1888.00 3323.00 L 1848.00 3323.00 L 1828.00 3324.00 L 1808.00 3324.00 L 1788.00 3344.00 L 1768.00 3344.00 L 1748.00 3365.00 L 1728.00 3345.00 L 1708.00 3325.00 L 1688.00 3326.00 L 1628.00 3326.00 L 1608.00 3327.00 L 1568.00 3327.00 L 1548.00 3328.00 L 1488.00 3328.00 L 1468.00 3329.00 L 1428.00 3329.00 L 1408.00 3330.00 L 1348.00 3330.00 L 1328.00 3331.00 L 1268.00 3331.00 L 1248.00 3332.00 L 1208.00 3332.00 L 1188.00 3333.00 L 1128.00 3333.00 L 1108.00 3334.00 L 1068.00 3334.00 L 1048.00 3335.00 L 988.00 3335.00 L 968.00 3336.00 L 928.00 3336.00 L 908.00 3337.00 L 848.00 3337.00 L 828.00 3338.00 L 788.00 3338.00 L 768.00 3339.00 L 708.00 3339.00 L 688.00 3340.00 L 648.00 3340.00 L 628.00 3341.00 L 568.00 3341.00 L 548.00 3342.00 L 508.00 3342.00 L 488.00 3343.00 L 428.00 3343.00 L 408.00 3344.00 L 386.56 3344.00 L 390.00 3438.00 L 510.00 3450.00 L 555.03 3452.65 L 568.00 3452.00 L 628.00 3452.00 L 648.00 3451.00 L 688.00 3451.00 L 708.00 3450.00 L 768.00 3450.00 L 788.00 3449.00 L 828.00 3449.00 L 848.00 3448.00 L 868.00 3448.00 L 888.00 3468.00 L 908.00 3468.00 L 928.00 3447.00 L 968.00 3447.00 L 988.00 3446.00 L 1048.00 3446.00 L 1068.00 3445.00 L 1108.00 3445.00 L 1128.00 3444.00 L 1188.00 3444.00 L 1208.00 3443.00 L 1248.00 3443.00 L 1268.00 3442.00 L 1328.00 3442.00 L 1348.00 3441.00 L 1408.00 3441.00 L 1428.00 3440.00 L 1468.00 3440.00 L 1488.00 3439.00 L 1548.00 3439.00 L 1568.00 3438.00 L 1608.00 3438.00 L 1628.00 3437.00 L 1648.00 3437.00 L 1664.00 3453.00 L 1672.00 3453.00 L 1688.00 3437.00 L 1708.00 3436.00 L 1748.00 3436.00 L 1768.00 3435.00 L 1828.00 3435.00 L 1848.00 3434.00 L 1888.00 3434.00 L 1908.00 3433.00 L 1968.00 3433.00 L 1988.00 3432.00 L 2028.00 3432.00 L 2048.00 3431.00 L 2108.00 3431.00 L 2128.00 3450.00 L 2168.00 3450.00 L 2188.00 3449.00 L 2208.00 3429.00 L 2248.00 3429.00 L 2268.00 3428.00 L 2328.00 3428.00 L 2348.00 3427.00 L 2388.00 3427.00 L 2408.00 3426.00 L 2468.00 3426.00 L 2488.00 3425.00 L 2503.26 3425.00 L 2538.40 3313.48 Z" />
</svg>
