<?xml version="1.0" standalone="no"?>
<!DOCTYPE svg PUBLIC "-//W3C//DTD SVG 1.1//EN" "http://www.w3.org/Graphics/SVG/1.1/DTD/svg11.dtd">
<svg width="46.22222in" height="69.333336in" viewBox="0 0 3328 4992" xmlns="http://www.w3.org/2000/svg" version="1.1">
<path id="csg562-047-01" fill="none" stroke="black" stroke-width="1" d="M 1150.00 784.00 L 1130.00 804.00 L 1110.00 804.00 L 1090.00 805.00 L 1080.00 805.00 L 1047.00 822.00 L 405.00 837.00 L 406.71 909.00 L 1870.00 909.00 L 1890.00 910.00 L 2349.70 910.00 L 2439.00 891.00 L 2454.00 816.00 L 2182.86 803.00 L 1890.00 803.00 L 1870.00 804.00 L 1451.25 804.00 L 1263.00 807.00 L 1253.25 804.00 L 1190.00 804.00 L 1170.00 784.00 Z" />
<path id="csg562-047-02" fill="none" stroke="black" stroke-width="1" d="M 406.71 909.00 L 409.02 1005.98 L 410.00 1005.00 L 430.00 985.00 L 450.00 1005.00 L 470.00 1025.00 L 2251.47 1025.00 L 2298.00 921.00 L 2349.70 910.00 L 1890.00 910.00 L 1870.00 909.00 Z" />
<path id="csg562-047-03" fill="none" stroke="black" stroke-width="1" d="M 430.00 985.00 L 410.00 1005.00 L 409.02 1005.98 L 412.17 1138.00 L 910.00 1138.00 L 930.00 1118.00 L 950.00 1104.00 L 970.00 1104.00 L 990.00 1138.00 L 1570.00 1138.00 L 1590.00 1137.00 L 2488.00 1137.00 L 2505.00 1080.00 L 2444.50 1025.00 L 2375.00 1025.00 L 2247.00 1035.00 L 2251.47 1025.00 L 470.00 1025.00 L 450.00 1005.00 L 430.00 985.00 Z" />
<path id="csg562-047-04" fill="none" stroke="black" stroke-width="1" d="M 950.00 1104.00 L 930.00 1118.00 L 910.00 1138.00 L 412.17 1138.00 L 414.00 1215.00 L 510.00 1227.00 L 509.21 1244.00 L 650.00 1244.00 L 670.00 1243.00 L 990.00 1243.00 L 1010.00 1242.00 L 1190.00 1242.00 L 1210.00 1262.00 L 1230.00 1262.00 L 1250.00 1242.00 L 1330.00 1242.00 L 1350.00 1241.00 L 1650.00 1241.00 L 1670.00 1240.00 L 1990.00 1240.00 L 2010.00 1239.00 L 2330.00 1239.00 L 2350.00 1238.00 L 2457.88 1238.00 L 2488.00 1137.00 L 1590.00 1137.00 L 1570.00 1138.00 L 990.00 1138.00 L 970.00 1104.00 Z" />
<path id="csg562-047-05" fill="none" stroke="black" stroke-width="1" d="M 2350.00 1238.00 L 2330.00 1239.00 L 2010.00 1239.00 L 1990.00 1240.00 L 1670.00 1240.00 L 1650.00 1241.00 L 1350.00 1241.00 L 1330.00 1242.00 L 1250.00 1242.00 L 1230.00 1262.00 L 1210.00 1262.00 L 1190.00 1242.00 L 1010.00 1242.00 L 990.00 1243.00 L 670.00 1243.00 L 650.00 1244.00 L 509.21 1244.00 L 504.19 1352.00 L 510.00 1352.00 L 530.00 1351.00 L 710.00 1351.00 L 730.00 1350.00 L 890.00 1350.00 L 910.00 1349.00 L 1090.00 1349.00 L 1110.00 1348.00 L 1290.00 1348.00 L 1310.00 1347.00 L 1470.00 1347.00 L 1490.00 1346.00 L 1530.00 1346.00 L 1550.00 1366.00 L 1570.00 1346.00 L 1650.00 1346.00 L 1670.00 1366.00 L 1690.00 1365.00 L 1730.00 1365.00 L 1750.00 1345.00 L 1870.00 1345.00 L 1890.00 1344.00 L 2050.00 1344.00 L 2070.00 1343.00 L 2250.00 1343.00 L 2270.00 1342.00 L 2450.00 1342.00 L 2470.00 1341.00 L 2472.72 1341.00 L 2454.00 1251.00 L 2457.88 1238.00 Z" />
<path id="csg562-047-06" fill="none" stroke="black" stroke-width="1" d="M 2470.00 1341.00 L 2450.00 1342.00 L 2270.00 1342.00 L 2250.00 1343.00 L 2070.00 1343.00 L 2050.00 1344.00 L 1890.00 1344.00 L 1870.00 1345.00 L 1750.00 1345.00 L 1730.00 1365.00 L 1690.00 1365.00 L 1670.00 1366.00 L 1650.00 1346.00 L 1570.00 1346.00 L 1550.00 1366.00 L 1530.00 1346.00 L 1490.00 1346.00 L 1470.00 1347.00 L 1310.00 1347.00 L 1290.00 1348.00 L 1110.00 1348.00 L 1090.00 1349.00 L 910.00 1349.00 L 890.00 1350.00 L 730.00 1350.00 L 710.00 1351.00 L 530.00 1351.00 L 510.00 1352.00 L 504.19 1352.00 L 504.00 1356.00 L 396.00 1389.00 L 374.60 1460.00 L 870.00 1460.00 L 890.00 1459.00 L 1010.00 1459.00 L 1030.00 1479.00 L 1050.00 1479.00 L 1070.00 1459.00 L 1430.00 1459.00 L 1450.00 1458.00 L 1970.00 1458.00 L 1990.00 1457.00 L 2030.00 1457.00 L 2050.00 1477.00 L 2070.00 1457.00 L 2496.85 1457.00 L 2472.72 1341.00 Z" />
<path id="csg562-047-07" fill="none" stroke="black" stroke-width="1" d="M 1990.00 1457.00 L 1970.00 1458.00 L 1450.00 1458.00 L 1430.00 1459.00 L 1070.00 1459.00 L 1050.00 1479.00 L 1030.00 1479.00 L 1010.00 1459.00 L 890.00 1459.00 L 870.00 1460.00 L 374.60 1460.00 L 338.31 1580.43 L 350.00 1574.00 L 630.00 1574.00 L 650.00 1573.00 L 750.00 1573.00 L 770.00 1593.00 L 790.00 1573.00 L 930.00 1573.00 L 950.00 1572.00 L 970.00 1572.00 L 990.00 1592.00 L 1010.00 1592.00 L 1030.00 1572.00 L 1250.00 1572.00 L 1270.00 1571.00 L 1550.00 1571.00 L 1570.00 1570.00 L 1870.00 1570.00 L 1890.00 1569.00 L 2170.00 1569.00 L 2190.00 1568.00 L 2490.00 1568.00 L 2510.00 1567.00 L 2519.73 1567.00 L 2496.85 1457.00 L 2070.00 1457.00 L 2050.00 1477.00 L 2030.00 1457.00 Z" />
<path id="csg562-047-08" fill="none" stroke="black" stroke-width="1" d="M 2510.00 1567.00 L 2490.00 1568.00 L 2190.00 1568.00 L 2170.00 1569.00 L 1890.00 1569.00 L 1870.00 1570.00 L 1570.00 1570.00 L 1550.00 1571.00 L 1270.00 1571.00 L 1250.00 1572.00 L 1030.00 1572.00 L 1010.00 1592.00 L 990.00 1592.00 L 970.00 1572.00 L 950.00 1572.00 L 930.00 1573.00 L 790.00 1573.00 L 770.00 1593.00 L 750.00 1573.00 L 650.00 1573.00 L 630.00 1574.00 L 350.00 1574.00 L 338.31 1580.43 L 330.00 1608.00 L 345.76 1704.33 L 350.00 1702.00 L 470.00 1702.00 L 490.00 1701.00 L 610.00 1701.00 L 630.00 1700.00 L 750.00 1700.00 L 770.00 1699.00 L 890.00 1699.00 L 910.00 1698.00 L 1030.00 1698.00 L 1050.00 1697.00 L 1170.00 1697.00 L 1190.00 1696.00 L 1310.00 1696.00 L 1330.00 1695.00 L 1450.00 1695.00 L 1470.00 1694.00 L 1590.00 1694.00 L 1610.00 1693.00 L 1730.00 1693.00 L 1750.00 1692.00 L 1870.00 1692.00 L 1890.00 1691.00 L 2030.00 1691.00 L 2050.00 1690.00 L 2170.00 1690.00 L 2190.00 1689.00 L 2310.00 1689.00 L 2330.00 1688.00 L 2450.00 1688.00 L 2470.00 1687.00 L 2479.47 1687.00 L 2532.00 1626.00 L 2519.73 1567.00 Z" />
<path id="csg562-047-09" fill="none" stroke="black" stroke-width="1" d="M 2470.00 1687.00 L 2450.00 1688.00 L 2330.00 1688.00 L 2310.00 1689.00 L 2190.00 1689.00 L 2170.00 1690.00 L 2050.00 1690.00 L 2030.00 1691.00 L 1890.00 1691.00 L 1870.00 1692.00 L 1750.00 1692.00 L 1730.00 1693.00 L 1610.00 1693.00 L 1590.00 1694.00 L 1470.00 1694.00 L 1450.00 1695.00 L 1330.00 1695.00 L 1310.00 1696.00 L 1190.00 1696.00 L 1170.00 1697.00 L 1050.00 1697.00 L 1030.00 1698.00 L 910.00 1698.00 L 890.00 1699.00 L 770.00 1699.00 L 750.00 1700.00 L 630.00 1700.00 L 610.00 1701.00 L 490.00 1701.00 L 470.00 1702.00 L 350.00 1702.00 L 345.76 1704.33 L 362.89 1809.00 L 450.00 1809.00 L 470.00 1808.00 L 570.00 1808.00 L 590.00 1807.00 L 690.00 1807.00 L 710.00 1806.00 L 830.00 1806.00 L 850.00 1805.00 L 950.00 1805.00 L 970.00 1804.00 L 1070.00 1804.00 L 1090.00 1823.00 L 1110.00 1823.00 L 1130.00 1803.00 L 1190.00 1803.00 L 1210.00 1823.00 L 1230.00 1822.00 L 1250.00 1822.00 L 1270.00 1802.00 L 1330.00 1802.00 L 1350.00 1801.00 L 1450.00 1801.00 L 1470.00 1800.00 L 1570.00 1800.00 L 1590.00 1799.00 L 1710.00 1799.00 L 1730.00 1798.00 L 1790.00 1798.00 L 1810.00 1818.00 L 1830.00 1798.00 L 1850.00 1797.00 L 1950.00 1797.00 L 1970.00 1796.00 L 1990.00 1796.00 L 2010.00 1816.00 L 2030.00 1796.00 L 2090.00 1796.00 L 2110.00 1795.00 L 2210.00 1795.00 L 2230.00 1794.00 L 2330.00 1794.00 L 2350.00 1793.00 L 2454.91 1793.00 L 2439.00 1734.00 L 2479.47 1687.00 Z" />
<path id="csg562-047-10" fill="none" stroke="black" stroke-width="1" d="M 2350.00 1793.00 L 2330.00 1794.00 L 2230.00 1794.00 L 2210.00 1795.00 L 2110.00 1795.00 L 2090.00 1796.00 L 2030.00 1796.00 L 2010.00 1816.00 L 1990.00 1796.00 L 1970.00 1796.00 L 1950.00 1797.00 L 1850.00 1797.00 L 1830.00 1798.00 L 1810.00 1818.00 L 1790.00 1798.00 L 1730.00 1798.00 L 1710.00 1799.00 L 1590.00 1799.00 L 1570.00 1800.00 L 1470.00 1800.00 L 1450.00 1801.00 L 1350.00 1801.00 L 1330.00 1802.00 L 1270.00 1802.00 L 1250.00 1822.00 L 1230.00 1822.00 L 1210.00 1823.00 L 1190.00 1803.00 L 1130.00 1803.00 L 1110.00 1823.00 L 1090.00 1823.00 L 1070.00 1804.00 L 970.00 1804.00 L 950.00 1805.00 L 850.00 1805.00 L 830.00 1806.00 L 710.00 1806.00 L 690.00 1807.00 L 590.00 1807.00 L 570.00 1808.00 L 470.00 1808.00 L 450.00 1809.00 L 362.89 1809.00 L 380.07 1914.00 L 630.00 1914.00 L 650.00 1913.00 L 950.00 1913.00 L 970.00 1912.00 L 1270.00 1912.00 L 1290.00 1911.00 L 1590.00 1911.00 L 1610.00 1910.00 L 1910.00 1910.00 L 1930.00 1909.00 L 2230.00 1909.00 L 2250.00 1908.00 L 2485.92 1908.00 L 2454.91 1793.00 Z" />
<path id="csg562-047-11" fill="none" stroke="black" stroke-width="1" d="M 2250.00 1908.00 L 2230.00 1909.00 L 1930.00 1909.00 L 1910.00 1910.00 L 1610.00 1910.00 L 1590.00 1911.00 L 1290.00 1911.00 L 1270.00 1912.00 L 970.00 1912.00 L 950.00 1913.00 L 650.00 1913.00 L 630.00 1914.00 L 380.07 1914.00 L 398.73 2028.00 L 510.00 2028.00 L 530.00 2027.00 L 710.00 2027.00 L 730.00 2026.00 L 890.00 2026.00 L 910.00 2025.00 L 1090.00 2025.00 L 1110.00 2024.00 L 1290.00 2024.00 L 1310.00 2023.00 L 1470.00 2023.00 L 1490.00 2022.00 L 1670.00 2022.00 L 1690.00 2021.00 L 1870.00 2021.00 L 1890.00 2020.00 L 2050.00 2020.00 L 2070.00 2019.00 L 2250.00 2019.00 L 2270.00 2018.00 L 2288.11 2018.00 L 2511.00 2001.00 L 2485.92 1908.00 Z" />
<path id="csg562-047-12" fill="none" stroke="black" stroke-width="1" d="M 2270.00 2018.00 L 2250.00 2019.00 L 2070.00 2019.00 L 2050.00 2020.00 L 1890.00 2020.00 L 1870.00 2021.00 L 1690.00 2021.00 L 1670.00 2022.00 L 1490.00 2022.00 L 1470.00 2023.00 L 1310.00 2023.00 L 1290.00 2024.00 L 1110.00 2024.00 L 1090.00 2025.00 L 910.00 2025.00 L 890.00 2026.00 L 730.00 2026.00 L 710.00 2027.00 L 530.00 2027.00 L 510.00 2028.00 L 398.73 2028.00 L 411.00 2103.00 L 510.00 2121.00 L 536.29 2129.00 L 710.00 2129.00 L 730.00 2128.00 L 890.00 2128.00 L 910.00 2127.00 L 1010.00 2127.00 L 1017.51 2132.26 L 1043.16 2131.79 L 1050.00 2127.00 L 1090.00 2127.00 L 1110.00 2126.00 L 1290.00 2126.00 L 1310.00 2125.00 L 1470.00 2125.00 L 1490.00 2124.00 L 1670.00 2124.00 L 1690.00 2123.00 L 1710.00 2123.00 L 1711.46 2124.32 L 1746.88 2125.81 L 1750.00 2123.00 L 1870.00 2123.00 L 1890.00 2122.00 L 2050.00 2122.00 L 2070.00 2121.00 L 2090.00 2121.00 L 2110.00 2141.00 L 2130.00 2141.00 L 2130.31 2140.69 L 2157.00 2028.00 L 2288.11 2018.00 Z" />
<path id="csg562-047-13" fill="none" stroke="black" stroke-width="1" d="M 939.00 2253.00 L 561.00 2256.00 L 563.81 2360.00 L 663.00 2360.00 L 683.00 2359.00 L 803.00 2359.00 L 823.00 2358.00 L 963.00 2358.00 L 983.00 2357.00 L 1123.00 2357.00 L 1143.00 2356.00 L 1263.00 2356.00 L 1283.00 2355.00 L 1423.00 2355.00 L 1443.00 2354.00 L 1563.00 2354.00 L 1583.00 2353.00 L 1723.00 2353.00 L 1743.00 2352.00 L 1803.00 2352.00 L 1823.00 2372.00 L 1843.00 2372.00 L 1863.00 2352.00 L 1883.00 2352.00 L 1903.00 2351.00 L 2023.00 2351.00 L 2043.00 2350.00 L 2183.00 2350.00 L 2203.00 2349.00 L 2343.00 2349.00 L 2363.00 2348.00 L 2383.00 2368.00 L 2423.00 2368.00 L 2443.00 2348.00 L 2483.00 2348.00 L 2503.00 2347.00 L 2525.02 2347.00 L 2541.00 2310.00 L 2355.00 2253.00 L 2088.00 2253.00 L 1560.00 2259.00 L 939.00 2253.00 Z" />
<path id="csg562-047-14" fill="none" stroke="black" stroke-width="1" d="M 2503.00 2347.00 L 2483.00 2348.00 L 2443.00 2348.00 L 2423.00 2368.00 L 2383.00 2368.00 L 2363.00 2348.00 L 2343.00 2349.00 L 2203.00 2349.00 L 2183.00 2350.00 L 2043.00 2350.00 L 2023.00 2351.00 L 1903.00 2351.00 L 1883.00 2352.00 L 1863.00 2352.00 L 1843.00 2372.00 L 1823.00 2372.00 L 1803.00 2352.00 L 1743.00 2352.00 L 1723.00 2353.00 L 1583.00 2353.00 L 1563.00 2354.00 L 1443.00 2354.00 L 1423.00 2355.00 L 1283.00 2355.00 L 1263.00 2356.00 L 1143.00 2356.00 L 1123.00 2357.00 L 983.00 2357.00 L 963.00 2358.00 L 823.00 2358.00 L 803.00 2359.00 L 683.00 2359.00 L 663.00 2360.00 L 563.81 2360.00 L 564.00 2367.00 L 369.00 2406.00 L 370.87 2485.67 L 383.00 2479.00 L 503.00 2479.00 L 523.00 2478.00 L 663.00 2478.00 L 683.00 2477.00 L 803.00 2477.00 L 823.00 2476.00 L 963.00 2476.00 L 983.00 2475.00 L 1123.00 2475.00 L 1143.00 2474.00 L 1263.00 2474.00 L 1283.00 2473.00 L 1423.00 2473.00 L 1443.00 2472.00 L 1563.00 2472.00 L 1583.00 2471.00 L 1723.00 2471.00 L 1743.00 2470.00 L 1883.00 2470.00 L 1903.00 2469.00 L 2023.00 2469.00 L 2043.00 2468.00 L 2183.00 2468.00 L 2203.00 2467.00 L 2343.00 2467.00 L 2363.00 2466.00 L 2462.00 2466.00 L 2484.00 2442.00 L 2525.02 2347.00 Z" />
<path id="csg562-047-15" fill="none" stroke="black" stroke-width="1" d="M 2363.00 2466.00 L 2343.00 2467.00 L 2203.00 2467.00 L 2183.00 2468.00 L 2043.00 2468.00 L 2023.00 2469.00 L 1903.00 2469.00 L 1883.00 2470.00 L 1743.00 2470.00 L 1723.00 2471.00 L 1583.00 2471.00 L 1563.00 2472.00 L 1443.00 2472.00 L 1423.00 2473.00 L 1283.00 2473.00 L 1263.00 2474.00 L 1143.00 2474.00 L 1123.00 2475.00 L 983.00 2475.00 L 963.00 2476.00 L 823.00 2476.00 L 803.00 2477.00 L 683.00 2477.00 L 663.00 2478.00 L 523.00 2478.00 L 503.00 2479.00 L 383.00 2479.00 L 370.87 2485.67 L 373.41 2593.28 L 383.00 2588.00 L 483.00 2588.00 L 503.00 2587.00 L 603.00 2587.00 L 623.00 2586.00 L 743.00 2586.00 L 763.00 2585.00 L 863.00 2585.00 L 883.00 2584.00 L 983.00 2584.00 L 1003.00 2583.00 L 1123.00 2583.00 L 1143.00 2582.00 L 1243.00 2582.00 L 1263.00 2581.00 L 1363.00 2581.00 L 1383.00 2580.00 L 1503.00 2580.00 L 1523.00 2579.00 L 1623.00 2579.00 L 1643.00 2578.00 L 1743.00 2578.00 L 1763.00 2577.00 L 1883.00 2577.00 L 1903.00 2576.00 L 2003.00 2576.00 L 2023.00 2575.00 L 2123.00 2575.00 L 2143.00 2594.00 L 2163.00 2594.00 L 2183.00 2574.00 L 2263.00 2574.00 L 2283.00 2573.00 L 2383.00 2573.00 L 2403.00 2572.00 L 2442.86 2572.00 L 2418.00 2514.00 L 2462.00 2466.00 Z" />
<path id="csg562-047-16" fill="none" stroke="black" stroke-width="1" d="M 2403.00 2572.00 L 2383.00 2573.00 L 2283.00 2573.00 L 2263.00 2574.00 L 2183.00 2574.00 L 2163.00 2594.00 L 2143.00 2594.00 L 2123.00 2575.00 L 2023.00 2575.00 L 2003.00 2576.00 L 1903.00 2576.00 L 1883.00 2577.00 L 1763.00 2577.00 L 1743.00 2578.00 L 1643.00 2578.00 L 1623.00 2579.00 L 1523.00 2579.00 L 1503.00 2580.00 L 1383.00 2580.00 L 1363.00 2581.00 L 1263.00 2581.00 L 1243.00 2582.00 L 1143.00 2582.00 L 1123.00 2583.00 L 1003.00 2583.00 L 983.00 2584.00 L 883.00 2584.00 L 863.00 2585.00 L 763.00 2585.00 L 743.00 2586.00 L 623.00 2586.00 L 603.00 2587.00 L 503.00 2587.00 L 483.00 2588.00 L 383.00 2588.00 L 373.41 2593.28 L 375.92 2699.90 L 383.00 2696.00 L 503.00 2696.00 L 523.00 2695.00 L 663.00 2695.00 L 683.00 2694.00 L 823.00 2694.00 L 843.00 2693.00 L 963.00 2693.00 L 983.00 2692.00 L 1123.00 2692.00 L 1143.00 2691.00 L 1283.00 2691.00 L 1303.00 2690.00 L 1323.00 2690.00 L 1343.00 2710.00 L 1363.00 2690.00 L 1423.00 2690.00 L 1443.00 2689.00 L 1583.00 2689.00 L 1603.00 2688.00 L 1743.00 2688.00 L 1763.00 2687.00 L 1903.00 2687.00 L 1923.00 2686.00 L 2043.00 2686.00 L 2063.00 2685.00 L 2203.00 2685.00 L 2223.00 2684.00 L 2363.00 2684.00 L 2383.00 2683.00 L 2459.00 2683.00 L 2481.00 2661.00 L 2442.86 2572.00 Z" />
<path id="csg562-047-17" fill="none" stroke="black" stroke-width="1" d="M 2383.00 2683.00 L 2363.00 2684.00 L 2223.00 2684.00 L 2203.00 2685.00 L 2063.00 2685.00 L 2043.00 2686.00 L 1923.00 2686.00 L 1903.00 2687.00 L 1763.00 2687.00 L 1743.00 2688.00 L 1603.00 2688.00 L 1583.00 2689.00 L 1443.00 2689.00 L 1423.00 2690.00 L 1363.00 2690.00 L 1343.00 2710.00 L 1323.00 2690.00 L 1303.00 2690.00 L 1283.00 2691.00 L 1143.00 2691.00 L 1123.00 2692.00 L 983.00 2692.00 L 963.00 2693.00 L 843.00 2693.00 L 823.00 2694.00 L 683.00 2694.00 L 663.00 2695.00 L 523.00 2695.00 L 503.00 2696.00 L 383.00 2696.00 L 375.92 2699.90 L 378.40 2805.53 L 383.00 2803.00 L 503.00 2803.00 L 523.00 2802.00 L 663.00 2802.00 L 683.00 2801.00 L 823.00 2801.00 L 843.00 2800.00 L 983.00 2800.00 L 1003.00 2799.00 L 1123.00 2799.00 L 1143.00 2798.00 L 1163.00 2798.00 L 1183.00 2818.00 L 1203.00 2798.00 L 1283.00 2798.00 L 1303.00 2797.00 L 1443.00 2797.00 L 1463.00 2796.00 L 1563.00 2796.00 L 1583.00 2776.00 L 1603.00 2776.00 L 1623.00 2775.00 L 1643.00 2795.00 L 1743.00 2795.00 L 1763.00 2794.00 L 1903.00 2794.00 L 1923.00 2793.00 L 2063.00 2793.00 L 2083.00 2792.00 L 2223.00 2792.00 L 2243.00 2791.00 L 2263.00 2811.00 L 2283.00 2791.00 L 2363.00 2791.00 L 2383.00 2790.00 L 2422.56 2790.00 L 2403.00 2739.00 L 2459.00 2683.00 Z" />
<path id="csg562-047-18" fill="none" stroke="black" stroke-width="1" d="M 1623.00 2775.00 L 1603.00 2776.00 L 1583.00 2776.00 L 1563.00 2796.00 L 1463.00 2796.00 L 1443.00 2797.00 L 1303.00 2797.00 L 1283.00 2798.00 L 1203.00 2798.00 L 1183.00 2818.00 L 1163.00 2798.00 L 1143.00 2798.00 L 1123.00 2799.00 L 1003.00 2799.00 L 983.00 2800.00 L 843.00 2800.00 L 823.00 2801.00 L 683.00 2801.00 L 663.00 2802.00 L 523.00 2802.00 L 503.00 2803.00 L 383.00 2803.00 L 378.40 2805.53 L 381.00 2916.00 L 379.65 2921.84 L 383.00 2920.00 L 503.00 2920.00 L 523.00 2919.00 L 663.00 2919.00 L 683.00 2918.00 L 803.00 2918.00 L 823.00 2917.00 L 963.00 2917.00 L 983.00 2916.00 L 1003.00 2936.00 L 1023.00 2916.00 L 1103.00 2916.00 L 1123.00 2915.00 L 1263.00 2915.00 L 1283.00 2914.00 L 1403.00 2914.00 L 1423.00 2913.00 L 1563.00 2913.00 L 1583.00 2912.00 L 1703.00 2912.00 L 1723.00 2911.00 L 1863.00 2911.00 L 1883.00 2910.00 L 1903.00 2910.00 L 1923.00 2930.00 L 1943.00 2910.00 L 2003.00 2910.00 L 2023.00 2909.00 L 2163.00 2909.00 L 2183.00 2908.00 L 2303.00 2908.00 L 2323.00 2907.00 L 2463.00 2907.00 L 2467.35 2906.78 L 2422.56 2790.00 L 2383.00 2790.00 L 2363.00 2791.00 L 2283.00 2791.00 L 2263.00 2811.00 L 2243.00 2791.00 L 2223.00 2792.00 L 2083.00 2792.00 L 2063.00 2793.00 L 1923.00 2793.00 L 1903.00 2794.00 L 1763.00 2794.00 L 1743.00 2795.00 L 1643.00 2795.00 L 1623.00 2775.00 Z" />
<path id="csg562-047-19" fill="none" stroke="black" stroke-width="1" d="M 2467.35 2906.78 L 2463.00 2907.00 L 2323.00 2907.00 L 2303.00 2908.00 L 2183.00 2908.00 L 2163.00 2909.00 L 2023.00 2909.00 L 2003.00 2910.00 L 1943.00 2910.00 L 1923.00 2930.00 L 1903.00 2910.00 L 1883.00 2910.00 L 1863.00 2911.00 L 1723.00 2911.00 L 1703.00 2912.00 L 1583.00 2912.00 L 1563.00 2913.00 L 1423.00 2913.00 L 1403.00 2914.00 L 1283.00 2914.00 L 1263.00 2915.00 L 1123.00 2915.00 L 1103.00 2916.00 L 1023.00 2916.00 L 1003.00 2936.00 L 983.00 2916.00 L 963.00 2917.00 L 823.00 2917.00 L 803.00 2918.00 L 683.00 2918.00 L 663.00 2919.00 L 523.00 2919.00 L 503.00 2920.00 L 383.00 2920.00 L 379.65 2921.84 L 363.00 2994.00 L 369.77 3038.28 L 383.00 3031.00 L 503.00 3031.00 L 523.00 3030.00 L 663.00 3030.00 L 683.00 3029.00 L 823.00 3029.00 L 843.00 3028.00 L 983.00 3028.00 L 1003.00 3027.00 L 1123.00 3027.00 L 1143.00 3047.00 L 1163.00 3046.00 L 1183.00 3046.00 L 1203.00 3026.00 L 1263.00 3026.00 L 1283.00 3046.00 L 1303.00 3046.00 L 1323.00 3025.00 L 1443.00 3025.00 L 1463.00 3024.00 L 1603.00 3024.00 L 1623.00 3023.00 L 1683.00 3023.00 L 1703.00 3043.00 L 1723.00 3043.00 L 1743.00 3023.00 L 1763.00 3023.00 L 1783.00 3022.00 L 1923.00 3022.00 L 1943.00 3021.00 L 2083.00 3021.00 L 2103.00 3020.00 L 2243.00 3020.00 L 2263.00 3019.00 L 2383.00 3019.00 L 2403.00 3018.00 L 2477.62 3018.00 L 2487.00 2958.00 L 2467.35 2906.78 Z" />
<path id="csg562-047-20" fill="none" stroke="black" stroke-width="1" d="M 2403.00 3018.00 L 2383.00 3019.00 L 2263.00 3019.00 L 2243.00 3020.00 L 2103.00 3020.00 L 2083.00 3021.00 L 1943.00 3021.00 L 1923.00 3022.00 L 1783.00 3022.00 L 1763.00 3023.00 L 1743.00 3023.00 L 1723.00 3043.00 L 1703.00 3043.00 L 1683.00 3023.00 L 1623.00 3023.00 L 1603.00 3024.00 L 1463.00 3024.00 L 1443.00 3025.00 L 1323.00 3025.00 L 1303.00 3046.00 L 1283.00 3046.00 L 1263.00 3026.00 L 1203.00 3026.00 L 1183.00 3046.00 L 1163.00 3046.00 L 1143.00 3047.00 L 1123.00 3027.00 L 1003.00 3027.00 L 983.00 3028.00 L 843.00 3028.00 L 823.00 3029.00 L 683.00 3029.00 L 663.00 3030.00 L 523.00 3030.00 L 503.00 3031.00 L 383.00 3031.00 L 369.77 3038.28 L 386.25 3146.00 L 503.00 3146.00 L 523.00 3145.00 L 663.00 3145.00 L 683.00 3144.00 L 823.00 3144.00 L 843.00 3143.00 L 983.00 3143.00 L 1003.00 3142.00 L 1063.00 3142.00 L 1083.00 3162.00 L 1103.00 3142.00 L 1143.00 3142.00 L 1163.00 3141.00 L 1303.00 3141.00 L 1323.00 3140.00 L 1463.00 3140.00 L 1483.00 3139.00 L 1623.00 3139.00 L 1643.00 3138.00 L 1783.00 3138.00 L 1803.00 3137.00 L 1943.00 3137.00 L 1963.00 3136.00 L 2103.00 3136.00 L 2123.00 3135.00 L 2263.00 3135.00 L 2283.00 3134.00 L 2403.00 3134.00 L 2423.00 3133.00 L 2459.66 3133.00 L 2477.62 3018.00 Z" />
<path id="csg562-047-21" fill="none" stroke="black" stroke-width="1" d="M 2423.00 3133.00 L 2403.00 3134.00 L 2283.00 3134.00 L 2263.00 3135.00 L 2123.00 3135.00 L 2103.00 3136.00 L 1963.00 3136.00 L 1943.00 3137.00 L 1803.00 3137.00 L 1783.00 3138.00 L 1643.00 3138.00 L 1623.00 3139.00 L 1483.00 3139.00 L 1463.00 3140.00 L 1323.00 3140.00 L 1303.00 3141.00 L 1163.00 3141.00 L 1143.00 3142.00 L 1103.00 3142.00 L 1083.00 3162.00 L 1063.00 3142.00 L 1003.00 3142.00 L 983.00 3143.00 L 843.00 3143.00 L 823.00 3144.00 L 683.00 3144.00 L 663.00 3145.00 L 523.00 3145.00 L 503.00 3146.00 L 386.25 3146.00 L 402.00 3249.00 L 401.94 3253.00 L 423.00 3253.00 L 443.00 3273.00 L 463.00 3253.00 L 603.00 3253.00 L 623.00 3252.00 L 863.00 3252.00 L 883.00 3251.00 L 1123.00 3251.00 L 1143.00 3250.00 L 1383.00 3250.00 L 1403.00 3249.00 L 1563.00 3249.00 L 1583.00 3269.00 L 1603.00 3249.00 L 1643.00 3249.00 L 1663.00 3248.00 L 1903.00 3248.00 L 1923.00 3247.00 L 2163.00 3247.00 L 2183.00 3246.00 L 2423.00 3246.00 L 2443.00 3245.00 L 2467.92 3245.00 L 2457.00 3150.00 L 2459.66 3133.00 Z" />
<path id="csg562-047-22" fill="none" stroke="black" stroke-width="1" d="M 2443.00 3245.00 L 2423.00 3246.00 L 2183.00 3246.00 L 2163.00 3247.00 L 1923.00 3247.00 L 1903.00 3248.00 L 1663.00 3248.00 L 1643.00 3249.00 L 1603.00 3249.00 L 1583.00 3269.00 L 1563.00 3249.00 L 1403.00 3249.00 L 1383.00 3250.00 L 1143.00 3250.00 L 1123.00 3251.00 L 883.00 3251.00 L 863.00 3252.00 L 623.00 3252.00 L 603.00 3253.00 L 463.00 3253.00 L 443.00 3273.00 L 423.00 3253.00 L 401.94 3253.00 L 400.20 3375.00 L 503.00 3375.00 L 523.00 3374.00 L 663.00 3374.00 L 683.00 3373.00 L 823.00 3373.00 L 843.00 3372.00 L 983.00 3372.00 L 1003.00 3371.00 L 1143.00 3371.00 L 1163.00 3370.00 L 1303.00 3370.00 L 1323.00 3369.00 L 1463.00 3369.00 L 1483.00 3368.00 L 1603.00 3368.00 L 1623.00 3367.00 L 1763.00 3367.00 L 1783.00 3366.00 L 1923.00 3366.00 L 1943.00 3365.00 L 2083.00 3365.00 L 2103.00 3364.00 L 2243.00 3364.00 L 2263.00 3363.00 L 2403.00 3363.00 L 2423.00 3362.00 L 2481.37 3362.00 L 2467.92 3245.00 Z" />
<path id="csg562-047-23" fill="none" stroke="black" stroke-width="1" d="M 2423.00 3362.00 L 2403.00 3363.00 L 2263.00 3363.00 L 2243.00 3364.00 L 2103.00 3364.00 L 2083.00 3365.00 L 1943.00 3365.00 L 1923.00 3366.00 L 1783.00 3366.00 L 1763.00 3367.00 L 1623.00 3367.00 L 1603.00 3368.00 L 1483.00 3368.00 L 1463.00 3369.00 L 1323.00 3369.00 L 1303.00 3370.00 L 1163.00 3370.00 L 1143.00 3371.00 L 1003.00 3371.00 L 983.00 3372.00 L 843.00 3372.00 L 823.00 3373.00 L 683.00 3373.00 L 663.00 3374.00 L 523.00 3374.00 L 503.00 3375.00 L 400.20 3375.00 L 399.00 3459.00 L 646.50 3474.00 L 743.00 3474.00 L 763.00 3473.00 L 863.00 3473.00 L 883.00 3472.00 L 963.00 3472.00 L 983.00 3492.00 L 1003.00 3491.00 L 1023.00 3471.00 L 1123.00 3471.00 L 1143.00 3470.00 L 1243.00 3470.00 L 1263.00 3469.00 L 1275.55 3481.55 L 1333.20 3478.80 L 1343.00 3469.00 L 1363.00 3469.00 L 1383.00 3468.00 L 1503.00 3468.00 L 1523.00 3467.00 L 1563.00 3467.00 L 1581.30 3485.30 L 1584.57 3485.43 L 1603.00 3467.00 L 1623.00 3467.00 L 1643.00 3466.00 L 1743.00 3466.00 L 1763.00 3465.00 L 1883.00 3465.00 L 1903.00 3464.00 L 2003.00 3464.00 L 2023.00 3463.00 L 2103.00 3463.00 L 2123.00 3483.00 L 2143.00 3482.00 L 2163.00 3462.00 L 2263.00 3462.00 L 2283.00 3461.00 L 2303.00 3461.00 L 2319.86 3488.83 L 2330.89 3488.87 L 2343.00 3481.00 L 2363.00 3461.00 L 2383.00 3461.00 L 2403.00 3460.00 L 2409.73 3460.00 L 2487.00 3411.00 L 2481.37 3362.00 Z" />
</svg>
