<?xml version="1.0" standalone="no"?>
<!DOCTYPE svg PUBLIC "-//W3C//DTD SVG 1.1//EN" "http://www.w3.org/Graphics/SVG/1.1/DTD/svg11.dtd">
<svg width="46.22222in" height="69.333336in" viewBox="0 0 3328 4992" xmlns="http://www.w3.org/2000/svg" version="1.1">
<path id="csg562-012-01" fill="none" stroke="black" stroke-width="1" d="M 1149.00 825.00 L 927.00 852.00 L 922.06 945.00 L 1190.00 945.00 L 1210.00 944.00 L 1330.00 944.00 L 1350.00 964.00 L 1370.00 964.00 L 1390.00 944.00 L 1510.00 944.00 L 1530.00 943.00 L 1830.00 943.00 L 1850.00 942.00 L 2150.00 942.00 L 2170.00 941.00 L 2470.00 941.00 L 2490.00 940.00 L 2590.00 940.00 L 2610.00 960.00 L 2630.00 960.00 L 2650.00 940.00 L 2730.00 940.00 L 2750.00 960.00 L 2790.00 960.00 L 2810.00 939.00 L 2991.76 939.00 L 2991.00 861.00 L 2601.00 864.00 L 2421.00 837.00 L 1968.00 843.00 L 1671.00 843.00 L 1284.00 840.00 L 1149.00 825.00 Z" />
<path id="csg562-012-02" fill="none" stroke="black" stroke-width="1" d="M 2810.00 939.00 L 2790.00 960.00 L 2750.00 960.00 L 2730.00 940.00 L 2650.00 940.00 L 2630.00 960.00 L 2610.00 960.00 L 2590.00 940.00 L 2490.00 940.00 L 2470.00 941.00 L 2170.00 941.00 L 2150.00 942.00 L 1850.00 942.00 L 1830.00 943.00 L 1530.00 943.00 L 1510.00 944.00 L 1390.00 944.00 L 1370.00 964.00 L 1350.00 964.00 L 1330.00 944.00 L 1210.00 944.00 L 1190.00 945.00 L 922.06 945.00 L 915.69 1065.00 L 1130.00 1065.00 L 1150.00 1064.00 L 1410.00 1064.00 L 1430.00 1063.00 L 1670.00 1063.00 L 1690.00 1062.00 L 1850.00 1062.00 L 1870.00 1082.00 L 1890.00 1082.00 L 1910.00 1062.00 L 1950.00 1062.00 L 1970.00 1061.00 L 2030.00 1061.00 L 2050.00 1081.00 L 2070.00 1061.00 L 2210.00 1061.00 L 2230.00 1060.00 L 2330.00 1060.00 L 2350.00 1080.00 L 2390.00 1080.00 L 2410.00 1060.00 L 2490.00 1060.00 L 2510.00 1059.00 L 2750.00 1059.00 L 2770.00 1058.00 L 2992.93 1058.00 L 2991.76 939.00 Z" />
<path id="csg562-012-03" fill="none" stroke="black" stroke-width="1" d="M 2770.00 1058.00 L 2750.00 1059.00 L 2510.00 1059.00 L 2490.00 1060.00 L 2410.00 1060.00 L 2390.00 1080.00 L 2350.00 1080.00 L 2330.00 1060.00 L 2230.00 1060.00 L 2210.00 1061.00 L 2070.00 1061.00 L 2050.00 1081.00 L 2030.00 1061.00 L 1970.00 1061.00 L 1950.00 1062.00 L 1910.00 1062.00 L 1890.00 1082.00 L 1870.00 1082.00 L 1850.00 1062.00 L 1690.00 1062.00 L 1670.00 1063.00 L 1430.00 1063.00 L 1410.00 1064.00 L 1150.00 1064.00 L 1130.00 1065.00 L 915.69 1065.00 L 909.27 1186.00 L 1050.00 1186.00 L 1070.00 1185.00 L 1250.00 1185.00 L 1270.00 1184.00 L 1450.00 1184.00 L 1470.00 1183.00 L 1510.00 1183.00 L 1530.00 1203.00 L 1550.00 1183.00 L 1650.00 1183.00 L 1670.00 1182.00 L 1830.00 1182.00 L 1850.00 1181.00 L 2030.00 1181.00 L 2050.00 1180.00 L 2230.00 1180.00 L 2250.00 1179.00 L 2430.00 1179.00 L 2450.00 1178.00 L 2610.00 1178.00 L 2630.00 1177.00 L 2810.00 1177.00 L 2830.00 1176.00 L 2882.14 1176.00 L 2994.00 1167.00 L 2992.93 1058.00 Z" />
<path id="csg562-012-04" fill="none" stroke="black" stroke-width="1" d="M 2830.00 1176.00 L 2810.00 1177.00 L 2630.00 1177.00 L 2610.00 1178.00 L 2450.00 1178.00 L 2430.00 1179.00 L 2250.00 1179.00 L 2230.00 1180.00 L 2050.00 1180.00 L 2030.00 1181.00 L 1850.00 1181.00 L 1830.00 1182.00 L 1670.00 1182.00 L 1650.00 1183.00 L 1550.00 1183.00 L 1530.00 1203.00 L 1510.00 1183.00 L 1470.00 1183.00 L 1450.00 1184.00 L 1270.00 1184.00 L 1250.00 1185.00 L 1070.00 1185.00 L 1050.00 1186.00 L 909.27 1186.00 L 909.00 1191.00 L 907.52 1300.00 L 930.00 1300.00 L 950.00 1320.00 L 970.00 1300.00 L 1370.00 1300.00 L 1390.00 1299.00 L 1870.00 1299.00 L 1890.00 1298.00 L 1950.00 1298.00 L 1970.00 1318.00 L 1990.00 1298.00 L 2370.00 1298.00 L 2390.00 1297.00 L 2686.29 1297.00 L 2733.00 1188.00 L 2882.14 1176.00 Z" />
<path id="csg562-012-05" fill="none" stroke="black" stroke-width="1" d="M 2390.00 1297.00 L 2370.00 1298.00 L 1990.00 1298.00 L 1970.00 1318.00 L 1950.00 1298.00 L 1890.00 1298.00 L 1870.00 1299.00 L 1390.00 1299.00 L 1370.00 1300.00 L 970.00 1300.00 L 950.00 1320.00 L 930.00 1300.00 L 907.52 1300.00 L 906.03 1409.00 L 1150.00 1409.00 L 1170.00 1408.00 L 1450.00 1408.00 L 1470.00 1407.00 L 1750.00 1407.00 L 1770.00 1406.00 L 1970.00 1406.00 L 1990.00 1426.00 L 2010.00 1426.00 L 2030.00 1406.00 L 2050.00 1406.00 L 2070.00 1405.00 L 2330.00 1405.00 L 2350.00 1404.00 L 2630.00 1404.00 L 2650.00 1403.00 L 2930.00 1403.00 L 2950.00 1402.00 L 3070.03 1402.00 L 2925.00 1311.00 L 2679.00 1314.00 L 2686.29 1297.00 Z" />
<path id="csg562-012-06" fill="none" stroke="black" stroke-width="1" d="M 2950.00 1402.00 L 2930.00 1403.00 L 2650.00 1403.00 L 2630.00 1404.00 L 2350.00 1404.00 L 2330.00 1405.00 L 2070.00 1405.00 L 2050.00 1406.00 L 2030.00 1406.00 L 2010.00 1426.00 L 1990.00 1426.00 L 1970.00 1406.00 L 1770.00 1406.00 L 1750.00 1407.00 L 1470.00 1407.00 L 1450.00 1408.00 L 1170.00 1408.00 L 1150.00 1409.00 L 906.03 1409.00 L 904.61 1514.00 L 1070.00 1514.00 L 1090.00 1513.00 L 1290.00 1513.00 L 1310.00 1512.00 L 1510.00 1512.00 L 1530.00 1511.00 L 1730.00 1511.00 L 1750.00 1510.00 L 1950.00 1510.00 L 1970.00 1509.00 L 2170.00 1509.00 L 2190.00 1508.00 L 2310.00 1508.00 L 2330.00 1528.00 L 2350.00 1508.00 L 2370.00 1508.00 L 2390.00 1507.00 L 2530.00 1507.00 L 2550.00 1527.00 L 2570.00 1507.00 L 2590.00 1507.00 L 2610.00 1506.00 L 2770.00 1506.00 L 2790.00 1526.00 L 2810.00 1526.00 L 2830.00 1505.00 L 3010.00 1505.00 L 3030.00 1525.00 L 3050.00 1524.00 L 3070.00 1504.00 L 3095.41 1504.00 L 3078.00 1407.00 L 3070.03 1402.00 Z" />
<path id="csg562-012-07" fill="none" stroke="black" stroke-width="1" d="M 3070.00 1504.00 L 3050.00 1524.00 L 3030.00 1525.00 L 3010.00 1505.00 L 2830.00 1505.00 L 2810.00 1526.00 L 2790.00 1526.00 L 2770.00 1506.00 L 2610.00 1506.00 L 2590.00 1507.00 L 2570.00 1507.00 L 2550.00 1527.00 L 2530.00 1507.00 L 2390.00 1507.00 L 2370.00 1508.00 L 2350.00 1508.00 L 2330.00 1528.00 L 2310.00 1508.00 L 2190.00 1508.00 L 2170.00 1509.00 L 1970.00 1509.00 L 1950.00 1510.00 L 1750.00 1510.00 L 1730.00 1511.00 L 1530.00 1511.00 L 1510.00 1512.00 L 1310.00 1512.00 L 1290.00 1513.00 L 1090.00 1513.00 L 1070.00 1514.00 L 904.61 1514.00 L 903.08 1626.00 L 1070.00 1626.00 L 1090.00 1606.00 L 1110.00 1626.00 L 1430.00 1626.00 L 1450.00 1625.00 L 2010.00 1625.00 L 2030.00 1624.00 L 2590.00 1624.00 L 2610.00 1623.00 L 2630.00 1643.00 L 2650.00 1623.00 L 2750.00 1623.00 L 2770.00 1643.00 L 2790.00 1643.00 L 2810.00 1623.00 L 3056.26 1623.00 L 3057.00 1617.00 L 2961.00 1554.00 L 3099.00 1524.00 L 3095.41 1504.00 Z" />
<path id="csg562-012-08" fill="none" stroke="black" stroke-width="1" d="M 1090.00 1606.00 L 1070.00 1626.00 L 903.08 1626.00 L 903.00 1632.00 L 890.78 1745.00 L 1350.00 1745.00 L 1370.00 1746.00 L 1830.00 1746.00 L 1850.00 1747.00 L 2310.00 1747.00 L 2330.00 1748.00 L 2790.00 1748.00 L 2810.00 1749.00 L 3040.75 1749.00 L 3056.26 1623.00 L 2810.00 1623.00 L 2790.00 1643.00 L 2770.00 1643.00 L 2750.00 1623.00 L 2650.00 1623.00 L 2630.00 1643.00 L 2610.00 1623.00 L 2590.00 1624.00 L 2030.00 1624.00 L 2010.00 1625.00 L 1450.00 1625.00 L 1430.00 1626.00 L 1110.00 1626.00 L 1090.00 1606.00 Z" />
<path id="csg562-012-09" fill="none" stroke="black" stroke-width="1" d="M 890.78 1745.00 L 879.00 1854.00 L 878.76 1861.18 L 890.00 1855.00 L 2150.00 1855.00 L 2170.00 1875.00 L 2190.00 1855.00 L 2910.00 1855.00 L 2930.00 1875.00 L 2950.00 1855.00 L 2994.53 1855.00 L 3033.00 1812.00 L 3040.75 1749.00 L 2810.00 1749.00 L 2790.00 1748.00 L 2330.00 1748.00 L 2310.00 1747.00 L 1850.00 1747.00 L 1830.00 1746.00 L 1370.00 1746.00 L 1350.00 1745.00 Z" />
<path id="csg562-012-10" fill="none" stroke="black" stroke-width="1" d="M 890.00 1855.00 L 878.76 1861.18 L 875.37 1964.05 L 875.37 1964.05 L 890.00 1956.00 L 1330.00 1956.00 L 1350.00 1955.00 L 1810.00 1955.00 L 1830.00 1954.00 L 2290.00 1954.00 L 2310.00 1953.00 L 2770.00 1953.00 L 2790.00 1952.00 L 2991.33 1952.00 L 2982.00 1869.00 L 2994.53 1855.00 L 2950.00 1855.00 L 2930.00 1875.00 L 2910.00 1855.00 L 2190.00 1855.00 L 2170.00 1875.00 L 2150.00 1855.00 Z" />
<path id="csg562-012-11" fill="none" stroke="black" stroke-width="1" d="M 2790.00 1952.00 L 2770.00 1953.00 L 2310.00 1953.00 L 2290.00 1954.00 L 1830.00 1954.00 L 1810.00 1955.00 L 1350.00 1955.00 L 1330.00 1956.00 L 890.00 1956.00 L 875.37 1964.05 L 871.47 2082.26 L 890.00 2073.00 L 1370.00 2073.00 L 1390.00 2074.00 L 1890.00 2074.00 L 1910.00 2075.00 L 2050.00 2075.00 L 2070.00 2095.00 L 2090.00 2075.00 L 2410.00 2075.00 L 2430.00 2076.00 L 2930.00 2076.00 L 2950.00 2077.00 L 3005.37 2077.00 L 2991.33 1952.00 Z" />
<path id="csg562-012-12" fill="none" stroke="black" stroke-width="1" d="M 890.00 2073.00 L 871.47 2082.26 L 870.00 2127.00 L 902.24 2182.00 L 1350.00 2182.00 L 1370.00 2202.00 L 1390.00 2202.00 L 1410.00 2182.00 L 1670.00 2182.00 L 1690.00 2162.00 L 1710.00 2162.00 L 1730.00 2163.00 L 1750.00 2163.00 L 1770.00 2183.00 L 2550.00 2183.00 L 2570.00 2184.00 L 2670.00 2184.00 L 2690.00 2164.00 L 2710.00 2184.00 L 2999.45 2184.00 L 3012.00 2136.00 L 3005.37 2077.00 L 2950.00 2077.00 L 2930.00 2076.00 L 2430.00 2076.00 L 2410.00 2075.00 L 2090.00 2075.00 L 2070.00 2095.00 L 2050.00 2075.00 L 1910.00 2075.00 L 1890.00 2074.00 L 1390.00 2074.00 L 1370.00 2073.00 Z" />
<path id="csg562-012-13" fill="none" stroke="black" stroke-width="1" d="M 1690.00 2162.00 L 1670.00 2182.00 L 1410.00 2182.00 L 1390.00 2202.00 L 1370.00 2202.00 L 1350.00 2182.00 L 902.24 2182.00 L 921.00 2214.00 L 914.85 2287.85 L 930.00 2303.00 L 950.00 2303.00 L 970.00 2283.00 L 1970.00 2283.00 L 1990.00 2263.00 L 2030.00 2263.00 L 2050.00 2283.00 L 2230.00 2283.00 L 2250.00 2284.00 L 2890.00 2284.00 L 2910.00 2304.00 L 2930.00 2304.00 L 2950.00 2284.00 L 2973.32 2284.00 L 2999.45 2184.00 L 2710.00 2184.00 L 2690.00 2164.00 L 2670.00 2184.00 L 2570.00 2184.00 L 2550.00 2183.00 L 1770.00 2183.00 L 1750.00 2163.00 L 1730.00 2163.00 L 1710.00 2162.00 Z" />
<path id="csg562-012-14" fill="none" stroke="black" stroke-width="1" d="M 1990.00 2263.00 L 1970.00 2283.00 L 970.00 2283.00 L 950.00 2303.00 L 930.00 2303.00 L 914.85 2287.85 L 905.58 2399.00 L 1970.00 2399.00 L 1990.00 2400.00 L 2850.00 2400.00 L 2870.00 2420.00 L 2890.00 2400.00 L 2943.00 2400.00 L 2973.32 2284.00 L 2950.00 2284.00 L 2930.00 2304.00 L 2910.00 2304.00 L 2890.00 2284.00 L 2250.00 2284.00 L 2230.00 2283.00 L 2050.00 2283.00 L 2030.00 2263.00 Z" />
<path id="csg562-012-15" fill="none" stroke="black" stroke-width="1" d="M 905.58 2399.00 L 903.00 2430.00 L 903.00 2505.00 L 1370.00 2505.00 L 1390.00 2485.00 L 1410.00 2505.00 L 1490.00 2505.00 L 1510.00 2504.00 L 2130.00 2504.00 L 2150.00 2503.00 L 2770.00 2503.00 L 2790.00 2502.00 L 2949.58 2502.00 L 2943.00 2400.00 L 2890.00 2400.00 L 2870.00 2420.00 L 2850.00 2400.00 L 1990.00 2400.00 L 1970.00 2399.00 Z" />
<path id="csg562-012-16" fill="none" stroke="black" stroke-width="1" d="M 1390.00 2485.00 L 1370.00 2505.00 L 903.00 2505.00 L 903.00 2621.00 L 910.00 2621.00 L 930.00 2641.00 L 950.00 2621.00 L 2190.00 2621.00 L 2210.00 2601.00 L 2250.00 2601.00 L 2270.00 2621.00 L 2290.00 2622.00 L 2957.32 2622.00 L 2949.58 2502.00 L 2790.00 2502.00 L 2770.00 2503.00 L 2150.00 2503.00 L 2130.00 2504.00 L 1510.00 2504.00 L 1490.00 2505.00 L 1410.00 2505.00 L 1390.00 2485.00 Z" />
<path id="csg562-012-17" fill="none" stroke="black" stroke-width="1" d="M 2210.00 2601.00 L 2190.00 2621.00 L 950.00 2621.00 L 930.00 2641.00 L 910.00 2621.00 L 903.00 2621.00 L 903.00 2731.00 L 1270.00 2731.00 L 1290.00 2732.00 L 1690.00 2732.00 L 1710.00 2733.00 L 2090.00 2733.00 L 2110.00 2734.00 L 2510.00 2734.00 L 2530.00 2735.00 L 2770.00 2735.00 L 2790.00 2755.00 L 2810.00 2735.00 L 2910.00 2735.00 L 2930.00 2736.00 L 2939.21 2736.00 L 2961.00 2679.00 L 2957.32 2622.00 L 2290.00 2622.00 L 2270.00 2621.00 L 2250.00 2601.00 Z" />
<path id="csg562-012-18" fill="none" stroke="black" stroke-width="1" d="M 903.00 2731.00 L 903.00 2760.00 L 901.07 2844.00 L 1250.00 2844.00 L 1270.00 2843.00 L 1390.00 2843.00 L 1410.00 2863.00 L 1430.00 2863.00 L 1450.00 2843.00 L 1650.00 2843.00 L 1670.00 2842.00 L 1890.00 2842.00 L 1910.00 2862.00 L 1930.00 2842.00 L 2030.00 2842.00 L 2050.00 2841.00 L 2430.00 2841.00 L 2450.00 2840.00 L 2810.00 2840.00 L 2830.00 2839.00 L 2953.23 2839.00 L 2922.00 2781.00 L 2939.21 2736.00 L 2930.00 2736.00 L 2910.00 2735.00 L 2810.00 2735.00 L 2790.00 2755.00 L 2770.00 2735.00 L 2530.00 2735.00 L 2510.00 2734.00 L 2110.00 2734.00 L 2090.00 2733.00 L 1710.00 2733.00 L 1690.00 2732.00 L 1290.00 2732.00 L 1270.00 2731.00 Z" />
<path id="csg562-012-19" fill="none" stroke="black" stroke-width="1" d="M 2830.00 2839.00 L 2810.00 2840.00 L 2450.00 2840.00 L 2430.00 2841.00 L 2050.00 2841.00 L 2030.00 2842.00 L 1930.00 2842.00 L 1910.00 2862.00 L 1890.00 2842.00 L 1670.00 2842.00 L 1650.00 2843.00 L 1450.00 2843.00 L 1430.00 2863.00 L 1410.00 2863.00 L 1390.00 2843.00 L 1270.00 2843.00 L 1250.00 2844.00 L 901.07 2844.00 L 898.54 2954.00 L 1690.00 2954.00 L 1710.00 2974.00 L 1730.00 2974.00 L 1750.00 2954.00 L 2330.00 2954.00 L 2350.00 2953.00 L 2530.00 2953.00 L 2550.00 2973.00 L 2570.00 2953.00 L 3014.62 2953.00 L 2953.23 2839.00 Z" />
<path id="csg562-012-20" fill="none" stroke="black" stroke-width="1" d="M 2350.00 2953.00 L 2330.00 2954.00 L 1750.00 2954.00 L 1730.00 2974.00 L 1710.00 2974.00 L 1690.00 2954.00 L 898.54 2954.00 L 897.00 3021.00 L 894.87 3067.00 L 1530.00 3067.00 L 1550.00 3087.00 L 1570.00 3067.00 L 2050.00 3067.00 L 2070.00 3047.00 L 2130.00 3047.00 L 2150.00 3067.00 L 2990.00 3067.00 L 3048.00 3015.00 L 3014.62 2953.00 L 2570.00 2953.00 L 2550.00 2973.00 L 2530.00 2953.00 Z" />
<path id="csg562-012-21" fill="none" stroke="black" stroke-width="1" d="M 2070.00 3047.00 L 2050.00 3067.00 L 1570.00 3067.00 L 1550.00 3087.00 L 1530.00 3067.00 L 894.87 3067.00 L 890.14 3169.00 L 1350.00 3169.00 L 1370.00 3168.00 L 1830.00 3168.00 L 1850.00 3167.00 L 1970.00 3167.00 L 1990.00 3187.00 L 2010.00 3167.00 L 2310.00 3167.00 L 2330.00 3166.00 L 2810.00 3166.00 L 2830.00 3165.00 L 2964.91 3165.00 L 2961.00 3093.00 L 2990.00 3067.00 L 2150.00 3067.00 L 2130.00 3047.00 Z" />
<path id="csg562-012-22" fill="none" stroke="black" stroke-width="1" d="M 2830.00 3165.00 L 2810.00 3166.00 L 2330.00 3166.00 L 2310.00 3167.00 L 2010.00 3167.00 L 1990.00 3187.00 L 1970.00 3167.00 L 1850.00 3167.00 L 1830.00 3168.00 L 1370.00 3168.00 L 1350.00 3169.00 L 890.14 3169.00 L 884.53 3290.01 L 890.00 3287.00 L 910.00 3287.00 L 930.00 3307.00 L 950.00 3287.00 L 1410.00 3287.00 L 1430.00 3286.00 L 1970.00 3286.00 L 1990.00 3285.00 L 2070.00 3285.00 L 2090.00 3305.00 L 2110.00 3285.00 L 2430.00 3285.00 L 2450.00 3305.00 L 2470.00 3305.00 L 2490.00 3285.00 L 2510.00 3305.00 L 2530.00 3305.00 L 2550.00 3284.00 L 2971.38 3284.00 L 2964.91 3165.00 Z" />
<path id="csg562-012-23" fill="none" stroke="black" stroke-width="1" d="M 2550.00 3284.00 L 2530.00 3305.00 L 2510.00 3305.00 L 2490.00 3285.00 L 2470.00 3305.00 L 2450.00 3305.00 L 2430.00 3285.00 L 2110.00 3285.00 L 2090.00 3305.00 L 2070.00 3285.00 L 1990.00 3285.00 L 1970.00 3286.00 L 1430.00 3286.00 L 1410.00 3287.00 L 950.00 3287.00 L 930.00 3307.00 L 910.00 3287.00 L 890.00 3287.00 L 884.53 3290.01 L 879.06 3408.02 L 890.00 3402.00 L 1170.00 3402.00 L 1190.00 3401.00 L 1490.00 3401.00 L 1510.00 3400.00 L 1810.00 3400.00 L 1830.00 3399.00 L 2130.00 3399.00 L 2150.00 3398.00 L 2450.00 3398.00 L 2470.00 3397.00 L 2487.89 3397.00 L 2547.00 3393.00 L 2600.14 3397.00 L 2770.00 3397.00 L 2790.00 3396.00 L 2806.53 3412.53 L 2826.00 3414.00 L 2834.57 3411.43 L 2850.00 3396.00 L 2886.00 3396.00 L 2976.00 3369.00 L 2971.38 3284.00 Z" />
<path id="csg562-012-24" fill="none" stroke="black" stroke-width="1" d="M 2470.00 3397.00 L 2450.00 3398.00 L 2150.00 3398.00 L 2130.00 3399.00 L 1830.00 3399.00 L 1810.00 3400.00 L 1510.00 3400.00 L 1490.00 3401.00 L 1190.00 3401.00 L 1170.00 3402.00 L 890.00 3402.00 L 879.06 3408.02 L 876.00 3474.00 L 942.00 3501.00 L 1275.00 3516.00 L 1309.40 3517.00 L 1450.00 3517.00 L 1470.00 3516.00 L 1650.00 3516.00 L 1670.00 3515.00 L 1830.00 3515.00 L 1850.00 3514.00 L 2030.00 3514.00 L 2050.00 3513.00 L 2086.71 3513.00 L 2136.00 3510.00 L 2148.00 3420.00 L 2487.89 3397.00 Z" />
</svg>
