<?xml version="1.0" standalone="no"?>
<!DOCTYPE svg PUBLIC "-//W3C//DTD SVG 1.1//EN" "http://www.w3.org/Graphics/SVG/1.1/DTD/svg11.dtd">
<svg width="46.22222in" height="69.333336in" viewBox="0 0 3328 4992" xmlns="http://www.w3.org/2000/svg" version="1.1">
<path id="csg562-038-01" fill="none" stroke="black" stroke-width="1" d="M 875.00 832.00 L 857.91 857.64 L 866.61 964.20 L 875.00 960.00 L 1015.00 960.00 L 1035.00 961.00 L 1095.00 961.00 L 1115.00 941.00 L 1135.00 961.00 L 1175.00 961.00 L 1195.00 962.00 L 1355.00 962.00 L 1375.00 963.00 L 1515.00 963.00 L 1535.00 964.00 L 1675.00 964.00 L 1695.00 965.00 L 1855.00 965.00 L 1875.00 966.00 L 2015.00 966.00 L 2035.00 967.00 L 2195.00 967.00 L 2215.00 968.00 L 2355.00 968.00 L 2375.00 969.00 L 2515.00 969.00 L 2535.00 970.00 L 2695.00 970.00 L 2715.00 971.00 L 2795.00 971.00 L 2815.00 991.00 L 2835.00 971.00 L 2855.00 971.00 L 2875.00 972.00 L 2982.50 972.00 L 2994.00 903.00 L 2877.08 865.00 L 2835.00 865.00 L 2834.22 864.96 L 2253.00 879.00 L 2198.38 860.00 L 2100.43 860.00 L 1833.00 876.00 L 1224.00 867.00 L 1147.00 853.00 L 1015.00 853.00 L 995.00 852.00 L 935.00 852.00 L 915.00 832.00 Z" />
<path id="csg562-038-02" fill="none" stroke="black" stroke-width="1" d="M 1115.00 941.00 L 1095.00 961.00 L 1035.00 961.00 L 1015.00 960.00 L 875.00 960.00 L 866.61 964.20 L 875.98 1079.00 L 1055.00 1079.00 L 1075.00 1080.00 L 1275.00 1080.00 L 1295.00 1081.00 L 1475.00 1081.00 L 1495.00 1082.00 L 1695.00 1082.00 L 1715.00 1083.00 L 1915.00 1083.00 L 1935.00 1084.00 L 2115.00 1084.00 L 2135.00 1085.00 L 2335.00 1085.00 L 2355.00 1086.00 L 2555.00 1086.00 L 2575.00 1087.00 L 2695.00 1087.00 L 2715.00 1067.00 L 2735.00 1087.00 L 2755.00 1087.00 L 2775.00 1088.00 L 2963.17 1088.00 L 2982.50 972.00 L 2875.00 972.00 L 2855.00 971.00 L 2835.00 971.00 L 2815.00 991.00 L 2795.00 971.00 L 2715.00 971.00 L 2695.00 970.00 L 2535.00 970.00 L 2515.00 969.00 L 2375.00 969.00 L 2355.00 968.00 L 2215.00 968.00 L 2195.00 967.00 L 2035.00 967.00 L 2015.00 966.00 L 1875.00 966.00 L 1855.00 965.00 L 1695.00 965.00 L 1675.00 964.00 L 1535.00 964.00 L 1515.00 963.00 L 1375.00 963.00 L 1355.00 962.00 L 1195.00 962.00 L 1175.00 961.00 L 1135.00 961.00 L 1115.00 941.00 Z" />
<path id="csg562-038-03" fill="none" stroke="black" stroke-width="1" d="M 2715.00 1067.00 L 2695.00 1087.00 L 2575.00 1087.00 L 2555.00 1086.00 L 2355.00 1086.00 L 2335.00 1085.00 L 2135.00 1085.00 L 2115.00 1084.00 L 1935.00 1084.00 L 1915.00 1083.00 L 1715.00 1083.00 L 1695.00 1082.00 L 1495.00 1082.00 L 1475.00 1081.00 L 1295.00 1081.00 L 1275.00 1080.00 L 1075.00 1080.00 L 1055.00 1079.00 L 875.98 1079.00 L 884.88 1188.00 L 1155.00 1188.00 L 1175.00 1189.00 L 1455.00 1189.00 L 1475.00 1190.00 L 1755.00 1190.00 L 1775.00 1191.00 L 1975.00 1191.00 L 1995.00 1211.00 L 2015.00 1211.00 L 2035.00 1191.00 L 2055.00 1191.00 L 2075.00 1192.00 L 2195.00 1192.00 L 2215.00 1212.00 L 2235.00 1192.00 L 2355.00 1192.00 L 2375.00 1193.00 L 2675.00 1193.00 L 2695.00 1194.00 L 2775.00 1194.00 L 2795.00 1214.00 L 2815.00 1194.00 L 2975.00 1194.00 L 2982.08 1194.35 L 2961.00 1101.00 L 2963.17 1088.00 L 2775.00 1088.00 L 2755.00 1087.00 L 2735.00 1087.00 L 2715.00 1067.00 Z" />
<path id="csg562-038-04" fill="none" stroke="black" stroke-width="1" d="M 884.88 1188.00 L 893.53 1294.00 L 995.00 1294.00 L 1015.00 1295.00 L 1155.00 1295.00 L 1175.00 1296.00 L 1295.00 1296.00 L 1315.00 1297.00 L 1455.00 1297.00 L 1475.00 1298.00 L 1595.00 1298.00 L 1615.00 1299.00 L 1755.00 1299.00 L 1775.00 1300.00 L 1915.00 1300.00 L 1935.00 1301.00 L 2055.00 1301.00 L 2075.00 1302.00 L 2195.00 1302.00 L 2215.00 1322.00 L 2235.00 1303.00 L 2355.00 1303.00 L 2375.00 1304.00 L 2515.00 1304.00 L 2535.00 1305.00 L 2655.00 1305.00 L 2675.00 1306.00 L 2815.00 1306.00 L 2835.00 1307.00 L 2961.82 1307.00 L 3003.00 1287.00 L 2982.08 1194.35 L 2975.00 1194.00 L 2815.00 1194.00 L 2795.00 1214.00 L 2775.00 1194.00 L 2695.00 1194.00 L 2675.00 1193.00 L 2375.00 1193.00 L 2355.00 1192.00 L 2235.00 1192.00 L 2215.00 1212.00 L 2195.00 1192.00 L 2075.00 1192.00 L 2055.00 1191.00 L 2035.00 1191.00 L 2015.00 1211.00 L 1995.00 1211.00 L 1975.00 1191.00 L 1775.00 1191.00 L 1755.00 1190.00 L 1475.00 1190.00 L 1455.00 1189.00 L 1175.00 1189.00 L 1155.00 1188.00 Z" />
<path id="csg562-038-05" fill="none" stroke="black" stroke-width="1" d="M 893.53 1294.00 L 902.51 1404.00 L 1115.00 1404.00 L 1135.00 1405.00 L 1395.00 1405.00 L 1415.00 1406.00 L 1675.00 1406.00 L 1695.00 1407.00 L 1935.00 1407.00 L 1955.00 1408.00 L 2075.00 1408.00 L 2095.00 1428.00 L 2115.00 1428.00 L 2135.00 1408.00 L 2215.00 1408.00 L 2235.00 1409.00 L 2495.00 1409.00 L 2515.00 1410.00 L 2755.00 1410.00 L 2775.00 1411.00 L 2932.25 1411.00 L 2898.00 1338.00 L 2961.82 1307.00 L 2835.00 1307.00 L 2815.00 1306.00 L 2675.00 1306.00 L 2655.00 1305.00 L 2535.00 1305.00 L 2515.00 1304.00 L 2375.00 1304.00 L 2355.00 1303.00 L 2235.00 1303.00 L 2215.00 1322.00 L 2195.00 1302.00 L 2075.00 1302.00 L 2055.00 1301.00 L 1935.00 1301.00 L 1915.00 1300.00 L 1775.00 1300.00 L 1755.00 1299.00 L 1615.00 1299.00 L 1595.00 1298.00 L 1475.00 1298.00 L 1455.00 1297.00 L 1315.00 1297.00 L 1295.00 1296.00 L 1175.00 1296.00 L 1155.00 1295.00 L 1015.00 1295.00 L 995.00 1294.00 Z" />
<path id="csg562-038-06" fill="none" stroke="black" stroke-width="1" d="M 902.51 1404.00 L 903.00 1410.00 L 886.14 1521.00 L 1835.00 1521.00 L 1855.00 1541.00 L 1875.00 1521.00 L 2115.00 1521.00 L 2135.00 1541.00 L 2155.00 1541.00 L 2175.00 1521.00 L 2735.00 1521.00 L 2755.00 1520.00 L 2983.38 1520.00 L 2932.25 1411.00 L 2775.00 1411.00 L 2755.00 1410.00 L 2515.00 1410.00 L 2495.00 1409.00 L 2235.00 1409.00 L 2215.00 1408.00 L 2135.00 1408.00 L 2115.00 1428.00 L 2095.00 1428.00 L 2075.00 1408.00 L 1955.00 1408.00 L 1935.00 1407.00 L 1695.00 1407.00 L 1675.00 1406.00 L 1415.00 1406.00 L 1395.00 1405.00 L 1135.00 1405.00 L 1115.00 1404.00 Z" />
<path id="csg562-038-07" fill="none" stroke="black" stroke-width="1" d="M 2755.00 1520.00 L 2735.00 1521.00 L 2175.00 1521.00 L 2155.00 1541.00 L 2135.00 1541.00 L 2115.00 1521.00 L 1875.00 1521.00 L 1855.00 1541.00 L 1835.00 1521.00 L 886.14 1521.00 L 868.64 1636.18 L 875.00 1633.00 L 1355.00 1633.00 L 1375.00 1634.00 L 1855.00 1634.00 L 1875.00 1635.00 L 2355.00 1635.00 L 2375.00 1636.00 L 2435.00 1636.00 L 2455.00 1616.00 L 2475.00 1636.00 L 2875.00 1636.00 L 2895.00 1637.00 L 2978.75 1637.00 L 3012.00 1581.00 L 2983.38 1520.00 Z" />
<path id="csg562-038-08" fill="none" stroke="black" stroke-width="1" d="M 2455.00 1616.00 L 2435.00 1636.00 L 2375.00 1636.00 L 2355.00 1635.00 L 1875.00 1635.00 L 1855.00 1634.00 L 1375.00 1634.00 L 1355.00 1633.00 L 875.00 1633.00 L 868.64 1636.18 L 867.00 1647.00 L 872.53 1754.23 L 875.00 1753.00 L 1315.00 1753.00 L 1335.00 1754.00 L 1775.00 1754.00 L 1795.00 1755.00 L 2235.00 1755.00 L 2255.00 1756.00 L 2715.00 1756.00 L 2735.00 1757.00 L 2972.65 1757.00 L 2955.00 1677.00 L 2978.75 1637.00 L 2895.00 1637.00 L 2875.00 1636.00 L 2475.00 1636.00 L 2455.00 1616.00 Z" />
<path id="csg562-038-09" fill="none" stroke="black" stroke-width="1" d="M 875.00 1753.00 L 872.53 1754.23 L 877.89 1858.00 L 1355.00 1858.00 L 1375.00 1859.00 L 1855.00 1859.00 L 1875.00 1860.00 L 2355.00 1860.00 L 2375.00 1861.00 L 2875.00 1861.00 L 2895.00 1862.00 L 2995.81 1862.00 L 2972.65 1757.00 L 2735.00 1757.00 L 2715.00 1756.00 L 2255.00 1756.00 L 2235.00 1755.00 L 1795.00 1755.00 L 1775.00 1754.00 L 1335.00 1754.00 L 1315.00 1753.00 Z" />
<path id="csg562-038-10" fill="none" stroke="black" stroke-width="1" d="M 877.89 1858.00 L 883.67 1970.00 L 1095.00 1970.00 L 1115.00 1971.00 L 1355.00 1971.00 L 1375.00 1972.00 L 1595.00 1972.00 L 1615.00 1973.00 L 1855.00 1973.00 L 1875.00 1974.00 L 2115.00 1974.00 L 2135.00 1975.00 L 2355.00 1975.00 L 2375.00 1976.00 L 2615.00 1976.00 L 2635.00 1977.00 L 2875.00 1977.00 L 2895.00 1978.00 L 3007.63 1978.00 L 3000.00 1881.00 L 2995.81 1862.00 L 2895.00 1862.00 L 2875.00 1861.00 L 2375.00 1861.00 L 2355.00 1860.00 L 1875.00 1860.00 L 1855.00 1859.00 L 1375.00 1859.00 L 1355.00 1858.00 Z" />
<path id="csg562-038-11" fill="none" stroke="black" stroke-width="1" d="M 883.67 1970.00 L 889.09 2075.00 L 1215.00 2075.00 L 1235.00 2076.00 L 1595.00 2076.00 L 1615.00 2077.00 L 1975.00 2077.00 L 1995.00 2078.00 L 2355.00 2078.00 L 2375.00 2079.00 L 2735.00 2079.00 L 2755.00 2080.00 L 3015.65 2080.00 L 3007.63 1978.00 L 2895.00 1978.00 L 2875.00 1977.00 L 2635.00 1977.00 L 2615.00 1976.00 L 2375.00 1976.00 L 2355.00 1975.00 L 2135.00 1975.00 L 2115.00 1974.00 L 1875.00 1974.00 L 1855.00 1973.00 L 1615.00 1973.00 L 1595.00 1972.00 L 1375.00 1972.00 L 1355.00 1971.00 L 1115.00 1971.00 L 1095.00 1970.00 Z" />
<path id="csg562-038-12" fill="none" stroke="black" stroke-width="1" d="M 889.09 2075.00 L 891.00 2112.00 L 891.31 2197.00 L 2475.00 2197.00 L 2495.00 2198.00 L 2993.22 2198.00 L 3021.00 2148.00 L 3015.65 2080.00 L 2755.00 2080.00 L 2735.00 2079.00 L 2375.00 2079.00 L 2355.00 2078.00 L 1995.00 2078.00 L 1975.00 2077.00 L 1615.00 2077.00 L 1595.00 2076.00 L 1235.00 2076.00 L 1215.00 2075.00 Z" />
<path id="csg562-038-13" fill="none" stroke="black" stroke-width="1" d="M 891.31 2197.00 L 891.70 2307.00 L 1455.00 2307.00 L 1475.00 2327.00 L 1495.00 2307.00 L 2435.00 2307.00 L 2455.00 2308.00 L 2515.00 2308.00 L 2535.00 2328.00 L 2555.00 2308.00 L 2932.11 2308.00 L 2993.22 2198.00 L 2495.00 2198.00 L 2475.00 2197.00 Z" />
<path id="csg562-038-14" fill="none" stroke="black" stroke-width="1" d="M 891.70 2307.00 L 892.10 2416.00 L 1095.00 2416.00 L 1115.00 2417.00 L 1335.00 2417.00 L 1355.00 2418.00 L 1575.00 2418.00 L 1595.00 2419.00 L 1815.00 2419.00 L 1835.00 2420.00 L 2055.00 2420.00 L 2075.00 2421.00 L 2295.00 2421.00 L 2315.00 2422.00 L 2535.00 2422.00 L 2555.00 2423.00 L 2775.00 2423.00 L 2795.00 2424.00 L 2950.58 2424.00 L 2916.00 2337.00 L 2932.11 2308.00 L 2555.00 2308.00 L 2535.00 2328.00 L 2515.00 2308.00 L 2455.00 2308.00 L 2435.00 2307.00 L 1495.00 2307.00 L 1475.00 2327.00 L 1455.00 2307.00 Z" />
<path id="csg562-038-15" fill="none" stroke="black" stroke-width="1" d="M 892.10 2416.00 L 892.51 2529.00 L 955.00 2529.00 L 975.00 2530.00 L 1075.00 2530.00 L 1095.00 2531.00 L 1195.00 2531.00 L 1215.00 2532.00 L 1315.00 2532.00 L 1335.00 2533.00 L 1435.00 2533.00 L 1455.00 2534.00 L 1555.00 2534.00 L 1575.00 2535.00 L 1675.00 2535.00 L 1695.00 2536.00 L 1795.00 2536.00 L 1815.00 2537.00 L 1915.00 2537.00 L 1935.00 2538.00 L 2035.00 2538.00 L 2055.00 2539.00 L 2155.00 2539.00 L 2175.00 2540.00 L 2275.00 2540.00 L 2295.00 2541.00 L 2395.00 2541.00 L 2415.00 2542.00 L 2515.00 2542.00 L 2535.00 2543.00 L 2635.00 2543.00 L 2655.00 2544.00 L 2755.00 2544.00 L 2775.00 2545.00 L 2875.00 2545.00 L 2895.00 2546.00 L 2995.00 2546.00 L 2999.15 2546.21 L 2950.58 2424.00 L 2795.00 2424.00 L 2775.00 2423.00 L 2555.00 2423.00 L 2535.00 2422.00 L 2315.00 2422.00 L 2295.00 2421.00 L 2075.00 2421.00 L 2055.00 2420.00 L 1835.00 2420.00 L 1815.00 2419.00 L 1595.00 2419.00 L 1575.00 2418.00 L 1355.00 2418.00 L 1335.00 2417.00 L 1115.00 2417.00 L 1095.00 2416.00 Z" />
<path id="csg562-038-16" fill="none" stroke="black" stroke-width="1" d="M 892.51 2529.00 L 892.88 2634.00 L 1015.00 2634.00 L 1035.00 2635.00 L 1175.00 2635.00 L 1195.00 2636.00 L 1335.00 2636.00 L 1355.00 2637.00 L 1495.00 2637.00 L 1515.00 2638.00 L 1655.00 2638.00 L 1675.00 2639.00 L 1815.00 2639.00 L 1835.00 2640.00 L 1975.00 2640.00 L 1995.00 2641.00 L 2135.00 2641.00 L 2155.00 2642.00 L 2295.00 2642.00 L 2315.00 2643.00 L 2455.00 2643.00 L 2475.00 2644.00 L 2615.00 2644.00 L 2635.00 2645.00 L 2775.00 2645.00 L 2795.00 2646.00 L 2935.00 2646.00 L 2955.00 2647.00 L 3015.23 2647.00 L 3009.00 2571.00 L 2999.15 2546.21 L 2995.00 2546.00 L 2895.00 2546.00 L 2875.00 2545.00 L 2775.00 2545.00 L 2755.00 2544.00 L 2655.00 2544.00 L 2635.00 2543.00 L 2535.00 2543.00 L 2515.00 2542.00 L 2415.00 2542.00 L 2395.00 2541.00 L 2295.00 2541.00 L 2275.00 2540.00 L 2175.00 2540.00 L 2155.00 2539.00 L 2055.00 2539.00 L 2035.00 2538.00 L 1935.00 2538.00 L 1915.00 2537.00 L 1815.00 2537.00 L 1795.00 2536.00 L 1695.00 2536.00 L 1675.00 2535.00 L 1575.00 2535.00 L 1555.00 2534.00 L 1455.00 2534.00 L 1435.00 2533.00 L 1335.00 2533.00 L 1315.00 2532.00 L 1215.00 2532.00 L 1195.00 2531.00 L 1095.00 2531.00 L 1075.00 2530.00 L 975.00 2530.00 L 955.00 2529.00 Z" />
<path id="csg562-038-17" fill="none" stroke="black" stroke-width="1" d="M 892.88 2634.00 L 893.29 2745.00 L 955.00 2745.00 L 975.00 2746.00 L 1055.00 2746.00 L 1075.00 2747.00 L 1175.00 2747.00 L 1195.00 2748.00 L 1275.00 2748.00 L 1295.00 2749.00 L 1395.00 2749.00 L 1415.00 2750.00 L 1495.00 2750.00 L 1515.00 2751.00 L 1595.00 2751.00 L 1615.00 2752.00 L 1715.00 2752.00 L 1735.00 2753.00 L 1815.00 2753.00 L 1835.00 2754.00 L 1935.00 2754.00 L 1955.00 2755.00 L 2035.00 2755.00 L 2055.00 2756.00 L 2155.00 2756.00 L 2175.00 2757.00 L 2255.00 2757.00 L 2275.00 2758.00 L 2355.00 2758.00 L 2375.00 2759.00 L 2475.00 2759.00 L 2495.00 2760.00 L 2575.00 2760.00 L 2595.00 2761.00 L 2695.00 2761.00 L 2715.00 2762.00 L 2795.00 2762.00 L 2815.00 2763.00 L 2915.00 2763.00 L 2935.00 2764.00 L 3015.00 2764.00 L 3022.37 2764.82 L 3024.00 2754.00 L 3015.23 2647.00 L 2955.00 2647.00 L 2935.00 2646.00 L 2795.00 2646.00 L 2775.00 2645.00 L 2635.00 2645.00 L 2615.00 2644.00 L 2475.00 2644.00 L 2455.00 2643.00 L 2315.00 2643.00 L 2295.00 2642.00 L 2155.00 2642.00 L 2135.00 2641.00 L 1995.00 2641.00 L 1975.00 2640.00 L 1835.00 2640.00 L 1815.00 2639.00 L 1675.00 2639.00 L 1655.00 2638.00 L 1515.00 2638.00 L 1495.00 2637.00 L 1355.00 2637.00 L 1335.00 2636.00 L 1195.00 2636.00 L 1175.00 2635.00 L 1035.00 2635.00 L 1015.00 2634.00 Z" />
<path id="csg562-038-18" fill="none" stroke="black" stroke-width="1" d="M 893.29 2745.00 L 893.73 2868.00 L 1035.00 2868.00 L 1055.00 2869.00 L 1215.00 2869.00 L 1235.00 2870.00 L 1395.00 2870.00 L 1415.00 2871.00 L 1595.00 2871.00 L 1615.00 2872.00 L 1775.00 2872.00 L 1795.00 2873.00 L 1955.00 2873.00 L 1975.00 2874.00 L 1995.00 2874.00 L 2015.00 2854.00 L 2055.00 2854.00 L 2075.00 2874.00 L 2155.00 2874.00 L 2175.00 2875.00 L 2335.00 2875.00 L 2355.00 2876.00 L 2515.00 2876.00 L 2535.00 2877.00 L 2695.00 2877.00 L 2715.00 2878.00 L 2895.00 2878.00 L 2915.00 2879.00 L 3005.13 2879.00 L 3022.37 2764.82 L 3015.00 2764.00 L 2935.00 2764.00 L 2915.00 2763.00 L 2815.00 2763.00 L 2795.00 2762.00 L 2715.00 2762.00 L 2695.00 2761.00 L 2595.00 2761.00 L 2575.00 2760.00 L 2495.00 2760.00 L 2475.00 2759.00 L 2375.00 2759.00 L 2355.00 2758.00 L 2275.00 2758.00 L 2255.00 2757.00 L 2175.00 2757.00 L 2155.00 2756.00 L 2055.00 2756.00 L 2035.00 2755.00 L 1955.00 2755.00 L 1935.00 2754.00 L 1835.00 2754.00 L 1815.00 2753.00 L 1735.00 2753.00 L 1715.00 2752.00 L 1615.00 2752.00 L 1595.00 2751.00 L 1515.00 2751.00 L 1495.00 2750.00 L 1415.00 2750.00 L 1395.00 2749.00 L 1295.00 2749.00 L 1275.00 2748.00 L 1195.00 2748.00 L 1175.00 2747.00 L 1075.00 2747.00 L 1055.00 2746.00 L 975.00 2746.00 L 955.00 2745.00 Z" />
<path id="csg562-038-19" fill="none" stroke="black" stroke-width="1" d="M 2015.00 2854.00 L 1995.00 2874.00 L 1975.00 2874.00 L 1955.00 2873.00 L 1795.00 2873.00 L 1775.00 2872.00 L 1615.00 2872.00 L 1595.00 2871.00 L 1415.00 2871.00 L 1395.00 2870.00 L 1235.00 2870.00 L 1215.00 2869.00 L 1055.00 2869.00 L 1035.00 2868.00 L 893.73 2868.00 L 894.00 2943.00 L 890.64 2977.00 L 1235.00 2977.00 L 1255.00 2978.00 L 1615.00 2978.00 L 1635.00 2979.00 L 1995.00 2979.00 L 2015.00 2980.00 L 2375.00 2980.00 L 2395.00 2981.00 L 2755.00 2981.00 L 2775.00 2982.00 L 2989.58 2982.00 L 3005.13 2879.00 L 2915.00 2879.00 L 2895.00 2878.00 L 2715.00 2878.00 L 2695.00 2877.00 L 2535.00 2877.00 L 2515.00 2876.00 L 2355.00 2876.00 L 2335.00 2875.00 L 2175.00 2875.00 L 2155.00 2874.00 L 2075.00 2874.00 L 2055.00 2854.00 Z" />
<path id="csg562-038-20" fill="none" stroke="black" stroke-width="1" d="M 890.64 2977.00 L 879.68 3088.00 L 1155.00 3088.00 L 1175.00 3089.00 L 1455.00 3089.00 L 1475.00 3090.00 L 1775.00 3090.00 L 1795.00 3091.00 L 2075.00 3091.00 L 2095.00 3092.00 L 2395.00 3092.00 L 2415.00 3093.00 L 2695.00 3093.00 L 2715.00 3094.00 L 2805.50 3094.00 L 2976.00 3072.00 L 2989.58 2982.00 L 2775.00 2982.00 L 2755.00 2981.00 L 2395.00 2981.00 L 2375.00 2980.00 L 2015.00 2980.00 L 1995.00 2979.00 L 1635.00 2979.00 L 1615.00 2978.00 L 1255.00 2978.00 L 1235.00 2977.00 Z" />
<path id="csg562-038-21" fill="none" stroke="black" stroke-width="1" d="M 879.68 3088.00 L 870.00 3186.00 L 870.28 3190.08 L 875.00 3183.00 L 895.00 3163.00 L 915.00 3203.00 L 1035.00 3203.00 L 1055.00 3204.00 L 1215.00 3204.00 L 1235.00 3205.00 L 1415.00 3205.00 L 1435.00 3206.00 L 1595.00 3206.00 L 1615.00 3207.00 L 1795.00 3207.00 L 1815.00 3208.00 L 1935.00 3208.00 L 1955.00 3228.00 L 1975.00 3208.00 L 1995.00 3209.00 L 2175.00 3209.00 L 2195.00 3210.00 L 2355.00 3210.00 L 2375.00 3211.00 L 2555.00 3211.00 L 2575.00 3212.00 L 2735.00 3212.00 L 2755.00 3213.00 L 2806.71 3213.00 L 2790.00 3096.00 L 2805.50 3094.00 L 2715.00 3094.00 L 2695.00 3093.00 L 2415.00 3093.00 L 2395.00 3092.00 L 2095.00 3092.00 L 2075.00 3091.00 L 1795.00 3091.00 L 1775.00 3090.00 L 1475.00 3090.00 L 1455.00 3089.00 L 1175.00 3089.00 L 1155.00 3088.00 Z" />
<path id="csg562-038-22" fill="none" stroke="black" stroke-width="1" d="M 895.00 3163.00 L 875.00 3183.00 L 870.28 3190.08 L 878.69 3312.00 L 1555.00 3312.00 L 1575.00 3313.00 L 1975.00 3313.00 L 1995.00 3333.00 L 2015.00 3313.00 L 2255.00 3313.00 L 2275.00 3314.00 L 2955.00 3314.00 L 2958.35 3314.17 L 2934.00 3219.00 L 2808.00 3222.00 L 2806.71 3213.00 L 2755.00 3213.00 L 2735.00 3212.00 L 2575.00 3212.00 L 2555.00 3211.00 L 2375.00 3211.00 L 2355.00 3210.00 L 2195.00 3210.00 L 2175.00 3209.00 L 1995.00 3209.00 L 1975.00 3208.00 L 1955.00 3228.00 L 1935.00 3208.00 L 1815.00 3208.00 L 1795.00 3207.00 L 1615.00 3207.00 L 1595.00 3206.00 L 1435.00 3206.00 L 1415.00 3205.00 L 1235.00 3205.00 L 1215.00 3204.00 L 1055.00 3204.00 L 1035.00 3203.00 L 915.00 3203.00 L 895.00 3163.00 Z" />
<path id="csg562-038-23" fill="none" stroke="black" stroke-width="1" d="M 878.69 3312.00 L 886.28 3422.00 L 1355.00 3422.00 L 1375.00 3421.00 L 1855.00 3421.00 L 1875.00 3420.00 L 1935.00 3420.00 L 1955.00 3440.00 L 1975.00 3440.00 L 1995.00 3420.00 L 2355.00 3420.00 L 2375.00 3419.00 L 2855.00 3419.00 L 2875.00 3418.00 L 2954.97 3418.00 L 2967.00 3348.00 L 2958.35 3314.17 L 2955.00 3314.00 L 2275.00 3314.00 L 2255.00 3313.00 L 2015.00 3313.00 L 1995.00 3333.00 L 1975.00 3313.00 L 1575.00 3313.00 L 1555.00 3312.00 Z" />
<path id="csg562-038-24" fill="none" stroke="black" stroke-width="1" d="M 2875.00 3418.00 L 2855.00 3419.00 L 2375.00 3419.00 L 2355.00 3420.00 L 1995.00 3420.00 L 1975.00 3440.00 L 1955.00 3440.00 L 1935.00 3420.00 L 1875.00 3420.00 L 1855.00 3421.00 L 1375.00 3421.00 L 1355.00 3422.00 L 886.28 3422.00 L 893.45 3526.00 L 1494.25 3526.00 L 1521.00 3525.00 L 1938.00 3525.00 L 2019.33 3527.00 L 2195.00 3527.00 L 2199.93 3531.44 L 2229.26 3532.16 L 2235.00 3527.00 L 2355.00 3527.00 L 2373.00 3543.20 L 2376.56 3543.67 L 2395.00 3528.00 L 2595.00 3528.00 L 2604.14 3535.77 L 2625.53 3536.05 L 2635.00 3528.00 L 2936.06 3528.00 L 2954.97 3418.00 Z" />
</svg>
