<?xml version="1.0" standalone="no"?>
<!DOCTYPE svg PUBLIC "-//W3C//DTD SVG 1.1//EN" "http://www.w3.org/Graphics/SVG/1.1/DTD/svg11.dtd">
<svg width="46.22222in" height="69.333336in" viewBox="0 0 3328 4992" xmlns="http://www.w3.org/2000/svg" version="1.1">
<path id="csg562-032-01" fill="none" stroke="black" stroke-width="1" d="M 2376.00 882.00 L 2064.00 903.00 L 1854.00 888.00 L 1554.00 897.00 L 1302.00 888.00 L 1002.00 888.00 L 897.00 891.00 L 900.16 987.31 L 908.00 983.00 L 2028.00 983.00 L 2048.00 982.00 L 2263.80 982.00 L 2343.00 978.00 L 2627.00 982.00 L 2981.47 982.00 L 2976.00 930.00 L 2826.00 891.00 L 2520.00 903.00 L 2376.00 882.00 Z" />
<path id="csg562-032-02" fill="none" stroke="black" stroke-width="1" d="M 2048.00 982.00 L 2028.00 983.00 L 908.00 983.00 L 900.16 987.31 L 903.00 1074.00 L 951.00 1083.00 L 1110.00 1083.00 L 1107.35 1096.00 L 1448.00 1096.00 L 1468.00 1116.00 L 1488.00 1096.00 L 1495.16 1096.00 L 1530.00 984.00 L 1716.00 987.00 L 2046.00 993.00 L 2263.80 982.00 Z" />
<path id="csg562-032-03" fill="none" stroke="black" stroke-width="1" d="M 1107.35 1096.00 L 1082.65 1217.00 L 2368.00 1217.00 L 2388.00 1197.00 L 2408.00 1217.00 L 2978.11 1217.00 L 2919.00 1122.00 L 2541.00 1125.00 L 1986.00 1119.00 L 1488.00 1119.00 L 1495.16 1096.00 L 1488.00 1096.00 L 1468.00 1116.00 L 1448.00 1096.00 Z" />
<path id="csg562-032-04" fill="none" stroke="black" stroke-width="1" d="M 2388.00 1197.00 L 2368.00 1217.00 L 1082.65 1217.00 L 1080.00 1230.00 L 1084.95 1329.00 L 1368.00 1329.00 L 1388.00 1349.00 L 1408.00 1329.00 L 2148.00 1329.00 L 2168.00 1330.00 L 2981.21 1330.00 L 3003.00 1257.00 L 2978.11 1217.00 L 2408.00 1217.00 L 2388.00 1197.00 Z" />
<path id="csg562-032-05" fill="none" stroke="black" stroke-width="1" d="M 1084.95 1329.00 L 1086.00 1350.00 L 972.00 1362.00 L 888.00 1362.00 L 892.60 1446.47 L 908.00 1438.00 L 2428.00 1438.00 L 2448.00 1458.00 L 2468.00 1438.00 L 2948.97 1438.00 L 2981.21 1330.00 L 2168.00 1330.00 L 2148.00 1329.00 L 1408.00 1329.00 L 1388.00 1349.00 L 1368.00 1329.00 Z" />
<path id="csg562-032-06" fill="none" stroke="black" stroke-width="1" d="M 908.00 1438.00 L 892.60 1446.47 L 898.60 1556.70 L 908.00 1552.00 L 1248.00 1552.00 L 1268.00 1553.00 L 1628.00 1553.00 L 1648.00 1554.00 L 1988.00 1554.00 L 2008.00 1555.00 L 2368.00 1555.00 L 2388.00 1556.00 L 2728.00 1556.00 L 2748.00 1557.00 L 2982.98 1557.00 L 2943.00 1458.00 L 2948.97 1438.00 L 2468.00 1438.00 L 2448.00 1458.00 L 2428.00 1438.00 Z" />
<path id="csg562-032-07" fill="none" stroke="black" stroke-width="1" d="M 908.00 1552.00 L 898.60 1556.70 L 904.32 1661.84 L 908.00 1660.00 L 1048.00 1660.00 L 1068.00 1661.00 L 1208.00 1661.00 L 1228.00 1662.00 L 1268.00 1662.00 L 1288.00 1642.00 L 1308.00 1662.00 L 1368.00 1662.00 L 1388.00 1663.00 L 1548.00 1663.00 L 1568.00 1664.00 L 1708.00 1664.00 L 1728.00 1665.00 L 1868.00 1665.00 L 1888.00 1666.00 L 2028.00 1666.00 L 2048.00 1667.00 L 2208.00 1667.00 L 2228.00 1668.00 L 2368.00 1668.00 L 2388.00 1669.00 L 2528.00 1669.00 L 2548.00 1670.00 L 2688.00 1670.00 L 2708.00 1671.00 L 2868.00 1671.00 L 2888.00 1672.00 L 2993.00 1672.00 L 3006.00 1614.00 L 2982.98 1557.00 L 2748.00 1557.00 L 2728.00 1556.00 L 2388.00 1556.00 L 2368.00 1555.00 L 2008.00 1555.00 L 1988.00 1554.00 L 1648.00 1554.00 L 1628.00 1553.00 L 1268.00 1553.00 L 1248.00 1552.00 Z" />
<path id="csg562-032-08" fill="none" stroke="black" stroke-width="1" d="M 1288.00 1642.00 L 1268.00 1662.00 L 1228.00 1662.00 L 1208.00 1661.00 L 1068.00 1661.00 L 1048.00 1660.00 L 908.00 1660.00 L 904.32 1661.84 L 910.15 1769.00 L 1088.00 1769.00 L 1108.00 1770.00 L 1308.00 1770.00 L 1328.00 1771.00 L 1528.00 1771.00 L 1548.00 1772.00 L 1728.00 1772.00 L 1748.00 1773.00 L 1948.00 1773.00 L 1968.00 1774.00 L 2168.00 1774.00 L 2188.00 1775.00 L 2368.00 1775.00 L 2388.00 1776.00 L 2588.00 1776.00 L 2608.00 1777.00 L 2808.00 1777.00 L 2828.00 1778.00 L 2969.24 1778.00 L 2993.00 1672.00 L 2888.00 1672.00 L 2868.00 1671.00 L 2708.00 1671.00 L 2688.00 1670.00 L 2548.00 1670.00 L 2528.00 1669.00 L 2388.00 1669.00 L 2368.00 1668.00 L 2228.00 1668.00 L 2208.00 1667.00 L 2048.00 1667.00 L 2028.00 1666.00 L 1888.00 1666.00 L 1868.00 1665.00 L 1728.00 1665.00 L 1708.00 1664.00 L 1568.00 1664.00 L 1548.00 1663.00 L 1388.00 1663.00 L 1368.00 1662.00 L 1308.00 1662.00 L 1288.00 1642.00 Z" />
<path id="csg562-032-09" fill="none" stroke="black" stroke-width="1" d="M 910.15 1769.00 L 912.00 1803.00 L 912.56 1882.00 L 1068.00 1882.00 L 1088.00 1883.00 L 1268.00 1883.00 L 1288.00 1884.00 L 1308.00 1884.00 L 1328.00 1864.00 L 1348.00 1864.00 L 1368.00 1884.00 L 1448.00 1884.00 L 1468.00 1885.00 L 1648.00 1885.00 L 1668.00 1886.00 L 1848.00 1886.00 L 1868.00 1887.00 L 2028.00 1887.00 L 2048.00 1888.00 L 2228.00 1888.00 L 2248.00 1889.00 L 2408.00 1889.00 L 2428.00 1890.00 L 2608.00 1890.00 L 2628.00 1891.00 L 2808.00 1891.00 L 2828.00 1892.00 L 2988.00 1892.00 L 2991.44 1892.17 L 2967.00 1788.00 L 2969.24 1778.00 L 2828.00 1778.00 L 2808.00 1777.00 L 2608.00 1777.00 L 2588.00 1776.00 L 2388.00 1776.00 L 2368.00 1775.00 L 2188.00 1775.00 L 2168.00 1774.00 L 1968.00 1774.00 L 1948.00 1773.00 L 1748.00 1773.00 L 1728.00 1772.00 L 1548.00 1772.00 L 1528.00 1771.00 L 1328.00 1771.00 L 1308.00 1770.00 L 1108.00 1770.00 L 1088.00 1769.00 Z" />
<path id="csg562-032-10" fill="none" stroke="black" stroke-width="1" d="M 1328.00 1864.00 L 1308.00 1884.00 L 1288.00 1884.00 L 1268.00 1883.00 L 1088.00 1883.00 L 1068.00 1882.00 L 912.56 1882.00 L 913.34 1991.00 L 3014.62 1991.00 L 2991.44 1892.17 L 2988.00 1892.00 L 2828.00 1892.00 L 2808.00 1891.00 L 2628.00 1891.00 L 2608.00 1890.00 L 2428.00 1890.00 L 2408.00 1889.00 L 2248.00 1889.00 L 2228.00 1888.00 L 2048.00 1888.00 L 2028.00 1887.00 L 1868.00 1887.00 L 1848.00 1886.00 L 1668.00 1886.00 L 1648.00 1885.00 L 1468.00 1885.00 L 1448.00 1884.00 L 1368.00 1884.00 L 1348.00 1864.00 Z" />
<path id="csg562-032-11" fill="none" stroke="black" stroke-width="1" d="M 913.34 1991.00 L 914.09 2097.00 L 1208.00 2097.00 L 1228.00 2098.00 L 1528.00 2098.00 L 1548.00 2099.00 L 1848.00 2099.00 L 1868.00 2100.00 L 2168.00 2100.00 L 2188.00 2101.00 L 2488.00 2101.00 L 2508.00 2102.00 L 2808.00 2102.00 L 2828.00 2103.00 L 3004.17 2103.00 L 3024.00 2031.00 L 3014.62 1991.00 Z" />
<path id="csg562-032-12" fill="none" stroke="black" stroke-width="1" d="M 914.09 2097.00 L 915.03 2229.00 L 1328.00 2229.00 L 1348.00 2230.00 L 1788.00 2230.00 L 1808.00 2231.00 L 2228.00 2231.00 L 2248.00 2232.00 L 2688.00 2232.00 L 2708.00 2233.00 L 2968.38 2233.00 L 3004.17 2103.00 L 2828.00 2103.00 L 2808.00 2102.00 L 2508.00 2102.00 L 2488.00 2101.00 L 2188.00 2101.00 L 2168.00 2100.00 L 1868.00 2100.00 L 1848.00 2099.00 L 1548.00 2099.00 L 1528.00 2098.00 L 1228.00 2098.00 L 1208.00 2097.00 Z" />
<path id="csg562-032-13" fill="none" stroke="black" stroke-width="1" d="M 915.03 2229.00 L 915.75 2330.00 L 1688.00 2330.00 L 1708.00 2331.00 L 2488.00 2331.00 L 2508.00 2332.00 L 2971.53 2332.00 L 2967.00 2238.00 L 2968.38 2233.00 L 2708.00 2233.00 L 2688.00 2232.00 L 2248.00 2232.00 L 2228.00 2231.00 L 1808.00 2231.00 L 1788.00 2230.00 L 1348.00 2230.00 L 1328.00 2229.00 Z" />
<path id="csg562-032-14" fill="none" stroke="black" stroke-width="1" d="M 915.75 2330.00 L 916.60 2449.00 L 2488.00 2449.00 L 2508.00 2450.00 L 2977.22 2450.00 L 2971.53 2332.00 L 2508.00 2332.00 L 2488.00 2331.00 L 1708.00 2331.00 L 1688.00 2330.00 Z" />
<path id="csg562-032-15" fill="none" stroke="black" stroke-width="1" d="M 916.60 2449.00 L 917.33 2552.00 L 928.00 2552.00 L 948.00 2572.00 L 968.00 2572.00 L 988.00 2552.00 L 1108.00 2552.00 L 1128.00 2532.00 L 1148.00 2552.00 L 1528.00 2552.00 L 1548.00 2551.00 L 2028.00 2551.00 L 2048.00 2571.00 L 2068.00 2551.00 L 2188.00 2551.00 L 2208.00 2550.00 L 2848.00 2550.00 L 2868.00 2549.00 L 2967.49 2549.00 L 2979.00 2487.00 L 2977.22 2450.00 L 2508.00 2450.00 L 2488.00 2449.00 Z" />
<path id="csg562-032-16" fill="none" stroke="black" stroke-width="1" d="M 1128.00 2532.00 L 1108.00 2552.00 L 988.00 2552.00 L 968.00 2572.00 L 948.00 2572.00 L 928.00 2552.00 L 917.33 2552.00 L 918.00 2646.00 L 918.31 2672.00 L 988.00 2672.00 L 1008.00 2692.00 L 1028.00 2692.00 L 1048.00 2672.00 L 1708.00 2672.00 L 1728.00 2673.00 L 2528.00 2673.00 L 2548.00 2674.00 L 2944.27 2674.00 L 2967.49 2549.00 L 2868.00 2549.00 L 2848.00 2550.00 L 2208.00 2550.00 L 2188.00 2551.00 L 2068.00 2551.00 L 2048.00 2571.00 L 2028.00 2551.00 L 1548.00 2551.00 L 1528.00 2552.00 L 1148.00 2552.00 L 1128.00 2532.00 Z" />
<path id="csg562-032-17" fill="none" stroke="black" stroke-width="1" d="M 918.31 2672.00 L 919.49 2773.00 L 1088.00 2773.00 L 1108.00 2774.00 L 1288.00 2774.00 L 1308.00 2775.00 L 1488.00 2775.00 L 1508.00 2776.00 L 1688.00 2776.00 L 1708.00 2777.00 L 1888.00 2777.00 L 1908.00 2778.00 L 2088.00 2778.00 L 2108.00 2779.00 L 2308.00 2779.00 L 2328.00 2780.00 L 2508.00 2780.00 L 2528.00 2781.00 L 2708.00 2781.00 L 2728.00 2782.00 L 2908.00 2782.00 L 2928.00 2783.00 L 2946.62 2783.00 L 2940.00 2697.00 L 2944.27 2674.00 L 2548.00 2674.00 L 2528.00 2673.00 L 1728.00 2673.00 L 1708.00 2672.00 L 1048.00 2672.00 L 1028.00 2692.00 L 1008.00 2692.00 L 988.00 2672.00 Z" />
<path id="csg562-032-18" fill="none" stroke="black" stroke-width="1" d="M 919.49 2773.00 L 920.84 2887.00 L 1408.00 2887.00 L 1428.00 2888.00 L 1948.00 2888.00 L 1968.00 2889.00 L 2488.00 2889.00 L 2508.00 2890.00 L 2954.85 2890.00 L 2946.62 2783.00 L 2928.00 2783.00 L 2908.00 2782.00 L 2728.00 2782.00 L 2708.00 2781.00 L 2528.00 2781.00 L 2508.00 2780.00 L 2328.00 2780.00 L 2308.00 2779.00 L 2108.00 2779.00 L 2088.00 2778.00 L 1908.00 2778.00 L 1888.00 2777.00 L 1708.00 2777.00 L 1688.00 2776.00 L 1508.00 2776.00 L 1488.00 2775.00 L 1308.00 2775.00 L 1288.00 2774.00 L 1108.00 2774.00 L 1088.00 2773.00 Z" />
<path id="csg562-032-19" fill="none" stroke="black" stroke-width="1" d="M 920.84 2887.00 L 922.21 3004.00 L 1168.00 3004.00 L 1188.00 3005.00 L 1468.00 3005.00 L 1488.00 3006.00 L 1768.00 3006.00 L 1788.00 3007.00 L 2068.00 3007.00 L 2088.00 3008.00 L 2368.00 3008.00 L 2388.00 3009.00 L 2668.00 3009.00 L 2688.00 3010.00 L 2968.00 3010.00 L 2973.41 3010.27 L 2958.00 2931.00 L 2954.85 2890.00 L 2508.00 2890.00 L 2488.00 2889.00 L 1968.00 2889.00 L 1948.00 2888.00 L 1428.00 2888.00 L 1408.00 2887.00 Z" />
<path id="csg562-032-20" fill="none" stroke="black" stroke-width="1" d="M 922.21 3004.00 L 923.59 3121.00 L 2994.94 3121.00 L 2973.41 3010.27 L 2968.00 3010.00 L 2688.00 3010.00 L 2668.00 3009.00 L 2388.00 3009.00 L 2368.00 3008.00 L 2088.00 3008.00 L 2068.00 3007.00 L 1788.00 3007.00 L 1768.00 3006.00 L 1488.00 3006.00 L 1468.00 3005.00 L 1188.00 3005.00 L 1168.00 3004.00 Z" />
<path id="csg562-032-21" fill="none" stroke="black" stroke-width="1" d="M 923.59 3121.00 L 924.00 3156.00 L 924.00 3225.00 L 2976.60 3225.00 L 3000.00 3147.00 L 2994.94 3121.00 Z" />
<path id="csg562-032-22" fill="none" stroke="black" stroke-width="1" d="M 924.00 3225.00 L 924.00 3339.00 L 948.00 3339.00 L 968.00 3359.00 L 988.00 3339.00 L 1168.00 3339.00 L 1188.00 3338.00 L 1468.00 3338.00 L 1488.00 3337.00 L 1768.00 3337.00 L 1788.00 3336.00 L 2068.00 3336.00 L 2088.00 3335.00 L 2348.00 3335.00 L 2368.00 3334.00 L 2648.00 3334.00 L 2668.00 3333.00 L 2688.00 3353.00 L 2708.00 3333.00 L 2948.00 3333.00 L 2968.00 3332.00 L 3021.43 3332.00 L 2973.00 3237.00 L 2976.60 3225.00 Z" />
<path id="csg562-032-23" fill="none" stroke="black" stroke-width="1" d="M 2968.00 3332.00 L 2948.00 3333.00 L 2708.00 3333.00 L 2688.00 3353.00 L 2668.00 3333.00 L 2648.00 3334.00 L 2368.00 3334.00 L 2348.00 3335.00 L 2088.00 3335.00 L 2068.00 3336.00 L 1788.00 3336.00 L 1768.00 3337.00 L 1488.00 3337.00 L 1468.00 3338.00 L 1188.00 3338.00 L 1168.00 3339.00 L 988.00 3339.00 L 968.00 3359.00 L 948.00 3339.00 L 924.00 3339.00 L 924.00 3457.00 L 1388.00 3457.00 L 1408.00 3456.00 L 1908.00 3456.00 L 1928.00 3455.00 L 2428.00 3455.00 L 2448.00 3454.00 L 2948.00 3454.00 L 2968.00 3453.00 L 3036.56 3453.00 L 3051.00 3390.00 L 3021.43 3332.00 Z" />
<path id="csg562-032-24" fill="none" stroke="black" stroke-width="1" d="M 2968.00 3453.00 L 2948.00 3454.00 L 2448.00 3454.00 L 2428.00 3455.00 L 1928.00 3455.00 L 1908.00 3456.00 L 1408.00 3456.00 L 1388.00 3457.00 L 924.00 3457.00 L 924.00 3558.00 L 987.00 3560.00 L 2758.00 3560.00 L 3018.00 3534.00 L 3036.56 3453.00 Z" />
</svg>
