<?xml version="1.0" standalone="no"?>
<!DOCTYPE svg PUBLIC "-//W3C//DTD SVG 1.1//EN" "http://www.w3.org/Graphics/SVG/1.1/DTD/svg11.dtd">
<svg width="46.22222in" height="69.333336in" viewBox="0 0 3328 4992" xmlns="http://www.w3.org/2000/svg" version="1.1">
<path id="csg562-011-01" fill="none" stroke="black" stroke-width="1" d="M 639.00 768.00 L 342.00 777.00 L 346.57 895.72 L 362.00 888.00 L 522.00 888.00 L 542.00 889.00 L 722.00 889.00 L 742.00 890.00 L 902.00 890.00 L 922.00 891.00 L 1102.00 891.00 L 1122.00 892.00 L 1282.00 892.00 L 1302.00 893.00 L 1482.00 893.00 L 1502.00 894.00 L 1662.00 894.00 L 1682.00 895.00 L 1862.00 895.00 L 1882.00 896.00 L 2062.00 896.00 L 2082.00 897.00 L 2242.00 897.00 L 2262.00 898.00 L 2424.26 898.00 L 2469.00 798.00 L 2330.36 773.00 L 2142.00 773.00 L 2129.27 772.36 L 1839.00 786.00 L 1730.25 771.00 L 1622.00 771.00 L 1602.00 770.00 L 1451.67 770.00 L 1185.00 780.00 L 747.00 789.00 L 639.00 768.00 Z" />
<path id="csg562-011-02" fill="none" stroke="black" stroke-width="1" d="M 362.00 888.00 L 346.57 895.72 L 350.45 996.77 L 362.00 991.00 L 502.00 991.00 L 522.00 992.00 L 682.00 992.00 L 702.00 993.00 L 842.00 993.00 L 862.00 994.00 L 922.00 994.00 L 942.00 1014.00 L 962.00 994.00 L 1022.00 994.00 L 1042.00 995.00 L 1202.00 995.00 L 1222.00 996.00 L 1362.00 996.00 L 1382.00 997.00 L 1542.00 997.00 L 1562.00 998.00 L 1722.00 998.00 L 1742.00 999.00 L 1882.00 999.00 L 1902.00 1000.00 L 2062.00 1000.00 L 2082.00 1001.00 L 2242.00 1001.00 L 2262.00 1002.00 L 2402.00 1002.00 L 2422.00 1003.00 L 2437.83 1003.00 L 2418.00 912.00 L 2424.26 898.00 L 2262.00 898.00 L 2242.00 897.00 L 2082.00 897.00 L 2062.00 896.00 L 1882.00 896.00 L 1862.00 895.00 L 1682.00 895.00 L 1662.00 894.00 L 1502.00 894.00 L 1482.00 893.00 L 1302.00 893.00 L 1282.00 892.00 L 1122.00 892.00 L 1102.00 891.00 L 922.00 891.00 L 902.00 890.00 L 742.00 890.00 L 722.00 889.00 L 542.00 889.00 L 522.00 888.00 Z" />
<path id="csg562-011-03" fill="none" stroke="black" stroke-width="1" d="M 362.00 991.00 L 350.45 996.77 L 354.92 1112.89 L 362.00 1109.00 L 1182.00 1109.00 L 1202.00 1108.00 L 1342.00 1108.00 L 1362.00 1128.00 L 1382.00 1108.00 L 2022.00 1108.00 L 2042.00 1107.00 L 2122.00 1107.00 L 2142.00 1127.00 L 2162.00 1107.00 L 2460.50 1107.00 L 2437.83 1003.00 L 2422.00 1003.00 L 2402.00 1002.00 L 2262.00 1002.00 L 2242.00 1001.00 L 2082.00 1001.00 L 2062.00 1000.00 L 1902.00 1000.00 L 1882.00 999.00 L 1742.00 999.00 L 1722.00 998.00 L 1562.00 998.00 L 1542.00 997.00 L 1382.00 997.00 L 1362.00 996.00 L 1222.00 996.00 L 1202.00 995.00 L 1042.00 995.00 L 1022.00 994.00 L 962.00 994.00 L 942.00 1014.00 L 922.00 994.00 L 862.00 994.00 L 842.00 993.00 L 702.00 993.00 L 682.00 992.00 L 522.00 992.00 L 502.00 991.00 Z" />
<path id="csg562-011-04" fill="none" stroke="black" stroke-width="1" d="M 2042.00 1107.00 L 2022.00 1108.00 L 1382.00 1108.00 L 1362.00 1128.00 L 1342.00 1108.00 L 1202.00 1108.00 L 1182.00 1109.00 L 362.00 1109.00 L 354.92 1112.89 L 357.00 1167.00 L 358.27 1237.86 L 362.00 1236.00 L 722.00 1236.00 L 742.00 1237.00 L 1102.00 1237.00 L 1122.00 1238.00 L 1162.00 1238.00 L 1182.00 1258.00 L 1202.00 1258.00 L 1222.00 1238.00 L 1502.00 1238.00 L 1522.00 1239.00 L 1882.00 1239.00 L 1902.00 1240.00 L 2282.00 1240.00 L 2302.00 1241.00 L 2466.46 1241.00 L 2469.00 1146.00 L 2460.50 1107.00 L 2162.00 1107.00 L 2142.00 1127.00 L 2122.00 1107.00 Z" />
<path id="csg562-011-05" fill="none" stroke="black" stroke-width="1" d="M 362.00 1236.00 L 358.27 1237.86 L 360.10 1339.95 L 362.00 1339.00 L 662.00 1339.00 L 682.00 1379.00 L 702.00 1299.00 L 722.00 1319.00 L 742.00 1319.00 L 762.00 1339.00 L 842.00 1339.00 L 862.00 1340.00 L 1102.00 1340.00 L 1122.00 1360.00 L 1142.00 1340.00 L 1362.00 1340.00 L 1382.00 1341.00 L 1882.00 1341.00 L 1902.00 1342.00 L 2382.00 1342.00 L 2402.00 1343.00 L 2463.72 1343.00 L 2466.46 1241.00 L 2302.00 1241.00 L 2282.00 1240.00 L 1902.00 1240.00 L 1882.00 1239.00 L 1522.00 1239.00 L 1502.00 1238.00 L 1222.00 1238.00 L 1202.00 1258.00 L 1182.00 1258.00 L 1162.00 1238.00 L 1122.00 1238.00 L 1102.00 1237.00 L 742.00 1237.00 L 722.00 1236.00 Z" />
<path id="csg562-011-06" fill="none" stroke="black" stroke-width="1" d="M 702.00 1299.00 L 682.00 1379.00 L 662.00 1339.00 L 362.00 1339.00 L 360.10 1339.95 L 362.06 1449.00 L 2460.88 1449.00 L 2463.72 1343.00 L 2402.00 1343.00 L 2382.00 1342.00 L 1902.00 1342.00 L 1882.00 1341.00 L 1382.00 1341.00 L 1362.00 1340.00 L 1142.00 1340.00 L 1122.00 1360.00 L 1102.00 1340.00 L 862.00 1340.00 L 842.00 1339.00 L 762.00 1339.00 L 742.00 1319.00 L 722.00 1319.00 L 702.00 1299.00 Z" />
<path id="csg562-011-07" fill="none" stroke="black" stroke-width="1" d="M 362.06 1449.00 L 364.00 1557.00 L 1362.00 1557.00 L 1382.00 1577.00 L 1402.00 1577.00 L 1422.00 1557.00 L 2302.00 1557.00 L 2322.00 1577.00 L 2342.00 1557.00 L 2457.94 1557.00 L 2460.00 1482.00 L 2460.88 1449.00 Z" />
<path id="csg562-011-08" fill="none" stroke="black" stroke-width="1" d="M 364.00 1557.00 L 365.81 1658.00 L 1422.00 1658.00 L 1442.00 1678.00 L 1462.00 1658.00 L 2302.00 1658.00 L 2322.00 1657.00 L 2455.18 1657.00 L 2457.94 1557.00 L 2342.00 1557.00 L 2322.00 1577.00 L 2302.00 1557.00 L 1422.00 1557.00 L 1402.00 1577.00 L 1382.00 1577.00 L 1362.00 1557.00 Z" />
<path id="csg562-011-09" fill="none" stroke="black" stroke-width="1" d="M 2322.00 1657.00 L 2302.00 1658.00 L 1462.00 1658.00 L 1442.00 1678.00 L 1422.00 1658.00 L 365.81 1658.00 L 367.94 1777.00 L 802.00 1777.00 L 822.00 1778.00 L 1282.00 1778.00 L 1302.00 1779.00 L 1762.00 1779.00 L 1782.00 1780.00 L 2242.00 1780.00 L 2262.00 1781.00 L 2451.77 1781.00 L 2455.18 1657.00 Z" />
<path id="csg562-011-10" fill="none" stroke="black" stroke-width="1" d="M 367.94 1777.00 L 369.00 1836.00 L 370.39 1896.00 L 682.00 1896.00 L 702.00 1897.00 L 1022.00 1897.00 L 1042.00 1898.00 L 1382.00 1898.00 L 1402.00 1899.00 L 1722.00 1899.00 L 1742.00 1900.00 L 2062.00 1900.00 L 2082.00 1901.00 L 2422.00 1901.00 L 2442.00 1902.00 L 2453.51 1902.00 L 2451.00 1809.00 L 2451.77 1781.00 L 2262.00 1781.00 L 2242.00 1780.00 L 1782.00 1780.00 L 1762.00 1779.00 L 1302.00 1779.00 L 1282.00 1778.00 L 822.00 1778.00 L 802.00 1777.00 Z" />
<path id="csg562-011-11" fill="none" stroke="black" stroke-width="1" d="M 370.39 1896.00 L 372.73 1997.00 L 702.00 1997.00 L 722.00 2004.00 L 762.00 2004.00 L 782.00 1997.00 L 1402.00 1997.00 L 1422.00 2018.00 L 1442.00 2018.00 L 1462.00 1998.00 L 1502.00 1998.00 L 1522.00 2018.00 L 1542.00 1998.00 L 2456.11 1998.00 L 2453.51 1902.00 L 2442.00 1902.00 L 2422.00 1901.00 L 2082.00 1901.00 L 2062.00 1900.00 L 1742.00 1900.00 L 1722.00 1899.00 L 1402.00 1899.00 L 1382.00 1898.00 L 1042.00 1898.00 L 1022.00 1897.00 L 702.00 1897.00 L 682.00 1896.00 Z" />
<path id="csg562-011-12" fill="none" stroke="black" stroke-width="1" d="M 372.73 1997.00 L 375.32 2109.00 L 462.00 2109.00 L 482.00 2129.00 L 502.00 2109.00 L 682.00 2109.00 L 702.00 2110.00 L 1022.00 2110.00 L 1042.00 2130.00 L 1062.00 2111.00 L 1382.00 2111.00 L 1402.00 2112.00 L 1742.00 2112.00 L 1762.00 2113.00 L 2102.00 2113.00 L 2122.00 2114.00 L 2442.00 2114.00 L 2459.27 2114.86 L 2456.11 1998.00 L 1542.00 1998.00 L 1522.00 2018.00 L 1502.00 1998.00 L 1462.00 1998.00 L 1442.00 2018.00 L 1422.00 2018.00 L 1402.00 1997.00 L 782.00 1997.00 L 762.00 2004.00 L 722.00 2004.00 L 702.00 1997.00 Z" />
<path id="csg562-011-13" fill="none" stroke="black" stroke-width="1" d="M 375.32 2109.00 L 377.68 2211.00 L 2451.10 2211.00 L 2460.00 2142.00 L 2459.27 2114.86 L 2442.00 2114.00 L 2122.00 2114.00 L 2102.00 2113.00 L 1762.00 2113.00 L 1742.00 2112.00 L 1402.00 2112.00 L 1382.00 2111.00 L 1062.00 2111.00 L 1042.00 2130.00 L 1022.00 2110.00 L 702.00 2110.00 L 682.00 2109.00 L 502.00 2109.00 L 482.00 2129.00 L 462.00 2109.00 Z" />
<path id="csg562-011-14" fill="none" stroke="black" stroke-width="1" d="M 377.68 2211.00 L 380.46 2331.00 L 662.00 2331.00 L 682.00 2311.00 L 702.00 2311.00 L 722.00 2331.00 L 1762.00 2331.00 L 1782.00 2351.00 L 1802.00 2331.00 L 2436.61 2331.00 L 2436.00 2328.00 L 2451.10 2211.00 Z" />
<path id="csg562-011-15" fill="none" stroke="black" stroke-width="1" d="M 682.00 2311.00 L 662.00 2331.00 L 380.46 2331.00 L 383.17 2448.00 L 882.00 2448.00 L 902.00 2449.00 L 1102.00 2449.00 L 1122.00 2469.00 L 1142.00 2449.00 L 1422.00 2449.00 L 1442.00 2450.00 L 1962.00 2450.00 L 1982.00 2451.00 L 2461.16 2451.00 L 2436.61 2331.00 L 1802.00 2331.00 L 1782.00 2351.00 L 1762.00 2331.00 L 722.00 2331.00 L 702.00 2311.00 Z" />
<path id="csg562-011-16" fill="none" stroke="black" stroke-width="1" d="M 383.17 2448.00 L 384.00 2484.00 L 384.00 2549.00 L 602.00 2549.00 L 622.00 2569.00 L 642.00 2549.00 L 1222.00 2549.00 L 1242.00 2569.00 L 1262.00 2549.00 L 1502.00 2549.00 L 1522.00 2569.00 L 1542.00 2569.00 L 1562.00 2549.00 L 1802.00 2549.00 L 1822.00 2569.00 L 1842.00 2569.00 L 1862.00 2549.00 L 2481.20 2549.00 L 2461.16 2451.00 L 1982.00 2451.00 L 1962.00 2450.00 L 1442.00 2450.00 L 1422.00 2449.00 L 1142.00 2449.00 L 1122.00 2469.00 L 1102.00 2449.00 L 902.00 2449.00 L 882.00 2448.00 Z" />
<path id="csg562-011-17" fill="none" stroke="black" stroke-width="1" d="M 384.00 2549.00 L 384.00 2666.00 L 862.00 2666.00 L 882.00 2667.00 L 1122.00 2667.00 L 1142.00 2687.00 L 1182.00 2687.00 L 1202.00 2667.00 L 1402.00 2667.00 L 1422.00 2668.00 L 1942.00 2668.00 L 1962.00 2689.00 L 1982.00 2669.00 L 2462.00 2669.00 L 2468.79 2669.34 L 2490.00 2592.00 L 2481.20 2549.00 L 1862.00 2549.00 L 1842.00 2569.00 L 1822.00 2569.00 L 1802.00 2549.00 L 1562.00 2549.00 L 1542.00 2569.00 L 1522.00 2569.00 L 1502.00 2549.00 L 1262.00 2549.00 L 1242.00 2569.00 L 1222.00 2549.00 L 642.00 2549.00 L 622.00 2569.00 L 602.00 2549.00 Z" />
<path id="csg562-011-18" fill="none" stroke="black" stroke-width="1" d="M 384.00 2666.00 L 384.00 2765.00 L 742.00 2765.00 L 762.00 2764.00 L 1162.00 2764.00 L 1182.00 2763.00 L 1423.00 2763.00 L 1452.00 2760.00 L 1495.36 2763.00 L 1582.00 2763.00 L 1602.00 2762.00 L 2002.00 2762.00 L 2022.00 2761.00 L 2042.00 2761.00 L 2062.00 2781.00 L 2102.00 2781.00 L 2122.00 2761.00 L 2142.00 2761.00 L 2162.00 2781.00 L 2182.00 2781.00 L 2202.00 2761.00 L 2422.00 2761.00 L 2442.00 2760.00 L 2443.94 2760.00 L 2468.79 2669.34 L 2462.00 2669.00 L 1982.00 2669.00 L 1962.00 2689.00 L 1942.00 2668.00 L 1422.00 2668.00 L 1402.00 2667.00 L 1202.00 2667.00 L 1182.00 2687.00 L 1142.00 2687.00 L 1122.00 2667.00 L 882.00 2667.00 L 862.00 2666.00 Z" />
<path id="csg562-011-19" fill="none" stroke="black" stroke-width="1" d="M 1182.00 2763.00 L 1162.00 2764.00 L 762.00 2764.00 L 742.00 2765.00 L 384.00 2765.00 L 384.00 2862.00 L 468.00 2874.00 L 570.00 2880.00 L 570.02 2882.00 L 922.00 2882.00 L 942.00 2881.00 L 1267.44 2881.00 L 1278.00 2778.00 L 1423.00 2763.00 Z" />
<path id="csg562-011-20" fill="none" stroke="black" stroke-width="1" d="M 2316.67 2879.00 L 1266.00 2895.00 L 1267.44 2881.00 L 942.00 2881.00 L 922.00 2882.00 L 570.02 2882.00 L 571.53 3004.00 L 1382.00 3004.00 L 1402.00 3003.00 L 2442.00 3003.00 L 2462.00 3002.00 L 2514.69 3002.00 L 2535.00 2925.00 L 2451.62 2879.00 Z" />
<path id="csg562-011-21" fill="none" stroke="black" stroke-width="1" d="M 2462.00 3002.00 L 2442.00 3003.00 L 1402.00 3003.00 L 1382.00 3004.00 L 571.53 3004.00 L 572.98 3121.00 L 2483.31 3121.00 L 2514.69 3002.00 Z" />
<path id="csg562-011-22" fill="none" stroke="black" stroke-width="1" d="M 572.98 3121.00 L 573.00 3123.00 L 393.00 3156.00 L 387.81 3225.00 L 602.00 3225.00 L 622.00 3245.00 L 642.00 3224.00 L 922.00 3224.00 L 942.00 3223.00 L 1222.00 3223.00 L 1242.00 3222.00 L 1422.00 3222.00 L 1442.00 3242.00 L 1462.00 3222.00 L 1522.00 3222.00 L 1542.00 3221.00 L 1822.00 3221.00 L 1842.00 3220.00 L 2122.00 3220.00 L 2142.00 3219.00 L 2274.00 3219.00 L 2463.00 3198.00 L 2483.31 3121.00 Z" />
<path id="csg562-011-23" fill="none" stroke="black" stroke-width="1" d="M 2142.00 3219.00 L 2122.00 3220.00 L 1842.00 3220.00 L 1822.00 3221.00 L 1542.00 3221.00 L 1522.00 3222.00 L 1462.00 3222.00 L 1442.00 3242.00 L 1422.00 3222.00 L 1242.00 3222.00 L 1222.00 3223.00 L 942.00 3223.00 L 922.00 3224.00 L 642.00 3224.00 L 622.00 3245.00 L 602.00 3225.00 L 387.81 3225.00 L 379.60 3334.00 L 842.00 3334.00 L 862.00 3333.00 L 1342.00 3333.00 L 1362.00 3332.00 L 1862.00 3332.00 L 1882.00 3331.00 L 2257.20 3331.00 L 2274.00 3219.00 Z" />
<path id="csg562-011-24" fill="none" stroke="black" stroke-width="1" d="M 1882.00 3331.00 L 1862.00 3332.00 L 1362.00 3332.00 L 1342.00 3333.00 L 862.00 3333.00 L 842.00 3334.00 L 379.60 3334.00 L 372.00 3435.00 L 519.00 3441.00 L 582.00 3441.00 L 599.54 3457.66 L 606.00 3459.00 L 624.35 3457.65 L 642.00 3440.00 L 842.00 3440.00 L 862.00 3439.00 L 882.00 3439.00 L 890.44 3447.44 L 912.61 3448.39 L 922.00 3439.00 L 1102.00 3439.00 L 1122.00 3438.00 L 1362.00 3438.00 L 1382.00 3457.00 L 1402.00 3457.00 L 1422.00 3437.00 L 1622.00 3437.00 L 1642.00 3436.00 L 1802.00 3436.00 L 1822.00 3456.00 L 1842.00 3456.00 L 1862.00 3436.00 L 1882.00 3435.00 L 2122.00 3435.00 L 2142.00 3434.00 L 2322.00 3434.00 L 2335.89 3447.89 L 2348.47 3447.53 L 2362.00 3434.00 L 2382.00 3434.00 L 2402.00 3433.00 L 2473.62 3433.00 L 2487.00 3342.00 L 2256.00 3339.00 L 2257.20 3331.00 Z" />
</svg>
