<?xml version="1.0" standalone="no"?>
<!DOCTYPE svg PUBLIC "-//W3C//DTD SVG 1.1//EN" "http://www.w3.org/Graphics/SVG/1.1/DTD/svg11.dtd">
<svg width="46.22222in" height="69.333336in" viewBox="0 0 3328 4992" xmlns="http://www.w3.org/2000/svg" version="1.1">
<path id="csg562-045-01" fill="none" stroke="black" stroke-width="1" d="M 1539.82 812.00 L 1041.00 843.00 L 747.00 822.00 L 327.00 831.00 L 326.29 926.36 L 341.00 919.00 L 1041.00 919.00 L 1061.00 920.00 L 1781.00 920.00 L 1801.00 921.00 L 2395.83 921.00 L 2346.00 843.00 L 2019.00 813.00 L 1801.00 813.00 L 1781.00 812.00 Z" />
<path id="csg562-045-02" fill="none" stroke="black" stroke-width="1" d="M 341.00 919.00 L 326.29 926.36 L 325.42 1042.57 L 341.00 1034.00 L 501.00 1034.00 L 521.00 1033.00 L 701.00 1033.00 L 721.00 1032.00 L 901.00 1032.00 L 921.00 1031.00 L 1101.00 1031.00 L 1121.00 1030.00 L 1301.00 1030.00 L 1321.00 1029.00 L 1501.00 1029.00 L 1521.00 1028.00 L 1701.00 1028.00 L 1721.00 1027.00 L 1901.00 1027.00 L 1921.00 1026.00 L 2101.00 1026.00 L 2121.00 1025.00 L 2301.00 1025.00 L 2321.00 1024.00 L 2407.84 1024.00 L 2415.00 951.00 L 2395.83 921.00 L 1801.00 921.00 L 1781.00 920.00 L 1061.00 920.00 L 1041.00 919.00 Z" />
<path id="csg562-045-03" fill="none" stroke="black" stroke-width="1" d="M 2321.00 1024.00 L 2301.00 1025.00 L 2121.00 1025.00 L 2101.00 1026.00 L 1921.00 1026.00 L 1901.00 1027.00 L 1721.00 1027.00 L 1701.00 1028.00 L 1521.00 1028.00 L 1501.00 1029.00 L 1321.00 1029.00 L 1301.00 1030.00 L 1121.00 1030.00 L 1101.00 1031.00 L 921.00 1031.00 L 901.00 1032.00 L 721.00 1032.00 L 701.00 1033.00 L 521.00 1033.00 L 501.00 1034.00 L 341.00 1034.00 L 325.42 1042.57 L 324.62 1150.01 L 341.00 1141.00 L 461.00 1141.00 L 481.00 1140.00 L 601.00 1140.00 L 621.00 1139.00 L 761.00 1139.00 L 781.00 1138.00 L 901.00 1138.00 L 921.00 1137.00 L 1061.00 1137.00 L 1081.00 1136.00 L 1201.00 1136.00 L 1221.00 1135.00 L 1341.00 1135.00 L 1361.00 1134.00 L 1501.00 1134.00 L 1521.00 1133.00 L 1641.00 1133.00 L 1661.00 1132.00 L 1801.00 1132.00 L 1821.00 1131.00 L 1941.00 1131.00 L 1961.00 1130.00 L 2081.00 1130.00 L 2101.00 1129.00 L 2241.00 1129.00 L 2261.00 1148.00 L 2301.00 1148.00 L 2321.00 1128.00 L 2381.00 1128.00 L 2397.73 1127.16 L 2407.84 1024.00 Z" />
<path id="csg562-045-04" fill="none" stroke="black" stroke-width="1" d="M 2397.73 1127.16 L 2381.00 1128.00 L 2321.00 1128.00 L 2301.00 1148.00 L 2261.00 1148.00 L 2241.00 1129.00 L 2101.00 1129.00 L 2081.00 1130.00 L 1961.00 1130.00 L 1941.00 1131.00 L 1821.00 1131.00 L 1801.00 1132.00 L 1661.00 1132.00 L 1641.00 1133.00 L 1521.00 1133.00 L 1501.00 1134.00 L 1361.00 1134.00 L 1341.00 1135.00 L 1221.00 1135.00 L 1201.00 1136.00 L 1081.00 1136.00 L 1061.00 1137.00 L 921.00 1137.00 L 901.00 1138.00 L 781.00 1138.00 L 761.00 1139.00 L 621.00 1139.00 L 601.00 1140.00 L 481.00 1140.00 L 461.00 1141.00 L 341.00 1141.00 L 324.62 1150.01 L 324.00 1233.00 L 323.85 1261.43 L 341.00 1252.00 L 481.00 1252.00 L 501.00 1251.00 L 641.00 1251.00 L 661.00 1250.00 L 801.00 1250.00 L 821.00 1249.00 L 961.00 1249.00 L 981.00 1248.00 L 1141.00 1248.00 L 1161.00 1247.00 L 1301.00 1247.00 L 1321.00 1246.00 L 1461.00 1246.00 L 1481.00 1245.00 L 1541.00 1245.00 L 1561.00 1265.00 L 1581.00 1265.00 L 1601.00 1245.00 L 1621.00 1245.00 L 1641.00 1244.00 L 1801.00 1244.00 L 1821.00 1243.00 L 1961.00 1243.00 L 1981.00 1242.00 L 2121.00 1242.00 L 2141.00 1241.00 L 2281.00 1241.00 L 2301.00 1240.00 L 2386.67 1240.00 L 2397.73 1127.16 Z" />
<path id="csg562-045-05" fill="none" stroke="black" stroke-width="1" d="M 2301.00 1240.00 L 2281.00 1241.00 L 2141.00 1241.00 L 2121.00 1242.00 L 1981.00 1242.00 L 1961.00 1243.00 L 1821.00 1243.00 L 1801.00 1244.00 L 1641.00 1244.00 L 1621.00 1245.00 L 1601.00 1245.00 L 1581.00 1265.00 L 1561.00 1265.00 L 1541.00 1245.00 L 1481.00 1245.00 L 1461.00 1246.00 L 1321.00 1246.00 L 1301.00 1247.00 L 1161.00 1247.00 L 1141.00 1248.00 L 981.00 1248.00 L 961.00 1249.00 L 821.00 1249.00 L 801.00 1250.00 L 661.00 1250.00 L 641.00 1251.00 L 501.00 1251.00 L 481.00 1252.00 L 341.00 1252.00 L 323.85 1261.43 L 323.20 1385.79 L 323.20 1385.79 L 341.00 1376.00 L 981.00 1376.00 L 1001.00 1375.00 L 1661.00 1375.00 L 1681.00 1374.00 L 2341.00 1374.00 L 2361.00 1373.00 L 2400.68 1373.00 L 2385.00 1257.00 L 2386.67 1240.00 Z" />
<path id="csg562-045-06" fill="none" stroke="black" stroke-width="1" d="M 2361.00 1373.00 L 2341.00 1374.00 L 1681.00 1374.00 L 1661.00 1375.00 L 1001.00 1375.00 L 981.00 1376.00 L 341.00 1376.00 L 323.20 1385.79 L 322.61 1500.12 L 341.00 1490.00 L 461.00 1490.00 L 481.00 1489.00 L 621.00 1489.00 L 641.00 1488.00 L 781.00 1488.00 L 801.00 1487.00 L 821.00 1487.00 L 841.00 1507.00 L 861.00 1487.00 L 941.00 1487.00 L 961.00 1486.00 L 1101.00 1486.00 L 1121.00 1485.00 L 1181.00 1485.00 L 1201.00 1505.00 L 1221.00 1485.00 L 1261.00 1485.00 L 1281.00 1484.00 L 1421.00 1484.00 L 1441.00 1483.00 L 1581.00 1483.00 L 1601.00 1482.00 L 1741.00 1482.00 L 1761.00 1481.00 L 1901.00 1481.00 L 1921.00 1480.00 L 2041.00 1480.00 L 2061.00 1479.00 L 2201.00 1479.00 L 2221.00 1478.00 L 2361.00 1478.00 L 2381.00 1477.00 L 2414.73 1477.00 L 2400.68 1373.00 Z" />
<path id="csg562-045-07" fill="none" stroke="black" stroke-width="1" d="M 2381.00 1477.00 L 2361.00 1478.00 L 2221.00 1478.00 L 2201.00 1479.00 L 2061.00 1479.00 L 2041.00 1480.00 L 1921.00 1480.00 L 1901.00 1481.00 L 1761.00 1481.00 L 1741.00 1482.00 L 1601.00 1482.00 L 1581.00 1483.00 L 1441.00 1483.00 L 1421.00 1484.00 L 1281.00 1484.00 L 1261.00 1485.00 L 1221.00 1485.00 L 1201.00 1505.00 L 1181.00 1485.00 L 1121.00 1485.00 L 1101.00 1486.00 L 961.00 1486.00 L 941.00 1487.00 L 861.00 1487.00 L 841.00 1507.00 L 821.00 1487.00 L 801.00 1487.00 L 781.00 1488.00 L 641.00 1488.00 L 621.00 1489.00 L 481.00 1489.00 L 461.00 1490.00 L 341.00 1490.00 L 322.61 1500.12 L 322.07 1603.48 L 341.00 1612.00 L 361.00 1592.00 L 381.00 1592.00 L 401.00 1591.00 L 441.00 1591.00 L 461.00 1590.00 L 501.00 1590.00 L 521.00 1589.00 L 561.00 1589.00 L 581.00 1588.00 L 621.00 1588.00 L 641.00 1607.00 L 661.00 1587.00 L 681.00 1587.00 L 701.00 1586.00 L 741.00 1586.00 L 761.00 1585.00 L 821.00 1585.00 L 841.00 1584.00 L 881.00 1584.00 L 901.00 1583.00 L 941.00 1583.00 L 961.00 1582.00 L 1001.00 1582.00 L 1021.00 1581.00 L 1061.00 1581.00 L 1081.00 1580.00 L 1121.00 1580.00 L 1141.00 1579.00 L 1181.00 1579.00 L 1201.00 1578.00 L 1241.00 1578.00 L 1261.00 1577.00 L 1321.00 1577.00 L 1341.00 1576.00 L 1381.00 1576.00 L 1401.00 1575.00 L 1441.00 1575.00 L 1461.00 1574.00 L 1501.00 1574.00 L 1521.00 1573.00 L 1561.00 1573.00 L 1581.00 1572.00 L 1621.00 1572.00 L 1641.00 1571.00 L 1681.00 1571.00 L 1701.00 1570.00 L 1741.00 1570.00 L 1761.00 1569.00 L 1821.00 1569.00 L 1841.00 1568.00 L 1881.00 1568.00 L 1901.00 1567.00 L 1941.00 1567.00 L 1961.00 1566.00 L 2001.00 1566.00 L 2021.00 1565.00 L 2061.00 1565.00 L 2081.00 1564.00 L 2121.00 1564.00 L 2141.00 1563.00 L 2181.00 1563.00 L 2201.00 1562.00 L 2241.00 1562.00 L 2261.00 1561.00 L 2321.00 1561.00 L 2341.00 1560.00 L 2381.00 1560.00 L 2401.00 1559.00 L 2425.81 1559.00 L 2414.73 1477.00 Z" />
<path id="csg562-045-08" fill="none" stroke="black" stroke-width="1" d="M 2401.00 1559.00 L 2381.00 1560.00 L 2341.00 1560.00 L 2321.00 1561.00 L 2261.00 1561.00 L 2241.00 1562.00 L 2201.00 1562.00 L 2181.00 1563.00 L 2141.00 1563.00 L 2121.00 1564.00 L 2081.00 1564.00 L 2061.00 1565.00 L 2021.00 1565.00 L 2001.00 1566.00 L 1961.00 1566.00 L 1941.00 1567.00 L 1901.00 1567.00 L 1881.00 1568.00 L 1841.00 1568.00 L 1821.00 1569.00 L 1761.00 1569.00 L 1741.00 1570.00 L 1701.00 1570.00 L 1681.00 1571.00 L 1641.00 1571.00 L 1621.00 1572.00 L 1581.00 1572.00 L 1561.00 1573.00 L 1521.00 1573.00 L 1501.00 1574.00 L 1461.00 1574.00 L 1441.00 1575.00 L 1401.00 1575.00 L 1381.00 1576.00 L 1341.00 1576.00 L 1321.00 1577.00 L 1261.00 1577.00 L 1241.00 1578.00 L 1201.00 1578.00 L 1181.00 1579.00 L 1141.00 1579.00 L 1121.00 1580.00 L 1081.00 1580.00 L 1061.00 1581.00 L 1021.00 1581.00 L 1001.00 1582.00 L 961.00 1582.00 L 941.00 1583.00 L 901.00 1583.00 L 881.00 1584.00 L 841.00 1584.00 L 821.00 1585.00 L 761.00 1585.00 L 741.00 1586.00 L 701.00 1586.00 L 681.00 1587.00 L 661.00 1587.00 L 641.00 1607.00 L 621.00 1588.00 L 581.00 1588.00 L 561.00 1589.00 L 521.00 1589.00 L 501.00 1590.00 L 461.00 1590.00 L 441.00 1591.00 L 401.00 1591.00 L 381.00 1592.00 L 361.00 1592.00 L 341.00 1612.00 L 322.07 1603.48 L 321.49 1715.73 L 341.00 1705.00 L 381.00 1705.00 L 401.00 1704.00 L 461.00 1704.00 L 481.00 1703.00 L 541.00 1703.00 L 561.00 1702.00 L 621.00 1702.00 L 641.00 1701.00 L 701.00 1701.00 L 721.00 1700.00 L 781.00 1700.00 L 801.00 1699.00 L 841.00 1699.00 L 861.00 1698.00 L 921.00 1698.00 L 941.00 1697.00 L 1001.00 1697.00 L 1021.00 1696.00 L 1081.00 1696.00 L 1101.00 1695.00 L 1161.00 1695.00 L 1181.00 1694.00 L 1241.00 1694.00 L 1261.00 1693.00 L 1321.00 1693.00 L 1341.00 1692.00 L 1381.00 1692.00 L 1401.00 1691.00 L 1421.00 1691.00 L 1441.00 1711.00 L 1461.00 1691.00 L 1481.00 1690.00 L 1541.00 1690.00 L 1561.00 1689.00 L 1621.00 1689.00 L 1641.00 1688.00 L 1701.00 1688.00 L 1721.00 1687.00 L 1781.00 1687.00 L 1801.00 1706.00 L 1821.00 1706.00 L 1841.00 1686.00 L 1861.00 1685.00 L 1921.00 1685.00 L 1941.00 1684.00 L 2001.00 1684.00 L 2021.00 1683.00 L 2041.00 1703.00 L 2061.00 1703.00 L 2081.00 1683.00 L 2101.00 1682.00 L 2161.00 1682.00 L 2181.00 1681.00 L 2201.00 1701.00 L 2221.00 1701.00 L 2241.00 1681.00 L 2261.00 1680.00 L 2321.00 1680.00 L 2341.00 1679.00 L 2381.00 1679.00 L 2401.00 1678.00 L 2433.59 1678.00 L 2430.00 1590.00 L 2425.81 1559.00 Z" />
<path id="csg562-045-09" fill="none" stroke="black" stroke-width="1" d="M 2401.00 1678.00 L 2381.00 1679.00 L 2341.00 1679.00 L 2321.00 1680.00 L 2261.00 1680.00 L 2241.00 1681.00 L 2221.00 1701.00 L 2201.00 1701.00 L 2181.00 1681.00 L 2161.00 1682.00 L 2101.00 1682.00 L 2081.00 1683.00 L 2061.00 1703.00 L 2041.00 1703.00 L 2021.00 1683.00 L 2001.00 1684.00 L 1941.00 1684.00 L 1921.00 1685.00 L 1861.00 1685.00 L 1841.00 1686.00 L 1821.00 1706.00 L 1801.00 1706.00 L 1781.00 1687.00 L 1721.00 1687.00 L 1701.00 1688.00 L 1641.00 1688.00 L 1621.00 1689.00 L 1561.00 1689.00 L 1541.00 1690.00 L 1481.00 1690.00 L 1461.00 1691.00 L 1441.00 1711.00 L 1421.00 1691.00 L 1401.00 1691.00 L 1381.00 1692.00 L 1341.00 1692.00 L 1321.00 1693.00 L 1261.00 1693.00 L 1241.00 1694.00 L 1181.00 1694.00 L 1161.00 1695.00 L 1101.00 1695.00 L 1081.00 1696.00 L 1021.00 1696.00 L 1001.00 1697.00 L 941.00 1697.00 L 921.00 1698.00 L 861.00 1698.00 L 841.00 1699.00 L 801.00 1699.00 L 781.00 1700.00 L 721.00 1700.00 L 701.00 1701.00 L 641.00 1701.00 L 621.00 1702.00 L 561.00 1702.00 L 541.00 1703.00 L 481.00 1703.00 L 461.00 1704.00 L 401.00 1704.00 L 381.00 1705.00 L 341.00 1705.00 L 321.49 1715.73 L 321.00 1809.00 L 322.01 1820.44 L 341.00 1810.00 L 401.00 1810.00 L 421.00 1809.00 L 481.00 1809.00 L 501.00 1808.00 L 561.00 1808.00 L 581.00 1807.00 L 641.00 1807.00 L 661.00 1806.00 L 721.00 1806.00 L 741.00 1805.00 L 801.00 1805.00 L 821.00 1804.00 L 881.00 1804.00 L 901.00 1803.00 L 961.00 1803.00 L 981.00 1802.00 L 1041.00 1802.00 L 1061.00 1801.00 L 1141.00 1801.00 L 1161.00 1800.00 L 1221.00 1800.00 L 1241.00 1799.00 L 1301.00 1799.00 L 1321.00 1798.00 L 1381.00 1798.00 L 1401.00 1797.00 L 1461.00 1797.00 L 1481.00 1796.00 L 1541.00 1796.00 L 1561.00 1795.00 L 1621.00 1795.00 L 1641.00 1794.00 L 1681.00 1794.00 L 1701.00 1814.00 L 1721.00 1813.00 L 1741.00 1793.00 L 1781.00 1793.00 L 1801.00 1792.00 L 1861.00 1792.00 L 1881.00 1791.00 L 1961.00 1791.00 L 1981.00 1790.00 L 2041.00 1790.00 L 2061.00 1789.00 L 2121.00 1789.00 L 2141.00 1788.00 L 2181.00 1788.00 L 2201.00 1808.00 L 2221.00 1807.00 L 2261.00 1807.00 L 2281.00 1787.00 L 2301.00 1786.00 L 2361.00 1786.00 L 2381.00 1785.00 L 2418.79 1785.00 L 2436.00 1737.00 L 2433.59 1678.00 Z" />
<path id="csg562-045-10" fill="none" stroke="black" stroke-width="1" d="M 2381.00 1785.00 L 2361.00 1786.00 L 2301.00 1786.00 L 2281.00 1787.00 L 2261.00 1807.00 L 2221.00 1807.00 L 2201.00 1808.00 L 2181.00 1788.00 L 2141.00 1788.00 L 2121.00 1789.00 L 2061.00 1789.00 L 2041.00 1790.00 L 1981.00 1790.00 L 1961.00 1791.00 L 1881.00 1791.00 L 1861.00 1792.00 L 1801.00 1792.00 L 1781.00 1793.00 L 1741.00 1793.00 L 1721.00 1813.00 L 1701.00 1814.00 L 1681.00 1794.00 L 1641.00 1794.00 L 1621.00 1795.00 L 1561.00 1795.00 L 1541.00 1796.00 L 1481.00 1796.00 L 1461.00 1797.00 L 1401.00 1797.00 L 1381.00 1798.00 L 1321.00 1798.00 L 1301.00 1799.00 L 1241.00 1799.00 L 1221.00 1800.00 L 1161.00 1800.00 L 1141.00 1801.00 L 1061.00 1801.00 L 1041.00 1802.00 L 981.00 1802.00 L 961.00 1803.00 L 901.00 1803.00 L 881.00 1804.00 L 821.00 1804.00 L 801.00 1805.00 L 741.00 1805.00 L 721.00 1806.00 L 661.00 1806.00 L 641.00 1807.00 L 581.00 1807.00 L 561.00 1808.00 L 501.00 1808.00 L 481.00 1809.00 L 421.00 1809.00 L 401.00 1810.00 L 341.00 1810.00 L 322.01 1820.44 L 332.07 1933.91 L 341.00 1929.00 L 401.00 1929.00 L 421.00 1928.00 L 481.00 1928.00 L 501.00 1927.00 L 561.00 1927.00 L 581.00 1926.00 L 641.00 1926.00 L 661.00 1925.00 L 721.00 1925.00 L 741.00 1924.00 L 801.00 1924.00 L 821.00 1923.00 L 881.00 1923.00 L 901.00 1922.00 L 961.00 1922.00 L 975.96 1936.21 L 986.27 1935.73 L 1001.00 1921.00 L 1061.00 1921.00 L 1081.00 1920.00 L 1141.00 1920.00 L 1161.00 1919.00 L 1221.00 1919.00 L 1241.00 1918.00 L 1301.00 1918.00 L 1321.00 1917.00 L 1381.00 1917.00 L 1401.00 1916.00 L 1436.62 1916.00 L 1551.00 1911.00 L 2379.00 1896.00 L 2418.79 1785.00 Z" />
<path id="csg562-045-11" fill="none" stroke="black" stroke-width="1" d="M 901.00 1922.00 L 881.00 1923.00 L 821.00 1923.00 L 801.00 1924.00 L 741.00 1924.00 L 721.00 1925.00 L 661.00 1925.00 L 641.00 1926.00 L 581.00 1926.00 L 561.00 1927.00 L 501.00 1927.00 L 481.00 1928.00 L 421.00 1928.00 L 401.00 1929.00 L 341.00 1929.00 L 332.07 1933.91 L 341.73 2043.00 L 355.29 2043.00 L 435.00 2025.00 L 598.64 2040.00 L 641.00 2040.00 L 661.00 2039.00 L 721.00 2039.00 L 741.00 2038.00 L 761.00 2038.00 L 780.67 2056.69 L 781.27 2056.74 L 801.00 2038.00 L 808.59 2037.62 L 873.00 1941.00 L 975.96 1936.21 L 961.00 1922.00 Z" />
<path id="csg562-045-12" fill="none" stroke="black" stroke-width="1" d="M 2209.54 2130.42 L 2198.00 2131.00 L 2118.00 2131.00 L 2098.00 2132.00 L 2018.00 2132.00 L 1998.00 2133.00 L 1953.86 2133.00 L 1921.18 2133.84 L 1918.00 2134.00 L 1915.00 2134.00 L 1371.00 2148.00 L 834.00 2187.00 L 573.00 2154.00 L 561.75 2262.00 L 638.00 2262.00 L 658.00 2261.00 L 738.00 2261.00 L 758.00 2260.00 L 838.00 2260.00 L 858.00 2259.00 L 958.00 2259.00 L 978.00 2258.00 L 1058.00 2258.00 L 1078.00 2257.00 L 1098.00 2257.00 L 1118.00 2277.00 L 1138.00 2257.00 L 1178.00 2257.00 L 1198.00 2256.00 L 1278.00 2256.00 L 1298.00 2255.00 L 1378.00 2255.00 L 1398.00 2254.00 L 1498.00 2254.00 L 1518.00 2253.00 L 1598.00 2253.00 L 1618.00 2252.00 L 1638.00 2252.00 L 1658.00 2272.00 L 1678.00 2252.00 L 1718.00 2252.00 L 1738.00 2251.00 L 1818.00 2251.00 L 1838.00 2250.00 L 1918.00 2250.00 L 1938.00 2249.00 L 2038.00 2249.00 L 2058.00 2248.00 L 2138.00 2248.00 L 2158.00 2247.00 L 2238.00 2247.00 L 2258.00 2246.00 L 2358.00 2246.00 L 2378.00 2245.00 L 2435.61 2245.00 L 2424.00 2163.00 L 2209.54 2130.42 Z" />
<path id="csg562-045-13" fill="none" stroke="black" stroke-width="1" d="M 2378.00 2245.00 L 2358.00 2246.00 L 2258.00 2246.00 L 2238.00 2247.00 L 2158.00 2247.00 L 2138.00 2248.00 L 2058.00 2248.00 L 2038.00 2249.00 L 1938.00 2249.00 L 1918.00 2250.00 L 1838.00 2250.00 L 1818.00 2251.00 L 1738.00 2251.00 L 1718.00 2252.00 L 1678.00 2252.00 L 1658.00 2272.00 L 1638.00 2252.00 L 1618.00 2252.00 L 1598.00 2253.00 L 1518.00 2253.00 L 1498.00 2254.00 L 1398.00 2254.00 L 1378.00 2255.00 L 1298.00 2255.00 L 1278.00 2256.00 L 1198.00 2256.00 L 1178.00 2257.00 L 1138.00 2257.00 L 1118.00 2277.00 L 1098.00 2257.00 L 1078.00 2257.00 L 1058.00 2258.00 L 978.00 2258.00 L 958.00 2259.00 L 858.00 2259.00 L 838.00 2260.00 L 758.00 2260.00 L 738.00 2261.00 L 658.00 2261.00 L 638.00 2262.00 L 561.75 2262.00 L 558.00 2298.00 L 333.00 2295.00 L 331.33 2373.67 L 338.00 2370.00 L 398.00 2370.00 L 418.00 2369.00 L 498.00 2369.00 L 518.00 2368.00 L 578.00 2368.00 L 598.00 2367.00 L 678.00 2367.00 L 698.00 2366.00 L 758.00 2366.00 L 778.00 2365.00 L 858.00 2365.00 L 878.00 2364.00 L 938.00 2364.00 L 958.00 2363.00 L 1038.00 2363.00 L 1058.00 2362.00 L 1118.00 2362.00 L 1138.00 2361.00 L 1218.00 2361.00 L 1238.00 2360.00 L 1298.00 2360.00 L 1318.00 2359.00 L 1398.00 2359.00 L 1418.00 2358.00 L 1438.00 2378.00 L 1458.00 2378.00 L 1478.00 2358.00 L 1498.00 2358.00 L 1518.00 2357.00 L 1578.00 2357.00 L 1598.00 2356.00 L 1678.00 2356.00 L 1698.00 2355.00 L 1758.00 2355.00 L 1778.00 2354.00 L 1858.00 2354.00 L 1878.00 2353.00 L 1938.00 2353.00 L 1958.00 2352.00 L 2038.00 2352.00 L 2058.00 2351.00 L 2118.00 2351.00 L 2138.00 2350.00 L 2218.00 2350.00 L 2238.00 2349.00 L 2298.00 2349.00 L 2318.00 2348.00 L 2398.00 2348.00 L 2418.00 2347.00 L 2450.05 2347.00 L 2435.61 2245.00 Z" />
<path id="csg562-045-14" fill="none" stroke="black" stroke-width="1" d="M 2418.00 2347.00 L 2398.00 2348.00 L 2318.00 2348.00 L 2298.00 2349.00 L 2238.00 2349.00 L 2218.00 2350.00 L 2138.00 2350.00 L 2118.00 2351.00 L 2058.00 2351.00 L 2038.00 2352.00 L 1958.00 2352.00 L 1938.00 2353.00 L 1878.00 2353.00 L 1858.00 2354.00 L 1778.00 2354.00 L 1758.00 2355.00 L 1698.00 2355.00 L 1678.00 2356.00 L 1598.00 2356.00 L 1578.00 2357.00 L 1518.00 2357.00 L 1498.00 2358.00 L 1478.00 2358.00 L 1458.00 2378.00 L 1438.00 2378.00 L 1418.00 2358.00 L 1398.00 2359.00 L 1318.00 2359.00 L 1298.00 2360.00 L 1238.00 2360.00 L 1218.00 2361.00 L 1138.00 2361.00 L 1118.00 2362.00 L 1058.00 2362.00 L 1038.00 2363.00 L 958.00 2363.00 L 938.00 2364.00 L 878.00 2364.00 L 858.00 2365.00 L 778.00 2365.00 L 758.00 2366.00 L 698.00 2366.00 L 678.00 2367.00 L 598.00 2367.00 L 578.00 2368.00 L 518.00 2368.00 L 498.00 2369.00 L 418.00 2369.00 L 398.00 2370.00 L 338.00 2370.00 L 331.33 2373.67 L 328.72 2496.10 L 338.00 2491.00 L 358.00 2511.00 L 378.00 2491.00 L 418.00 2491.00 L 438.00 2490.00 L 518.00 2490.00 L 538.00 2489.00 L 618.00 2489.00 L 638.00 2488.00 L 718.00 2488.00 L 738.00 2487.00 L 818.00 2487.00 L 838.00 2486.00 L 918.00 2486.00 L 938.00 2485.00 L 1018.00 2485.00 L 1038.00 2484.00 L 1118.00 2484.00 L 1138.00 2483.00 L 1218.00 2483.00 L 1238.00 2482.00 L 1318.00 2482.00 L 1338.00 2481.00 L 1418.00 2481.00 L 1438.00 2480.00 L 1518.00 2480.00 L 1538.00 2479.00 L 1618.00 2479.00 L 1638.00 2478.00 L 1718.00 2478.00 L 1738.00 2477.00 L 1818.00 2477.00 L 1838.00 2476.00 L 1918.00 2476.00 L 1938.00 2475.00 L 2018.00 2475.00 L 2038.00 2474.00 L 2118.00 2474.00 L 2138.00 2473.00 L 2218.00 2473.00 L 2238.00 2492.00 L 2258.00 2492.00 L 2278.00 2472.00 L 2318.00 2472.00 L 2338.00 2471.00 L 2438.00 2471.00 L 2458.00 2470.00 L 2467.47 2470.00 L 2450.05 2347.00 Z" />
<path id="csg562-045-15" fill="none" stroke="black" stroke-width="1" d="M 2458.00 2470.00 L 2438.00 2471.00 L 2338.00 2471.00 L 2318.00 2472.00 L 2278.00 2472.00 L 2258.00 2492.00 L 2238.00 2492.00 L 2218.00 2473.00 L 2138.00 2473.00 L 2118.00 2474.00 L 2038.00 2474.00 L 2018.00 2475.00 L 1938.00 2475.00 L 1918.00 2476.00 L 1838.00 2476.00 L 1818.00 2477.00 L 1738.00 2477.00 L 1718.00 2478.00 L 1638.00 2478.00 L 1618.00 2479.00 L 1538.00 2479.00 L 1518.00 2480.00 L 1438.00 2480.00 L 1418.00 2481.00 L 1338.00 2481.00 L 1318.00 2482.00 L 1238.00 2482.00 L 1218.00 2483.00 L 1138.00 2483.00 L 1118.00 2484.00 L 1038.00 2484.00 L 1018.00 2485.00 L 938.00 2485.00 L 918.00 2486.00 L 838.00 2486.00 L 818.00 2487.00 L 738.00 2487.00 L 718.00 2488.00 L 638.00 2488.00 L 618.00 2489.00 L 538.00 2489.00 L 518.00 2490.00 L 438.00 2490.00 L 418.00 2491.00 L 378.00 2491.00 L 358.00 2511.00 L 338.00 2491.00 L 328.72 2496.10 L 326.57 2597.29 L 338.00 2591.00 L 418.00 2591.00 L 438.00 2590.00 L 518.00 2590.00 L 538.00 2589.00 L 618.00 2589.00 L 638.00 2588.00 L 718.00 2588.00 L 738.00 2587.00 L 818.00 2587.00 L 838.00 2586.00 L 918.00 2586.00 L 938.00 2585.00 L 1018.00 2585.00 L 1038.00 2584.00 L 1118.00 2584.00 L 1138.00 2583.00 L 1218.00 2583.00 L 1238.00 2582.00 L 1318.00 2582.00 L 1338.00 2581.00 L 1418.00 2581.00 L 1438.00 2600.00 L 1458.00 2580.00 L 1518.00 2580.00 L 1538.00 2579.00 L 1618.00 2579.00 L 1638.00 2578.00 L 1718.00 2578.00 L 1738.00 2577.00 L 1818.00 2577.00 L 1838.00 2576.00 L 1938.00 2576.00 L 1958.00 2575.00 L 2038.00 2575.00 L 2058.00 2574.00 L 2138.00 2574.00 L 2158.00 2573.00 L 2238.00 2573.00 L 2258.00 2572.00 L 2338.00 2572.00 L 2358.00 2571.00 L 2378.00 2571.00 L 2398.00 2591.00 L 2418.00 2591.00 L 2436.00 2573.00 L 2472.00 2502.00 L 2467.47 2470.00 Z" />
<path id="csg562-045-16" fill="none" stroke="black" stroke-width="1" d="M 2358.00 2571.00 L 2338.00 2572.00 L 2258.00 2572.00 L 2238.00 2573.00 L 2158.00 2573.00 L 2138.00 2574.00 L 2058.00 2574.00 L 2038.00 2575.00 L 1958.00 2575.00 L 1938.00 2576.00 L 1838.00 2576.00 L 1818.00 2577.00 L 1738.00 2577.00 L 1718.00 2578.00 L 1638.00 2578.00 L 1618.00 2579.00 L 1538.00 2579.00 L 1518.00 2580.00 L 1458.00 2580.00 L 1438.00 2600.00 L 1418.00 2581.00 L 1338.00 2581.00 L 1318.00 2582.00 L 1238.00 2582.00 L 1218.00 2583.00 L 1138.00 2583.00 L 1118.00 2584.00 L 1038.00 2584.00 L 1018.00 2585.00 L 938.00 2585.00 L 918.00 2586.00 L 838.00 2586.00 L 818.00 2587.00 L 738.00 2587.00 L 718.00 2588.00 L 638.00 2588.00 L 618.00 2589.00 L 538.00 2589.00 L 518.00 2590.00 L 438.00 2590.00 L 418.00 2591.00 L 338.00 2591.00 L 326.57 2597.29 L 323.81 2726.80 L 338.00 2719.00 L 398.00 2719.00 L 418.00 2718.00 L 498.00 2718.00 L 518.00 2717.00 L 598.00 2717.00 L 618.00 2716.00 L 678.00 2716.00 L 698.00 2715.00 L 778.00 2715.00 L 798.00 2714.00 L 878.00 2714.00 L 898.00 2713.00 L 958.00 2713.00 L 978.00 2712.00 L 1058.00 2712.00 L 1078.00 2711.00 L 1158.00 2711.00 L 1178.00 2710.00 L 1258.00 2710.00 L 1278.00 2709.00 L 1338.00 2709.00 L 1358.00 2708.00 L 1438.00 2708.00 L 1458.00 2707.00 L 1538.00 2707.00 L 1558.00 2706.00 L 1618.00 2706.00 L 1638.00 2705.00 L 1718.00 2705.00 L 1738.00 2704.00 L 1818.00 2704.00 L 1838.00 2703.00 L 1918.00 2703.00 L 1938.00 2702.00 L 1998.00 2702.00 L 2018.00 2701.00 L 2098.00 2701.00 L 2118.00 2700.00 L 2198.00 2700.00 L 2218.00 2699.00 L 2278.00 2699.00 L 2298.00 2698.00 L 2372.62 2698.00 L 2436.00 2573.00 L 2418.00 2591.00 L 2398.00 2591.00 L 2378.00 2571.00 Z" />
<path id="csg562-045-17" fill="none" stroke="black" stroke-width="1" d="M 2298.00 2698.00 L 2278.00 2699.00 L 2218.00 2699.00 L 2198.00 2700.00 L 2118.00 2700.00 L 2098.00 2701.00 L 2018.00 2701.00 L 1998.00 2702.00 L 1938.00 2702.00 L 1918.00 2703.00 L 1838.00 2703.00 L 1818.00 2704.00 L 1738.00 2704.00 L 1718.00 2705.00 L 1638.00 2705.00 L 1618.00 2706.00 L 1558.00 2706.00 L 1538.00 2707.00 L 1458.00 2707.00 L 1438.00 2708.00 L 1358.00 2708.00 L 1338.00 2709.00 L 1278.00 2709.00 L 1258.00 2710.00 L 1178.00 2710.00 L 1158.00 2711.00 L 1078.00 2711.00 L 1058.00 2712.00 L 978.00 2712.00 L 958.00 2713.00 L 898.00 2713.00 L 878.00 2714.00 L 798.00 2714.00 L 778.00 2715.00 L 698.00 2715.00 L 678.00 2716.00 L 618.00 2716.00 L 598.00 2717.00 L 518.00 2717.00 L 498.00 2718.00 L 418.00 2718.00 L 398.00 2719.00 L 338.00 2719.00 L 323.81 2726.80 L 321.60 2831.02 L 338.00 2822.00 L 438.00 2822.00 L 458.00 2821.00 L 558.00 2821.00 L 578.00 2820.00 L 678.00 2820.00 L 698.00 2819.00 L 798.00 2819.00 L 818.00 2818.00 L 938.00 2818.00 L 958.00 2817.00 L 1058.00 2817.00 L 1078.00 2816.00 L 1178.00 2816.00 L 1198.00 2815.00 L 1298.00 2815.00 L 1318.00 2814.00 L 1418.00 2814.00 L 1438.00 2813.00 L 1558.00 2813.00 L 1578.00 2812.00 L 1678.00 2812.00 L 1698.00 2811.00 L 1798.00 2811.00 L 1818.00 2810.00 L 1918.00 2810.00 L 1938.00 2809.00 L 2058.00 2809.00 L 2078.00 2808.00 L 2178.00 2808.00 L 2198.00 2807.00 L 2298.00 2807.00 L 2318.00 2806.00 L 2385.67 2806.00 L 2364.00 2715.00 L 2372.62 2698.00 Z" />
<path id="csg562-045-18" fill="none" stroke="black" stroke-width="1" d="M 2318.00 2806.00 L 2298.00 2807.00 L 2198.00 2807.00 L 2178.00 2808.00 L 2078.00 2808.00 L 2058.00 2809.00 L 1938.00 2809.00 L 1918.00 2810.00 L 1818.00 2810.00 L 1798.00 2811.00 L 1698.00 2811.00 L 1678.00 2812.00 L 1578.00 2812.00 L 1558.00 2813.00 L 1438.00 2813.00 L 1418.00 2814.00 L 1318.00 2814.00 L 1298.00 2815.00 L 1198.00 2815.00 L 1178.00 2816.00 L 1078.00 2816.00 L 1058.00 2817.00 L 958.00 2817.00 L 938.00 2818.00 L 818.00 2818.00 L 798.00 2819.00 L 698.00 2819.00 L 678.00 2820.00 L 578.00 2820.00 L 558.00 2821.00 L 458.00 2821.00 L 438.00 2822.00 L 338.00 2822.00 L 321.60 2831.02 L 319.12 2947.38 L 338.00 2937.00 L 498.00 2937.00 L 518.00 2936.00 L 698.00 2936.00 L 718.00 2935.00 L 898.00 2935.00 L 918.00 2934.00 L 1098.00 2934.00 L 1118.00 2933.00 L 1298.00 2933.00 L 1318.00 2932.00 L 1498.00 2932.00 L 1518.00 2931.00 L 1698.00 2931.00 L 1718.00 2930.00 L 1878.00 2930.00 L 1898.00 2929.00 L 2078.00 2929.00 L 2098.00 2928.00 L 2278.00 2928.00 L 2298.00 2927.00 L 2414.48 2927.00 L 2385.67 2806.00 Z" />
<path id="csg562-045-19" fill="none" stroke="black" stroke-width="1" d="M 2298.00 2927.00 L 2278.00 2928.00 L 2098.00 2928.00 L 2078.00 2929.00 L 1898.00 2929.00 L 1878.00 2930.00 L 1718.00 2930.00 L 1698.00 2931.00 L 1518.00 2931.00 L 1498.00 2932.00 L 1318.00 2932.00 L 1298.00 2933.00 L 1118.00 2933.00 L 1098.00 2934.00 L 918.00 2934.00 L 898.00 2935.00 L 718.00 2935.00 L 698.00 2936.00 L 518.00 2936.00 L 498.00 2937.00 L 338.00 2937.00 L 319.12 2947.38 L 318.00 3000.00 L 318.95 3049.48 L 338.00 3039.00 L 458.00 3039.00 L 478.00 3038.00 L 618.00 3038.00 L 638.00 3037.00 L 758.00 3037.00 L 778.00 3036.00 L 918.00 3036.00 L 938.00 3035.00 L 1058.00 3035.00 L 1078.00 3034.00 L 1218.00 3034.00 L 1238.00 3033.00 L 1358.00 3033.00 L 1378.00 3032.00 L 1518.00 3032.00 L 1538.00 3031.00 L 1658.00 3031.00 L 1678.00 3030.00 L 1818.00 3030.00 L 1838.00 3029.00 L 1958.00 3029.00 L 1978.00 3028.00 L 2118.00 3028.00 L 2138.00 3027.00 L 2278.00 3027.00 L 2298.00 3026.00 L 2418.00 3026.00 L 2427.25 3025.54 L 2424.00 2967.00 L 2414.48 2927.00 Z" />
<path id="csg562-045-20" fill="none" stroke="black" stroke-width="1" d="M 2427.25 3025.54 L 2418.00 3026.00 L 2298.00 3026.00 L 2278.00 3027.00 L 2138.00 3027.00 L 2118.00 3028.00 L 1978.00 3028.00 L 1958.00 3029.00 L 1838.00 3029.00 L 1818.00 3030.00 L 1678.00 3030.00 L 1658.00 3031.00 L 1538.00 3031.00 L 1518.00 3032.00 L 1378.00 3032.00 L 1358.00 3033.00 L 1238.00 3033.00 L 1218.00 3034.00 L 1078.00 3034.00 L 1058.00 3035.00 L 938.00 3035.00 L 918.00 3036.00 L 778.00 3036.00 L 758.00 3037.00 L 638.00 3037.00 L 618.00 3038.00 L 478.00 3038.00 L 458.00 3039.00 L 338.00 3039.00 L 318.95 3049.48 L 321.29 3172.19 L 338.00 3163.00 L 458.00 3163.00 L 478.00 3162.00 L 618.00 3162.00 L 638.00 3161.00 L 758.00 3161.00 L 778.00 3180.00 L 798.00 3160.00 L 918.00 3160.00 L 938.00 3159.00 L 1058.00 3159.00 L 1078.00 3158.00 L 1218.00 3158.00 L 1238.00 3157.00 L 1358.00 3157.00 L 1378.00 3156.00 L 1518.00 3156.00 L 1538.00 3155.00 L 1658.00 3155.00 L 1678.00 3154.00 L 1698.00 3174.00 L 1718.00 3154.00 L 1818.00 3154.00 L 1838.00 3153.00 L 1958.00 3153.00 L 1978.00 3152.00 L 2038.00 3152.00 L 2058.00 3132.00 L 2078.00 3152.00 L 2118.00 3152.00 L 2138.00 3151.00 L 2278.00 3151.00 L 2298.00 3150.00 L 2418.00 3150.00 L 2434.12 3149.19 L 2427.25 3025.54 Z" />
<path id="csg562-045-21" fill="none" stroke="black" stroke-width="1" d="M 2058.00 3132.00 L 2038.00 3152.00 L 1978.00 3152.00 L 1958.00 3153.00 L 1838.00 3153.00 L 1818.00 3154.00 L 1718.00 3154.00 L 1698.00 3174.00 L 1678.00 3154.00 L 1658.00 3155.00 L 1538.00 3155.00 L 1518.00 3156.00 L 1378.00 3156.00 L 1358.00 3157.00 L 1238.00 3157.00 L 1218.00 3158.00 L 1078.00 3158.00 L 1058.00 3159.00 L 938.00 3159.00 L 918.00 3160.00 L 798.00 3160.00 L 778.00 3180.00 L 758.00 3161.00 L 638.00 3161.00 L 618.00 3162.00 L 478.00 3162.00 L 458.00 3163.00 L 338.00 3163.00 L 321.29 3172.19 L 323.33 3279.07 L 338.00 3271.00 L 358.00 3291.00 L 378.00 3291.00 L 398.00 3271.00 L 458.00 3271.00 L 478.00 3270.00 L 498.00 3290.00 L 518.00 3270.00 L 618.00 3270.00 L 638.00 3269.00 L 758.00 3269.00 L 778.00 3268.00 L 918.00 3268.00 L 938.00 3267.00 L 1058.00 3267.00 L 1078.00 3266.00 L 1218.00 3266.00 L 1238.00 3265.00 L 1358.00 3265.00 L 1378.00 3264.00 L 1518.00 3264.00 L 1538.00 3263.00 L 1658.00 3263.00 L 1678.00 3262.00 L 1818.00 3262.00 L 1838.00 3261.00 L 1958.00 3261.00 L 1978.00 3260.00 L 2118.00 3260.00 L 2138.00 3259.00 L 2278.00 3259.00 L 2298.00 3258.00 L 2418.00 3258.00 L 2438.00 3257.00 L 2440.11 3257.00 L 2434.12 3149.19 L 2418.00 3150.00 L 2298.00 3150.00 L 2278.00 3151.00 L 2138.00 3151.00 L 2118.00 3152.00 L 2078.00 3152.00 L 2058.00 3132.00 Z" />
<path id="csg562-045-22" fill="none" stroke="black" stroke-width="1" d="M 2438.00 3257.00 L 2418.00 3258.00 L 2298.00 3258.00 L 2278.00 3259.00 L 2138.00 3259.00 L 2118.00 3260.00 L 1978.00 3260.00 L 1958.00 3261.00 L 1838.00 3261.00 L 1818.00 3262.00 L 1678.00 3262.00 L 1658.00 3263.00 L 1538.00 3263.00 L 1518.00 3264.00 L 1378.00 3264.00 L 1358.00 3265.00 L 1238.00 3265.00 L 1218.00 3266.00 L 1078.00 3266.00 L 1058.00 3267.00 L 938.00 3267.00 L 918.00 3268.00 L 778.00 3268.00 L 758.00 3269.00 L 638.00 3269.00 L 618.00 3270.00 L 518.00 3270.00 L 498.00 3290.00 L 478.00 3270.00 L 458.00 3271.00 L 398.00 3271.00 L 378.00 3291.00 L 358.00 3291.00 L 338.00 3271.00 L 323.33 3279.07 L 325.45 3389.90 L 338.00 3383.00 L 398.00 3383.00 L 418.00 3382.00 L 458.00 3382.00 L 478.00 3402.00 L 498.00 3382.00 L 518.00 3381.00 L 598.00 3381.00 L 618.00 3380.00 L 698.00 3380.00 L 718.00 3379.00 L 798.00 3379.00 L 818.00 3378.00 L 887.15 3378.00 L 891.00 3327.00 L 960.00 3297.00 L 1004.81 3376.66 L 1018.00 3376.00 L 1058.00 3376.00 L 1078.00 3356.00 L 1098.00 3376.00 L 1118.00 3375.00 L 1198.00 3375.00 L 1218.00 3374.00 L 1298.00 3374.00 L 1318.00 3373.00 L 1398.00 3373.00 L 1418.00 3392.00 L 1438.00 3392.00 L 1458.00 3372.00 L 1478.00 3372.00 L 1498.00 3371.00 L 1578.00 3371.00 L 1598.00 3370.00 L 1678.00 3370.00 L 1698.00 3369.00 L 1778.00 3369.00 L 1798.00 3368.00 L 1878.00 3368.00 L 1898.00 3367.00 L 1978.00 3367.00 L 1998.00 3366.00 L 2078.00 3366.00 L 2098.00 3365.00 L 2178.00 3365.00 L 2198.00 3364.00 L 2278.00 3364.00 L 2298.00 3363.00 L 2378.00 3363.00 L 2398.00 3362.00 L 2438.45 3362.00 L 2442.00 3291.00 L 2440.11 3257.00 Z" />
<path id="csg562-045-23" fill="none" stroke="black" stroke-width="1" d="M 1078.00 3356.00 L 1058.00 3376.00 L 1018.00 3376.00 L 1004.81 3376.66 L 1014.00 3393.00 L 1032.92 3475.00 L 1038.00 3475.00 L 1058.00 3509.00 L 1078.00 3494.00 L 1098.00 3474.00 L 1138.00 3474.00 L 1158.00 3473.00 L 1178.00 3493.00 L 1198.00 3473.00 L 1218.00 3472.00 L 1258.00 3472.00 L 1278.00 3471.00 L 1338.00 3471.00 L 1358.00 3470.00 L 1372.79 3498.85 L 1398.00 3498.00 L 1409.29 3497.71 L 1418.00 3489.00 L 1438.00 3469.00 L 1478.00 3469.00 L 1498.00 3468.00 L 1538.00 3468.00 L 1558.00 3467.00 L 1618.00 3467.00 L 1638.00 3466.00 L 1678.00 3466.00 L 1698.00 3465.00 L 1738.00 3465.00 L 1758.00 3464.00 L 1818.00 3464.00 L 1838.00 3463.00 L 1878.00 3463.00 L 1898.00 3462.00 L 1958.00 3462.00 L 1978.00 3461.00 L 1998.00 3481.00 L 2018.00 3481.00 L 2018.85 3481.80 L 2047.47 3481.06 L 2058.00 3460.00 L 2098.00 3460.00 L 2118.00 3479.00 L 2138.00 3459.00 L 2158.00 3459.00 L 2177.64 3477.66 L 2178.36 3477.64 L 2198.00 3458.00 L 2216.64 3476.64 L 2280.01 3474.99 L 2298.00 3457.00 L 2318.00 3456.00 L 2358.00 3456.00 L 2378.00 3455.00 L 2433.80 3455.00 L 2438.45 3362.00 L 2398.00 3362.00 L 2378.00 3363.00 L 2298.00 3363.00 L 2278.00 3364.00 L 2198.00 3364.00 L 2178.00 3365.00 L 2098.00 3365.00 L 2078.00 3366.00 L 1998.00 3366.00 L 1978.00 3367.00 L 1898.00 3367.00 L 1878.00 3368.00 L 1798.00 3368.00 L 1778.00 3369.00 L 1698.00 3369.00 L 1678.00 3370.00 L 1598.00 3370.00 L 1578.00 3371.00 L 1498.00 3371.00 L 1478.00 3372.00 L 1458.00 3372.00 L 1438.00 3392.00 L 1418.00 3392.00 L 1398.00 3373.00 L 1318.00 3373.00 L 1298.00 3374.00 L 1218.00 3374.00 L 1198.00 3375.00 L 1118.00 3375.00 L 1098.00 3376.00 L 1078.00 3356.00 Z" />
</svg>
