<?xml version="1.0" standalone="no"?>
<!DOCTYPE svg PUBLIC "-//W3C//DTD SVG 1.1//EN" "http://www.w3.org/Graphics/SVG/1.1/DTD/svg11.dtd">
<svg width="46.22222in" height="69.333336in" viewBox="0 0 3328 4992" xmlns="http://www.w3.org/2000/svg" version="1.1">
<path id="csg562-057-01" fill="none" stroke="black" stroke-width="1" d="M 629.02 797.95 L 429.00 810.00 L 423.96 919.70 L 430.00 920.00 L 450.00 900.00 L 470.00 881.00 L 490.00 882.00 L 510.00 902.00 L 530.00 883.00 L 550.00 884.00 L 570.00 924.00 L 590.00 925.00 L 610.00 925.00 L 630.00 926.00 L 650.00 927.00 L 670.00 927.00 L 690.00 928.00 L 710.00 929.00 L 730.00 929.00 L 750.00 930.00 L 770.00 930.00 L 790.00 931.00 L 810.00 932.00 L 830.00 932.00 L 850.00 933.00 L 870.00 934.00 L 890.00 934.00 L 910.00 935.00 L 930.00 935.00 L 950.00 916.00 L 970.00 937.00 L 990.00 937.00 L 1010.00 938.00 L 1030.00 919.00 L 1050.00 919.00 L 1070.00 940.00 L 1090.00 940.00 L 1110.00 941.00 L 1130.00 942.00 L 1150.00 942.00 L 1170.00 943.00 L 1190.00 944.00 L 1210.00 944.00 L 1230.00 945.00 L 1250.00 945.00 L 1270.00 946.00 L 1290.00 947.00 L 1310.00 947.00 L 1330.00 948.00 L 1350.00 949.00 L 1370.00 949.00 L 1390.00 950.00 L 1410.00 950.00 L 1430.00 951.00 L 1450.00 952.00 L 1470.00 952.00 L 1490.00 953.00 L 1510.00 954.00 L 1530.00 954.00 L 1550.00 955.00 L 1570.00 955.00 L 1590.00 956.00 L 1610.00 957.00 L 1630.00 957.00 L 1650.00 958.00 L 1670.00 959.00 L 1690.00 959.00 L 1710.00 960.00 L 1730.00 961.00 L 1750.00 961.00 L 1770.00 962.00 L 1790.00 962.00 L 1810.00 963.00 L 1830.00 964.00 L 1850.00 964.00 L 1870.00 965.00 L 1890.00 966.00 L 1910.00 966.00 L 1930.00 967.00 L 1950.00 967.00 L 1970.00 948.00 L 1990.00 969.00 L 2010.00 969.00 L 2030.00 970.00 L 2050.00 971.00 L 2070.00 971.00 L 2090.00 972.00 L 2110.00 972.00 L 2130.00 973.00 L 2150.00 974.00 L 2170.00 974.00 L 2190.00 975.00 L 2210.00 976.00 L 2230.00 976.00 L 2250.00 977.00 L 2270.00 977.00 L 2290.00 978.00 L 2310.00 979.00 L 2330.00 979.00 L 2350.00 980.00 L 2370.00 981.00 L 2390.00 981.00 L 2410.00 982.00 L 2430.00 982.00 L 2450.00 983.00 L 2470.00 984.00 L 2490.00 984.00 L 2510.00 985.00 L 2530.00 986.00 L 2537.90 986.00 L 2478.69 852.12 L 2470.00 843.00 L 2450.00 862.00 L 2430.00 862.00 L 2410.00 861.00 L 2390.00 860.00 L 2370.00 859.00 L 2350.00 859.00 L 2330.00 858.00 L 2310.00 857.00 L 2290.00 857.00 L 2270.00 856.00 L 2250.00 855.00 L 2230.00 854.00 L 2210.00 854.00 L 2190.00 853.00 L 2170.00 852.00 L 2150.00 852.00 L 2130.00 851.00 L 2110.00 850.00 L 2090.00 850.00 L 2070.00 849.00 L 2050.00 848.00 L 2030.00 847.00 L 2010.00 847.00 L 1990.00 846.00 L 1970.00 845.00 L 1950.00 845.00 L 1930.00 844.00 L 1910.00 843.00 L 1890.00 842.00 L 1870.00 842.00 L 1850.00 841.00 L 1830.00 840.00 L 1810.00 840.00 L 1790.00 839.00 L 1770.00 838.00 L 1750.00 838.00 L 1730.00 837.00 L 1710.00 836.00 L 1690.00 835.00 L 1670.00 835.00 L 1650.00 834.00 L 1630.00 833.00 L 1610.00 833.00 L 1590.00 832.00 L 1583.21 831.66 L 1305.00 828.00 L 944.00 809.00 L 930.00 809.00 L 910.00 808.00 L 890.00 807.00 L 870.00 806.00 L 850.00 806.00 L 830.00 805.00 L 810.00 804.00 L 790.00 804.00 L 770.00 803.00 L 750.00 802.00 L 730.00 802.00 L 710.00 801.00 L 690.00 800.00 L 670.00 799.00 L 650.00 799.00 L 630.00 798.00 L 629.02 797.95 Z" />
<path id="csg562-057-02" fill="none" stroke="black" stroke-width="1" d="M 470.00 881.00 L 450.00 900.00 L 430.00 920.00 L 423.96 919.70 L 419.27 1022.00 L 430.00 1022.00 L 450.00 1023.00 L 470.00 1023.00 L 490.00 1024.00 L 510.00 1024.00 L 530.00 1025.00 L 550.00 1025.00 L 570.00 1026.00 L 590.00 1026.00 L 610.00 1027.00 L 630.00 1027.00 L 650.00 1028.00 L 690.00 1028.00 L 710.00 1029.00 L 730.00 1029.00 L 750.00 1030.00 L 770.00 1030.00 L 790.00 1031.00 L 810.00 1031.00 L 830.00 1032.00 L 850.00 1032.00 L 870.00 1033.00 L 890.00 1033.00 L 910.00 1034.00 L 950.00 1034.00 L 970.00 1035.00 L 990.00 1035.00 L 1010.00 1036.00 L 1030.00 1036.00 L 1050.00 1037.00 L 1070.00 1037.00 L 1090.00 1038.00 L 1110.00 1038.00 L 1130.00 1039.00 L 1150.00 1039.00 L 1170.00 1040.00 L 1210.00 1040.00 L 1230.00 1041.00 L 1250.00 1041.00 L 1270.00 1042.00 L 1290.00 1042.00 L 1310.00 1043.00 L 1330.00 1043.00 L 1350.00 1044.00 L 1370.00 1044.00 L 1390.00 1045.00 L 1410.00 1045.00 L 1430.00 1046.00 L 1470.00 1046.00 L 1490.00 1047.00 L 1510.00 1047.00 L 1530.00 1048.00 L 1550.00 1048.00 L 1570.00 1049.00 L 1590.00 1049.00 L 1610.00 1050.00 L 1630.00 1050.00 L 1650.00 1051.00 L 1670.00 1051.00 L 1690.00 1052.00 L 1710.00 1052.00 L 1730.00 1053.00 L 1770.00 1053.00 L 1790.00 1054.00 L 1810.00 1054.00 L 1830.00 1055.00 L 1850.00 1055.00 L 1870.00 1056.00 L 1890.00 1056.00 L 1910.00 1057.00 L 1930.00 1057.00 L 1950.00 1058.00 L 1970.00 1058.00 L 1990.00 1059.00 L 2030.00 1059.00 L 2050.00 1060.00 L 2070.00 1060.00 L 2090.00 1061.00 L 2110.00 1061.00 L 2130.00 1062.00 L 2150.00 1062.00 L 2170.00 1063.00 L 2190.00 1063.00 L 2210.00 1064.00 L 2230.00 1064.00 L 2250.00 1065.00 L 2290.00 1065.00 L 2310.00 1066.00 L 2330.00 1066.00 L 2350.00 1067.00 L 2370.00 1067.00 L 2390.00 1068.00 L 2410.00 1068.00 L 2430.00 1069.00 L 2450.00 1069.00 L 2470.00 1070.00 L 2490.00 1070.00 L 2510.00 1071.00 L 2535.99 1071.00 L 2541.00 993.00 L 2537.90 986.00 L 2530.00 986.00 L 2510.00 985.00 L 2490.00 984.00 L 2470.00 984.00 L 2450.00 983.00 L 2430.00 982.00 L 2410.00 982.00 L 2390.00 981.00 L 2370.00 981.00 L 2350.00 980.00 L 2330.00 979.00 L 2310.00 979.00 L 2290.00 978.00 L 2270.00 977.00 L 2250.00 977.00 L 2230.00 976.00 L 2210.00 976.00 L 2190.00 975.00 L 2170.00 974.00 L 2150.00 974.00 L 2130.00 973.00 L 2110.00 972.00 L 2090.00 972.00 L 2070.00 971.00 L 2050.00 971.00 L 2030.00 970.00 L 2010.00 969.00 L 1990.00 969.00 L 1970.00 948.00 L 1950.00 967.00 L 1930.00 967.00 L 1910.00 966.00 L 1890.00 966.00 L 1870.00 965.00 L 1850.00 964.00 L 1830.00 964.00 L 1810.00 963.00 L 1790.00 962.00 L 1770.00 962.00 L 1750.00 961.00 L 1730.00 961.00 L 1710.00 960.00 L 1690.00 959.00 L 1670.00 959.00 L 1650.00 958.00 L 1630.00 957.00 L 1610.00 957.00 L 1590.00 956.00 L 1570.00 955.00 L 1550.00 955.00 L 1530.00 954.00 L 1510.00 954.00 L 1490.00 953.00 L 1470.00 952.00 L 1450.00 952.00 L 1430.00 951.00 L 1410.00 950.00 L 1390.00 950.00 L 1370.00 949.00 L 1350.00 949.00 L 1330.00 948.00 L 1310.00 947.00 L 1290.00 947.00 L 1270.00 946.00 L 1250.00 945.00 L 1230.00 945.00 L 1210.00 944.00 L 1190.00 944.00 L 1170.00 943.00 L 1150.00 942.00 L 1130.00 942.00 L 1110.00 941.00 L 1090.00 940.00 L 1070.00 940.00 L 1050.00 919.00 L 1030.00 919.00 L 1010.00 938.00 L 990.00 937.00 L 970.00 937.00 L 950.00 916.00 L 930.00 935.00 L 910.00 935.00 L 890.00 934.00 L 870.00 934.00 L 850.00 933.00 L 830.00 932.00 L 810.00 932.00 L 790.00 931.00 L 770.00 930.00 L 750.00 930.00 L 730.00 929.00 L 710.00 929.00 L 690.00 928.00 L 670.00 927.00 L 650.00 927.00 L 630.00 926.00 L 610.00 925.00 L 590.00 925.00 L 570.00 924.00 L 550.00 884.00 L 530.00 883.00 L 510.00 902.00 L 490.00 882.00 L 470.00 881.00 Z" />
<path id="csg562-057-03" fill="none" stroke="black" stroke-width="1" d="M 419.27 1022.00 L 414.11 1134.21 L 430.00 1135.00 L 450.00 1135.00 L 470.00 1136.00 L 490.00 1136.00 L 510.00 1137.00 L 530.00 1137.00 L 550.00 1138.00 L 570.00 1138.00 L 590.00 1139.00 L 610.00 1139.00 L 630.00 1140.00 L 650.00 1140.00 L 670.00 1141.00 L 690.00 1121.00 L 710.00 1122.00 L 730.00 1122.00 L 750.00 1143.00 L 770.00 1143.00 L 790.00 1144.00 L 810.00 1144.00 L 830.00 1145.00 L 850.00 1145.00 L 870.00 1146.00 L 890.00 1146.00 L 910.00 1147.00 L 930.00 1147.00 L 950.00 1148.00 L 970.00 1148.00 L 990.00 1149.00 L 1010.00 1149.00 L 1030.00 1150.00 L 1050.00 1150.00 L 1070.00 1151.00 L 1090.00 1151.00 L 1110.00 1152.00 L 1130.00 1152.00 L 1150.00 1153.00 L 1170.00 1153.00 L 1190.00 1154.00 L 1210.00 1154.00 L 1230.00 1155.00 L 1250.00 1155.00 L 1270.00 1156.00 L 1290.00 1156.00 L 1310.00 1157.00 L 1330.00 1157.00 L 1350.00 1158.00 L 1370.00 1158.00 L 1390.00 1159.00 L 1410.00 1159.00 L 1430.00 1160.00 L 1450.00 1160.00 L 1470.00 1161.00 L 1490.00 1161.00 L 1510.00 1162.00 L 1530.00 1162.00 L 1550.00 1163.00 L 1570.00 1163.00 L 1590.00 1164.00 L 1610.00 1164.00 L 1630.00 1165.00 L 1650.00 1165.00 L 1670.00 1166.00 L 1690.00 1166.00 L 1710.00 1167.00 L 1730.00 1167.00 L 1750.00 1168.00 L 1770.00 1168.00 L 1790.00 1169.00 L 1810.00 1169.00 L 1830.00 1170.00 L 1850.00 1170.00 L 1870.00 1171.00 L 1890.00 1171.00 L 1910.00 1172.00 L 1930.00 1172.00 L 1950.00 1173.00 L 1970.00 1173.00 L 1990.00 1174.00 L 2010.00 1174.00 L 2030.00 1175.00 L 2050.00 1175.00 L 2070.00 1176.00 L 2090.00 1176.00 L 2110.00 1177.00 L 2130.00 1177.00 L 2150.00 1178.00 L 2170.00 1178.00 L 2190.00 1179.00 L 2210.00 1179.00 L 2230.00 1180.00 L 2250.00 1180.00 L 2270.00 1181.00 L 2290.00 1181.00 L 2310.00 1182.00 L 2330.00 1182.00 L 2350.00 1183.00 L 2370.00 1183.00 L 2390.00 1184.00 L 2410.00 1184.00 L 2430.00 1185.00 L 2450.00 1185.00 L 2470.00 1186.00 L 2490.00 1186.00 L 2510.00 1187.00 L 2528.54 1187.00 L 2535.99 1071.00 L 2510.00 1071.00 L 2490.00 1070.00 L 2470.00 1070.00 L 2450.00 1069.00 L 2430.00 1069.00 L 2410.00 1068.00 L 2390.00 1068.00 L 2370.00 1067.00 L 2350.00 1067.00 L 2330.00 1066.00 L 2310.00 1066.00 L 2290.00 1065.00 L 2250.00 1065.00 L 2230.00 1064.00 L 2210.00 1064.00 L 2190.00 1063.00 L 2170.00 1063.00 L 2150.00 1062.00 L 2130.00 1062.00 L 2110.00 1061.00 L 2090.00 1061.00 L 2070.00 1060.00 L 2050.00 1060.00 L 2030.00 1059.00 L 1990.00 1059.00 L 1970.00 1058.00 L 1950.00 1058.00 L 1930.00 1057.00 L 1910.00 1057.00 L 1890.00 1056.00 L 1870.00 1056.00 L 1850.00 1055.00 L 1830.00 1055.00 L 1810.00 1054.00 L 1790.00 1054.00 L 1770.00 1053.00 L 1730.00 1053.00 L 1710.00 1052.00 L 1690.00 1052.00 L 1670.00 1051.00 L 1650.00 1051.00 L 1630.00 1050.00 L 1610.00 1050.00 L 1590.00 1049.00 L 1570.00 1049.00 L 1550.00 1048.00 L 1530.00 1048.00 L 1510.00 1047.00 L 1490.00 1047.00 L 1470.00 1046.00 L 1430.00 1046.00 L 1410.00 1045.00 L 1390.00 1045.00 L 1370.00 1044.00 L 1350.00 1044.00 L 1330.00 1043.00 L 1310.00 1043.00 L 1290.00 1042.00 L 1270.00 1042.00 L 1250.00 1041.00 L 1230.00 1041.00 L 1210.00 1040.00 L 1170.00 1040.00 L 1150.00 1039.00 L 1130.00 1039.00 L 1110.00 1038.00 L 1090.00 1038.00 L 1070.00 1037.00 L 1050.00 1037.00 L 1030.00 1036.00 L 1010.00 1036.00 L 990.00 1035.00 L 970.00 1035.00 L 950.00 1034.00 L 910.00 1034.00 L 890.00 1033.00 L 870.00 1033.00 L 850.00 1032.00 L 830.00 1032.00 L 810.00 1031.00 L 790.00 1031.00 L 770.00 1030.00 L 750.00 1030.00 L 730.00 1029.00 L 710.00 1029.00 L 690.00 1028.00 L 650.00 1028.00 L 630.00 1027.00 L 610.00 1027.00 L 590.00 1026.00 L 570.00 1026.00 L 550.00 1025.00 L 530.00 1025.00 L 510.00 1024.00 L 490.00 1024.00 L 470.00 1023.00 L 450.00 1023.00 L 430.00 1022.00 Z" />
<path id="csg562-057-04" fill="none" stroke="black" stroke-width="1" d="M 690.00 1121.00 L 670.00 1141.00 L 650.00 1140.00 L 630.00 1140.00 L 610.00 1139.00 L 590.00 1139.00 L 570.00 1138.00 L 550.00 1138.00 L 530.00 1137.00 L 510.00 1137.00 L 490.00 1136.00 L 470.00 1136.00 L 450.00 1135.00 L 430.00 1135.00 L 414.11 1134.21 L 408.91 1247.55 L 410.00 1247.00 L 430.00 1248.00 L 450.00 1248.00 L 470.00 1249.00 L 490.00 1249.00 L 510.00 1250.00 L 530.00 1250.00 L 550.00 1251.00 L 570.00 1252.00 L 590.00 1252.00 L 610.00 1253.00 L 630.00 1253.00 L 650.00 1254.00 L 670.00 1254.00 L 690.00 1255.00 L 710.00 1255.00 L 730.00 1256.00 L 750.00 1257.00 L 770.00 1257.00 L 790.00 1258.00 L 810.00 1258.00 L 830.00 1259.00 L 850.00 1259.00 L 870.00 1260.00 L 890.00 1260.00 L 910.00 1261.00 L 930.00 1262.00 L 950.00 1262.00 L 970.00 1263.00 L 990.00 1263.00 L 1010.00 1264.00 L 1030.00 1264.00 L 1050.00 1265.00 L 1070.00 1266.00 L 1090.00 1266.00 L 1110.00 1267.00 L 1130.00 1267.00 L 1150.00 1268.00 L 1170.00 1268.00 L 1190.00 1269.00 L 1210.00 1269.00 L 1230.00 1270.00 L 1250.00 1271.00 L 1270.00 1271.00 L 1290.00 1272.00 L 1310.00 1272.00 L 1330.00 1273.00 L 1350.00 1273.00 L 1370.00 1274.00 L 1390.00 1274.00 L 1410.00 1275.00 L 1430.00 1276.00 L 1450.00 1276.00 L 1470.00 1277.00 L 1490.00 1277.00 L 1510.00 1278.00 L 1530.00 1278.00 L 1550.00 1279.00 L 1570.00 1280.00 L 1590.00 1280.00 L 1610.00 1281.00 L 1630.00 1281.00 L 1650.00 1282.00 L 1670.00 1282.00 L 1690.00 1283.00 L 1710.00 1283.00 L 1730.00 1284.00 L 1750.00 1285.00 L 1770.00 1285.00 L 1790.00 1286.00 L 1810.00 1286.00 L 1830.00 1287.00 L 1850.00 1287.00 L 1870.00 1288.00 L 1890.00 1288.00 L 1910.00 1289.00 L 1930.00 1290.00 L 1950.00 1290.00 L 1970.00 1291.00 L 1990.00 1291.00 L 2010.00 1292.00 L 2030.00 1292.00 L 2050.00 1293.00 L 2070.00 1294.00 L 2090.00 1294.00 L 2110.00 1295.00 L 2130.00 1295.00 L 2150.00 1296.00 L 2170.00 1296.00 L 2190.00 1297.00 L 2210.00 1297.00 L 2230.00 1298.00 L 2250.00 1299.00 L 2270.00 1299.00 L 2290.00 1300.00 L 2310.00 1300.00 L 2330.00 1301.00 L 2350.00 1301.00 L 2370.00 1302.00 L 2390.00 1302.00 L 2410.00 1303.00 L 2430.00 1304.00 L 2450.00 1304.00 L 2470.00 1305.00 L 2490.00 1305.00 L 2510.00 1306.00 L 2520.90 1306.00 L 2528.54 1187.00 L 2510.00 1187.00 L 2490.00 1186.00 L 2470.00 1186.00 L 2450.00 1185.00 L 2430.00 1185.00 L 2410.00 1184.00 L 2390.00 1184.00 L 2370.00 1183.00 L 2350.00 1183.00 L 2330.00 1182.00 L 2310.00 1182.00 L 2290.00 1181.00 L 2270.00 1181.00 L 2250.00 1180.00 L 2230.00 1180.00 L 2210.00 1179.00 L 2190.00 1179.00 L 2170.00 1178.00 L 2150.00 1178.00 L 2130.00 1177.00 L 2110.00 1177.00 L 2090.00 1176.00 L 2070.00 1176.00 L 2050.00 1175.00 L 2030.00 1175.00 L 2010.00 1174.00 L 1990.00 1174.00 L 1970.00 1173.00 L 1950.00 1173.00 L 1930.00 1172.00 L 1910.00 1172.00 L 1890.00 1171.00 L 1870.00 1171.00 L 1850.00 1170.00 L 1830.00 1170.00 L 1810.00 1169.00 L 1790.00 1169.00 L 1770.00 1168.00 L 1750.00 1168.00 L 1730.00 1167.00 L 1710.00 1167.00 L 1690.00 1166.00 L 1670.00 1166.00 L 1650.00 1165.00 L 1630.00 1165.00 L 1610.00 1164.00 L 1590.00 1164.00 L 1570.00 1163.00 L 1550.00 1163.00 L 1530.00 1162.00 L 1510.00 1162.00 L 1490.00 1161.00 L 1470.00 1161.00 L 1450.00 1160.00 L 1430.00 1160.00 L 1410.00 1159.00 L 1390.00 1159.00 L 1370.00 1158.00 L 1350.00 1158.00 L 1330.00 1157.00 L 1310.00 1157.00 L 1290.00 1156.00 L 1270.00 1156.00 L 1250.00 1155.00 L 1230.00 1155.00 L 1210.00 1154.00 L 1190.00 1154.00 L 1170.00 1153.00 L 1150.00 1153.00 L 1130.00 1152.00 L 1110.00 1152.00 L 1090.00 1151.00 L 1070.00 1151.00 L 1050.00 1150.00 L 1030.00 1150.00 L 1010.00 1149.00 L 990.00 1149.00 L 970.00 1148.00 L 950.00 1148.00 L 930.00 1147.00 L 910.00 1147.00 L 890.00 1146.00 L 870.00 1146.00 L 850.00 1145.00 L 830.00 1145.00 L 810.00 1144.00 L 790.00 1144.00 L 770.00 1143.00 L 750.00 1143.00 L 730.00 1122.00 L 710.00 1122.00 L 690.00 1121.00 Z" />
<path id="csg562-057-05" fill="none" stroke="black" stroke-width="1" d="M 410.00 1247.00 L 408.91 1247.55 L 403.60 1363.20 L 410.00 1360.00 L 430.00 1361.00 L 450.00 1361.00 L 470.00 1362.00 L 490.00 1363.00 L 510.00 1363.00 L 530.00 1364.00 L 550.00 1364.00 L 570.00 1365.00 L 590.00 1366.00 L 610.00 1366.00 L 630.00 1367.00 L 650.00 1367.00 L 670.00 1368.00 L 690.00 1369.00 L 710.00 1369.00 L 730.00 1370.00 L 750.00 1370.00 L 770.00 1371.00 L 790.00 1372.00 L 810.00 1372.00 L 830.00 1373.00 L 850.00 1374.00 L 870.00 1374.00 L 890.00 1375.00 L 910.00 1375.00 L 930.00 1376.00 L 950.00 1377.00 L 970.00 1377.00 L 990.00 1378.00 L 1010.00 1378.00 L 1030.00 1379.00 L 1050.00 1380.00 L 1070.00 1380.00 L 1090.00 1381.00 L 1110.00 1381.00 L 1130.00 1382.00 L 1150.00 1383.00 L 1170.00 1383.00 L 1190.00 1384.00 L 1210.00 1384.00 L 1230.00 1385.00 L 1250.00 1386.00 L 1270.00 1386.00 L 1290.00 1387.00 L 1310.00 1388.00 L 1330.00 1388.00 L 1350.00 1389.00 L 1370.00 1389.00 L 1390.00 1390.00 L 1410.00 1391.00 L 1430.00 1391.00 L 1450.00 1392.00 L 1470.00 1392.00 L 1490.00 1393.00 L 1510.00 1394.00 L 1530.00 1394.00 L 1550.00 1395.00 L 1570.00 1395.00 L 1590.00 1396.00 L 1610.00 1397.00 L 1630.00 1397.00 L 1650.00 1398.00 L 1670.00 1398.00 L 1690.00 1399.00 L 1710.00 1400.00 L 1730.00 1400.00 L 1750.00 1401.00 L 1770.00 1402.00 L 1790.00 1402.00 L 1810.00 1403.00 L 1830.00 1403.00 L 1850.00 1404.00 L 1870.00 1385.00 L 1890.00 1385.00 L 1910.00 1406.00 L 1930.00 1406.00 L 1950.00 1407.00 L 1970.00 1408.00 L 1990.00 1408.00 L 2010.00 1409.00 L 2030.00 1409.00 L 2050.00 1410.00 L 2070.00 1391.00 L 2090.00 1411.00 L 2110.00 1412.00 L 2130.00 1412.00 L 2150.00 1413.00 L 2170.00 1414.00 L 2190.00 1414.00 L 2210.00 1415.00 L 2230.00 1416.00 L 2250.00 1416.00 L 2270.00 1417.00 L 2290.00 1417.00 L 2310.00 1418.00 L 2330.00 1419.00 L 2350.00 1419.00 L 2370.00 1420.00 L 2390.00 1420.00 L 2410.00 1421.00 L 2430.00 1422.00 L 2450.00 1422.00 L 2470.00 1423.00 L 2490.00 1423.00 L 2510.00 1424.00 L 2530.00 1425.00 L 2545.58 1425.00 L 2520.00 1320.00 L 2520.90 1306.00 L 2510.00 1306.00 L 2490.00 1305.00 L 2470.00 1305.00 L 2450.00 1304.00 L 2430.00 1304.00 L 2410.00 1303.00 L 2390.00 1302.00 L 2370.00 1302.00 L 2350.00 1301.00 L 2330.00 1301.00 L 2310.00 1300.00 L 2290.00 1300.00 L 2270.00 1299.00 L 2250.00 1299.00 L 2230.00 1298.00 L 2210.00 1297.00 L 2190.00 1297.00 L 2170.00 1296.00 L 2150.00 1296.00 L 2130.00 1295.00 L 2110.00 1295.00 L 2090.00 1294.00 L 2070.00 1294.00 L 2050.00 1293.00 L 2030.00 1292.00 L 2010.00 1292.00 L 1990.00 1291.00 L 1970.00 1291.00 L 1950.00 1290.00 L 1930.00 1290.00 L 1910.00 1289.00 L 1890.00 1288.00 L 1870.00 1288.00 L 1850.00 1287.00 L 1830.00 1287.00 L 1810.00 1286.00 L 1790.00 1286.00 L 1770.00 1285.00 L 1750.00 1285.00 L 1730.00 1284.00 L 1710.00 1283.00 L 1690.00 1283.00 L 1670.00 1282.00 L 1650.00 1282.00 L 1630.00 1281.00 L 1610.00 1281.00 L 1590.00 1280.00 L 1570.00 1280.00 L 1550.00 1279.00 L 1530.00 1278.00 L 1510.00 1278.00 L 1490.00 1277.00 L 1470.00 1277.00 L 1450.00 1276.00 L 1430.00 1276.00 L 1410.00 1275.00 L 1390.00 1274.00 L 1370.00 1274.00 L 1350.00 1273.00 L 1330.00 1273.00 L 1310.00 1272.00 L 1290.00 1272.00 L 1270.00 1271.00 L 1250.00 1271.00 L 1230.00 1270.00 L 1210.00 1269.00 L 1190.00 1269.00 L 1170.00 1268.00 L 1150.00 1268.00 L 1130.00 1267.00 L 1110.00 1267.00 L 1090.00 1266.00 L 1070.00 1266.00 L 1050.00 1265.00 L 1030.00 1264.00 L 1010.00 1264.00 L 990.00 1263.00 L 970.00 1263.00 L 950.00 1262.00 L 930.00 1262.00 L 910.00 1261.00 L 890.00 1260.00 L 870.00 1260.00 L 850.00 1259.00 L 830.00 1259.00 L 810.00 1258.00 L 790.00 1258.00 L 770.00 1257.00 L 750.00 1257.00 L 730.00 1256.00 L 710.00 1255.00 L 690.00 1255.00 L 670.00 1254.00 L 650.00 1254.00 L 630.00 1253.00 L 610.00 1253.00 L 590.00 1252.00 L 570.00 1252.00 L 550.00 1251.00 L 530.00 1250.00 L 510.00 1250.00 L 490.00 1249.00 L 470.00 1249.00 L 450.00 1248.00 L 430.00 1248.00 L 410.00 1247.00 Z" />
<path id="csg562-057-06" fill="none" stroke="black" stroke-width="1" d="M 410.00 1360.00 L 403.60 1363.20 L 402.00 1398.00 L 400.97 1476.51 L 410.00 1472.00 L 430.00 1473.00 L 450.00 1473.00 L 470.00 1474.00 L 490.00 1474.00 L 510.00 1475.00 L 530.00 1475.00 L 550.00 1476.00 L 570.00 1476.00 L 590.00 1477.00 L 610.00 1477.00 L 630.00 1478.00 L 650.00 1478.00 L 670.00 1479.00 L 690.00 1479.00 L 710.00 1480.00 L 730.00 1480.00 L 750.00 1481.00 L 770.00 1481.00 L 790.00 1482.00 L 810.00 1482.00 L 830.00 1483.00 L 850.00 1484.00 L 870.00 1484.00 L 890.00 1485.00 L 910.00 1485.00 L 930.00 1486.00 L 950.00 1486.00 L 970.00 1487.00 L 990.00 1487.00 L 1010.00 1488.00 L 1030.00 1488.00 L 1050.00 1489.00 L 1070.00 1489.00 L 1090.00 1490.00 L 1110.00 1490.00 L 1130.00 1491.00 L 1150.00 1491.00 L 1170.00 1492.00 L 1190.00 1492.00 L 1210.00 1493.00 L 1230.00 1493.00 L 1250.00 1494.00 L 1270.00 1495.00 L 1290.00 1495.00 L 1310.00 1496.00 L 1330.00 1496.00 L 1350.00 1497.00 L 1370.00 1497.00 L 1390.00 1498.00 L 1410.00 1498.00 L 1430.00 1499.00 L 1450.00 1499.00 L 1470.00 1500.00 L 1490.00 1500.00 L 1510.00 1501.00 L 1530.00 1501.00 L 1550.00 1502.00 L 1570.00 1502.00 L 1590.00 1503.00 L 1610.00 1503.00 L 1630.00 1504.00 L 1650.00 1504.00 L 1670.00 1505.00 L 1690.00 1505.00 L 1710.00 1506.00 L 1730.00 1507.00 L 1750.00 1507.00 L 1770.00 1508.00 L 1790.00 1508.00 L 1810.00 1509.00 L 1830.00 1509.00 L 1850.00 1510.00 L 1870.00 1510.00 L 1890.00 1511.00 L 1910.00 1511.00 L 1930.00 1512.00 L 1950.00 1512.00 L 1970.00 1513.00 L 1990.00 1513.00 L 2010.00 1514.00 L 2030.00 1514.00 L 2050.00 1515.00 L 2070.00 1515.00 L 2090.00 1516.00 L 2110.00 1516.00 L 2130.00 1517.00 L 2150.00 1518.00 L 2170.00 1518.00 L 2190.00 1479.00 L 2210.00 1499.00 L 2230.00 1520.00 L 2250.00 1520.00 L 2270.00 1521.00 L 2290.00 1521.00 L 2310.00 1522.00 L 2330.00 1522.00 L 2350.00 1523.00 L 2370.00 1523.00 L 2390.00 1524.00 L 2410.00 1524.00 L 2430.00 1525.00 L 2450.00 1525.00 L 2470.00 1526.00 L 2490.00 1526.00 L 2510.00 1527.00 L 2530.00 1527.00 L 2550.00 1528.00 L 2570.00 1528.00 L 2570.69 1528.10 L 2545.58 1425.00 L 2530.00 1425.00 L 2510.00 1424.00 L 2490.00 1423.00 L 2470.00 1423.00 L 2450.00 1422.00 L 2430.00 1422.00 L 2410.00 1421.00 L 2390.00 1420.00 L 2370.00 1420.00 L 2350.00 1419.00 L 2330.00 1419.00 L 2310.00 1418.00 L 2290.00 1417.00 L 2270.00 1417.00 L 2250.00 1416.00 L 2230.00 1416.00 L 2210.00 1415.00 L 2190.00 1414.00 L 2170.00 1414.00 L 2150.00 1413.00 L 2130.00 1412.00 L 2110.00 1412.00 L 2090.00 1411.00 L 2070.00 1391.00 L 2050.00 1410.00 L 2030.00 1409.00 L 2010.00 1409.00 L 1990.00 1408.00 L 1970.00 1408.00 L 1950.00 1407.00 L 1930.00 1406.00 L 1910.00 1406.00 L 1890.00 1385.00 L 1870.00 1385.00 L 1850.00 1404.00 L 1830.00 1403.00 L 1810.00 1403.00 L 1790.00 1402.00 L 1770.00 1402.00 L 1750.00 1401.00 L 1730.00 1400.00 L 1710.00 1400.00 L 1690.00 1399.00 L 1670.00 1398.00 L 1650.00 1398.00 L 1630.00 1397.00 L 1610.00 1397.00 L 1590.00 1396.00 L 1570.00 1395.00 L 1550.00 1395.00 L 1530.00 1394.00 L 1510.00 1394.00 L 1490.00 1393.00 L 1470.00 1392.00 L 1450.00 1392.00 L 1430.00 1391.00 L 1410.00 1391.00 L 1390.00 1390.00 L 1370.00 1389.00 L 1350.00 1389.00 L 1330.00 1388.00 L 1310.00 1388.00 L 1290.00 1387.00 L 1270.00 1386.00 L 1250.00 1386.00 L 1230.00 1385.00 L 1210.00 1384.00 L 1190.00 1384.00 L 1170.00 1383.00 L 1150.00 1383.00 L 1130.00 1382.00 L 1110.00 1381.00 L 1090.00 1381.00 L 1070.00 1380.00 L 1050.00 1380.00 L 1030.00 1379.00 L 1010.00 1378.00 L 990.00 1378.00 L 970.00 1377.00 L 950.00 1377.00 L 930.00 1376.00 L 910.00 1375.00 L 890.00 1375.00 L 870.00 1374.00 L 850.00 1374.00 L 830.00 1373.00 L 810.00 1372.00 L 790.00 1372.00 L 770.00 1371.00 L 750.00 1370.00 L 730.00 1370.00 L 710.00 1369.00 L 690.00 1369.00 L 670.00 1368.00 L 650.00 1367.00 L 630.00 1367.00 L 610.00 1366.00 L 590.00 1366.00 L 570.00 1365.00 L 550.00 1364.00 L 530.00 1364.00 L 510.00 1363.00 L 490.00 1363.00 L 470.00 1362.00 L 450.00 1361.00 L 430.00 1361.00 L 410.00 1360.00 Z" />
<path id="csg562-057-07" fill="none" stroke="black" stroke-width="1" d="M 410.00 1472.00 L 400.97 1476.51 L 399.43 1594.29 L 410.00 1589.00 L 430.00 1589.00 L 450.00 1590.00 L 470.00 1590.00 L 490.00 1591.00 L 510.00 1591.00 L 530.00 1592.00 L 550.00 1592.00 L 570.00 1593.00 L 610.00 1593.00 L 630.00 1594.00 L 650.00 1594.00 L 670.00 1595.00 L 690.00 1595.00 L 710.00 1596.00 L 730.00 1596.00 L 750.00 1597.00 L 790.00 1597.00 L 810.00 1598.00 L 830.00 1598.00 L 850.00 1599.00 L 870.00 1599.00 L 890.00 1600.00 L 910.00 1600.00 L 930.00 1601.00 L 970.00 1601.00 L 990.00 1602.00 L 1010.00 1602.00 L 1030.00 1603.00 L 1050.00 1603.00 L 1070.00 1604.00 L 1090.00 1604.00 L 1110.00 1605.00 L 1150.00 1605.00 L 1170.00 1606.00 L 1190.00 1606.00 L 1210.00 1607.00 L 1230.00 1607.00 L 1250.00 1608.00 L 1270.00 1608.00 L 1290.00 1609.00 L 1330.00 1609.00 L 1350.00 1610.00 L 1370.00 1610.00 L 1390.00 1611.00 L 1410.00 1611.00 L 1430.00 1612.00 L 1450.00 1612.00 L 1470.00 1613.00 L 1510.00 1613.00 L 1530.00 1614.00 L 1550.00 1614.00 L 1570.00 1615.00 L 1590.00 1615.00 L 1610.00 1616.00 L 1630.00 1596.00 L 1650.00 1597.00 L 1670.00 1577.00 L 1690.00 1598.00 L 1730.00 1598.00 L 1750.00 1619.00 L 1770.00 1619.00 L 1790.00 1620.00 L 1810.00 1620.00 L 1830.00 1621.00 L 1850.00 1621.00 L 1870.00 1622.00 L 1910.00 1622.00 L 1930.00 1623.00 L 1950.00 1623.00 L 1970.00 1624.00 L 1990.00 1624.00 L 2010.00 1625.00 L 2030.00 1625.00 L 2050.00 1626.00 L 2090.00 1626.00 L 2110.00 1627.00 L 2130.00 1627.00 L 2150.00 1628.00 L 2170.00 1628.00 L 2190.00 1629.00 L 2210.00 1629.00 L 2230.00 1630.00 L 2270.00 1630.00 L 2290.00 1631.00 L 2310.00 1631.00 L 2330.00 1632.00 L 2350.00 1632.00 L 2370.00 1633.00 L 2390.00 1633.00 L 2410.00 1634.00 L 2450.00 1634.00 L 2470.00 1635.00 L 2490.00 1635.00 L 2510.00 1636.00 L 2530.00 1636.00 L 2550.00 1637.00 L 2570.00 1637.00 L 2570.36 1637.05 L 2577.00 1554.00 L 2570.69 1528.10 L 2570.00 1528.00 L 2550.00 1528.00 L 2530.00 1527.00 L 2510.00 1527.00 L 2490.00 1526.00 L 2470.00 1526.00 L 2450.00 1525.00 L 2430.00 1525.00 L 2410.00 1524.00 L 2390.00 1524.00 L 2370.00 1523.00 L 2350.00 1523.00 L 2330.00 1522.00 L 2310.00 1522.00 L 2290.00 1521.00 L 2270.00 1521.00 L 2250.00 1520.00 L 2230.00 1520.00 L 2210.00 1499.00 L 2190.00 1479.00 L 2170.00 1518.00 L 2150.00 1518.00 L 2130.00 1517.00 L 2110.00 1516.00 L 2090.00 1516.00 L 2070.00 1515.00 L 2050.00 1515.00 L 2030.00 1514.00 L 2010.00 1514.00 L 1990.00 1513.00 L 1970.00 1513.00 L 1950.00 1512.00 L 1930.00 1512.00 L 1910.00 1511.00 L 1890.00 1511.00 L 1870.00 1510.00 L 1850.00 1510.00 L 1830.00 1509.00 L 1810.00 1509.00 L 1790.00 1508.00 L 1770.00 1508.00 L 1750.00 1507.00 L 1730.00 1507.00 L 1710.00 1506.00 L 1690.00 1505.00 L 1670.00 1505.00 L 1650.00 1504.00 L 1630.00 1504.00 L 1610.00 1503.00 L 1590.00 1503.00 L 1570.00 1502.00 L 1550.00 1502.00 L 1530.00 1501.00 L 1510.00 1501.00 L 1490.00 1500.00 L 1470.00 1500.00 L 1450.00 1499.00 L 1430.00 1499.00 L 1410.00 1498.00 L 1390.00 1498.00 L 1370.00 1497.00 L 1350.00 1497.00 L 1330.00 1496.00 L 1310.00 1496.00 L 1290.00 1495.00 L 1270.00 1495.00 L 1250.00 1494.00 L 1230.00 1493.00 L 1210.00 1493.00 L 1190.00 1492.00 L 1170.00 1492.00 L 1150.00 1491.00 L 1130.00 1491.00 L 1110.00 1490.00 L 1090.00 1490.00 L 1070.00 1489.00 L 1050.00 1489.00 L 1030.00 1488.00 L 1010.00 1488.00 L 990.00 1487.00 L 970.00 1487.00 L 950.00 1486.00 L 930.00 1486.00 L 910.00 1485.00 L 890.00 1485.00 L 870.00 1484.00 L 850.00 1484.00 L 830.00 1483.00 L 810.00 1482.00 L 790.00 1482.00 L 770.00 1481.00 L 750.00 1481.00 L 730.00 1480.00 L 710.00 1480.00 L 690.00 1479.00 L 670.00 1479.00 L 650.00 1478.00 L 630.00 1478.00 L 610.00 1477.00 L 590.00 1477.00 L 570.00 1476.00 L 550.00 1476.00 L 530.00 1475.00 L 510.00 1475.00 L 490.00 1474.00 L 470.00 1474.00 L 450.00 1473.00 L 430.00 1473.00 L 410.00 1472.00 Z" />
<path id="csg562-057-08" fill="none" stroke="black" stroke-width="1" d="M 1670.00 1577.00 L 1650.00 1597.00 L 1630.00 1596.00 L 1610.00 1616.00 L 1590.00 1615.00 L 1570.00 1615.00 L 1550.00 1614.00 L 1530.00 1614.00 L 1510.00 1613.00 L 1470.00 1613.00 L 1450.00 1612.00 L 1430.00 1612.00 L 1410.00 1611.00 L 1390.00 1611.00 L 1370.00 1610.00 L 1350.00 1610.00 L 1330.00 1609.00 L 1290.00 1609.00 L 1270.00 1608.00 L 1250.00 1608.00 L 1230.00 1607.00 L 1210.00 1607.00 L 1190.00 1606.00 L 1170.00 1606.00 L 1150.00 1605.00 L 1110.00 1605.00 L 1090.00 1604.00 L 1070.00 1604.00 L 1050.00 1603.00 L 1030.00 1603.00 L 1010.00 1602.00 L 990.00 1602.00 L 970.00 1601.00 L 930.00 1601.00 L 910.00 1600.00 L 890.00 1600.00 L 870.00 1599.00 L 850.00 1599.00 L 830.00 1598.00 L 810.00 1598.00 L 790.00 1597.00 L 750.00 1597.00 L 730.00 1596.00 L 710.00 1596.00 L 690.00 1595.00 L 670.00 1595.00 L 650.00 1594.00 L 630.00 1594.00 L 610.00 1593.00 L 570.00 1593.00 L 550.00 1592.00 L 530.00 1592.00 L 510.00 1591.00 L 490.00 1591.00 L 470.00 1590.00 L 450.00 1590.00 L 430.00 1589.00 L 410.00 1589.00 L 399.43 1594.29 L 397.88 1712.06 L 410.00 1706.00 L 430.00 1706.00 L 450.00 1707.00 L 490.00 1707.00 L 510.00 1708.00 L 530.00 1708.00 L 550.00 1709.00 L 590.00 1709.00 L 610.00 1690.00 L 630.00 1710.00 L 650.00 1710.00 L 670.00 1711.00 L 690.00 1711.00 L 710.00 1712.00 L 750.00 1712.00 L 770.00 1713.00 L 810.00 1713.00 L 830.00 1714.00 L 850.00 1714.00 L 870.00 1715.00 L 910.00 1715.00 L 930.00 1716.00 L 950.00 1716.00 L 970.00 1696.00 L 990.00 1677.00 L 1010.00 1677.00 L 1030.00 1678.00 L 1070.00 1678.00 L 1090.00 1699.00 L 1110.00 1719.00 L 1130.00 1719.00 L 1150.00 1720.00 L 1170.00 1720.00 L 1190.00 1721.00 L 1230.00 1721.00 L 1250.00 1722.00 L 1270.00 1722.00 L 1290.00 1723.00 L 1330.00 1723.00 L 1350.00 1724.00 L 1390.00 1724.00 L 1410.00 1725.00 L 1430.00 1725.00 L 1450.00 1726.00 L 1490.00 1726.00 L 1510.00 1727.00 L 1550.00 1727.00 L 1570.00 1728.00 L 1590.00 1728.00 L 1610.00 1729.00 L 1650.00 1729.00 L 1670.00 1730.00 L 1710.00 1730.00 L 1730.00 1731.00 L 1750.00 1731.00 L 1770.00 1732.00 L 1810.00 1732.00 L 1830.00 1733.00 L 1870.00 1733.00 L 1890.00 1734.00 L 1910.00 1734.00 L 1930.00 1735.00 L 1970.00 1735.00 L 1990.00 1736.00 L 2010.00 1736.00 L 2030.00 1737.00 L 2070.00 1737.00 L 2090.00 1738.00 L 2130.00 1738.00 L 2150.00 1739.00 L 2170.00 1739.00 L 2190.00 1740.00 L 2230.00 1740.00 L 2250.00 1741.00 L 2290.00 1741.00 L 2310.00 1742.00 L 2330.00 1742.00 L 2350.00 1743.00 L 2390.00 1743.00 L 2410.00 1744.00 L 2450.00 1744.00 L 2470.00 1745.00 L 2490.00 1745.00 L 2510.00 1746.00 L 2550.00 1746.00 L 2561.59 1746.58 L 2570.36 1637.05 L 2570.00 1637.00 L 2550.00 1637.00 L 2530.00 1636.00 L 2510.00 1636.00 L 2490.00 1635.00 L 2470.00 1635.00 L 2450.00 1634.00 L 2410.00 1634.00 L 2390.00 1633.00 L 2370.00 1633.00 L 2350.00 1632.00 L 2330.00 1632.00 L 2310.00 1631.00 L 2290.00 1631.00 L 2270.00 1630.00 L 2230.00 1630.00 L 2210.00 1629.00 L 2190.00 1629.00 L 2170.00 1628.00 L 2150.00 1628.00 L 2130.00 1627.00 L 2110.00 1627.00 L 2090.00 1626.00 L 2050.00 1626.00 L 2030.00 1625.00 L 2010.00 1625.00 L 1990.00 1624.00 L 1970.00 1624.00 L 1950.00 1623.00 L 1930.00 1623.00 L 1910.00 1622.00 L 1870.00 1622.00 L 1850.00 1621.00 L 1830.00 1621.00 L 1810.00 1620.00 L 1790.00 1620.00 L 1770.00 1619.00 L 1750.00 1619.00 L 1730.00 1598.00 L 1690.00 1598.00 L 1670.00 1577.00 Z" />
<path id="csg562-057-09" fill="none" stroke="black" stroke-width="1" d="M 990.00 1677.00 L 970.00 1696.00 L 950.00 1716.00 L 930.00 1716.00 L 910.00 1715.00 L 870.00 1715.00 L 850.00 1714.00 L 830.00 1714.00 L 810.00 1713.00 L 770.00 1713.00 L 750.00 1712.00 L 710.00 1712.00 L 690.00 1711.00 L 670.00 1711.00 L 650.00 1710.00 L 630.00 1710.00 L 610.00 1690.00 L 590.00 1709.00 L 550.00 1709.00 L 530.00 1708.00 L 510.00 1708.00 L 490.00 1707.00 L 450.00 1707.00 L 430.00 1706.00 L 410.00 1706.00 L 397.88 1712.06 L 396.53 1814.73 L 410.00 1808.00 L 430.00 1808.00 L 450.00 1809.00 L 470.00 1809.00 L 490.00 1810.00 L 510.00 1810.00 L 530.00 1811.00 L 550.00 1811.00 L 570.00 1812.00 L 590.00 1812.00 L 610.00 1813.00 L 630.00 1813.00 L 650.00 1814.00 L 670.00 1814.00 L 690.00 1815.00 L 710.00 1815.00 L 730.00 1816.00 L 750.00 1816.00 L 770.00 1817.00 L 790.00 1817.00 L 810.00 1818.00 L 830.00 1818.00 L 850.00 1819.00 L 870.00 1819.00 L 890.00 1820.00 L 910.00 1820.00 L 930.00 1821.00 L 950.00 1821.00 L 970.00 1822.00 L 990.00 1822.00 L 1010.00 1823.00 L 1030.00 1823.00 L 1050.00 1824.00 L 1070.00 1824.00 L 1090.00 1825.00 L 1130.00 1825.00 L 1150.00 1826.00 L 1170.00 1826.00 L 1190.00 1827.00 L 1210.00 1827.00 L 1230.00 1828.00 L 1250.00 1828.00 L 1270.00 1829.00 L 1290.00 1829.00 L 1310.00 1830.00 L 1330.00 1830.00 L 1350.00 1831.00 L 1370.00 1831.00 L 1390.00 1832.00 L 1410.00 1832.00 L 1430.00 1833.00 L 1450.00 1833.00 L 1470.00 1834.00 L 1490.00 1834.00 L 1510.00 1835.00 L 1530.00 1835.00 L 1550.00 1836.00 L 1570.00 1836.00 L 1590.00 1837.00 L 1610.00 1837.00 L 1630.00 1838.00 L 1650.00 1838.00 L 1670.00 1839.00 L 1690.00 1839.00 L 1710.00 1840.00 L 1730.00 1840.00 L 1750.00 1841.00 L 1770.00 1841.00 L 1790.00 1842.00 L 1810.00 1842.00 L 1830.00 1843.00 L 1870.00 1843.00 L 1890.00 1844.00 L 1910.00 1844.00 L 1930.00 1845.00 L 1950.00 1845.00 L 1970.00 1846.00 L 1990.00 1846.00 L 2010.00 1847.00 L 2030.00 1847.00 L 2050.00 1848.00 L 2070.00 1848.00 L 2090.00 1849.00 L 2110.00 1849.00 L 2130.00 1850.00 L 2150.00 1850.00 L 2170.00 1831.00 L 2190.00 1831.00 L 2210.00 1852.00 L 2230.00 1832.00 L 2250.00 1853.00 L 2270.00 1853.00 L 2290.00 1854.00 L 2310.00 1854.00 L 2330.00 1855.00 L 2350.00 1855.00 L 2370.00 1856.00 L 2390.00 1856.00 L 2410.00 1857.00 L 2430.00 1857.00 L 2450.00 1858.00 L 2470.00 1858.00 L 2490.00 1859.00 L 2510.00 1859.00 L 2530.00 1860.00 L 2532.37 1860.00 L 2559.00 1779.00 L 2561.59 1746.58 L 2550.00 1746.00 L 2510.00 1746.00 L 2490.00 1745.00 L 2470.00 1745.00 L 2450.00 1744.00 L 2410.00 1744.00 L 2390.00 1743.00 L 2350.00 1743.00 L 2330.00 1742.00 L 2310.00 1742.00 L 2290.00 1741.00 L 2250.00 1741.00 L 2230.00 1740.00 L 2190.00 1740.00 L 2170.00 1739.00 L 2150.00 1739.00 L 2130.00 1738.00 L 2090.00 1738.00 L 2070.00 1737.00 L 2030.00 1737.00 L 2010.00 1736.00 L 1990.00 1736.00 L 1970.00 1735.00 L 1930.00 1735.00 L 1910.00 1734.00 L 1890.00 1734.00 L 1870.00 1733.00 L 1830.00 1733.00 L 1810.00 1732.00 L 1770.00 1732.00 L 1750.00 1731.00 L 1730.00 1731.00 L 1710.00 1730.00 L 1670.00 1730.00 L 1650.00 1729.00 L 1610.00 1729.00 L 1590.00 1728.00 L 1570.00 1728.00 L 1550.00 1727.00 L 1510.00 1727.00 L 1490.00 1726.00 L 1450.00 1726.00 L 1430.00 1725.00 L 1410.00 1725.00 L 1390.00 1724.00 L 1350.00 1724.00 L 1330.00 1723.00 L 1290.00 1723.00 L 1270.00 1722.00 L 1250.00 1722.00 L 1230.00 1721.00 L 1190.00 1721.00 L 1170.00 1720.00 L 1150.00 1720.00 L 1130.00 1719.00 L 1110.00 1719.00 L 1090.00 1699.00 L 1070.00 1678.00 L 1030.00 1678.00 L 1010.00 1677.00 Z" />
<path id="csg562-057-10" fill="none" stroke="black" stroke-width="1" d="M 410.00 1808.00 L 396.53 1814.73 L 395.10 1924.45 L 410.00 1917.00 L 430.00 1918.00 L 450.00 1918.00 L 470.00 1919.00 L 490.00 1919.00 L 510.00 1920.00 L 530.00 1921.00 L 550.00 1921.00 L 570.00 1922.00 L 590.00 1922.00 L 610.00 1923.00 L 630.00 1923.00 L 650.00 1924.00 L 670.00 1925.00 L 690.00 1925.00 L 710.00 1926.00 L 730.00 1926.00 L 750.00 1927.00 L 770.00 1927.00 L 790.00 1928.00 L 810.00 1929.00 L 830.00 1929.00 L 850.00 1930.00 L 870.00 1930.00 L 890.00 1931.00 L 910.00 1931.00 L 930.00 1932.00 L 950.00 1933.00 L 970.00 1933.00 L 990.00 1934.00 L 1010.00 1934.00 L 1030.00 1935.00 L 1050.00 1935.00 L 1070.00 1936.00 L 1090.00 1937.00 L 1110.00 1937.00 L 1130.00 1938.00 L 1150.00 1938.00 L 1170.00 1939.00 L 1190.00 1940.00 L 1210.00 1940.00 L 1230.00 1941.00 L 1250.00 1941.00 L 1270.00 1942.00 L 1290.00 1942.00 L 1310.00 1943.00 L 1330.00 1944.00 L 1350.00 1944.00 L 1370.00 1945.00 L 1390.00 1945.00 L 1410.00 1946.00 L 1430.00 1946.00 L 1450.00 1947.00 L 1470.00 1948.00 L 1490.00 1948.00 L 1510.00 1949.00 L 1530.00 1949.00 L 1550.00 1950.00 L 1570.00 1950.00 L 1590.00 1951.00 L 1610.00 1952.00 L 1630.00 1952.00 L 1650.00 1953.00 L 1670.00 1953.00 L 1690.00 1954.00 L 1710.00 1954.00 L 1730.00 1955.00 L 1750.00 1956.00 L 1770.00 1956.00 L 1790.00 1957.00 L 1810.00 1957.00 L 1830.00 1958.00 L 1850.00 1958.00 L 1870.00 1959.00 L 1890.00 1960.00 L 1910.00 1960.00 L 1930.00 1961.00 L 1950.00 1961.00 L 1970.00 1962.00 L 1990.00 1963.00 L 2010.00 1963.00 L 2030.00 1964.00 L 2050.00 1964.00 L 2070.00 1965.00 L 2090.00 1965.00 L 2110.00 1966.00 L 2130.00 1967.00 L 2150.00 1967.00 L 2170.00 1968.00 L 2190.00 1968.00 L 2210.00 1969.00 L 2230.00 1969.00 L 2250.00 1970.00 L 2270.00 1971.00 L 2290.00 1971.00 L 2310.00 1972.00 L 2330.00 1972.00 L 2350.00 1973.00 L 2370.00 1973.00 L 2390.00 1974.00 L 2410.00 1975.00 L 2430.00 1975.00 L 2450.00 1976.00 L 2470.00 1976.00 L 2490.00 1977.00 L 2493.90 1977.00 L 2532.37 1860.00 L 2530.00 1860.00 L 2510.00 1859.00 L 2490.00 1859.00 L 2470.00 1858.00 L 2450.00 1858.00 L 2430.00 1857.00 L 2410.00 1857.00 L 2390.00 1856.00 L 2370.00 1856.00 L 2350.00 1855.00 L 2330.00 1855.00 L 2310.00 1854.00 L 2290.00 1854.00 L 2270.00 1853.00 L 2250.00 1853.00 L 2230.00 1832.00 L 2210.00 1852.00 L 2190.00 1831.00 L 2170.00 1831.00 L 2150.00 1850.00 L 2130.00 1850.00 L 2110.00 1849.00 L 2090.00 1849.00 L 2070.00 1848.00 L 2050.00 1848.00 L 2030.00 1847.00 L 2010.00 1847.00 L 1990.00 1846.00 L 1970.00 1846.00 L 1950.00 1845.00 L 1930.00 1845.00 L 1910.00 1844.00 L 1890.00 1844.00 L 1870.00 1843.00 L 1830.00 1843.00 L 1810.00 1842.00 L 1790.00 1842.00 L 1770.00 1841.00 L 1750.00 1841.00 L 1730.00 1840.00 L 1710.00 1840.00 L 1690.00 1839.00 L 1670.00 1839.00 L 1650.00 1838.00 L 1630.00 1838.00 L 1610.00 1837.00 L 1590.00 1837.00 L 1570.00 1836.00 L 1550.00 1836.00 L 1530.00 1835.00 L 1510.00 1835.00 L 1490.00 1834.00 L 1470.00 1834.00 L 1450.00 1833.00 L 1430.00 1833.00 L 1410.00 1832.00 L 1390.00 1832.00 L 1370.00 1831.00 L 1350.00 1831.00 L 1330.00 1830.00 L 1310.00 1830.00 L 1290.00 1829.00 L 1270.00 1829.00 L 1250.00 1828.00 L 1230.00 1828.00 L 1210.00 1827.00 L 1190.00 1827.00 L 1170.00 1826.00 L 1150.00 1826.00 L 1130.00 1825.00 L 1090.00 1825.00 L 1070.00 1824.00 L 1050.00 1824.00 L 1030.00 1823.00 L 1010.00 1823.00 L 990.00 1822.00 L 970.00 1822.00 L 950.00 1821.00 L 930.00 1821.00 L 910.00 1820.00 L 890.00 1820.00 L 870.00 1819.00 L 850.00 1819.00 L 830.00 1818.00 L 810.00 1818.00 L 790.00 1817.00 L 770.00 1817.00 L 750.00 1816.00 L 730.00 1816.00 L 710.00 1815.00 L 690.00 1815.00 L 670.00 1814.00 L 650.00 1814.00 L 630.00 1813.00 L 610.00 1813.00 L 590.00 1812.00 L 570.00 1812.00 L 550.00 1811.00 L 530.00 1811.00 L 510.00 1810.00 L 490.00 1810.00 L 470.00 1809.00 L 450.00 1809.00 L 430.00 1808.00 Z" />
<path id="csg562-057-11" fill="none" stroke="black" stroke-width="1" d="M 410.00 1917.00 L 395.10 1924.45 L 393.62 2037.19 L 410.00 2029.00 L 430.00 2030.00 L 450.00 2030.00 L 470.00 2031.00 L 490.00 2032.00 L 510.00 2032.00 L 530.00 2033.00 L 550.00 2034.00 L 570.00 2034.00 L 590.00 2035.00 L 610.00 2035.00 L 630.00 2036.00 L 650.00 2037.00 L 670.00 2037.00 L 690.00 2033.00 L 710.00 2011.00 L 730.00 2009.00 L 750.00 2013.00 L 770.00 2040.00 L 790.00 2041.00 L 810.00 2042.00 L 830.00 2042.00 L 850.00 2043.00 L 870.00 2044.00 L 890.00 2044.00 L 910.00 2045.00 L 930.00 2045.00 L 950.00 2046.00 L 970.00 2047.00 L 990.00 2047.00 L 1010.00 2048.00 L 1030.00 2049.00 L 1050.00 2049.00 L 1070.00 2050.00 L 1090.00 2050.00 L 1110.00 2051.00 L 1130.00 2052.00 L 1150.00 2052.00 L 1170.00 2053.00 L 1190.00 2054.00 L 1210.00 2054.00 L 1230.00 2055.00 L 1250.00 2055.00 L 1270.00 2056.00 L 1290.00 2057.00 L 1310.00 2057.00 L 1330.00 2058.00 L 1350.00 2059.00 L 1370.00 2059.00 L 1390.00 2060.00 L 1410.00 2060.00 L 1430.00 2061.00 L 1450.00 2062.00 L 1470.00 2062.00 L 1490.00 2063.00 L 1510.00 2064.00 L 1530.00 2064.00 L 1550.00 2065.00 L 1570.00 2065.00 L 1590.00 2066.00 L 1610.00 2067.00 L 1630.00 2067.00 L 1650.00 2068.00 L 1670.00 2069.00 L 1690.00 2069.00 L 1710.00 2070.00 L 1730.00 2030.00 L 1750.00 2031.00 L 1770.00 2032.00 L 1790.00 2072.00 L 1810.00 2073.00 L 1830.00 2074.00 L 1850.00 2074.00 L 1870.00 2075.00 L 1890.00 2075.00 L 1910.00 2076.00 L 1930.00 2077.00 L 1950.00 2077.00 L 1970.00 2078.00 L 1990.00 2079.00 L 2010.00 2079.00 L 2030.00 2080.00 L 2050.00 2080.00 L 2070.00 2081.00 L 2090.00 2082.00 L 2110.00 2082.00 L 2130.00 2083.00 L 2150.00 2084.00 L 2170.00 2084.00 L 2190.00 2085.00 L 2210.00 2085.00 L 2230.00 2086.00 L 2250.00 2087.00 L 2270.00 2087.00 L 2290.00 2088.00 L 2310.00 2089.00 L 2330.00 2089.00 L 2350.00 2090.00 L 2370.00 2090.00 L 2390.00 2091.00 L 2410.00 2092.00 L 2430.00 2092.00 L 2450.00 2093.00 L 2469.46 2093.97 L 2487.00 1998.00 L 2493.90 1977.00 L 2490.00 1977.00 L 2470.00 1976.00 L 2450.00 1976.00 L 2430.00 1975.00 L 2410.00 1975.00 L 2390.00 1974.00 L 2370.00 1973.00 L 2350.00 1973.00 L 2330.00 1972.00 L 2310.00 1972.00 L 2290.00 1971.00 L 2270.00 1971.00 L 2250.00 1970.00 L 2230.00 1969.00 L 2210.00 1969.00 L 2190.00 1968.00 L 2170.00 1968.00 L 2150.00 1967.00 L 2130.00 1967.00 L 2110.00 1966.00 L 2090.00 1965.00 L 2070.00 1965.00 L 2050.00 1964.00 L 2030.00 1964.00 L 2010.00 1963.00 L 1990.00 1963.00 L 1970.00 1962.00 L 1950.00 1961.00 L 1930.00 1961.00 L 1910.00 1960.00 L 1890.00 1960.00 L 1870.00 1959.00 L 1850.00 1958.00 L 1830.00 1958.00 L 1810.00 1957.00 L 1790.00 1957.00 L 1770.00 1956.00 L 1750.00 1956.00 L 1730.00 1955.00 L 1710.00 1954.00 L 1690.00 1954.00 L 1670.00 1953.00 L 1650.00 1953.00 L 1630.00 1952.00 L 1610.00 1952.00 L 1590.00 1951.00 L 1570.00 1950.00 L 1550.00 1950.00 L 1530.00 1949.00 L 1510.00 1949.00 L 1490.00 1948.00 L 1470.00 1948.00 L 1450.00 1947.00 L 1430.00 1946.00 L 1410.00 1946.00 L 1390.00 1945.00 L 1370.00 1945.00 L 1350.00 1944.00 L 1330.00 1944.00 L 1310.00 1943.00 L 1290.00 1942.00 L 1270.00 1942.00 L 1250.00 1941.00 L 1230.00 1941.00 L 1210.00 1940.00 L 1190.00 1940.00 L 1170.00 1939.00 L 1150.00 1938.00 L 1130.00 1938.00 L 1110.00 1937.00 L 1090.00 1937.00 L 1070.00 1936.00 L 1050.00 1935.00 L 1030.00 1935.00 L 1010.00 1934.00 L 990.00 1934.00 L 970.00 1933.00 L 950.00 1933.00 L 930.00 1932.00 L 910.00 1931.00 L 890.00 1931.00 L 870.00 1930.00 L 850.00 1930.00 L 830.00 1929.00 L 810.00 1929.00 L 790.00 1928.00 L 770.00 1927.00 L 750.00 1927.00 L 730.00 1926.00 L 710.00 1926.00 L 690.00 1925.00 L 670.00 1925.00 L 650.00 1924.00 L 630.00 1923.00 L 610.00 1923.00 L 590.00 1922.00 L 570.00 1922.00 L 550.00 1921.00 L 530.00 1921.00 L 510.00 1920.00 L 490.00 1919.00 L 470.00 1919.00 L 450.00 1918.00 L 430.00 1918.00 L 410.00 1917.00 Z" />
<path id="csg562-057-12" fill="none" stroke="black" stroke-width="1" d="M 730.00 2009.00 L 710.00 2011.00 L 690.00 2033.00 L 670.00 2037.00 L 650.00 2037.00 L 630.00 2036.00 L 610.00 2035.00 L 590.00 2035.00 L 570.00 2034.00 L 550.00 2034.00 L 530.00 2033.00 L 510.00 2032.00 L 490.00 2032.00 L 470.00 2031.00 L 450.00 2030.00 L 430.00 2030.00 L 410.00 2029.00 L 393.62 2037.19 L 392.09 2153.96 L 410.00 2145.00 L 430.00 2146.00 L 450.00 2147.00 L 470.00 2147.00 L 490.00 2148.00 L 510.00 2149.00 L 530.00 2150.00 L 550.00 2150.00 L 570.00 2151.00 L 590.00 2152.00 L 610.00 2153.00 L 630.00 2153.00 L 650.00 2154.00 L 670.00 2155.00 L 690.00 2155.00 L 710.00 2156.00 L 730.00 2157.00 L 750.00 2158.00 L 770.00 2158.00 L 790.00 2159.00 L 810.00 2160.00 L 830.00 2161.00 L 850.00 2161.00 L 870.00 2162.00 L 890.00 2163.00 L 910.00 2164.00 L 930.00 2164.00 L 950.00 2165.00 L 970.00 2166.00 L 990.00 2166.00 L 1010.00 2167.00 L 1030.00 2168.00 L 1050.00 2169.00 L 1070.00 2169.00 L 1090.00 2170.00 L 1110.00 2171.00 L 1130.00 2172.00 L 1150.00 2172.00 L 1170.00 2173.00 L 1190.00 2174.00 L 1210.00 2175.00 L 1230.00 2175.00 L 1250.00 2176.00 L 1270.00 2177.00 L 1290.00 2177.00 L 1310.00 2178.00 L 1330.00 2179.00 L 1350.00 2180.00 L 1370.00 2180.00 L 1390.00 2181.00 L 1410.00 2182.00 L 1430.00 2183.00 L 1450.00 2183.00 L 1470.00 2184.00 L 1490.00 2185.00 L 1510.00 2185.00 L 1530.00 2186.00 L 1550.00 2187.00 L 1570.00 2188.00 L 1590.00 2188.00 L 1610.00 2189.00 L 1630.00 2190.00 L 1650.00 2191.00 L 1670.00 2191.00 L 1690.00 2192.00 L 1710.00 2193.00 L 1730.00 2194.00 L 1750.00 2194.00 L 1770.00 2195.00 L 1790.00 2196.00 L 1810.00 2196.00 L 1830.00 2197.00 L 1850.00 2178.00 L 1870.00 2179.00 L 1890.00 2179.00 L 1910.00 2180.00 L 1930.00 2201.00 L 1950.00 2202.00 L 1970.00 2202.00 L 1990.00 2203.00 L 2010.00 2204.00 L 2030.00 2205.00 L 2050.00 2205.00 L 2070.00 2206.00 L 2090.00 2207.00 L 2110.00 2207.00 L 2130.00 2208.00 L 2150.00 2189.00 L 2170.00 2190.00 L 2190.00 2190.00 L 2210.00 2211.00 L 2230.00 2212.00 L 2250.00 2213.00 L 2270.00 2213.00 L 2290.00 2214.00 L 2310.00 2215.00 L 2330.00 2216.00 L 2350.00 2216.00 L 2370.00 2217.00 L 2390.00 2218.00 L 2410.00 2218.00 L 2430.00 2219.00 L 2446.45 2219.82 L 2469.46 2093.97 L 2450.00 2093.00 L 2430.00 2092.00 L 2410.00 2092.00 L 2390.00 2091.00 L 2370.00 2090.00 L 2350.00 2090.00 L 2330.00 2089.00 L 2310.00 2089.00 L 2290.00 2088.00 L 2270.00 2087.00 L 2250.00 2087.00 L 2230.00 2086.00 L 2210.00 2085.00 L 2190.00 2085.00 L 2170.00 2084.00 L 2150.00 2084.00 L 2130.00 2083.00 L 2110.00 2082.00 L 2090.00 2082.00 L 2070.00 2081.00 L 2050.00 2080.00 L 2030.00 2080.00 L 2010.00 2079.00 L 1990.00 2079.00 L 1970.00 2078.00 L 1950.00 2077.00 L 1930.00 2077.00 L 1910.00 2076.00 L 1890.00 2075.00 L 1870.00 2075.00 L 1850.00 2074.00 L 1830.00 2074.00 L 1810.00 2073.00 L 1790.00 2072.00 L 1770.00 2032.00 L 1750.00 2031.00 L 1730.00 2030.00 L 1710.00 2070.00 L 1690.00 2069.00 L 1670.00 2069.00 L 1650.00 2068.00 L 1630.00 2067.00 L 1610.00 2067.00 L 1590.00 2066.00 L 1570.00 2065.00 L 1550.00 2065.00 L 1530.00 2064.00 L 1510.00 2064.00 L 1490.00 2063.00 L 1470.00 2062.00 L 1450.00 2062.00 L 1430.00 2061.00 L 1410.00 2060.00 L 1390.00 2060.00 L 1370.00 2059.00 L 1350.00 2059.00 L 1330.00 2058.00 L 1310.00 2057.00 L 1290.00 2057.00 L 1270.00 2056.00 L 1250.00 2055.00 L 1230.00 2055.00 L 1210.00 2054.00 L 1190.00 2054.00 L 1170.00 2053.00 L 1150.00 2052.00 L 1130.00 2052.00 L 1110.00 2051.00 L 1090.00 2050.00 L 1070.00 2050.00 L 1050.00 2049.00 L 1030.00 2049.00 L 1010.00 2048.00 L 990.00 2047.00 L 970.00 2047.00 L 950.00 2046.00 L 930.00 2045.00 L 910.00 2045.00 L 890.00 2044.00 L 870.00 2044.00 L 850.00 2043.00 L 830.00 2042.00 L 810.00 2042.00 L 790.00 2041.00 L 770.00 2040.00 L 750.00 2013.00 L 730.00 2009.00 Z" />
<path id="csg562-057-13" fill="none" stroke="black" stroke-width="1" d="M 410.00 2145.00 L 392.09 2153.96 L 390.62 2265.69 L 410.00 2256.00 L 430.00 2257.00 L 450.00 2258.00 L 470.00 2258.00 L 490.00 2259.00 L 510.00 2260.00 L 530.00 2261.00 L 550.00 2261.00 L 570.00 2262.00 L 590.00 2263.00 L 610.00 2264.00 L 630.00 2264.00 L 650.00 2265.00 L 670.00 2266.00 L 690.00 2266.00 L 710.00 2267.00 L 730.00 2268.00 L 750.00 2269.00 L 770.00 2269.00 L 790.00 2270.00 L 810.00 2271.00 L 830.00 2272.00 L 850.00 2272.00 L 870.00 2273.00 L 890.00 2274.00 L 910.00 2275.00 L 930.00 2275.00 L 950.00 2276.00 L 970.00 2277.00 L 990.00 2277.00 L 1010.00 2278.00 L 1030.00 2279.00 L 1050.00 2280.00 L 1070.00 2280.00 L 1090.00 2281.00 L 1110.00 2282.00 L 1130.00 2283.00 L 1150.00 2283.00 L 1170.00 2284.00 L 1190.00 2285.00 L 1210.00 2286.00 L 1230.00 2286.00 L 1243.17 2286.66 L 1251.00 2271.00 L 1887.00 2265.00 L 2436.00 2277.00 L 2446.45 2219.82 L 2430.00 2219.00 L 2410.00 2218.00 L 2390.00 2218.00 L 2370.00 2217.00 L 2350.00 2216.00 L 2330.00 2216.00 L 2310.00 2215.00 L 2290.00 2214.00 L 2270.00 2213.00 L 2250.00 2213.00 L 2230.00 2212.00 L 2210.00 2211.00 L 2190.00 2190.00 L 2170.00 2190.00 L 2150.00 2189.00 L 2130.00 2208.00 L 2110.00 2207.00 L 2090.00 2207.00 L 2070.00 2206.00 L 2050.00 2205.00 L 2030.00 2205.00 L 2010.00 2204.00 L 1990.00 2203.00 L 1970.00 2202.00 L 1950.00 2202.00 L 1930.00 2201.00 L 1910.00 2180.00 L 1890.00 2179.00 L 1870.00 2179.00 L 1850.00 2178.00 L 1830.00 2197.00 L 1810.00 2196.00 L 1790.00 2196.00 L 1770.00 2195.00 L 1750.00 2194.00 L 1730.00 2194.00 L 1710.00 2193.00 L 1690.00 2192.00 L 1670.00 2191.00 L 1650.00 2191.00 L 1630.00 2190.00 L 1610.00 2189.00 L 1590.00 2188.00 L 1570.00 2188.00 L 1550.00 2187.00 L 1530.00 2186.00 L 1510.00 2185.00 L 1490.00 2185.00 L 1470.00 2184.00 L 1450.00 2183.00 L 1430.00 2183.00 L 1410.00 2182.00 L 1390.00 2181.00 L 1370.00 2180.00 L 1350.00 2180.00 L 1330.00 2179.00 L 1310.00 2178.00 L 1290.00 2177.00 L 1270.00 2177.00 L 1250.00 2176.00 L 1230.00 2175.00 L 1210.00 2175.00 L 1190.00 2174.00 L 1170.00 2173.00 L 1150.00 2172.00 L 1130.00 2172.00 L 1110.00 2171.00 L 1090.00 2170.00 L 1070.00 2169.00 L 1050.00 2169.00 L 1030.00 2168.00 L 1010.00 2167.00 L 990.00 2166.00 L 970.00 2166.00 L 950.00 2165.00 L 930.00 2164.00 L 910.00 2164.00 L 890.00 2163.00 L 870.00 2162.00 L 850.00 2161.00 L 830.00 2161.00 L 810.00 2160.00 L 790.00 2159.00 L 770.00 2158.00 L 750.00 2158.00 L 730.00 2157.00 L 710.00 2156.00 L 690.00 2155.00 L 670.00 2155.00 L 650.00 2154.00 L 630.00 2153.00 L 610.00 2153.00 L 590.00 2152.00 L 570.00 2151.00 L 550.00 2150.00 L 530.00 2150.00 L 510.00 2149.00 L 490.00 2148.00 L 470.00 2147.00 L 450.00 2147.00 L 430.00 2146.00 L 410.00 2145.00 Z" />
<path id="csg562-057-14" fill="none" stroke="black" stroke-width="1" d="M 410.00 2256.00 L 390.62 2265.69 L 390.00 2313.00 L 486.00 2352.00 L 1155.20 2366.00 L 1203.50 2366.00 L 1243.17 2286.66 L 1230.00 2286.00 L 1210.00 2286.00 L 1190.00 2285.00 L 1170.00 2284.00 L 1150.00 2283.00 L 1130.00 2283.00 L 1110.00 2282.00 L 1090.00 2281.00 L 1070.00 2280.00 L 1050.00 2280.00 L 1030.00 2279.00 L 1010.00 2278.00 L 990.00 2277.00 L 970.00 2277.00 L 950.00 2276.00 L 930.00 2275.00 L 910.00 2275.00 L 890.00 2274.00 L 870.00 2273.00 L 850.00 2272.00 L 830.00 2272.00 L 810.00 2271.00 L 790.00 2270.00 L 770.00 2269.00 L 750.00 2269.00 L 730.00 2268.00 L 710.00 2267.00 L 690.00 2266.00 L 670.00 2266.00 L 650.00 2265.00 L 630.00 2264.00 L 610.00 2264.00 L 590.00 2263.00 L 570.00 2262.00 L 550.00 2261.00 L 530.00 2261.00 L 510.00 2260.00 L 490.00 2259.00 L 470.00 2258.00 L 450.00 2258.00 L 430.00 2257.00 L 410.00 2256.00 Z" />
<path id="csg562-057-15" fill="none" stroke="black" stroke-width="1" d="M 700.64 2482.00 L 582.00 2511.00 L 586.25 2594.61 L 594.00 2595.00 L 634.00 2595.00 L 654.00 2596.00 L 674.00 2596.00 L 694.00 2597.00 L 734.00 2597.00 L 754.00 2598.00 L 774.00 2598.00 L 794.00 2599.00 L 814.00 2599.00 L 834.00 2600.00 L 874.00 2600.00 L 894.00 2601.00 L 914.00 2601.00 L 934.00 2602.00 L 974.00 2602.00 L 994.00 2603.00 L 1014.00 2603.00 L 1034.00 2604.00 L 1054.00 2604.00 L 1074.00 2605.00 L 1114.00 2605.00 L 1134.00 2606.00 L 1154.00 2606.00 L 1174.00 2607.00 L 1214.00 2607.00 L 1234.00 2608.00 L 1254.00 2608.00 L 1274.00 2609.00 L 1294.00 2609.00 L 1314.00 2610.00 L 1354.00 2610.00 L 1374.00 2611.00 L 1394.00 2611.00 L 1414.00 2612.00 L 1434.00 2612.00 L 1454.00 2613.00 L 1494.00 2613.00 L 1514.00 2614.00 L 1534.00 2614.00 L 1554.00 2615.00 L 1594.00 2615.00 L 1614.00 2616.00 L 1634.00 2616.00 L 1654.00 2617.00 L 1674.00 2617.00 L 1694.00 2618.00 L 1734.00 2618.00 L 1754.00 2619.00 L 1774.00 2619.00 L 1794.00 2620.00 L 1834.00 2620.00 L 1854.00 2621.00 L 1874.00 2621.00 L 1894.00 2622.00 L 1914.00 2622.00 L 1934.00 2623.00 L 1974.00 2623.00 L 1994.00 2624.00 L 2014.00 2624.00 L 2034.00 2625.00 L 2074.00 2625.00 L 2094.00 2626.00 L 2114.00 2626.00 L 2134.00 2627.00 L 2154.00 2627.00 L 2174.00 2628.00 L 2214.00 2628.00 L 2234.00 2629.00 L 2254.00 2629.00 L 2274.00 2630.00 L 2314.00 2630.00 L 2334.00 2631.00 L 2354.00 2631.00 L 2374.00 2632.00 L 2394.00 2632.00 L 2414.00 2633.00 L 2454.00 2633.00 L 2474.00 2634.00 L 2494.00 2634.00 L 2514.00 2635.00 L 2534.00 2635.00 L 2536.95 2635.42 L 2532.00 2553.00 L 2194.50 2513.00 L 2174.00 2513.00 L 2154.00 2512.00 L 2134.00 2512.00 L 2114.00 2511.00 L 2094.00 2511.00 L 2074.00 2510.00 L 2034.00 2510.00 L 2014.00 2509.00 L 1994.00 2509.00 L 1974.00 2508.00 L 1934.00 2508.00 L 1914.00 2507.00 L 1894.00 2507.00 L 1874.00 2506.00 L 1854.00 2506.00 L 1834.00 2505.00 L 1794.00 2505.00 L 1774.00 2504.00 L 1754.00 2504.00 L 1734.00 2503.00 L 1694.00 2503.00 L 1674.00 2502.00 L 1654.00 2502.00 L 1634.00 2501.00 L 1614.00 2501.00 L 1594.00 2500.00 L 1554.00 2500.00 L 1534.00 2499.00 L 1514.00 2499.00 L 1494.00 2498.00 L 1454.00 2498.00 L 1442.44 2497.42 L 1314.00 2496.00 L 1181.33 2492.00 L 1174.00 2492.00 L 1162.86 2491.44 L 1148.17 2491.00 L 1134.00 2491.00 L 1114.00 2490.00 L 1074.00 2490.00 L 1054.00 2489.00 L 1034.00 2489.00 L 1014.00 2488.00 L 994.00 2488.00 L 974.00 2487.00 L 934.00 2487.00 L 914.00 2486.00 L 894.00 2486.00 L 874.00 2485.00 L 834.00 2485.00 L 814.00 2484.00 L 794.00 2484.00 L 774.00 2483.00 L 754.00 2483.00 L 734.00 2482.00 Z" />
<path id="csg562-057-16" fill="none" stroke="black" stroke-width="1" d="M 586.25 2594.61 L 591.00 2688.00 L 489.55 2706.00 L 494.00 2706.00 L 514.00 2707.00 L 534.00 2707.00 L 554.00 2708.00 L 574.00 2709.00 L 594.00 2709.00 L 614.00 2710.00 L 634.00 2710.00 L 654.00 2711.00 L 674.00 2711.00 L 694.00 2712.00 L 714.00 2712.00 L 734.00 2713.00 L 754.00 2713.00 L 774.00 2714.00 L 794.00 2715.00 L 814.00 2715.00 L 834.00 2716.00 L 854.00 2716.00 L 874.00 2717.00 L 894.00 2717.00 L 914.00 2718.00 L 934.00 2718.00 L 954.00 2719.00 L 974.00 2719.00 L 994.00 2720.00 L 1014.00 2721.00 L 1034.00 2721.00 L 1054.00 2722.00 L 1074.00 2722.00 L 1094.00 2723.00 L 1114.00 2723.00 L 1134.00 2724.00 L 1154.00 2724.00 L 1174.00 2725.00 L 1194.00 2726.00 L 1214.00 2726.00 L 1234.00 2727.00 L 1254.00 2727.00 L 1274.00 2728.00 L 1294.00 2728.00 L 1314.00 2729.00 L 1334.00 2729.00 L 1354.00 2730.00 L 1374.00 2730.00 L 1394.00 2731.00 L 1414.00 2732.00 L 1434.00 2732.00 L 1454.00 2733.00 L 1474.00 2733.00 L 1494.00 2714.00 L 1514.00 2734.00 L 1534.00 2735.00 L 1554.00 2735.00 L 1574.00 2736.00 L 1594.00 2736.00 L 1614.00 2737.00 L 1634.00 2738.00 L 1654.00 2738.00 L 1674.00 2739.00 L 1694.00 2739.00 L 1714.00 2740.00 L 1734.00 2740.00 L 1754.00 2741.00 L 1774.00 2741.00 L 1794.00 2742.00 L 1814.00 2742.00 L 1834.00 2743.00 L 1854.00 2744.00 L 1874.00 2744.00 L 1894.00 2745.00 L 1914.00 2745.00 L 1934.00 2746.00 L 1954.00 2746.00 L 1974.00 2747.00 L 1994.00 2747.00 L 2014.00 2748.00 L 2034.00 2749.00 L 2054.00 2749.00 L 2074.00 2750.00 L 2094.00 2750.00 L 2114.00 2751.00 L 2134.00 2751.00 L 2154.00 2752.00 L 2174.00 2752.00 L 2194.00 2753.00 L 2214.00 2753.00 L 2234.00 2734.00 L 2254.00 2735.00 L 2274.00 2735.00 L 2294.00 2756.00 L 2314.00 2756.00 L 2334.00 2757.00 L 2354.00 2757.00 L 2374.00 2758.00 L 2394.00 2758.00 L 2414.00 2759.00 L 2434.00 2759.00 L 2454.00 2760.00 L 2474.00 2761.00 L 2478.17 2761.00 L 2541.00 2703.00 L 2536.95 2635.42 L 2534.00 2635.00 L 2514.00 2635.00 L 2494.00 2634.00 L 2474.00 2634.00 L 2454.00 2633.00 L 2414.00 2633.00 L 2394.00 2632.00 L 2374.00 2632.00 L 2354.00 2631.00 L 2334.00 2631.00 L 2314.00 2630.00 L 2274.00 2630.00 L 2254.00 2629.00 L 2234.00 2629.00 L 2214.00 2628.00 L 2174.00 2628.00 L 2154.00 2627.00 L 2134.00 2627.00 L 2114.00 2626.00 L 2094.00 2626.00 L 2074.00 2625.00 L 2034.00 2625.00 L 2014.00 2624.00 L 1994.00 2624.00 L 1974.00 2623.00 L 1934.00 2623.00 L 1914.00 2622.00 L 1894.00 2622.00 L 1874.00 2621.00 L 1854.00 2621.00 L 1834.00 2620.00 L 1794.00 2620.00 L 1774.00 2619.00 L 1754.00 2619.00 L 1734.00 2618.00 L 1694.00 2618.00 L 1674.00 2617.00 L 1654.00 2617.00 L 1634.00 2616.00 L 1614.00 2616.00 L 1594.00 2615.00 L 1554.00 2615.00 L 1534.00 2614.00 L 1514.00 2614.00 L 1494.00 2613.00 L 1454.00 2613.00 L 1434.00 2612.00 L 1414.00 2612.00 L 1394.00 2611.00 L 1374.00 2611.00 L 1354.00 2610.00 L 1314.00 2610.00 L 1294.00 2609.00 L 1274.00 2609.00 L 1254.00 2608.00 L 1234.00 2608.00 L 1214.00 2607.00 L 1174.00 2607.00 L 1154.00 2606.00 L 1134.00 2606.00 L 1114.00 2605.00 L 1074.00 2605.00 L 1054.00 2604.00 L 1034.00 2604.00 L 1014.00 2603.00 L 994.00 2603.00 L 974.00 2602.00 L 934.00 2602.00 L 914.00 2601.00 L 894.00 2601.00 L 874.00 2600.00 L 834.00 2600.00 L 814.00 2599.00 L 794.00 2599.00 L 774.00 2598.00 L 754.00 2598.00 L 734.00 2597.00 L 694.00 2597.00 L 674.00 2596.00 L 654.00 2596.00 L 634.00 2595.00 L 594.00 2595.00 L 586.25 2594.61 Z" />
<path id="csg562-057-17" fill="none" stroke="black" stroke-width="1" d="M 489.55 2706.00 L 405.00 2721.00 L 394.53 2813.00 L 414.00 2813.00 L 434.00 2814.00 L 454.00 2815.00 L 474.00 2815.00 L 494.00 2816.00 L 514.00 2816.00 L 534.00 2817.00 L 554.00 2818.00 L 574.00 2818.00 L 594.00 2819.00 L 614.00 2819.00 L 634.00 2820.00 L 654.00 2821.00 L 674.00 2821.00 L 694.00 2822.00 L 714.00 2822.00 L 734.00 2823.00 L 754.00 2824.00 L 774.00 2824.00 L 794.00 2825.00 L 814.00 2825.00 L 834.00 2826.00 L 854.00 2827.00 L 874.00 2827.00 L 894.00 2828.00 L 914.00 2828.00 L 934.00 2829.00 L 954.00 2830.00 L 974.00 2830.00 L 994.00 2831.00 L 1014.00 2831.00 L 1034.00 2832.00 L 1054.00 2833.00 L 1074.00 2833.00 L 1094.00 2834.00 L 1114.00 2834.00 L 1134.00 2835.00 L 1154.00 2836.00 L 1174.00 2836.00 L 1194.00 2837.00 L 1214.00 2838.00 L 1234.00 2838.00 L 1254.00 2839.00 L 1274.00 2839.00 L 1294.00 2840.00 L 1314.00 2841.00 L 1334.00 2841.00 L 1354.00 2842.00 L 1374.00 2842.00 L 1394.00 2843.00 L 1414.00 2844.00 L 1434.00 2844.00 L 1454.00 2845.00 L 1474.00 2845.00 L 1494.00 2846.00 L 1514.00 2847.00 L 1534.00 2847.00 L 1554.00 2848.00 L 1574.00 2848.00 L 1594.00 2849.00 L 1614.00 2850.00 L 1634.00 2850.00 L 1654.00 2851.00 L 1674.00 2851.00 L 1694.00 2852.00 L 1714.00 2853.00 L 1734.00 2853.00 L 1754.00 2854.00 L 1774.00 2854.00 L 1794.00 2855.00 L 1814.00 2856.00 L 1834.00 2836.00 L 1854.00 2857.00 L 1874.00 2857.00 L 1894.00 2858.00 L 1914.00 2859.00 L 1934.00 2859.00 L 1954.00 2860.00 L 1974.00 2860.00 L 1994.00 2861.00 L 2014.00 2862.00 L 2034.00 2862.00 L 2054.00 2863.00 L 2074.00 2864.00 L 2094.00 2844.00 L 2114.00 2845.00 L 2134.00 2865.00 L 2154.00 2866.00 L 2174.00 2867.00 L 2194.00 2867.00 L 2214.00 2868.00 L 2234.00 2868.00 L 2254.00 2869.00 L 2274.00 2870.00 L 2294.00 2870.00 L 2314.00 2871.00 L 2334.00 2871.00 L 2354.00 2872.00 L 2374.00 2873.00 L 2394.00 2873.00 L 2414.00 2874.00 L 2434.00 2874.00 L 2454.00 2855.00 L 2474.00 2856.00 L 2486.71 2868.71 L 2463.00 2775.00 L 2478.17 2761.00 L 2474.00 2761.00 L 2454.00 2760.00 L 2434.00 2759.00 L 2414.00 2759.00 L 2394.00 2758.00 L 2374.00 2758.00 L 2354.00 2757.00 L 2334.00 2757.00 L 2314.00 2756.00 L 2294.00 2756.00 L 2274.00 2735.00 L 2254.00 2735.00 L 2234.00 2734.00 L 2214.00 2753.00 L 2194.00 2753.00 L 2174.00 2752.00 L 2154.00 2752.00 L 2134.00 2751.00 L 2114.00 2751.00 L 2094.00 2750.00 L 2074.00 2750.00 L 2054.00 2749.00 L 2034.00 2749.00 L 2014.00 2748.00 L 1994.00 2747.00 L 1974.00 2747.00 L 1954.00 2746.00 L 1934.00 2746.00 L 1914.00 2745.00 L 1894.00 2745.00 L 1874.00 2744.00 L 1854.00 2744.00 L 1834.00 2743.00 L 1814.00 2742.00 L 1794.00 2742.00 L 1774.00 2741.00 L 1754.00 2741.00 L 1734.00 2740.00 L 1714.00 2740.00 L 1694.00 2739.00 L 1674.00 2739.00 L 1654.00 2738.00 L 1634.00 2738.00 L 1614.00 2737.00 L 1594.00 2736.00 L 1574.00 2736.00 L 1554.00 2735.00 L 1534.00 2735.00 L 1514.00 2734.00 L 1494.00 2714.00 L 1474.00 2733.00 L 1454.00 2733.00 L 1434.00 2732.00 L 1414.00 2732.00 L 1394.00 2731.00 L 1374.00 2730.00 L 1354.00 2730.00 L 1334.00 2729.00 L 1314.00 2729.00 L 1294.00 2728.00 L 1274.00 2728.00 L 1254.00 2727.00 L 1234.00 2727.00 L 1214.00 2726.00 L 1194.00 2726.00 L 1174.00 2725.00 L 1154.00 2724.00 L 1134.00 2724.00 L 1114.00 2723.00 L 1094.00 2723.00 L 1074.00 2722.00 L 1054.00 2722.00 L 1034.00 2721.00 L 1014.00 2721.00 L 994.00 2720.00 L 974.00 2719.00 L 954.00 2719.00 L 934.00 2718.00 L 914.00 2718.00 L 894.00 2717.00 L 874.00 2717.00 L 854.00 2716.00 L 834.00 2716.00 L 814.00 2715.00 L 794.00 2715.00 L 774.00 2714.00 L 754.00 2713.00 L 734.00 2713.00 L 714.00 2712.00 L 694.00 2712.00 L 674.00 2711.00 L 654.00 2711.00 L 634.00 2710.00 L 614.00 2710.00 L 594.00 2709.00 L 574.00 2709.00 L 554.00 2708.00 L 534.00 2707.00 L 514.00 2707.00 L 494.00 2706.00 Z" />
<path id="csg562-057-18" fill="none" stroke="black" stroke-width="1" d="M 394.53 2813.00 L 381.89 2924.00 L 394.00 2924.00 L 414.00 2925.00 L 454.00 2925.00 L 474.00 2926.00 L 494.00 2926.00 L 514.00 2927.00 L 554.00 2927.00 L 574.00 2928.00 L 614.00 2928.00 L 634.00 2929.00 L 654.00 2929.00 L 674.00 2930.00 L 714.00 2930.00 L 734.00 2931.00 L 774.00 2931.00 L 794.00 2932.00 L 814.00 2912.00 L 834.00 2913.00 L 854.00 2933.00 L 874.00 2933.00 L 894.00 2934.00 L 934.00 2934.00 L 954.00 2935.00 L 974.00 2935.00 L 994.00 2936.00 L 1034.00 2936.00 L 1054.00 2937.00 L 1094.00 2937.00 L 1114.00 2938.00 L 1134.00 2938.00 L 1154.00 2939.00 L 1194.00 2939.00 L 1214.00 2940.00 L 1254.00 2940.00 L 1274.00 2941.00 L 1294.00 2941.00 L 1314.00 2942.00 L 1354.00 2942.00 L 1374.00 2943.00 L 1414.00 2943.00 L 1434.00 2944.00 L 1454.00 2944.00 L 1474.00 2945.00 L 1514.00 2945.00 L 1534.00 2946.00 L 1574.00 2946.00 L 1594.00 2947.00 L 1614.00 2947.00 L 1634.00 2948.00 L 1674.00 2948.00 L 1694.00 2949.00 L 1734.00 2949.00 L 1754.00 2950.00 L 1774.00 2950.00 L 1794.00 2951.00 L 1834.00 2951.00 L 1854.00 2952.00 L 1894.00 2952.00 L 1914.00 2953.00 L 1934.00 2953.00 L 1954.00 2954.00 L 1994.00 2954.00 L 2014.00 2955.00 L 2054.00 2955.00 L 2074.00 2956.00 L 2094.00 2956.00 L 2114.00 2957.00 L 2154.00 2957.00 L 2174.00 2958.00 L 2214.00 2958.00 L 2234.00 2959.00 L 2254.00 2959.00 L 2274.00 2960.00 L 2314.00 2960.00 L 2334.00 2961.00 L 2374.00 2961.00 L 2394.00 2962.00 L 2414.00 2962.00 L 2434.00 2963.00 L 2474.00 2963.00 L 2494.00 2964.00 L 2510.82 2964.00 L 2486.71 2868.71 L 2474.00 2856.00 L 2454.00 2855.00 L 2434.00 2874.00 L 2414.00 2874.00 L 2394.00 2873.00 L 2374.00 2873.00 L 2354.00 2872.00 L 2334.00 2871.00 L 2314.00 2871.00 L 2294.00 2870.00 L 2274.00 2870.00 L 2254.00 2869.00 L 2234.00 2868.00 L 2214.00 2868.00 L 2194.00 2867.00 L 2174.00 2867.00 L 2154.00 2866.00 L 2134.00 2865.00 L 2114.00 2845.00 L 2094.00 2844.00 L 2074.00 2864.00 L 2054.00 2863.00 L 2034.00 2862.00 L 2014.00 2862.00 L 1994.00 2861.00 L 1974.00 2860.00 L 1954.00 2860.00 L 1934.00 2859.00 L 1914.00 2859.00 L 1894.00 2858.00 L 1874.00 2857.00 L 1854.00 2857.00 L 1834.00 2836.00 L 1814.00 2856.00 L 1794.00 2855.00 L 1774.00 2854.00 L 1754.00 2854.00 L 1734.00 2853.00 L 1714.00 2853.00 L 1694.00 2852.00 L 1674.00 2851.00 L 1654.00 2851.00 L 1634.00 2850.00 L 1614.00 2850.00 L 1594.00 2849.00 L 1574.00 2848.00 L 1554.00 2848.00 L 1534.00 2847.00 L 1514.00 2847.00 L 1494.00 2846.00 L 1474.00 2845.00 L 1454.00 2845.00 L 1434.00 2844.00 L 1414.00 2844.00 L 1394.00 2843.00 L 1374.00 2842.00 L 1354.00 2842.00 L 1334.00 2841.00 L 1314.00 2841.00 L 1294.00 2840.00 L 1274.00 2839.00 L 1254.00 2839.00 L 1234.00 2838.00 L 1214.00 2838.00 L 1194.00 2837.00 L 1174.00 2836.00 L 1154.00 2836.00 L 1134.00 2835.00 L 1114.00 2834.00 L 1094.00 2834.00 L 1074.00 2833.00 L 1054.00 2833.00 L 1034.00 2832.00 L 1014.00 2831.00 L 994.00 2831.00 L 974.00 2830.00 L 954.00 2830.00 L 934.00 2829.00 L 914.00 2828.00 L 894.00 2828.00 L 874.00 2827.00 L 854.00 2827.00 L 834.00 2826.00 L 814.00 2825.00 L 794.00 2825.00 L 774.00 2824.00 L 754.00 2824.00 L 734.00 2823.00 L 714.00 2822.00 L 694.00 2822.00 L 674.00 2821.00 L 654.00 2821.00 L 634.00 2820.00 L 614.00 2819.00 L 594.00 2819.00 L 574.00 2818.00 L 554.00 2818.00 L 534.00 2817.00 L 514.00 2816.00 L 494.00 2816.00 L 474.00 2815.00 L 454.00 2815.00 L 434.00 2814.00 L 414.00 2813.00 Z" />
<path id="csg562-057-19" fill="none" stroke="black" stroke-width="1" d="M 814.00 2912.00 L 794.00 2932.00 L 774.00 2931.00 L 734.00 2931.00 L 714.00 2930.00 L 674.00 2930.00 L 654.00 2929.00 L 634.00 2929.00 L 614.00 2928.00 L 574.00 2928.00 L 554.00 2927.00 L 514.00 2927.00 L 494.00 2926.00 L 474.00 2926.00 L 454.00 2925.00 L 414.00 2925.00 L 394.00 2924.00 L 381.89 2924.00 L 369.22 3035.39 L 374.00 3033.00 L 394.00 3034.00 L 414.00 3034.00 L 434.00 3035.00 L 454.00 3035.00 L 474.00 3036.00 L 494.00 3036.00 L 514.00 3037.00 L 534.00 3037.00 L 554.00 3038.00 L 574.00 3038.00 L 594.00 3039.00 L 614.00 3040.00 L 634.00 3040.00 L 654.00 3041.00 L 674.00 3041.00 L 694.00 3042.00 L 714.00 3042.00 L 734.00 3043.00 L 754.00 3043.00 L 774.00 3044.00 L 794.00 3044.00 L 814.00 3045.00 L 834.00 3046.00 L 854.00 3046.00 L 874.00 3047.00 L 894.00 3047.00 L 914.00 3048.00 L 934.00 3048.00 L 954.00 3049.00 L 974.00 3049.00 L 994.00 3050.00 L 1014.00 3050.00 L 1034.00 3051.00 L 1054.00 3052.00 L 1074.00 3052.00 L 1094.00 3053.00 L 1114.00 3053.00 L 1134.00 3054.00 L 1154.00 3054.00 L 1174.00 3055.00 L 1194.00 3055.00 L 1214.00 3056.00 L 1234.00 3056.00 L 1254.00 3057.00 L 1274.00 3058.00 L 1294.00 3058.00 L 1314.00 3059.00 L 1334.00 3059.00 L 1354.00 3060.00 L 1374.00 3060.00 L 1394.00 3061.00 L 1414.00 3061.00 L 1434.00 3062.00 L 1454.00 3062.00 L 1474.00 3063.00 L 1494.00 3064.00 L 1514.00 3064.00 L 1534.00 3065.00 L 1554.00 3065.00 L 1574.00 3066.00 L 1594.00 3066.00 L 1614.00 3067.00 L 1634.00 3067.00 L 1654.00 3068.00 L 1674.00 3068.00 L 1694.00 3069.00 L 1714.00 3069.00 L 1734.00 3070.00 L 1754.00 3071.00 L 1774.00 3071.00 L 1794.00 3072.00 L 1814.00 3072.00 L 1834.00 3073.00 L 1854.00 3073.00 L 1874.00 3074.00 L 1894.00 3074.00 L 1914.00 3075.00 L 1934.00 3075.00 L 1954.00 3076.00 L 1974.00 3077.00 L 1994.00 3077.00 L 2014.00 3078.00 L 2034.00 3078.00 L 2054.00 3079.00 L 2074.00 3079.00 L 2094.00 3080.00 L 2114.00 3080.00 L 2134.00 3081.00 L 2154.00 3081.00 L 2174.00 3082.00 L 2194.00 3083.00 L 2214.00 3083.00 L 2234.00 3084.00 L 2254.00 3084.00 L 2274.00 3085.00 L 2294.00 3085.00 L 2314.00 3086.00 L 2334.00 3086.00 L 2354.00 3087.00 L 2374.00 3087.00 L 2394.00 3088.00 L 2414.00 3089.00 L 2434.00 3089.00 L 2454.00 3090.00 L 2471.00 3090.00 L 2526.00 3024.00 L 2510.82 2964.00 L 2494.00 2964.00 L 2474.00 2963.00 L 2434.00 2963.00 L 2414.00 2962.00 L 2394.00 2962.00 L 2374.00 2961.00 L 2334.00 2961.00 L 2314.00 2960.00 L 2274.00 2960.00 L 2254.00 2959.00 L 2234.00 2959.00 L 2214.00 2958.00 L 2174.00 2958.00 L 2154.00 2957.00 L 2114.00 2957.00 L 2094.00 2956.00 L 2074.00 2956.00 L 2054.00 2955.00 L 2014.00 2955.00 L 1994.00 2954.00 L 1954.00 2954.00 L 1934.00 2953.00 L 1914.00 2953.00 L 1894.00 2952.00 L 1854.00 2952.00 L 1834.00 2951.00 L 1794.00 2951.00 L 1774.00 2950.00 L 1754.00 2950.00 L 1734.00 2949.00 L 1694.00 2949.00 L 1674.00 2948.00 L 1634.00 2948.00 L 1614.00 2947.00 L 1594.00 2947.00 L 1574.00 2946.00 L 1534.00 2946.00 L 1514.00 2945.00 L 1474.00 2945.00 L 1454.00 2944.00 L 1434.00 2944.00 L 1414.00 2943.00 L 1374.00 2943.00 L 1354.00 2942.00 L 1314.00 2942.00 L 1294.00 2941.00 L 1274.00 2941.00 L 1254.00 2940.00 L 1214.00 2940.00 L 1194.00 2939.00 L 1154.00 2939.00 L 1134.00 2938.00 L 1114.00 2938.00 L 1094.00 2937.00 L 1054.00 2937.00 L 1034.00 2936.00 L 994.00 2936.00 L 974.00 2935.00 L 954.00 2935.00 L 934.00 2934.00 L 894.00 2934.00 L 874.00 2933.00 L 854.00 2933.00 L 834.00 2913.00 L 814.00 2912.00 Z" />
<path id="csg562-057-20" fill="none" stroke="black" stroke-width="1" d="M 374.00 3033.00 L 369.22 3035.39 L 363.00 3090.00 L 361.28 3155.36 L 374.00 3149.00 L 394.00 3149.00 L 414.00 3150.00 L 454.00 3150.00 L 474.00 3151.00 L 494.00 3151.00 L 514.00 3152.00 L 554.00 3152.00 L 574.00 3153.00 L 594.00 3153.00 L 614.00 3154.00 L 654.00 3154.00 L 674.00 3155.00 L 714.00 3155.00 L 734.00 3156.00 L 754.00 3156.00 L 774.00 3157.00 L 814.00 3157.00 L 834.00 3158.00 L 854.00 3158.00 L 874.00 3159.00 L 914.00 3159.00 L 934.00 3160.00 L 974.00 3160.00 L 994.00 3161.00 L 1014.00 3161.00 L 1034.00 3162.00 L 1074.00 3162.00 L 1094.00 3163.00 L 1114.00 3163.00 L 1134.00 3164.00 L 1174.00 3164.00 L 1194.00 3165.00 L 1234.00 3165.00 L 1254.00 3166.00 L 1274.00 3166.00 L 1294.00 3167.00 L 1334.00 3167.00 L 1354.00 3168.00 L 1374.00 3168.00 L 1394.00 3169.00 L 1434.00 3169.00 L 1454.00 3170.00 L 1494.00 3170.00 L 1514.00 3171.00 L 1534.00 3171.00 L 1554.00 3172.00 L 1594.00 3172.00 L 1614.00 3173.00 L 1634.00 3173.00 L 1654.00 3174.00 L 1694.00 3174.00 L 1714.00 3175.00 L 1734.00 3175.00 L 1754.00 3176.00 L 1794.00 3176.00 L 1814.00 3177.00 L 1854.00 3177.00 L 1874.00 3178.00 L 1894.00 3178.00 L 1914.00 3179.00 L 1954.00 3179.00 L 1974.00 3180.00 L 1994.00 3180.00 L 2014.00 3181.00 L 2054.00 3181.00 L 2074.00 3182.00 L 2114.00 3182.00 L 2134.00 3183.00 L 2154.00 3183.00 L 2174.00 3184.00 L 2214.00 3184.00 L 2234.00 3185.00 L 2254.00 3185.00 L 2274.00 3186.00 L 2314.00 3186.00 L 2334.00 3187.00 L 2374.00 3187.00 L 2394.00 3188.00 L 2414.00 3188.00 L 2434.00 3189.00 L 2463.16 3189.00 L 2451.00 3114.00 L 2471.00 3090.00 L 2454.00 3090.00 L 2434.00 3089.00 L 2414.00 3089.00 L 2394.00 3088.00 L 2374.00 3087.00 L 2354.00 3087.00 L 2334.00 3086.00 L 2314.00 3086.00 L 2294.00 3085.00 L 2274.00 3085.00 L 2254.00 3084.00 L 2234.00 3084.00 L 2214.00 3083.00 L 2194.00 3083.00 L 2174.00 3082.00 L 2154.00 3081.00 L 2134.00 3081.00 L 2114.00 3080.00 L 2094.00 3080.00 L 2074.00 3079.00 L 2054.00 3079.00 L 2034.00 3078.00 L 2014.00 3078.00 L 1994.00 3077.00 L 1974.00 3077.00 L 1954.00 3076.00 L 1934.00 3075.00 L 1914.00 3075.00 L 1894.00 3074.00 L 1874.00 3074.00 L 1854.00 3073.00 L 1834.00 3073.00 L 1814.00 3072.00 L 1794.00 3072.00 L 1774.00 3071.00 L 1754.00 3071.00 L 1734.00 3070.00 L 1714.00 3069.00 L 1694.00 3069.00 L 1674.00 3068.00 L 1654.00 3068.00 L 1634.00 3067.00 L 1614.00 3067.00 L 1594.00 3066.00 L 1574.00 3066.00 L 1554.00 3065.00 L 1534.00 3065.00 L 1514.00 3064.00 L 1494.00 3064.00 L 1474.00 3063.00 L 1454.00 3062.00 L 1434.00 3062.00 L 1414.00 3061.00 L 1394.00 3061.00 L 1374.00 3060.00 L 1354.00 3060.00 L 1334.00 3059.00 L 1314.00 3059.00 L 1294.00 3058.00 L 1274.00 3058.00 L 1254.00 3057.00 L 1234.00 3056.00 L 1214.00 3056.00 L 1194.00 3055.00 L 1174.00 3055.00 L 1154.00 3054.00 L 1134.00 3054.00 L 1114.00 3053.00 L 1094.00 3053.00 L 1074.00 3052.00 L 1054.00 3052.00 L 1034.00 3051.00 L 1014.00 3050.00 L 994.00 3050.00 L 974.00 3049.00 L 954.00 3049.00 L 934.00 3048.00 L 914.00 3048.00 L 894.00 3047.00 L 874.00 3047.00 L 854.00 3046.00 L 834.00 3046.00 L 814.00 3045.00 L 794.00 3044.00 L 774.00 3044.00 L 754.00 3043.00 L 734.00 3043.00 L 714.00 3042.00 L 694.00 3042.00 L 674.00 3041.00 L 654.00 3041.00 L 634.00 3040.00 L 614.00 3040.00 L 594.00 3039.00 L 574.00 3038.00 L 554.00 3038.00 L 534.00 3037.00 L 514.00 3037.00 L 494.00 3036.00 L 474.00 3036.00 L 454.00 3035.00 L 434.00 3035.00 L 414.00 3034.00 L 394.00 3034.00 L 374.00 3033.00 Z" />
<path id="csg562-057-21" fill="none" stroke="black" stroke-width="1" d="M 374.00 3149.00 L 361.28 3155.36 L 358.29 3268.85 L 374.00 3261.00 L 394.00 3262.00 L 414.00 3262.00 L 434.00 3263.00 L 454.00 3264.00 L 474.00 3264.00 L 494.00 3265.00 L 514.00 3266.00 L 534.00 3266.00 L 554.00 3267.00 L 574.00 3267.00 L 594.00 3268.00 L 614.00 3269.00 L 634.00 3269.00 L 654.00 3270.00 L 674.00 3271.00 L 694.00 3271.00 L 714.00 3272.00 L 734.00 3272.00 L 754.00 3273.00 L 774.00 3274.00 L 794.00 3274.00 L 814.00 3275.00 L 834.00 3276.00 L 854.00 3276.00 L 874.00 3277.00 L 894.00 3277.00 L 914.00 3278.00 L 934.00 3279.00 L 954.00 3279.00 L 974.00 3280.00 L 994.00 3281.00 L 1014.00 3281.00 L 1034.00 3282.00 L 1054.00 3282.00 L 1074.00 3283.00 L 1094.00 3284.00 L 1114.00 3284.00 L 1134.00 3285.00 L 1154.00 3286.00 L 1174.00 3286.00 L 1194.00 3287.00 L 1214.00 3287.00 L 1234.00 3288.00 L 1254.00 3289.00 L 1274.00 3289.00 L 1294.00 3270.00 L 1314.00 3271.00 L 1334.00 3271.00 L 1354.00 3292.00 L 1374.00 3292.00 L 1394.00 3293.00 L 1414.00 3294.00 L 1434.00 3294.00 L 1454.00 3295.00 L 1474.00 3296.00 L 1494.00 3296.00 L 1514.00 3297.00 L 1534.00 3297.00 L 1554.00 3298.00 L 1574.00 3299.00 L 1594.00 3299.00 L 1614.00 3300.00 L 1634.00 3301.00 L 1654.00 3301.00 L 1674.00 3302.00 L 1694.00 3302.00 L 1714.00 3303.00 L 1734.00 3304.00 L 1754.00 3304.00 L 1774.00 3305.00 L 1794.00 3306.00 L 1814.00 3306.00 L 1834.00 3307.00 L 1854.00 3307.00 L 1874.00 3308.00 L 1894.00 3309.00 L 1914.00 3309.00 L 1934.00 3310.00 L 1954.00 3311.00 L 1974.00 3311.00 L 1994.00 3312.00 L 2014.00 3292.00 L 2034.00 3313.00 L 2054.00 3294.00 L 2074.00 3314.00 L 2094.00 3315.00 L 2114.00 3316.00 L 2134.00 3316.00 L 2154.00 3317.00 L 2174.00 3317.00 L 2194.00 3318.00 L 2214.00 3319.00 L 2234.00 3319.00 L 2254.00 3320.00 L 2274.00 3321.00 L 2294.00 3321.00 L 2314.00 3322.00 L 2334.00 3322.00 L 2354.00 3323.00 L 2374.00 3324.00 L 2394.00 3324.00 L 2414.00 3325.00 L 2434.00 3326.00 L 2454.00 3326.00 L 2467.93 3326.70 L 2469.00 3225.00 L 2463.16 3189.00 L 2434.00 3189.00 L 2414.00 3188.00 L 2394.00 3188.00 L 2374.00 3187.00 L 2334.00 3187.00 L 2314.00 3186.00 L 2274.00 3186.00 L 2254.00 3185.00 L 2234.00 3185.00 L 2214.00 3184.00 L 2174.00 3184.00 L 2154.00 3183.00 L 2134.00 3183.00 L 2114.00 3182.00 L 2074.00 3182.00 L 2054.00 3181.00 L 2014.00 3181.00 L 1994.00 3180.00 L 1974.00 3180.00 L 1954.00 3179.00 L 1914.00 3179.00 L 1894.00 3178.00 L 1874.00 3178.00 L 1854.00 3177.00 L 1814.00 3177.00 L 1794.00 3176.00 L 1754.00 3176.00 L 1734.00 3175.00 L 1714.00 3175.00 L 1694.00 3174.00 L 1654.00 3174.00 L 1634.00 3173.00 L 1614.00 3173.00 L 1594.00 3172.00 L 1554.00 3172.00 L 1534.00 3171.00 L 1514.00 3171.00 L 1494.00 3170.00 L 1454.00 3170.00 L 1434.00 3169.00 L 1394.00 3169.00 L 1374.00 3168.00 L 1354.00 3168.00 L 1334.00 3167.00 L 1294.00 3167.00 L 1274.00 3166.00 L 1254.00 3166.00 L 1234.00 3165.00 L 1194.00 3165.00 L 1174.00 3164.00 L 1134.00 3164.00 L 1114.00 3163.00 L 1094.00 3163.00 L 1074.00 3162.00 L 1034.00 3162.00 L 1014.00 3161.00 L 994.00 3161.00 L 974.00 3160.00 L 934.00 3160.00 L 914.00 3159.00 L 874.00 3159.00 L 854.00 3158.00 L 834.00 3158.00 L 814.00 3157.00 L 774.00 3157.00 L 754.00 3156.00 L 734.00 3156.00 L 714.00 3155.00 L 674.00 3155.00 L 654.00 3154.00 L 614.00 3154.00 L 594.00 3153.00 L 574.00 3153.00 L 554.00 3152.00 L 514.00 3152.00 L 494.00 3151.00 L 474.00 3151.00 L 454.00 3150.00 L 414.00 3150.00 L 394.00 3149.00 Z" />
<path id="csg562-057-22" fill="none" stroke="black" stroke-width="1" d="M 374.00 3261.00 L 358.29 3268.85 L 355.28 3383.36 L 374.00 3374.00 L 394.00 3375.00 L 414.00 3375.00 L 434.00 3376.00 L 454.00 3356.00 L 474.00 3377.00 L 494.00 3378.00 L 514.00 3378.00 L 534.00 3379.00 L 554.00 3379.00 L 574.00 3380.00 L 594.00 3381.00 L 614.00 3381.00 L 634.00 3382.00 L 654.00 3382.00 L 674.00 3383.00 L 694.00 3384.00 L 714.00 3384.00 L 734.00 3385.00 L 754.00 3385.00 L 774.00 3386.00 L 794.00 3387.00 L 814.00 3387.00 L 834.00 3388.00 L 854.00 3388.00 L 874.00 3389.00 L 894.00 3389.00 L 914.00 3390.00 L 934.00 3391.00 L 954.00 3391.00 L 974.00 3392.00 L 994.00 3392.00 L 1014.00 3393.00 L 1034.00 3394.00 L 1054.00 3394.00 L 1074.00 3395.00 L 1094.00 3395.00 L 1114.00 3396.00 L 1134.00 3397.00 L 1154.00 3397.00 L 1174.00 3398.00 L 1194.00 3398.00 L 1214.00 3399.00 L 1234.00 3400.00 L 1254.00 3400.00 L 1274.00 3401.00 L 1294.00 3401.00 L 1314.00 3402.00 L 1334.00 3403.00 L 1354.00 3403.00 L 1374.00 3404.00 L 1394.00 3404.00 L 1414.00 3405.00 L 1434.00 3405.00 L 1454.00 3406.00 L 1474.00 3387.00 L 1494.00 3407.00 L 1514.00 3408.00 L 1534.00 3408.00 L 1554.00 3409.00 L 1574.00 3410.00 L 1594.00 3410.00 L 1614.00 3411.00 L 1634.00 3411.00 L 1654.00 3412.00 L 1674.00 3413.00 L 1694.00 3413.00 L 1714.00 3414.00 L 1734.00 3414.00 L 1754.00 3415.00 L 1774.00 3416.00 L 1794.00 3416.00 L 1814.00 3417.00 L 1834.00 3417.00 L 1854.00 3418.00 L 1874.00 3418.00 L 1894.00 3419.00 L 1914.00 3420.00 L 1934.00 3420.00 L 1954.00 3421.00 L 1974.00 3421.00 L 1994.00 3422.00 L 2014.00 3423.00 L 2034.00 3423.00 L 2054.00 3424.00 L 2074.00 3424.00 L 2094.00 3425.00 L 2114.00 3426.00 L 2134.00 3426.00 L 2154.00 3427.00 L 2174.00 3427.00 L 2194.00 3428.00 L 2214.00 3429.00 L 2234.00 3429.00 L 2254.00 3430.00 L 2274.00 3430.00 L 2294.00 3431.00 L 2314.00 3412.00 L 2334.00 3432.00 L 2354.00 3433.00 L 2374.00 3433.00 L 2394.00 3434.00 L 2414.00 3434.00 L 2434.00 3435.00 L 2454.00 3436.00 L 2466.78 3436.00 L 2467.93 3326.70 L 2454.00 3326.00 L 2434.00 3326.00 L 2414.00 3325.00 L 2394.00 3324.00 L 2374.00 3324.00 L 2354.00 3323.00 L 2334.00 3322.00 L 2314.00 3322.00 L 2294.00 3321.00 L 2274.00 3321.00 L 2254.00 3320.00 L 2234.00 3319.00 L 2214.00 3319.00 L 2194.00 3318.00 L 2174.00 3317.00 L 2154.00 3317.00 L 2134.00 3316.00 L 2114.00 3316.00 L 2094.00 3315.00 L 2074.00 3314.00 L 2054.00 3294.00 L 2034.00 3313.00 L 2014.00 3292.00 L 1994.00 3312.00 L 1974.00 3311.00 L 1954.00 3311.00 L 1934.00 3310.00 L 1914.00 3309.00 L 1894.00 3309.00 L 1874.00 3308.00 L 1854.00 3307.00 L 1834.00 3307.00 L 1814.00 3306.00 L 1794.00 3306.00 L 1774.00 3305.00 L 1754.00 3304.00 L 1734.00 3304.00 L 1714.00 3303.00 L 1694.00 3302.00 L 1674.00 3302.00 L 1654.00 3301.00 L 1634.00 3301.00 L 1614.00 3300.00 L 1594.00 3299.00 L 1574.00 3299.00 L 1554.00 3298.00 L 1534.00 3297.00 L 1514.00 3297.00 L 1494.00 3296.00 L 1474.00 3296.00 L 1454.00 3295.00 L 1434.00 3294.00 L 1414.00 3294.00 L 1394.00 3293.00 L 1374.00 3292.00 L 1354.00 3292.00 L 1334.00 3271.00 L 1314.00 3271.00 L 1294.00 3270.00 L 1274.00 3289.00 L 1254.00 3289.00 L 1234.00 3288.00 L 1214.00 3287.00 L 1194.00 3287.00 L 1174.00 3286.00 L 1154.00 3286.00 L 1134.00 3285.00 L 1114.00 3284.00 L 1094.00 3284.00 L 1074.00 3283.00 L 1054.00 3282.00 L 1034.00 3282.00 L 1014.00 3281.00 L 994.00 3281.00 L 974.00 3280.00 L 954.00 3279.00 L 934.00 3279.00 L 914.00 3278.00 L 894.00 3277.00 L 874.00 3277.00 L 854.00 3276.00 L 834.00 3276.00 L 814.00 3275.00 L 794.00 3274.00 L 774.00 3274.00 L 754.00 3273.00 L 734.00 3272.00 L 714.00 3272.00 L 694.00 3271.00 L 674.00 3271.00 L 654.00 3270.00 L 634.00 3269.00 L 614.00 3269.00 L 594.00 3268.00 L 574.00 3267.00 L 554.00 3267.00 L 534.00 3266.00 L 514.00 3266.00 L 494.00 3265.00 L 474.00 3264.00 L 454.00 3264.00 L 434.00 3263.00 L 414.00 3262.00 L 394.00 3262.00 L 374.00 3261.00 Z" />
<path id="csg562-057-23" fill="none" stroke="black" stroke-width="1" d="M 454.00 3356.00 L 434.00 3376.00 L 414.00 3375.00 L 394.00 3375.00 L 374.00 3374.00 L 355.28 3383.36 L 354.00 3432.00 L 405.00 3468.00 L 539.45 3477.27 L 554.00 3478.00 L 574.00 3478.00 L 594.00 3479.00 L 614.00 3479.00 L 634.00 3480.00 L 654.00 3480.00 L 674.00 3481.00 L 694.00 3481.00 L 714.00 3482.00 L 734.00 3482.00 L 754.00 3483.00 L 774.00 3483.00 L 794.00 3484.00 L 814.00 3485.00 L 834.00 3485.00 L 854.00 3486.00 L 874.00 3486.00 L 894.00 3487.00 L 914.00 3487.00 L 934.00 3488.00 L 954.00 3488.00 L 974.00 3489.00 L 994.00 3489.00 L 1014.00 3509.00 L 1034.00 3509.00 L 1054.00 3491.00 L 1074.00 3491.00 L 1094.00 3492.00 L 1114.00 3492.00 L 1134.00 3493.00 L 1154.00 3493.00 L 1174.00 3494.00 L 1194.00 3494.00 L 1214.00 3495.00 L 1234.00 3496.00 L 1254.00 3496.00 L 1274.00 3497.00 L 1294.00 3497.00 L 1314.00 3498.00 L 1334.00 3498.00 L 1354.00 3499.00 L 1374.00 3499.00 L 1394.00 3500.00 L 1414.00 3500.00 L 1434.00 3501.00 L 1454.00 3501.00 L 1474.00 3502.00 L 1494.00 3502.00 L 1501.91 3502.40 L 2013.00 3507.00 L 2315.00 3509.00 L 2466.01 3509.00 L 2466.78 3436.00 L 2454.00 3436.00 L 2434.00 3435.00 L 2414.00 3434.00 L 2394.00 3434.00 L 2374.00 3433.00 L 2354.00 3433.00 L 2334.00 3432.00 L 2314.00 3412.00 L 2294.00 3431.00 L 2274.00 3430.00 L 2254.00 3430.00 L 2234.00 3429.00 L 2214.00 3429.00 L 2194.00 3428.00 L 2174.00 3427.00 L 2154.00 3427.00 L 2134.00 3426.00 L 2114.00 3426.00 L 2094.00 3425.00 L 2074.00 3424.00 L 2054.00 3424.00 L 2034.00 3423.00 L 2014.00 3423.00 L 1994.00 3422.00 L 1974.00 3421.00 L 1954.00 3421.00 L 1934.00 3420.00 L 1914.00 3420.00 L 1894.00 3419.00 L 1874.00 3418.00 L 1854.00 3418.00 L 1834.00 3417.00 L 1814.00 3417.00 L 1794.00 3416.00 L 1774.00 3416.00 L 1754.00 3415.00 L 1734.00 3414.00 L 1714.00 3414.00 L 1694.00 3413.00 L 1674.00 3413.00 L 1654.00 3412.00 L 1634.00 3411.00 L 1614.00 3411.00 L 1594.00 3410.00 L 1574.00 3410.00 L 1554.00 3409.00 L 1534.00 3408.00 L 1514.00 3408.00 L 1494.00 3407.00 L 1474.00 3387.00 L 1454.00 3406.00 L 1434.00 3405.00 L 1414.00 3405.00 L 1394.00 3404.00 L 1374.00 3404.00 L 1354.00 3403.00 L 1334.00 3403.00 L 1314.00 3402.00 L 1294.00 3401.00 L 1274.00 3401.00 L 1254.00 3400.00 L 1234.00 3400.00 L 1214.00 3399.00 L 1194.00 3398.00 L 1174.00 3398.00 L 1154.00 3397.00 L 1134.00 3397.00 L 1114.00 3396.00 L 1094.00 3395.00 L 1074.00 3395.00 L 1054.00 3394.00 L 1034.00 3394.00 L 1014.00 3393.00 L 994.00 3392.00 L 974.00 3392.00 L 954.00 3391.00 L 934.00 3391.00 L 914.00 3390.00 L 894.00 3389.00 L 874.00 3389.00 L 854.00 3388.00 L 834.00 3388.00 L 814.00 3387.00 L 794.00 3387.00 L 774.00 3386.00 L 754.00 3385.00 L 734.00 3385.00 L 714.00 3384.00 L 694.00 3384.00 L 674.00 3383.00 L 654.00 3382.00 L 634.00 3382.00 L 614.00 3381.00 L 594.00 3381.00 L 574.00 3380.00 L 554.00 3379.00 L 534.00 3379.00 L 514.00 3378.00 L 494.00 3378.00 L 474.00 3377.00 L 454.00 3356.00 Z" />
</svg>
