<?xml version="1.0" standalone="no"?>
<!DOCTYPE svg PUBLIC "-//W3C//DTD SVG 1.1//EN" "http://www.w3.org/Graphics/SVG/1.1/DTD/svg11.dtd">
<svg width="46.22222in" height="69.333336in" viewBox="0 0 3328 4992" xmlns="http://www.w3.org/2000/svg" version="1.1">
<path id="csg562-063-01" fill="none" stroke="black" stroke-width="1" d="M 2124.00 765.00 L 1170.00 771.00 L 360.00 810.00 L 349.69 914.77 L 362.00 908.00 L 422.00 908.00 L 442.00 907.00 L 502.00 907.00 L 522.00 906.00 L 582.00 906.00 L 602.00 905.00 L 662.00 905.00 L 682.00 904.00 L 742.00 904.00 L 762.00 903.00 L 822.00 903.00 L 842.00 902.00 L 922.00 902.00 L 942.00 901.00 L 1002.00 901.00 L 1022.00 900.00 L 1082.00 900.00 L 1102.00 899.00 L 1162.00 899.00 L 1182.00 898.00 L 1242.00 898.00 L 1262.00 897.00 L 1322.00 897.00 L 1342.00 896.00 L 1402.00 896.00 L 1422.00 895.00 L 1502.00 895.00 L 1520.98 894.05 L 1521.00 894.00 L 1521.48 894.03 L 1522.00 894.00 L 1582.00 894.00 L 1602.00 893.00 L 1662.00 893.00 L 1682.00 892.00 L 1742.00 892.00 L 1762.00 891.00 L 1779.19 908.19 L 1784.52 908.48 L 1802.00 891.00 L 1822.00 891.00 L 1842.00 890.00 L 1902.00 890.00 L 1910.57 889.57 L 2028.00 870.00 L 2475.00 870.00 L 2472.00 795.00 L 2124.00 765.00 Z" />
<path id="csg562-063-02" fill="none" stroke="black" stroke-width="1" d="M 1520.98 894.05 L 1502.00 895.00 L 1422.00 895.00 L 1402.00 896.00 L 1342.00 896.00 L 1322.00 897.00 L 1262.00 897.00 L 1242.00 898.00 L 1182.00 898.00 L 1162.00 899.00 L 1102.00 899.00 L 1082.00 900.00 L 1022.00 900.00 L 1002.00 901.00 L 942.00 901.00 L 922.00 902.00 L 842.00 902.00 L 822.00 903.00 L 762.00 903.00 L 742.00 904.00 L 682.00 904.00 L 662.00 905.00 L 602.00 905.00 L 582.00 906.00 L 522.00 906.00 L 502.00 907.00 L 442.00 907.00 L 422.00 908.00 L 362.00 908.00 L 349.69 914.77 L 342.00 993.00 L 483.00 1008.00 L 1368.00 999.00 L 1371.33 1000.00 L 1402.00 1000.00 L 1416.15 1013.45 L 1434.67 1019.00 L 1442.00 1019.00 L 1462.00 999.00 L 1470.89 999.00 L 1520.98 894.05 Z" />
<path id="csg562-063-03" fill="none" stroke="black" stroke-width="1" d="M 1566.00 1122.00 L 840.00 1128.00 L 546.00 1149.00 L 515.44 1243.23 L 520.00 1243.00 L 720.00 1243.00 L 740.00 1242.00 L 940.00 1242.00 L 960.00 1241.00 L 1140.00 1241.00 L 1160.00 1261.00 L 1180.00 1240.00 L 1380.00 1240.00 L 1400.00 1239.00 L 1600.00 1239.00 L 1620.00 1238.00 L 1820.00 1238.00 L 1840.00 1237.00 L 2040.00 1237.00 L 2060.00 1236.00 L 2260.00 1236.00 L 2280.00 1235.00 L 2460.00 1235.00 L 2479.86 1234.01 L 2376.00 1122.00 L 2064.00 1131.00 L 1566.00 1122.00 Z" />
<path id="csg562-063-04" fill="none" stroke="black" stroke-width="1" d="M 2479.86 1234.01 L 2460.00 1235.00 L 2280.00 1235.00 L 2260.00 1236.00 L 2060.00 1236.00 L 2040.00 1237.00 L 1840.00 1237.00 L 1820.00 1238.00 L 1620.00 1238.00 L 1600.00 1239.00 L 1400.00 1239.00 L 1380.00 1240.00 L 1180.00 1240.00 L 1160.00 1261.00 L 1140.00 1241.00 L 960.00 1241.00 L 940.00 1242.00 L 740.00 1242.00 L 720.00 1243.00 L 520.00 1243.00 L 515.44 1243.23 L 510.00 1260.00 L 375.00 1281.00 L 412.33 1353.00 L 680.00 1353.00 L 700.00 1352.00 L 720.00 1352.00 L 740.00 1372.00 L 760.00 1372.00 L 780.00 1352.00 L 1060.00 1352.00 L 1080.00 1351.00 L 1140.00 1351.00 L 1160.00 1371.00 L 1180.00 1371.00 L 1200.00 1351.00 L 1440.00 1351.00 L 1460.00 1350.00 L 1840.00 1350.00 L 1860.00 1349.00 L 2220.00 1349.00 L 2240.00 1348.00 L 2503.42 1348.00 L 2529.00 1287.00 L 2479.86 1234.01 Z" />
<path id="csg562-063-05" fill="none" stroke="black" stroke-width="1" d="M 2240.00 1348.00 L 2220.00 1349.00 L 1860.00 1349.00 L 1840.00 1350.00 L 1460.00 1350.00 L 1440.00 1351.00 L 1200.00 1351.00 L 1180.00 1371.00 L 1160.00 1371.00 L 1140.00 1351.00 L 1080.00 1351.00 L 1060.00 1352.00 L 780.00 1352.00 L 760.00 1372.00 L 740.00 1372.00 L 720.00 1352.00 L 700.00 1352.00 L 680.00 1353.00 L 412.33 1353.00 L 417.00 1362.00 L 366.00 1410.00 L 365.83 1467.00 L 420.00 1467.00 L 440.00 1466.00 L 540.00 1466.00 L 560.00 1485.00 L 580.00 1485.00 L 600.00 1465.00 L 680.00 1465.00 L 700.00 1464.00 L 800.00 1464.00 L 820.00 1463.00 L 920.00 1463.00 L 940.00 1462.00 L 1060.00 1462.00 L 1080.00 1461.00 L 1180.00 1461.00 L 1200.00 1460.00 L 1300.00 1460.00 L 1320.00 1459.00 L 1440.00 1459.00 L 1460.00 1458.00 L 1560.00 1458.00 L 1580.00 1457.00 L 1680.00 1457.00 L 1700.00 1456.00 L 1820.00 1456.00 L 1840.00 1455.00 L 1940.00 1455.00 L 1960.00 1454.00 L 2060.00 1454.00 L 2080.00 1453.00 L 2100.00 1453.00 L 2120.00 1473.00 L 2140.00 1493.00 L 2160.00 1473.00 L 2180.00 1453.00 L 2200.00 1453.00 L 2220.00 1452.00 L 2320.00 1452.00 L 2340.00 1451.00 L 2440.00 1451.00 L 2460.00 1450.00 L 2511.16 1450.00 L 2490.00 1380.00 L 2503.42 1348.00 Z" />
<path id="csg562-063-06" fill="none" stroke="black" stroke-width="1" d="M 2460.00 1450.00 L 2440.00 1451.00 L 2340.00 1451.00 L 2320.00 1452.00 L 2220.00 1452.00 L 2200.00 1453.00 L 2180.00 1453.00 L 2160.00 1473.00 L 2140.00 1493.00 L 2120.00 1473.00 L 2100.00 1453.00 L 2080.00 1453.00 L 2060.00 1454.00 L 1960.00 1454.00 L 1940.00 1455.00 L 1840.00 1455.00 L 1820.00 1456.00 L 1700.00 1456.00 L 1680.00 1457.00 L 1580.00 1457.00 L 1560.00 1458.00 L 1460.00 1458.00 L 1440.00 1459.00 L 1320.00 1459.00 L 1300.00 1460.00 L 1200.00 1460.00 L 1180.00 1461.00 L 1080.00 1461.00 L 1060.00 1462.00 L 940.00 1462.00 L 920.00 1463.00 L 820.00 1463.00 L 800.00 1464.00 L 700.00 1464.00 L 680.00 1465.00 L 600.00 1465.00 L 580.00 1485.00 L 560.00 1485.00 L 540.00 1466.00 L 440.00 1466.00 L 420.00 1467.00 L 365.83 1467.00 L 365.50 1581.00 L 580.00 1581.00 L 600.00 1580.00 L 860.00 1580.00 L 880.00 1579.00 L 1140.00 1579.00 L 1160.00 1599.00 L 1180.00 1598.00 L 1200.00 1578.00 L 1440.00 1578.00 L 1460.00 1577.00 L 1480.00 1597.00 L 1500.00 1597.00 L 1520.00 1577.00 L 1740.00 1577.00 L 1760.00 1576.00 L 1820.00 1576.00 L 1840.00 1596.00 L 1860.00 1596.00 L 1880.00 1576.00 L 2020.00 1576.00 L 2040.00 1575.00 L 2180.00 1575.00 L 2200.00 1595.00 L 2220.00 1575.00 L 2320.00 1575.00 L 2340.00 1574.00 L 2380.00 1574.00 L 2400.00 1594.00 L 2420.00 1574.00 L 2548.65 1574.00 L 2511.16 1450.00 Z" />
<path id="csg562-063-07" fill="none" stroke="black" stroke-width="1" d="M 2340.00 1574.00 L 2320.00 1575.00 L 2220.00 1575.00 L 2200.00 1595.00 L 2180.00 1575.00 L 2040.00 1575.00 L 2020.00 1576.00 L 1880.00 1576.00 L 1860.00 1596.00 L 1840.00 1596.00 L 1820.00 1576.00 L 1760.00 1576.00 L 1740.00 1577.00 L 1520.00 1577.00 L 1500.00 1597.00 L 1480.00 1597.00 L 1460.00 1577.00 L 1440.00 1578.00 L 1200.00 1578.00 L 1180.00 1598.00 L 1160.00 1599.00 L 1140.00 1579.00 L 880.00 1579.00 L 860.00 1580.00 L 600.00 1580.00 L 580.00 1581.00 L 365.50 1581.00 L 365.19 1689.00 L 400.00 1689.00 L 420.00 1688.00 L 500.00 1688.00 L 520.00 1687.00 L 580.00 1687.00 L 600.00 1667.00 L 620.00 1667.00 L 640.00 1666.00 L 660.00 1686.00 L 720.00 1686.00 L 740.00 1685.00 L 760.00 1705.00 L 780.00 1725.00 L 800.00 1685.00 L 820.00 1685.00 L 840.00 1684.00 L 940.00 1684.00 L 960.00 1683.00 L 1040.00 1683.00 L 1060.00 1682.00 L 1140.00 1682.00 L 1160.00 1681.00 L 1180.00 1661.00 L 1200.00 1681.00 L 1260.00 1681.00 L 1280.00 1680.00 L 1360.00 1680.00 L 1380.00 1679.00 L 1420.00 1679.00 L 1440.00 1699.00 L 1460.00 1699.00 L 1480.00 1679.00 L 1500.00 1678.00 L 1520.00 1698.00 L 1540.00 1678.00 L 1560.00 1698.00 L 1580.00 1678.00 L 1600.00 1677.00 L 1680.00 1677.00 L 1700.00 1676.00 L 1800.00 1676.00 L 1820.00 1675.00 L 1900.00 1675.00 L 1920.00 1674.00 L 2000.00 1674.00 L 2020.00 1673.00 L 2060.00 1673.00 L 2080.00 1693.00 L 2100.00 1693.00 L 2120.00 1673.00 L 2140.00 1672.00 L 2220.00 1672.00 L 2240.00 1671.00 L 2320.00 1671.00 L 2340.00 1670.00 L 2440.00 1670.00 L 2460.00 1669.00 L 2537.00 1669.00 L 2568.00 1638.00 L 2548.65 1574.00 L 2420.00 1574.00 L 2400.00 1594.00 L 2380.00 1574.00 Z" />
<path id="csg562-063-08" fill="none" stroke="black" stroke-width="1" d="M 1180.00 1661.00 L 1160.00 1681.00 L 1140.00 1682.00 L 1060.00 1682.00 L 1040.00 1683.00 L 960.00 1683.00 L 940.00 1684.00 L 840.00 1684.00 L 820.00 1685.00 L 800.00 1685.00 L 780.00 1725.00 L 760.00 1705.00 L 740.00 1685.00 L 720.00 1686.00 L 660.00 1686.00 L 640.00 1666.00 L 620.00 1667.00 L 600.00 1667.00 L 580.00 1687.00 L 520.00 1687.00 L 500.00 1688.00 L 420.00 1688.00 L 400.00 1689.00 L 365.19 1689.00 L 364.86 1803.76 L 380.00 1803.00 L 420.00 1803.00 L 440.00 1802.00 L 480.00 1802.00 L 500.00 1801.00 L 540.00 1801.00 L 560.00 1800.00 L 580.00 1820.00 L 600.00 1800.00 L 620.00 1820.00 L 640.00 1819.00 L 660.00 1819.00 L 680.00 1799.00 L 700.00 1798.00 L 740.00 1798.00 L 760.00 1797.00 L 800.00 1797.00 L 820.00 1796.00 L 880.00 1796.00 L 900.00 1795.00 L 940.00 1795.00 L 960.00 1794.00 L 1000.00 1794.00 L 1020.00 1793.00 L 1060.00 1793.00 L 1080.00 1792.00 L 1120.00 1792.00 L 1140.00 1791.00 L 1200.00 1791.00 L 1220.00 1790.00 L 1260.00 1790.00 L 1280.00 1789.00 L 1320.00 1789.00 L 1340.00 1788.00 L 1360.00 1788.00 L 1380.00 1808.00 L 1400.00 1807.00 L 1420.00 1787.00 L 1460.00 1787.00 L 1480.00 1786.00 L 1520.00 1786.00 L 1540.00 1785.00 L 1580.00 1785.00 L 1600.00 1804.00 L 1620.00 1804.00 L 1640.00 1824.00 L 1660.00 1803.00 L 1680.00 1783.00 L 1700.00 1783.00 L 1720.00 1782.00 L 1780.00 1782.00 L 1800.00 1781.00 L 1840.00 1781.00 L 1860.00 1780.00 L 1900.00 1780.00 L 1920.00 1779.00 L 1960.00 1779.00 L 1980.00 1778.00 L 2040.00 1778.00 L 2060.00 1777.00 L 2100.00 1777.00 L 2120.00 1776.00 L 2160.00 1776.00 L 2180.00 1775.00 L 2220.00 1775.00 L 2240.00 1774.00 L 2280.00 1774.00 L 2300.00 1773.00 L 2360.00 1773.00 L 2380.00 1772.00 L 2420.00 1772.00 L 2440.00 1771.00 L 2477.25 1771.00 L 2469.00 1737.00 L 2537.00 1669.00 L 2460.00 1669.00 L 2440.00 1670.00 L 2340.00 1670.00 L 2320.00 1671.00 L 2240.00 1671.00 L 2220.00 1672.00 L 2140.00 1672.00 L 2120.00 1673.00 L 2100.00 1693.00 L 2080.00 1693.00 L 2060.00 1673.00 L 2020.00 1673.00 L 2000.00 1674.00 L 1920.00 1674.00 L 1900.00 1675.00 L 1820.00 1675.00 L 1800.00 1676.00 L 1700.00 1676.00 L 1680.00 1677.00 L 1600.00 1677.00 L 1580.00 1678.00 L 1560.00 1698.00 L 1540.00 1678.00 L 1520.00 1698.00 L 1500.00 1678.00 L 1480.00 1679.00 L 1460.00 1699.00 L 1440.00 1699.00 L 1420.00 1679.00 L 1380.00 1679.00 L 1360.00 1680.00 L 1280.00 1680.00 L 1260.00 1681.00 L 1200.00 1681.00 L 1180.00 1661.00 Z" />
<path id="csg562-063-09" fill="none" stroke="black" stroke-width="1" d="M 2440.00 1771.00 L 2420.00 1772.00 L 2380.00 1772.00 L 2360.00 1773.00 L 2300.00 1773.00 L 2280.00 1774.00 L 2240.00 1774.00 L 2220.00 1775.00 L 2180.00 1775.00 L 2160.00 1776.00 L 2120.00 1776.00 L 2100.00 1777.00 L 2060.00 1777.00 L 2040.00 1778.00 L 1980.00 1778.00 L 1960.00 1779.00 L 1920.00 1779.00 L 1900.00 1780.00 L 1860.00 1780.00 L 1840.00 1781.00 L 1800.00 1781.00 L 1780.00 1782.00 L 1720.00 1782.00 L 1700.00 1783.00 L 1680.00 1783.00 L 1660.00 1803.00 L 1640.00 1824.00 L 1620.00 1804.00 L 1600.00 1804.00 L 1580.00 1785.00 L 1540.00 1785.00 L 1520.00 1786.00 L 1480.00 1786.00 L 1460.00 1787.00 L 1420.00 1787.00 L 1400.00 1807.00 L 1380.00 1808.00 L 1360.00 1788.00 L 1340.00 1788.00 L 1320.00 1789.00 L 1280.00 1789.00 L 1260.00 1790.00 L 1220.00 1790.00 L 1200.00 1791.00 L 1140.00 1791.00 L 1120.00 1792.00 L 1080.00 1792.00 L 1060.00 1793.00 L 1020.00 1793.00 L 1000.00 1794.00 L 960.00 1794.00 L 940.00 1795.00 L 900.00 1795.00 L 880.00 1796.00 L 820.00 1796.00 L 800.00 1797.00 L 760.00 1797.00 L 740.00 1798.00 L 700.00 1798.00 L 680.00 1799.00 L 660.00 1819.00 L 640.00 1819.00 L 620.00 1820.00 L 600.00 1800.00 L 580.00 1820.00 L 560.00 1800.00 L 540.00 1801.00 L 500.00 1801.00 L 480.00 1802.00 L 440.00 1802.00 L 420.00 1803.00 L 380.00 1803.00 L 364.86 1803.76 L 364.53 1918.00 L 380.00 1918.00 L 400.00 1938.00 L 420.00 1938.00 L 440.00 1918.00 L 500.00 1918.00 L 520.00 1917.00 L 540.00 1937.00 L 560.00 1917.00 L 720.00 1917.00 L 740.00 1916.00 L 940.00 1916.00 L 960.00 1915.00 L 1160.00 1915.00 L 1180.00 1914.00 L 1240.00 1914.00 L 1260.00 1934.00 L 1280.00 1914.00 L 1360.00 1914.00 L 1380.00 1913.00 L 1580.00 1913.00 L 1600.00 1912.00 L 1760.00 1912.00 L 1780.00 1892.00 L 1800.00 1892.00 L 1820.00 1891.00 L 1840.00 1911.00 L 2020.00 1911.00 L 2040.00 1910.00 L 2100.00 1910.00 L 2120.00 1930.00 L 2140.00 1910.00 L 2220.00 1910.00 L 2240.00 1909.00 L 2440.00 1909.00 L 2460.00 1908.00 L 2510.50 1908.00 L 2477.25 1771.00 Z" />
<path id="csg562-063-10" fill="none" stroke="black" stroke-width="1" d="M 1820.00 1891.00 L 1800.00 1892.00 L 1780.00 1892.00 L 1760.00 1912.00 L 1600.00 1912.00 L 1580.00 1913.00 L 1380.00 1913.00 L 1360.00 1914.00 L 1280.00 1914.00 L 1260.00 1934.00 L 1240.00 1914.00 L 1180.00 1914.00 L 1160.00 1915.00 L 960.00 1915.00 L 940.00 1916.00 L 740.00 1916.00 L 720.00 1917.00 L 560.00 1917.00 L 540.00 1937.00 L 520.00 1917.00 L 500.00 1918.00 L 440.00 1918.00 L 420.00 1938.00 L 400.00 1938.00 L 380.00 1918.00 L 364.53 1918.00 L 364.21 2027.00 L 500.00 2027.00 L 520.00 2026.00 L 720.00 2026.00 L 740.00 2025.00 L 840.00 2025.00 L 860.00 2045.00 L 880.00 2045.00 L 900.00 2025.00 L 920.00 2025.00 L 940.00 2044.00 L 960.00 2024.00 L 1140.00 2024.00 L 1160.00 2023.00 L 1340.00 2023.00 L 1360.00 2022.00 L 1540.00 2022.00 L 1560.00 2002.00 L 1580.00 2001.00 L 1600.00 2021.00 L 1760.00 2021.00 L 1780.00 2020.00 L 1980.00 2020.00 L 2000.00 2019.00 L 2180.00 2019.00 L 2200.00 2018.00 L 2400.00 2018.00 L 2420.00 2017.00 L 2536.96 2017.00 L 2510.50 1908.00 L 2460.00 1908.00 L 2440.00 1909.00 L 2240.00 1909.00 L 2220.00 1910.00 L 2140.00 1910.00 L 2120.00 1930.00 L 2100.00 1910.00 L 2040.00 1910.00 L 2020.00 1911.00 L 1840.00 1911.00 L 1820.00 1891.00 Z" />
<path id="csg562-063-11" fill="none" stroke="black" stroke-width="1" d="M 1580.00 2001.00 L 1560.00 2002.00 L 1540.00 2022.00 L 1360.00 2022.00 L 1340.00 2023.00 L 1160.00 2023.00 L 1140.00 2024.00 L 960.00 2024.00 L 940.00 2044.00 L 920.00 2025.00 L 900.00 2025.00 L 880.00 2045.00 L 860.00 2045.00 L 840.00 2025.00 L 740.00 2025.00 L 720.00 2026.00 L 520.00 2026.00 L 500.00 2027.00 L 364.21 2027.00 L 363.88 2143.00 L 400.00 2143.00 L 420.00 2142.00 L 460.00 2142.00 L 480.00 2161.00 L 500.00 2141.00 L 520.00 2141.00 L 540.00 2140.00 L 580.00 2140.00 L 600.00 2139.00 L 640.00 2139.00 L 660.00 2138.00 L 700.00 2138.00 L 720.00 2137.00 L 760.00 2137.00 L 780.00 2136.00 L 820.00 2136.00 L 840.00 2135.00 L 860.00 2155.00 L 880.00 2155.00 L 900.00 2154.00 L 920.00 2134.00 L 940.00 2134.00 L 960.00 2133.00 L 980.00 2153.00 L 1000.00 2153.00 L 1020.00 2152.00 L 1040.00 2132.00 L 1060.00 2132.00 L 1080.00 2131.00 L 1120.00 2131.00 L 1140.00 2130.00 L 1180.00 2130.00 L 1200.00 2129.00 L 1240.00 2129.00 L 1260.00 2128.00 L 1300.00 2128.00 L 1320.00 2127.00 L 1360.00 2127.00 L 1380.00 2126.00 L 1420.00 2126.00 L 1440.00 2125.00 L 1480.00 2125.00 L 1500.00 2124.00 L 1540.00 2124.00 L 1560.00 2123.00 L 1600.00 2123.00 L 1620.00 2122.00 L 1660.00 2122.00 L 1680.00 2121.00 L 1720.00 2121.00 L 1740.00 2120.00 L 1780.00 2120.00 L 1800.00 2119.00 L 1840.00 2119.00 L 1860.00 2118.00 L 1900.00 2118.00 L 1920.00 2117.00 L 1960.00 2117.00 L 1980.00 2116.00 L 2020.00 2116.00 L 2040.00 2115.00 L 2060.00 2135.00 L 2080.00 2134.00 L 2100.00 2134.00 L 2120.00 2114.00 L 2140.00 2113.00 L 2180.00 2113.00 L 2200.00 2112.00 L 2240.00 2112.00 L 2260.00 2111.00 L 2300.00 2111.00 L 2320.00 2110.00 L 2360.00 2110.00 L 2380.00 2109.00 L 2420.00 2109.00 L 2440.00 2108.00 L 2480.00 2108.00 L 2500.00 2107.00 L 2540.00 2107.00 L 2541.54 2106.92 L 2544.00 2046.00 L 2536.96 2017.00 L 2420.00 2017.00 L 2400.00 2018.00 L 2200.00 2018.00 L 2180.00 2019.00 L 2000.00 2019.00 L 1980.00 2020.00 L 1780.00 2020.00 L 1760.00 2021.00 L 1600.00 2021.00 L 1580.00 2001.00 Z" />
<path id="csg562-063-12" fill="none" stroke="black" stroke-width="1" d="M 2541.54 2106.92 L 2540.00 2107.00 L 2500.00 2107.00 L 2480.00 2108.00 L 2440.00 2108.00 L 2420.00 2109.00 L 2380.00 2109.00 L 2360.00 2110.00 L 2320.00 2110.00 L 2300.00 2111.00 L 2260.00 2111.00 L 2240.00 2112.00 L 2200.00 2112.00 L 2180.00 2113.00 L 2140.00 2113.00 L 2120.00 2114.00 L 2100.00 2134.00 L 2080.00 2134.00 L 2060.00 2135.00 L 2040.00 2115.00 L 2020.00 2116.00 L 1980.00 2116.00 L 1960.00 2117.00 L 1920.00 2117.00 L 1900.00 2118.00 L 1860.00 2118.00 L 1840.00 2119.00 L 1800.00 2119.00 L 1780.00 2120.00 L 1740.00 2120.00 L 1720.00 2121.00 L 1680.00 2121.00 L 1660.00 2122.00 L 1620.00 2122.00 L 1600.00 2123.00 L 1560.00 2123.00 L 1540.00 2124.00 L 1500.00 2124.00 L 1480.00 2125.00 L 1440.00 2125.00 L 1420.00 2126.00 L 1380.00 2126.00 L 1360.00 2127.00 L 1320.00 2127.00 L 1300.00 2128.00 L 1260.00 2128.00 L 1240.00 2129.00 L 1200.00 2129.00 L 1180.00 2130.00 L 1140.00 2130.00 L 1120.00 2131.00 L 1080.00 2131.00 L 1060.00 2132.00 L 1040.00 2132.00 L 1020.00 2152.00 L 1000.00 2153.00 L 980.00 2153.00 L 960.00 2133.00 L 940.00 2134.00 L 920.00 2134.00 L 900.00 2154.00 L 880.00 2155.00 L 860.00 2155.00 L 840.00 2135.00 L 820.00 2136.00 L 780.00 2136.00 L 760.00 2137.00 L 720.00 2137.00 L 700.00 2138.00 L 660.00 2138.00 L 640.00 2139.00 L 600.00 2139.00 L 580.00 2140.00 L 540.00 2140.00 L 520.00 2141.00 L 500.00 2141.00 L 480.00 2161.00 L 460.00 2142.00 L 420.00 2142.00 L 400.00 2143.00 L 363.88 2143.00 L 363.58 2243.82 L 380.00 2243.00 L 420.00 2243.00 L 440.00 2242.00 L 500.00 2242.00 L 520.00 2241.00 L 560.00 2241.00 L 580.00 2240.00 L 620.00 2240.00 L 640.00 2239.00 L 700.00 2239.00 L 720.00 2238.00 L 760.00 2238.00 L 780.00 2237.00 L 820.00 2237.00 L 840.00 2236.00 L 900.00 2236.00 L 920.00 2235.00 L 960.00 2235.00 L 980.00 2234.00 L 1020.00 2234.00 L 1040.00 2233.00 L 1100.00 2233.00 L 1120.00 2232.00 L 1160.00 2232.00 L 1180.00 2231.00 L 1240.00 2231.00 L 1260.00 2230.00 L 1300.00 2230.00 L 1320.00 2229.00 L 1340.00 2249.00 L 1360.00 2249.00 L 1380.00 2228.00 L 1440.00 2228.00 L 1460.00 2227.00 L 1500.00 2227.00 L 1520.00 2246.00 L 1540.00 2246.00 L 1560.00 2226.00 L 1580.00 2225.00 L 1640.00 2225.00 L 1660.00 2224.00 L 1700.00 2224.00 L 1720.00 2223.00 L 1760.00 2223.00 L 1780.00 2222.00 L 1820.00 2222.00 L 1840.00 2242.00 L 1860.00 2241.00 L 1880.00 2221.00 L 1900.00 2221.00 L 1920.00 2220.00 L 1960.00 2220.00 L 1980.00 2240.00 L 2000.00 2239.00 L 2020.00 2219.00 L 2040.00 2219.00 L 2060.00 2218.00 L 2100.00 2218.00 L 2120.00 2217.00 L 2180.00 2217.00 L 2200.00 2216.00 L 2240.00 2216.00 L 2260.00 2215.00 L 2300.00 2215.00 L 2320.00 2214.00 L 2380.00 2214.00 L 2400.00 2213.00 L 2440.00 2213.00 L 2460.00 2212.00 L 2500.00 2212.00 L 2520.00 2211.00 L 2537.33 2211.00 L 2541.54 2106.92 Z" />
<path id="csg562-063-13" fill="none" stroke="black" stroke-width="1" d="M 2520.00 2211.00 L 2500.00 2212.00 L 2460.00 2212.00 L 2440.00 2213.00 L 2400.00 2213.00 L 2380.00 2214.00 L 2320.00 2214.00 L 2300.00 2215.00 L 2260.00 2215.00 L 2240.00 2216.00 L 2200.00 2216.00 L 2180.00 2217.00 L 2120.00 2217.00 L 2100.00 2218.00 L 2060.00 2218.00 L 2040.00 2219.00 L 2020.00 2219.00 L 2000.00 2239.00 L 1980.00 2240.00 L 1960.00 2220.00 L 1920.00 2220.00 L 1900.00 2221.00 L 1880.00 2221.00 L 1860.00 2241.00 L 1840.00 2242.00 L 1820.00 2222.00 L 1780.00 2222.00 L 1760.00 2223.00 L 1720.00 2223.00 L 1700.00 2224.00 L 1660.00 2224.00 L 1640.00 2225.00 L 1580.00 2225.00 L 1560.00 2226.00 L 1540.00 2246.00 L 1520.00 2246.00 L 1500.00 2227.00 L 1460.00 2227.00 L 1440.00 2228.00 L 1380.00 2228.00 L 1360.00 2249.00 L 1340.00 2249.00 L 1320.00 2229.00 L 1300.00 2230.00 L 1260.00 2230.00 L 1240.00 2231.00 L 1180.00 2231.00 L 1160.00 2232.00 L 1120.00 2232.00 L 1100.00 2233.00 L 1040.00 2233.00 L 1020.00 2234.00 L 980.00 2234.00 L 960.00 2235.00 L 920.00 2235.00 L 900.00 2236.00 L 840.00 2236.00 L 820.00 2237.00 L 780.00 2237.00 L 760.00 2238.00 L 720.00 2238.00 L 700.00 2239.00 L 640.00 2239.00 L 620.00 2240.00 L 580.00 2240.00 L 560.00 2241.00 L 520.00 2241.00 L 500.00 2242.00 L 440.00 2242.00 L 420.00 2243.00 L 380.00 2243.00 L 363.58 2243.82 L 363.23 2365.00 L 380.00 2365.00 L 400.00 2384.00 L 420.00 2364.00 L 460.00 2364.00 L 480.00 2363.00 L 540.00 2363.00 L 560.00 2362.00 L 640.00 2362.00 L 660.00 2361.00 L 720.00 2361.00 L 740.00 2360.00 L 800.00 2360.00 L 820.00 2359.00 L 900.00 2359.00 L 920.00 2358.00 L 980.00 2358.00 L 1000.00 2357.00 L 1060.00 2357.00 L 1080.00 2356.00 L 1140.00 2356.00 L 1160.00 2376.00 L 1180.00 2375.00 L 1200.00 2355.00 L 1240.00 2355.00 L 1260.00 2354.00 L 1320.00 2354.00 L 1340.00 2353.00 L 1420.00 2353.00 L 1440.00 2352.00 L 1500.00 2352.00 L 1520.00 2351.00 L 1540.00 2371.00 L 1560.00 2351.00 L 1580.00 2351.00 L 1600.00 2350.00 L 1680.00 2350.00 L 1700.00 2349.00 L 1760.00 2349.00 L 1780.00 2348.00 L 1840.00 2348.00 L 1860.00 2347.00 L 1940.00 2347.00 L 1960.00 2346.00 L 2020.00 2346.00 L 2040.00 2345.00 L 2100.00 2345.00 L 2120.00 2344.00 L 2200.00 2344.00 L 2220.00 2343.00 L 2280.00 2343.00 L 2300.00 2342.00 L 2340.00 2342.00 L 2360.00 2362.00 L 2380.00 2341.00 L 2460.00 2341.00 L 2480.00 2340.00 L 2532.12 2340.00 L 2537.33 2211.00 Z" />
<path id="csg562-063-14" fill="none" stroke="black" stroke-width="1" d="M 2480.00 2340.00 L 2460.00 2341.00 L 2380.00 2341.00 L 2360.00 2362.00 L 2340.00 2342.00 L 2300.00 2342.00 L 2280.00 2343.00 L 2220.00 2343.00 L 2200.00 2344.00 L 2120.00 2344.00 L 2100.00 2345.00 L 2040.00 2345.00 L 2020.00 2346.00 L 1960.00 2346.00 L 1940.00 2347.00 L 1860.00 2347.00 L 1840.00 2348.00 L 1780.00 2348.00 L 1760.00 2349.00 L 1700.00 2349.00 L 1680.00 2350.00 L 1600.00 2350.00 L 1580.00 2351.00 L 1560.00 2351.00 L 1540.00 2371.00 L 1520.00 2351.00 L 1500.00 2352.00 L 1440.00 2352.00 L 1420.00 2353.00 L 1340.00 2353.00 L 1320.00 2354.00 L 1260.00 2354.00 L 1240.00 2355.00 L 1200.00 2355.00 L 1180.00 2375.00 L 1160.00 2376.00 L 1140.00 2356.00 L 1080.00 2356.00 L 1060.00 2357.00 L 1000.00 2357.00 L 980.00 2358.00 L 920.00 2358.00 L 900.00 2359.00 L 820.00 2359.00 L 800.00 2360.00 L 740.00 2360.00 L 720.00 2361.00 L 660.00 2361.00 L 640.00 2362.00 L 560.00 2362.00 L 540.00 2363.00 L 480.00 2363.00 L 460.00 2364.00 L 420.00 2364.00 L 400.00 2384.00 L 380.00 2365.00 L 363.23 2365.00 L 363.00 2445.00 L 357.11 2477.00 L 380.00 2477.00 L 400.00 2476.00 L 460.00 2476.00 L 480.00 2475.00 L 540.00 2475.00 L 560.00 2474.00 L 620.00 2474.00 L 640.00 2473.00 L 700.00 2473.00 L 720.00 2472.00 L 780.00 2472.00 L 800.00 2471.00 L 860.00 2471.00 L 880.00 2470.00 L 940.00 2470.00 L 960.00 2469.00 L 1020.00 2469.00 L 1040.00 2468.00 L 1060.00 2488.00 L 1080.00 2488.00 L 1100.00 2468.00 L 1120.00 2467.00 L 1140.00 2467.00 L 1160.00 2487.00 L 1180.00 2487.00 L 1200.00 2486.00 L 1220.00 2466.00 L 1260.00 2466.00 L 1280.00 2465.00 L 1340.00 2465.00 L 1360.00 2464.00 L 1420.00 2464.00 L 1440.00 2463.00 L 1500.00 2463.00 L 1520.00 2462.00 L 1580.00 2462.00 L 1600.00 2461.00 L 1660.00 2461.00 L 1680.00 2460.00 L 1740.00 2460.00 L 1760.00 2459.00 L 1840.00 2459.00 L 1860.00 2458.00 L 1900.00 2458.00 L 1920.00 2478.00 L 1940.00 2457.00 L 1960.00 2477.00 L 1980.00 2477.00 L 2000.00 2457.00 L 2020.00 2456.00 L 2080.00 2456.00 L 2100.00 2455.00 L 2160.00 2455.00 L 2180.00 2454.00 L 2200.00 2454.00 L 2220.00 2474.00 L 2240.00 2474.00 L 2260.00 2453.00 L 2320.00 2453.00 L 2340.00 2452.00 L 2400.00 2452.00 L 2420.00 2451.00 L 2480.00 2451.00 L 2500.00 2450.00 L 2560.00 2450.00 L 2563.93 2449.80 L 2532.00 2343.00 L 2532.12 2340.00 Z" />
<path id="csg562-063-15" fill="none" stroke="black" stroke-width="1" d="M 2563.93 2449.80 L 2560.00 2450.00 L 2500.00 2450.00 L 2480.00 2451.00 L 2420.00 2451.00 L 2400.00 2452.00 L 2340.00 2452.00 L 2320.00 2453.00 L 2260.00 2453.00 L 2240.00 2474.00 L 2220.00 2474.00 L 2200.00 2454.00 L 2180.00 2454.00 L 2160.00 2455.00 L 2100.00 2455.00 L 2080.00 2456.00 L 2020.00 2456.00 L 2000.00 2457.00 L 1980.00 2477.00 L 1960.00 2477.00 L 1940.00 2457.00 L 1920.00 2478.00 L 1900.00 2458.00 L 1860.00 2458.00 L 1840.00 2459.00 L 1760.00 2459.00 L 1740.00 2460.00 L 1680.00 2460.00 L 1660.00 2461.00 L 1600.00 2461.00 L 1580.00 2462.00 L 1520.00 2462.00 L 1500.00 2463.00 L 1440.00 2463.00 L 1420.00 2464.00 L 1360.00 2464.00 L 1340.00 2465.00 L 1280.00 2465.00 L 1260.00 2466.00 L 1220.00 2466.00 L 1200.00 2486.00 L 1180.00 2487.00 L 1160.00 2487.00 L 1140.00 2467.00 L 1120.00 2467.00 L 1100.00 2468.00 L 1080.00 2488.00 L 1060.00 2488.00 L 1040.00 2468.00 L 1020.00 2469.00 L 960.00 2469.00 L 940.00 2470.00 L 880.00 2470.00 L 860.00 2471.00 L 800.00 2471.00 L 780.00 2472.00 L 720.00 2472.00 L 700.00 2473.00 L 640.00 2473.00 L 620.00 2474.00 L 560.00 2474.00 L 540.00 2475.00 L 480.00 2475.00 L 460.00 2476.00 L 400.00 2476.00 L 380.00 2477.00 L 357.11 2477.00 L 337.95 2581.00 L 340.00 2581.00 L 360.00 2580.00 L 400.00 2580.00 L 420.00 2579.00 L 460.00 2579.00 L 480.00 2578.00 L 520.00 2578.00 L 540.00 2577.00 L 580.00 2577.00 L 600.00 2576.00 L 640.00 2576.00 L 660.00 2575.00 L 700.00 2575.00 L 720.00 2574.00 L 760.00 2574.00 L 780.00 2573.00 L 800.00 2573.00 L 820.00 2572.00 L 840.00 2572.00 L 860.00 2592.00 L 880.00 2591.00 L 900.00 2571.00 L 920.00 2571.00 L 940.00 2570.00 L 980.00 2570.00 L 1000.00 2569.00 L 1040.00 2569.00 L 1060.00 2568.00 L 1100.00 2568.00 L 1120.00 2567.00 L 1160.00 2567.00 L 1180.00 2566.00 L 1220.00 2566.00 L 1240.00 2565.00 L 1260.00 2565.00 L 1280.00 2564.00 L 1300.00 2564.00 L 1320.00 2604.00 L 1340.00 2583.00 L 1360.00 2563.00 L 1380.00 2563.00 L 1400.00 2562.00 L 1440.00 2562.00 L 1460.00 2561.00 L 1500.00 2561.00 L 1520.00 2560.00 L 1560.00 2560.00 L 1580.00 2559.00 L 1600.00 2599.00 L 1620.00 2579.00 L 1640.00 2558.00 L 1680.00 2558.00 L 1700.00 2557.00 L 1720.00 2557.00 L 1740.00 2556.00 L 1780.00 2556.00 L 1800.00 2555.00 L 1840.00 2555.00 L 1860.00 2554.00 L 1900.00 2554.00 L 1920.00 2553.00 L 1960.00 2553.00 L 1980.00 2552.00 L 2020.00 2552.00 L 2040.00 2551.00 L 2060.00 2571.00 L 2080.00 2551.00 L 2100.00 2550.00 L 2140.00 2550.00 L 2160.00 2549.00 L 2200.00 2549.00 L 2220.00 2548.00 L 2240.00 2548.00 L 2260.00 2547.00 L 2300.00 2547.00 L 2320.00 2546.00 L 2340.00 2546.00 L 2360.00 2566.00 L 2380.00 2545.00 L 2400.00 2565.00 L 2420.00 2585.00 L 2440.00 2564.00 L 2460.00 2544.00 L 2480.00 2544.00 L 2500.00 2543.00 L 2540.00 2543.00 L 2560.00 2542.00 L 2591.49 2542.00 L 2563.93 2449.80 Z" />
<path id="csg562-063-16" fill="none" stroke="black" stroke-width="1" d="M 2560.00 2542.00 L 2540.00 2543.00 L 2500.00 2543.00 L 2480.00 2544.00 L 2460.00 2544.00 L 2440.00 2564.00 L 2420.00 2585.00 L 2400.00 2565.00 L 2380.00 2545.00 L 2360.00 2566.00 L 2340.00 2546.00 L 2320.00 2546.00 L 2300.00 2547.00 L 2260.00 2547.00 L 2240.00 2548.00 L 2220.00 2548.00 L 2200.00 2549.00 L 2160.00 2549.00 L 2140.00 2550.00 L 2100.00 2550.00 L 2080.00 2551.00 L 2060.00 2571.00 L 2040.00 2551.00 L 2020.00 2552.00 L 1980.00 2552.00 L 1960.00 2553.00 L 1920.00 2553.00 L 1900.00 2554.00 L 1860.00 2554.00 L 1840.00 2555.00 L 1800.00 2555.00 L 1780.00 2556.00 L 1740.00 2556.00 L 1720.00 2557.00 L 1700.00 2557.00 L 1680.00 2558.00 L 1640.00 2558.00 L 1620.00 2579.00 L 1600.00 2599.00 L 1580.00 2559.00 L 1560.00 2560.00 L 1520.00 2560.00 L 1500.00 2561.00 L 1460.00 2561.00 L 1440.00 2562.00 L 1400.00 2562.00 L 1380.00 2563.00 L 1360.00 2563.00 L 1340.00 2583.00 L 1320.00 2604.00 L 1300.00 2564.00 L 1280.00 2564.00 L 1260.00 2565.00 L 1240.00 2565.00 L 1220.00 2566.00 L 1180.00 2566.00 L 1160.00 2567.00 L 1120.00 2567.00 L 1100.00 2568.00 L 1060.00 2568.00 L 1040.00 2569.00 L 1000.00 2569.00 L 980.00 2570.00 L 940.00 2570.00 L 920.00 2571.00 L 900.00 2571.00 L 880.00 2591.00 L 860.00 2592.00 L 840.00 2572.00 L 820.00 2572.00 L 800.00 2573.00 L 780.00 2573.00 L 760.00 2574.00 L 720.00 2574.00 L 700.00 2575.00 L 660.00 2575.00 L 640.00 2576.00 L 600.00 2576.00 L 580.00 2577.00 L 540.00 2577.00 L 520.00 2578.00 L 480.00 2578.00 L 460.00 2579.00 L 420.00 2579.00 L 400.00 2580.00 L 360.00 2580.00 L 340.00 2581.00 L 337.95 2581.00 L 317.01 2694.64 L 320.00 2693.00 L 360.00 2693.00 L 380.00 2692.00 L 420.00 2692.00 L 440.00 2691.00 L 480.00 2691.00 L 500.00 2690.00 L 540.00 2690.00 L 560.00 2689.00 L 600.00 2689.00 L 620.00 2688.00 L 660.00 2688.00 L 680.00 2687.00 L 740.00 2687.00 L 760.00 2686.00 L 800.00 2686.00 L 820.00 2685.00 L 840.00 2705.00 L 860.00 2705.00 L 880.00 2704.00 L 900.00 2684.00 L 920.00 2684.00 L 940.00 2683.00 L 960.00 2683.00 L 980.00 2703.00 L 1000.00 2682.00 L 1040.00 2682.00 L 1060.00 2681.00 L 1100.00 2681.00 L 1120.00 2680.00 L 1180.00 2680.00 L 1200.00 2679.00 L 1240.00 2679.00 L 1260.00 2678.00 L 1300.00 2678.00 L 1320.00 2677.00 L 1360.00 2677.00 L 1380.00 2676.00 L 1420.00 2676.00 L 1440.00 2675.00 L 1480.00 2675.00 L 1500.00 2674.00 L 1540.00 2674.00 L 1560.00 2673.00 L 1620.00 2673.00 L 1640.00 2672.00 L 1680.00 2672.00 L 1700.00 2671.00 L 1740.00 2671.00 L 1760.00 2670.00 L 1800.00 2670.00 L 1820.00 2669.00 L 1840.00 2669.00 L 1860.00 2709.00 L 1880.00 2708.00 L 1900.00 2708.00 L 1920.00 2688.00 L 1940.00 2667.00 L 1980.00 2667.00 L 2000.00 2666.00 L 2060.00 2666.00 L 2080.00 2665.00 L 2120.00 2665.00 L 2140.00 2664.00 L 2180.00 2664.00 L 2200.00 2663.00 L 2240.00 2663.00 L 2260.00 2662.00 L 2300.00 2662.00 L 2320.00 2661.00 L 2360.00 2661.00 L 2380.00 2660.00 L 2420.00 2660.00 L 2440.00 2659.00 L 2500.00 2659.00 L 2520.00 2678.00 L 2540.00 2658.00 L 2560.00 2658.00 L 2580.00 2657.00 L 2612.93 2657.00 L 2619.00 2634.00 L 2591.49 2542.00 Z" />
<path id="csg562-063-17" fill="none" stroke="black" stroke-width="1" d="M 2580.00 2657.00 L 2560.00 2658.00 L 2540.00 2658.00 L 2520.00 2678.00 L 2500.00 2659.00 L 2440.00 2659.00 L 2420.00 2660.00 L 2380.00 2660.00 L 2360.00 2661.00 L 2320.00 2661.00 L 2300.00 2662.00 L 2260.00 2662.00 L 2240.00 2663.00 L 2200.00 2663.00 L 2180.00 2664.00 L 2140.00 2664.00 L 2120.00 2665.00 L 2080.00 2665.00 L 2060.00 2666.00 L 2000.00 2666.00 L 1980.00 2667.00 L 1940.00 2667.00 L 1920.00 2688.00 L 1900.00 2708.00 L 1880.00 2708.00 L 1860.00 2709.00 L 1840.00 2669.00 L 1820.00 2669.00 L 1800.00 2670.00 L 1760.00 2670.00 L 1740.00 2671.00 L 1700.00 2671.00 L 1680.00 2672.00 L 1640.00 2672.00 L 1620.00 2673.00 L 1560.00 2673.00 L 1540.00 2674.00 L 1500.00 2674.00 L 1480.00 2675.00 L 1440.00 2675.00 L 1420.00 2676.00 L 1380.00 2676.00 L 1360.00 2677.00 L 1320.00 2677.00 L 1300.00 2678.00 L 1260.00 2678.00 L 1240.00 2679.00 L 1200.00 2679.00 L 1180.00 2680.00 L 1120.00 2680.00 L 1100.00 2681.00 L 1060.00 2681.00 L 1040.00 2682.00 L 1000.00 2682.00 L 980.00 2703.00 L 960.00 2683.00 L 940.00 2683.00 L 920.00 2684.00 L 900.00 2684.00 L 880.00 2704.00 L 860.00 2705.00 L 840.00 2705.00 L 820.00 2685.00 L 800.00 2686.00 L 760.00 2686.00 L 740.00 2687.00 L 680.00 2687.00 L 660.00 2688.00 L 620.00 2688.00 L 600.00 2689.00 L 560.00 2689.00 L 540.00 2690.00 L 500.00 2690.00 L 480.00 2691.00 L 440.00 2691.00 L 420.00 2692.00 L 380.00 2692.00 L 360.00 2693.00 L 320.00 2693.00 L 317.01 2694.64 L 300.00 2787.00 L 306.33 2811.52 L 320.00 2804.00 L 380.00 2804.00 L 400.00 2803.00 L 480.00 2803.00 L 500.00 2802.00 L 580.00 2802.00 L 600.00 2801.00 L 680.00 2801.00 L 700.00 2800.00 L 780.00 2800.00 L 800.00 2799.00 L 880.00 2799.00 L 900.00 2798.00 L 980.00 2798.00 L 1000.00 2797.00 L 1060.00 2797.00 L 1080.00 2796.00 L 1160.00 2796.00 L 1180.00 2795.00 L 1260.00 2795.00 L 1280.00 2794.00 L 1340.00 2794.00 L 1360.00 2814.00 L 1380.00 2813.00 L 1400.00 2793.00 L 1460.00 2793.00 L 1480.00 2792.00 L 1560.00 2792.00 L 1580.00 2791.00 L 1600.00 2791.00 L 1620.00 2811.00 L 1640.00 2791.00 L 1660.00 2791.00 L 1680.00 2790.00 L 1740.00 2790.00 L 1760.00 2789.00 L 1840.00 2789.00 L 1860.00 2788.00 L 1940.00 2788.00 L 1960.00 2787.00 L 2040.00 2787.00 L 2060.00 2786.00 L 2140.00 2786.00 L 2160.00 2785.00 L 2240.00 2785.00 L 2260.00 2784.00 L 2340.00 2784.00 L 2360.00 2783.00 L 2420.00 2783.00 L 2440.00 2782.00 L 2520.00 2782.00 L 2540.00 2781.00 L 2580.23 2781.00 L 2612.93 2657.00 Z" />
<path id="csg562-063-18" fill="none" stroke="black" stroke-width="1" d="M 2540.00 2781.00 L 2520.00 2782.00 L 2440.00 2782.00 L 2420.00 2783.00 L 2360.00 2783.00 L 2340.00 2784.00 L 2260.00 2784.00 L 2240.00 2785.00 L 2160.00 2785.00 L 2140.00 2786.00 L 2060.00 2786.00 L 2040.00 2787.00 L 1960.00 2787.00 L 1940.00 2788.00 L 1860.00 2788.00 L 1840.00 2789.00 L 1760.00 2789.00 L 1740.00 2790.00 L 1680.00 2790.00 L 1660.00 2791.00 L 1640.00 2791.00 L 1620.00 2811.00 L 1600.00 2791.00 L 1580.00 2791.00 L 1560.00 2792.00 L 1480.00 2792.00 L 1460.00 2793.00 L 1400.00 2793.00 L 1380.00 2813.00 L 1360.00 2814.00 L 1340.00 2794.00 L 1280.00 2794.00 L 1260.00 2795.00 L 1180.00 2795.00 L 1160.00 2796.00 L 1080.00 2796.00 L 1060.00 2797.00 L 1000.00 2797.00 L 980.00 2798.00 L 900.00 2798.00 L 880.00 2799.00 L 800.00 2799.00 L 780.00 2800.00 L 700.00 2800.00 L 680.00 2801.00 L 600.00 2801.00 L 580.00 2802.00 L 500.00 2802.00 L 480.00 2803.00 L 400.00 2803.00 L 380.00 2804.00 L 320.00 2804.00 L 306.33 2811.52 L 336.17 2927.00 L 360.00 2927.00 L 380.00 2926.00 L 420.00 2926.00 L 440.00 2925.00 L 480.00 2925.00 L 500.00 2945.00 L 520.00 2944.00 L 540.00 2944.00 L 560.00 2924.00 L 580.00 2923.00 L 640.00 2923.00 L 660.00 2922.00 L 700.00 2922.00 L 720.00 2921.00 L 780.00 2921.00 L 800.00 2920.00 L 840.00 2920.00 L 860.00 2919.00 L 920.00 2919.00 L 940.00 2918.00 L 980.00 2918.00 L 1000.00 2917.00 L 1060.00 2917.00 L 1080.00 2936.00 L 1100.00 2936.00 L 1120.00 2916.00 L 1140.00 2915.00 L 1200.00 2915.00 L 1220.00 2914.00 L 1260.00 2914.00 L 1280.00 2913.00 L 1340.00 2913.00 L 1360.00 2912.00 L 1400.00 2912.00 L 1420.00 2911.00 L 1480.00 2911.00 L 1500.00 2910.00 L 1540.00 2910.00 L 1560.00 2909.00 L 1620.00 2909.00 L 1640.00 2908.00 L 1680.00 2908.00 L 1700.00 2907.00 L 1760.00 2907.00 L 1780.00 2906.00 L 1820.00 2906.00 L 1840.00 2905.00 L 1860.00 2905.00 L 1880.00 2885.00 L 1900.00 2905.00 L 1920.00 2904.00 L 1960.00 2904.00 L 1980.00 2903.00 L 2040.00 2903.00 L 2060.00 2902.00 L 2100.00 2902.00 L 2120.00 2901.00 L 2180.00 2901.00 L 2200.00 2900.00 L 2240.00 2900.00 L 2260.00 2899.00 L 2320.00 2899.00 L 2340.00 2898.00 L 2380.00 2898.00 L 2400.00 2897.00 L 2460.00 2897.00 L 2480.00 2896.00 L 2520.00 2896.00 L 2540.00 2895.00 L 2550.16 2895.00 L 2580.23 2781.00 Z" />
<path id="csg562-063-19" fill="none" stroke="black" stroke-width="1" d="M 1880.00 2885.00 L 1860.00 2905.00 L 1840.00 2905.00 L 1820.00 2906.00 L 1780.00 2906.00 L 1760.00 2907.00 L 1700.00 2907.00 L 1680.00 2908.00 L 1640.00 2908.00 L 1620.00 2909.00 L 1560.00 2909.00 L 1540.00 2910.00 L 1500.00 2910.00 L 1480.00 2911.00 L 1420.00 2911.00 L 1400.00 2912.00 L 1360.00 2912.00 L 1340.00 2913.00 L 1280.00 2913.00 L 1260.00 2914.00 L 1220.00 2914.00 L 1200.00 2915.00 L 1140.00 2915.00 L 1120.00 2916.00 L 1100.00 2936.00 L 1080.00 2936.00 L 1060.00 2917.00 L 1000.00 2917.00 L 980.00 2918.00 L 940.00 2918.00 L 920.00 2919.00 L 860.00 2919.00 L 840.00 2920.00 L 800.00 2920.00 L 780.00 2921.00 L 720.00 2921.00 L 700.00 2922.00 L 660.00 2922.00 L 640.00 2923.00 L 580.00 2923.00 L 560.00 2924.00 L 540.00 2944.00 L 520.00 2944.00 L 500.00 2945.00 L 480.00 2925.00 L 440.00 2925.00 L 420.00 2926.00 L 380.00 2926.00 L 360.00 2927.00 L 336.17 2927.00 L 361.74 3026.00 L 400.00 3026.00 L 420.00 3025.00 L 500.00 3025.00 L 520.00 3024.00 L 620.00 3024.00 L 640.00 3023.00 L 720.00 3023.00 L 740.00 3022.00 L 840.00 3022.00 L 860.00 3021.00 L 940.00 3021.00 L 960.00 3020.00 L 1060.00 3020.00 L 1080.00 3019.00 L 1160.00 3019.00 L 1180.00 3018.00 L 1280.00 3018.00 L 1300.00 3017.00 L 1380.00 3017.00 L 1400.00 3016.00 L 1500.00 3016.00 L 1520.00 3015.00 L 1600.00 3015.00 L 1620.00 3014.00 L 1720.00 3014.00 L 1740.00 3013.00 L 1820.00 3013.00 L 1840.00 3012.00 L 1940.00 3012.00 L 1960.00 3011.00 L 2040.00 3011.00 L 2060.00 3010.00 L 2140.00 3010.00 L 2160.00 3029.00 L 2180.00 3009.00 L 2240.00 3009.00 L 2260.00 2989.00 L 2280.00 3008.00 L 2360.00 3008.00 L 2380.00 3007.00 L 2480.00 3007.00 L 2500.00 3006.00 L 2522.25 3006.00 L 2547.00 2907.00 L 2550.16 2895.00 L 2540.00 2895.00 L 2520.00 2896.00 L 2480.00 2896.00 L 2460.00 2897.00 L 2400.00 2897.00 L 2380.00 2898.00 L 2340.00 2898.00 L 2320.00 2899.00 L 2260.00 2899.00 L 2240.00 2900.00 L 2200.00 2900.00 L 2180.00 2901.00 L 2120.00 2901.00 L 2100.00 2902.00 L 2060.00 2902.00 L 2040.00 2903.00 L 1980.00 2903.00 L 1960.00 2904.00 L 1920.00 2904.00 L 1900.00 2905.00 L 1880.00 2885.00 Z" />
<path id="csg562-063-20" fill="none" stroke="black" stroke-width="1" d="M 2260.00 2989.00 L 2240.00 3009.00 L 2180.00 3009.00 L 2160.00 3029.00 L 2140.00 3010.00 L 2060.00 3010.00 L 2040.00 3011.00 L 1960.00 3011.00 L 1940.00 3012.00 L 1840.00 3012.00 L 1820.00 3013.00 L 1740.00 3013.00 L 1720.00 3014.00 L 1620.00 3014.00 L 1600.00 3015.00 L 1520.00 3015.00 L 1500.00 3016.00 L 1400.00 3016.00 L 1380.00 3017.00 L 1300.00 3017.00 L 1280.00 3018.00 L 1180.00 3018.00 L 1160.00 3019.00 L 1080.00 3019.00 L 1060.00 3020.00 L 960.00 3020.00 L 940.00 3021.00 L 860.00 3021.00 L 840.00 3022.00 L 740.00 3022.00 L 720.00 3023.00 L 640.00 3023.00 L 620.00 3024.00 L 520.00 3024.00 L 500.00 3025.00 L 420.00 3025.00 L 400.00 3026.00 L 361.74 3026.00 L 391.56 3141.42 L 400.00 3141.00 L 480.00 3141.00 L 500.00 3140.00 L 580.00 3140.00 L 600.00 3139.00 L 660.00 3139.00 L 680.00 3138.00 L 760.00 3138.00 L 780.00 3137.00 L 860.00 3137.00 L 880.00 3136.00 L 940.00 3136.00 L 960.00 3135.00 L 1040.00 3135.00 L 1060.00 3134.00 L 1140.00 3134.00 L 1160.00 3133.00 L 1240.00 3133.00 L 1260.00 3132.00 L 1320.00 3132.00 L 1340.00 3131.00 L 1400.00 3131.00 L 1420.00 3151.00 L 1440.00 3150.00 L 1460.00 3130.00 L 1520.00 3130.00 L 1540.00 3129.00 L 1600.00 3129.00 L 1620.00 3128.00 L 1700.00 3128.00 L 1720.00 3127.00 L 1800.00 3127.00 L 1820.00 3126.00 L 1900.00 3126.00 L 1920.00 3125.00 L 1980.00 3125.00 L 2000.00 3124.00 L 2080.00 3124.00 L 2100.00 3123.00 L 2180.00 3123.00 L 2200.00 3122.00 L 2260.00 3122.00 L 2280.00 3121.00 L 2360.00 3121.00 L 2380.00 3120.00 L 2460.00 3120.00 L 2480.00 3119.00 L 2494.00 3119.00 L 2522.25 3006.00 L 2500.00 3006.00 L 2480.00 3007.00 L 2380.00 3007.00 L 2360.00 3008.00 L 2280.00 3008.00 L 2260.00 2989.00 Z" />
<path id="csg562-063-21" fill="none" stroke="black" stroke-width="1" d="M 2480.00 3119.00 L 2460.00 3120.00 L 2380.00 3120.00 L 2360.00 3121.00 L 2280.00 3121.00 L 2260.00 3122.00 L 2200.00 3122.00 L 2180.00 3123.00 L 2100.00 3123.00 L 2080.00 3124.00 L 2000.00 3124.00 L 1980.00 3125.00 L 1920.00 3125.00 L 1900.00 3126.00 L 1820.00 3126.00 L 1800.00 3127.00 L 1720.00 3127.00 L 1700.00 3128.00 L 1620.00 3128.00 L 1600.00 3129.00 L 1540.00 3129.00 L 1520.00 3130.00 L 1460.00 3130.00 L 1440.00 3150.00 L 1420.00 3151.00 L 1400.00 3131.00 L 1340.00 3131.00 L 1320.00 3132.00 L 1260.00 3132.00 L 1240.00 3133.00 L 1160.00 3133.00 L 1140.00 3134.00 L 1060.00 3134.00 L 1040.00 3135.00 L 960.00 3135.00 L 940.00 3136.00 L 880.00 3136.00 L 860.00 3137.00 L 780.00 3137.00 L 760.00 3138.00 L 680.00 3138.00 L 660.00 3139.00 L 600.00 3139.00 L 580.00 3140.00 L 500.00 3140.00 L 480.00 3141.00 L 400.00 3141.00 L 391.56 3141.42 L 393.00 3147.00 L 345.00 3225.00 L 350.53 3254.47 L 360.00 3254.00 L 380.00 3254.00 L 400.00 3253.00 L 440.00 3253.00 L 460.00 3252.00 L 480.00 3252.00 L 500.00 3251.00 L 540.00 3251.00 L 560.00 3250.00 L 580.00 3250.00 L 600.00 3249.00 L 640.00 3249.00 L 660.00 3248.00 L 680.00 3248.00 L 700.00 3247.00 L 740.00 3247.00 L 760.00 3246.00 L 780.00 3246.00 L 800.00 3245.00 L 840.00 3245.00 L 860.00 3244.00 L 880.00 3244.00 L 900.00 3243.00 L 940.00 3243.00 L 960.00 3242.00 L 980.00 3242.00 L 1000.00 3241.00 L 1040.00 3241.00 L 1060.00 3240.00 L 1080.00 3240.00 L 1100.00 3239.00 L 1120.00 3239.00 L 1140.00 3238.00 L 1180.00 3238.00 L 1200.00 3237.00 L 1220.00 3237.00 L 1240.00 3236.00 L 1280.00 3236.00 L 1300.00 3235.00 L 1320.00 3235.00 L 1340.00 3234.00 L 1380.00 3234.00 L 1400.00 3233.00 L 1420.00 3233.00 L 1440.00 3232.00 L 1480.00 3232.00 L 1500.00 3231.00 L 1520.00 3231.00 L 1540.00 3230.00 L 1580.00 3230.00 L 1600.00 3249.00 L 1620.00 3269.00 L 1640.00 3268.00 L 1660.00 3248.00 L 1680.00 3228.00 L 1700.00 3227.00 L 1720.00 3227.00 L 1740.00 3226.00 L 1780.00 3226.00 L 1800.00 3225.00 L 1820.00 3225.00 L 1840.00 3224.00 L 1860.00 3224.00 L 1880.00 3223.00 L 1920.00 3223.00 L 1940.00 3222.00 L 1960.00 3222.00 L 1980.00 3221.00 L 2000.00 3241.00 L 2020.00 3261.00 L 2040.00 3220.00 L 2060.00 3220.00 L 2080.00 3219.00 L 2120.00 3219.00 L 2140.00 3238.00 L 2160.00 3218.00 L 2180.00 3217.00 L 2220.00 3217.00 L 2240.00 3216.00 L 2260.00 3216.00 L 2280.00 3255.00 L 2300.00 3255.00 L 2320.00 3235.00 L 2340.00 3234.00 L 2360.00 3234.00 L 2380.00 3233.00 L 2420.00 3233.00 L 2440.00 3232.00 L 2460.00 3232.00 L 2480.00 3211.00 L 2484.56 3211.00 L 2484.00 3159.00 L 2494.00 3119.00 Z" />
<path id="csg562-063-22" fill="none" stroke="black" stroke-width="1" d="M 2480.00 3211.00 L 2460.00 3232.00 L 2440.00 3232.00 L 2420.00 3233.00 L 2380.00 3233.00 L 2360.00 3234.00 L 2340.00 3234.00 L 2320.00 3235.00 L 2300.00 3255.00 L 2280.00 3255.00 L 2260.00 3216.00 L 2240.00 3216.00 L 2220.00 3217.00 L 2180.00 3217.00 L 2160.00 3218.00 L 2140.00 3238.00 L 2120.00 3219.00 L 2080.00 3219.00 L 2060.00 3220.00 L 2040.00 3220.00 L 2020.00 3261.00 L 2000.00 3241.00 L 1980.00 3221.00 L 1960.00 3222.00 L 1940.00 3222.00 L 1920.00 3223.00 L 1880.00 3223.00 L 1860.00 3224.00 L 1840.00 3224.00 L 1820.00 3225.00 L 1800.00 3225.00 L 1780.00 3226.00 L 1740.00 3226.00 L 1720.00 3227.00 L 1700.00 3227.00 L 1680.00 3228.00 L 1660.00 3248.00 L 1640.00 3268.00 L 1620.00 3269.00 L 1600.00 3249.00 L 1580.00 3230.00 L 1540.00 3230.00 L 1520.00 3231.00 L 1500.00 3231.00 L 1480.00 3232.00 L 1440.00 3232.00 L 1420.00 3233.00 L 1400.00 3233.00 L 1380.00 3234.00 L 1340.00 3234.00 L 1320.00 3235.00 L 1300.00 3235.00 L 1280.00 3236.00 L 1240.00 3236.00 L 1220.00 3237.00 L 1200.00 3237.00 L 1180.00 3238.00 L 1140.00 3238.00 L 1120.00 3239.00 L 1100.00 3239.00 L 1080.00 3240.00 L 1060.00 3240.00 L 1040.00 3241.00 L 1000.00 3241.00 L 980.00 3242.00 L 960.00 3242.00 L 940.00 3243.00 L 900.00 3243.00 L 880.00 3244.00 L 860.00 3244.00 L 840.00 3245.00 L 800.00 3245.00 L 780.00 3246.00 L 760.00 3246.00 L 740.00 3247.00 L 700.00 3247.00 L 680.00 3248.00 L 660.00 3248.00 L 640.00 3249.00 L 600.00 3249.00 L 580.00 3250.00 L 560.00 3250.00 L 540.00 3251.00 L 500.00 3251.00 L 480.00 3252.00 L 460.00 3252.00 L 440.00 3253.00 L 400.00 3253.00 L 380.00 3254.00 L 360.00 3254.00 L 350.53 3254.47 L 372.07 3369.40 L 380.00 3369.00 L 420.00 3369.00 L 440.00 3368.00 L 460.00 3388.00 L 480.00 3388.00 L 500.00 3367.00 L 540.00 3367.00 L 560.00 3366.00 L 620.00 3366.00 L 640.00 3365.00 L 680.00 3365.00 L 700.00 3364.00 L 740.00 3364.00 L 760.00 3363.00 L 800.00 3363.00 L 820.00 3362.00 L 880.00 3362.00 L 900.00 3361.00 L 940.00 3361.00 L 960.00 3360.00 L 1000.00 3360.00 L 1020.00 3359.00 L 1060.00 3359.00 L 1080.00 3358.00 L 1140.00 3358.00 L 1160.00 3357.00 L 1200.00 3357.00 L 1220.00 3356.00 L 1260.00 3356.00 L 1280.00 3375.00 L 1320.00 3375.00 L 1340.00 3374.00 L 1380.00 3374.00 L 1400.00 3353.00 L 1460.00 3353.00 L 1480.00 3352.00 L 1520.00 3352.00 L 1540.00 3351.00 L 1580.00 3351.00 L 1600.00 3350.00 L 1640.00 3350.00 L 1660.00 3349.00 L 1700.00 3349.00 L 1720.00 3369.00 L 1740.00 3368.00 L 1760.00 3368.00 L 1780.00 3348.00 L 1800.00 3347.00 L 1820.00 3347.00 L 1840.00 3367.00 L 1860.00 3366.00 L 1880.00 3366.00 L 1900.00 3346.00 L 1920.00 3345.00 L 1980.00 3345.00 L 2000.00 3344.00 L 2040.00 3344.00 L 2060.00 3343.00 L 2100.00 3343.00 L 2120.00 3342.00 L 2160.00 3342.00 L 2180.00 3341.00 L 2240.00 3341.00 L 2260.00 3340.00 L 2300.00 3340.00 L 2320.00 3339.00 L 2360.00 3339.00 L 2380.00 3338.00 L 2420.00 3338.00 L 2440.00 3337.00 L 2480.00 3337.00 L 2485.91 3336.70 L 2484.56 3211.00 Z" />
<path id="csg562-063-23" fill="none" stroke="black" stroke-width="1" d="M 2485.91 3336.70 L 2480.00 3337.00 L 2440.00 3337.00 L 2420.00 3338.00 L 2380.00 3338.00 L 2360.00 3339.00 L 2320.00 3339.00 L 2300.00 3340.00 L 2260.00 3340.00 L 2240.00 3341.00 L 2180.00 3341.00 L 2160.00 3342.00 L 2120.00 3342.00 L 2100.00 3343.00 L 2060.00 3343.00 L 2040.00 3344.00 L 2000.00 3344.00 L 1980.00 3345.00 L 1920.00 3345.00 L 1900.00 3346.00 L 1880.00 3366.00 L 1860.00 3366.00 L 1840.00 3367.00 L 1820.00 3347.00 L 1800.00 3347.00 L 1780.00 3348.00 L 1760.00 3368.00 L 1740.00 3368.00 L 1720.00 3369.00 L 1700.00 3349.00 L 1660.00 3349.00 L 1640.00 3350.00 L 1600.00 3350.00 L 1580.00 3351.00 L 1540.00 3351.00 L 1520.00 3352.00 L 1480.00 3352.00 L 1460.00 3353.00 L 1400.00 3353.00 L 1380.00 3374.00 L 1340.00 3374.00 L 1320.00 3375.00 L 1280.00 3375.00 L 1260.00 3356.00 L 1220.00 3356.00 L 1200.00 3357.00 L 1160.00 3357.00 L 1140.00 3358.00 L 1080.00 3358.00 L 1060.00 3359.00 L 1020.00 3359.00 L 1000.00 3360.00 L 960.00 3360.00 L 940.00 3361.00 L 900.00 3361.00 L 880.00 3362.00 L 820.00 3362.00 L 800.00 3363.00 L 760.00 3363.00 L 740.00 3364.00 L 700.00 3364.00 L 680.00 3365.00 L 640.00 3365.00 L 620.00 3366.00 L 560.00 3366.00 L 540.00 3367.00 L 500.00 3367.00 L 480.00 3388.00 L 460.00 3388.00 L 440.00 3368.00 L 420.00 3369.00 L 380.00 3369.00 L 372.07 3369.40 L 381.00 3417.00 L 338.95 3511.00 L 360.00 3511.00 L 380.00 3510.00 L 388.78 3518.78 L 417.10 3512.90 L 420.00 3510.00 L 434.57 3509.27 L 561.00 3483.00 L 1506.00 3471.00 L 1755.33 3488.00 L 1780.00 3488.00 L 1800.00 3487.00 L 1860.00 3487.00 L 1880.00 3486.00 L 1920.00 3486.00 L 1940.00 3485.00 L 1980.00 3485.00 L 2000.00 3484.00 L 2038.50 3484.00 L 2487.00 3438.00 L 2485.91 3336.70 Z" />
</svg>
